<?xml version="1.0" encoding="utf-8" standalone="no"?>
<!DOCTYPE svg PUBLIC "-//W3C//DTD SVG 1.1//EN"
  "http://www.w3.org/Graphics/SVG/1.1/DTD/svg11.dtd">
<svg xmlns:xlink="http://www.w3.org/1999/xlink" width="67.24625pt" height="100.3875pt" viewBox="0 0 67.24625 100.3875" xmlns="http://www.w3.org/2000/svg" version="1.1">
 <metadata>
  <rdf:RDF xmlns:dc="http://purl.org/dc/elements/1.1/" xmlns:cc="http://creativecommons.org/ns#" xmlns:rdf="http://www.w3.org/1999/02/22-rdf-syntax-ns#">
   <cc:Work>
    <dc:type rdf:resource="http://purl.org/dc/dcmitype/StillImage"/>
    <dc:date>2026-04-02T15:51:15.695235</dc:date>
    <dc:format>image/svg+xml</dc:format>
    <dc:creator>
     <cc:Agent>
      <dc:title>Matplotlib v3.10.8, https://matplotlib.org/</dc:title>
     </cc:Agent>
    </dc:creator>
   </cc:Work>
  </rdf:RDF>
 </metadata>
 <defs>
  <style type="text/css">*{stroke-linejoin: round; stroke-linecap: butt}</style>
 </defs>
 <g id="figure_1">
  <g id="patch_1">
   <path d="M 0 100.3875 
L 67.24625 100.3875 
L 67.24625 0 
L 0 0 
z
" style="fill: #ffffff"/>
  </g>
  <g id="axes_1">
   <g id="patch_2">
    <path d="M 24.04625 88.734375 
L 60.04625 88.734375 
L 60.04625 16.734375 
L 24.04625 16.734375 
z
" style="fill: #ffffff"/>
   </g>
   <g id="line2d_1">
    <path d="M 24.04625 53.635732 
L 60.04625 53.635732 
" clip-path="url(#p633358c771)" style="fill: none; stroke-dasharray: 2.516,1.088; stroke-dashoffset: 0; stroke: #808080; stroke-opacity: 0.5; stroke-width: 0.68"/>
   </g>
   <g id="patch_3">
    <path d="M 36.04625 69.186864 
L 38.839606 69.186864 
L 38.893845 68.935835 
L 38.947674 68.684806 
L 39.001168 68.433777 
L 39.054411 68.182748 
L 39.107501 67.931719 
L 39.160546 67.68069 
L 39.213666 67.429661 
L 39.266989 67.178632 
L 39.320654 66.927604 
L 39.374807 66.676575 
L 39.429603 66.425546 
L 39.485203 66.174517 
L 39.541773 65.923488 
L 39.599485 65.672459 
L 39.658512 65.42143 
L 39.719032 65.170401 
L 39.781223 64.919372 
L 39.84526 64.668343 
L 39.911322 64.417315 
L 39.97958 64.166286 
L 40.050205 63.915257 
L 40.123361 63.664228 
L 40.199207 63.413199 
L 40.277892 63.16217 
L 40.359561 62.911141 
L 40.444345 62.660112 
L 40.532369 62.409083 
L 40.623742 62.158054 
L 40.718566 61.907026 
L 40.816926 61.655997 
L 40.918895 61.404968 
L 41.024532 61.153939 
L 41.133882 60.90291 
L 41.246972 60.651881 
L 41.363816 60.400852 
L 41.484411 60.149823 
L 41.608739 59.898794 
L 41.736763 59.647765 
L 41.868433 59.396737 
L 42.00368 59.145708 
L 42.14242 58.894679 
L 42.284552 58.64365 
L 42.42996 58.392621 
L 42.578509 58.141592 
L 42.730052 57.890563 
L 42.884426 57.639534 
L 43.041452 57.388505 
L 43.200936 57.137476 
L 43.362674 56.886448 
L 43.526444 56.635419 
L 43.692014 56.38439 
L 43.859141 56.133361 
L 44.027567 55.882332 
L 44.197028 55.631303 
L 44.367247 55.380274 
L 44.537941 55.129245 
L 44.708818 54.878216 
L 44.879579 54.627187 
L 45.04992 54.376159 
L 45.219533 54.12513 
L 45.388105 53.874101 
L 45.555324 53.623072 
L 45.720875 53.372043 
L 45.884444 53.121014 
L 46.04572 52.869985 
L 46.204394 52.618956 
L 46.360163 52.367927 
L 46.51273 52.116898 
L 46.661808 51.86587 
L 46.807115 51.614841 
L 46.948385 51.363812 
L 47.085361 51.112783 
L 47.217802 50.861754 
L 47.345482 50.610725 
L 47.468191 50.359696 
L 47.585739 50.108667 
L 47.697955 49.857638 
L 47.804688 49.606609 
L 47.90581 49.355581 
L 48.001216 49.104552 
L 48.090824 48.853523 
L 48.174578 48.602494 
L 48.252446 48.351465 
L 48.324423 48.100436 
L 48.390529 47.849407 
L 48.450811 47.598378 
L 48.505342 47.347349 
L 48.554221 47.09632 
L 48.597572 46.845292 
L 48.635546 46.594263 
L 48.668316 46.343234 
L 48.69608 46.092205 
L 48.719058 45.841176 
L 48.737489 45.590147 
L 48.751635 45.339118 
L 48.761774 45.088089 
L 48.768201 44.83706 
L 48.771225 44.586031 
L 48.771167 44.335003 
L 48.76836 44.083974 
L 48.763145 43.832945 
L 48.75587 43.581916 
L 48.746885 43.330887 
L 48.736545 43.079858 
L 48.725202 42.828829 
L 48.713208 42.5778 
L 48.70091 42.326771 
L 48.688647 42.075742 
L 48.676751 41.824714 
L 48.665544 41.573685 
L 48.655336 41.322656 
L 48.646422 41.071627 
L 48.639082 40.820598 
L 48.633582 40.569569 
L 48.630168 40.31854 
L 48.629068 40.067511 
L 48.63049 39.816482 
L 48.634625 39.565453 
L 48.64164 39.314425 
L 48.651682 39.063396 
L 48.664878 38.812367 
L 48.681335 38.561338 
L 48.701136 38.310309 
L 48.724349 38.05928 
L 48.751017 37.808251 
L 48.781167 37.557222 
L 48.814806 37.306193 
L 48.851927 37.055164 
L 48.892501 36.804136 
L 48.936489 36.553107 
L 48.983832 36.302078 
L 49.034463 36.051049 
L 49.088298 35.80002 
L 49.145244 35.548991 
L 49.205198 35.297962 
L 49.268046 35.046933 
L 49.333666 34.795904 
L 49.401931 34.544875 
L 49.472702 34.293847 
L 49.54584 34.042818 
L 49.621195 33.791789 
L 49.698615 33.54076 
L 49.777944 33.289731 
L 49.859017 33.038702 
L 49.94167 32.787673 
L 50.02573 32.536644 
L 50.111021 32.285615 
L 50.197363 32.034586 
L 50.28457 31.783558 
L 50.372449 31.532529 
L 50.460801 31.2815 
L 50.549421 31.030471 
L 50.638096 30.779442 
L 50.726603 30.528413 
L 50.814713 30.277384 
L 50.902185 30.026355 
L 50.988768 29.775326 
L 51.0742 29.524297 
L 51.158207 29.273269 
L 51.240505 29.02224 
L 51.320794 28.771211 
L 51.398765 28.520182 
L 51.474095 28.269153 
L 51.546448 28.018124 
L 51.615476 27.767095 
L 51.68082 27.516066 
L 51.74211 27.265037 
L 51.798965 27.014008 
L 51.850995 26.76298 
L 51.897805 26.511951 
L 51.938989 26.260922 
L 51.974142 26.009893 
L 52.002853 25.758864 
L 52.024713 25.507835 
L 52.039313 25.256806 
L 52.04625 25.005777 
L 52.045128 24.754748 
L 52.035562 24.503719 
L 52.017177 24.252691 
L 51.989617 24.001662 
L 51.952541 23.750633 
L 51.905633 23.499604 
L 51.848599 23.248575 
L 51.781172 22.997546 
L 51.703116 22.746517 
L 51.614228 22.495488 
L 51.514339 22.244459 
L 51.403315 21.99343 
L 51.281065 21.742402 
L 51.147537 21.491373 
L 51.002721 21.240344 
L 50.846652 20.989315 
L 50.679408 20.738286 
L 50.501113 20.487257 
L 50.311938 20.236228 
L 50.112097 19.985199 
L 49.901851 19.73417 
L 49.681504 19.483141 
L 49.451403 19.232113 
L 36.04625 19.232113 
z
" clip-path="url(#p633358c771)" style="fill: #20590b; opacity: 0.2"/>
   </g>
   <g id="matplotlib.axis_1">
    <g id="xtick_1">
     <g id="line2d_2">
      <defs>
       <path id="mbd51705323" d="M 0 0 
L 0 -4 
" style="stroke: #000000; stroke-width: 0.5"/>
      </defs>
      <g>
       <use xlink:href="#mbd51705323" x="36.04625" y="88.734375" style="stroke: #000000; stroke-width: 0.5"/>
      </g>
     </g>
    </g>
   </g>
   <g id="matplotlib.axis_2">
    <g id="ytick_1">
     <g id="line2d_3">
      <defs>
       <path id="m4b823dab1d" d="M 0 0 
L 4 0 
" style="stroke: #000000; stroke-width: 0.5"/>
      </defs>
      <g>
       <use xlink:href="#m4b823dab1d" x="24.04625" y="88.734375" style="stroke: #000000; stroke-width: 0.5"/>
      </g>
     </g>
     <g id="text_1">
      <text style="font-size: 8px; font-family: 'Arial'; text-anchor: end" x="20.54625" y="91.5975" transform="rotate(-0 20.54625 91.5975)">0</text>
     </g>
    </g>
    <g id="ytick_2">
     <g id="line2d_4">
      <g>
       <use xlink:href="#m4b823dab1d" x="24.04625" y="71.358809" style="stroke: #000000; stroke-width: 0.5"/>
      </g>
     </g>
     <g id="text_2">
      <text style="font-size: 8px; font-family: 'Arial'; text-anchor: end" x="20.54625" y="74.221934" transform="rotate(-0 20.54625 74.221934)">25</text>
     </g>
    </g>
    <g id="ytick_3">
     <g id="line2d_5">
      <g>
       <use xlink:href="#m4b823dab1d" x="24.04625" y="53.983244" style="stroke: #000000; stroke-width: 0.5"/>
      </g>
     </g>
     <g id="text_3">
      <text style="font-size: 8px; font-family: 'Arial'; text-anchor: end" x="20.54625" y="56.846369" transform="rotate(-0 20.54625 56.846369)">50</text>
     </g>
    </g>
    <g id="ytick_4">
     <g id="line2d_6">
      <g>
       <use xlink:href="#m4b823dab1d" x="24.04625" y="36.607678" style="stroke: #000000; stroke-width: 0.5"/>
      </g>
     </g>
     <g id="text_4">
      <text style="font-size: 8px; font-family: 'Arial'; text-anchor: end" x="20.54625" y="39.470803" transform="rotate(-0 20.54625 39.470803)">75</text>
     </g>
    </g>
    <g id="ytick_5">
     <g id="line2d_7">
      <g>
       <use xlink:href="#m4b823dab1d" x="24.04625" y="19.232113" style="stroke: #000000; stroke-width: 0.5"/>
      </g>
     </g>
     <g id="text_5">
      <text style="font-size: 8px; font-family: 'Arial'; text-anchor: end" x="20.54625" y="22.095238" transform="rotate(-0 20.54625 22.095238)">100</text>
     </g>
    </g>
   </g>
   <g id="patch_4">
    <path d="M 36.04625 40.848392 
L 48.639895 40.848392 
L 48.638808 40.808081 
L 48.637925 40.76777 
L 48.637041 40.727458 
L 48.636158 40.687147 
L 48.635275 40.646835 
L 48.634392 40.606524 
L 48.633536 40.566212 
L 48.632988 40.525901 
L 48.63244 40.485589 
L 48.631891 40.445278 
L 48.631343 40.404966 
L 48.630795 40.364655 
L 48.630247 40.324344 
L 48.630016 40.284032 
L 48.62984 40.243721 
L 48.629663 40.203409 
L 48.629486 40.163098 
L 48.62931 40.122786 
L 48.629133 40.082475 
L 48.629211 40.042163 
L 48.62944 40.001852 
L 48.629668 39.961541 
L 48.629897 39.921229 
L 48.630125 39.880918 
L 48.630354 39.840606 
L 48.630757 39.800295 
L 48.631421 39.759983 
L 48.632085 39.719672 
L 48.632749 39.67936 
L 48.633413 39.639049 
L 48.634077 39.598737 
L 48.634821 39.558426 
L 48.635948 39.518115 
L 48.637074 39.477803 
L 48.638201 39.437492 
L 48.639327 39.39718 
L 48.640454 39.356869 
L 48.64158 39.316557 
L 48.643167 39.276246 
L 48.64478 39.235934 
L 48.646392 39.195623 
L 48.648005 39.155312 
L 48.649617 39.115 
L 48.65123 39.074689 
L 48.653207 39.034377 
L 48.655326 38.994066 
L 48.657446 38.953754 
L 48.659565 38.913443 
L 48.661684 38.873131 
L 48.663803 38.83282 
L 48.66618 38.792508 
L 48.668823 38.752197 
L 48.671465 38.711886 
L 48.674108 38.671574 
L 48.676751 38.631263 
L 48.679393 38.590951 
L 48.682179 38.55064 
L 48.685358 38.510328 
L 48.688538 38.470017 
L 48.691718 38.429705 
L 48.694898 38.389394 
L 48.698078 38.349083 
L 48.701279 38.308771 
L 48.705006 38.26846 
L 48.708734 38.228148 
L 48.712461 38.187837 
L 48.716189 38.147525 
L 48.719916 38.107214 
L 48.723644 38.066902 
L 48.727821 38.026591 
L 48.732104 37.986279 
L 48.736386 37.945968 
L 48.740669 37.905657 
L 48.744951 37.865345 
L 48.749234 37.825034 
L 48.753843 37.784722 
L 48.758684 37.744411 
L 48.763526 37.704099 
L 48.768367 37.663788 
L 48.773209 37.623476 
L 48.778051 37.583165 
L 48.783092 37.542854 
L 48.788494 37.502542 
L 48.793896 37.462231 
L 48.799298 37.421919 
L 48.8047 37.381608 
L 48.810102 37.341296 
L 48.815577 37.300985 
L 48.821538 37.260673 
L 48.827499 37.220362 
L 48.83346 37.180051 
L 48.839421 37.139739 
L 48.845381 37.099428 
L 48.851342 37.059116 
L 48.857804 37.018805 
L 48.864319 36.978493 
L 48.870835 36.938182 
L 48.877351 36.89787 
L 48.883866 36.857559 
L 48.890382 36.817247 
L 48.897268 36.776936 
L 48.904331 36.736625 
L 48.911395 36.696313 
L 48.918459 36.656002 
L 48.925522 36.61569 
L 48.932586 36.575379 
L 48.939891 36.535067 
L 48.947494 36.494756 
L 48.955096 36.454444 
L 48.962699 36.414133 
L 48.970302 36.373822 
L 48.977904 36.33351 
L 48.985623 36.293199 
L 48.993754 36.252887 
L 49.001884 36.212576 
L 49.010015 36.172264 
L 49.018145 36.131953 
L 49.026276 36.091641 
L 49.034406 36.05133 
L 49.043048 36.011018 
L 49.051693 35.970707 
L 49.060338 35.930396 
L 49.068983 35.890084 
L 49.077628 35.849773 
L 49.086273 35.809461 
L 49.095301 35.76915 
L 49.104446 35.728838 
L 49.11359 35.688527 
L 49.122735 35.648215 
L 49.13188 35.607904 
L 49.141024 35.567593 
L 49.150429 35.527281 
L 49.160057 35.48697 
L 49.169685 35.446658 
L 49.179312 35.406347 
L 49.18894 35.366035 
L 49.198568 35.325724 
L 49.20834 35.285412 
L 49.218432 35.245101 
L 49.228525 35.204789 
L 49.238617 35.164478 
L 49.24871 35.124167 
L 49.258802 35.083855 
L 49.268932 35.043544 
L 49.27947 35.003232 
L 49.290007 34.962921 
L 49.300545 34.922609 
L 49.311083 34.882298 
L 49.32162 34.841986 
L 49.332158 34.801675 
L 49.343059 34.761364 
L 49.354021 34.721052 
L 49.364984 34.680741 
L 49.375946 34.640429 
L 49.386908 34.600118 
L 49.39787 34.559806 
L 49.409086 34.519495 
L 49.420451 34.479183 
L 49.431816 34.438872 
L 49.443181 34.398561 
L 49.454545 34.358249 
L 49.46591 34.317938 
L 49.477428 34.277626 
L 49.489173 34.237315 
L 49.500918 34.197003 
L 49.512662 34.156692 
L 49.524407 34.11638 
L 49.536152 34.076069 
L 49.547959 34.035757 
L 49.56006 33.995446 
L 49.572161 33.955135 
L 49.584262 33.914823 
L 49.596363 33.874512 
L 49.608464 33.8342 
L 49.620565 33.793889 
L 49.63298 33.753577 
L 49.645412 33.713266 
L 49.657845 33.672954 
L 49.670277 33.632643 
L 49.68271 33.592332 
L 49.695143 33.55202 
L 49.707796 33.511709 
L 49.720535 33.471397 
L 49.733274 33.431086 
L 49.746013 33.390774 
L 49.758752 33.350463 
L 49.77149 33.310151 
L 49.784368 33.26984 
L 49.797387 33.229528 
L 49.810406 33.189217 
L 49.823425 33.148906 
L 49.836444 33.108594 
L 49.849464 33.068283 
L 49.86255 33.027971 
L 49.875823 32.98766 
L 49.889096 32.947348 
L 49.902369 32.907037 
L 49.915641 32.866725 
L 49.928914 32.826414 
L 36.04625 32.826414 
z
" clip-path="url(#p633358c771)" style="fill: #20590b; opacity: 0.4"/>
   </g>
   <g id="patch_5">
    <path d="M 36.04625 40.848392 
L 52.04625 40.848392 
L 52.04625 32.826414 
L 36.04625 32.826414 
L 36.04625 40.848392 
z
" style="fill: none; stroke: #20590b; stroke-width: 0.85; stroke-linejoin: miter"/>
   </g>
   <g id="patch_6">
    <path d="M 24.04625 88.734375 
L 24.04625 16.734375 
" style="fill: none; stroke: #000000; stroke-width: 0.5; stroke-linejoin: miter; stroke-linecap: square"/>
   </g>
   <g id="patch_7">
    <path d="M 24.04625 88.734375 
L 60.04625 88.734375 
" style="fill: none; stroke: #000000; stroke-width: 0.5; stroke-linejoin: miter; stroke-linecap: square"/>
   </g>
   <g id="PathCollection_1">
    <defs>
     <path id="m03cd4edc33" d="M 0 1.936492 
C 0.513564 1.936492 1.006162 1.732451 1.369306 1.369306 
C 1.732451 1.006162 1.936492 0.513564 1.936492 0 
C 1.936492 -0.513564 1.732451 -1.006162 1.369306 -1.369306 
C 1.006162 -1.732451 0.513564 -1.936492 0 -1.936492 
C -0.513564 -1.936492 -1.006162 -1.732451 -1.369306 -1.369306 
C -1.732451 -1.006162 -1.936492 -0.513564 -1.936492 0 
C -1.936492 0.513564 -1.732451 1.006162 -1.369306 1.369306 
C -1.006162 1.732451 -0.513564 1.936492 0 1.936492 
z
"/>
    </defs>
    <g clip-path="url(#p633358c771)">
     <use xlink:href="#m03cd4edc33" x="32.04625" y="20.861072" style="fill: #20590b; fill-opacity: 0.2"/>
     <use xlink:href="#m03cd4edc33" x="32.04625" y="30.091841" style="fill: #20590b; fill-opacity: 0.2"/>
     <use xlink:href="#m03cd4edc33" x="32.04625" y="46.92442" style="fill: #20590b; fill-opacity: 0.2"/>
     <use xlink:href="#m03cd4edc33" x="32.04625" y="19.775099" style="fill: #20590b; fill-opacity: 0.2"/>
     <use xlink:href="#m03cd4edc33" x="32.04625" y="31.177814" style="fill: #20590b; fill-opacity: 0.2"/>
     <use xlink:href="#m03cd4edc33" x="32.04625" y="30.091841" style="fill: #20590b; fill-opacity: 0.2"/>
     <use xlink:href="#m03cd4edc33" x="32.04625" y="37.693651" style="fill: #20590b; fill-opacity: 0.2"/>
     <use xlink:href="#m03cd4edc33" x="32.04625" y="49.096366" style="fill: #20590b; fill-opacity: 0.2"/>
     <use xlink:href="#m03cd4edc33" x="32.04625" y="49.639352" style="fill: #20590b; fill-opacity: 0.2"/>
     <use xlink:href="#m03cd4edc33" x="32.04625" y="34.435732" style="fill: #20590b; fill-opacity: 0.2"/>
     <use xlink:href="#m03cd4edc33" x="32.04625" y="24.661977" style="fill: #20590b; fill-opacity: 0.2"/>
     <use xlink:href="#m03cd4edc33" x="32.04625" y="53.983244" style="fill: #20590b; fill-opacity: 0.2"/>
     <use xlink:href="#m03cd4edc33" x="32.04625" y="19.232113" style="fill: #20590b; fill-opacity: 0.2"/>
     <use xlink:href="#m03cd4edc33" x="32.04625" y="20.318085" style="fill: #20590b; fill-opacity: 0.2"/>
     <use xlink:href="#m03cd4edc33" x="32.04625" y="19.775099" style="fill: #20590b; fill-opacity: 0.2"/>
     <use xlink:href="#m03cd4edc33" x="32.04625" y="38.236637" style="fill: #20590b; fill-opacity: 0.2"/>
     <use xlink:href="#m03cd4edc33" x="32.04625" y="66.471932" style="fill: #20590b; fill-opacity: 0.2"/>
     <use xlink:href="#m03cd4edc33" x="32.04625" y="58.870122" style="fill: #20590b; fill-opacity: 0.2"/>
     <use xlink:href="#m03cd4edc33" x="32.04625" y="30.091841" style="fill: #20590b; fill-opacity: 0.2"/>
     <use xlink:href="#m03cd4edc33" x="32.04625" y="32.263787" style="fill: #20590b; fill-opacity: 0.2"/>
     <use xlink:href="#m03cd4edc33" x="32.04625" y="48.55338" style="fill: #20590b; fill-opacity: 0.2"/>
     <use xlink:href="#m03cd4edc33" x="32.04625" y="47.467407" style="fill: #20590b; fill-opacity: 0.2"/>
     <use xlink:href="#m03cd4edc33" x="32.04625" y="43.123515" style="fill: #20590b; fill-opacity: 0.2"/>
     <use xlink:href="#m03cd4edc33" x="32.04625" y="42.037542" style="fill: #20590b; fill-opacity: 0.2"/>
     <use xlink:href="#m03cd4edc33" x="32.04625" y="45.295461" style="fill: #20590b; fill-opacity: 0.2"/>
     <use xlink:href="#m03cd4edc33" x="32.04625" y="31.177814" style="fill: #20590b; fill-opacity: 0.2"/>
     <use xlink:href="#m03cd4edc33" x="32.04625" y="19.232113" style="fill: #20590b; fill-opacity: 0.2"/>
     <use xlink:href="#m03cd4edc33" x="32.04625" y="69.186864" style="fill: #20590b; fill-opacity: 0.2"/>
     <use xlink:href="#m03cd4edc33" x="32.04625" y="24.11899" style="fill: #20590b; fill-opacity: 0.2"/>
     <use xlink:href="#m03cd4edc33" x="32.04625" y="47.467407" style="fill: #20590b; fill-opacity: 0.2"/>
     <use xlink:href="#m03cd4edc33" x="32.04625" y="19.232113" style="fill: #20590b; fill-opacity: 0.2"/>
     <use xlink:href="#m03cd4edc33" x="32.04625" y="25.204963" style="fill: #20590b; fill-opacity: 0.2"/>
     <use xlink:href="#m03cd4edc33" x="32.04625" y="55.612203" style="fill: #20590b; fill-opacity: 0.2"/>
     <use xlink:href="#m03cd4edc33" x="32.04625" y="48.55338" style="fill: #20590b; fill-opacity: 0.2"/>
     <use xlink:href="#m03cd4edc33" x="32.04625" y="19.775099" style="fill: #20590b; fill-opacity: 0.2"/>
     <use xlink:href="#m03cd4edc33" x="32.04625" y="31.7208" style="fill: #20590b; fill-opacity: 0.2"/>
     <use xlink:href="#m03cd4edc33" x="32.04625" y="56.155189" style="fill: #20590b; fill-opacity: 0.2"/>
     <use xlink:href="#m03cd4edc33" x="32.04625" y="45.295461" style="fill: #20590b; fill-opacity: 0.2"/>
     <use xlink:href="#m03cd4edc33" x="32.04625" y="24.11899" style="fill: #20590b; fill-opacity: 0.2"/>
     <use xlink:href="#m03cd4edc33" x="32.04625" y="38.236637" style="fill: #20590b; fill-opacity: 0.2"/>
     <use xlink:href="#m03cd4edc33" x="32.04625" y="23.576004" style="fill: #20590b; fill-opacity: 0.2"/>
     <use xlink:href="#m03cd4edc33" x="32.04625" y="20.861072" style="fill: #20590b; fill-opacity: 0.2"/>
     <use xlink:href="#m03cd4edc33" x="32.04625" y="27.919895" style="fill: #20590b; fill-opacity: 0.2"/>
     <use xlink:href="#m03cd4edc33" x="32.04625" y="69.186864" style="fill: #20590b; fill-opacity: 0.2"/>
     <use xlink:href="#m03cd4edc33" x="32.04625" y="36.064692" style="fill: #20590b; fill-opacity: 0.2"/>
     <use xlink:href="#m03cd4edc33" x="32.04625" y="34.435732" style="fill: #20590b; fill-opacity: 0.2"/>
     <use xlink:href="#m03cd4edc33" x="32.04625" y="54.52623" style="fill: #20590b; fill-opacity: 0.2"/>
     <use xlink:href="#m03cd4edc33" x="32.04625" y="20.318085" style="fill: #20590b; fill-opacity: 0.2"/>
     <use xlink:href="#m03cd4edc33" x="32.04625" y="43.666502" style="fill: #20590b; fill-opacity: 0.2"/>
     <use xlink:href="#m03cd4edc33" x="32.04625" y="48.010393" style="fill: #20590b; fill-opacity: 0.2"/>
     <use xlink:href="#m03cd4edc33" x="32.04625" y="19.775099" style="fill: #20590b; fill-opacity: 0.2"/>
     <use xlink:href="#m03cd4edc33" x="32.04625" y="21.947045" style="fill: #20590b; fill-opacity: 0.2"/>
    </g>
   </g>
   <g id="line2d_8">
    <path d="M 36.04625 36.837403 
L 52.04625 36.837403 
" clip-path="url(#p633358c771)" style="fill: none; stroke: #000000; stroke-width: 0.85; stroke-linecap: square"/>
   </g>
   <g id="LineCollection_1">
    <path d="M 44.04625 38.835322 
L 44.04625 34.839484 
" clip-path="url(#p633358c771)" style="fill: none; stroke: #000000; stroke-width: 0.85"/>
   </g>
   <g id="line2d_9">
    <defs>
     <path id="m165a783ba9" d="M 4 0 
L -4 -0 
" style="stroke: #000000; stroke-width: 0.85"/>
    </defs>
    <g clip-path="url(#p633358c771)">
     <use xlink:href="#m165a783ba9" x="44.04625" y="38.835322" style="stroke: #000000; stroke-width: 0.85"/>
    </g>
   </g>
   <g id="line2d_10">
    <g clip-path="url(#p633358c771)">
     <use xlink:href="#m165a783ba9" x="44.04625" y="34.839484" style="stroke: #000000; stroke-width: 0.85"/>
    </g>
   </g>
   <g id="line2d_11">
    <path d="M 33.64625 15.294375 
L 38.44625 15.294375 
" style="fill: none; stroke: #000000; stroke-width: 0.5; stroke-linecap: square"/>
   </g>
   <g id="text_6">
    <text style="font-size: 12px; font-family: 'Arial'; text-anchor: middle" x="36.04625" y="15.789375" transform="rotate(-0 36.04625 15.789375)">***</text>
   </g>
  </g>
 </g>
 <defs>
  <clipPath id="p633358c771">
   <rect x="24.04625" y="16.734375" width="36" height="72"/>
  </clipPath>
 </defs>
</svg>
