<?xml version="1.0" encoding="utf-8" standalone="no"?>
<!DOCTYPE svg PUBLIC "-//W3C//DTD SVG 1.1//EN"
  "http://www.w3.org/Graphics/SVG/1.1/DTD/svg11.dtd">
<svg xmlns:xlink="http://www.w3.org/1999/xlink" width="67.24625pt" height="94.900312pt" viewBox="0 0 67.24625 94.900312" xmlns="http://www.w3.org/2000/svg" version="1.1">
 <metadata>
  <rdf:RDF xmlns:dc="http://purl.org/dc/elements/1.1/" xmlns:cc="http://creativecommons.org/ns#" xmlns:rdf="http://www.w3.org/1999/02/22-rdf-syntax-ns#">
   <cc:Work>
    <dc:type rdf:resource="http://purl.org/dc/dcmitype/StillImage"/>
    <dc:date>2026-03-04T23:12:10.505482</dc:date>
    <dc:format>image/svg+xml</dc:format>
    <dc:creator>
     <cc:Agent>
      <dc:title>Matplotlib v3.10.8, https://matplotlib.org/</dc:title>
     </cc:Agent>
    </dc:creator>
   </cc:Work>
  </rdf:RDF>
 </metadata>
 <defs>
  <style type="text/css">*{stroke-linejoin: round; stroke-linecap: butt}</style>
 </defs>
 <g id="figure_1">
  <g id="patch_1">
   <path d="M 0 94.900312 
L 67.24625 94.900312 
L 67.24625 -0 
L 0 -0 
z
" style="fill: #ffffff"/>
  </g>
  <g id="axes_1">
   <g id="patch_2">
    <path d="M 24.04625 83.247187 
L 60.04625 83.247187 
L 60.04625 11.247187 
L 24.04625 11.247187 
z
" style="fill: #ffffff"/>
   </g>
   <g id="line2d_1">
    <path d="M 24.04625 48.592832 
L 60.04625 48.592832 
" clip-path="url(#p20522de631)" style="fill: none; stroke-dasharray: 2.516,1.088; stroke-dashoffset: 0; stroke: #808080; stroke-opacity: 0.5; stroke-width: 0.68"/>
   </g>
   <g id="patch_3">
    <path d="M 36.04625 82.174961 
L 40.768237 82.174961 
L 40.848796 81.835513 
L 40.926609 81.496064 
L 41.001637 81.156616 
L 41.073861 80.817167 
L 41.143279 80.477718 
L 41.209908 80.13827 
L 41.273781 79.798821 
L 41.334953 79.459373 
L 41.393493 79.119924 
L 41.44949 78.780476 
L 41.503048 78.441027 
L 41.554287 78.101579 
L 41.603344 77.76213 
L 41.65037 77.422682 
L 41.695527 77.083233 
L 41.738994 76.743784 
L 41.780957 76.404336 
L 41.821615 76.064887 
L 41.861177 75.725439 
L 41.899856 75.38599 
L 41.937877 75.046542 
L 41.975467 74.707093 
L 42.012859 74.367645 
L 42.050289 74.028196 
L 42.087996 73.688747 
L 42.126218 73.349299 
L 42.165195 73.00985 
L 42.205165 72.670402 
L 42.246364 72.330953 
L 42.289025 71.991505 
L 42.333377 71.652056 
L 42.379645 71.312608 
L 42.428047 70.973159 
L 42.478796 70.633711 
L 42.532096 70.294262 
L 42.588146 69.954813 
L 42.647135 69.615365 
L 42.709243 69.275916 
L 42.774643 68.936468 
L 42.843494 68.597019 
L 42.915948 68.257571 
L 42.992146 67.918122 
L 43.072217 67.578674 
L 43.156277 67.239225 
L 43.244433 66.899777 
L 43.336778 66.560328 
L 43.433393 66.220879 
L 43.534345 65.881431 
L 43.639687 65.541982 
L 43.749461 65.202534 
L 43.863691 64.863085 
L 43.98239 64.523637 
L 44.105554 64.184188 
L 44.233164 63.84474 
L 44.365185 63.505291 
L 44.501567 63.165843 
L 44.642244 62.826394 
L 44.787132 62.486945 
L 44.936132 62.147497 
L 45.089126 61.808048 
L 45.245983 61.4686 
L 45.406549 61.129151 
L 45.570659 60.789703 
L 45.738126 60.450254 
L 45.908749 60.110806 
L 46.08231 59.771357 
L 46.258575 59.431909 
L 46.437292 59.09246 
L 46.618196 58.753011 
L 46.801007 58.413563 
L 46.985431 58.074114 
L 47.171159 57.734666 
L 47.357872 57.395217 
L 47.545241 57.055769 
L 47.732925 56.71632 
L 47.920575 56.376872 
L 48.107835 56.037423 
L 48.294344 55.697975 
L 48.479736 55.358526 
L 48.663644 55.019077 
L 48.845697 54.679629 
L 49.025529 54.34018 
L 49.202774 54.000732 
L 49.37707 53.661283 
L 49.548064 53.321835 
L 49.715409 52.982386 
L 49.878767 52.642938 
L 50.037814 52.303489 
L 50.192237 51.964041 
L 50.341739 51.624592 
L 50.486038 51.285143 
L 50.624872 50.945695 
L 50.757996 50.606246 
L 50.885186 50.266798 
L 51.006238 49.927349 
L 51.120974 49.587901 
L 51.229235 49.248452 
L 51.330889 48.909004 
L 51.425825 48.569555 
L 51.513959 48.230107 
L 51.595232 47.890658 
L 51.669608 47.551209 
L 51.737077 47.211761 
L 51.797654 46.872312 
L 51.851376 46.532864 
L 51.898305 46.193415 
L 51.938524 45.853967 
L 51.97214 45.514518 
L 51.999278 45.17507 
L 52.020085 44.835621 
L 52.034726 44.496173 
L 52.043382 44.156724 
L 52.04625 43.817275 
L 52.043542 43.477827 
L 52.035482 43.138378 
L 52.022306 42.79893 
L 52.004258 42.459481 
L 51.981593 42.120033 
L 51.954569 41.780584 
L 51.923451 41.441136 
L 51.888506 41.101687 
L 51.850005 40.762239 
L 51.808216 40.42279 
L 51.763408 40.083341 
L 51.715847 39.743893 
L 51.665793 39.404444 
L 51.613502 39.064996 
L 51.559226 38.725547 
L 51.503204 38.386099 
L 51.445671 38.04665 
L 51.386849 37.707202 
L 51.326951 37.367753 
L 51.266179 37.028305 
L 51.204722 36.688856 
L 51.142755 36.349407 
L 51.080441 36.009959 
L 51.01793 35.67051 
L 50.955355 35.331062 
L 50.892837 34.991613 
L 50.83048 34.652165 
L 50.768374 34.312716 
L 50.706594 33.973268 
L 50.645197 33.633819 
L 50.584228 33.294371 
L 50.523716 32.954922 
L 50.463671 32.615473 
L 50.404093 32.276025 
L 50.344963 31.936576 
L 50.286249 31.597128 
L 50.227905 31.257679 
L 50.169869 30.918231 
L 50.112067 30.578782 
L 50.05441 30.239334 
L 49.996796 29.899885 
L 49.939112 29.560437 
L 49.881232 29.220988 
L 49.823019 28.881539 
L 49.764325 28.542091 
L 49.704992 28.202642 
L 49.644853 27.863194 
L 49.583731 27.523745 
L 49.521444 27.184297 
L 49.457802 26.844848 
L 49.392609 26.5054 
L 49.325664 26.165951 
L 49.256763 25.826503 
L 49.1857 25.487054 
L 49.112265 25.147605 
L 49.036251 24.808157 
L 48.957449 24.468708 
L 48.875655 24.12926 
L 48.790668 23.789811 
L 48.702289 23.450363 
L 48.610329 23.110914 
L 48.514606 22.771466 
L 48.414943 22.432017 
L 48.311179 22.092569 
L 48.203161 21.75312 
L 48.090748 21.413671 
L 47.973817 21.074223 
L 47.852256 20.734774 
L 47.725971 20.395326 
L 47.594886 20.055877 
L 47.458943 19.716429 
L 47.318103 19.37698 
L 47.172346 19.037532 
L 47.021674 18.698083 
L 46.86611 18.358635 
L 46.705697 18.019186 
L 46.540501 17.679737 
L 46.37061 17.340289 
L 46.196133 17.00084 
L 46.017202 16.661392 
L 45.833969 16.321943 
L 45.646608 15.982495 
L 45.455311 15.643046 
L 45.260294 15.303598 
L 45.061787 14.964149 
L 44.860041 14.624701 
L 36.04625 14.624701 
z
" clip-path="url(#p20522de631)" style="fill: #20590b; opacity: 0.2"/>
   </g>
   <g id="matplotlib.axis_1">
    <g id="xtick_1">
     <g id="line2d_2">
      <defs>
       <path id="m9eac6911d7" d="M 0 0 
L 0 -4 
" style="stroke: #000000; stroke-width: 0.5"/>
      </defs>
      <g>
       <use xlink:href="#m9eac6911d7" x="36.04625" y="83.247187" style="stroke: #000000; stroke-width: 0.5"/>
      </g>
     </g>
    </g>
   </g>
   <g id="matplotlib.axis_2">
    <g id="ytick_1">
     <g id="line2d_3">
      <defs>
       <path id="me9dc9c353b" d="M 0 0 
L 4 0 
" style="stroke: #000000; stroke-width: 0.5"/>
      </defs>
      <g>
       <use xlink:href="#me9dc9c353b" x="24.04625" y="83.247187" style="stroke: #000000; stroke-width: 0.5"/>
      </g>
     </g>
     <g id="text_1">
      <text style="font-size: 8px; font-family: 'Arial'; text-anchor: end" x="20.54625" y="86.110312" transform="rotate(-0 20.54625 86.110312)">0</text>
     </g>
    </g>
    <g id="ytick_2">
     <g id="line2d_4">
      <g>
       <use xlink:href="#me9dc9c353b" x="24.04625" y="66.091566" style="stroke: #000000; stroke-width: 0.5"/>
      </g>
     </g>
     <g id="text_2">
      <text style="font-size: 8px; font-family: 'Arial'; text-anchor: end" x="20.54625" y="68.954691" transform="rotate(-0 20.54625 68.954691)">25</text>
     </g>
    </g>
    <g id="ytick_3">
     <g id="line2d_5">
      <g>
       <use xlink:href="#me9dc9c353b" x="24.04625" y="48.935944" style="stroke: #000000; stroke-width: 0.5"/>
      </g>
     </g>
     <g id="text_3">
      <text style="font-size: 8px; font-family: 'Arial'; text-anchor: end" x="20.54625" y="51.799069" transform="rotate(-0 20.54625 51.799069)">50</text>
     </g>
    </g>
    <g id="ytick_4">
     <g id="line2d_6">
      <g>
       <use xlink:href="#me9dc9c353b" x="24.04625" y="31.780322" style="stroke: #000000; stroke-width: 0.5"/>
      </g>
     </g>
     <g id="text_4">
      <text style="font-size: 8px; font-family: 'Arial'; text-anchor: end" x="20.54625" y="34.643447" transform="rotate(-0 20.54625 34.643447)">75</text>
     </g>
    </g>
    <g id="ytick_5">
     <g id="line2d_7">
      <g>
       <use xlink:href="#me9dc9c353b" x="24.04625" y="14.624701" style="stroke: #000000; stroke-width: 0.5"/>
      </g>
     </g>
     <g id="text_5">
      <text style="font-size: 8px; font-family: 'Arial'; text-anchor: end" x="20.54625" y="17.487826" transform="rotate(-0 20.54625 17.487826)">100</text>
     </g>
    </g>
   </g>
   <g id="patch_4">
    <path d="M 36.04625 48.962345 
L 51.314915 48.962345 
L 51.331698 48.90611 
L 51.347426 48.849874 
L 51.363154 48.793639 
L 51.378881 48.737404 
L 51.394609 48.681168 
L 51.410337 48.624933 
L 51.426047 48.568698 
L 51.440648 48.512462 
L 51.455249 48.456227 
L 51.46985 48.399992 
L 51.484451 48.343756 
L 51.499052 48.287521 
L 51.513653 48.231286 
L 51.527141 48.175051 
L 51.540605 48.118815 
L 51.554069 48.06258 
L 51.567534 48.006345 
L 51.580998 47.950109 
L 51.594462 47.893874 
L 51.606849 47.837639 
L 51.619171 47.781403 
L 51.631492 47.725168 
L 51.643814 47.668933 
L 51.656136 47.612697 
L 51.668457 47.556462 
L 51.679742 47.500227 
L 51.690919 47.443991 
L 51.702096 47.387756 
L 51.713274 47.331521 
L 51.724451 47.275286 
L 51.735629 47.21905 
L 51.745812 47.162815 
L 51.755848 47.10658 
L 51.765883 47.050344 
L 51.775919 46.994109 
L 51.785954 46.937874 
L 51.79599 46.881638 
L 51.805078 46.825403 
L 51.813978 46.769168 
L 51.822878 46.712932 
L 51.831778 46.656697 
L 51.840678 46.600462 
L 51.849578 46.544227 
L 51.85758 46.487991 
L 51.865354 46.431756 
L 51.873129 46.375521 
L 51.880903 46.319285 
L 51.888678 46.26305 
L 51.896452 46.206815 
L 51.90338 46.150579 
L 51.910043 46.094344 
L 51.916706 46.038109 
L 51.923369 45.981873 
L 51.930032 45.925638 
L 51.936695 45.869403 
L 51.942564 45.813168 
L 51.948133 45.756932 
L 51.953702 45.700697 
L 51.959271 45.644462 
L 51.96484 45.588226 
L 51.970409 45.531991 
L 51.975239 45.475756 
L 51.979735 45.41952 
L 51.984231 45.363285 
L 51.988726 45.30705 
L 51.993222 45.250814 
L 51.997718 45.194579 
L 52.001529 45.138344 
L 52.004976 45.082109 
L 52.008423 45.025873 
L 52.011871 44.969638 
L 52.015318 44.913403 
L 52.018765 44.857167 
L 52.021582 44.800932 
L 52.024007 44.744697 
L 52.026433 44.688461 
L 52.028858 44.632226 
L 52.031284 44.575991 
L 52.033709 44.519755 
L 52.035559 44.46352 
L 52.036993 44.407285 
L 52.038427 44.35105 
L 52.039861 44.294814 
L 52.041295 44.238579 
L 52.042729 44.182344 
L 52.043641 44.126108 
L 52.044116 44.069873 
L 52.044591 44.013638 
L 52.045066 43.957402 
L 52.045541 43.901167 
L 52.046016 43.844932 
L 52.046022 43.788696 
L 52.045573 43.732461 
L 52.045125 43.676226 
L 52.044676 43.61999 
L 52.044227 43.563755 
L 52.043779 43.50752 
L 52.042912 43.451285 
L 52.041576 43.395049 
L 52.040241 43.338814 
L 52.038906 43.282579 
L 52.037571 43.226343 
L 52.036235 43.170108 
L 52.034531 43.113873 
L 52.032348 43.057637 
L 52.030165 43.001402 
L 52.027982 42.945167 
L 52.025799 42.888931 
L 52.023616 42.832696 
L 52.021111 42.776461 
L 52.018121 42.720226 
L 52.015131 42.66399 
L 52.012141 42.607755 
L 52.009151 42.55152 
L 52.006162 42.495284 
L 52.002894 42.439049 
L 51.999139 42.382814 
L 51.995384 42.326578 
L 51.991629 42.270343 
L 51.987874 42.214108 
L 51.984119 42.157872 
L 51.980128 42.101637 
L 51.975651 42.045402 
L 51.971174 41.989167 
L 51.966697 41.932931 
L 51.96222 41.876696 
L 51.957743 41.820461 
L 51.953069 41.764225 
L 51.947914 41.70799 
L 51.942759 41.651755 
L 51.937603 41.595519 
L 51.932448 41.539284 
L 51.927293 41.483049 
L 51.921976 41.426813 
L 51.916187 41.370578 
L 51.910398 41.314343 
L 51.904609 41.258108 
L 51.89882 41.201872 
L 51.893031 41.145637 
L 51.887113 41.089402 
L 51.880735 41.033166 
L 51.874356 40.976931 
L 51.867978 40.920696 
L 51.861599 40.86446 
L 51.855221 40.808225 
L 51.848743 40.75199 
L 51.84182 40.695754 
L 51.834897 40.639519 
L 51.827974 40.583284 
L 51.821051 40.527049 
L 51.814128 40.470813 
L 51.807132 40.414578 
L 51.799709 40.358343 
L 51.792286 40.302107 
L 51.784863 40.245872 
L 51.77744 40.189637 
L 51.770016 40.133401 
L 51.762543 40.077166 
L 51.754664 40.020931 
L 51.746784 39.964695 
L 51.738905 39.90846 
L 51.731025 39.852225 
L 51.723146 39.795989 
L 51.715236 39.739754 
L 51.706944 39.683519 
L 51.698652 39.627284 
L 51.690359 39.571048 
L 51.682067 39.514813 
L 51.673775 39.458578 
L 51.665469 39.402342 
L 51.656806 39.346107 
L 51.648143 39.289872 
L 51.639481 39.233636 
L 51.630818 39.177401 
L 51.622155 39.121166 
L 51.613492 39.06493 
L 51.6045 39.008695 
L 51.595508 38.95246 
L 51.586516 38.896225 
L 51.577524 38.839989 
L 51.568533 38.783754 
L 51.559541 38.727519 
L 51.55027 38.671283 
L 51.540989 38.615048 
L 51.531708 38.558813 
L 51.522427 38.502577 
L 51.513146 38.446342 
L 51.503865 38.390107 
L 51.494352 38.333871 
L 51.484821 38.277636 
L 51.475289 38.221401 
L 51.465758 38.165166 
L 51.456227 38.10893 
L 51.446695 38.052695 
L 51.436973 37.99646 
L 51.427228 37.940224 
L 51.417484 37.883989 
L 51.407739 37.827754 
L 51.397994 37.771518 
L 36.04625 37.771518 
z
" clip-path="url(#p20522de631)" style="fill: #20590b; opacity: 0.4"/>
   </g>
   <g id="patch_5">
    <path d="M 36.04625 48.962345 
L 52.04625 48.962345 
L 52.04625 37.771518 
L 36.04625 37.771518 
L 36.04625 48.962345 
z
" style="fill: none; stroke: #20590b; stroke-width: 0.85; stroke-linejoin: miter"/>
   </g>
   <g id="patch_6">
    <path d="M 24.04625 83.247187 
L 24.04625 11.247187 
" style="fill: none; stroke: #000000; stroke-width: 0.5; stroke-linejoin: miter; stroke-linecap: square"/>
   </g>
   <g id="patch_7">
    <path d="M 24.04625 83.247187 
L 60.04625 83.247187 
" style="fill: none; stroke: #000000; stroke-width: 0.5; stroke-linejoin: miter; stroke-linecap: square"/>
   </g>
   <g id="PathCollection_1">
    <defs>
     <path id="md38549d349" d="M 0 1.936492 
C 0.513564 1.936492 1.006162 1.732451 1.369306 1.369306 
C 1.732451 1.006162 1.936492 0.513564 1.936492 0 
C 1.936492 -0.513564 1.732451 -1.006162 1.369306 -1.369306 
C 1.006162 -1.732451 0.513564 -1.936492 0 -1.936492 
C -0.513564 -1.936492 -1.006162 -1.732451 -1.369306 -1.369306 
C -1.732451 -1.006162 -1.936492 -0.513564 -1.936492 0 
C -1.936492 0.513564 -1.732451 1.006162 -1.369306 1.369306 
C -1.006162 1.732451 -0.513564 1.936492 0 1.936492 
z
"/>
    </defs>
    <g clip-path="url(#p20522de631)">
     <use xlink:href="#md38549d349" x="32.04625" y="30.708096" style="fill: #20590b; fill-opacity: 0.2"/>
     <use xlink:href="#md38549d349" x="32.04625" y="39.285907" style="fill: #20590b; fill-opacity: 0.2"/>
     <use xlink:href="#md38549d349" x="32.04625" y="52.688736" style="fill: #20590b; fill-opacity: 0.2"/>
     <use xlink:href="#md38549d349" x="32.04625" y="20.521946" style="fill: #20590b; fill-opacity: 0.2"/>
     <use xlink:href="#md38549d349" x="32.04625" y="19.449719" style="fill: #20590b; fill-opacity: 0.2"/>
     <use xlink:href="#md38549d349" x="32.04625" y="41.966473" style="fill: #20590b; fill-opacity: 0.2"/>
     <use xlink:href="#md38549d349" x="32.04625" y="49.472057" style="fill: #20590b; fill-opacity: 0.2"/>
     <use xlink:href="#md38549d349" x="32.04625" y="48.935944" style="fill: #20590b; fill-opacity: 0.2"/>
     <use xlink:href="#md38549d349" x="32.04625" y="36.069228" style="fill: #20590b; fill-opacity: 0.2"/>
     <use xlink:href="#md38549d349" x="32.04625" y="25.346964" style="fill: #20590b; fill-opacity: 0.2"/>
     <use xlink:href="#md38549d349" x="32.04625" y="44.647039" style="fill: #20590b; fill-opacity: 0.2"/>
     <use xlink:href="#md38549d349" x="32.04625" y="58.049868" style="fill: #20590b; fill-opacity: 0.2"/>
     <use xlink:href="#md38549d349" x="32.04625" y="16.23304" style="fill: #20590b; fill-opacity: 0.2"/>
     <use xlink:href="#md38549d349" x="32.04625" y="15.160814" style="fill: #20590b; fill-opacity: 0.2"/>
     <use xlink:href="#md38549d349" x="32.04625" y="52.152623" style="fill: #20590b; fill-opacity: 0.2"/>
     <use xlink:href="#md38549d349" x="32.04625" y="43.038699" style="fill: #20590b; fill-opacity: 0.2"/>
     <use xlink:href="#md38549d349" x="32.04625" y="67.699905" style="fill: #20590b; fill-opacity: 0.2"/>
     <use xlink:href="#md38549d349" x="32.04625" y="77.886056" style="fill: #20590b; fill-opacity: 0.2"/>
     <use xlink:href="#md38549d349" x="32.04625" y="14.624701" style="fill: #20590b; fill-opacity: 0.2"/>
     <use xlink:href="#md38549d349" x="32.04625" y="81.102735" style="fill: #20590b; fill-opacity: 0.2"/>
     <use xlink:href="#md38549d349" x="32.04625" y="25.883077" style="fill: #20590b; fill-opacity: 0.2"/>
     <use xlink:href="#md38549d349" x="32.04625" y="51.61651" style="fill: #20590b; fill-opacity: 0.2"/>
     <use xlink:href="#md38549d349" x="32.04625" y="47.327604" style="fill: #20590b; fill-opacity: 0.2"/>
     <use xlink:href="#md38549d349" x="32.04625" y="31.244209" style="fill: #20590b; fill-opacity: 0.2"/>
     <use xlink:href="#md38549d349" x="32.04625" y="80.566622" style="fill: #20590b; fill-opacity: 0.2"/>
     <use xlink:href="#md38549d349" x="32.04625" y="38.21368" style="fill: #20590b; fill-opacity: 0.2"/>
     <use xlink:href="#md38549d349" x="32.04625" y="14.624701" style="fill: #20590b; fill-opacity: 0.2"/>
     <use xlink:href="#md38549d349" x="32.04625" y="63.947113" style="fill: #20590b; fill-opacity: 0.2"/>
     <use xlink:href="#md38549d349" x="32.04625" y="70.380471" style="fill: #20590b; fill-opacity: 0.2"/>
     <use xlink:href="#md38549d349" x="32.04625" y="46.791491" style="fill: #20590b; fill-opacity: 0.2"/>
     <use xlink:href="#md38549d349" x="32.04625" y="26.955304" style="fill: #20590b; fill-opacity: 0.2"/>
     <use xlink:href="#md38549d349" x="32.04625" y="45.719265" style="fill: #20590b; fill-opacity: 0.2"/>
     <use xlink:href="#md38549d349" x="32.04625" y="25.883077" style="fill: #20590b; fill-opacity: 0.2"/>
     <use xlink:href="#md38549d349" x="32.04625" y="19.985832" style="fill: #20590b; fill-opacity: 0.2"/>
     <use xlink:href="#md38549d349" x="32.04625" y="82.174961" style="fill: #20590b; fill-opacity: 0.2"/>
     <use xlink:href="#md38549d349" x="32.04625" y="16.23304" style="fill: #20590b; fill-opacity: 0.2"/>
     <use xlink:href="#md38549d349" x="32.04625" y="52.688736" style="fill: #20590b; fill-opacity: 0.2"/>
     <use xlink:href="#md38549d349" x="32.04625" y="33.924775" style="fill: #20590b; fill-opacity: 0.2"/>
     <use xlink:href="#md38549d349" x="32.04625" y="30.708096" style="fill: #20590b; fill-opacity: 0.2"/>
     <use xlink:href="#md38549d349" x="32.04625" y="20.521946" style="fill: #20590b; fill-opacity: 0.2"/>
     <use xlink:href="#md38549d349" x="32.04625" y="60.194321" style="fill: #20590b; fill-opacity: 0.2"/>
     <use xlink:href="#md38549d349" x="32.04625" y="44.110925" style="fill: #20590b; fill-opacity: 0.2"/>
     <use xlink:href="#md38549d349" x="32.04625" y="64.483226" style="fill: #20590b; fill-opacity: 0.2"/>
     <use xlink:href="#md38549d349" x="32.04625" y="42.502586" style="fill: #20590b; fill-opacity: 0.2"/>
     <use xlink:href="#md38549d349" x="32.04625" y="35.533115" style="fill: #20590b; fill-opacity: 0.2"/>
     <use xlink:href="#md38549d349" x="32.04625" y="34.460888" style="fill: #20590b; fill-opacity: 0.2"/>
     <use xlink:href="#md38549d349" x="32.04625" y="80.566622" style="fill: #20590b; fill-opacity: 0.2"/>
     <use xlink:href="#md38549d349" x="32.04625" y="50.544284" style="fill: #20590b; fill-opacity: 0.2"/>
     <use xlink:href="#md38549d349" x="32.04625" y="52.152623" style="fill: #20590b; fill-opacity: 0.2"/>
    </g>
   </g>
   <g id="line2d_8">
    <path d="M 36.04625 43.366932 
L 52.04625 43.366932 
" clip-path="url(#p20522de631)" style="fill: none; stroke: #000000; stroke-width: 0.85; stroke-linecap: square"/>
   </g>
   <g id="LineCollection_1">
    <path d="M 44.04625 46.14984 
L 44.04625 40.584023 
" clip-path="url(#p20522de631)" style="fill: none; stroke: #000000; stroke-width: 0.85"/>
   </g>
   <g id="line2d_9">
    <defs>
     <path id="m80e59e770c" d="M 4 0 
L -4 -0 
" style="stroke: #000000; stroke-width: 0.85"/>
    </defs>
    <g clip-path="url(#p20522de631)">
     <use xlink:href="#m80e59e770c" x="44.04625" y="46.14984" style="stroke: #000000; stroke-width: 0.85"/>
    </g>
   </g>
   <g id="line2d_10">
    <g clip-path="url(#p20522de631)">
     <use xlink:href="#m80e59e770c" x="44.04625" y="40.584023" style="stroke: #000000; stroke-width: 0.85"/>
    </g>
   </g>
   <g id="line2d_11">
    <path d="M 33.64625 9.807187 
L 38.44625 9.807187 
" style="fill: none; stroke: #000000; stroke-width: 0.5; stroke-linecap: square"/>
   </g>
   <g id="text_6">
    <text style="font-size: 6px; font-family: 'Arial'; text-anchor: middle" x="36.04625" y="11.494687" transform="rotate(-0 36.04625 11.494687)">ns</text>
   </g>
  </g>
 </g>
 <defs>
  <clipPath id="p20522de631">
   <rect x="24.04625" y="11.247187" width="36" height="72"/>
  </clipPath>
 </defs>
</svg>
