<?xml version="1.0" encoding="utf-8" standalone="no"?>
<!DOCTYPE svg PUBLIC "-//W3C//DTD SVG 1.1//EN"
  "http://www.w3.org/Graphics/SVG/1.1/DTD/svg11.dtd">
<svg xmlns:xlink="http://www.w3.org/1999/xlink" width="67.24625pt" height="100.3875pt" viewBox="0 0 67.24625 100.3875" xmlns="http://www.w3.org/2000/svg" version="1.1">
 <metadata>
  <rdf:RDF xmlns:dc="http://purl.org/dc/elements/1.1/" xmlns:cc="http://creativecommons.org/ns#" xmlns:rdf="http://www.w3.org/1999/02/22-rdf-syntax-ns#">
   <cc:Work>
    <dc:type rdf:resource="http://purl.org/dc/dcmitype/StillImage"/>
    <dc:date>2026-04-02T15:51:16.125528</dc:date>
    <dc:format>image/svg+xml</dc:format>
    <dc:creator>
     <cc:Agent>
      <dc:title>Matplotlib v3.10.8, https://matplotlib.org/</dc:title>
     </cc:Agent>
    </dc:creator>
   </cc:Work>
  </rdf:RDF>
 </metadata>
 <defs>
  <style type="text/css">*{stroke-linejoin: round; stroke-linecap: butt}</style>
 </defs>
 <g id="figure_1">
  <g id="patch_1">
   <path d="M 0 100.3875 
L 67.24625 100.3875 
L 67.24625 0 
L 0 0 
z
" style="fill: #ffffff"/>
  </g>
  <g id="axes_1">
   <g id="patch_2">
    <path d="M 24.04625 88.734375 
L 60.04625 88.734375 
L 60.04625 16.734375 
L 24.04625 16.734375 
z
" style="fill: #ffffff"/>
   </g>
   <g id="line2d_1">
    <path d="M 24.04625 53.595983 
L 60.04625 53.595983 
" clip-path="url(#pe91fb2299d)" style="fill: none; stroke-dasharray: 2.516,1.088; stroke-dashoffset: 0; stroke: #808080; stroke-opacity: 0.5; stroke-width: 0.68"/>
   </g>
   <g id="patch_3">
    <path d="M 36.04625 67.533922 
L 39.656025 67.533922 
L 39.818196 67.290804 
L 39.98553 67.047686 
L 40.158038 66.804567 
L 40.335718 66.561449 
L 40.518553 66.318331 
L 40.706507 66.075213 
L 40.899533 65.832095 
L 41.097564 65.588976 
L 41.300515 65.345858 
L 41.508284 65.10274 
L 41.72075 64.859622 
L 41.937774 64.616504 
L 42.159195 64.373385 
L 42.384835 64.130267 
L 42.614497 63.887149 
L 42.847962 63.644031 
L 43.084993 63.400913 
L 43.325336 63.157794 
L 43.568716 62.914676 
L 43.814842 62.671558 
L 44.063404 62.42844 
L 44.314077 62.185322 
L 44.56652 61.942203 
L 44.820379 61.699085 
L 45.075284 61.455967 
L 45.330856 61.212849 
L 45.586705 60.969731 
L 45.842429 60.726613 
L 46.097623 60.483494 
L 46.351873 60.240376 
L 46.604761 59.997258 
L 46.855869 59.75414 
L 47.104775 59.511022 
L 47.351061 59.267903 
L 47.594311 59.024785 
L 47.834112 58.781667 
L 48.070061 58.538549 
L 48.301762 58.295431 
L 48.528828 58.052312 
L 48.750885 57.809194 
L 48.967573 57.566076 
L 49.178547 57.322958 
L 49.383479 57.07984 
L 49.582058 56.836721 
L 49.773993 56.593603 
L 49.959014 56.350485 
L 50.136874 56.107367 
L 50.307346 55.864249 
L 50.47023 55.62113 
L 50.625347 55.378012 
L 50.772545 55.134894 
L 50.911698 54.891776 
L 51.042703 54.648658 
L 51.165486 54.405539 
L 51.279998 54.162421 
L 51.386214 53.919303 
L 51.484136 53.676185 
L 51.573793 53.433067 
L 51.655235 53.189948 
L 51.728539 52.94683 
L 51.793805 52.703712 
L 51.851155 52.460594 
L 51.900732 52.217476 
L 51.942701 51.974357 
L 51.977246 51.731239 
L 52.004569 51.488121 
L 52.024888 51.245003 
L 52.03844 51.001885 
L 52.045473 50.758766 
L 52.04625 50.515648 
L 52.041045 50.27253 
L 52.030141 50.029412 
L 52.013832 49.786294 
L 51.992417 49.543176 
L 51.966201 49.300057 
L 51.935495 49.056939 
L 51.900611 48.813821 
L 51.861862 48.570703 
L 51.819563 48.327585 
L 51.774026 48.084466 
L 51.72556 47.841348 
L 51.674472 47.59823 
L 51.621063 47.355112 
L 51.565627 47.111994 
L 51.50845 46.868875 
L 51.449813 46.625757 
L 51.389984 46.382639 
L 51.329223 46.139521 
L 51.267779 45.896403 
L 51.205888 45.653284 
L 51.143776 45.410166 
L 51.081654 45.167048 
L 51.019722 44.92393 
L 50.958164 44.680812 
L 50.897153 44.437693 
L 50.836846 44.194575 
L 50.777387 43.951457 
L 50.718905 43.708339 
L 50.661517 43.465221 
L 50.605324 43.222102 
L 50.550416 42.978984 
L 50.496867 42.735866 
L 50.444741 42.492748 
L 50.39409 42.24963 
L 50.344953 42.006511 
L 50.297358 41.763393 
L 50.251326 41.520275 
L 50.206867 41.277157 
L 50.163982 41.034039 
L 50.122667 40.79092 
L 50.082911 40.547802 
L 50.044698 40.304684 
L 50.008007 40.061566 
L 49.972816 39.818448 
L 49.939101 39.575329 
L 49.906837 39.332211 
L 49.875999 39.089093 
L 49.846566 38.845975 
L 49.818517 38.602857 
L 49.791839 38.359739 
L 49.766519 38.11662 
L 49.742555 37.873502 
L 49.719949 37.630384 
L 49.69871 37.387266 
L 49.678857 37.144148 
L 49.660417 36.901029 
L 49.643428 36.657911 
L 49.627935 36.414793 
L 49.613993 36.171675 
L 49.601669 35.928557 
L 49.591039 35.685438 
L 49.582185 35.44232 
L 49.575202 35.199202 
L 49.57019 34.956084 
L 49.567258 34.712966 
L 49.56652 34.469847 
L 49.568095 34.226729 
L 49.572106 33.983611 
L 49.578679 33.740493 
L 49.587937 33.497375 
L 49.600004 33.254256 
L 49.615001 33.011138 
L 49.633041 32.76802 
L 49.654232 32.524902 
L 49.67867 32.281784 
L 49.706441 32.038665 
L 49.737613 31.795547 
L 49.772241 31.552429 
L 49.810359 31.309311 
L 49.851981 31.066193 
L 49.897096 30.823074 
L 49.94567 30.579956 
L 49.99764 30.336838 
L 50.052914 30.09372 
L 50.111371 29.850602 
L 50.172857 29.607483 
L 50.237187 29.364365 
L 50.304139 29.121247 
L 50.37346 28.878129 
L 50.444862 28.635011 
L 50.51802 28.391892 
L 50.592579 28.148774 
L 50.668147 27.905656 
L 50.744302 27.662538 
L 50.820591 27.41942 
L 50.896529 27.176302 
L 50.971608 26.933183 
L 51.045291 26.690065 
L 51.117022 26.446947 
L 51.186223 26.203829 
L 51.252302 25.960711 
L 51.314653 25.717592 
L 51.372662 25.474474 
L 51.425708 25.231356 
L 51.47317 24.988238 
L 51.51443 24.74512 
L 51.548876 24.502001 
L 51.575909 24.258883 
L 51.594944 24.015765 
L 51.605418 23.772647 
L 51.606789 23.529529 
L 51.598545 23.28641 
L 51.580207 23.043292 
L 51.551329 22.800174 
L 51.511506 22.557056 
L 51.460377 22.313938 
L 51.397623 22.070819 
L 51.322976 21.827701 
L 51.236218 21.584583 
L 51.137182 21.341465 
L 51.025759 21.098347 
L 50.901892 20.855228 
L 50.76558 20.61211 
L 50.616881 20.368992 
L 50.455908 20.125874 
L 50.28283 19.882756 
L 50.097873 19.639637 
L 49.901315 19.396519 
L 49.693487 19.153401 
L 36.04625 19.153401 
z
" clip-path="url(#pe91fb2299d)" style="fill: #20590b; opacity: 0.2"/>
   </g>
   <g id="matplotlib.axis_1">
    <g id="xtick_1">
     <g id="line2d_2">
      <defs>
       <path id="m1b3aeef077" d="M 0 0 
L 0 -4 
" style="stroke: #000000; stroke-width: 0.5"/>
      </defs>
      <g>
       <use xlink:href="#m1b3aeef077" x="36.04625" y="88.734375" style="stroke: #000000; stroke-width: 0.5"/>
      </g>
     </g>
    </g>
   </g>
   <g id="matplotlib.axis_2">
    <g id="ytick_1">
     <g id="line2d_3">
      <defs>
       <path id="m6e89de0f55" d="M 0 0 
L 4 0 
" style="stroke: #000000; stroke-width: 0.5"/>
      </defs>
      <g>
       <use xlink:href="#m6e89de0f55" x="24.04625" y="88.734375" style="stroke: #000000; stroke-width: 0.5"/>
      </g>
     </g>
     <g id="text_1">
      <text style="font-size: 8px; font-family: 'Arial'; text-anchor: end" x="20.54625" y="91.5975" transform="rotate(-0 20.54625 91.5975)">0</text>
     </g>
    </g>
    <g id="ytick_2">
     <g id="line2d_4">
      <g>
       <use xlink:href="#m6e89de0f55" x="24.04625" y="71.339132" style="stroke: #000000; stroke-width: 0.5"/>
      </g>
     </g>
     <g id="text_2">
      <text style="font-size: 8px; font-family: 'Arial'; text-anchor: end" x="20.54625" y="74.202257" transform="rotate(-0 20.54625 74.202257)">25</text>
     </g>
    </g>
    <g id="ytick_3">
     <g id="line2d_5">
      <g>
       <use xlink:href="#m6e89de0f55" x="24.04625" y="53.943888" style="stroke: #000000; stroke-width: 0.5"/>
      </g>
     </g>
     <g id="text_3">
      <text style="font-size: 8px; font-family: 'Arial'; text-anchor: end" x="20.54625" y="56.807013" transform="rotate(-0 20.54625 56.807013)">50</text>
     </g>
    </g>
    <g id="ytick_4">
     <g id="line2d_6">
      <g>
       <use xlink:href="#m6e89de0f55" x="24.04625" y="36.548645" style="stroke: #000000; stroke-width: 0.5"/>
      </g>
     </g>
     <g id="text_4">
      <text style="font-size: 8px; font-family: 'Arial'; text-anchor: end" x="20.54625" y="39.41177" transform="rotate(-0 20.54625 39.41177)">75</text>
     </g>
    </g>
    <g id="ytick_5">
     <g id="line2d_7">
      <g>
       <use xlink:href="#m6e89de0f55" x="24.04625" y="19.153401" style="stroke: #000000; stroke-width: 0.5"/>
      </g>
     </g>
     <g id="text_5">
      <text style="font-size: 8px; font-family: 'Arial'; text-anchor: end" x="20.54625" y="22.016526" transform="rotate(-0 20.54625 22.016526)">100</text>
     </g>
    </g>
   </g>
   <g id="patch_4">
    <path d="M 36.04625 42.953971 
L 50.544906 42.953971 
L 50.535878 42.912978 
L 50.526849 42.871986 
L 50.51782 42.830994 
L 50.508791 42.790002 
L 50.499762 42.74901 
L 50.490896 42.708018 
L 50.482108 42.667026 
L 50.473319 42.626034 
L 50.46453 42.585042 
L 50.455741 42.54405 
L 50.446952 42.503058 
L 50.438349 42.462066 
L 50.429809 42.421073 
L 50.421268 42.380081 
L 50.412728 42.339089 
L 50.404188 42.298097 
L 50.395647 42.257105 
L 50.387316 42.216113 
L 50.379031 42.175121 
L 50.370746 42.134129 
L 50.362461 42.093137 
L 50.354176 42.052145 
L 50.345891 42.011153 
L 50.337836 41.970161 
L 50.329811 41.929168 
L 50.321787 41.888176 
L 50.313762 41.847184 
L 50.305737 41.806192 
L 50.297712 41.7652 
L 50.289939 41.724208 
L 50.282177 41.683216 
L 50.274416 41.642224 
L 50.266655 41.601232 
L 50.258893 41.56024 
L 50.251138 41.519248 
L 50.243642 41.478256 
L 50.236146 41.437263 
L 50.228649 41.396271 
L 50.221153 41.355279 
L 50.213657 41.314287 
L 50.206186 41.273295 
L 50.198955 41.232303 
L 50.191724 41.191311 
L 50.184493 41.150319 
L 50.177263 41.109327 
L 50.170032 41.068335 
L 50.162844 41.027343 
L 50.155878 40.986351 
L 50.148912 40.945358 
L 50.141946 40.904366 
L 50.13498 40.863374 
L 50.128014 40.822382 
L 50.121109 40.78139 
L 50.114406 40.740398 
L 50.107702 40.699406 
L 50.100999 40.658414 
L 50.094296 40.617422 
L 50.087592 40.57643 
L 50.080968 40.535438 
L 50.074525 40.494446 
L 50.068081 40.453454 
L 50.061638 40.412461 
L 50.055195 40.371469 
L 50.048752 40.330477 
L 50.042404 40.289485 
L 50.036217 40.248493 
L 50.030031 40.207501 
L 50.023845 40.166509 
L 50.017658 40.125517 
L 50.011472 40.084525 
L 50.005397 40.043533 
L 49.999463 40.002541 
L 49.99353 39.961549 
L 49.987596 39.920556 
L 49.981663 39.879564 
L 49.975729 39.838572 
L 49.969922 39.79758 
L 49.964238 39.756588 
L 49.958553 39.715596 
L 49.952868 39.674604 
L 49.947183 39.633612 
L 49.941499 39.59262 
L 49.935955 39.551628 
L 49.930515 39.510636 
L 49.925075 39.469644 
L 49.919635 39.428651 
L 49.914195 39.387659 
L 49.908755 39.346667 
L 49.903471 39.305675 
L 49.898271 39.264683 
L 49.893072 39.223691 
L 49.887872 39.182699 
L 49.882673 39.141707 
L 49.877473 39.100715 
L 49.872443 39.059723 
L 49.86748 39.018731 
L 49.862518 38.977739 
L 49.857555 38.936746 
L 49.852592 38.895754 
L 49.847629 38.854762 
L 49.84285 38.81377 
L 49.838121 38.772778 
L 49.833392 38.731786 
L 49.828662 38.690794 
L 49.823933 38.649802 
L 49.819204 38.60881 
L 49.814672 38.567818 
L 49.810174 38.526826 
L 49.805676 38.485834 
L 49.801177 38.444841 
L 49.796679 38.403849 
L 49.792181 38.362857 
L 49.787894 38.321865 
L 49.783625 38.280873 
L 49.779356 38.239881 
L 49.775087 38.198889 
L 49.770818 38.157897 
L 49.766549 38.116905 
L 49.762507 38.075913 
L 49.758466 38.034921 
L 49.754426 37.993929 
L 49.750385 37.952937 
L 49.746345 37.911944 
L 49.742318 37.870952 
L 49.738507 37.82996 
L 49.734695 37.788968 
L 49.730883 37.747976 
L 49.727071 37.706984 
L 49.72326 37.665992 
L 49.719478 37.625 
L 49.715897 37.584008 
L 49.712316 37.543016 
L 49.708735 37.502024 
L 49.705154 37.461032 
L 49.701573 37.420039 
L 49.698039 37.379047 
L 49.694691 37.338055 
L 49.691344 37.297063 
L 49.687997 37.256071 
L 49.684649 37.215079 
L 49.681302 37.174087 
L 49.678019 37.133095 
L 49.67491 37.092103 
L 49.6718 37.051111 
L 49.668691 37.010119 
L 49.665582 36.969127 
L 49.662473 36.928134 
L 49.659447 36.887142 
L 49.656582 36.84615 
L 49.653718 36.805158 
L 49.650853 36.764166 
L 49.647989 36.723174 
L 49.645124 36.682182 
L 49.642362 36.64119 
L 49.63975 36.600198 
L 49.637138 36.559206 
L 49.634525 36.518214 
L 49.631913 36.477222 
L 49.629301 36.436229 
L 49.626813 36.395237 
L 49.624462 36.354245 
L 49.622112 36.313253 
L 49.619761 36.272261 
L 49.617411 36.231269 
L 49.61506 36.190277 
L 49.612858 36.149285 
L 49.61078 36.108293 
L 49.608702 36.067301 
L 49.606625 36.026309 
L 49.604547 35.985317 
L 49.602469 35.944324 
L 49.600566 35.903332 
L 49.598774 35.86234 
L 49.596982 35.821348 
L 49.595189 35.780356 
L 49.593397 35.739364 
L 49.591604 35.698372 
L 49.590017 35.65738 
L 49.588524 35.616388 
L 49.587031 35.575396 
L 49.585538 35.534404 
L 49.584046 35.493412 
L 49.582553 35.45242 
L 49.581298 35.411427 
L 49.58012 35.370435 
L 49.578943 35.329443 
L 49.577765 35.288451 
L 49.576588 35.247459 
L 49.57541 35.206467 
L 49.574506 35.165475 
L 49.573661 35.124483 
L 49.572816 35.083491 
L 49.571971 35.042499 
L 49.571126 35.001507 
L 49.570281 34.960515 
L 49.569749 34.919522 
L 49.569254 34.87853 
L 49.56876 34.837538 
L 49.568266 34.796546 
L 36.04625 34.796546 
z
" clip-path="url(#pe91fb2299d)" style="fill: #20590b; opacity: 0.4"/>
   </g>
   <g id="patch_5">
    <path d="M 36.04625 42.953971 
L 52.04625 42.953971 
L 52.04625 34.796546 
L 36.04625 34.796546 
L 36.04625 42.953971 
z
" style="fill: none; stroke: #20590b; stroke-width: 0.85; stroke-linejoin: miter"/>
   </g>
   <g id="patch_6">
    <path d="M 24.04625 88.734375 
L 24.04625 16.734375 
" style="fill: none; stroke: #000000; stroke-width: 0.5; stroke-linejoin: miter; stroke-linecap: square"/>
   </g>
   <g id="patch_7">
    <path d="M 24.04625 88.734375 
L 60.04625 88.734375 
" style="fill: none; stroke: #000000; stroke-width: 0.5; stroke-linejoin: miter; stroke-linecap: square"/>
   </g>
   <g id="PathCollection_1">
    <defs>
     <path id="m50f0b13991" d="M 0 1.936492 
C 0.513564 1.936492 1.006162 1.732451 1.369306 1.369306 
C 1.732451 1.006162 1.936492 0.513564 1.936492 0 
C 1.936492 -0.513564 1.732451 -1.006162 1.369306 -1.369306 
C 1.006162 -1.732451 0.513564 -1.936492 0 -1.936492 
C -0.513564 -1.936492 -1.006162 -1.732451 -1.369306 -1.369306 
C -1.732451 -1.006162 -1.936492 -0.513564 -1.936492 0 
C -1.936492 0.513564 -1.732451 1.006162 -1.369306 1.369306 
C -1.006162 1.732451 -0.513564 1.936492 0 1.936492 
z
"/>
    </defs>
    <g clip-path="url(#pe91fb2299d)">
     <use xlink:href="#m50f0b13991" x="32.04625" y="52.313084" style="fill: #20590b; fill-opacity: 0.2"/>
     <use xlink:href="#m50f0b13991" x="32.04625" y="33.287036" style="fill: #20590b; fill-opacity: 0.2"/>
     <use xlink:href="#m50f0b13991" x="32.04625" y="59.379902" style="fill: #20590b; fill-opacity: 0.2"/>
     <use xlink:href="#m50f0b13991" x="32.04625" y="31.112631" style="fill: #20590b; fill-opacity: 0.2"/>
     <use xlink:href="#m50f0b13991" x="32.04625" y="55.031091" style="fill: #20590b; fill-opacity: 0.2"/>
     <use xlink:href="#m50f0b13991" x="32.04625" y="56.661895" style="fill: #20590b; fill-opacity: 0.2"/>
     <use xlink:href="#m50f0b13991" x="32.04625" y="19.153401" style="fill: #20590b; fill-opacity: 0.2"/>
     <use xlink:href="#m50f0b13991" x="32.04625" y="54.487489" style="fill: #20590b; fill-opacity: 0.2"/>
     <use xlink:href="#m50f0b13991" x="32.04625" y="19.697002" style="fill: #20590b; fill-opacity: 0.2"/>
     <use xlink:href="#m50f0b13991" x="32.04625" y="20.784205" style="fill: #20590b; fill-opacity: 0.2"/>
     <use xlink:href="#m50f0b13991" x="32.04625" y="49.051476" style="fill: #20590b; fill-opacity: 0.2"/>
     <use xlink:href="#m50f0b13991" x="32.04625" y="22.958611" style="fill: #20590b; fill-opacity: 0.2"/>
     <use xlink:href="#m50f0b13991" x="32.04625" y="49.051476" style="fill: #20590b; fill-opacity: 0.2"/>
     <use xlink:href="#m50f0b13991" x="32.04625" y="39.266651" style="fill: #20590b; fill-opacity: 0.2"/>
     <use xlink:href="#m50f0b13991" x="32.04625" y="21.327806" style="fill: #20590b; fill-opacity: 0.2"/>
     <use xlink:href="#m50f0b13991" x="32.04625" y="67.533922" style="fill: #20590b; fill-opacity: 0.2"/>
     <use xlink:href="#m50f0b13991" x="32.04625" y="27.307421" style="fill: #20590b; fill-opacity: 0.2"/>
     <use xlink:href="#m50f0b13991" x="32.04625" y="20.784205" style="fill: #20590b; fill-opacity: 0.2"/>
     <use xlink:href="#m50f0b13991" x="32.04625" y="34.374239" style="fill: #20590b; fill-opacity: 0.2"/>
     <use xlink:href="#m50f0b13991" x="32.04625" y="52.313084" style="fill: #20590b; fill-opacity: 0.2"/>
     <use xlink:href="#m50f0b13991" x="32.04625" y="26.220219" style="fill: #20590b; fill-opacity: 0.2"/>
     <use xlink:href="#m50f0b13991" x="32.04625" y="40.897455" style="fill: #20590b; fill-opacity: 0.2"/>
     <use xlink:href="#m50f0b13991" x="32.04625" y="19.697002" style="fill: #20590b; fill-opacity: 0.2"/>
     <use xlink:href="#m50f0b13991" x="32.04625" y="58.292699" style="fill: #20590b; fill-opacity: 0.2"/>
     <use xlink:href="#m50f0b13991" x="32.04625" y="22.415009" style="fill: #20590b; fill-opacity: 0.2"/>
     <use xlink:href="#m50f0b13991" x="32.04625" y="48.507874" style="fill: #20590b; fill-opacity: 0.2"/>
     <use xlink:href="#m50f0b13991" x="32.04625" y="49.595077" style="fill: #20590b; fill-opacity: 0.2"/>
     <use xlink:href="#m50f0b13991" x="32.04625" y="21.871408" style="fill: #20590b; fill-opacity: 0.2"/>
     <use xlink:href="#m50f0b13991" x="32.04625" y="53.943888" style="fill: #20590b; fill-opacity: 0.2"/>
     <use xlink:href="#m50f0b13991" x="32.04625" y="45.246266" style="fill: #20590b; fill-opacity: 0.2"/>
     <use xlink:href="#m50f0b13991" x="32.04625" y="19.697002" style="fill: #20590b; fill-opacity: 0.2"/>
     <use xlink:href="#m50f0b13991" x="32.04625" y="43.071861" style="fill: #20590b; fill-opacity: 0.2"/>
     <use xlink:href="#m50f0b13991" x="32.04625" y="54.487489" style="fill: #20590b; fill-opacity: 0.2"/>
     <use xlink:href="#m50f0b13991" x="32.04625" y="34.374239" style="fill: #20590b; fill-opacity: 0.2"/>
     <use xlink:href="#m50f0b13991" x="32.04625" y="59.923503" style="fill: #20590b; fill-opacity: 0.2"/>
     <use xlink:href="#m50f0b13991" x="32.04625" y="45.789868" style="fill: #20590b; fill-opacity: 0.2"/>
     <use xlink:href="#m50f0b13991" x="32.04625" y="32.743435" style="fill: #20590b; fill-opacity: 0.2"/>
     <use xlink:href="#m50f0b13991" x="32.04625" y="55.574692" style="fill: #20590b; fill-opacity: 0.2"/>
     <use xlink:href="#m50f0b13991" x="32.04625" y="44.159064" style="fill: #20590b; fill-opacity: 0.2"/>
     <use xlink:href="#m50f0b13991" x="32.04625" y="20.784205" style="fill: #20590b; fill-opacity: 0.2"/>
     <use xlink:href="#m50f0b13991" x="32.04625" y="33.287036" style="fill: #20590b; fill-opacity: 0.2"/>
     <use xlink:href="#m50f0b13991" x="32.04625" y="21.327806" style="fill: #20590b; fill-opacity: 0.2"/>
     <use xlink:href="#m50f0b13991" x="32.04625" y="20.240604" style="fill: #20590b; fill-opacity: 0.2"/>
     <use xlink:href="#m50f0b13991" x="32.04625" y="35.461442" style="fill: #20590b; fill-opacity: 0.2"/>
     <use xlink:href="#m50f0b13991" x="32.04625" y="36.548645" style="fill: #20590b; fill-opacity: 0.2"/>
     <use xlink:href="#m50f0b13991" x="32.04625" y="22.958611" style="fill: #20590b; fill-opacity: 0.2"/>
     <use xlink:href="#m50f0b13991" x="32.04625" y="58.292699" style="fill: #20590b; fill-opacity: 0.2"/>
     <use xlink:href="#m50f0b13991" x="32.04625" y="42.528259" style="fill: #20590b; fill-opacity: 0.2"/>
     <use xlink:href="#m50f0b13991" x="32.04625" y="50.68228" style="fill: #20590b; fill-opacity: 0.2"/>
     <use xlink:href="#m50f0b13991" x="32.04625" y="39.266651" style="fill: #20590b; fill-opacity: 0.2"/>
    </g>
   </g>
   <g id="line2d_8">
    <path d="M 36.04625 38.875258 
L 52.04625 38.875258 
" clip-path="url(#pe91fb2299d)" style="fill: none; stroke: #000000; stroke-width: 0.85; stroke-linecap: square"/>
   </g>
   <g id="LineCollection_1">
    <path d="M 44.04625 40.904897 
L 44.04625 36.845619 
" clip-path="url(#pe91fb2299d)" style="fill: none; stroke: #000000; stroke-width: 0.85"/>
   </g>
   <g id="line2d_9">
    <defs>
     <path id="m7ea471f54d" d="M 4 0 
L -4 -0 
" style="stroke: #000000; stroke-width: 0.85"/>
    </defs>
    <g clip-path="url(#pe91fb2299d)">
     <use xlink:href="#m7ea471f54d" x="44.04625" y="40.904897" style="stroke: #000000; stroke-width: 0.85"/>
    </g>
   </g>
   <g id="line2d_10">
    <g clip-path="url(#pe91fb2299d)">
     <use xlink:href="#m7ea471f54d" x="44.04625" y="36.845619" style="stroke: #000000; stroke-width: 0.85"/>
    </g>
   </g>
   <g id="line2d_11">
    <path d="M 33.64625 15.294375 
L 38.44625 15.294375 
" style="fill: none; stroke: #000000; stroke-width: 0.5; stroke-linecap: square"/>
   </g>
   <g id="text_6">
    <text style="font-size: 12px; font-family: 'Arial'; text-anchor: middle" x="36.04625" y="15.789375" transform="rotate(-0 36.04625 15.789375)">***</text>
   </g>
  </g>
 </g>
 <defs>
  <clipPath id="pe91fb2299d">
   <rect x="24.04625" y="16.734375" width="36" height="72"/>
  </clipPath>
 </defs>
</svg>
