<?xml version="1.0" encoding="utf-8" standalone="no"?>
<!DOCTYPE svg PUBLIC "-//W3C//DTD SVG 1.1//EN"
  "http://www.w3.org/Graphics/SVG/1.1/DTD/svg11.dtd">
<svg xmlns:xlink="http://www.w3.org/1999/xlink" width="67.24625pt" height="100.3875pt" viewBox="0 0 67.24625 100.3875" xmlns="http://www.w3.org/2000/svg" version="1.1">
 <metadata>
  <rdf:RDF xmlns:dc="http://purl.org/dc/elements/1.1/" xmlns:cc="http://creativecommons.org/ns#" xmlns:rdf="http://www.w3.org/1999/02/22-rdf-syntax-ns#">
   <cc:Work>
    <dc:type rdf:resource="http://purl.org/dc/dcmitype/StillImage"/>
    <dc:date>2026-04-02T15:51:15.896138</dc:date>
    <dc:format>image/svg+xml</dc:format>
    <dc:creator>
     <cc:Agent>
      <dc:title>Matplotlib v3.10.8, https://matplotlib.org/</dc:title>
     </cc:Agent>
    </dc:creator>
   </cc:Work>
  </rdf:RDF>
 </metadata>
 <defs>
  <style type="text/css">*{stroke-linejoin: round; stroke-linecap: butt}</style>
 </defs>
 <g id="figure_1">
  <g id="patch_1">
   <path d="M 0 100.3875 
L 67.24625 100.3875 
L 67.24625 0 
L 0 0 
z
" style="fill: #ffffff"/>
  </g>
  <g id="axes_1">
   <g id="patch_2">
    <path d="M 24.04625 88.734375 
L 60.04625 88.734375 
L 60.04625 16.734375 
L 24.04625 16.734375 
z
" style="fill: #ffffff"/>
   </g>
   <g id="line2d_1">
    <path d="M 24.04625 54.080019 
L 60.04625 54.080019 
" clip-path="url(#p17cee53ed6)" style="fill: none; stroke-dasharray: 2.516,1.088; stroke-dashoffset: 0; stroke: #808080; stroke-opacity: 0.5; stroke-width: 0.68"/>
   </g>
   <g id="patch_3">
    <path d="M 36.04625 87.662149 
L 39.084585 87.662149 
L 39.131945 87.3227 
L 39.177071 86.983252 
L 39.219959 86.643803 
L 39.260622 86.304354 
L 39.299086 85.964906 
L 39.335394 85.625457 
L 39.369599 85.286009 
L 39.401769 84.94656 
L 39.431985 84.607112 
L 39.460338 84.267663 
L 39.486928 83.928215 
L 39.511866 83.588766 
L 39.535269 83.249318 
L 39.557261 82.909869 
L 39.577971 82.57042 
L 39.597531 82.230972 
L 39.616077 81.891523 
L 39.633743 81.552075 
L 39.650665 81.212626 
L 39.666977 80.873178 
L 39.682811 80.533729 
L 39.698292 80.194281 
L 39.713544 79.854832 
L 39.728683 79.515384 
L 39.74382 79.175935 
L 39.759058 78.836486 
L 39.774493 78.497038 
L 39.790214 78.157589 
L 39.806301 77.818141 
L 39.822827 77.478692 
L 39.839858 77.139244 
L 39.857451 76.799795 
L 39.875658 76.460347 
L 39.894524 76.120898 
L 39.91409 75.78145 
L 39.934391 75.442001 
L 39.955459 75.102552 
L 39.977324 74.763104 
L 40.000014 74.423655 
L 40.023559 74.084207 
L 40.047987 73.744758 
L 40.073331 73.40531 
L 40.099627 73.065861 
L 40.126915 72.726413 
L 40.155242 72.386964 
L 40.184662 72.047516 
L 40.215237 71.708067 
L 40.247038 71.368618 
L 40.280148 71.02917 
L 40.314657 70.689721 
L 40.350668 70.350273 
L 40.388298 70.010824 
L 40.427672 69.671376 
L 40.46893 69.331927 
L 40.512222 68.992479 
L 40.557709 68.65303 
L 40.605567 68.313582 
L 40.655977 67.974133 
L 40.709135 67.634684 
L 40.765242 67.295236 
L 40.824508 66.955787 
L 40.887149 66.616339 
L 40.953387 66.27689 
L 41.023445 65.937442 
L 41.097549 65.597993 
L 41.175925 65.258545 
L 41.258796 64.919096 
L 41.346381 64.579648 
L 41.438893 64.240199 
L 41.536537 63.90075 
L 41.639506 63.561302 
L 41.747984 63.221853 
L 41.862137 62.882405 
L 41.982116 62.542956 
L 42.108055 62.203508 
L 42.240065 61.864059 
L 42.378236 61.524611 
L 42.522635 61.185162 
L 42.673302 60.845714 
L 42.830252 60.506265 
L 42.993472 60.166816 
L 43.162918 59.827368 
L 43.338518 59.487919 
L 43.520168 59.148471 
L 43.707735 58.809022 
L 43.901051 58.469574 
L 44.09992 58.130125 
L 44.304113 57.790677 
L 44.51337 57.451228 
L 44.727401 57.11178 
L 44.945885 56.772331 
L 45.168473 56.432882 
L 45.39479 56.093434 
L 45.624431 55.753985 
L 45.85697 55.414537 
L 46.091957 55.075088 
L 46.328919 54.73564 
L 46.567366 54.396191 
L 46.806791 54.056743 
L 47.046671 53.717294 
L 47.286473 53.377846 
L 47.525653 53.038397 
L 47.76366 52.698948 
L 47.999938 52.3595 
L 48.233932 52.020051 
L 48.465085 51.680603 
L 48.692845 51.341154 
L 48.916667 51.001706 
L 49.136014 50.662257 
L 49.350361 50.322809 
L 49.559199 49.98336 
L 49.762033 49.643912 
L 49.95839 49.304463 
L 50.147817 48.965014 
L 50.329886 48.625566 
L 50.504194 48.286117 
L 50.670365 47.946669 
L 50.828053 47.60722 
L 50.976946 47.267772 
L 51.116758 46.928323 
L 51.247244 46.588875 
L 51.368187 46.249426 
L 51.47941 45.909978 
L 51.580769 45.570529 
L 51.672159 45.23108 
L 51.753508 44.891632 
L 51.824785 44.552183 
L 51.88599 44.212735 
L 51.937163 43.873286 
L 51.978375 43.533838 
L 52.009735 43.194389 
L 52.031382 42.854941 
L 52.043486 42.515492 
L 52.04625 42.176044 
L 52.039902 41.836595 
L 52.024699 41.497146 
L 52.000921 41.157698 
L 51.96887 40.818249 
L 51.928869 40.478801 
L 51.881257 40.139352 
L 51.82639 39.799904 
L 51.764635 39.460455 
L 51.696368 39.121007 
L 51.621975 38.781558 
L 51.541843 38.44211 
L 51.456364 38.102661 
L 51.365926 37.763212 
L 51.270916 37.423764 
L 51.171712 37.084315 
L 51.068686 36.744867 
L 50.962197 36.405418 
L 50.852592 36.06597 
L 50.740202 35.726521 
L 50.62534 35.387073 
L 50.508299 35.047624 
L 50.389353 34.708175 
L 50.268752 34.368727 
L 50.146723 34.029278 
L 50.023469 33.68983 
L 49.899167 33.350381 
L 49.773967 33.010933 
L 49.647994 32.671484 
L 49.521346 32.332036 
L 49.394096 31.992587 
L 49.26629 31.653139 
L 49.13795 31.31369 
L 49.009073 30.974241 
L 48.879633 30.634793 
L 48.749583 30.295344 
L 48.618855 29.955896 
L 48.487362 29.616447 
L 48.355001 29.276999 
L 48.221653 28.93755 
L 48.087189 28.598102 
L 47.951467 28.258653 
L 47.814336 27.919205 
L 47.675643 27.579756 
L 47.535229 27.240307 
L 47.392933 26.900859 
L 47.248598 26.56141 
L 47.102068 26.221962 
L 46.953196 25.882513 
L 46.801842 25.543065 
L 46.647877 25.203616 
L 46.491183 24.864168 
L 46.331658 24.524719 
L 46.169217 24.185271 
L 46.003791 23.845822 
L 45.835332 23.506373 
L 45.66381 23.166925 
L 45.489221 22.827476 
L 45.311578 22.488028 
L 45.130921 22.148579 
L 44.947311 21.809131 
L 44.760833 21.469682 
L 44.571597 21.130234 
L 44.379732 20.790785 
L 44.185394 20.451337 
L 43.988758 20.111888 
L 36.04625 20.111888 
z
" clip-path="url(#p17cee53ed6)" style="fill: #20590b; opacity: 0.2"/>
   </g>
   <g id="matplotlib.axis_1">
    <g id="xtick_1">
     <g id="line2d_2">
      <defs>
       <path id="me164fa5851" d="M 0 0 
L 0 -4 
" style="stroke: #000000; stroke-width: 0.5"/>
      </defs>
      <g>
       <use xlink:href="#me164fa5851" x="36.04625" y="88.734375" style="stroke: #000000; stroke-width: 0.5"/>
      </g>
     </g>
    </g>
   </g>
   <g id="matplotlib.axis_2">
    <g id="ytick_1">
     <g id="line2d_3">
      <defs>
       <path id="mebfa5d1e17" d="M 0 0 
L 4 0 
" style="stroke: #000000; stroke-width: 0.5"/>
      </defs>
      <g>
       <use xlink:href="#mebfa5d1e17" x="24.04625" y="88.734375" style="stroke: #000000; stroke-width: 0.5"/>
      </g>
     </g>
     <g id="text_1">
      <text style="font-size: 8px; font-family: 'Arial'; text-anchor: end" x="20.54625" y="91.5975" transform="rotate(-0 20.54625 91.5975)">0</text>
     </g>
    </g>
    <g id="ytick_2">
     <g id="line2d_4">
      <g>
       <use xlink:href="#mebfa5d1e17" x="24.04625" y="71.578753" style="stroke: #000000; stroke-width: 0.5"/>
      </g>
     </g>
     <g id="text_2">
      <text style="font-size: 8px; font-family: 'Arial'; text-anchor: end" x="20.54625" y="74.441878" transform="rotate(-0 20.54625 74.441878)">25</text>
     </g>
    </g>
    <g id="ytick_3">
     <g id="line2d_5">
      <g>
       <use xlink:href="#mebfa5d1e17" x="24.04625" y="54.423132" style="stroke: #000000; stroke-width: 0.5"/>
      </g>
     </g>
     <g id="text_3">
      <text style="font-size: 8px; font-family: 'Arial'; text-anchor: end" x="20.54625" y="57.286257" transform="rotate(-0 20.54625 57.286257)">50</text>
     </g>
    </g>
    <g id="ytick_4">
     <g id="line2d_6">
      <g>
       <use xlink:href="#mebfa5d1e17" x="24.04625" y="37.26751" style="stroke: #000000; stroke-width: 0.5"/>
      </g>
     </g>
     <g id="text_4">
      <text style="font-size: 8px; font-family: 'Arial'; text-anchor: end" x="20.54625" y="40.130635" transform="rotate(-0 20.54625 40.130635)">75</text>
     </g>
    </g>
    <g id="ytick_5">
     <g id="line2d_7">
      <g>
       <use xlink:href="#mebfa5d1e17" x="24.04625" y="20.111888" style="stroke: #000000; stroke-width: 0.5"/>
      </g>
     </g>
     <g id="text_5">
      <text style="font-size: 8px; font-family: 'Arial'; text-anchor: end" x="20.54625" y="22.975013" transform="rotate(-0 20.54625 22.975013)">100</text>
     </g>
    </g>
   </g>
   <g id="patch_4">
    <path d="M 36.04625 50.453547 
L 49.267805 50.453547 
L 49.30094 50.401074 
L 49.334075 50.3486 
L 49.366776 50.296127 
L 49.399059 50.243654 
L 49.431342 50.19118 
L 49.463625 50.138707 
L 49.495908 50.086234 
L 49.528191 50.03376 
L 49.560437 49.981287 
L 49.591792 49.928814 
L 49.623147 49.87634 
L 49.654502 49.823867 
L 49.685857 49.771394 
L 49.717212 49.71892 
L 49.748567 49.666447 
L 49.779351 49.613974 
L 49.809704 49.5615 
L 49.840058 49.509027 
L 49.870412 49.456554 
L 49.900765 49.40408 
L 49.931119 49.351607 
L 49.961364 49.299134 
L 49.990646 49.24666 
L 50.019929 49.194187 
L 50.049211 49.141714 
L 50.078494 49.08924 
L 50.107776 49.036767 
L 50.137059 48.984294 
L 50.165621 48.93182 
L 50.193766 48.879347 
L 50.221911 48.826874 
L 50.250056 48.7744 
L 50.278201 48.721927 
L 50.306346 48.669454 
L 50.334295 48.61698 
L 50.36124 48.564507 
L 50.388185 48.512034 
L 50.41513 48.45956 
L 50.442075 48.407087 
L 50.469021 48.354614 
L 50.495966 48.30214 
L 50.522037 48.249667 
L 50.547725 48.197193 
L 50.573412 48.14472 
L 50.599099 48.092247 
L 50.624787 48.039773 
L 50.650474 47.9873 
L 50.675866 47.934827 
L 50.700242 47.882353 
L 50.724618 47.82988 
L 50.748994 47.777407 
L 50.77337 47.724933 
L 50.797747 47.67246 
L 50.822123 47.619987 
L 50.84547 47.567513 
L 50.868486 47.51504 
L 50.891503 47.462567 
L 50.914519 47.410093 
L 50.937535 47.35762 
L 50.960552 47.305147 
L 50.983164 47.252673 
L 51.004777 47.2002 
L 51.02639 47.147727 
L 51.048003 47.095253 
L 51.069616 47.04278 
L 51.091229 46.990307 
L 51.112841 46.937833 
L 51.133274 46.88536 
L 51.153445 46.832887 
L 51.173616 46.780413 
L 51.193787 46.72794 
L 51.213957 46.675467 
L 51.234128 46.622993 
L 51.253783 46.57052 
L 51.272479 46.518047 
L 51.291175 46.465573 
L 51.309871 46.4131 
L 51.328567 46.360627 
L 51.347263 46.308153 
L 51.365959 46.25568 
L 51.383331 46.203206 
L 51.400524 46.150733 
L 51.417718 46.09826 
L 51.434911 46.045786 
L 51.452104 45.993313 
L 51.469298 45.94084 
L 51.485863 45.888366 
L 51.501531 45.835893 
L 51.5172 45.78342 
L 51.532868 45.730946 
L 51.548537 45.678473 
L 51.564206 45.626 
L 51.579874 45.573526 
L 51.59409 45.521053 
L 51.608217 45.46858 
L 51.622344 45.416106 
L 51.636472 45.363633 
L 51.650599 45.31116 
L 51.664726 45.258686 
L 51.678118 45.206213 
L 51.690694 45.15374 
L 51.703269 45.101266 
L 51.715844 45.048793 
L 51.72842 44.99632 
L 51.740995 44.943846 
L 51.753563 44.891373 
L 51.764581 44.8389 
L 51.775599 44.786426 
L 51.786617 44.733953 
L 51.797636 44.68148 
L 51.808654 44.629006 
L 51.819672 44.576533 
L 51.829856 44.52406 
L 51.839317 44.471586 
L 51.848779 44.419113 
L 51.85824 44.36664 
L 51.867701 44.314166 
L 51.877163 44.261693 
L 51.88652 44.20922 
L 51.894431 44.156746 
L 51.902341 44.104273 
L 51.910252 44.051799 
L 51.918162 43.999326 
L 51.926072 43.946853 
L 51.933983 43.894379 
L 51.940973 43.841906 
L 51.947343 43.789433 
L 51.953714 43.736959 
L 51.960085 43.684486 
L 51.966456 43.632013 
L 51.972827 43.579539 
L 51.979001 43.527066 
L 51.983849 43.474593 
L 51.988696 43.422119 
L 51.993544 43.369646 
L 51.998392 43.317173 
L 52.00324 43.264699 
L 52.008087 43.212226 
L 52.011944 43.159753 
L 52.01529 43.107279 
L 52.018636 43.054806 
L 52.021983 43.002333 
L 52.025329 42.949859 
L 52.028675 42.897386 
L 52.031739 42.844913 
L 52.03361 42.792439 
L 52.035482 42.739966 
L 52.037353 42.687493 
L 52.039224 42.635019 
L 52.041095 42.582546 
L 52.042966 42.530073 
L 52.043795 42.477599 
L 52.044222 42.425126 
L 52.044649 42.372653 
L 52.045076 42.320179 
L 52.045504 42.267706 
L 52.045931 42.215233 
L 52.046002 42.162759 
L 52.04502 42.110286 
L 52.044039 42.057813 
L 52.043058 42.005339 
L 52.042077 41.952866 
L 52.041095 41.900392 
L 52.040114 41.847919 
L 52.038059 41.795446 
L 52.035709 41.742972 
L 52.033359 41.690499 
L 52.031009 41.638026 
L 52.028659 41.585552 
L 52.026309 41.533079 
L 52.023541 41.480606 
L 52.019865 41.428132 
L 52.016189 41.375659 
L 52.012514 41.323186 
L 52.008838 41.270712 
L 52.005162 41.218239 
L 52.001486 41.165766 
L 51.996728 41.113292 
L 51.991774 41.060819 
L 51.986819 41.008346 
L 51.981865 40.955872 
L 51.97691 40.903399 
L 51.971956 40.850926 
L 51.966537 40.798452 
L 51.960354 40.745979 
L 51.95417 40.693506 
L 51.947987 40.641032 
L 51.941803 40.588559 
L 51.935619 40.536086 
L 51.929436 40.483612 
L 51.922184 40.431139 
L 51.914824 40.378666 
L 51.907464 40.326192 
L 51.900104 40.273719 
L 51.892744 40.221246 
L 51.885384 40.168772 
L 51.877531 40.116299 
L 51.869049 40.063826 
L 51.860568 40.011352 
L 36.04625 40.011352 
z
" clip-path="url(#p17cee53ed6)" style="fill: #20590b; opacity: 0.4"/>
   </g>
   <g id="patch_5">
    <path d="M 36.04625 50.453547 
L 52.04625 50.453547 
L 52.04625 40.011352 
L 36.04625 40.011352 
L 36.04625 50.453547 
z
" style="fill: none; stroke: #20590b; stroke-width: 0.85; stroke-linejoin: miter"/>
   </g>
   <g id="patch_6">
    <path d="M 24.04625 88.734375 
L 24.04625 16.734375 
" style="fill: none; stroke: #000000; stroke-width: 0.5; stroke-linejoin: miter; stroke-linecap: square"/>
   </g>
   <g id="patch_7">
    <path d="M 24.04625 88.734375 
L 60.04625 88.734375 
" style="fill: none; stroke: #000000; stroke-width: 0.5; stroke-linejoin: miter; stroke-linecap: square"/>
   </g>
   <g id="PathCollection_1">
    <defs>
     <path id="m08838d6b5f" d="M 0 1.936492 
C 0.513564 1.936492 1.006162 1.732451 1.369306 1.369306 
C 1.732451 1.006162 1.936492 0.513564 1.936492 0 
C 1.936492 -0.513564 1.732451 -1.006162 1.369306 -1.369306 
C 1.006162 -1.732451 0.513564 -1.936492 0 -1.936492 
C -0.513564 -1.936492 -1.006162 -1.732451 -1.369306 -1.369306 
C -1.732451 -1.006162 -1.936492 -0.513564 -1.936492 0 
C -1.936492 0.513564 -1.732451 1.006162 -1.369306 1.369306 
C -1.006162 1.732451 -0.513564 1.936492 0 1.936492 
z
"/>
    </defs>
    <g clip-path="url(#p17cee53ed6)">
     <use xlink:href="#m08838d6b5f" x="32.04625" y="21.184114" style="fill: #20590b; fill-opacity: 0.2"/>
     <use xlink:href="#m08838d6b5f" x="32.04625" y="40.484189" style="fill: #20590b; fill-opacity: 0.2"/>
     <use xlink:href="#m08838d6b5f" x="32.04625" y="43.164755" style="fill: #20590b; fill-opacity: 0.2"/>
     <use xlink:href="#m08838d6b5f" x="32.04625" y="38.339736" style="fill: #20590b; fill-opacity: 0.2"/>
     <use xlink:href="#m08838d6b5f" x="32.04625" y="24.400793" style="fill: #20590b; fill-opacity: 0.2"/>
     <use xlink:href="#m08838d6b5f" x="32.04625" y="50.670339" style="fill: #20590b; fill-opacity: 0.2"/>
     <use xlink:href="#m08838d6b5f" x="32.04625" y="38.875849" style="fill: #20590b; fill-opacity: 0.2"/>
     <use xlink:href="#m08838d6b5f" x="32.04625" y="30.298038" style="fill: #20590b; fill-opacity: 0.2"/>
     <use xlink:href="#m08838d6b5f" x="32.04625" y="53.350905" style="fill: #20590b; fill-opacity: 0.2"/>
     <use xlink:href="#m08838d6b5f" x="32.04625" y="42.092528" style="fill: #20590b; fill-opacity: 0.2"/>
     <use xlink:href="#m08838d6b5f" x="32.04625" y="58.175924" style="fill: #20590b; fill-opacity: 0.2"/>
     <use xlink:href="#m08838d6b5f" x="32.04625" y="48.525887" style="fill: #20590b; fill-opacity: 0.2"/>
     <use xlink:href="#m08838d6b5f" x="32.04625" y="72.114866" style="fill: #20590b; fill-opacity: 0.2"/>
     <use xlink:href="#m08838d6b5f" x="32.04625" y="39.948076" style="fill: #20590b; fill-opacity: 0.2"/>
     <use xlink:href="#m08838d6b5f" x="32.04625" y="66.217621" style="fill: #20590b; fill-opacity: 0.2"/>
     <use xlink:href="#m08838d6b5f" x="32.04625" y="72.65098" style="fill: #20590b; fill-opacity: 0.2"/>
     <use xlink:href="#m08838d6b5f" x="32.04625" y="26.545246" style="fill: #20590b; fill-opacity: 0.2"/>
     <use xlink:href="#m08838d6b5f" x="32.04625" y="47.989773" style="fill: #20590b; fill-opacity: 0.2"/>
     <use xlink:href="#m08838d6b5f" x="32.04625" y="54.959245" style="fill: #20590b; fill-opacity: 0.2"/>
     <use xlink:href="#m08838d6b5f" x="32.04625" y="47.45366" style="fill: #20590b; fill-opacity: 0.2"/>
     <use xlink:href="#m08838d6b5f" x="32.04625" y="86.053809" style="fill: #20590b; fill-opacity: 0.2"/>
     <use xlink:href="#m08838d6b5f" x="32.04625" y="71.578753" style="fill: #20590b; fill-opacity: 0.2"/>
     <use xlink:href="#m08838d6b5f" x="32.04625" y="29.225812" style="fill: #20590b; fill-opacity: 0.2"/>
     <use xlink:href="#m08838d6b5f" x="32.04625" y="38.875849" style="fill: #20590b; fill-opacity: 0.2"/>
     <use xlink:href="#m08838d6b5f" x="32.04625" y="36.731397" style="fill: #20590b; fill-opacity: 0.2"/>
     <use xlink:href="#m08838d6b5f" x="32.04625" y="34.586944" style="fill: #20590b; fill-opacity: 0.2"/>
     <use xlink:href="#m08838d6b5f" x="32.04625" y="21.184114" style="fill: #20590b; fill-opacity: 0.2"/>
     <use xlink:href="#m08838d6b5f" x="32.04625" y="87.662149" style="fill: #20590b; fill-opacity: 0.2"/>
     <use xlink:href="#m08838d6b5f" x="32.04625" y="39.948076" style="fill: #20590b; fill-opacity: 0.2"/>
     <use xlink:href="#m08838d6b5f" x="32.04625" y="43.164755" style="fill: #20590b; fill-opacity: 0.2"/>
     <use xlink:href="#m08838d6b5f" x="32.04625" y="47.989773" style="fill: #20590b; fill-opacity: 0.2"/>
     <use xlink:href="#m08838d6b5f" x="32.04625" y="21.184114" style="fill: #20590b; fill-opacity: 0.2"/>
     <use xlink:href="#m08838d6b5f" x="32.04625" y="51.206452" style="fill: #20590b; fill-opacity: 0.2"/>
     <use xlink:href="#m08838d6b5f" x="32.04625" y="51.742566" style="fill: #20590b; fill-opacity: 0.2"/>
     <use xlink:href="#m08838d6b5f" x="32.04625" y="38.339736" style="fill: #20590b; fill-opacity: 0.2"/>
     <use xlink:href="#m08838d6b5f" x="32.04625" y="20.648001" style="fill: #20590b; fill-opacity: 0.2"/>
     <use xlink:href="#m08838d6b5f" x="32.04625" y="45.309207" style="fill: #20590b; fill-opacity: 0.2"/>
     <use xlink:href="#m08838d6b5f" x="32.04625" y="87.126035" style="fill: #20590b; fill-opacity: 0.2"/>
     <use xlink:href="#m08838d6b5f" x="32.04625" y="20.111888" style="fill: #20590b; fill-opacity: 0.2"/>
     <use xlink:href="#m08838d6b5f" x="32.04625" y="43.700868" style="fill: #20590b; fill-opacity: 0.2"/>
     <use xlink:href="#m08838d6b5f" x="32.04625" y="84.44547" style="fill: #20590b; fill-opacity: 0.2"/>
     <use xlink:href="#m08838d6b5f" x="32.04625" y="44.236981" style="fill: #20590b; fill-opacity: 0.2"/>
     <use xlink:href="#m08838d6b5f" x="32.04625" y="32.442491" style="fill: #20590b; fill-opacity: 0.2"/>
     <use xlink:href="#m08838d6b5f" x="32.04625" y="20.111888" style="fill: #20590b; fill-opacity: 0.2"/>
     <use xlink:href="#m08838d6b5f" x="32.04625" y="48.976902" style="fill: #20590b; fill-opacity: 0.2"/>
     <use xlink:href="#m08838d6b5f" x="32.04625" y="28.153586" style="fill: #20590b; fill-opacity: 0.2"/>
     <use xlink:href="#m08838d6b5f" x="32.04625" y="64.609282" style="fill: #20590b; fill-opacity: 0.2"/>
     <use xlink:href="#m08838d6b5f" x="32.04625" y="46.917547" style="fill: #20590b; fill-opacity: 0.2"/>
     <use xlink:href="#m08838d6b5f" x="32.04625" y="28.689699" style="fill: #20590b; fill-opacity: 0.2"/>
     <use xlink:href="#m08838d6b5f" x="32.04625" y="29.225812" style="fill: #20590b; fill-opacity: 0.2"/>
    </g>
   </g>
   <g id="line2d_8">
    <path d="M 36.04625 45.23245 
L 52.04625 45.23245 
" clip-path="url(#p17cee53ed6)" style="fill: none; stroke: #000000; stroke-width: 0.85; stroke-linecap: square"/>
   </g>
   <g id="LineCollection_1">
    <path d="M 44.04625 47.83056 
L 44.04625 42.63434 
" clip-path="url(#p17cee53ed6)" style="fill: none; stroke: #000000; stroke-width: 0.85"/>
   </g>
   <g id="line2d_9">
    <defs>
     <path id="m85b7bd1d30" d="M 4 0 
L -4 -0 
" style="stroke: #000000; stroke-width: 0.85"/>
    </defs>
    <g clip-path="url(#p17cee53ed6)">
     <use xlink:href="#m85b7bd1d30" x="44.04625" y="47.83056" style="stroke: #000000; stroke-width: 0.85"/>
    </g>
   </g>
   <g id="line2d_10">
    <g clip-path="url(#p17cee53ed6)">
     <use xlink:href="#m85b7bd1d30" x="44.04625" y="42.63434" style="stroke: #000000; stroke-width: 0.85"/>
    </g>
   </g>
   <g id="line2d_11">
    <path d="M 33.64625 15.294375 
L 38.44625 15.294375 
" style="fill: none; stroke: #000000; stroke-width: 0.5; stroke-linecap: square"/>
   </g>
   <g id="text_6">
    <text style="font-size: 12px; font-family: 'Arial'; text-anchor: middle" x="36.04625" y="15.789375" transform="rotate(-0 36.04625 15.789375)">**</text>
   </g>
  </g>
 </g>
 <defs>
  <clipPath id="p17cee53ed6">
   <rect x="24.04625" y="16.734375" width="36" height="72"/>
  </clipPath>
 </defs>
</svg>
