<?xml version="1.0" encoding="utf-8" standalone="no"?>
<!DOCTYPE svg PUBLIC "-//W3C//DTD SVG 1.1//EN"
  "http://www.w3.org/Graphics/SVG/1.1/DTD/svg11.dtd">
<svg xmlns:xlink="http://www.w3.org/1999/xlink" width="67.24625pt" height="100.3875pt" viewBox="0 0 67.24625 100.3875" xmlns="http://www.w3.org/2000/svg" version="1.1">
 <metadata>
  <rdf:RDF xmlns:dc="http://purl.org/dc/elements/1.1/" xmlns:cc="http://creativecommons.org/ns#" xmlns:rdf="http://www.w3.org/1999/02/22-rdf-syntax-ns#">
   <cc:Work>
    <dc:type rdf:resource="http://purl.org/dc/dcmitype/StillImage"/>
    <dc:date>2026-03-04T23:12:10.304543</dc:date>
    <dc:format>image/svg+xml</dc:format>
    <dc:creator>
     <cc:Agent>
      <dc:title>Matplotlib v3.10.8, https://matplotlib.org/</dc:title>
     </cc:Agent>
    </dc:creator>
   </cc:Work>
  </rdf:RDF>
 </metadata>
 <defs>
  <style type="text/css">*{stroke-linejoin: round; stroke-linecap: butt}</style>
 </defs>
 <g id="figure_1">
  <g id="patch_1">
   <path d="M 0 100.3875 
L 67.24625 100.3875 
L 67.24625 0 
L 0 0 
z
" style="fill: #ffffff"/>
  </g>
  <g id="axes_1">
   <g id="patch_2">
    <path d="M 24.04625 88.734375 
L 60.04625 88.734375 
L 60.04625 16.734375 
L 24.04625 16.734375 
z
" style="fill: #ffffff"/>
   </g>
   <g id="line2d_1">
    <path d="M 24.04625 53.846219 
L 60.04625 53.846219 
" clip-path="url(#pc002beb8d1)" style="fill: none; stroke-dasharray: 2.516,1.088; stroke-dashoffset: 0; stroke: #808080; stroke-opacity: 0.5; stroke-width: 0.68"/>
   </g>
   <g id="patch_3">
    <path d="M 36.04625 77.939772 
L 36.965314 77.939772 
L 36.973358 77.646853 
L 36.980423 77.353935 
L 36.986588 77.061016 
L 36.991946 76.768097 
L 36.996603 76.475178 
L 37.000677 76.182259 
L 37.0043 75.88934 
L 37.007612 75.596421 
L 37.010767 75.303502 
L 37.013925 75.010584 
L 37.017255 74.717665 
L 37.020935 74.424746 
L 37.025145 74.131827 
L 37.030073 73.838908 
L 37.035909 73.545989 
L 37.042843 73.25307 
L 37.051068 72.960152 
L 37.060778 72.667233 
L 37.072162 72.374314 
L 37.085408 72.081395 
L 37.100703 71.788476 
L 37.118227 71.495557 
L 37.138156 71.202638 
L 37.160661 70.909719 
L 37.185906 70.616801 
L 37.21405 70.323882 
L 37.245245 70.030963 
L 37.279634 69.738044 
L 37.317357 69.445125 
L 37.358542 69.152206 
L 37.403316 68.859287 
L 37.451794 68.566369 
L 37.504087 68.27345 
L 37.5603 67.980531 
L 37.620529 67.687612 
L 37.684867 67.394693 
L 37.7534 67.101774 
L 37.826208 66.808855 
L 37.903367 66.515936 
L 37.984946 66.223018 
L 38.071008 65.930099 
L 38.161614 65.63718 
L 38.256815 65.344261 
L 38.356661 65.051342 
L 38.461193 64.758423 
L 38.570446 64.465504 
L 38.68445 64.172586 
L 38.803225 63.879667 
L 38.926787 63.586748 
L 39.055142 63.293829 
L 39.188287 63.00091 
L 39.32621 62.707991 
L 39.46889 62.415072 
L 39.616295 62.122153 
L 39.768382 61.829235 
L 39.925097 61.536316 
L 40.086375 61.243397 
L 40.252139 60.950478 
L 40.422298 60.657559 
L 40.59675 60.36464 
L 40.775383 60.071721 
L 40.958068 59.778803 
L 41.14467 59.485884 
L 41.335038 59.192965 
L 41.529014 58.900046 
L 41.726425 58.607127 
L 41.927094 58.314208 
L 42.130831 58.021289 
L 42.33744 57.72837 
L 42.546719 57.435452 
L 42.758458 57.142533 
L 42.972444 56.849614 
L 43.188459 56.556695 
L 43.406281 56.263776 
L 43.625689 55.970857 
L 43.846459 55.677938 
L 44.068365 55.38502 
L 44.291185 55.092101 
L 44.514696 54.799182 
L 44.738675 54.506263 
L 44.962904 54.213344 
L 45.187163 53.920425 
L 45.411239 53.627506 
L 45.634917 53.334587 
L 45.857987 53.041669 
L 46.080239 52.74875 
L 46.301466 52.455831 
L 46.521461 52.162912 
L 46.740019 51.869993 
L 46.956935 51.577074 
L 47.172005 51.284155 
L 47.385024 50.991237 
L 47.595786 50.698318 
L 47.804086 50.405399 
L 48.009715 50.11248 
L 48.212464 49.819561 
L 48.412123 49.526642 
L 48.60848 49.233723 
L 48.801323 48.940804 
L 48.990437 48.647886 
L 49.175607 48.354967 
L 49.356621 48.062048 
L 49.533263 47.769129 
L 49.705322 47.47621 
L 49.872587 47.183291 
L 50.034852 46.890372 
L 50.191915 46.597454 
L 50.343578 46.304535 
L 50.489649 46.011616 
L 50.629947 45.718697 
L 50.764295 45.425778 
L 50.892528 45.132859 
L 51.014492 44.83994 
L 51.130044 44.547021 
L 51.239052 44.254103 
L 51.341401 43.961184 
L 51.436986 43.668265 
L 51.525719 43.375346 
L 51.607529 43.082427 
L 51.682356 42.789508 
L 51.750162 42.496589 
L 51.810923 42.203671 
L 51.864631 41.910752 
L 51.911297 41.617833 
L 51.950949 41.324914 
L 51.983634 41.031995 
L 52.009416 40.739076 
L 52.028375 40.446157 
L 52.040614 40.153238 
L 52.04625 39.86032 
L 52.045422 39.567401 
L 52.038286 39.274482 
L 52.025018 38.981563 
L 52.005815 38.688644 
L 51.980891 38.395725 
L 51.950483 38.102806 
L 51.914847 37.809887 
L 51.874259 37.516969 
L 51.829016 37.22405 
L 51.779437 36.931131 
L 51.725859 36.638212 
L 51.668641 36.345293 
L 51.608162 36.052374 
L 51.544816 35.759455 
L 51.47902 35.466537 
L 51.411203 35.173618 
L 51.34181 34.880699 
L 51.271298 34.58778 
L 51.200134 34.294861 
L 51.128793 34.001942 
L 51.057752 33.709023 
L 50.987488 33.416104 
L 50.918474 33.123186 
L 50.851177 32.830267 
L 50.786046 32.537348 
L 50.723514 32.244429 
L 50.663992 31.95151 
L 50.607859 31.658591 
L 50.55546 31.365672 
L 50.507101 31.072754 
L 50.46304 30.779835 
L 50.423484 30.486916 
L 50.388586 30.193997 
L 50.358435 29.901078 
L 50.333055 29.608159 
L 50.312401 29.31524 
L 50.296355 29.022321 
L 50.284723 28.729403 
L 50.277235 28.436484 
L 50.273542 28.143565 
L 50.273219 27.850646 
L 50.275763 27.557727 
L 50.280595 27.264808 
L 50.287068 26.971889 
L 50.294463 26.678971 
L 50.302003 26.386052 
L 50.308851 26.093133 
L 50.314124 25.800214 
L 50.316897 25.507295 
L 50.316211 25.214376 
L 50.311086 24.921457 
L 50.300529 24.628538 
L 50.283545 24.33562 
L 50.259147 24.042701 
L 50.226368 23.749782 
L 50.184271 23.456863 
L 50.131963 23.163944 
L 50.068603 22.871025 
L 49.99341 22.578106 
L 49.905679 22.285188 
L 49.804785 21.992269 
L 49.690194 21.69935 
L 49.561466 21.406431 
L 49.418268 21.113512 
L 49.260371 20.820593 
L 49.087661 20.527674 
L 48.900135 20.234755 
L 48.697908 19.941837 
L 48.481206 19.648918 
L 36.04625 19.648918 
z
" clip-path="url(#pc002beb8d1)" style="fill: #20590b; opacity: 0.2"/>
   </g>
   <g id="matplotlib.axis_1">
    <g id="xtick_1">
     <g id="line2d_2">
      <defs>
       <path id="mcde7a355cd" d="M 0 0 
L 0 -4 
" style="stroke: #000000; stroke-width: 0.5"/>
      </defs>
      <g>
       <use xlink:href="#mcde7a355cd" x="36.04625" y="88.734375" style="stroke: #000000; stroke-width: 0.5"/>
      </g>
     </g>
    </g>
   </g>
   <g id="matplotlib.axis_2">
    <g id="ytick_1">
     <g id="line2d_3">
      <defs>
       <path id="m9cd16bd92a" d="M 0 0 
L 4 0 
" style="stroke: #000000; stroke-width: 0.5"/>
      </defs>
      <g>
       <use xlink:href="#m9cd16bd92a" x="24.04625" y="88.734375" style="stroke: #000000; stroke-width: 0.5"/>
      </g>
     </g>
     <g id="text_1">
      <text style="font-size: 8px; font-family: 'Arial'; text-anchor: end" x="20.54625" y="91.5975" transform="rotate(-0 20.54625 91.5975)">0</text>
     </g>
    </g>
    <g id="ytick_2">
     <g id="line2d_4">
      <g>
       <use xlink:href="#m9cd16bd92a" x="24.04625" y="71.463011" style="stroke: #000000; stroke-width: 0.5"/>
      </g>
     </g>
     <g id="text_2">
      <text style="font-size: 8px; font-family: 'Arial'; text-anchor: end" x="20.54625" y="74.326136" transform="rotate(-0 20.54625 74.326136)">25</text>
     </g>
    </g>
    <g id="ytick_3">
     <g id="line2d_5">
      <g>
       <use xlink:href="#m9cd16bd92a" x="24.04625" y="54.191646" style="stroke: #000000; stroke-width: 0.5"/>
      </g>
     </g>
     <g id="text_3">
      <text style="font-size: 8px; font-family: 'Arial'; text-anchor: end" x="20.54625" y="57.054771" transform="rotate(-0 20.54625 57.054771)">50</text>
     </g>
    </g>
    <g id="ytick_4">
     <g id="line2d_6">
      <g>
       <use xlink:href="#m9cd16bd92a" x="24.04625" y="36.920282" style="stroke: #000000; stroke-width: 0.5"/>
      </g>
     </g>
     <g id="text_4">
      <text style="font-size: 8px; font-family: 'Arial'; text-anchor: end" x="20.54625" y="39.783407" transform="rotate(-0 20.54625 39.783407)">75</text>
     </g>
    </g>
    <g id="ytick_5">
     <g id="line2d_7">
      <g>
       <use xlink:href="#m9cd16bd92a" x="24.04625" y="19.648918" style="stroke: #000000; stroke-width: 0.5"/>
      </g>
     </g>
     <g id="text_5">
      <text style="font-size: 8px; font-family: 'Arial'; text-anchor: end" x="20.54625" y="22.512043" transform="rotate(-0 20.54625 22.512043)">100</text>
     </g>
    </g>
   </g>
   <g id="patch_4">
    <path d="M 36.04625 41.032152 
L 51.983617 41.032152 
L 51.987083 40.992819 
L 51.990544 40.953486 
L 51.994006 40.914154 
L 51.997468 40.874821 
L 52.00093 40.835488 
L 52.004392 40.796156 
L 52.007854 40.756823 
L 52.010813 40.71749 
L 52.013359 40.678158 
L 52.015905 40.638825 
L 52.018451 40.599492 
L 52.020996 40.560159 
L 52.023542 40.520827 
L 52.026088 40.481494 
L 52.028542 40.442161 
L 52.030186 40.402829 
L 52.031829 40.363496 
L 52.033472 40.324163 
L 52.035116 40.284831 
L 52.036759 40.245498 
L 52.038402 40.206165 
L 52.040046 40.166833 
L 52.041109 40.1275 
L 52.041866 40.088167 
L 52.042623 40.048835 
L 52.04338 40.009502 
L 52.044136 39.970169 
L 52.044893 39.930837 
L 52.04565 39.891504 
L 52.046227 39.852171 
L 52.046116 39.812839 
L 52.046005 39.773506 
L 52.045893 39.734173 
L 52.045782 39.694841 
L 52.045671 39.655508 
L 52.04556 39.616175 
L 52.045448 39.576843 
L 52.044694 39.53751 
L 52.043735 39.498177 
L 52.042777 39.458845 
L 52.041819 39.419512 
L 52.040861 39.380179 
L 52.039902 39.340847 
L 52.038944 39.301514 
L 52.037729 39.262181 
L 52.035947 39.222848 
L 52.034165 39.183516 
L 52.032384 39.144183 
L 52.030602 39.10485 
L 52.028821 39.065518 
L 52.027039 39.026185 
L 52.025258 38.986852 
L 52.022786 38.94752 
L 52.020208 38.908187 
L 52.017629 38.868854 
L 52.015051 38.829522 
L 52.012472 38.790189 
L 52.009893 38.750856 
L 52.007315 38.711524 
L 52.004415 38.672191 
L 52.001068 38.632858 
L 51.997722 38.593526 
L 51.994375 38.554193 
L 51.991028 38.51486 
L 51.987682 38.475528 
L 51.984335 38.436195 
L 51.980988 38.396862 
L 51.976926 38.35753 
L 51.972843 38.318197 
L 51.96876 38.278864 
L 51.964677 38.239532 
L 51.960594 38.200199 
L 51.956511 38.160866 
L 51.952427 38.121534 
L 51.947976 38.082201 
L 51.943191 38.042868 
L 51.938406 38.003535 
L 51.933621 37.964203 
L 51.928836 37.92487 
L 51.92405 37.885537 
L 51.919265 37.846205 
L 51.914429 37.806872 
L 51.908979 37.767539 
L 51.903529 37.728207 
L 51.898079 37.688874 
L 51.892629 37.649541 
L 51.887179 37.610209 
L 51.881728 37.570876 
L 51.876278 37.531543 
L 51.870435 37.492211 
L 51.86436 37.452878 
L 51.858285 37.413545 
L 51.852209 37.374213 
L 51.846134 37.33488 
L 51.840059 37.295547 
L 51.833984 37.256215 
L 51.827803 37.216882 
L 51.821145 37.177549 
L 51.814488 37.138217 
L 51.807831 37.098884 
L 51.801173 37.059551 
L 51.794516 37.020219 
L 51.787858 36.980886 
L 51.781201 36.941553 
L 51.774149 36.902221 
L 51.766954 36.862888 
L 51.75976 36.823555 
L 51.752566 36.784223 
L 51.745371 36.74489 
L 51.738177 36.705557 
L 51.730983 36.666224 
L 51.723648 36.626892 
L 51.715965 36.587559 
L 51.708282 36.548226 
L 51.700598 36.508894 
L 51.692915 36.469561 
L 51.685232 36.430228 
L 51.677549 36.390896 
L 51.669866 36.351563 
L 51.661815 36.31223 
L 51.653694 36.272898 
L 51.645573 36.233565 
L 51.637451 36.194232 
L 51.62933 36.1549 
L 51.621209 36.115567 
L 51.613088 36.076234 
L 51.604816 36.036902 
L 51.59631 35.997569 
L 51.587804 35.958236 
L 51.579298 35.918904 
L 51.570792 35.879571 
L 51.562286 35.840238 
L 51.55378 35.800906 
L 51.545274 35.761573 
L 51.536457 35.72224 
L 51.527622 35.682908 
L 51.518787 35.643575 
L 51.509952 35.604242 
L 51.501117 35.56491 
L 51.492282 35.525577 
L 51.483447 35.486244 
L 51.474476 35.446911 
L 51.46537 35.407579 
L 51.456264 35.368246 
L 51.447157 35.328913 
L 51.438051 35.289581 
L 51.428944 35.250248 
L 51.419838 35.210915 
L 51.410721 35.171583 
L 51.401403 35.13225 
L 51.392085 35.092917 
L 51.382767 35.053585 
L 51.373449 35.014252 
L 51.364131 34.974919 
L 51.354813 34.935587 
L 51.345495 34.896254 
L 51.336086 34.856921 
L 51.326618 34.817589 
L 51.31715 34.778256 
L 51.307681 34.738923 
L 51.298213 34.699591 
L 51.288745 34.660258 
L 51.279277 34.620925 
L 51.269795 34.581593 
L 51.260239 34.54226 
L 51.250683 34.502927 
L 51.241128 34.463595 
L 51.231572 34.424262 
L 51.222016 34.384929 
L 51.21246 34.345597 
L 51.202905 34.306264 
L 51.193332 34.266931 
L 51.183752 34.227599 
L 51.174173 34.188266 
L 51.164593 34.148933 
L 51.155014 34.1096 
L 51.145434 34.070268 
L 51.135854 34.030935 
L 51.126285 33.991602 
L 51.116746 33.95227 
L 51.107207 33.912937 
L 51.097667 33.873604 
L 51.088128 33.834272 
L 51.078589 33.794939 
L 51.06905 33.755606 
L 51.05951 33.716274 
L 51.050056 33.676941 
L 51.040621 33.637608 
L 51.031186 33.598276 
L 51.021751 33.558943 
L 51.012316 33.51961 
L 51.002881 33.480278 
L 50.993446 33.440945 
L 50.984073 33.401612 
L 50.974806 33.36228 
L 50.965539 33.322947 
L 50.956272 33.283614 
L 50.947005 33.244282 
L 50.937738 33.204949 
L 36.04625 33.204949 
z
" clip-path="url(#pc002beb8d1)" style="fill: #20590b; opacity: 0.4"/>
   </g>
   <g id="patch_5">
    <path d="M 36.04625 41.032152 
L 52.04625 41.032152 
L 52.04625 33.204949 
L 36.04625 33.204949 
L 36.04625 41.032152 
z
" style="fill: none; stroke: #20590b; stroke-width: 0.85; stroke-linejoin: miter"/>
   </g>
   <g id="patch_6">
    <path d="M 24.04625 88.734375 
L 24.04625 16.734375 
" style="fill: none; stroke: #000000; stroke-width: 0.5; stroke-linejoin: miter; stroke-linecap: square"/>
   </g>
   <g id="patch_7">
    <path d="M 24.04625 88.734375 
L 60.04625 88.734375 
" style="fill: none; stroke: #000000; stroke-width: 0.5; stroke-linejoin: miter; stroke-linecap: square"/>
   </g>
   <g id="PathCollection_1">
    <defs>
     <path id="mb8c76ce57c" d="M 0 1.936492 
C 0.513564 1.936492 1.006162 1.732451 1.369306 1.369306 
C 1.732451 1.006162 1.936492 0.513564 1.936492 0 
C 1.936492 -0.513564 1.732451 -1.006162 1.369306 -1.369306 
C 1.006162 -1.732451 0.513564 -1.936492 0 -1.936492 
C -0.513564 -1.936492 -1.006162 -1.732451 -1.369306 -1.369306 
C -1.732451 -1.006162 -1.936492 -0.513564 -1.936492 0 
C -1.936492 0.513564 -1.732451 1.006162 -1.369306 1.369306 
C -1.006162 1.732451 -0.513564 1.936492 0 1.936492 
z
"/>
    </defs>
    <g clip-path="url(#pc002beb8d1)">
     <use xlink:href="#mb8c76ce57c" x="32.04625" y="45.555964" style="fill: #20590b; fill-opacity: 0.2"/>
     <use xlink:href="#mb8c76ce57c" x="32.04625" y="23.427029" style="fill: #20590b; fill-opacity: 0.2"/>
     <use xlink:href="#mb8c76ce57c" x="32.04625" y="53.651916" style="fill: #20590b; fill-opacity: 0.2"/>
     <use xlink:href="#mb8c76ce57c" x="32.04625" y="20.188648" style="fill: #20590b; fill-opacity: 0.2"/>
     <use xlink:href="#mb8c76ce57c" x="32.04625" y="48.254615" style="fill: #20590b; fill-opacity: 0.2"/>
     <use xlink:href="#mb8c76ce57c" x="32.04625" y="43.936774" style="fill: #20590b; fill-opacity: 0.2"/>
     <use xlink:href="#mb8c76ce57c" x="32.04625" y="28.82433" style="fill: #20590b; fill-opacity: 0.2"/>
     <use xlink:href="#mb8c76ce57c" x="32.04625" y="46.635424" style="fill: #20590b; fill-opacity: 0.2"/>
     <use xlink:href="#mb8c76ce57c" x="32.04625" y="19.648918" style="fill: #20590b; fill-opacity: 0.2"/>
     <use xlink:href="#mb8c76ce57c" x="32.04625" y="30.983251" style="fill: #20590b; fill-opacity: 0.2"/>
     <use xlink:href="#mb8c76ce57c" x="32.04625" y="32.602441" style="fill: #20590b; fill-opacity: 0.2"/>
     <use xlink:href="#mb8c76ce57c" x="32.04625" y="20.728378" style="fill: #20590b; fill-opacity: 0.2"/>
     <use xlink:href="#mb8c76ce57c" x="32.04625" y="39.618933" style="fill: #20590b; fill-opacity: 0.2"/>
     <use xlink:href="#mb8c76ce57c" x="32.04625" y="20.728378" style="fill: #20590b; fill-opacity: 0.2"/>
     <use xlink:href="#mb8c76ce57c" x="32.04625" y="58.509487" style="fill: #20590b; fill-opacity: 0.2"/>
     <use xlink:href="#mb8c76ce57c" x="32.04625" y="32.602441" style="fill: #20590b; fill-opacity: 0.2"/>
     <use xlink:href="#mb8c76ce57c" x="32.04625" y="43.397044" style="fill: #20590b; fill-opacity: 0.2"/>
     <use xlink:href="#mb8c76ce57c" x="32.04625" y="39.618933" style="fill: #20590b; fill-opacity: 0.2"/>
     <use xlink:href="#mb8c76ce57c" x="32.04625" y="20.728378" style="fill: #20590b; fill-opacity: 0.2"/>
     <use xlink:href="#mb8c76ce57c" x="32.04625" y="54.191646" style="fill: #20590b; fill-opacity: 0.2"/>
     <use xlink:href="#mb8c76ce57c" x="32.04625" y="36.920282" style="fill: #20590b; fill-opacity: 0.2"/>
     <use xlink:href="#mb8c76ce57c" x="32.04625" y="32.062711" style="fill: #20590b; fill-opacity: 0.2"/>
     <use xlink:href="#mb8c76ce57c" x="32.04625" y="77.939772" style="fill: #20590b; fill-opacity: 0.2"/>
     <use xlink:href="#mb8c76ce57c" x="32.04625" y="42.857314" style="fill: #20590b; fill-opacity: 0.2"/>
     <use xlink:href="#mb8c76ce57c" x="32.04625" y="54.191646" style="fill: #20590b; fill-opacity: 0.2"/>
     <use xlink:href="#mb8c76ce57c" x="32.04625" y="33.681901" style="fill: #20590b; fill-opacity: 0.2"/>
     <use xlink:href="#mb8c76ce57c" x="32.04625" y="39.618933" style="fill: #20590b; fill-opacity: 0.2"/>
     <use xlink:href="#mb8c76ce57c" x="32.04625" y="45.016234" style="fill: #20590b; fill-opacity: 0.2"/>
     <use xlink:href="#mb8c76ce57c" x="32.04625" y="25.585949" style="fill: #20590b; fill-opacity: 0.2"/>
     <use xlink:href="#mb8c76ce57c" x="32.04625" y="44.476504" style="fill: #20590b; fill-opacity: 0.2"/>
     <use xlink:href="#mb8c76ce57c" x="32.04625" y="35.301092" style="fill: #20590b; fill-opacity: 0.2"/>
     <use xlink:href="#mb8c76ce57c" x="32.04625" y="19.648918" style="fill: #20590b; fill-opacity: 0.2"/>
     <use xlink:href="#mb8c76ce57c" x="32.04625" y="37.460012" style="fill: #20590b; fill-opacity: 0.2"/>
     <use xlink:href="#mb8c76ce57c" x="32.04625" y="63.906789" style="fill: #20590b; fill-opacity: 0.2"/>
     <use xlink:href="#mb8c76ce57c" x="32.04625" y="53.651916" style="fill: #20590b; fill-opacity: 0.2"/>
     <use xlink:href="#mb8c76ce57c" x="32.04625" y="20.188648" style="fill: #20590b; fill-opacity: 0.2"/>
     <use xlink:href="#mb8c76ce57c" x="32.04625" y="47.714885" style="fill: #20590b; fill-opacity: 0.2"/>
     <use xlink:href="#mb8c76ce57c" x="32.04625" y="34.761362" style="fill: #20590b; fill-opacity: 0.2"/>
     <use xlink:href="#mb8c76ce57c" x="32.04625" y="27.74487" style="fill: #20590b; fill-opacity: 0.2"/>
     <use xlink:href="#mb8c76ce57c" x="32.04625" y="22.887299" style="fill: #20590b; fill-opacity: 0.2"/>
     <use xlink:href="#mb8c76ce57c" x="32.04625" y="19.648918" style="fill: #20590b; fill-opacity: 0.2"/>
     <use xlink:href="#mb8c76ce57c" x="32.04625" y="52.032726" style="fill: #20590b; fill-opacity: 0.2"/>
     <use xlink:href="#mb8c76ce57c" x="32.04625" y="40.158663" style="fill: #20590b; fill-opacity: 0.2"/>
     <use xlink:href="#mb8c76ce57c" x="32.04625" y="34.761362" style="fill: #20590b; fill-opacity: 0.2"/>
     <use xlink:href="#mb8c76ce57c" x="32.04625" y="41.238123" style="fill: #20590b; fill-opacity: 0.2"/>
     <use xlink:href="#mb8c76ce57c" x="32.04625" y="19.648918" style="fill: #20590b; fill-opacity: 0.2"/>
     <use xlink:href="#mb8c76ce57c" x="32.04625" y="48.794345" style="fill: #20590b; fill-opacity: 0.2"/>
     <use xlink:href="#mb8c76ce57c" x="32.04625" y="19.648918" style="fill: #20590b; fill-opacity: 0.2"/>
     <use xlink:href="#mb8c76ce57c" x="32.04625" y="23.427029" style="fill: #20590b; fill-opacity: 0.2"/>
    </g>
   </g>
   <g id="line2d_8">
    <path d="M 36.04625 37.11855 
L 52.04625 37.11855 
" clip-path="url(#pc002beb8d1)" style="fill: none; stroke: #000000; stroke-width: 0.85; stroke-linecap: square"/>
   </g>
   <g id="LineCollection_1">
    <path d="M 44.04625 39.065001 
L 44.04625 35.1721 
" clip-path="url(#pc002beb8d1)" style="fill: none; stroke: #000000; stroke-width: 0.85"/>
   </g>
   <g id="line2d_9">
    <defs>
     <path id="mb47eb25054" d="M 4 0 
L -4 -0 
" style="stroke: #000000; stroke-width: 0.85"/>
    </defs>
    <g clip-path="url(#pc002beb8d1)">
     <use xlink:href="#mb47eb25054" x="44.04625" y="39.065001" style="stroke: #000000; stroke-width: 0.85"/>
    </g>
   </g>
   <g id="line2d_10">
    <g clip-path="url(#pc002beb8d1)">
     <use xlink:href="#mb47eb25054" x="44.04625" y="35.1721" style="stroke: #000000; stroke-width: 0.85"/>
    </g>
   </g>
   <g id="line2d_11">
    <path d="M 33.64625 15.294375 
L 38.44625 15.294375 
" style="fill: none; stroke: #000000; stroke-width: 0.5; stroke-linecap: square"/>
   </g>
   <g id="text_6">
    <text style="font-size: 12px; font-family: 'Arial'; text-anchor: middle" x="36.04625" y="15.789375" transform="rotate(-0 36.04625 15.789375)">***</text>
   </g>
  </g>
 </g>
 <defs>
  <clipPath id="pc002beb8d1">
   <rect x="24.04625" y="16.734375" width="36" height="72"/>
  </clipPath>
 </defs>
</svg>
