<?xml version="1.0" encoding="utf-8" standalone="no"?>
<!DOCTYPE svg PUBLIC "-//W3C//DTD SVG 1.1//EN"
  "http://www.w3.org/Graphics/SVG/1.1/DTD/svg11.dtd">
<svg xmlns:xlink="http://www.w3.org/1999/xlink" width="67.24625pt" height="100.3875pt" viewBox="0 0 67.24625 100.3875" xmlns="http://www.w3.org/2000/svg" version="1.1">
 <metadata>
  <rdf:RDF xmlns:dc="http://purl.org/dc/elements/1.1/" xmlns:cc="http://creativecommons.org/ns#" xmlns:rdf="http://www.w3.org/1999/02/22-rdf-syntax-ns#">
   <cc:Work>
    <dc:type rdf:resource="http://purl.org/dc/dcmitype/StillImage"/>
    <dc:date>2026-03-04T23:12:10.105668</dc:date>
    <dc:format>image/svg+xml</dc:format>
    <dc:creator>
     <cc:Agent>
      <dc:title>Matplotlib v3.10.8, https://matplotlib.org/</dc:title>
     </cc:Agent>
    </dc:creator>
   </cc:Work>
  </rdf:RDF>
 </metadata>
 <defs>
  <style type="text/css">*{stroke-linejoin: round; stroke-linecap: butt}</style>
 </defs>
 <g id="figure_1">
  <g id="patch_1">
   <path d="M 0 100.3875 
L 67.24625 100.3875 
L 67.24625 0 
L 0 0 
z
" style="fill: #ffffff"/>
  </g>
  <g id="axes_1">
   <g id="patch_2">
    <path d="M 24.04625 88.734375 
L 60.04625 88.734375 
L 60.04625 16.734375 
L 24.04625 16.734375 
z
" style="fill: #ffffff"/>
   </g>
   <g id="line2d_1">
    <path d="M 24.04625 54.092916 
L 60.04625 54.092916 
" clip-path="url(#p0aa1cc56cd)" style="fill: none; stroke-dasharray: 2.516,1.088; stroke-dashoffset: 0; stroke: #808080; stroke-opacity: 0.5; stroke-width: 0.68"/>
   </g>
   <g id="patch_3">
    <path d="M 36.04625 88.198461 
L 37.468235 88.198461 
L 37.520837 87.856446 
L 37.57584 87.514431 
L 37.633443 87.172416 
L 37.693854 86.8304 
L 37.757282 86.488385 
L 37.823944 86.14637 
L 37.894057 85.804355 
L 37.967839 85.462339 
L 38.045506 85.120324 
L 38.127271 84.778309 
L 38.213341 84.436294 
L 38.303917 84.094278 
L 38.399189 83.752263 
L 38.499337 83.410248 
L 38.604527 83.068233 
L 38.714908 82.726217 
L 38.830615 82.384202 
L 38.951761 82.042187 
L 39.07844 81.700172 
L 39.210723 81.358156 
L 39.348657 81.016141 
L 39.492267 80.674126 
L 39.641549 80.332111 
L 39.796474 79.990095 
L 39.956988 79.64808 
L 40.123008 79.306065 
L 40.294423 78.96405 
L 40.471099 78.622034 
L 40.652873 78.280019 
L 40.839556 77.938004 
L 41.030938 77.595989 
L 41.226783 77.253973 
L 41.426835 76.911958 
L 41.630818 76.569943 
L 41.838436 76.227928 
L 42.049382 75.885912 
L 42.263331 75.543897 
L 42.479949 75.201882 
L 42.698893 74.859867 
L 42.919813 74.517851 
L 43.142358 74.175836 
L 43.366174 73.833821 
L 43.590908 73.491806 
L 43.816213 73.14979 
L 44.041747 72.807775 
L 44.267178 72.46576 
L 44.492183 72.123745 
L 44.716454 71.781729 
L 44.939696 71.439714 
L 45.16163 71.097699 
L 45.381996 70.755684 
L 45.60055 70.413668 
L 45.817069 70.071653 
L 46.031348 69.729638 
L 46.243202 69.387623 
L 46.452466 69.045607 
L 46.658994 68.703592 
L 46.86266 68.361577 
L 47.063353 68.019562 
L 47.260981 67.677546 
L 47.455466 67.335531 
L 47.646744 66.993516 
L 47.834764 66.651501 
L 48.019484 66.309485 
L 48.200872 65.96747 
L 48.3789 65.625455 
L 48.553548 65.28344 
L 48.724796 64.941424 
L 48.892626 64.599409 
L 49.057016 64.257394 
L 49.217945 63.915379 
L 49.375385 63.573363 
L 49.529301 63.231348 
L 49.679653 62.889333 
L 49.82639 62.547318 
L 49.969454 62.205302 
L 50.108775 61.863287 
L 50.244273 61.521272 
L 50.37586 61.179257 
L 50.503434 60.837241 
L 50.626887 60.495226 
L 50.7461 60.153211 
L 50.860946 59.811196 
L 50.971292 59.46918 
L 51.076999 59.127165 
L 51.177925 58.78515 
L 51.273924 58.443135 
L 51.364854 58.101119 
L 51.450571 57.759104 
L 51.530938 57.417089 
L 51.605822 57.075074 
L 51.675099 56.733058 
L 51.738658 56.391043 
L 51.796398 56.049028 
L 51.848233 55.707013 
L 51.894094 55.364997 
L 51.933932 55.022982 
L 51.967715 54.680967 
L 51.995432 54.338952 
L 52.017098 53.996936 
L 52.032746 53.654921 
L 52.042436 53.312906 
L 52.04625 52.970891 
L 52.044294 52.628875 
L 52.036699 52.28686 
L 52.023616 51.944845 
L 52.00522 51.60283 
L 51.981708 51.260814 
L 51.953293 50.918799 
L 51.920209 50.576784 
L 51.882706 50.234769 
L 51.841047 49.892753 
L 51.795507 49.550738 
L 51.746372 49.208723 
L 51.693936 48.866708 
L 51.638496 48.524692 
L 51.580354 48.182677 
L 51.519813 47.840662 
L 51.457171 47.498647 
L 51.392726 47.156631 
L 51.326768 46.814616 
L 51.259578 46.472601 
L 51.19143 46.130586 
L 51.122585 45.78857 
L 51.053292 45.446555 
L 50.983786 45.10454 
L 50.914286 44.762525 
L 50.844999 44.420509 
L 50.776112 44.078494 
L 50.7078 43.736479 
L 50.64022 43.394464 
L 50.573514 43.052448 
L 50.507807 42.710433 
L 50.443212 42.368418 
L 50.379827 42.026403 
L 50.317736 41.684387 
L 50.257013 41.342372 
L 50.19772 41.000357 
L 50.139908 40.658342 
L 50.08362 40.316326 
L 50.028893 39.974311 
L 49.975752 39.632296 
L 49.924221 39.290281 
L 49.874316 38.948265 
L 49.826049 38.60625 
L 49.779425 38.264235 
L 49.734447 37.92222 
L 49.691114 37.580204 
L 49.649418 37.238189 
L 49.609346 36.896174 
L 49.570882 36.554159 
L 49.534 36.212143 
L 49.498667 35.870128 
L 49.464843 35.528113 
L 49.432474 35.186098 
L 49.401497 34.844082 
L 49.371836 34.502067 
L 49.343396 34.160052 
L 49.31607 33.818037 
L 49.289731 33.476021 
L 49.264231 33.134006 
L 49.239404 32.791991 
L 49.215059 32.449976 
L 49.190983 32.10796 
L 49.166942 31.765945 
L 49.142672 31.42393 
L 49.117891 31.081915 
L 49.09229 30.739899 
L 49.065535 30.397884 
L 49.037274 30.055869 
L 49.00713 29.713854 
L 48.974711 29.371838 
L 48.939604 29.029823 
L 48.901386 28.687808 
L 48.85962 28.345793 
L 48.813862 28.003777 
L 48.763664 27.661762 
L 48.708577 27.319747 
L 48.648157 26.977732 
L 48.581967 26.635716 
L 48.509583 26.293701 
L 48.430599 25.951686 
L 48.344629 25.609671 
L 48.251314 25.267655 
L 48.150325 24.92564 
L 48.041366 24.583625 
L 47.924182 24.24161 
L 47.798559 23.899594 
L 47.664328 23.557579 
L 47.521367 23.215564 
L 47.369607 22.873549 
L 47.209029 22.531533 
L 47.03967 22.189518 
L 46.86162 21.847503 
L 46.675026 21.505488 
L 46.480089 21.163472 
L 46.277064 20.821457 
L 46.066258 20.479442 
L 45.848031 20.137427 
L 36.04625 20.137427 
z
" clip-path="url(#p0aa1cc56cd)" style="fill: #20590b; opacity: 0.2"/>
   </g>
   <g id="matplotlib.axis_1">
    <g id="xtick_1">
     <g id="line2d_2">
      <defs>
       <path id="maabbdcbf5c" d="M 0 0 
L 0 -4 
" style="stroke: #000000; stroke-width: 0.5"/>
      </defs>
      <g>
       <use xlink:href="#maabbdcbf5c" x="36.04625" y="88.734375" style="stroke: #000000; stroke-width: 0.5"/>
      </g>
     </g>
    </g>
   </g>
   <g id="matplotlib.axis_2">
    <g id="ytick_1">
     <g id="line2d_3">
      <defs>
       <path id="m7f7fed2100" d="M 0 0 
L 4 0 
" style="stroke: #000000; stroke-width: 0.5"/>
      </defs>
      <g>
       <use xlink:href="#m7f7fed2100" x="24.04625" y="88.734375" style="stroke: #000000; stroke-width: 0.5"/>
      </g>
     </g>
     <g id="text_1">
      <text style="font-size: 8px; font-family: 'Arial'; text-anchor: end" x="20.54625" y="91.5975" transform="rotate(-0 20.54625 91.5975)">0</text>
     </g>
    </g>
    <g id="ytick_2">
     <g id="line2d_4">
      <g>
       <use xlink:href="#m7f7fed2100" x="24.04625" y="71.585138" style="stroke: #000000; stroke-width: 0.5"/>
      </g>
     </g>
     <g id="text_2">
      <text style="font-size: 8px; font-family: 'Arial'; text-anchor: end" x="20.54625" y="74.448263" transform="rotate(-0 20.54625 74.448263)">25</text>
     </g>
    </g>
    <g id="ytick_3">
     <g id="line2d_5">
      <g>
       <use xlink:href="#m7f7fed2100" x="24.04625" y="54.435901" style="stroke: #000000; stroke-width: 0.5"/>
      </g>
     </g>
     <g id="text_3">
      <text style="font-size: 8px; font-family: 'Arial'; text-anchor: end" x="20.54625" y="57.299026" transform="rotate(-0 20.54625 57.299026)">50</text>
     </g>
    </g>
    <g id="ytick_4">
     <g id="line2d_6">
      <g>
       <use xlink:href="#m7f7fed2100" x="24.04625" y="37.286664" style="stroke: #000000; stroke-width: 0.5"/>
      </g>
     </g>
     <g id="text_4">
      <text style="font-size: 8px; font-family: 'Arial'; text-anchor: end" x="20.54625" y="40.149789" transform="rotate(-0 20.54625 40.149789)">75</text>
     </g>
    </g>
    <g id="ytick_5">
     <g id="line2d_7">
      <g>
       <use xlink:href="#m7f7fed2100" x="24.04625" y="20.137427" style="stroke: #000000; stroke-width: 0.5"/>
      </g>
     </g>
     <g id="text_5">
      <text style="font-size: 8px; font-family: 'Arial'; text-anchor: end" x="20.54625" y="23.000552" transform="rotate(-0 20.54625 23.000552)">100</text>
     </g>
    </g>
   </g>
   <g id="patch_4">
    <path d="M 36.04625 51.555563 
L 52.001971 51.555563 
L 51.998559 51.50594 
L 51.995148 51.456317 
L 51.991736 51.406694 
L 51.988325 51.35707 
L 51.984914 51.307447 
L 51.981459 51.257824 
L 51.977337 51.208201 
L 51.973214 51.158578 
L 51.969091 51.108955 
L 51.964968 51.059332 
L 51.960846 51.009708 
L 51.956723 50.960085 
L 51.952487 50.910462 
L 51.947686 50.860839 
L 51.942886 50.811216 
L 51.938086 50.761593 
L 51.933286 50.711969 
L 51.928486 50.662346 
L 51.923686 50.612723 
L 51.918709 50.5631 
L 51.913268 50.513477 
L 51.907826 50.463854 
L 51.902385 50.414231 
L 51.896943 50.364607 
L 51.891502 50.314984 
L 51.886061 50.265361 
L 51.880388 50.215738 
L 51.874344 50.166115 
L 51.868299 50.116492 
L 51.862255 50.066869 
L 51.856211 50.017245 
L 51.850166 49.967622 
L 51.844122 49.917999 
L 51.837801 49.868376 
L 51.831193 49.818753 
L 51.824586 49.76913 
L 51.817979 49.719507 
L 51.811371 49.669883 
L 51.804764 49.62026 
L 51.798156 49.570637 
L 51.791237 49.521014 
L 51.784108 49.471391 
L 51.776979 49.421768 
L 51.76985 49.372145 
L 51.762721 49.322521 
L 51.755592 49.272898 
L 51.748463 49.223275 
L 51.740995 49.173652 
L 51.733387 49.124029 
L 51.725779 49.074406 
L 51.718171 49.024783 
L 51.710563 48.975159 
L 51.702955 48.925536 
L 51.695347 48.875913 
L 51.687384 48.82629 
L 51.67934 48.776667 
L 51.671297 48.727044 
L 51.663253 48.677421 
L 51.655209 48.627797 
L 51.647165 48.578174 
L 51.639121 48.528551 
L 51.630716 48.478928 
L 51.62228 48.429305 
L 51.613845 48.379682 
L 51.605409 48.330058 
L 51.596973 48.280435 
L 51.588537 48.230812 
L 51.580091 48.181189 
L 51.571307 48.131566 
L 51.562523 48.081943 
L 51.553739 48.03232 
L 51.544955 47.982696 
L 51.536171 47.933073 
L 51.527387 47.88345 
L 51.518561 47.833827 
L 51.509472 47.784204 
L 51.500383 47.734581 
L 51.491295 47.684958 
L 51.482206 47.635334 
L 51.473117 47.585711 
L 51.464029 47.536088 
L 51.454876 47.486465 
L 51.445525 47.436842 
L 51.436175 47.387219 
L 51.426825 47.337596 
L 51.417474 47.287972 
L 51.408124 47.238349 
L 51.398774 47.188726 
L 51.389346 47.139103 
L 51.379776 47.08948 
L 51.370206 47.039857 
L 51.360636 46.990234 
L 51.351066 46.94061 
L 51.341496 46.890987 
L 51.331926 46.841364 
L 51.322274 46.791741 
L 51.312525 46.742118 
L 51.302777 46.692495 
L 51.293028 46.642872 
L 51.283279 46.593248 
L 51.273531 46.543625 
L 51.263782 46.494002 
L 51.253955 46.444379 
L 51.244067 46.394756 
L 51.23418 46.345133 
L 51.224292 46.295509 
L 51.214404 46.245886 
L 51.204517 46.196263 
L 51.194629 46.14664 
L 51.184673 46.097017 
L 51.174684 46.047394 
L 51.164696 45.997771 
L 51.154707 45.948147 
L 51.144718 45.898524 
L 51.134729 45.848901 
L 51.124741 45.799278 
L 51.114701 45.749655 
L 51.104647 45.700032 
L 51.094593 45.650409 
L 51.08454 45.600785 
L 51.074486 45.551162 
L 51.064432 45.501539 
L 51.054378 45.451916 
L 51.044297 45.402293 
L 51.034212 45.35267 
L 51.024128 45.303047 
L 51.014043 45.253423 
L 51.003958 45.2038 
L 50.993873 45.154177 
L 50.983789 45.104554 
L 50.973705 45.054931 
L 50.963621 45.005308 
L 50.953537 44.955685 
L 50.943454 44.906061 
L 50.93337 44.856438 
L 50.923286 44.806815 
L 50.913206 44.757192 
L 50.903153 44.707569 
L 50.8931 44.657946 
L 50.883047 44.608323 
L 50.872994 44.558699 
L 50.862941 44.509076 
L 50.852888 44.459453 
L 50.842848 44.40983 
L 50.832853 44.360207 
L 50.822858 44.310584 
L 50.812863 44.26096 
L 50.802869 44.211337 
L 50.792874 44.161714 
L 50.782879 44.112091 
L 50.772911 44.062468 
L 50.763 44.012845 
L 50.753088 43.963222 
L 50.743177 43.913598 
L 50.733266 43.863975 
L 50.723354 43.814352 
L 50.713443 43.764729 
L 50.703577 43.715106 
L 50.693772 43.665483 
L 50.683967 43.61586 
L 50.674161 43.566236 
L 50.664356 43.516613 
L 50.654551 43.46699 
L 50.644746 43.417367 
L 50.635009 43.367744 
L 50.62533 43.318121 
L 50.615652 43.268498 
L 50.605973 43.218874 
L 50.596295 43.169251 
L 50.586616 43.119628 
L 50.576938 43.070005 
L 50.567353 43.020382 
L 50.55782 42.970759 
L 50.548286 42.921136 
L 50.538753 42.871512 
L 50.529219 42.821889 
L 50.519686 42.772266 
L 50.510153 42.722643 
L 50.500741 42.67302 
L 50.491369 42.623397 
L 50.481997 42.573774 
L 50.472624 42.52415 
L 50.463252 42.474527 
L 50.45388 42.424904 
L 50.444508 42.375281 
L 50.435287 42.325658 
L 50.426091 42.276035 
L 50.416894 42.226411 
L 50.407697 42.176788 
L 50.398501 42.127165 
L 50.389304 42.077542 
L 50.380108 42.027919 
L 50.371093 41.978296 
L 50.362084 41.928673 
L 50.353076 41.879049 
L 50.344067 41.829426 
L 50.335058 41.779803 
L 50.32605 41.73018 
L 50.317056 41.680557 
L 36.04625 41.680557 
z
" clip-path="url(#p0aa1cc56cd)" style="fill: #20590b; opacity: 0.4"/>
   </g>
   <g id="patch_5">
    <path d="M 36.04625 51.555563 
L 52.04625 51.555563 
L 52.04625 41.680557 
L 36.04625 41.680557 
L 36.04625 51.555563 
z
" style="fill: none; stroke: #20590b; stroke-width: 0.85; stroke-linejoin: miter"/>
   </g>
   <g id="patch_6">
    <path d="M 24.04625 88.734375 
L 24.04625 16.734375 
" style="fill: none; stroke: #000000; stroke-width: 0.5; stroke-linejoin: miter; stroke-linecap: square"/>
   </g>
   <g id="patch_7">
    <path d="M 24.04625 88.734375 
L 60.04625 88.734375 
" style="fill: none; stroke: #000000; stroke-width: 0.5; stroke-linejoin: miter; stroke-linecap: square"/>
   </g>
   <g id="PathCollection_1">
    <defs>
     <path id="ma479367e9a" d="M 0 1.936492 
C 0.513564 1.936492 1.006162 1.732451 1.369306 1.369306 
C 1.732451 1.006162 1.936492 0.513564 1.936492 0 
C 1.936492 -0.513564 1.732451 -1.006162 1.369306 -1.369306 
C 1.006162 -1.732451 0.513564 -1.936492 0 -1.936492 
C -0.513564 -1.936492 -1.006162 -1.732451 -1.369306 -1.369306 
C -1.732451 -1.006162 -1.936492 -0.513564 -1.936492 0 
C -1.936492 0.513564 -1.732451 1.006162 -1.369306 1.369306 
C -1.006162 1.732451 -0.513564 1.936492 0 1.936492 
z
"/>
    </defs>
    <g clip-path="url(#p0aa1cc56cd)">
     <use xlink:href="#ma479367e9a" x="32.04625" y="46.93311" style="fill: #20590b; fill-opacity: 0.2"/>
     <use xlink:href="#ma479367e9a" x="32.04625" y="48.540851" style="fill: #20590b; fill-opacity: 0.2"/>
     <use xlink:href="#ma479367e9a" x="32.04625" y="27.640218" style="fill: #20590b; fill-opacity: 0.2"/>
     <use xlink:href="#ma479367e9a" x="32.04625" y="37.286664" style="fill: #20590b; fill-opacity: 0.2"/>
     <use xlink:href="#ma479367e9a" x="32.04625" y="23.352909" style="fill: #20590b; fill-opacity: 0.2"/>
     <use xlink:href="#ma479367e9a" x="32.04625" y="58.187296" style="fill: #20590b; fill-opacity: 0.2"/>
     <use xlink:href="#ma479367e9a" x="32.04625" y="69.441483" style="fill: #20590b; fill-opacity: 0.2"/>
     <use xlink:href="#ma479367e9a" x="32.04625" y="88.198461" style="fill: #20590b; fill-opacity: 0.2"/>
     <use xlink:href="#ma479367e9a" x="32.04625" y="40.502146" style="fill: #20590b; fill-opacity: 0.2"/>
     <use xlink:href="#ma479367e9a" x="32.04625" y="63.546433" style="fill: #20590b; fill-opacity: 0.2"/>
     <use xlink:href="#ma479367e9a" x="32.04625" y="46.93311" style="fill: #20590b; fill-opacity: 0.2"/>
     <use xlink:href="#ma479367e9a" x="32.04625" y="20.67334" style="fill: #20590b; fill-opacity: 0.2"/>
     <use xlink:href="#ma479367e9a" x="32.04625" y="21.209254" style="fill: #20590b; fill-opacity: 0.2"/>
     <use xlink:href="#ma479367e9a" x="32.04625" y="51.756333" style="fill: #20590b; fill-opacity: 0.2"/>
     <use xlink:href="#ma479367e9a" x="32.04625" y="46.93311" style="fill: #20590b; fill-opacity: 0.2"/>
     <use xlink:href="#ma479367e9a" x="32.04625" y="23.888822" style="fill: #20590b; fill-opacity: 0.2"/>
     <use xlink:href="#ma479367e9a" x="32.04625" y="21.209254" style="fill: #20590b; fill-opacity: 0.2"/>
     <use xlink:href="#ma479367e9a" x="32.04625" y="47.469023" style="fill: #20590b; fill-opacity: 0.2"/>
     <use xlink:href="#ma479367e9a" x="32.04625" y="74.80062" style="fill: #20590b; fill-opacity: 0.2"/>
     <use xlink:href="#ma479367e9a" x="32.04625" y="54.971815" style="fill: #20590b; fill-opacity: 0.2"/>
     <use xlink:href="#ma479367e9a" x="32.04625" y="53.364074" style="fill: #20590b; fill-opacity: 0.2"/>
     <use xlink:href="#ma479367e9a" x="32.04625" y="32.999355" style="fill: #20590b; fill-opacity: 0.2"/>
     <use xlink:href="#ma479367e9a" x="32.04625" y="24.96065" style="fill: #20590b; fill-opacity: 0.2"/>
     <use xlink:href="#ma479367e9a" x="32.04625" y="67.297829" style="fill: #20590b; fill-opacity: 0.2"/>
     <use xlink:href="#ma479367e9a" x="32.04625" y="53.899987" style="fill: #20590b; fill-opacity: 0.2"/>
     <use xlink:href="#ma479367e9a" x="32.04625" y="31.927527" style="fill: #20590b; fill-opacity: 0.2"/>
     <use xlink:href="#ma479367e9a" x="32.04625" y="65.690088" style="fill: #20590b; fill-opacity: 0.2"/>
     <use xlink:href="#ma479367e9a" x="32.04625" y="54.435901" style="fill: #20590b; fill-opacity: 0.2"/>
     <use xlink:href="#ma479367e9a" x="32.04625" y="67.297829" style="fill: #20590b; fill-opacity: 0.2"/>
     <use xlink:href="#ma479367e9a" x="32.04625" y="36.214836" style="fill: #20590b; fill-opacity: 0.2"/>
     <use xlink:href="#ma479367e9a" x="32.04625" y="21.217694" style="fill: #20590b; fill-opacity: 0.2"/>
     <use xlink:href="#ma479367e9a" x="32.04625" y="20.137427" style="fill: #20590b; fill-opacity: 0.2"/>
     <use xlink:href="#ma479367e9a" x="32.04625" y="71.585138" style="fill: #20590b; fill-opacity: 0.2"/>
     <use xlink:href="#ma479367e9a" x="32.04625" y="24.96065" style="fill: #20590b; fill-opacity: 0.2"/>
     <use xlink:href="#ma479367e9a" x="32.04625" y="71.049224" style="fill: #20590b; fill-opacity: 0.2"/>
     <use xlink:href="#ma479367e9a" x="32.04625" y="53.899987" style="fill: #20590b; fill-opacity: 0.2"/>
     <use xlink:href="#ma479367e9a" x="32.04625" y="39.966232" style="fill: #20590b; fill-opacity: 0.2"/>
     <use xlink:href="#ma479367e9a" x="32.04625" y="60.647436" style="fill: #20590b; fill-opacity: 0.2"/>
     <use xlink:href="#ma479367e9a" x="32.04625" y="58.72321" style="fill: #20590b; fill-opacity: 0.2"/>
     <use xlink:href="#ma479367e9a" x="32.04625" y="32.999355" style="fill: #20590b; fill-opacity: 0.2"/>
     <use xlink:href="#ma479367e9a" x="32.04625" y="53.364074" style="fill: #20590b; fill-opacity: 0.2"/>
     <use xlink:href="#ma479367e9a" x="32.04625" y="68.90557" style="fill: #20590b; fill-opacity: 0.2"/>
     <use xlink:href="#ma479367e9a" x="32.04625" y="60.330951" style="fill: #20590b; fill-opacity: 0.2"/>
     <use xlink:href="#ma479367e9a" x="32.04625" y="38.358491" style="fill: #20590b; fill-opacity: 0.2"/>
     <use xlink:href="#ma479367e9a" x="32.04625" y="23.888822" style="fill: #20590b; fill-opacity: 0.2"/>
     <use xlink:href="#ma479367e9a" x="32.04625" y="59.795037" style="fill: #20590b; fill-opacity: 0.2"/>
     <use xlink:href="#ma479367e9a" x="32.04625" y="38.894405" style="fill: #20590b; fill-opacity: 0.2"/>
     <use xlink:href="#ma479367e9a" x="32.04625" y="51.756333" style="fill: #20590b; fill-opacity: 0.2"/>
     <use xlink:href="#ma479367e9a" x="32.04625" y="36.214836" style="fill: #20590b; fill-opacity: 0.2"/>
     <use xlink:href="#ma479367e9a" x="32.04625" y="42.6458" style="fill: #20590b; fill-opacity: 0.2"/>
    </g>
   </g>
   <g id="line2d_8">
    <path d="M 36.04625 46.61806 
L 52.04625 46.61806 
" clip-path="url(#p0aa1cc56cd)" style="fill: none; stroke: #000000; stroke-width: 0.85; stroke-linecap: square"/>
   </g>
   <g id="LineCollection_1">
    <path d="M 44.04625 49.075048 
L 44.04625 44.161072 
" clip-path="url(#p0aa1cc56cd)" style="fill: none; stroke: #000000; stroke-width: 0.85"/>
   </g>
   <g id="line2d_9">
    <defs>
     <path id="m6ff25dd6a6" d="M 4 0 
L -4 -0 
" style="stroke: #000000; stroke-width: 0.85"/>
    </defs>
    <g clip-path="url(#p0aa1cc56cd)">
     <use xlink:href="#m6ff25dd6a6" x="44.04625" y="49.075048" style="stroke: #000000; stroke-width: 0.85"/>
    </g>
   </g>
   <g id="line2d_10">
    <g clip-path="url(#p0aa1cc56cd)">
     <use xlink:href="#m6ff25dd6a6" x="44.04625" y="44.161072" style="stroke: #000000; stroke-width: 0.85"/>
    </g>
   </g>
   <g id="line2d_11">
    <path d="M 33.64625 15.294375 
L 38.44625 15.294375 
" style="fill: none; stroke: #000000; stroke-width: 0.5; stroke-linecap: square"/>
   </g>
   <g id="text_6">
    <text style="font-size: 12px; font-family: 'Arial'; text-anchor: middle" x="36.04625" y="15.789375" transform="rotate(-0 36.04625 15.789375)">**</text>
   </g>
  </g>
 </g>
 <defs>
  <clipPath id="p0aa1cc56cd">
   <rect x="24.04625" y="16.734375" width="36" height="72"/>
  </clipPath>
 </defs>
</svg>
