<?xml version="1.0" encoding="utf-8" standalone="no"?>
<!DOCTYPE svg PUBLIC "-//W3C//DTD SVG 1.1//EN"
  "http://www.w3.org/Graphics/SVG/1.1/DTD/svg11.dtd">
<svg xmlns:xlink="http://www.w3.org/1999/xlink" width="85.24625pt" height="103.0925pt" viewBox="0 0 85.24625 103.0925" xmlns="http://www.w3.org/2000/svg" version="1.1">
 <metadata>
  <rdf:RDF xmlns:dc="http://purl.org/dc/elements/1.1/" xmlns:cc="http://creativecommons.org/ns#" xmlns:rdf="http://www.w3.org/1999/02/22-rdf-syntax-ns#">
   <cc:Work>
    <dc:type rdf:resource="http://purl.org/dc/dcmitype/StillImage"/>
    <dc:date>2026-03-04T23:12:10.007058</dc:date>
    <dc:format>image/svg+xml</dc:format>
    <dc:creator>
     <cc:Agent>
      <dc:title>Matplotlib v3.10.8, https://matplotlib.org/</dc:title>
     </cc:Agent>
    </dc:creator>
   </cc:Work>
  </rdf:RDF>
 </metadata>
 <defs>
  <style type="text/css">*{stroke-linejoin: round; stroke-linecap: butt}</style>
 </defs>
 <g id="figure_1">
  <g id="patch_1">
   <path d="M 0 103.0925 
L 85.24625 103.0925 
L 85.24625 0 
L 0 0 
z
" style="fill: #ffffff"/>
  </g>
  <g id="axes_1">
   <g id="patch_2">
    <path d="M 24.04625 85.07625 
L 78.04625 85.07625 
L 78.04625 13.07625 
L 24.04625 13.07625 
z
" style="fill: #ffffff"/>
   </g>
   <g id="line2d_1">
    <path d="M 24.04625 49.730971 
L 78.04625 49.730971 
" clip-path="url(#p423744c2ab)" style="fill: none; stroke-dasharray: 2.516,1.088; stroke-dashoffset: 0; stroke: #808080; stroke-opacity: 0.5; stroke-width: 0.68"/>
   </g>
   <g id="patch_3">
    <path d="M 40.92125 48.09965 
L 36.898623 48.09965 
L 36.787083 47.946629 
L 36.676513 47.793607 
L 36.567079 47.640585 
L 36.458939 47.487564 
L 36.352242 47.334542 
L 36.247132 47.18152 
L 36.143738 47.028498 
L 36.042182 46.875477 
L 35.942575 46.722455 
L 35.845013 46.569433 
L 35.749584 46.416412 
L 35.656358 46.26339 
L 35.565394 46.110368 
L 35.476738 45.957347 
L 35.390419 45.804325 
L 35.306454 45.651303 
L 35.224843 45.498281 
L 35.145574 45.34526 
L 35.068618 45.192238 
L 34.993934 45.039216 
L 34.921464 44.886195 
L 34.851137 44.733173 
L 34.782871 44.580151 
L 34.716568 44.42713 
L 34.652118 44.274108 
L 34.589401 44.121086 
L 34.528285 43.968065 
L 34.468627 43.815043 
L 34.410278 43.662021 
L 34.353077 43.508999 
L 34.296858 43.355978 
L 34.24145 43.202956 
L 34.186674 43.049934 
L 34.132351 42.896913 
L 34.078296 42.743891 
L 34.024326 42.590869 
L 33.970256 42.437848 
L 33.915905 42.284826 
L 33.861092 42.131804 
L 33.805642 41.978782 
L 33.749384 41.825761 
L 33.692155 41.672739 
L 33.6338 41.519717 
L 33.574173 41.366696 
L 33.513138 41.213674 
L 33.45057 41.060652 
L 33.386358 40.907631 
L 33.320404 40.754609 
L 33.252623 40.601587 
L 33.182948 40.448566 
L 33.111325 40.295544 
L 33.037718 40.142522 
L 32.962109 39.9895 
L 32.884496 39.836479 
L 32.804894 39.683457 
L 32.723338 39.530435 
L 32.639879 39.377414 
L 32.554587 39.224392 
L 32.467547 39.07137 
L 32.378865 38.918349 
L 32.288661 38.765327 
L 32.197072 38.612305 
L 32.104248 38.459283 
L 32.010357 38.306262 
L 31.915579 38.15324 
L 31.820106 38.000218 
L 31.724141 37.847197 
L 31.627898 37.694175 
L 31.5316 37.541153 
L 31.435476 37.388132 
L 31.339762 37.23511 
L 31.2447 37.082088 
L 31.150531 36.929067 
L 31.0575 36.776045 
L 30.965853 36.623023 
L 30.875831 36.470001 
L 30.787675 36.31698 
L 30.701619 36.163958 
L 30.617891 36.010936 
L 30.536713 35.857915 
L 30.458296 35.704893 
L 30.382841 35.551871 
L 30.310537 35.39885 
L 30.241562 35.245828 
L 30.176078 35.092806 
L 30.114232 34.939784 
L 30.056158 34.786763 
L 30.001969 34.633741 
L 29.951764 34.480719 
L 29.905625 34.327698 
L 29.863613 34.174676 
L 29.825772 34.021654 
L 29.792129 33.868633 
L 29.762692 33.715611 
L 29.737448 33.562589 
L 29.716369 33.409568 
L 29.69941 33.256546 
L 29.686506 33.103524 
L 29.677577 32.950502 
L 29.672529 32.797481 
L 29.67125 32.644459 
L 29.673617 32.491437 
L 29.679492 32.338416 
L 29.688727 32.185394 
L 29.701163 32.032372 
L 29.716631 31.879351 
L 29.734955 31.726329 
L 29.755952 31.573307 
L 29.779434 31.420285 
L 29.80521 31.267264 
L 29.833086 31.114242 
L 29.862867 30.96122 
L 29.894358 30.808199 
L 29.927368 30.655177 
L 29.961707 30.502155 
L 29.997191 30.349134 
L 30.033641 30.196112 
L 30.070887 30.04309 
L 30.108765 29.890069 
L 30.147121 29.737047 
L 30.185813 29.584025 
L 30.224706 29.431003 
L 30.263682 29.277982 
L 30.302632 29.12496 
L 30.341463 28.971938 
L 30.380093 28.818917 
L 30.418457 28.665895 
L 30.456502 28.512873 
L 30.494191 28.359852 
L 30.531501 28.20683 
L 30.568424 28.053808 
L 30.604967 27.900786 
L 30.641151 27.747765 
L 30.677009 27.594743 
L 30.712591 27.441721 
L 30.747956 27.2887 
L 30.783179 27.135678 
L 30.818344 26.982656 
L 30.853547 26.829635 
L 30.888894 26.676613 
L 30.9245 26.523591 
L 30.960489 26.37057 
L 30.996992 26.217548 
L 31.034146 26.064526 
L 31.072093 25.911504 
L 31.110982 25.758483 
L 31.150961 25.605461 
L 31.192185 25.452439 
L 31.234806 25.299418 
L 31.27898 25.146396 
L 31.324859 24.993374 
L 31.372595 24.840353 
L 31.422338 24.687331 
L 31.474231 24.534309 
L 31.528417 24.381287 
L 31.58503 24.228266 
L 31.644199 24.075244 
L 31.706046 23.922222 
L 31.770686 23.769201 
L 31.838223 23.616179 
L 31.908756 23.463157 
L 31.982371 23.310136 
L 32.059145 23.157114 
L 32.139145 23.004092 
L 32.222425 22.851071 
L 32.309031 22.698049 
L 32.398995 22.545027 
L 32.492336 22.392005 
L 32.589065 22.238984 
L 32.689177 22.085962 
L 32.792657 21.93294 
L 32.899475 21.779919 
L 33.009593 21.626897 
L 33.122957 21.473875 
L 33.239503 21.320854 
L 33.359154 21.167832 
L 33.481823 21.01481 
L 33.607411 20.861788 
L 33.735806 20.708767 
L 33.866888 20.555745 
L 34.000526 20.402723 
L 34.136579 20.249702 
L 34.274897 20.09668 
L 34.415321 19.943658 
L 34.557684 19.790637 
L 34.701812 19.637615 
L 34.847524 19.484593 
L 34.994631 19.331572 
L 35.142941 19.17855 
L 35.292257 19.025528 
L 35.442377 18.872506 
L 35.593096 18.719485 
L 35.744207 18.566463 
L 35.895501 18.413441 
L 36.046769 18.26042 
L 36.197802 18.107398 
L 36.34839 17.954376 
L 36.498328 17.801355 
L 36.647412 17.648333 
L 40.92125 17.648333 
z
" clip-path="url(#p423744c2ab)" style="fill: #228b22; opacity: 0.2"/>
   </g>
   <g id="patch_4">
    <path d="M 61.17125 63.413014 
L 61.900272 63.413014 
L 61.921847 63.172111 
L 61.944029 62.931208 
L 61.966937 62.690304 
L 61.990697 62.449401 
L 62.015445 62.208497 
L 62.041322 61.967594 
L 62.068477 61.726691 
L 62.097061 61.485787 
L 62.127231 61.244884 
L 62.159142 61.00398 
L 62.192953 60.763077 
L 62.228818 60.522174 
L 62.26689 60.28127 
L 62.307317 60.040367 
L 62.35024 59.799463 
L 62.395794 59.55856 
L 62.444102 59.317657 
L 62.495279 59.076753 
L 62.549428 58.83585 
L 62.606638 58.594946 
L 62.666985 58.354043 
L 62.730529 58.11314 
L 62.797317 57.872236 
L 62.867378 57.631333 
L 62.940725 57.39043 
L 63.017355 57.149526 
L 63.097246 56.908623 
L 63.180363 56.667719 
L 63.266651 56.426816 
L 63.356041 56.185913 
L 63.448448 55.945009 
L 63.543771 55.704106 
L 63.641895 55.463202 
L 63.742693 55.222299 
L 63.846025 54.981396 
L 63.951739 54.740492 
L 64.059673 54.499589 
L 64.169659 54.258685 
L 64.281518 54.017782 
L 64.395067 53.776879 
L 64.510118 53.535975 
L 64.626481 53.295072 
L 64.743965 53.054168 
L 64.862378 52.813265 
L 64.98153 52.572362 
L 65.101237 52.331458 
L 65.221318 52.090555 
L 65.3416 51.849651 
L 65.461918 51.608748 
L 65.582119 51.367845 
L 65.70206 51.126941 
L 65.82161 50.886038 
L 65.940655 50.645134 
L 66.059095 50.404231 
L 66.176846 50.163328 
L 66.293844 49.922424 
L 66.41004 49.681521 
L 66.525405 49.440617 
L 66.639931 49.199714 
L 66.753626 48.958811 
L 66.866519 48.717907 
L 66.978658 48.477004 
L 67.090108 48.236101 
L 67.200952 47.995197 
L 67.311289 47.754294 
L 67.421232 47.51339 
L 67.530908 47.272487 
L 67.640455 47.031584 
L 67.750021 46.79068 
L 67.859759 46.549777 
L 67.969828 46.308873 
L 68.080389 46.06797 
L 68.191599 45.827067 
L 68.303615 45.586163 
L 68.416584 45.34526 
L 68.530644 45.104356 
L 68.645919 44.863453 
L 68.762518 44.62255 
L 68.880528 44.381646 
L 69.000016 44.140743 
L 69.121024 43.899839 
L 69.243566 43.658936 
L 69.367624 43.418033 
L 69.493151 43.177129 
L 69.620063 42.936226 
L 69.748244 42.695322 
L 69.877538 42.454419 
L 70.007753 42.213516 
L 70.138661 41.972612 
L 70.269993 41.731709 
L 70.401446 41.490805 
L 70.532679 41.249902 
L 70.663319 41.008999 
L 70.792958 40.768095 
L 70.92116 40.527192 
L 71.047461 40.286288 
L 71.171374 40.045385 
L 71.292392 39.804482 
L 71.409993 39.563578 
L 71.523643 39.322675 
L 71.632805 39.081771 
L 71.736938 38.840868 
L 71.835507 38.599965 
L 71.927989 38.359061 
L 72.013875 38.118158 
L 72.092678 37.877255 
L 72.163941 37.636351 
L 72.227236 37.395448 
L 72.282176 37.154544 
L 72.328416 36.913641 
L 72.36566 36.672738 
L 72.393663 36.431834 
L 72.412236 36.190931 
L 72.42125 35.950027 
L 72.420635 35.709124 
L 72.410386 35.468221 
L 72.390561 35.227317 
L 72.361283 34.986414 
L 72.322737 34.74551 
L 72.275174 34.504607 
L 72.218901 34.263704 
L 72.154285 34.0228 
L 72.081747 33.781897 
L 72.001755 33.540993 
L 71.914825 33.30009 
L 71.821509 33.059187 
L 71.722393 32.818283 
L 71.61809 32.57738 
L 71.509232 32.336476 
L 71.396466 32.095573 
L 71.280441 31.85467 
L 71.161808 31.613766 
L 71.041209 31.372863 
L 70.91927 31.131959 
L 70.796598 30.891056 
L 70.67377 30.650153 
L 70.551331 30.409249 
L 70.429788 30.168346 
L 70.309606 29.927442 
L 70.191202 29.686539 
L 70.074945 29.445636 
L 69.961152 29.204732 
L 69.850085 28.963829 
L 69.741953 28.722926 
L 69.63691 28.482022 
L 69.535056 28.241119 
L 69.436438 28.000215 
L 69.34105 27.759312 
L 69.248839 27.518409 
L 69.159705 27.277505 
L 69.073505 27.036602 
L 68.990056 26.795698 
L 68.909142 26.554795 
L 68.830513 26.313892 
L 68.753893 26.072988 
L 68.678984 25.832085 
L 68.60547 25.591181 
L 68.533019 25.350278 
L 68.461294 25.109375 
L 68.389948 24.868471 
L 68.318638 24.627568 
L 68.24702 24.386664 
L 68.174758 24.145761 
L 68.101526 23.904858 
L 68.027011 23.663954 
L 67.950916 23.423051 
L 67.872962 23.182147 
L 67.792892 22.941244 
L 67.71047 22.700341 
L 67.625486 22.459437 
L 67.537755 22.218534 
L 67.44712 21.97763 
L 67.353452 21.736727 
L 67.25665 21.495824 
L 67.156642 21.25492 
L 67.053387 21.014017 
L 66.946872 20.773113 
L 66.837113 20.53221 
L 66.724155 20.291307 
L 66.608072 20.050403 
L 66.488962 19.8095 
L 66.366954 19.568596 
L 66.242196 19.327693 
L 66.114864 19.08679 
L 65.985155 18.845886 
L 65.853284 18.604983 
L 65.719487 18.36408 
L 65.584016 18.123176 
L 65.447135 17.882273 
L 65.309124 17.641369 
L 65.17027 17.400466 
L 65.030868 17.159563 
L 64.891221 16.918659 
L 64.751631 16.677756 
L 64.612405 16.436852 
L 64.473845 16.195949 
L 64.336251 15.955046 
L 64.199917 15.714142 
L 64.065128 15.473239 
L 61.17125 15.473239 
z
" clip-path="url(#p423744c2ab)" style="fill: #cd5c5c; opacity: 0.2"/>
   </g>
   <g id="matplotlib.axis_1">
    <g id="xtick_1">
     <g id="line2d_2">
      <defs>
       <path id="md40568391a" d="M 0 0 
L 0 -4 
" style="stroke: #000000; stroke-width: 0.5"/>
      </defs>
      <g>
       <use xlink:href="#md40568391a" x="40.92125" y="85.07625" style="stroke: #000000; stroke-width: 0.5"/>
      </g>
     </g>
     <g id="text_1">
      <text style="font-size: 8px; font-family: 'Arial'; text-anchor: middle" x="40.92125" y="94.3025" transform="rotate(-0 40.92125 94.3025)">Gain</text>
     </g>
    </g>
    <g id="xtick_2">
     <g id="line2d_3">
      <g>
       <use xlink:href="#md40568391a" x="61.17125" y="85.07625" style="stroke: #000000; stroke-width: 0.5"/>
      </g>
     </g>
     <g id="text_2">
      <text style="font-size: 8px; font-family: 'Arial'; text-anchor: middle" x="61.17125" y="94.3025" transform="rotate(-0 61.17125 94.3025)">Loss</text>
     </g>
    </g>
   </g>
   <g id="matplotlib.axis_2">
    <g id="ytick_1">
     <g id="line2d_4">
      <defs>
       <path id="md2073f671d" d="M 0 0 
L 4 0 
" style="stroke: #000000; stroke-width: 0.5"/>
      </defs>
      <g>
       <use xlink:href="#md2073f671d" x="24.04625" y="85.07625" style="stroke: #000000; stroke-width: 0.5"/>
      </g>
     </g>
     <g id="text_3">
      <text style="font-size: 8px; font-family: 'Arial'; text-anchor: end" x="20.54625" y="87.939375" transform="rotate(-0 20.54625 87.939375)">0</text>
     </g>
    </g>
    <g id="ytick_2">
     <g id="line2d_5">
      <g>
       <use xlink:href="#md2073f671d" x="24.04625" y="67.40361" style="stroke: #000000; stroke-width: 0.5"/>
      </g>
     </g>
     <g id="text_4">
      <text style="font-size: 8px; font-family: 'Arial'; text-anchor: end" x="20.54625" y="70.266735" transform="rotate(-0 20.54625 70.266735)">25</text>
     </g>
    </g>
    <g id="ytick_3">
     <g id="line2d_6">
      <g>
       <use xlink:href="#md2073f671d" x="24.04625" y="49.730971" style="stroke: #000000; stroke-width: 0.5"/>
      </g>
     </g>
     <g id="text_5">
      <text style="font-size: 8px; font-family: 'Arial'; text-anchor: end" x="20.54625" y="52.594096" transform="rotate(-0 20.54625 52.594096)">50</text>
     </g>
    </g>
    <g id="ytick_4">
     <g id="line2d_7">
      <g>
       <use xlink:href="#md2073f671d" x="24.04625" y="32.058331" style="stroke: #000000; stroke-width: 0.5"/>
      </g>
     </g>
     <g id="text_6">
      <text style="font-size: 8px; font-family: 'Arial'; text-anchor: end" x="20.54625" y="34.921456" transform="rotate(-0 20.54625 34.921456)">75</text>
     </g>
    </g>
    <g id="ytick_5">
     <g id="line2d_8">
      <g>
       <use xlink:href="#md2073f671d" x="24.04625" y="14.385692" style="stroke: #000000; stroke-width: 0.5"/>
      </g>
     </g>
     <g id="text_7">
      <text style="font-size: 8px; font-family: 'Arial'; text-anchor: end" x="20.54625" y="17.248817" transform="rotate(-0 20.54625 17.248817)">100</text>
     </g>
    </g>
   </g>
   <g id="patch_5">
    <path d="M 40.92125 34.795991 
L 30.05966 34.795991 
L 30.050922 34.771978 
L 30.042419 34.747966 
L 30.033916 34.723954 
L 30.025412 34.699942 
L 30.016909 34.67593 
L 30.008406 34.651918 
L 30.000054 34.627905 
L 29.992176 34.603893 
L 29.984298 34.579881 
L 29.97642 34.555869 
L 29.968542 34.531857 
L 29.960664 34.507844 
L 29.952786 34.483832 
L 29.945463 34.45982 
L 29.938223 34.435808 
L 29.930982 34.411796 
L 29.923742 34.387783 
L 29.916502 34.363771 
L 29.909262 34.339759 
L 29.902344 34.315747 
L 29.895751 34.291735 
L 29.889159 34.267722 
L 29.882566 34.24371 
L 29.875974 34.219698 
L 29.869381 34.195686 
L 29.86287 34.171674 
L 29.856932 34.147662 
L 29.850994 34.123649 
L 29.845057 34.099637 
L 29.839119 34.075625 
L 29.833181 34.051613 
L 29.827243 34.027601 
L 29.8218 34.003588 
L 29.816521 33.979576 
L 29.811242 33.955564 
L 29.805963 33.931552 
L 29.800683 33.90754 
L 29.795404 33.883527 
L 29.790375 33.859515 
L 29.785756 33.835503 
L 29.781137 33.811491 
L 29.776517 33.787479 
L 29.771898 33.763467 
L 29.767278 33.739454 
L 29.762664 33.715442 
L 29.758702 33.69143 
L 29.754741 33.667418 
L 29.75078 33.643406 
L 29.746819 33.619393 
L 29.742857 33.595381 
L 29.738896 33.571369 
L 29.735349 33.547357 
L 29.732042 33.523345 
L 29.728734 33.499332 
L 29.725427 33.47532 
L 29.722119 33.451308 
L 29.718811 33.427296 
L 29.715673 33.403284 
L 29.713012 33.379272 
L 29.71035 33.355259 
L 29.707689 33.331247 
L 29.705028 33.307235 
L 29.702366 33.283223 
L 29.699705 33.259211 
L 29.697609 33.235198 
L 29.695585 33.211186 
L 29.69356 33.187174 
L 29.691535 33.163162 
L 29.68951 33.13915 
L 29.687485 33.115137 
L 29.685782 33.091125 
L 29.684381 33.067113 
L 29.68298 33.043101 
L 29.681579 33.019089 
L 29.680178 32.995077 
L 29.678777 32.971064 
L 29.677463 32.947052 
L 29.676671 32.92304 
L 29.675879 32.899028 
L 29.675087 32.875016 
L 29.674295 32.851003 
L 29.673502 32.826991 
L 29.67271 32.802979 
L 29.672374 32.778967 
L 29.672173 32.754955 
L 29.671973 32.730942 
L 29.671772 32.70693 
L 29.671571 32.682918 
L 29.671371 32.658906 
L 29.671398 32.634894 
L 29.671769 32.610882 
L 29.672141 32.586869 
L 29.672512 32.562857 
L 29.672884 32.538845 
L 29.673255 32.514833 
L 29.67364 32.490821 
L 29.674562 32.466808 
L 29.675484 32.442796 
L 29.676406 32.418784 
L 29.677328 32.394772 
L 29.67825 32.37076 
L 29.679172 32.346747 
L 29.680438 32.322735 
L 29.681888 32.298723 
L 29.683337 32.274711 
L 29.684786 32.250699 
L 29.686235 32.226687 
L 29.687684 32.202674 
L 29.689274 32.178662 
L 29.691226 32.15465 
L 29.693177 32.130638 
L 29.695128 32.106626 
L 29.69708 32.082613 
L 29.699031 32.058601 
L 29.700983 32.034589 
L 29.703366 32.010577 
L 29.705793 31.986565 
L 29.70822 31.962552 
L 29.710648 31.93854 
L 29.713075 31.914528 
L 29.715502 31.890516 
L 29.718169 31.866504 
L 29.721045 31.842492 
L 29.72392 31.818479 
L 29.726795 31.794467 
L 29.729671 31.770455 
L 29.732546 31.746443 
L 29.73549 31.722431 
L 29.738784 31.698418 
L 29.742079 31.674406 
L 29.745374 31.650394 
L 29.748669 31.626382 
L 29.751964 31.60237 
L 29.755259 31.578357 
L 29.758862 31.554345 
L 29.762547 31.530333 
L 29.766231 31.506321 
L 29.769916 31.482309 
L 29.773601 31.458296 
L 29.777286 31.434284 
L 29.781121 31.410272 
L 29.785166 31.38626 
L 29.78921 31.362248 
L 29.793255 31.338236 
L 29.7973 31.314223 
L 29.801345 31.290211 
L 29.805404 31.266199 
L 29.809778 31.242187 
L 29.814153 31.218175 
L 29.818527 31.194162 
L 29.822901 31.17015 
L 29.827275 31.146138 
L 29.83165 31.122126 
L 29.836225 31.098114 
L 29.840898 31.074101 
L 29.845571 31.050089 
L 29.850244 31.026077 
L 29.854918 31.002065 
L 29.859591 30.978053 
L 29.864344 30.954041 
L 29.869286 30.930028 
L 29.874227 30.906016 
L 29.879169 30.882004 
L 29.884111 30.857992 
L 29.889052 30.83398 
L 29.893994 30.809967 
L 29.899156 30.785955 
L 29.904336 30.761943 
L 29.909516 30.737931 
L 29.914696 30.713919 
L 29.919876 30.689906 
L 29.925056 30.665894 
L 29.930351 30.641882 
L 29.935739 30.61787 
L 29.941128 30.593858 
L 29.946516 30.569846 
L 29.951905 30.545833 
L 29.957293 30.521821 
L 29.962714 30.497809 
L 29.968283 30.473797 
L 29.973851 30.449785 
L 29.979419 30.425772 
L 29.984987 30.40176 
L 29.990555 30.377748 
L 29.996123 30.353736 
L 30.001814 30.329724 
L 30.007534 30.305711 
L 30.013254 30.281699 
L 30.018974 30.257687 
L 30.024694 30.233675 
L 30.030413 30.209663 
L 30.036188 30.185651 
L 30.042032 30.161638 
L 30.047877 30.137626 
L 30.053721 30.113614 
L 30.059566 30.089602 
L 30.065411 30.06559 
L 30.071262 30.041577 
L 30.077205 30.017565 
L 40.92125 30.017565 
z
" clip-path="url(#p423744c2ab)" style="fill: #228b22; opacity: 0.4"/>
   </g>
   <g id="patch_6">
    <path d="M 29.67125 34.795991 
L 40.92125 34.795991 
L 40.92125 30.017565 
L 29.67125 30.017565 
L 29.67125 34.795991 
z
" style="fill: none; stroke: #228b22; stroke-width: 0.85; stroke-linejoin: miter"/>
   </g>
   <g id="patch_7">
    <path d="M 61.17125 38.596236 
L 71.836939 38.596236 
L 71.848537 38.566024 
L 71.860135 38.535811 
L 71.871734 38.505599 
L 71.883332 38.475387 
L 71.89493 38.445175 
L 71.906529 38.414963 
L 71.918127 38.384751 
L 71.929601 38.354538 
L 71.940372 38.324326 
L 71.951144 38.294114 
L 71.961915 38.263902 
L 71.972686 38.23369 
L 71.983457 38.203478 
L 71.994228 38.173265 
L 72.004999 38.143053 
L 72.015614 38.112841 
L 72.025497 38.082629 
L 72.03538 38.052417 
L 72.045263 38.022205 
L 72.055146 37.991992 
L 72.065029 37.96178 
L 72.074912 37.931568 
L 72.084794 37.901356 
L 72.094486 37.871144 
L 72.103423 37.840932 
L 72.11236 37.810719 
L 72.121298 37.780507 
L 72.130235 37.750295 
L 72.139172 37.720083 
L 72.148109 37.689871 
L 72.157046 37.659659 
L 72.165755 37.629447 
L 72.173693 37.599234 
L 72.181631 37.569022 
L 72.189569 37.53881 
L 72.197507 37.508598 
L 72.205445 37.478386 
L 72.213383 37.448174 
L 72.221321 37.417961 
L 72.228992 37.387749 
L 72.235882 37.357537 
L 72.242772 37.327325 
L 72.249662 37.297113 
L 72.256552 37.266901 
L 72.263442 37.236688 
L 72.270332 37.206476 
L 72.277222 37.176264 
L 72.283806 37.146052 
L 72.289605 37.11584 
L 72.295404 37.085628 
L 72.301203 37.055415 
L 72.307002 37.025203 
L 72.312801 36.994991 
L 72.3186 36.964779 
L 72.324399 36.934567 
L 72.329852 36.904355 
L 72.334523 36.874142 
L 72.339193 36.84393 
L 72.343864 36.813718 
L 72.348535 36.783506 
L 72.353206 36.753294 
L 72.357877 36.723082 
L 72.362548 36.692869 
L 72.366832 36.662657 
L 72.370344 36.632445 
L 72.373856 36.602233 
L 72.377368 36.572021 
L 72.380879 36.541809 
L 72.384391 36.511596 
L 72.387903 36.481384 
L 72.391415 36.451172 
L 72.394501 36.42096 
L 72.396831 36.390748 
L 72.39916 36.360536 
L 72.401489 36.330323 
L 72.403819 36.300111 
L 72.406148 36.269899 
L 72.408477 36.239687 
L 72.410807 36.209475 
L 72.412673 36.179263 
L 72.413803 36.14905 
L 72.414934 36.118838 
L 72.416064 36.088626 
L 72.417195 36.058414 
L 72.418325 36.028202 
L 72.419455 35.99799 
L 72.420586 35.967777 
L 72.421218 35.937565 
L 72.421141 35.907353 
L 72.421064 35.877141 
L 72.420987 35.846929 
L 72.42091 35.816717 
L 72.420833 35.786504 
L 72.420755 35.756292 
L 72.420678 35.72608 
L 72.420071 35.695868 
L 72.418786 35.665656 
L 72.4175 35.635444 
L 72.416215 35.605232 
L 72.41493 35.575019 
L 72.413644 35.544807 
L 72.412359 35.514595 
L 72.411074 35.484383 
L 72.40923 35.454171 
L 72.406743 35.423959 
L 72.404257 35.393746 
L 72.401771 35.363534 
L 72.399285 35.333322 
L 72.396798 35.30311 
L 72.394312 35.272898 
L 72.391826 35.242686 
L 72.388757 35.212473 
L 72.385085 35.182261 
L 72.381413 35.152049 
L 72.377741 35.121837 
L 72.37407 35.091625 
L 72.370398 35.061413 
L 72.366726 35.0312 
L 72.363054 35.000988 
L 72.358781 34.970776 
L 72.353946 34.940564 
L 72.349112 34.910352 
L 72.344278 34.88014 
L 72.339444 34.849927 
L 72.33461 34.819715 
L 72.329776 34.789503 
L 72.324942 34.759291 
L 72.319493 34.729079 
L 72.313528 34.698867 
L 72.307563 34.668654 
L 72.301598 34.638442 
L 72.295633 34.60823 
L 72.289668 34.578018 
L 72.283703 34.547806 
L 72.277738 34.517594 
L 72.27115 34.487381 
L 72.264093 34.457169 
L 72.257035 34.426957 
L 72.249978 34.396745 
L 72.242921 34.366533 
L 72.235863 34.336321 
L 72.228806 34.306108 
L 72.221749 34.275896 
L 72.214068 34.245684 
L 72.205964 34.215472 
L 72.19786 34.18526 
L 72.189757 34.155048 
L 72.181653 34.124835 
L 72.17355 34.094623 
L 72.165446 34.064411 
L 72.157342 34.034199 
L 72.14862 34.003987 
L 72.139523 33.973775 
L 72.130426 33.943562 
L 72.121329 33.91335 
L 72.112231 33.883138 
L 72.103134 33.852926 
L 72.094037 33.822714 
L 72.08494 33.792502 
L 72.075236 33.762289 
L 72.065204 33.732077 
L 72.055172 33.701865 
L 72.04514 33.671653 
L 72.035109 33.641441 
L 72.025077 33.611229 
L 72.015045 33.581017 
L 72.005013 33.550804 
L 71.994393 33.520592 
L 71.983491 33.49038 
L 71.972589 33.460168 
L 71.961687 33.429956 
L 71.950785 33.399744 
L 71.939883 33.369531 
L 71.928981 33.339319 
L 71.918079 33.309107 
L 71.906615 33.278895 
L 71.894912 33.248683 
L 71.883209 33.218471 
L 71.871506 33.188258 
L 71.859803 33.158046 
L 71.8481 33.127834 
L 71.836397 33.097622 
L 71.824694 33.06741 
L 71.812462 33.037198 
L 71.800031 33.006985 
L 71.787601 32.976773 
L 71.775171 32.946561 
L 71.76274 32.916349 
L 71.75031 32.886137 
L 71.73788 32.855925 
L 71.725449 32.825712 
L 71.712529 32.7955 
L 71.699448 32.765288 
L 71.686367 32.735076 
L 71.673286 32.704864 
L 71.660205 32.674652 
L 71.647124 32.644439 
L 71.634044 32.614227 
L 71.620963 32.584015 
L 61.17125 32.584015 
z
" clip-path="url(#p423744c2ab)" style="fill: #cd5c5c; opacity: 0.4"/>
   </g>
   <g id="patch_8">
    <path d="M 61.17125 38.596236 
L 72.42125 38.596236 
L 72.42125 32.584015 
L 61.17125 32.584015 
L 61.17125 38.596236 
z
" style="fill: none; stroke: #cd5c5c; stroke-width: 0.85; stroke-linejoin: miter"/>
   </g>
   <g id="line2d_9">
    <path d="M 44.29625 19.823427 
L 57.79625 26.348709 
" clip-path="url(#p423744c2ab)" style="fill: none; stroke: #999999; stroke-opacity: 0.8; stroke-width: 0.3; stroke-linecap: square"/>
   </g>
   <g id="line2d_10">
    <path d="M 44.29625 37.22418 
L 57.79625 35.049086 
" clip-path="url(#p423744c2ab)" style="fill: none; stroke: #999999; stroke-opacity: 0.8; stroke-width: 0.3; stroke-linecap: square"/>
   </g>
   <g id="line2d_11">
    <path d="M 44.29625 32.873992 
L 57.79625 39.399274 
" clip-path="url(#p423744c2ab)" style="fill: none; stroke: #999999; stroke-opacity: 0.8; stroke-width: 0.3; stroke-linecap: square"/>
   </g>
   <g id="line2d_12">
    <path d="M 44.29625 33.961539 
L 57.79625 25.261162 
" clip-path="url(#p423744c2ab)" style="fill: none; stroke: #999999; stroke-opacity: 0.8; stroke-width: 0.3; stroke-linecap: square"/>
   </g>
   <g id="line2d_13">
    <path d="M 44.29625 24.173615 
L 57.79625 50.274744 
" clip-path="url(#p423744c2ab)" style="fill: none; stroke: #999999; stroke-opacity: 0.8; stroke-width: 0.3; stroke-linecap: square"/>
   </g>
   <g id="line2d_14">
    <path d="M 44.29625 42.661915 
L 57.79625 20.910974 
" clip-path="url(#p423744c2ab)" style="fill: none; stroke: #999999; stroke-opacity: 0.8; stroke-width: 0.3; stroke-linecap: square"/>
   </g>
   <g id="line2d_15">
    <path d="M 44.29625 47.012103 
L 57.79625 43.749462 
" clip-path="url(#p423744c2ab)" style="fill: none; stroke: #999999; stroke-opacity: 0.8; stroke-width: 0.3; stroke-linecap: square"/>
   </g>
   <g id="line2d_16">
    <path d="M 44.29625 36.136633 
L 57.79625 40.486821 
" clip-path="url(#p423744c2ab)" style="fill: none; stroke: #999999; stroke-opacity: 0.8; stroke-width: 0.3; stroke-linecap: square"/>
   </g>
   <g id="line2d_17">
    <path d="M 44.29625 35.049086 
L 57.79625 48.09965 
" clip-path="url(#p423744c2ab)" style="fill: none; stroke: #999999; stroke-opacity: 0.8; stroke-width: 0.3; stroke-linecap: square"/>
   </g>
   <g id="line2d_18">
    <path d="M 44.29625 45.924556 
L 57.79625 26.348709 
" clip-path="url(#p423744c2ab)" style="fill: none; stroke: #999999; stroke-opacity: 0.8; stroke-width: 0.3; stroke-linecap: square"/>
   </g>
   <g id="line2d_19">
    <path d="M 44.29625 27.436256 
L 57.79625 41.574368 
" clip-path="url(#p423744c2ab)" style="fill: none; stroke: #999999; stroke-opacity: 0.8; stroke-width: 0.3; stroke-linecap: square"/>
   </g>
   <g id="line2d_20">
    <path d="M 44.29625 42.661915 
L 57.79625 32.873992 
" clip-path="url(#p423744c2ab)" style="fill: none; stroke: #999999; stroke-opacity: 0.8; stroke-width: 0.3; stroke-linecap: square"/>
   </g>
   <g id="line2d_21">
    <path d="M 44.29625 31.786445 
L 57.79625 39.399274 
" clip-path="url(#p423744c2ab)" style="fill: none; stroke: #999999; stroke-opacity: 0.8; stroke-width: 0.3; stroke-linecap: square"/>
   </g>
   <g id="line2d_22">
    <path d="M 44.29625 42.661915 
L 57.79625 36.136633 
" clip-path="url(#p423744c2ab)" style="fill: none; stroke: #999999; stroke-opacity: 0.8; stroke-width: 0.3; stroke-linecap: square"/>
   </g>
   <g id="line2d_23">
    <path d="M 44.29625 23.086068 
L 57.79625 21.998521 
" clip-path="url(#p423744c2ab)" style="fill: none; stroke: #999999; stroke-opacity: 0.8; stroke-width: 0.3; stroke-linecap: square"/>
   </g>
   <g id="line2d_24">
    <path d="M 44.29625 24.173615 
L 57.79625 42.661915 
" clip-path="url(#p423744c2ab)" style="fill: none; stroke: #999999; stroke-opacity: 0.8; stroke-width: 0.3; stroke-linecap: square"/>
   </g>
   <g id="line2d_25">
    <path d="M 44.29625 30.698897 
L 57.79625 29.61135 
" clip-path="url(#p423744c2ab)" style="fill: none; stroke: #999999; stroke-opacity: 0.8; stroke-width: 0.3; stroke-linecap: square"/>
   </g>
   <g id="line2d_26">
    <path d="M 44.29625 24.173615 
L 57.79625 54.624933 
" clip-path="url(#p423744c2ab)" style="fill: none; stroke: #999999; stroke-opacity: 0.8; stroke-width: 0.3; stroke-linecap: square"/>
   </g>
   <g id="line2d_27">
    <path d="M 44.29625 44.837009 
L 57.79625 35.049086 
" clip-path="url(#p423744c2ab)" style="fill: none; stroke: #999999; stroke-opacity: 0.8; stroke-width: 0.3; stroke-linecap: square"/>
   </g>
   <g id="line2d_28">
    <path d="M 44.29625 19.823427 
L 57.79625 27.436256 
" clip-path="url(#p423744c2ab)" style="fill: none; stroke: #999999; stroke-opacity: 0.8; stroke-width: 0.3; stroke-linecap: square"/>
   </g>
   <g id="line2d_29">
    <path d="M 44.29625 47.374619 
L 57.79625 46.074563 
" clip-path="url(#p423744c2ab)" style="fill: none; stroke: #999999; stroke-opacity: 0.8; stroke-width: 0.3; stroke-linecap: square"/>
   </g>
   <g id="line2d_30">
    <path d="M 44.29625 33.961539 
L 57.79625 43.749462 
" clip-path="url(#p423744c2ab)" style="fill: none; stroke: #999999; stroke-opacity: 0.8; stroke-width: 0.3; stroke-linecap: square"/>
   </g>
   <g id="line2d_31">
    <path d="M 44.29625 25.261162 
L 57.79625 25.261162 
" clip-path="url(#p423744c2ab)" style="fill: none; stroke: #999999; stroke-opacity: 0.8; stroke-width: 0.3; stroke-linecap: square"/>
   </g>
   <g id="line2d_32">
    <path d="M 44.29625 32.873992 
L 57.79625 36.136633 
" clip-path="url(#p423744c2ab)" style="fill: none; stroke: #999999; stroke-opacity: 0.8; stroke-width: 0.3; stroke-linecap: square"/>
   </g>
   <g id="line2d_33">
    <path d="M 44.29625 40.486821 
L 57.79625 45.924556 
" clip-path="url(#p423744c2ab)" style="fill: none; stroke: #999999; stroke-opacity: 0.8; stroke-width: 0.3; stroke-linecap: square"/>
   </g>
   <g id="line2d_34">
    <path d="M 44.29625 23.086068 
L 57.79625 24.173615 
" clip-path="url(#p423744c2ab)" style="fill: none; stroke: #999999; stroke-opacity: 0.8; stroke-width: 0.3; stroke-linecap: square"/>
   </g>
   <g id="line2d_35">
    <path d="M 44.29625 35.705066 
L 57.79625 63.413014 
" clip-path="url(#p423744c2ab)" style="fill: none; stroke: #999999; stroke-opacity: 0.8; stroke-width: 0.3; stroke-linecap: square"/>
   </g>
   <g id="line2d_36">
    <path d="M 44.29625 41.574368 
L 57.79625 35.049086 
" clip-path="url(#p423744c2ab)" style="fill: none; stroke: #999999; stroke-opacity: 0.8; stroke-width: 0.3; stroke-linecap: square"/>
   </g>
   <g id="line2d_37">
    <path d="M 44.29625 37.22418 
L 57.79625 33.961539 
" clip-path="url(#p423744c2ab)" style="fill: none; stroke: #999999; stroke-opacity: 0.8; stroke-width: 0.3; stroke-linecap: square"/>
   </g>
   <g id="line2d_38">
    <path d="M 44.29625 22.632924 
L 57.79625 25.974308 
" clip-path="url(#p423744c2ab)" style="fill: none; stroke: #999999; stroke-opacity: 0.8; stroke-width: 0.3; stroke-linecap: square"/>
   </g>
   <g id="line2d_39">
    <path d="M 44.29625 19.823427 
L 57.79625 18.73588 
" clip-path="url(#p423744c2ab)" style="fill: none; stroke: #999999; stroke-opacity: 0.8; stroke-width: 0.3; stroke-linecap: square"/>
   </g>
   <g id="line2d_40">
    <path d="M 44.29625 31.786445 
L 57.79625 50.274744 
" clip-path="url(#p423744c2ab)" style="fill: none; stroke: #999999; stroke-opacity: 0.8; stroke-width: 0.3; stroke-linecap: square"/>
   </g>
   <g id="line2d_41">
    <path d="M 44.29625 44.837009 
L 57.79625 31.786445 
" clip-path="url(#p423744c2ab)" style="fill: none; stroke: #999999; stroke-opacity: 0.8; stroke-width: 0.3; stroke-linecap: square"/>
   </g>
   <g id="line2d_42">
    <path d="M 44.29625 17.648333 
L 57.79625 15.473239 
" clip-path="url(#p423744c2ab)" style="fill: none; stroke: #999999; stroke-opacity: 0.8; stroke-width: 0.3; stroke-linecap: square"/>
   </g>
   <g id="line2d_43">
    <path d="M 44.29625 26.348709 
L 57.79625 36.136633 
" clip-path="url(#p423744c2ab)" style="fill: none; stroke: #999999; stroke-opacity: 0.8; stroke-width: 0.3; stroke-linecap: square"/>
   </g>
   <g id="line2d_44">
    <path d="M 44.29625 28.523803 
L 57.79625 19.823427 
" clip-path="url(#p423744c2ab)" style="fill: none; stroke: #999999; stroke-opacity: 0.8; stroke-width: 0.3; stroke-linecap: square"/>
   </g>
   <g id="line2d_45">
    <path d="M 44.29625 48.09965 
L 57.79625 33.961539 
" clip-path="url(#p423744c2ab)" style="fill: none; stroke: #999999; stroke-opacity: 0.8; stroke-width: 0.3; stroke-linecap: square"/>
   </g>
   <g id="line2d_46">
    <path d="M 44.29625 33.961539 
L 57.79625 31.786445 
" clip-path="url(#p423744c2ab)" style="fill: none; stroke: #999999; stroke-opacity: 0.8; stroke-width: 0.3; stroke-linecap: square"/>
   </g>
   <g id="line2d_47">
    <path d="M 44.29625 28.523803 
L 57.79625 32.873992 
" clip-path="url(#p423744c2ab)" style="fill: none; stroke: #999999; stroke-opacity: 0.8; stroke-width: 0.3; stroke-linecap: square"/>
   </g>
   <g id="line2d_48">
    <path d="M 44.29625 38.311727 
L 57.79625 36.136633 
" clip-path="url(#p423744c2ab)" style="fill: none; stroke: #999999; stroke-opacity: 0.8; stroke-width: 0.3; stroke-linecap: square"/>
   </g>
   <g id="line2d_49">
    <path d="M 44.29625 33.961539 
L 57.79625 38.311727 
" clip-path="url(#p423744c2ab)" style="fill: none; stroke: #999999; stroke-opacity: 0.8; stroke-width: 0.3; stroke-linecap: square"/>
   </g>
   <g id="line2d_50">
    <path d="M 44.29625 30.698897 
L 57.79625 39.399274 
" clip-path="url(#p423744c2ab)" style="fill: none; stroke: #999999; stroke-opacity: 0.8; stroke-width: 0.3; stroke-linecap: square"/>
   </g>
   <g id="line2d_51">
    <path d="M 44.29625 31.786445 
L 57.79625 39.399274 
" clip-path="url(#p423744c2ab)" style="fill: none; stroke: #999999; stroke-opacity: 0.8; stroke-width: 0.3; stroke-linecap: square"/>
   </g>
   <g id="line2d_52">
    <path d="M 44.29625 27.436256 
L 57.79625 48.09965 
" clip-path="url(#p423744c2ab)" style="fill: none; stroke: #999999; stroke-opacity: 0.8; stroke-width: 0.3; stroke-linecap: square"/>
   </g>
   <g id="line2d_53">
    <path d="M 44.29625 29.61135 
L 57.79625 48.09965 
" clip-path="url(#p423744c2ab)" style="fill: none; stroke: #999999; stroke-opacity: 0.8; stroke-width: 0.3; stroke-linecap: square"/>
   </g>
   <g id="line2d_54">
    <path d="M 44.29625 36.136633 
L 57.79625 35.049086 
" clip-path="url(#p423744c2ab)" style="fill: none; stroke: #999999; stroke-opacity: 0.8; stroke-width: 0.3; stroke-linecap: square"/>
   </g>
   <g id="line2d_55">
    <path d="M 44.29625 21.998521 
L 57.79625 53.537386 
" clip-path="url(#p423744c2ab)" style="fill: none; stroke: #999999; stroke-opacity: 0.8; stroke-width: 0.3; stroke-linecap: square"/>
   </g>
   <g id="line2d_56">
    <path d="M 44.29625 19.823427 
L 57.79625 19.823427 
" clip-path="url(#p423744c2ab)" style="fill: none; stroke: #999999; stroke-opacity: 0.8; stroke-width: 0.3; stroke-linecap: square"/>
   </g>
   <g id="line2d_57">
    <path d="M 44.29625 38.311727 
L 57.79625 19.823427 
" clip-path="url(#p423744c2ab)" style="fill: none; stroke: #999999; stroke-opacity: 0.8; stroke-width: 0.3; stroke-linecap: square"/>
   </g>
   <g id="line2d_58">
    <path d="M 44.29625 26.348709 
L 57.79625 33.961539 
" clip-path="url(#p423744c2ab)" style="fill: none; stroke: #999999; stroke-opacity: 0.8; stroke-width: 0.3; stroke-linecap: square"/>
   </g>
   <g id="patch_9">
    <path d="M 24.04625 85.07625 
L 24.04625 13.07625 
" style="fill: none; stroke: #000000; stroke-width: 0.5; stroke-linejoin: miter; stroke-linecap: square"/>
   </g>
   <g id="patch_10">
    <path d="M 24.04625 85.07625 
L 78.04625 85.07625 
" style="fill: none; stroke: #000000; stroke-width: 0.5; stroke-linejoin: miter; stroke-linecap: square"/>
   </g>
   <g id="PathCollection_1">
    <defs>
     <path id="m4c857fa319" d="M 0 1.936492 
C 0.513564 1.936492 1.006162 1.732451 1.369306 1.369306 
C 1.732451 1.006162 1.936492 0.513564 1.936492 0 
C 1.936492 -0.513564 1.732451 -1.006162 1.369306 -1.369306 
C 1.006162 -1.732451 0.513564 -1.936492 0 -1.936492 
C -0.513564 -1.936492 -1.006162 -1.732451 -1.369306 -1.369306 
C -1.732451 -1.006162 -1.936492 -0.513564 -1.936492 0 
C -1.936492 0.513564 -1.732451 1.006162 -1.369306 1.369306 
C -1.006162 1.732451 -0.513564 1.936492 0 1.936492 
z
"/>
    </defs>
    <g clip-path="url(#p423744c2ab)">
     <use xlink:href="#m4c857fa319" x="44.29625" y="19.823427" style="fill: #228b22; fill-opacity: 0.2"/>
     <use xlink:href="#m4c857fa319" x="44.29625" y="37.22418" style="fill: #228b22; fill-opacity: 0.2"/>
     <use xlink:href="#m4c857fa319" x="44.29625" y="32.873992" style="fill: #228b22; fill-opacity: 0.2"/>
     <use xlink:href="#m4c857fa319" x="44.29625" y="33.961539" style="fill: #228b22; fill-opacity: 0.2"/>
     <use xlink:href="#m4c857fa319" x="44.29625" y="24.173615" style="fill: #228b22; fill-opacity: 0.2"/>
     <use xlink:href="#m4c857fa319" x="44.29625" y="42.661915" style="fill: #228b22; fill-opacity: 0.2"/>
     <use xlink:href="#m4c857fa319" x="44.29625" y="47.012103" style="fill: #228b22; fill-opacity: 0.2"/>
     <use xlink:href="#m4c857fa319" x="44.29625" y="36.136633" style="fill: #228b22; fill-opacity: 0.2"/>
     <use xlink:href="#m4c857fa319" x="44.29625" y="35.049086" style="fill: #228b22; fill-opacity: 0.2"/>
     <use xlink:href="#m4c857fa319" x="44.29625" y="45.924556" style="fill: #228b22; fill-opacity: 0.2"/>
     <use xlink:href="#m4c857fa319" x="44.29625" y="27.436256" style="fill: #228b22; fill-opacity: 0.2"/>
     <use xlink:href="#m4c857fa319" x="44.29625" y="42.661915" style="fill: #228b22; fill-opacity: 0.2"/>
     <use xlink:href="#m4c857fa319" x="44.29625" y="31.786445" style="fill: #228b22; fill-opacity: 0.2"/>
     <use xlink:href="#m4c857fa319" x="44.29625" y="42.661915" style="fill: #228b22; fill-opacity: 0.2"/>
     <use xlink:href="#m4c857fa319" x="44.29625" y="23.086068" style="fill: #228b22; fill-opacity: 0.2"/>
     <use xlink:href="#m4c857fa319" x="44.29625" y="24.173615" style="fill: #228b22; fill-opacity: 0.2"/>
     <use xlink:href="#m4c857fa319" x="44.29625" y="30.698897" style="fill: #228b22; fill-opacity: 0.2"/>
     <use xlink:href="#m4c857fa319" x="44.29625" y="24.173615" style="fill: #228b22; fill-opacity: 0.2"/>
     <use xlink:href="#m4c857fa319" x="44.29625" y="44.837009" style="fill: #228b22; fill-opacity: 0.2"/>
     <use xlink:href="#m4c857fa319" x="44.29625" y="19.823427" style="fill: #228b22; fill-opacity: 0.2"/>
     <use xlink:href="#m4c857fa319" x="44.29625" y="47.374619" style="fill: #228b22; fill-opacity: 0.2"/>
     <use xlink:href="#m4c857fa319" x="44.29625" y="33.961539" style="fill: #228b22; fill-opacity: 0.2"/>
     <use xlink:href="#m4c857fa319" x="44.29625" y="25.261162" style="fill: #228b22; fill-opacity: 0.2"/>
     <use xlink:href="#m4c857fa319" x="44.29625" y="32.873992" style="fill: #228b22; fill-opacity: 0.2"/>
     <use xlink:href="#m4c857fa319" x="44.29625" y="40.486821" style="fill: #228b22; fill-opacity: 0.2"/>
     <use xlink:href="#m4c857fa319" x="44.29625" y="23.086068" style="fill: #228b22; fill-opacity: 0.2"/>
     <use xlink:href="#m4c857fa319" x="44.29625" y="35.705066" style="fill: #228b22; fill-opacity: 0.2"/>
     <use xlink:href="#m4c857fa319" x="44.29625" y="41.574368" style="fill: #228b22; fill-opacity: 0.2"/>
     <use xlink:href="#m4c857fa319" x="44.29625" y="37.22418" style="fill: #228b22; fill-opacity: 0.2"/>
     <use xlink:href="#m4c857fa319" x="44.29625" y="22.632924" style="fill: #228b22; fill-opacity: 0.2"/>
     <use xlink:href="#m4c857fa319" x="44.29625" y="19.823427" style="fill: #228b22; fill-opacity: 0.2"/>
     <use xlink:href="#m4c857fa319" x="44.29625" y="31.786445" style="fill: #228b22; fill-opacity: 0.2"/>
     <use xlink:href="#m4c857fa319" x="44.29625" y="44.837009" style="fill: #228b22; fill-opacity: 0.2"/>
     <use xlink:href="#m4c857fa319" x="44.29625" y="17.648333" style="fill: #228b22; fill-opacity: 0.2"/>
     <use xlink:href="#m4c857fa319" x="44.29625" y="26.348709" style="fill: #228b22; fill-opacity: 0.2"/>
     <use xlink:href="#m4c857fa319" x="44.29625" y="28.523803" style="fill: #228b22; fill-opacity: 0.2"/>
     <use xlink:href="#m4c857fa319" x="44.29625" y="48.09965" style="fill: #228b22; fill-opacity: 0.2"/>
     <use xlink:href="#m4c857fa319" x="44.29625" y="33.961539" style="fill: #228b22; fill-opacity: 0.2"/>
     <use xlink:href="#m4c857fa319" x="44.29625" y="28.523803" style="fill: #228b22; fill-opacity: 0.2"/>
     <use xlink:href="#m4c857fa319" x="44.29625" y="38.311727" style="fill: #228b22; fill-opacity: 0.2"/>
     <use xlink:href="#m4c857fa319" x="44.29625" y="33.961539" style="fill: #228b22; fill-opacity: 0.2"/>
     <use xlink:href="#m4c857fa319" x="44.29625" y="30.698897" style="fill: #228b22; fill-opacity: 0.2"/>
     <use xlink:href="#m4c857fa319" x="44.29625" y="31.786445" style="fill: #228b22; fill-opacity: 0.2"/>
     <use xlink:href="#m4c857fa319" x="44.29625" y="27.436256" style="fill: #228b22; fill-opacity: 0.2"/>
     <use xlink:href="#m4c857fa319" x="44.29625" y="29.61135" style="fill: #228b22; fill-opacity: 0.2"/>
     <use xlink:href="#m4c857fa319" x="44.29625" y="36.136633" style="fill: #228b22; fill-opacity: 0.2"/>
     <use xlink:href="#m4c857fa319" x="44.29625" y="21.998521" style="fill: #228b22; fill-opacity: 0.2"/>
     <use xlink:href="#m4c857fa319" x="44.29625" y="19.823427" style="fill: #228b22; fill-opacity: 0.2"/>
     <use xlink:href="#m4c857fa319" x="44.29625" y="38.311727" style="fill: #228b22; fill-opacity: 0.2"/>
     <use xlink:href="#m4c857fa319" x="44.29625" y="26.348709" style="fill: #228b22; fill-opacity: 0.2"/>
    </g>
   </g>
   <g id="PathCollection_2">
    <defs>
     <path id="md4369b382e" d="M 0 1.936492 
C 0.513564 1.936492 1.006162 1.732451 1.369306 1.369306 
C 1.732451 1.006162 1.936492 0.513564 1.936492 0 
C 1.936492 -0.513564 1.732451 -1.006162 1.369306 -1.369306 
C 1.006162 -1.732451 0.513564 -1.936492 0 -1.936492 
C -0.513564 -1.936492 -1.006162 -1.732451 -1.369306 -1.369306 
C -1.732451 -1.006162 -1.936492 -0.513564 -1.936492 0 
C -1.936492 0.513564 -1.732451 1.006162 -1.369306 1.369306 
C -1.006162 1.732451 -0.513564 1.936492 0 1.936492 
z
"/>
    </defs>
    <g clip-path="url(#p423744c2ab)">
     <use xlink:href="#md4369b382e" x="57.79625" y="26.348709" style="fill: #cd5c5c; fill-opacity: 0.2"/>
     <use xlink:href="#md4369b382e" x="57.79625" y="35.049086" style="fill: #cd5c5c; fill-opacity: 0.2"/>
     <use xlink:href="#md4369b382e" x="57.79625" y="39.399274" style="fill: #cd5c5c; fill-opacity: 0.2"/>
     <use xlink:href="#md4369b382e" x="57.79625" y="25.261162" style="fill: #cd5c5c; fill-opacity: 0.2"/>
     <use xlink:href="#md4369b382e" x="57.79625" y="50.274744" style="fill: #cd5c5c; fill-opacity: 0.2"/>
     <use xlink:href="#md4369b382e" x="57.79625" y="20.910974" style="fill: #cd5c5c; fill-opacity: 0.2"/>
     <use xlink:href="#md4369b382e" x="57.79625" y="43.749462" style="fill: #cd5c5c; fill-opacity: 0.2"/>
     <use xlink:href="#md4369b382e" x="57.79625" y="40.486821" style="fill: #cd5c5c; fill-opacity: 0.2"/>
     <use xlink:href="#md4369b382e" x="57.79625" y="48.09965" style="fill: #cd5c5c; fill-opacity: 0.2"/>
     <use xlink:href="#md4369b382e" x="57.79625" y="26.348709" style="fill: #cd5c5c; fill-opacity: 0.2"/>
     <use xlink:href="#md4369b382e" x="57.79625" y="41.574368" style="fill: #cd5c5c; fill-opacity: 0.2"/>
     <use xlink:href="#md4369b382e" x="57.79625" y="32.873992" style="fill: #cd5c5c; fill-opacity: 0.2"/>
     <use xlink:href="#md4369b382e" x="57.79625" y="39.399274" style="fill: #cd5c5c; fill-opacity: 0.2"/>
     <use xlink:href="#md4369b382e" x="57.79625" y="36.136633" style="fill: #cd5c5c; fill-opacity: 0.2"/>
     <use xlink:href="#md4369b382e" x="57.79625" y="21.998521" style="fill: #cd5c5c; fill-opacity: 0.2"/>
     <use xlink:href="#md4369b382e" x="57.79625" y="42.661915" style="fill: #cd5c5c; fill-opacity: 0.2"/>
     <use xlink:href="#md4369b382e" x="57.79625" y="29.61135" style="fill: #cd5c5c; fill-opacity: 0.2"/>
     <use xlink:href="#md4369b382e" x="57.79625" y="54.624933" style="fill: #cd5c5c; fill-opacity: 0.2"/>
     <use xlink:href="#md4369b382e" x="57.79625" y="35.049086" style="fill: #cd5c5c; fill-opacity: 0.2"/>
     <use xlink:href="#md4369b382e" x="57.79625" y="27.436256" style="fill: #cd5c5c; fill-opacity: 0.2"/>
     <use xlink:href="#md4369b382e" x="57.79625" y="46.074563" style="fill: #cd5c5c; fill-opacity: 0.2"/>
     <use xlink:href="#md4369b382e" x="57.79625" y="43.749462" style="fill: #cd5c5c; fill-opacity: 0.2"/>
     <use xlink:href="#md4369b382e" x="57.79625" y="25.261162" style="fill: #cd5c5c; fill-opacity: 0.2"/>
     <use xlink:href="#md4369b382e" x="57.79625" y="36.136633" style="fill: #cd5c5c; fill-opacity: 0.2"/>
     <use xlink:href="#md4369b382e" x="57.79625" y="45.924556" style="fill: #cd5c5c; fill-opacity: 0.2"/>
     <use xlink:href="#md4369b382e" x="57.79625" y="24.173615" style="fill: #cd5c5c; fill-opacity: 0.2"/>
     <use xlink:href="#md4369b382e" x="57.79625" y="63.413014" style="fill: #cd5c5c; fill-opacity: 0.2"/>
     <use xlink:href="#md4369b382e" x="57.79625" y="35.049086" style="fill: #cd5c5c; fill-opacity: 0.2"/>
     <use xlink:href="#md4369b382e" x="57.79625" y="33.961539" style="fill: #cd5c5c; fill-opacity: 0.2"/>
     <use xlink:href="#md4369b382e" x="57.79625" y="25.974308" style="fill: #cd5c5c; fill-opacity: 0.2"/>
     <use xlink:href="#md4369b382e" x="57.79625" y="18.73588" style="fill: #cd5c5c; fill-opacity: 0.2"/>
     <use xlink:href="#md4369b382e" x="57.79625" y="50.274744" style="fill: #cd5c5c; fill-opacity: 0.2"/>
     <use xlink:href="#md4369b382e" x="57.79625" y="31.786445" style="fill: #cd5c5c; fill-opacity: 0.2"/>
     <use xlink:href="#md4369b382e" x="57.79625" y="15.473239" style="fill: #cd5c5c; fill-opacity: 0.2"/>
     <use xlink:href="#md4369b382e" x="57.79625" y="36.136633" style="fill: #cd5c5c; fill-opacity: 0.2"/>
     <use xlink:href="#md4369b382e" x="57.79625" y="19.823427" style="fill: #cd5c5c; fill-opacity: 0.2"/>
     <use xlink:href="#md4369b382e" x="57.79625" y="33.961539" style="fill: #cd5c5c; fill-opacity: 0.2"/>
     <use xlink:href="#md4369b382e" x="57.79625" y="31.786445" style="fill: #cd5c5c; fill-opacity: 0.2"/>
     <use xlink:href="#md4369b382e" x="57.79625" y="32.873992" style="fill: #cd5c5c; fill-opacity: 0.2"/>
     <use xlink:href="#md4369b382e" x="57.79625" y="36.136633" style="fill: #cd5c5c; fill-opacity: 0.2"/>
     <use xlink:href="#md4369b382e" x="57.79625" y="38.311727" style="fill: #cd5c5c; fill-opacity: 0.2"/>
     <use xlink:href="#md4369b382e" x="57.79625" y="39.399274" style="fill: #cd5c5c; fill-opacity: 0.2"/>
     <use xlink:href="#md4369b382e" x="57.79625" y="39.399274" style="fill: #cd5c5c; fill-opacity: 0.2"/>
     <use xlink:href="#md4369b382e" x="57.79625" y="48.09965" style="fill: #cd5c5c; fill-opacity: 0.2"/>
     <use xlink:href="#md4369b382e" x="57.79625" y="48.09965" style="fill: #cd5c5c; fill-opacity: 0.2"/>
     <use xlink:href="#md4369b382e" x="57.79625" y="35.049086" style="fill: #cd5c5c; fill-opacity: 0.2"/>
     <use xlink:href="#md4369b382e" x="57.79625" y="53.537386" style="fill: #cd5c5c; fill-opacity: 0.2"/>
     <use xlink:href="#md4369b382e" x="57.79625" y="19.823427" style="fill: #cd5c5c; fill-opacity: 0.2"/>
     <use xlink:href="#md4369b382e" x="57.79625" y="19.823427" style="fill: #cd5c5c; fill-opacity: 0.2"/>
     <use xlink:href="#md4369b382e" x="57.79625" y="33.961539" style="fill: #cd5c5c; fill-opacity: 0.2"/>
    </g>
   </g>
   <g id="line2d_59">
    <path d="M 40.92125 32.406778 
L 29.67125 32.406778 
" clip-path="url(#p423744c2ab)" style="fill: none; stroke: #000000; stroke-width: 0.85; stroke-linecap: square"/>
   </g>
   <g id="line2d_60">
    <path d="M 61.17125 35.590125 
L 72.42125 35.590125 
" clip-path="url(#p423744c2ab)" style="fill: none; stroke: #000000; stroke-width: 0.85; stroke-linecap: square"/>
   </g>
   <g id="LineCollection_1">
    <path d="M 35.29625 33.595692 
L 35.29625 31.217864 
" clip-path="url(#p423744c2ab)" style="fill: none; stroke: #000000; stroke-width: 0.85"/>
   </g>
   <g id="line2d_61">
    <defs>
     <path id="m31c3ccccae" d="M 4 0 
L -4 -0 
" style="stroke: #000000; stroke-width: 0.85"/>
    </defs>
    <g clip-path="url(#p423744c2ab)">
     <use xlink:href="#m31c3ccccae" x="35.29625" y="33.595692" style="stroke: #000000; stroke-width: 0.85"/>
    </g>
   </g>
   <g id="line2d_62">
    <g clip-path="url(#p423744c2ab)">
     <use xlink:href="#m31c3ccccae" x="35.29625" y="31.217864" style="stroke: #000000; stroke-width: 0.85"/>
    </g>
   </g>
   <g id="LineCollection_2">
    <path d="M 66.79625 37.086019 
L 66.79625 34.094232 
" clip-path="url(#p423744c2ab)" style="fill: none; stroke: #000000; stroke-width: 0.85"/>
   </g>
   <g id="line2d_63">
    <g clip-path="url(#p423744c2ab)">
     <use xlink:href="#m31c3ccccae" x="66.79625" y="37.086019" style="stroke: #000000; stroke-width: 0.85"/>
    </g>
   </g>
   <g id="line2d_64">
    <g clip-path="url(#p423744c2ab)">
     <use xlink:href="#m31c3ccccae" x="66.79625" y="34.094232" style="stroke: #000000; stroke-width: 0.85"/>
    </g>
   </g>
   <g id="line2d_65">
    <path d="M 40.92125 11.63625 
L 61.17125 11.63625 
" style="fill: none; stroke: #000000; stroke-width: 0.5; stroke-linecap: square"/>
   </g>
   <g id="text_8">
    <text style="font-size: 8px; font-family: 'Arial'; text-anchor: middle" x="51.04625" y="12.92625" transform="rotate(-0 51.04625 12.92625)">ns</text>
   </g>
  </g>
 </g>
 <defs>
  <clipPath id="p423744c2ab">
   <rect x="24.04625" y="13.07625" width="54" height="72"/>
  </clipPath>
 </defs>
</svg>
