<?xml version="1.0" encoding="utf-8" standalone="no"?>
<!DOCTYPE svg PUBLIC "-//W3C//DTD SVG 1.1//EN"
  "http://www.w3.org/Graphics/SVG/1.1/DTD/svg11.dtd">
<svg xmlns:xlink="http://www.w3.org/1999/xlink" width="85.24625pt" height="106.844375pt" viewBox="0 0 85.24625 106.844375" xmlns="http://www.w3.org/2000/svg" version="1.1">
 <metadata>
  <rdf:RDF xmlns:dc="http://purl.org/dc/elements/1.1/" xmlns:cc="http://creativecommons.org/ns#" xmlns:rdf="http://www.w3.org/1999/02/22-rdf-syntax-ns#">
   <cc:Work>
    <dc:type rdf:resource="http://purl.org/dc/dcmitype/StillImage"/>
    <dc:date>2026-04-02T15:51:16.297749</dc:date>
    <dc:format>image/svg+xml</dc:format>
    <dc:creator>
     <cc:Agent>
      <dc:title>Matplotlib v3.10.8, https://matplotlib.org/</dc:title>
     </cc:Agent>
    </dc:creator>
   </cc:Work>
  </rdf:RDF>
 </metadata>
 <defs>
  <style type="text/css">*{stroke-linejoin: round; stroke-linecap: butt}</style>
 </defs>
 <g id="figure_1">
  <g id="patch_1">
   <path d="M 0 106.844375 
L 85.24625 106.844375 
L 85.24625 0 
L 0 0 
z
" style="fill: #ffffff"/>
  </g>
  <g id="axes_1">
   <g id="patch_2">
    <path d="M 24.04625 88.734375 
L 78.04625 88.734375 
L 78.04625 16.734375 
L 24.04625 16.734375 
z
" style="fill: #ffffff"/>
   </g>
   <g id="line2d_1">
    <path d="M 24.04625 54.191646 
L 78.04625 54.191646 
" clip-path="url(#p70dc5c0673)" style="fill: none; stroke-dasharray: 2.516,1.088; stroke-dashoffset: 0; stroke: #808080; stroke-opacity: 0.5; stroke-width: 0.68"/>
   </g>
   <g id="patch_3">
    <path d="M 40.92125 77.939772 
L 39.394929 77.939772 
L 39.362678 77.646853 
L 39.331607 77.353935 
L 39.301769 77.061016 
L 39.273202 76.768097 
L 39.245937 76.475178 
L 39.219993 76.182259 
L 39.195375 75.88934 
L 39.172077 75.596421 
L 39.150081 75.303502 
L 39.129351 75.010584 
L 39.109843 74.717665 
L 39.091496 74.424746 
L 39.074233 74.131827 
L 39.057968 73.838908 
L 39.042596 73.545989 
L 39.028001 73.25307 
L 39.014053 72.960152 
L 39.00061 72.667233 
L 38.987516 72.374314 
L 38.974605 72.081395 
L 38.961699 71.788476 
L 38.948609 71.495557 
L 38.93514 71.202638 
L 38.921086 70.909719 
L 38.906237 70.616801 
L 38.890375 70.323882 
L 38.873278 70.030963 
L 38.854722 69.738044 
L 38.834481 69.445125 
L 38.812328 69.152206 
L 38.788039 68.859287 
L 38.761391 68.566369 
L 38.732165 68.27345 
L 38.700149 67.980531 
L 38.665135 67.687612 
L 38.626927 67.394693 
L 38.585335 67.101774 
L 38.540183 66.808855 
L 38.491304 66.515936 
L 38.438547 66.223018 
L 38.381772 65.930099 
L 38.320857 65.63718 
L 38.255695 65.344261 
L 38.186196 65.051342 
L 38.112286 64.758423 
L 38.033911 64.465504 
L 37.951033 64.172586 
L 37.863637 63.879667 
L 37.771722 63.586748 
L 37.67531 63.293829 
L 37.57444 63.00091 
L 37.46917 62.707991 
L 37.359578 62.415072 
L 37.24576 62.122153 
L 37.127829 61.829235 
L 37.005917 61.536316 
L 36.880172 61.243397 
L 36.750758 60.950478 
L 36.617854 60.657559 
L 36.481655 60.36464 
L 36.342368 60.071721 
L 36.200212 59.778803 
L 36.055419 59.485884 
L 35.90823 59.192965 
L 35.758896 58.900046 
L 35.607673 58.607127 
L 35.454827 58.314208 
L 35.300626 58.021289 
L 35.145343 57.72837 
L 34.989253 57.435452 
L 34.832633 57.142533 
L 34.675758 56.849614 
L 34.518902 56.556695 
L 34.362335 56.263776 
L 34.206324 55.970857 
L 34.051128 55.677938 
L 33.896999 55.38502 
L 33.744184 55.092101 
L 33.592917 54.799182 
L 33.443423 54.506263 
L 33.295914 54.213344 
L 33.150592 53.920425 
L 33.007644 53.627506 
L 32.867242 53.334587 
L 32.729547 53.041669 
L 32.594702 52.74875 
L 32.462835 52.455831 
L 32.33406 52.162912 
L 32.208474 51.869993 
L 32.086159 51.577074 
L 31.967182 51.284155 
L 31.851594 50.991237 
L 31.739433 50.698318 
L 31.630722 50.405399 
L 31.52547 50.11248 
L 31.423676 49.819561 
L 31.325327 49.526642 
L 31.230398 49.233723 
L 31.138857 48.940804 
L 31.050663 48.647886 
L 30.965768 48.354967 
L 30.884119 48.062048 
L 30.805661 47.769129 
L 30.730331 47.47621 
L 30.658071 47.183291 
L 30.588818 46.890372 
L 30.522511 46.597454 
L 30.459092 46.304535 
L 30.398506 46.011616 
L 30.340701 45.718697 
L 30.28563 45.425778 
L 30.233251 45.132859 
L 30.183529 44.83994 
L 30.136433 44.547021 
L 30.09194 44.254103 
L 30.05003 43.961184 
L 30.010693 43.668265 
L 29.97392 43.375346 
L 29.939709 43.082427 
L 29.908061 42.789508 
L 29.87898 42.496589 
L 29.85247 42.203671 
L 29.828539 41.910752 
L 29.80719 41.617833 
L 29.788426 41.324914 
L 29.772245 41.031995 
L 29.75864 40.739076 
L 29.747597 40.446157 
L 29.739093 40.153238 
L 29.733096 39.86032 
L 29.729559 39.567401 
L 29.728427 39.274482 
L 29.729628 38.981563 
L 29.733077 38.688644 
L 29.73867 38.395725 
L 29.746291 38.102806 
L 29.755804 37.809887 
L 29.767059 37.516969 
L 29.779888 37.22405 
L 29.794107 36.931131 
L 29.809518 36.638212 
L 29.825908 36.345293 
L 29.843053 36.052374 
L 29.860715 35.759455 
L 29.878651 35.466537 
L 29.896608 35.173618 
L 29.914331 34.880699 
L 29.931562 34.58778 
L 29.948045 34.294861 
L 29.963529 34.001942 
L 29.977769 33.709023 
L 29.990533 33.416104 
L 30.0016 33.123186 
L 30.01077 32.830267 
L 30.01786 32.537348 
L 30.022714 32.244429 
L 30.025202 31.95151 
L 30.025222 31.658591 
L 30.022707 31.365672 
L 30.017623 31.072754 
L 30.009973 30.779835 
L 29.999802 30.486916 
L 29.987189 30.193997 
L 29.972261 29.901078 
L 29.955182 29.608159 
L 29.936159 29.31524 
L 29.915442 29.022321 
L 29.893322 28.729403 
L 29.870128 28.436484 
L 29.846228 28.143565 
L 29.822026 27.850646 
L 29.797962 27.557727 
L 29.774502 27.264808 
L 29.752142 26.971889 
L 29.7314 26.678971 
L 29.712817 26.386052 
L 29.696944 26.093133 
L 29.684345 25.800214 
L 29.67559 25.507295 
L 29.67125 25.214376 
L 29.671889 24.921457 
L 29.678065 24.628538 
L 29.690319 24.33562 
L 29.709174 24.042701 
L 29.735126 23.749782 
L 29.768646 23.456863 
L 29.810167 23.163944 
L 29.860086 22.871025 
L 29.918758 22.578106 
L 29.986492 22.285188 
L 30.063548 21.992269 
L 30.150136 21.69935 
L 30.246411 21.406431 
L 30.352472 21.113512 
L 30.468362 20.820593 
L 30.594066 20.527674 
L 30.729511 20.234755 
L 30.874568 19.941837 
L 31.029048 19.648918 
L 40.92125 19.648918 
z
" clip-path="url(#p70dc5c0673)" style="fill: #20590b; opacity: 0.2"/>
   </g>
   <g id="patch_4">
    <path d="M 61.17125 77.939772 
L 63.527923 77.939772 
L 63.584764 77.646853 
L 63.639785 77.353935 
L 63.692884 77.061016 
L 63.743981 76.768097 
L 63.793013 76.475178 
L 63.839937 76.182259 
L 63.88473 75.88934 
L 63.927392 75.596421 
L 63.967946 75.303502 
L 64.006437 75.010584 
L 64.042934 74.717665 
L 64.07753 74.424746 
L 64.110342 74.131827 
L 64.141508 73.838908 
L 64.17119 73.545989 
L 64.199574 73.25307 
L 64.226863 72.960152 
L 64.253283 72.667233 
L 64.279078 72.374314 
L 64.304508 72.081395 
L 64.329848 71.788476 
L 64.355389 71.495557 
L 64.381429 71.202638 
L 64.408279 70.909719 
L 64.436254 70.616801 
L 64.465675 70.323882 
L 64.496864 70.030963 
L 64.53014 69.738044 
L 64.565823 69.445125 
L 64.604223 69.152206 
L 64.645643 68.859287 
L 64.690373 68.566369 
L 64.738692 68.27345 
L 64.790859 67.980531 
L 64.847117 67.687612 
L 64.907688 67.394693 
L 64.972767 67.101774 
L 65.042529 66.808855 
L 65.11712 66.515936 
L 65.196657 66.223018 
L 65.281228 65.930099 
L 65.370891 65.63718 
L 65.465671 65.344261 
L 65.565564 65.051342 
L 65.670529 64.758423 
L 65.780497 64.465504 
L 65.895365 64.172586 
L 66.014999 63.879667 
L 66.139232 63.586748 
L 66.267872 63.293829 
L 66.400695 63.00091 
L 66.537452 62.707991 
L 66.677868 62.415072 
L 66.821647 62.122153 
L 66.968471 61.829235 
L 67.118004 61.536316 
L 67.269897 61.243397 
L 67.423785 60.950478 
L 67.579296 60.657559 
L 67.736047 60.36464 
L 67.893656 60.071721 
L 68.051735 59.778803 
L 68.209902 59.485884 
L 68.367775 59.192965 
L 68.524984 58.900046 
L 68.681166 58.607127 
L 68.835969 58.314208 
L 68.98906 58.021289 
L 69.140119 57.72837 
L 69.288846 57.435452 
L 69.434961 57.142533 
L 69.578206 56.849614 
L 69.718344 56.556695 
L 69.855164 56.263776 
L 69.988477 55.970857 
L 70.11812 55.677938 
L 70.243952 55.38502 
L 70.365858 55.092101 
L 70.483747 54.799182 
L 70.597547 54.506263 
L 70.707213 54.213344 
L 70.812717 53.920425 
L 70.914052 53.627506 
L 71.011228 53.334587 
L 71.104273 53.041669 
L 71.193227 52.74875 
L 71.278146 52.455831 
L 71.359097 52.162912 
L 71.436154 51.869993 
L 71.509403 51.577074 
L 71.578935 51.284155 
L 71.644845 50.991237 
L 71.707234 50.698318 
L 71.766205 50.405399 
L 71.821861 50.11248 
L 71.874308 49.819561 
L 71.92365 49.526642 
L 71.969992 49.233723 
L 72.013435 48.940804 
L 72.054081 48.647886 
L 72.09203 48.354967 
L 72.127377 48.062048 
L 72.160219 47.769129 
L 72.190648 47.47621 
L 72.218756 47.183291 
L 72.244632 46.890372 
L 72.268365 46.597454 
L 72.290039 46.304535 
L 72.309741 46.011616 
L 72.327554 45.718697 
L 72.34356 45.425778 
L 72.357839 45.132859 
L 72.370469 44.83994 
L 72.381527 44.547021 
L 72.391086 44.254103 
L 72.399216 43.961184 
L 72.405982 43.668265 
L 72.411445 43.375346 
L 72.41566 43.082427 
L 72.418674 42.789508 
L 72.420527 42.496589 
L 72.42125 42.203671 
L 72.420862 41.910752 
L 72.419373 41.617833 
L 72.416779 41.324914 
L 72.413062 41.031995 
L 72.40819 40.739076 
L 72.402118 40.446157 
L 72.394782 40.153238 
L 72.386103 39.86032 
L 72.375986 39.567401 
L 72.36432 39.274482 
L 72.350977 38.981563 
L 72.335813 38.688644 
L 72.318671 38.395725 
L 72.299378 38.102806 
L 72.27775 37.809887 
L 72.253591 37.516969 
L 72.226697 37.22405 
L 72.196857 36.931131 
L 72.163853 36.638212 
L 72.127465 36.345293 
L 72.087475 36.052374 
L 72.043666 35.759455 
L 71.995826 35.466537 
L 71.94375 35.173618 
L 71.887246 34.880699 
L 71.826133 34.58778 
L 71.760247 34.294861 
L 71.689441 34.001942 
L 71.613588 33.709023 
L 71.532586 33.416104 
L 71.446354 33.123186 
L 71.354838 32.830267 
L 71.25801 32.537348 
L 71.155871 32.244429 
L 71.048449 31.95151 
L 70.935802 31.658591 
L 70.818015 31.365672 
L 70.695202 31.072754 
L 70.567503 30.779835 
L 70.435087 30.486916 
L 70.298146 30.193997 
L 70.156895 29.901078 
L 70.011571 29.608159 
L 69.862432 29.31524 
L 69.709752 29.022321 
L 69.553818 28.729403 
L 69.394932 28.436484 
L 69.233403 28.143565 
L 69.069551 27.850646 
L 68.903695 27.557727 
L 68.73616 27.264808 
L 68.567268 26.971889 
L 68.397338 26.678971 
L 68.226684 26.386052 
L 68.055612 26.093133 
L 67.884418 25.800214 
L 67.713385 25.507295 
L 67.542787 25.214376 
L 67.372878 24.921457 
L 67.203902 24.628538 
L 67.036083 24.33562 
L 66.869629 24.042701 
L 66.704731 23.749782 
L 66.541562 23.456863 
L 66.38028 23.163944 
L 66.221022 22.871025 
L 66.063912 22.578106 
L 65.909056 22.285188 
L 65.756546 21.992269 
L 65.60646 21.69935 
L 65.458862 21.406431 
L 65.313806 21.113512 
L 65.171332 20.820593 
L 65.031474 20.527674 
L 64.894255 20.234755 
L 64.759692 19.941837 
L 64.627797 19.648918 
L 61.17125 19.648918 
z
" clip-path="url(#p70dc5c0673)" style="fill: #9f3131; opacity: 0.2"/>
   </g>
   <g id="matplotlib.axis_1">
    <g id="xtick_1">
     <g id="line2d_2">
      <defs>
       <path id="m9d7c555181" d="M 0 0 
L 0 -4 
" style="stroke: #000000; stroke-width: 0.5"/>
      </defs>
      <g>
       <use xlink:href="#m9d7c555181" x="40.92125" y="88.734375" style="stroke: #000000; stroke-width: 0.5"/>
      </g>
     </g>
     <g id="text_1">
      <text style="font-size: 8px; font-family: 'Arial'; text-anchor: middle" x="40.92125" y="97.960625" transform="rotate(-0 40.92125 97.960625)">Positive</text>
     </g>
    </g>
    <g id="xtick_2">
     <g id="line2d_3">
      <g>
       <use xlink:href="#m9d7c555181" x="61.17125" y="88.734375" style="stroke: #000000; stroke-width: 0.5"/>
      </g>
     </g>
     <g id="text_2">
      <text style="font-size: 8px; font-family: 'Arial'; text-anchor: middle" x="61.17125" y="97.960625" transform="rotate(-0 61.17125 97.960625)">Negative</text>
     </g>
    </g>
   </g>
   <g id="matplotlib.axis_2">
    <g id="ytick_1">
     <g id="line2d_4">
      <defs>
       <path id="m415aac27e4" d="M 0 0 
L 4 0 
" style="stroke: #000000; stroke-width: 0.5"/>
      </defs>
      <g>
       <use xlink:href="#m415aac27e4" x="24.04625" y="88.734375" style="stroke: #000000; stroke-width: 0.5"/>
      </g>
     </g>
     <g id="text_3">
      <text style="font-size: 8px; font-family: 'Arial'; text-anchor: end" x="20.54625" y="91.5975" transform="rotate(-0 20.54625 91.5975)">0</text>
     </g>
    </g>
    <g id="ytick_2">
     <g id="line2d_5">
      <g>
       <use xlink:href="#m415aac27e4" x="24.04625" y="71.463011" style="stroke: #000000; stroke-width: 0.5"/>
      </g>
     </g>
     <g id="text_4">
      <text style="font-size: 8px; font-family: 'Arial'; text-anchor: end" x="20.54625" y="74.326136" transform="rotate(-0 20.54625 74.326136)">25</text>
     </g>
    </g>
    <g id="ytick_3">
     <g id="line2d_6">
      <g>
       <use xlink:href="#m415aac27e4" x="24.04625" y="54.191646" style="stroke: #000000; stroke-width: 0.5"/>
      </g>
     </g>
     <g id="text_5">
      <text style="font-size: 8px; font-family: 'Arial'; text-anchor: end" x="20.54625" y="57.054771" transform="rotate(-0 20.54625 57.054771)">50</text>
     </g>
    </g>
    <g id="ytick_4">
     <g id="line2d_7">
      <g>
       <use xlink:href="#m415aac27e4" x="24.04625" y="36.920282" style="stroke: #000000; stroke-width: 0.5"/>
      </g>
     </g>
     <g id="text_6">
      <text style="font-size: 8px; font-family: 'Arial'; text-anchor: end" x="20.54625" y="39.783407" transform="rotate(-0 20.54625 39.783407)">75</text>
     </g>
    </g>
    <g id="ytick_5">
     <g id="line2d_8">
      <g>
       <use xlink:href="#m415aac27e4" x="24.04625" y="19.648918" style="stroke: #000000; stroke-width: 0.5"/>
      </g>
     </g>
     <g id="text_7">
      <text style="font-size: 8px; font-family: 'Arial'; text-anchor: end" x="20.54625" y="22.512043" transform="rotate(-0 20.54625 22.512043)">100</text>
     </g>
    </g>
   </g>
   <g id="patch_5">
    <path d="M 40.92125 42.675356 
L 29.896728 42.675356 
L 29.892364 42.631402 
L 29.888 42.587449 
L 29.883636 42.543496 
L 29.879273 42.499542 
L 29.875269 42.455589 
L 29.871291 42.411635 
L 29.867313 42.367682 
L 29.863335 42.323729 
L 29.859358 42.279775 
L 29.85538 42.235822 
L 29.851506 42.191868 
L 29.847915 42.147915 
L 29.844324 42.103962 
L 29.840733 42.060008 
L 29.837142 42.016055 
L 29.833551 41.972101 
L 29.82996 41.928148 
L 29.826603 41.884194 
L 29.8234 41.840241 
L 29.820196 41.796288 
L 29.816993 41.752334 
L 29.813789 41.708381 
L 29.810586 41.664427 
L 29.807382 41.620474 
L 29.804543 41.576521 
L 29.801728 41.532567 
L 29.798912 41.488614 
L 29.796096 41.44466 
L 29.793281 41.400707 
L 29.790465 41.356753 
L 29.787757 41.3128 
L 29.785329 41.268847 
L 29.782901 41.224893 
L 29.780473 41.18094 
L 29.778045 41.136986 
L 29.775617 41.093033 
L 29.773189 41.04908 
L 29.770997 41.005126 
L 29.768956 40.961173 
L 29.766914 40.917219 
L 29.764873 40.873266 
L 29.762831 40.829313 
L 29.76079 40.785359 
L 29.758748 40.741406 
L 29.757071 40.697452 
L 29.755414 40.653499 
L 29.753757 40.609545 
L 29.7521 40.565592 
L 29.750443 40.521639 
L 29.748786 40.477685 
L 29.747237 40.433732 
L 29.745961 40.389778 
L 29.744685 40.345825 
L 29.743409 40.301872 
L 29.742132 40.257918 
L 29.740856 40.213965 
L 29.73958 40.170011 
L 29.738537 40.126058 
L 29.737637 40.082104 
L 29.736737 40.038151 
L 29.735837 39.994198 
L 29.734937 39.950244 
L 29.734037 39.906291 
L 29.733137 39.862337 
L 29.732589 39.818384 
L 29.732059 39.774431 
L 29.731528 39.730477 
L 29.730997 39.686524 
L 29.730467 39.64257 
L 29.729936 39.598617 
L 29.72951 39.554663 
L 29.72934 39.51071 
L 29.72917 39.466757 
L 29.729 39.422803 
L 29.728831 39.37885 
L 29.728661 39.334896 
L 29.728491 39.290943 
L 29.72854 39.24699 
L 29.72872 39.203036 
L 29.728901 39.159083 
L 29.729081 39.115129 
L 29.729261 39.071176 
L 29.729441 39.027223 
L 29.729621 38.983269 
L 29.730126 38.939316 
L 29.730643 38.895362 
L 29.731161 38.851409 
L 29.731678 38.807455 
L 29.732195 38.763502 
L 29.732713 38.719549 
L 29.733326 38.675595 
L 29.734165 38.631642 
L 29.735004 38.587688 
L 29.735844 38.543735 
L 29.736683 38.499782 
L 29.737522 38.455828 
L 29.738362 38.411875 
L 29.739394 38.367921 
L 29.740537 38.323968 
L 29.741681 38.280014 
L 29.742824 38.236061 
L 29.743968 38.192108 
L 29.745111 38.148154 
L 29.746255 38.104201 
L 29.747673 38.060247 
L 29.749101 38.016294 
L 29.750528 37.972341 
L 29.751956 37.928387 
L 29.753383 37.884434 
L 29.754811 37.84048 
L 29.756318 37.796527 
L 29.758007 37.752574 
L 29.759695 37.70862 
L 29.761384 37.664667 
L 29.763073 37.620713 
L 29.764762 37.57676 
L 29.766451 37.532806 
L 29.768291 37.488853 
L 29.770216 37.4449 
L 29.772141 37.400946 
L 29.774066 37.356993 
L 29.775991 37.313039 
L 29.777916 37.269086 
L 29.779841 37.225133 
L 29.781969 37.181179 
L 29.784103 37.137226 
L 29.786236 37.093272 
L 29.78837 37.049319 
L 29.790504 37.005365 
L 29.792637 36.961412 
L 29.794826 36.917459 
L 29.797139 36.873505 
L 29.799451 36.829552 
L 29.801764 36.785598 
L 29.804076 36.741645 
L 29.806389 36.697692 
L 29.808701 36.653738 
L 29.811109 36.609785 
L 29.813568 36.565831 
L 29.816027 36.521878 
L 29.818487 36.477925 
L 29.820946 36.433971 
L 29.823406 36.390018 
L 29.825865 36.346064 
L 29.828436 36.302111 
L 29.831008 36.258157 
L 29.833581 36.214204 
L 29.836153 36.170251 
L 29.838726 36.126297 
L 29.841298 36.082344 
L 29.843896 36.03839 
L 29.846546 35.994437 
L 29.849196 35.950484 
L 29.851847 35.90653 
L 29.854497 35.862577 
L 29.857147 35.818623 
L 29.859798 35.77467 
L 29.862475 35.730716 
L 29.865166 35.686763 
L 29.867857 35.64281 
L 29.870549 35.598856 
L 29.87324 35.554903 
L 29.875931 35.510949 
L 29.878623 35.466996 
L 29.881317 35.423043 
L 29.884012 35.379089 
L 29.886706 35.335136 
L 29.889401 35.291182 
L 29.892095 35.247229 
L 29.89479 35.203275 
L 29.897473 35.159322 
L 29.900132 35.115369 
L 29.902792 35.071415 
L 29.905451 35.027462 
L 29.90811 34.983508 
L 29.91077 34.939555 
L 29.913429 34.895602 
L 29.91604 34.851648 
L 29.918625 34.807695 
L 29.921211 34.763741 
L 29.923796 34.719788 
L 29.926382 34.675835 
L 29.928968 34.631881 
L 29.931553 34.587928 
L 29.934027 34.543974 
L 29.9365 34.500021 
L 29.938974 34.456067 
L 29.941447 34.412114 
L 29.94392 34.368161 
L 29.946394 34.324207 
L 29.948817 34.280254 
L 29.951141 34.2363 
L 29.953464 34.192347 
L 29.955788 34.148394 
L 29.958111 34.10444 
L 29.960434 34.060487 
L 29.962758 34.016533 
L 29.964956 33.97258 
L 29.967093 33.928626 
L 40.92125 33.928626 
z
" clip-path="url(#p70dc5c0673)" style="fill: #20590b; opacity: 0.4"/>
   </g>
   <g id="patch_6">
    <path d="M 29.67125 42.675356 
L 40.92125 42.675356 
L 40.92125 33.928626 
L 29.67125 33.928626 
L 29.67125 42.675356 
z
" style="fill: none; stroke: #20590b; stroke-width: 0.85; stroke-linejoin: miter"/>
   </g>
   <g id="patch_7">
    <path d="M 61.17125 49.405848 
L 71.94276 49.405848 
L 71.949362 49.364118 
L 71.955964 49.322388 
L 71.962566 49.280658 
L 71.969168 49.238928 
L 71.975409 49.197198 
L 71.981598 49.155468 
L 71.987787 49.113738 
L 71.993976 49.072008 
L 72.000165 49.030278 
L 72.006354 48.988548 
L 72.012543 48.946818 
L 72.018391 48.905089 
L 72.024182 48.863359 
L 72.029972 48.821629 
L 72.035763 48.779899 
L 72.041553 48.738169 
L 72.047344 48.696439 
L 72.053135 48.654709 
L 72.058604 48.612979 
L 72.06401 48.571249 
L 72.069416 48.529519 
L 72.074822 48.487789 
L 72.080229 48.446059 
L 72.085635 48.404329 
L 72.091041 48.362599 
L 72.096144 48.320869 
L 72.10118 48.279139 
L 72.106216 48.237409 
L 72.111252 48.195679 
L 72.116287 48.153949 
L 72.121323 48.112219 
L 72.126359 48.070489 
L 72.13111 48.028759 
L 72.135788 47.987029 
L 72.140467 47.945299 
L 72.145146 47.903569 
L 72.149825 47.861839 
L 72.154503 47.820109 
L 72.159182 47.778379 
L 72.163593 47.736649 
L 72.167928 47.694919 
L 72.172263 47.653189 
L 72.176598 47.611459 
L 72.180933 47.569729 
L 72.185268 47.527999 
L 72.189603 47.486269 
L 72.193687 47.444539 
L 72.197692 47.402809 
L 72.201696 47.361079 
L 72.2057 47.319349 
L 72.209705 47.277619 
L 72.213709 47.235889 
L 72.217713 47.194159 
L 72.221483 47.152429 
L 72.225169 47.110699 
L 72.228855 47.068969 
L 72.232542 47.027239 
L 72.236228 46.985509 
L 72.239915 46.943779 
L 72.243601 46.90205 
L 72.247067 46.86032 
L 72.250448 46.81859 
L 72.253829 46.77686 
L 72.25721 46.73513 
L 72.260591 46.6934 
L 72.263972 46.65167 
L 72.267353 46.60994 
L 72.270529 46.56821 
L 72.273616 46.52648 
L 72.276704 46.48475 
L 72.279792 46.44302 
L 72.28288 46.40129 
L 72.285968 46.35956 
L 72.289056 46.31783 
L 72.291952 46.2761 
L 72.294759 46.23437 
L 72.297566 46.19264 
L 72.300372 46.15091 
L 72.303179 46.10918 
L 72.305986 46.06745 
L 72.308793 46.02572 
L 72.311421 45.98399 
L 72.313959 45.94226 
L 72.316497 45.90053 
L 72.319034 45.8588 
L 72.321572 45.81707 
L 72.32411 45.77534 
L 72.326647 45.73361 
L 72.32902 45.69188 
L 72.3313 45.65015 
L 72.33358 45.60842 
L 72.33586 45.56669 
L 72.338141 45.52496 
L 72.340421 45.48323 
L 72.342701 45.4415 
L 72.344828 45.39977 
L 72.346862 45.35804 
L 72.348896 45.31631 
L 72.35093 45.27458 
L 72.352965 45.23285 
L 72.354999 45.19112 
L 72.357033 45.14939 
L 72.358925 45.10766 
L 72.360725 45.06593 
L 72.362524 45.0242 
L 72.364324 44.98247 
L 72.366123 44.94074 
L 72.367922 44.899011 
L 72.369722 44.857281 
L 72.37139 44.815551 
L 72.372965 44.773821 
L 72.374541 44.732091 
L 72.376116 44.690361 
L 72.377692 44.648631 
L 72.379267 44.606901 
L 72.380842 44.565171 
L 72.382297 44.523441 
L 72.383659 44.481711 
L 72.385021 44.439981 
L 72.386382 44.398251 
L 72.387744 44.356521 
L 72.389106 44.314791 
L 72.390468 44.273061 
L 72.391718 44.231331 
L 72.392877 44.189601 
L 72.394035 44.147871 
L 72.395193 44.106141 
L 72.396351 44.064411 
L 72.397509 44.022681 
L 72.398667 43.980951 
L 72.399723 43.939221 
L 72.400687 43.897491 
L 72.401651 43.855761 
L 72.402615 43.814031 
L 72.403579 43.772301 
L 72.404543 43.730571 
L 72.405507 43.688841 
L 72.406377 43.647111 
L 72.407155 43.605381 
L 72.407933 43.563651 
L 72.408711 43.521921 
L 72.40949 43.480191 
L 72.410268 43.438461 
L 72.411046 43.396731 
L 72.411738 43.355001 
L 72.412338 43.313271 
L 72.412939 43.271541 
L 72.413539 43.229811 
L 72.41414 43.188081 
L 72.41474 43.146351 
L 72.41534 43.104621 
L 72.415861 43.062891 
L 72.41629 43.021161 
L 72.41672 42.979431 
L 72.417149 42.937701 
L 72.417578 42.895972 
L 72.418008 42.854242 
L 72.418437 42.812512 
L 72.418792 42.770782 
L 72.419057 42.729052 
L 72.419321 42.687322 
L 72.419585 42.645592 
L 72.419849 42.603862 
L 72.420113 42.562132 
L 72.420377 42.520402 
L 72.420571 42.478672 
L 72.420674 42.436942 
L 72.420777 42.395212 
L 72.42088 42.353482 
L 72.420983 42.311752 
L 72.421086 42.270022 
L 72.421189 42.228292 
L 72.421227 42.186562 
L 72.421172 42.144832 
L 72.421117 42.103102 
L 72.421062 42.061372 
L 72.421007 42.019642 
L 72.420951 41.977912 
L 72.420896 41.936182 
L 72.42078 41.894452 
L 72.420567 41.852722 
L 72.420355 41.810992 
L 72.420143 41.769262 
L 72.419931 41.727532 
L 72.419719 41.685802 
L 72.419507 41.644072 
L 72.419236 41.602342 
L 72.418867 41.560612 
L 72.418497 41.518882 
L 72.418127 41.477152 
L 72.417758 41.435422 
L 72.417388 41.393692 
L 72.417018 41.351962 
L 72.416593 41.310232 
L 72.416063 41.268502 
L 72.415533 41.226772 
L 72.415004 41.185042 
L 72.414474 41.143312 
L 72.413945 41.101582 
L 61.17125 41.101582 
z
" clip-path="url(#p70dc5c0673)" style="fill: #9f3131; opacity: 0.4"/>
   </g>
   <g id="patch_8">
    <path d="M 61.17125 49.405848 
L 72.42125 49.405848 
L 72.42125 41.101582 
L 61.17125 41.101582 
L 61.17125 49.405848 
z
" style="fill: none; stroke: #9f3131; stroke-width: 0.85; stroke-linejoin: miter"/>
   </g>
   <g id="line2d_9">
    <path d="M 44.29625 32.602441 
L 57.79625 45.555964 
" clip-path="url(#p70dc5c0673)" style="fill: none; stroke: #999999; stroke-opacity: 0.8; stroke-width: 0.3; stroke-linecap: square"/>
   </g>
   <g id="line2d_10">
    <path d="M 44.29625 71.463011 
L 57.79625 47.714885 
" clip-path="url(#p70dc5c0673)" style="fill: none; stroke: #999999; stroke-opacity: 0.8; stroke-width: 0.3; stroke-linecap: square"/>
   </g>
   <g id="line2d_11">
    <path d="M 44.29625 19.648918 
L 57.79625 73.621931 
" clip-path="url(#p70dc5c0673)" style="fill: none; stroke: #999999; stroke-opacity: 0.8; stroke-width: 0.3; stroke-linecap: square"/>
   </g>
   <g id="line2d_12">
    <path d="M 44.29625 39.079203 
L 57.79625 36.920282 
" clip-path="url(#p70dc5c0673)" style="fill: none; stroke: #999999; stroke-opacity: 0.8; stroke-width: 0.3; stroke-linecap: square"/>
   </g>
   <g id="line2d_13">
    <path d="M 44.29625 19.648918 
L 57.79625 69.30409 
" clip-path="url(#p70dc5c0673)" style="fill: none; stroke: #999999; stroke-opacity: 0.8; stroke-width: 0.3; stroke-linecap: square"/>
   </g>
   <g id="line2d_14">
    <path d="M 44.29625 45.555964 
L 57.79625 45.555964 
" clip-path="url(#p70dc5c0673)" style="fill: none; stroke: #999999; stroke-opacity: 0.8; stroke-width: 0.3; stroke-linecap: square"/>
   </g>
   <g id="line2d_15">
    <path d="M 44.29625 34.761362 
L 57.79625 30.44352 
" clip-path="url(#p70dc5c0673)" style="fill: none; stroke: #999999; stroke-opacity: 0.8; stroke-width: 0.3; stroke-linecap: square"/>
   </g>
   <g id="line2d_16">
    <path d="M 44.29625 21.807838 
L 57.79625 21.807838 
" clip-path="url(#p70dc5c0673)" style="fill: none; stroke: #999999; stroke-opacity: 0.8; stroke-width: 0.3; stroke-linecap: square"/>
   </g>
   <g id="line2d_17">
    <path d="M 44.29625 39.079203 
L 57.79625 45.555964 
" clip-path="url(#p70dc5c0673)" style="fill: none; stroke: #999999; stroke-opacity: 0.8; stroke-width: 0.3; stroke-linecap: square"/>
   </g>
   <g id="line2d_18">
    <path d="M 44.29625 47.714885 
L 57.79625 34.761362 
" clip-path="url(#p70dc5c0673)" style="fill: none; stroke: #999999; stroke-opacity: 0.8; stroke-width: 0.3; stroke-linecap: square"/>
   </g>
   <g id="line2d_19">
    <path d="M 44.29625 39.079203 
L 57.79625 28.2846 
" clip-path="url(#p70dc5c0673)" style="fill: none; stroke: #999999; stroke-opacity: 0.8; stroke-width: 0.3; stroke-linecap: square"/>
   </g>
   <g id="line2d_20">
    <path d="M 44.29625 28.2846 
L 57.79625 32.602441 
" clip-path="url(#p70dc5c0673)" style="fill: none; stroke: #999999; stroke-opacity: 0.8; stroke-width: 0.3; stroke-linecap: square"/>
   </g>
   <g id="line2d_21">
    <path d="M 44.29625 19.648918 
L 57.79625 43.397044 
" clip-path="url(#p70dc5c0673)" style="fill: none; stroke: #999999; stroke-opacity: 0.8; stroke-width: 0.3; stroke-linecap: square"/>
   </g>
   <g id="line2d_22">
    <path d="M 44.29625 52.032726 
L 57.79625 58.509487 
" clip-path="url(#p70dc5c0673)" style="fill: none; stroke: #999999; stroke-opacity: 0.8; stroke-width: 0.3; stroke-linecap: square"/>
   </g>
   <g id="line2d_23">
    <path d="M 44.29625 19.648918 
L 57.79625 47.714885 
" clip-path="url(#p70dc5c0673)" style="fill: none; stroke: #999999; stroke-opacity: 0.8; stroke-width: 0.3; stroke-linecap: square"/>
   </g>
   <g id="line2d_24">
    <path d="M 44.29625 19.648918 
L 57.79625 52.032726 
" clip-path="url(#p70dc5c0673)" style="fill: none; stroke: #999999; stroke-opacity: 0.8; stroke-width: 0.3; stroke-linecap: square"/>
   </g>
   <g id="line2d_25">
    <path d="M 44.29625 26.125679 
L 57.79625 56.350567 
" clip-path="url(#p70dc5c0673)" style="fill: none; stroke: #999999; stroke-opacity: 0.8; stroke-width: 0.3; stroke-linecap: square"/>
   </g>
   <g id="line2d_26">
    <path d="M 44.29625 28.2846 
L 57.79625 73.621931 
" clip-path="url(#p70dc5c0673)" style="fill: none; stroke: #999999; stroke-opacity: 0.8; stroke-width: 0.3; stroke-linecap: square"/>
   </g>
   <g id="line2d_27">
    <path d="M 44.29625 36.920282 
L 57.79625 43.397044 
" clip-path="url(#p70dc5c0673)" style="fill: none; stroke: #999999; stroke-opacity: 0.8; stroke-width: 0.3; stroke-linecap: square"/>
   </g>
   <g id="line2d_28">
    <path d="M 44.29625 43.397044 
L 57.79625 36.920282 
" clip-path="url(#p70dc5c0673)" style="fill: none; stroke: #999999; stroke-opacity: 0.8; stroke-width: 0.3; stroke-linecap: square"/>
   </g>
   <g id="line2d_29">
    <path d="M 44.29625 58.509487 
L 57.79625 56.350567 
" clip-path="url(#p70dc5c0673)" style="fill: none; stroke: #999999; stroke-opacity: 0.8; stroke-width: 0.3; stroke-linecap: square"/>
   </g>
   <g id="line2d_30">
    <path d="M 44.29625 73.621931 
L 57.79625 62.827329 
" clip-path="url(#p70dc5c0673)" style="fill: none; stroke: #999999; stroke-opacity: 0.8; stroke-width: 0.3; stroke-linecap: square"/>
   </g>
   <g id="line2d_31">
    <path d="M 44.29625 19.648918 
L 57.79625 32.602441 
" clip-path="url(#p70dc5c0673)" style="fill: none; stroke: #999999; stroke-opacity: 0.8; stroke-width: 0.3; stroke-linecap: square"/>
   </g>
   <g id="line2d_32">
    <path d="M 44.29625 52.032726 
L 57.79625 47.714885 
" clip-path="url(#p70dc5c0673)" style="fill: none; stroke: #999999; stroke-opacity: 0.8; stroke-width: 0.3; stroke-linecap: square"/>
   </g>
   <g id="line2d_33">
    <path d="M 44.29625 41.238123 
L 57.79625 43.397044 
" clip-path="url(#p70dc5c0673)" style="fill: none; stroke: #999999; stroke-opacity: 0.8; stroke-width: 0.3; stroke-linecap: square"/>
   </g>
   <g id="line2d_34">
    <path d="M 44.29625 36.920282 
L 57.79625 32.602441 
" clip-path="url(#p70dc5c0673)" style="fill: none; stroke: #999999; stroke-opacity: 0.8; stroke-width: 0.3; stroke-linecap: square"/>
   </g>
   <g id="line2d_35">
    <path d="M 44.29625 36.920282 
L 57.79625 54.191646 
" clip-path="url(#p70dc5c0673)" style="fill: none; stroke: #999999; stroke-opacity: 0.8; stroke-width: 0.3; stroke-linecap: square"/>
   </g>
   <g id="line2d_36">
    <path d="M 44.29625 52.032726 
L 57.79625 34.761362 
" clip-path="url(#p70dc5c0673)" style="fill: none; stroke: #999999; stroke-opacity: 0.8; stroke-width: 0.3; stroke-linecap: square"/>
   </g>
   <g id="line2d_37">
    <path d="M 44.29625 52.032726 
L 57.79625 54.191646 
" clip-path="url(#p70dc5c0673)" style="fill: none; stroke: #999999; stroke-opacity: 0.8; stroke-width: 0.3; stroke-linecap: square"/>
   </g>
   <g id="line2d_38">
    <path d="M 44.29625 58.509487 
L 57.79625 77.939772 
" clip-path="url(#p70dc5c0673)" style="fill: none; stroke: #999999; stroke-opacity: 0.8; stroke-width: 0.3; stroke-linecap: square"/>
   </g>
   <g id="line2d_39">
    <path d="M 44.29625 19.648918 
L 57.79625 32.602441 
" clip-path="url(#p70dc5c0673)" style="fill: none; stroke: #999999; stroke-opacity: 0.8; stroke-width: 0.3; stroke-linecap: square"/>
   </g>
   <g id="line2d_40">
    <path d="M 44.29625 21.807838 
L 57.79625 43.397044 
" clip-path="url(#p70dc5c0673)" style="fill: none; stroke: #999999; stroke-opacity: 0.8; stroke-width: 0.3; stroke-linecap: square"/>
   </g>
   <g id="line2d_41">
    <path d="M 44.29625 77.939772 
L 57.79625 28.2846 
" clip-path="url(#p70dc5c0673)" style="fill: none; stroke: #999999; stroke-opacity: 0.8; stroke-width: 0.3; stroke-linecap: square"/>
   </g>
   <g id="line2d_42">
    <path d="M 44.29625 26.125679 
L 57.79625 36.920282 
" clip-path="url(#p70dc5c0673)" style="fill: none; stroke: #999999; stroke-opacity: 0.8; stroke-width: 0.3; stroke-linecap: square"/>
   </g>
   <g id="line2d_43">
    <path d="M 44.29625 21.807838 
L 57.79625 56.350567 
" clip-path="url(#p70dc5c0673)" style="fill: none; stroke: #999999; stroke-opacity: 0.8; stroke-width: 0.3; stroke-linecap: square"/>
   </g>
   <g id="line2d_44">
    <path d="M 44.29625 19.648918 
L 57.79625 45.555964 
" clip-path="url(#p70dc5c0673)" style="fill: none; stroke: #999999; stroke-opacity: 0.8; stroke-width: 0.3; stroke-linecap: square"/>
   </g>
   <g id="line2d_45">
    <path d="M 44.29625 45.555964 
L 57.79625 19.648918 
" clip-path="url(#p70dc5c0673)" style="fill: none; stroke: #999999; stroke-opacity: 0.8; stroke-width: 0.3; stroke-linecap: square"/>
   </g>
   <g id="line2d_46">
    <path d="M 44.29625 32.602441 
L 57.79625 54.191646 
" clip-path="url(#p70dc5c0673)" style="fill: none; stroke: #999999; stroke-opacity: 0.8; stroke-width: 0.3; stroke-linecap: square"/>
   </g>
   <g id="line2d_47">
    <path d="M 44.29625 52.032726 
L 57.79625 32.602441 
" clip-path="url(#p70dc5c0673)" style="fill: none; stroke: #999999; stroke-opacity: 0.8; stroke-width: 0.3; stroke-linecap: square"/>
   </g>
   <g id="line2d_48">
    <path d="M 44.29625 23.966759 
L 57.79625 19.648918 
" clip-path="url(#p70dc5c0673)" style="fill: none; stroke: #999999; stroke-opacity: 0.8; stroke-width: 0.3; stroke-linecap: square"/>
   </g>
   <g id="line2d_49">
    <path d="M 44.29625 45.555964 
L 57.79625 60.668408 
" clip-path="url(#p70dc5c0673)" style="fill: none; stroke: #999999; stroke-opacity: 0.8; stroke-width: 0.3; stroke-linecap: square"/>
   </g>
   <g id="line2d_50">
    <path d="M 44.29625 47.714885 
L 57.79625 54.191646 
" clip-path="url(#p70dc5c0673)" style="fill: none; stroke: #999999; stroke-opacity: 0.8; stroke-width: 0.3; stroke-linecap: square"/>
   </g>
   <g id="line2d_51">
    <path d="M 44.29625 36.920282 
L 57.79625 52.032726 
" clip-path="url(#p70dc5c0673)" style="fill: none; stroke: #999999; stroke-opacity: 0.8; stroke-width: 0.3; stroke-linecap: square"/>
   </g>
   <g id="line2d_52">
    <path d="M 44.29625 21.807838 
L 57.79625 26.125679 
" clip-path="url(#p70dc5c0673)" style="fill: none; stroke: #999999; stroke-opacity: 0.8; stroke-width: 0.3; stroke-linecap: square"/>
   </g>
   <g id="line2d_53">
    <path d="M 44.29625 23.966759 
L 57.79625 41.238123 
" clip-path="url(#p70dc5c0673)" style="fill: none; stroke: #999999; stroke-opacity: 0.8; stroke-width: 0.3; stroke-linecap: square"/>
   </g>
   <g id="line2d_54">
    <path d="M 44.29625 52.032726 
L 57.79625 41.238123 
" clip-path="url(#p70dc5c0673)" style="fill: none; stroke: #999999; stroke-opacity: 0.8; stroke-width: 0.3; stroke-linecap: square"/>
   </g>
   <g id="line2d_55">
    <path d="M 44.29625 58.509487 
L 57.79625 75.780852 
" clip-path="url(#p70dc5c0673)" style="fill: none; stroke: #999999; stroke-opacity: 0.8; stroke-width: 0.3; stroke-linecap: square"/>
   </g>
   <g id="line2d_56">
    <path d="M 44.29625 36.920282 
L 57.79625 30.44352 
" clip-path="url(#p70dc5c0673)" style="fill: none; stroke: #999999; stroke-opacity: 0.8; stroke-width: 0.3; stroke-linecap: square"/>
   </g>
   <g id="line2d_57">
    <path d="M 44.29625 36.920282 
L 57.79625 34.761362 
" clip-path="url(#p70dc5c0673)" style="fill: none; stroke: #999999; stroke-opacity: 0.8; stroke-width: 0.3; stroke-linecap: square"/>
   </g>
   <g id="line2d_58">
    <path d="M 44.29625 47.714885 
L 57.79625 56.350567 
" clip-path="url(#p70dc5c0673)" style="fill: none; stroke: #999999; stroke-opacity: 0.8; stroke-width: 0.3; stroke-linecap: square"/>
   </g>
   <g id="patch_9">
    <path d="M 24.04625 88.734375 
L 24.04625 16.734375 
" style="fill: none; stroke: #000000; stroke-width: 0.5; stroke-linejoin: miter; stroke-linecap: square"/>
   </g>
   <g id="patch_10">
    <path d="M 24.04625 88.734375 
L 78.04625 88.734375 
" style="fill: none; stroke: #000000; stroke-width: 0.5; stroke-linejoin: miter; stroke-linecap: square"/>
   </g>
   <g id="PathCollection_1">
    <defs>
     <path id="m157e925694" d="M 0 1.936492 
C 0.513564 1.936492 1.006162 1.732451 1.369306 1.369306 
C 1.732451 1.006162 1.936492 0.513564 1.936492 0 
C 1.936492 -0.513564 1.732451 -1.006162 1.369306 -1.369306 
C 1.006162 -1.732451 0.513564 -1.936492 0 -1.936492 
C -0.513564 -1.936492 -1.006162 -1.732451 -1.369306 -1.369306 
C -1.732451 -1.006162 -1.936492 -0.513564 -1.936492 0 
C -1.936492 0.513564 -1.732451 1.006162 -1.369306 1.369306 
C -1.006162 1.732451 -0.513564 1.936492 0 1.936492 
z
"/>
    </defs>
    <g clip-path="url(#p70dc5c0673)">
     <use xlink:href="#m157e925694" x="44.29625" y="32.602441" style="fill: #20590b; fill-opacity: 0.2"/>
     <use xlink:href="#m157e925694" x="44.29625" y="71.463011" style="fill: #20590b; fill-opacity: 0.2"/>
     <use xlink:href="#m157e925694" x="44.29625" y="19.648918" style="fill: #20590b; fill-opacity: 0.2"/>
     <use xlink:href="#m157e925694" x="44.29625" y="39.079203" style="fill: #20590b; fill-opacity: 0.2"/>
     <use xlink:href="#m157e925694" x="44.29625" y="19.648918" style="fill: #20590b; fill-opacity: 0.2"/>
     <use xlink:href="#m157e925694" x="44.29625" y="45.555964" style="fill: #20590b; fill-opacity: 0.2"/>
     <use xlink:href="#m157e925694" x="44.29625" y="34.761362" style="fill: #20590b; fill-opacity: 0.2"/>
     <use xlink:href="#m157e925694" x="44.29625" y="21.807838" style="fill: #20590b; fill-opacity: 0.2"/>
     <use xlink:href="#m157e925694" x="44.29625" y="39.079203" style="fill: #20590b; fill-opacity: 0.2"/>
     <use xlink:href="#m157e925694" x="44.29625" y="47.714885" style="fill: #20590b; fill-opacity: 0.2"/>
     <use xlink:href="#m157e925694" x="44.29625" y="39.079203" style="fill: #20590b; fill-opacity: 0.2"/>
     <use xlink:href="#m157e925694" x="44.29625" y="28.2846" style="fill: #20590b; fill-opacity: 0.2"/>
     <use xlink:href="#m157e925694" x="44.29625" y="19.648918" style="fill: #20590b; fill-opacity: 0.2"/>
     <use xlink:href="#m157e925694" x="44.29625" y="52.032726" style="fill: #20590b; fill-opacity: 0.2"/>
     <use xlink:href="#m157e925694" x="44.29625" y="19.648918" style="fill: #20590b; fill-opacity: 0.2"/>
     <use xlink:href="#m157e925694" x="44.29625" y="19.648918" style="fill: #20590b; fill-opacity: 0.2"/>
     <use xlink:href="#m157e925694" x="44.29625" y="26.125679" style="fill: #20590b; fill-opacity: 0.2"/>
     <use xlink:href="#m157e925694" x="44.29625" y="28.2846" style="fill: #20590b; fill-opacity: 0.2"/>
     <use xlink:href="#m157e925694" x="44.29625" y="36.920282" style="fill: #20590b; fill-opacity: 0.2"/>
     <use xlink:href="#m157e925694" x="44.29625" y="43.397044" style="fill: #20590b; fill-opacity: 0.2"/>
     <use xlink:href="#m157e925694" x="44.29625" y="58.509487" style="fill: #20590b; fill-opacity: 0.2"/>
     <use xlink:href="#m157e925694" x="44.29625" y="73.621931" style="fill: #20590b; fill-opacity: 0.2"/>
     <use xlink:href="#m157e925694" x="44.29625" y="19.648918" style="fill: #20590b; fill-opacity: 0.2"/>
     <use xlink:href="#m157e925694" x="44.29625" y="52.032726" style="fill: #20590b; fill-opacity: 0.2"/>
     <use xlink:href="#m157e925694" x="44.29625" y="41.238123" style="fill: #20590b; fill-opacity: 0.2"/>
     <use xlink:href="#m157e925694" x="44.29625" y="36.920282" style="fill: #20590b; fill-opacity: 0.2"/>
     <use xlink:href="#m157e925694" x="44.29625" y="36.920282" style="fill: #20590b; fill-opacity: 0.2"/>
     <use xlink:href="#m157e925694" x="44.29625" y="52.032726" style="fill: #20590b; fill-opacity: 0.2"/>
     <use xlink:href="#m157e925694" x="44.29625" y="52.032726" style="fill: #20590b; fill-opacity: 0.2"/>
     <use xlink:href="#m157e925694" x="44.29625" y="58.509487" style="fill: #20590b; fill-opacity: 0.2"/>
     <use xlink:href="#m157e925694" x="44.29625" y="19.648918" style="fill: #20590b; fill-opacity: 0.2"/>
     <use xlink:href="#m157e925694" x="44.29625" y="21.807838" style="fill: #20590b; fill-opacity: 0.2"/>
     <use xlink:href="#m157e925694" x="44.29625" y="77.939772" style="fill: #20590b; fill-opacity: 0.2"/>
     <use xlink:href="#m157e925694" x="44.29625" y="26.125679" style="fill: #20590b; fill-opacity: 0.2"/>
     <use xlink:href="#m157e925694" x="44.29625" y="21.807838" style="fill: #20590b; fill-opacity: 0.2"/>
     <use xlink:href="#m157e925694" x="44.29625" y="19.648918" style="fill: #20590b; fill-opacity: 0.2"/>
     <use xlink:href="#m157e925694" x="44.29625" y="45.555964" style="fill: #20590b; fill-opacity: 0.2"/>
     <use xlink:href="#m157e925694" x="44.29625" y="32.602441" style="fill: #20590b; fill-opacity: 0.2"/>
     <use xlink:href="#m157e925694" x="44.29625" y="52.032726" style="fill: #20590b; fill-opacity: 0.2"/>
     <use xlink:href="#m157e925694" x="44.29625" y="23.966759" style="fill: #20590b; fill-opacity: 0.2"/>
     <use xlink:href="#m157e925694" x="44.29625" y="45.555964" style="fill: #20590b; fill-opacity: 0.2"/>
     <use xlink:href="#m157e925694" x="44.29625" y="47.714885" style="fill: #20590b; fill-opacity: 0.2"/>
     <use xlink:href="#m157e925694" x="44.29625" y="36.920282" style="fill: #20590b; fill-opacity: 0.2"/>
     <use xlink:href="#m157e925694" x="44.29625" y="21.807838" style="fill: #20590b; fill-opacity: 0.2"/>
     <use xlink:href="#m157e925694" x="44.29625" y="23.966759" style="fill: #20590b; fill-opacity: 0.2"/>
     <use xlink:href="#m157e925694" x="44.29625" y="52.032726" style="fill: #20590b; fill-opacity: 0.2"/>
     <use xlink:href="#m157e925694" x="44.29625" y="58.509487" style="fill: #20590b; fill-opacity: 0.2"/>
     <use xlink:href="#m157e925694" x="44.29625" y="36.920282" style="fill: #20590b; fill-opacity: 0.2"/>
     <use xlink:href="#m157e925694" x="44.29625" y="36.920282" style="fill: #20590b; fill-opacity: 0.2"/>
     <use xlink:href="#m157e925694" x="44.29625" y="47.714885" style="fill: #20590b; fill-opacity: 0.2"/>
    </g>
   </g>
   <g id="PathCollection_2">
    <defs>
     <path id="mfbf0375291" d="M 0 1.936492 
C 0.513564 1.936492 1.006162 1.732451 1.369306 1.369306 
C 1.732451 1.006162 1.936492 0.513564 1.936492 0 
C 1.936492 -0.513564 1.732451 -1.006162 1.369306 -1.369306 
C 1.006162 -1.732451 0.513564 -1.936492 0 -1.936492 
C -0.513564 -1.936492 -1.006162 -1.732451 -1.369306 -1.369306 
C -1.732451 -1.006162 -1.936492 -0.513564 -1.936492 0 
C -1.936492 0.513564 -1.732451 1.006162 -1.369306 1.369306 
C -1.006162 1.732451 -0.513564 1.936492 0 1.936492 
z
"/>
    </defs>
    <g clip-path="url(#p70dc5c0673)">
     <use xlink:href="#mfbf0375291" x="57.79625" y="45.555964" style="fill: #9f3131; fill-opacity: 0.2"/>
     <use xlink:href="#mfbf0375291" x="57.79625" y="47.714885" style="fill: #9f3131; fill-opacity: 0.2"/>
     <use xlink:href="#mfbf0375291" x="57.79625" y="73.621931" style="fill: #9f3131; fill-opacity: 0.2"/>
     <use xlink:href="#mfbf0375291" x="57.79625" y="36.920282" style="fill: #9f3131; fill-opacity: 0.2"/>
     <use xlink:href="#mfbf0375291" x="57.79625" y="69.30409" style="fill: #9f3131; fill-opacity: 0.2"/>
     <use xlink:href="#mfbf0375291" x="57.79625" y="45.555964" style="fill: #9f3131; fill-opacity: 0.2"/>
     <use xlink:href="#mfbf0375291" x="57.79625" y="30.44352" style="fill: #9f3131; fill-opacity: 0.2"/>
     <use xlink:href="#mfbf0375291" x="57.79625" y="21.807838" style="fill: #9f3131; fill-opacity: 0.2"/>
     <use xlink:href="#mfbf0375291" x="57.79625" y="45.555964" style="fill: #9f3131; fill-opacity: 0.2"/>
     <use xlink:href="#mfbf0375291" x="57.79625" y="34.761362" style="fill: #9f3131; fill-opacity: 0.2"/>
     <use xlink:href="#mfbf0375291" x="57.79625" y="28.2846" style="fill: #9f3131; fill-opacity: 0.2"/>
     <use xlink:href="#mfbf0375291" x="57.79625" y="32.602441" style="fill: #9f3131; fill-opacity: 0.2"/>
     <use xlink:href="#mfbf0375291" x="57.79625" y="43.397044" style="fill: #9f3131; fill-opacity: 0.2"/>
     <use xlink:href="#mfbf0375291" x="57.79625" y="58.509487" style="fill: #9f3131; fill-opacity: 0.2"/>
     <use xlink:href="#mfbf0375291" x="57.79625" y="47.714885" style="fill: #9f3131; fill-opacity: 0.2"/>
     <use xlink:href="#mfbf0375291" x="57.79625" y="52.032726" style="fill: #9f3131; fill-opacity: 0.2"/>
     <use xlink:href="#mfbf0375291" x="57.79625" y="56.350567" style="fill: #9f3131; fill-opacity: 0.2"/>
     <use xlink:href="#mfbf0375291" x="57.79625" y="73.621931" style="fill: #9f3131; fill-opacity: 0.2"/>
     <use xlink:href="#mfbf0375291" x="57.79625" y="43.397044" style="fill: #9f3131; fill-opacity: 0.2"/>
     <use xlink:href="#mfbf0375291" x="57.79625" y="36.920282" style="fill: #9f3131; fill-opacity: 0.2"/>
     <use xlink:href="#mfbf0375291" x="57.79625" y="56.350567" style="fill: #9f3131; fill-opacity: 0.2"/>
     <use xlink:href="#mfbf0375291" x="57.79625" y="62.827329" style="fill: #9f3131; fill-opacity: 0.2"/>
     <use xlink:href="#mfbf0375291" x="57.79625" y="32.602441" style="fill: #9f3131; fill-opacity: 0.2"/>
     <use xlink:href="#mfbf0375291" x="57.79625" y="47.714885" style="fill: #9f3131; fill-opacity: 0.2"/>
     <use xlink:href="#mfbf0375291" x="57.79625" y="43.397044" style="fill: #9f3131; fill-opacity: 0.2"/>
     <use xlink:href="#mfbf0375291" x="57.79625" y="32.602441" style="fill: #9f3131; fill-opacity: 0.2"/>
     <use xlink:href="#mfbf0375291" x="57.79625" y="54.191646" style="fill: #9f3131; fill-opacity: 0.2"/>
     <use xlink:href="#mfbf0375291" x="57.79625" y="34.761362" style="fill: #9f3131; fill-opacity: 0.2"/>
     <use xlink:href="#mfbf0375291" x="57.79625" y="54.191646" style="fill: #9f3131; fill-opacity: 0.2"/>
     <use xlink:href="#mfbf0375291" x="57.79625" y="77.939772" style="fill: #9f3131; fill-opacity: 0.2"/>
     <use xlink:href="#mfbf0375291" x="57.79625" y="32.602441" style="fill: #9f3131; fill-opacity: 0.2"/>
     <use xlink:href="#mfbf0375291" x="57.79625" y="43.397044" style="fill: #9f3131; fill-opacity: 0.2"/>
     <use xlink:href="#mfbf0375291" x="57.79625" y="28.2846" style="fill: #9f3131; fill-opacity: 0.2"/>
     <use xlink:href="#mfbf0375291" x="57.79625" y="36.920282" style="fill: #9f3131; fill-opacity: 0.2"/>
     <use xlink:href="#mfbf0375291" x="57.79625" y="56.350567" style="fill: #9f3131; fill-opacity: 0.2"/>
     <use xlink:href="#mfbf0375291" x="57.79625" y="45.555964" style="fill: #9f3131; fill-opacity: 0.2"/>
     <use xlink:href="#mfbf0375291" x="57.79625" y="19.648918" style="fill: #9f3131; fill-opacity: 0.2"/>
     <use xlink:href="#mfbf0375291" x="57.79625" y="54.191646" style="fill: #9f3131; fill-opacity: 0.2"/>
     <use xlink:href="#mfbf0375291" x="57.79625" y="32.602441" style="fill: #9f3131; fill-opacity: 0.2"/>
     <use xlink:href="#mfbf0375291" x="57.79625" y="19.648918" style="fill: #9f3131; fill-opacity: 0.2"/>
     <use xlink:href="#mfbf0375291" x="57.79625" y="60.668408" style="fill: #9f3131; fill-opacity: 0.2"/>
     <use xlink:href="#mfbf0375291" x="57.79625" y="54.191646" style="fill: #9f3131; fill-opacity: 0.2"/>
     <use xlink:href="#mfbf0375291" x="57.79625" y="52.032726" style="fill: #9f3131; fill-opacity: 0.2"/>
     <use xlink:href="#mfbf0375291" x="57.79625" y="26.125679" style="fill: #9f3131; fill-opacity: 0.2"/>
     <use xlink:href="#mfbf0375291" x="57.79625" y="41.238123" style="fill: #9f3131; fill-opacity: 0.2"/>
     <use xlink:href="#mfbf0375291" x="57.79625" y="41.238123" style="fill: #9f3131; fill-opacity: 0.2"/>
     <use xlink:href="#mfbf0375291" x="57.79625" y="75.780852" style="fill: #9f3131; fill-opacity: 0.2"/>
     <use xlink:href="#mfbf0375291" x="57.79625" y="30.44352" style="fill: #9f3131; fill-opacity: 0.2"/>
     <use xlink:href="#mfbf0375291" x="57.79625" y="34.761362" style="fill: #9f3131; fill-opacity: 0.2"/>
     <use xlink:href="#mfbf0375291" x="57.79625" y="56.350567" style="fill: #9f3131; fill-opacity: 0.2"/>
    </g>
   </g>
   <g id="line2d_59">
    <path d="M 40.92125 38.301991 
L 29.67125 38.301991 
" clip-path="url(#p70dc5c0673)" style="fill: none; stroke: #000000; stroke-width: 0.85; stroke-linecap: square"/>
   </g>
   <g id="line2d_60">
    <path d="M 61.17125 45.253715 
L 72.42125 45.253715 
" clip-path="url(#p70dc5c0673)" style="fill: none; stroke: #000000; stroke-width: 0.85; stroke-linecap: square"/>
   </g>
   <g id="LineCollection_1">
    <path d="M 35.29625 40.478254 
L 35.29625 36.125728 
" clip-path="url(#p70dc5c0673)" style="fill: none; stroke: #000000; stroke-width: 0.85"/>
   </g>
   <g id="line2d_61">
    <defs>
     <path id="m1fc2b65e4a" d="M 4 0 
L -4 -0 
" style="stroke: #000000; stroke-width: 0.85"/>
    </defs>
    <g clip-path="url(#p70dc5c0673)">
     <use xlink:href="#m1fc2b65e4a" x="35.29625" y="40.478254" style="stroke: #000000; stroke-width: 0.85"/>
    </g>
   </g>
   <g id="line2d_62">
    <g clip-path="url(#p70dc5c0673)">
     <use xlink:href="#m1fc2b65e4a" x="35.29625" y="36.125728" style="stroke: #000000; stroke-width: 0.85"/>
    </g>
   </g>
   <g id="LineCollection_2">
    <path d="M 66.79625 47.31989 
L 66.79625 43.187541 
" clip-path="url(#p70dc5c0673)" style="fill: none; stroke: #000000; stroke-width: 0.85"/>
   </g>
   <g id="line2d_63">
    <g clip-path="url(#p70dc5c0673)">
     <use xlink:href="#m1fc2b65e4a" x="66.79625" y="47.31989" style="stroke: #000000; stroke-width: 0.85"/>
    </g>
   </g>
   <g id="line2d_64">
    <g clip-path="url(#p70dc5c0673)">
     <use xlink:href="#m1fc2b65e4a" x="66.79625" y="43.187541" style="stroke: #000000; stroke-width: 0.85"/>
    </g>
   </g>
   <g id="line2d_65">
    <path d="M 40.92125 15.294375 
L 61.17125 15.294375 
" style="fill: none; stroke: #000000; stroke-width: 0.5; stroke-linecap: square"/>
   </g>
   <g id="text_8">
    <text style="font-size: 12px; font-family: 'Arial'; text-anchor: middle" x="51.04625" y="15.789375" transform="rotate(-0 51.04625 15.789375)">*</text>
   </g>
  </g>
 </g>
 <defs>
  <clipPath id="p70dc5c0673">
   <rect x="24.04625" y="16.734375" width="54" height="72"/>
  </clipPath>
 </defs>
</svg>
