<?xml version="1.0" encoding="utf-8" standalone="no"?>
<!DOCTYPE svg PUBLIC "-//W3C//DTD SVG 1.1//EN"
  "http://www.w3.org/Graphics/SVG/1.1/DTD/svg11.dtd">
<svg xmlns:xlink="http://www.w3.org/1999/xlink" width="85.24625pt" height="103.0925pt" viewBox="0 0 85.24625 103.0925" xmlns="http://www.w3.org/2000/svg" version="1.1">
 <metadata>
  <rdf:RDF xmlns:dc="http://purl.org/dc/elements/1.1/" xmlns:cc="http://creativecommons.org/ns#" xmlns:rdf="http://www.w3.org/1999/02/22-rdf-syntax-ns#">
   <cc:Work>
    <dc:type rdf:resource="http://purl.org/dc/dcmitype/StillImage"/>
    <dc:date>2026-03-04T23:12:09.558826</dc:date>
    <dc:format>image/svg+xml</dc:format>
    <dc:creator>
     <cc:Agent>
      <dc:title>Matplotlib v3.10.8, https://matplotlib.org/</dc:title>
     </cc:Agent>
    </dc:creator>
   </cc:Work>
  </rdf:RDF>
 </metadata>
 <defs>
  <style type="text/css">*{stroke-linejoin: round; stroke-linecap: butt}</style>
 </defs>
 <g id="figure_1">
  <g id="patch_1">
   <path d="M 0 103.0925 
L 85.24625 103.0925 
L 85.24625 0 
L 0 0 
z
" style="fill: #ffffff"/>
  </g>
  <g id="axes_1">
   <g id="patch_2">
    <path d="M 24.04625 85.07625 
L 78.04625 85.07625 
L 78.04625 13.07625 
L 24.04625 13.07625 
z
" style="fill: #ffffff"/>
   </g>
   <g id="line2d_1">
    <path d="M 24.04625 50.358149 
L 78.04625 50.358149 
" clip-path="url(#p63bbcbc646)" style="fill: none; stroke-dasharray: 2.516,1.088; stroke-dashoffset: 0; stroke: #808080; stroke-opacity: 0.5; stroke-width: 0.68"/>
   </g>
   <g id="patch_3">
    <path d="M 40.92125 66.916013 
L 40.467323 66.916013 
L 40.468053 66.658344 
L 40.47026 66.400676 
L 40.473922 66.143008 
L 40.479001 65.88534 
L 40.485448 65.627672 
L 40.493196 65.370004 
L 40.502172 65.112335 
L 40.512288 64.854667 
L 40.523448 64.596999 
L 40.535547 64.339331 
L 40.548472 64.081663 
L 40.562108 63.823995 
L 40.576332 63.566326 
L 40.591022 63.308658 
L 40.606053 63.05099 
L 40.621302 62.793322 
L 40.636647 62.535654 
L 40.651968 62.277986 
L 40.667151 62.020318 
L 40.682084 61.762649 
L 40.696664 61.504981 
L 40.710792 61.247313 
L 40.724374 60.989645 
L 40.737324 60.731977 
L 40.749564 60.474309 
L 40.761019 60.21664 
L 40.771624 59.958972 
L 40.781316 59.701304 
L 40.79004 59.443636 
L 40.797745 59.185968 
L 40.804383 58.9283 
L 40.809912 58.670631 
L 40.814291 58.412963 
L 40.817481 58.155295 
L 40.819446 57.897627 
L 40.820151 57.639959 
L 40.819559 57.382291 
L 40.817637 57.124622 
L 40.814349 56.866954 
L 40.80966 56.609286 
L 40.803533 56.351618 
L 40.795931 56.09395 
L 40.786818 55.836282 
L 40.776153 55.578613 
L 40.7639 55.320945 
L 40.750018 55.063277 
L 40.734468 54.805609 
L 40.717211 54.547941 
L 40.69821 54.290273 
L 40.677427 54.032604 
L 40.654826 53.774936 
L 40.630372 53.517268 
L 40.604032 53.2596 
L 40.575776 53.001932 
L 40.545574 52.744264 
L 40.513399 52.486595 
L 40.479226 52.228927 
L 40.443031 51.971259 
L 40.404791 51.713591 
L 40.364486 51.455923 
L 40.322094 51.198255 
L 40.277594 50.940587 
L 40.230966 50.682918 
L 40.182185 50.42525 
L 40.131228 50.167582 
L 40.078066 49.909914 
L 40.022669 49.652246 
L 39.965003 49.394578 
L 39.905028 49.136909 
L 39.842701 48.879241 
L 39.777972 48.621573 
L 39.710788 48.363905 
L 39.64109 48.106237 
L 39.568814 47.848569 
L 39.493893 47.5909 
L 39.416255 47.333232 
L 39.335827 47.075564 
L 39.252535 46.817896 
L 39.166303 46.560228 
L 39.07706 46.30256 
L 38.984739 46.044891 
L 38.889278 45.787223 
L 38.790626 45.529555 
L 38.68874 45.271887 
L 38.583596 45.014219 
L 38.475181 44.756551 
L 38.363507 44.498882 
L 38.248604 44.241214 
L 38.130529 43.983546 
L 38.009367 43.725878 
L 37.885229 43.46821 
L 37.758261 43.210542 
L 37.62864 42.952873 
L 37.496577 42.695205 
L 37.362319 42.437537 
L 37.226147 42.179869 
L 37.088376 41.922201 
L 36.949355 41.664533 
L 36.809465 41.406864 
L 36.669115 41.149196 
L 36.528742 40.891528 
L 36.388803 40.63386 
L 36.249776 40.376192 
L 36.112148 40.118524 
L 35.976415 39.860856 
L 35.843074 39.603187 
L 35.712614 39.345519 
L 35.585513 39.087851 
L 35.462226 38.830183 
L 35.343181 38.572515 
L 35.228768 38.314847 
L 35.119335 38.057178 
L 35.015178 37.79951 
L 34.916536 37.541842 
L 34.823584 37.284174 
L 34.736427 37.026506 
L 34.655095 36.768838 
L 34.579542 36.511169 
L 34.50964 36.253501 
L 34.44518 35.995833 
L 34.385873 35.738165 
L 34.331346 35.480497 
L 34.281154 35.222829 
L 34.234775 34.96516 
L 34.191622 34.707492 
L 34.151046 34.449824 
L 34.112349 34.192156 
L 34.074788 33.934488 
L 34.037589 33.67682 
L 33.999957 33.419151 
L 33.961086 33.161483 
L 33.920175 32.903815 
L 33.876439 32.646147 
L 33.829118 32.388479 
L 33.777494 32.130811 
L 33.720901 31.873142 
L 33.658732 31.615474 
L 33.590457 31.357806 
L 33.515626 31.100138 
L 33.433876 30.84247 
L 33.344944 30.584802 
L 33.248666 30.327133 
L 33.144984 30.069465 
L 33.033945 29.811797 
L 32.915706 29.554129 
L 32.79053 29.296461 
L 32.658785 29.038793 
L 32.520938 28.781125 
L 32.377556 28.523456 
L 32.229295 28.265788 
L 32.076895 28.00812 
L 31.921171 27.750452 
L 31.763009 27.492784 
L 31.603352 27.235116 
L 31.443196 26.977447 
L 31.283576 26.719779 
L 31.125562 26.462111 
L 30.970243 26.204443 
L 30.818725 25.946775 
L 30.672118 25.689107 
L 30.531528 25.431438 
L 30.398049 25.17377 
L 30.272754 24.916102 
L 30.156689 24.658434 
L 30.050866 24.400766 
L 29.956252 24.143098 
L 29.873767 23.885429 
L 29.804275 23.627761 
L 29.748578 23.370093 
L 29.707413 23.112425 
L 29.681442 22.854757 
L 29.67125 22.597089 
L 29.677339 22.33942 
L 29.700125 22.081752 
L 29.73993 21.824084 
L 29.796984 21.566416 
L 29.871417 21.308748 
L 29.963258 21.05108 
L 30.072436 20.793411 
L 30.198773 20.535743 
L 30.34199 20.278075 
L 30.501704 20.020407 
L 30.677429 19.762739 
L 30.868579 19.505071 
L 31.074476 19.247402 
L 31.294345 18.989734 
L 31.527329 18.732066 
L 31.772491 18.474398 
L 32.02882 18.21673 
L 32.295242 17.959062 
L 32.57063 17.701394 
L 32.853809 17.443725 
L 33.143571 17.186057 
L 33.438682 16.928389 
L 33.737896 16.670721 
L 34.039963 16.413053 
L 34.343643 16.155385 
L 34.647713 15.897716 
L 34.950981 15.640048 
L 40.92125 15.640048 
z
" clip-path="url(#p63bbcbc646)" style="fill: #228b22; opacity: 0.2"/>
   </g>
   <g id="patch_4">
    <path d="M 61.17125 55.165271 
L 61.652008 55.165271 
L 61.654608 54.977555 
L 61.656267 54.78984 
L 61.657031 54.602125 
L 61.656957 54.41441 
L 61.656113 54.226694 
L 61.654575 54.038979 
L 61.652432 53.851264 
L 61.649778 53.663549 
L 61.646712 53.475833 
L 61.643343 53.288118 
L 61.63978 53.100403 
L 61.636134 52.912687 
L 61.632519 52.724972 
L 61.629047 52.537257 
L 61.625828 52.349542 
L 61.622968 52.161826 
L 61.620568 51.974111 
L 61.618724 51.786396 
L 61.617524 51.59868 
L 61.617048 51.410965 
L 61.617368 51.22325 
L 61.618545 51.035535 
L 61.620633 50.847819 
L 61.623676 50.660104 
L 61.627707 50.472389 
L 61.632754 50.284673 
L 61.638833 50.096958 
L 61.645955 49.909243 
L 61.654124 49.721528 
L 61.663339 49.533812 
L 61.673596 49.346097 
L 61.684887 49.158382 
L 61.697205 48.970666 
L 61.710544 48.782951 
L 61.724899 48.595236 
L 61.74027 48.407521 
L 61.756662 48.219805 
L 61.774087 48.03209 
L 61.792568 47.844375 
L 61.812133 47.656659 
L 61.832825 47.468944 
L 61.854696 47.281229 
L 61.87781 47.093514 
L 61.902244 46.905798 
L 61.928087 46.718083 
L 61.95544 46.530368 
L 61.984416 46.342652 
L 62.015139 46.154937 
L 62.047742 45.967222 
L 62.082368 45.779507 
L 62.119165 45.591791 
L 62.158286 45.404076 
L 62.19989 45.216361 
L 62.244135 45.028646 
L 62.291176 44.84093 
L 62.341167 44.653215 
L 62.394255 44.4655 
L 62.450576 44.277784 
L 62.510258 44.090069 
L 62.573412 43.902354 
L 62.640133 43.714639 
L 62.710498 43.526923 
L 62.784562 43.339208 
L 62.862359 43.151493 
L 62.943894 42.963777 
L 63.029148 42.776062 
L 63.118074 42.588347 
L 63.210595 42.400632 
L 63.306605 42.212916 
L 63.405967 42.025201 
L 63.508514 41.837486 
L 63.61405 41.64977 
L 63.722348 41.462055 
L 63.833154 41.27434 
L 63.946187 41.086625 
L 64.061141 40.898909 
L 64.177687 40.711194 
L 64.295476 40.523479 
L 64.414141 40.335763 
L 64.533303 40.148048 
L 64.652569 39.960333 
L 64.771543 39.772618 
L 64.889823 39.584902 
L 65.00701 39.397187 
L 65.122711 39.209472 
L 65.236544 39.021756 
L 65.34814 38.834041 
L 65.45715 38.646326 
L 65.563252 38.458611 
L 65.666148 38.270895 
L 65.765576 38.08318 
L 65.861309 37.895465 
L 65.953161 37.707749 
L 66.04099 37.520034 
L 66.124699 37.332319 
L 66.204242 37.144604 
L 66.279622 36.956888 
L 66.350895 36.769173 
L 66.41817 36.581458 
L 66.481606 36.393743 
L 66.541419 36.206027 
L 66.597871 36.018312 
L 66.651277 35.830597 
L 66.701994 35.642881 
L 66.750426 35.455166 
L 66.797013 35.267451 
L 66.842231 35.079736 
L 66.886586 34.89202 
L 66.930607 34.704305 
L 66.974842 34.51659 
L 67.019851 34.328874 
L 67.066202 34.141159 
L 67.114457 33.953444 
L 67.165176 33.765729 
L 67.218902 33.578013 
L 67.276158 33.390298 
L 67.337438 33.202583 
L 67.403206 33.014867 
L 67.473884 32.827152 
L 67.549849 32.639437 
L 67.63143 32.451722 
L 67.718899 32.264006 
L 67.81247 32.076291 
L 67.912295 31.888576 
L 68.018462 31.70086 
L 68.130989 31.513145 
L 68.249829 31.32543 
L 68.374863 31.137715 
L 68.505902 30.949999 
L 68.642692 30.762284 
L 68.784906 30.574569 
L 68.932157 30.386853 
L 69.083991 30.199138 
L 69.239899 30.011423 
L 69.399313 29.823708 
L 69.561617 29.635992 
L 69.726149 29.448277 
L 69.892206 29.260562 
L 70.059051 29.072846 
L 70.22592 28.885131 
L 70.392028 28.697416 
L 70.556574 28.509701 
L 70.71875 28.321985 
L 70.877747 28.13427 
L 71.03276 27.946555 
L 71.182998 27.75884 
L 71.327684 27.571124 
L 71.466071 27.383409 
L 71.597436 27.195694 
L 71.721092 27.007978 
L 71.836394 26.820263 
L 71.942734 26.632548 
L 72.039556 26.444833 
L 72.12635 26.257117 
L 72.202656 26.069402 
L 72.268069 25.881687 
L 72.322236 25.693971 
L 72.364857 25.506256 
L 72.395687 25.318541 
L 72.414532 25.130826 
L 72.42125 24.94311 
L 72.415748 24.755395 
L 72.397982 24.56768 
L 72.367953 24.379964 
L 72.325705 24.192249 
L 72.271322 24.004534 
L 72.20493 23.816819 
L 72.126686 23.629103 
L 72.036785 23.441388 
L 71.93545 23.253673 
L 71.822937 23.065957 
L 71.699527 22.878242 
L 71.565527 22.690527 
L 71.42127 22.502812 
L 71.267111 22.315096 
L 71.103429 22.127381 
L 70.930623 21.939666 
L 70.749114 21.75195 
L 70.559343 21.564235 
L 70.361771 21.37652 
L 70.156878 21.188805 
L 69.945164 21.001089 
L 69.727147 20.813374 
L 69.503362 20.625659 
L 69.27436 20.437943 
L 69.040711 20.250228 
L 68.802995 20.062513 
L 68.561807 19.874798 
L 68.317754 19.687082 
L 68.071449 19.499367 
L 67.823513 19.311652 
L 67.574571 19.123937 
L 67.325247 18.936221 
L 67.076165 18.748506 
L 66.827942 18.560791 
L 66.581186 18.373075 
L 66.336492 18.18536 
L 66.094441 17.997645 
L 65.855593 17.80993 
L 61.17125 17.80993 
z
" clip-path="url(#p63bbcbc646)" style="fill: #cd5c5c; opacity: 0.2"/>
   </g>
   <g id="matplotlib.axis_1">
    <g id="xtick_1">
     <g id="line2d_2">
      <defs>
       <path id="m5011799cf8" d="M 0 0 
L 0 -4 
" style="stroke: #000000; stroke-width: 0.5"/>
      </defs>
      <g>
       <use xlink:href="#m5011799cf8" x="40.92125" y="85.07625" style="stroke: #000000; stroke-width: 0.5"/>
      </g>
     </g>
     <g id="text_1">
      <text style="font-size: 8px; font-family: 'Arial'; text-anchor: middle" x="40.92125" y="94.3025" transform="rotate(-0 40.92125 94.3025)">Gain</text>
     </g>
    </g>
    <g id="xtick_2">
     <g id="line2d_3">
      <g>
       <use xlink:href="#m5011799cf8" x="61.17125" y="85.07625" style="stroke: #000000; stroke-width: 0.5"/>
      </g>
     </g>
     <g id="text_2">
      <text style="font-size: 8px; font-family: 'Arial'; text-anchor: middle" x="61.17125" y="94.3025" transform="rotate(-0 61.17125 94.3025)">Loss</text>
     </g>
    </g>
   </g>
   <g id="matplotlib.axis_2">
    <g id="ytick_1">
     <g id="line2d_4">
      <defs>
       <path id="mc1c0df9a4f" d="M 0 0 
L 4 0 
" style="stroke: #000000; stroke-width: 0.5"/>
      </defs>
      <g>
       <use xlink:href="#mc1c0df9a4f" x="24.04625" y="85.07625" style="stroke: #000000; stroke-width: 0.5"/>
      </g>
     </g>
     <g id="text_3">
      <text style="font-size: 8px; font-family: 'Arial'; text-anchor: end" x="20.54625" y="87.939375" transform="rotate(-0 20.54625 87.939375)">0</text>
     </g>
    </g>
    <g id="ytick_2">
     <g id="line2d_5">
      <g>
       <use xlink:href="#mc1c0df9a4f" x="24.04625" y="67.7172" style="stroke: #000000; stroke-width: 0.5"/>
      </g>
     </g>
     <g id="text_4">
      <text style="font-size: 8px; font-family: 'Arial'; text-anchor: end" x="20.54625" y="70.580325" transform="rotate(-0 20.54625 70.580325)">25</text>
     </g>
    </g>
    <g id="ytick_3">
     <g id="line2d_6">
      <g>
       <use xlink:href="#mc1c0df9a4f" x="24.04625" y="50.358149" style="stroke: #000000; stroke-width: 0.5"/>
      </g>
     </g>
     <g id="text_5">
      <text style="font-size: 8px; font-family: 'Arial'; text-anchor: end" x="20.54625" y="53.221274" transform="rotate(-0 20.54625 53.221274)">50</text>
     </g>
    </g>
    <g id="ytick_4">
     <g id="line2d_7">
      <g>
       <use xlink:href="#mc1c0df9a4f" x="24.04625" y="32.999099" style="stroke: #000000; stroke-width: 0.5"/>
      </g>
     </g>
     <g id="text_6">
      <text style="font-size: 8px; font-family: 'Arial'; text-anchor: end" x="20.54625" y="35.862224" transform="rotate(-0 20.54625 35.862224)">75</text>
     </g>
    </g>
    <g id="ytick_5">
     <g id="line2d_8">
      <g>
       <use xlink:href="#mc1c0df9a4f" x="24.04625" y="15.640048" style="stroke: #000000; stroke-width: 0.5"/>
      </g>
     </g>
     <g id="text_7">
      <text style="font-size: 8px; font-family: 'Arial'; text-anchor: end" x="20.54625" y="18.503173" transform="rotate(-0 20.54625 18.503173)">100</text>
     </g>
    </g>
   </g>
   <g id="patch_5">
    <path d="M 40.92125 31.149127 
L 33.529853 31.149127 
L 33.521694 31.121033 
L 33.513342 31.092939 
L 33.504428 31.064845 
L 33.495515 31.036751 
L 33.486602 31.008657 
L 33.477688 30.980562 
L 33.468775 30.952468 
L 33.459862 30.924374 
L 33.450948 30.89628 
L 33.442035 30.868186 
L 33.433055 30.840092 
L 33.423359 30.811998 
L 33.413662 30.783904 
L 33.403966 30.755809 
L 33.39427 30.727715 
L 33.384573 30.699621 
L 33.374877 30.671527 
L 33.36518 30.643433 
L 33.355484 30.615339 
L 33.345787 30.587245 
L 33.33536 30.559151 
L 33.324862 30.531056 
L 33.314365 30.502962 
L 33.303868 30.474868 
L 33.29337 30.446774 
L 33.282873 30.41868 
L 33.272375 30.390586 
L 33.261878 30.362492 
L 33.251381 30.334398 
L 33.240285 30.306303 
L 33.22898 30.278209 
L 33.217675 30.250115 
L 33.20637 30.222021 
L 33.195066 30.193927 
L 33.183761 30.165833 
L 33.172456 30.137739 
L 33.161152 30.109645 
L 33.149847 30.08155 
L 33.138085 30.053456 
L 33.125978 30.025362 
L 33.113871 29.997268 
L 33.101765 29.969174 
L 33.089658 29.94108 
L 33.077551 29.912986 
L 33.065444 29.884892 
L 33.053337 29.856797 
L 33.041231 29.828703 
L 33.028811 29.800609 
L 33.015919 29.772515 
L 33.003028 29.744421 
L 32.990136 29.716327 
L 32.977244 29.688233 
L 32.964352 29.660139 
L 32.95146 29.632044 
L 32.938568 29.60395 
L 32.925677 29.575856 
L 32.912613 29.547762 
L 32.898965 29.519668 
L 32.885317 29.491574 
L 32.871669 29.46348 
L 32.85802 29.435386 
L 32.844372 29.407291 
L 32.830724 29.379197 
L 32.817076 29.351103 
L 32.803427 29.323009 
L 32.78974 29.294915 
L 32.775375 29.266821 
L 32.761011 29.238727 
L 32.746646 29.210633 
L 32.732282 29.182538 
L 32.717917 29.154444 
L 32.703553 29.12635 
L 32.689188 29.098256 
L 32.674824 29.070162 
L 32.660459 29.042068 
L 32.645507 29.013974 
L 32.630477 28.98588 
L 32.615448 28.957785 
L 32.600418 28.929691 
L 32.585388 28.901597 
L 32.570358 28.873503 
L 32.555329 28.845409 
L 32.540299 28.817315 
L 32.525269 28.789221 
L 32.50981 28.761126 
L 32.494177 28.733032 
L 32.478544 28.704938 
L 32.46291 28.676844 
L 32.447277 28.64875 
L 32.431644 28.620656 
L 32.416011 28.592562 
L 32.400377 28.564468 
L 32.384744 28.536373 
L 32.368824 28.508279 
L 32.352658 28.480185 
L 32.336493 28.452091 
L 32.320328 28.423997 
L 32.304163 28.395903 
L 32.287997 28.367809 
L 32.271832 28.339715 
L 32.255667 28.31162 
L 32.239502 28.283526 
L 32.22317 28.255432 
L 32.206554 28.227338 
L 32.189937 28.199244 
L 32.17332 28.17115 
L 32.156704 28.143056 
L 32.140087 28.114962 
L 32.123471 28.086867 
L 32.106854 28.058773 
L 32.090238 28.030679 
L 32.07355 28.002585 
L 32.056571 27.974491 
L 32.039592 27.946397 
L 32.022613 27.918303 
L 32.005634 27.890209 
L 31.988655 27.862114 
L 31.971676 27.83402 
L 31.954697 27.805926 
L 31.937718 27.777832 
L 31.920733 27.749738 
L 31.903488 27.721644 
L 31.886243 27.69355 
L 31.868998 27.665456 
L 31.851754 27.637361 
L 31.834509 27.609267 
L 31.817264 27.581173 
L 31.800019 27.553079 
L 31.782775 27.524985 
L 31.76553 27.496891 
L 31.748146 27.468797 
L 31.730738 27.440703 
L 31.713331 27.412608 
L 31.695923 27.384514 
L 31.678515 27.35642 
L 31.661107 27.328326 
L 31.6437 27.300232 
L 31.626292 27.272138 
L 31.608884 27.244044 
L 31.591439 27.21595 
L 31.573977 27.187855 
L 31.556515 27.159761 
L 31.539053 27.131667 
L 31.521591 27.103573 
L 31.504129 27.075479 
L 31.486666 27.047385 
L 31.469204 27.019291 
L 31.451742 26.991197 
L 31.43431 26.963102 
L 31.416906 26.935008 
L 31.399502 26.906914 
L 31.382099 26.87882 
L 31.364695 26.850726 
L 31.347291 26.822632 
L 31.329888 26.794538 
L 31.312484 26.766444 
L 31.29508 26.738349 
L 31.277736 26.710255 
L 31.260507 26.682161 
L 31.243278 26.654067 
L 31.22605 26.625973 
L 31.208821 26.597879 
L 31.191592 26.569785 
L 31.174364 26.54169 
L 31.157135 26.513596 
L 31.139906 26.485502 
L 31.122727 26.457408 
L 31.105792 26.429314 
L 31.088857 26.40122 
L 31.071923 26.373126 
L 31.054988 26.345032 
L 31.038053 26.316937 
L 31.021118 26.288843 
L 31.004184 26.260749 
L 30.987249 26.232655 
L 30.970314 26.204561 
L 30.953792 26.176467 
L 30.937272 26.148373 
L 30.920751 26.120279 
L 30.904231 26.092184 
L 30.887711 26.06409 
L 30.87119 26.035996 
L 30.85467 26.007902 
L 30.83815 25.979808 
L 30.821629 25.951714 
L 30.80555 25.92362 
L 30.789566 25.895526 
L 30.773581 25.867431 
L 30.757596 25.839337 
L 30.741611 25.811243 
L 30.725626 25.783149 
L 30.709641 25.755055 
L 30.693656 25.726961 
L 30.677671 25.698867 
L 30.662115 25.670773 
L 30.646786 25.642678 
L 30.631457 25.614584 
L 30.616128 25.58649 
L 30.600799 25.558396 
L 40.92125 25.558396 
z
" clip-path="url(#p63bbcbc646)" style="fill: #228b22; opacity: 0.4"/>
   </g>
   <g id="patch_6">
    <path d="M 29.67125 31.149127 
L 40.92125 31.149127 
L 40.92125 25.558396 
L 29.67125 25.558396 
L 29.67125 31.149127 
z
" style="fill: none; stroke: #228b22; stroke-width: 0.85; stroke-linejoin: miter"/>
   </g>
   <g id="patch_7">
    <path d="M 61.17125 30.826899 
L 68.595606 30.826899 
L 68.611534 30.805041 
L 68.627463 30.783183 
L 68.643419 30.761324 
L 68.659979 30.739466 
L 68.676539 30.717607 
L 68.693099 30.695749 
L 68.709659 30.673891 
L 68.726219 30.652032 
L 68.742779 30.630174 
L 68.759339 30.608316 
L 68.775899 30.586457 
L 68.792727 30.564599 
L 68.809873 30.542741 
L 68.82702 30.520882 
L 68.844166 30.499024 
L 68.861313 30.477165 
L 68.878459 30.455307 
L 68.895606 30.433449 
L 68.912752 30.41159 
L 68.929899 30.389732 
L 68.947509 30.367874 
L 68.965189 30.346015 
L 68.982869 30.324157 
L 69.000549 30.302298 
L 69.01823 30.28044 
L 69.03591 30.258582 
L 69.05359 30.236723 
L 69.071271 30.214865 
L 69.089084 30.193007 
L 69.107238 30.171148 
L 69.125393 30.14929 
L 69.143548 30.127432 
L 69.161702 30.105573 
L 69.179857 30.083715 
L 69.198011 30.061856 
L 69.216166 30.039998 
L 69.23432 30.01814 
L 69.252758 29.996281 
L 69.271321 29.974423 
L 69.289883 29.952565 
L 69.308446 29.930706 
L 69.327009 29.908848 
L 69.345572 29.88699 
L 69.364135 29.865131 
L 69.382698 29.843273 
L 69.401296 29.821414 
L 69.420195 29.799556 
L 69.439095 29.777698 
L 69.457994 29.755839 
L 69.476894 29.733981 
L 69.495793 29.712123 
L 69.514692 29.690264 
L 69.533592 29.668406 
L 69.552491 29.646548 
L 69.571525 29.624689 
L 69.590683 29.602831 
L 69.609842 29.580972 
L 69.629001 29.559114 
L 69.64816 29.537256 
L 69.667318 29.515397 
L 69.686477 29.493539 
L 69.705636 29.471681 
L 69.724795 29.449822 
L 69.744118 29.427964 
L 69.763455 29.406105 
L 69.782791 29.384247 
L 69.802127 29.362389 
L 69.821464 29.34053 
L 69.8408 29.318672 
L 69.860136 29.296814 
L 69.879473 29.274955 
L 69.89884 29.253097 
L 69.918269 29.231239 
L 69.937697 29.20938 
L 69.957125 29.187522 
L 69.976553 29.165663 
L 69.995981 29.143805 
L 70.015409 29.121947 
L 70.034838 29.100088 
L 70.054266 29.07823 
L 70.073696 29.056372 
L 70.093127 29.034513 
L 70.112558 29.012655 
L 70.131989 28.990797 
L 70.15142 28.968938 
L 70.170851 28.94708 
L 70.190282 28.925221 
L 70.209713 28.903363 
L 70.229129 28.881505 
L 70.248471 28.859646 
L 70.267814 28.837788 
L 70.287156 28.81593 
L 70.306498 28.794071 
L 70.325841 28.772213 
L 70.345183 28.750354 
L 70.364525 28.728496 
L 70.383868 28.706638 
L 70.403105 28.684779 
L 70.422265 28.662921 
L 70.441426 28.641063 
L 70.460586 28.619204 
L 70.479747 28.597346 
L 70.498907 28.575488 
L 70.518068 28.553629 
L 70.537228 28.531771 
L 70.556389 28.509912 
L 70.575276 28.488054 
L 70.59416 28.466196 
L 70.613045 28.444337 
L 70.631929 28.422479 
L 70.650814 28.400621 
L 70.669698 28.378762 
L 70.688583 28.356904 
L 70.707467 28.335046 
L 70.726203 28.313187 
L 70.744717 28.291329 
L 70.763231 28.26947 
L 70.781745 28.247612 
L 70.80026 28.225754 
L 70.818774 28.203895 
L 70.837288 28.182037 
L 70.855802 28.160179 
L 70.874317 28.13832 
L 70.892453 28.116462 
L 70.910503 28.094603 
L 70.928554 28.072745 
L 70.946604 28.050887 
L 70.964655 28.029028 
L 70.982705 28.00717 
L 71.000755 27.985312 
L 71.018806 27.963453 
L 71.03673 27.941595 
L 71.054224 27.919737 
L 71.071719 27.897878 
L 71.089213 27.87602 
L 71.106707 27.854161 
L 71.124201 27.832303 
L 71.141696 27.810445 
L 71.15919 27.788586 
L 71.176684 27.766728 
L 71.193765 27.74487 
L 71.210613 27.723011 
L 71.227461 27.701153 
L 71.244309 27.679295 
L 71.261157 27.657436 
L 71.278005 27.635578 
L 71.294853 27.613719 
L 71.311701 27.591861 
L 71.328511 27.570003 
L 71.344626 27.548144 
L 71.36074 27.526286 
L 71.376854 27.504428 
L 71.392968 27.482569 
L 71.409083 27.460711 
L 71.425197 27.438853 
L 71.441311 27.416994 
L 71.457426 27.395136 
L 71.473161 27.373277 
L 71.488458 27.351419 
L 71.503754 27.329561 
L 71.519051 27.307702 
L 71.534348 27.285844 
L 71.549644 27.263986 
L 71.564941 27.242127 
L 71.580238 27.220269 
L 71.595534 27.19841 
L 71.610045 27.176552 
L 71.624444 27.154694 
L 71.638843 27.132835 
L 71.653242 27.110977 
L 71.667641 27.089119 
L 71.682041 27.06726 
L 71.69644 27.045402 
L 71.710839 27.023544 
L 71.724958 27.001685 
L 71.738384 26.979827 
L 71.75181 26.957968 
L 71.765236 26.93611 
L 71.778662 26.914252 
L 71.792089 26.892393 
L 71.805515 26.870535 
L 71.818941 26.848677 
L 71.832367 26.826818 
L 71.845063 26.80496 
L 71.857446 26.783102 
L 71.869828 26.761243 
L 71.882211 26.739385 
L 71.894594 26.717526 
L 71.906977 26.695668 
L 71.919359 26.67381 
L 71.931742 26.651951 
L 71.944001 26.630093 
L 71.955275 26.608235 
L 71.966549 26.586376 
L 71.977824 26.564518 
L 71.989098 26.542659 
L 72.000372 26.520801 
L 72.011647 26.498943 
L 72.022921 26.477084 
L 61.17125 26.477084 
z
" clip-path="url(#p63bbcbc646)" style="fill: #cd5c5c; opacity: 0.4"/>
   </g>
   <g id="patch_8">
    <path d="M 61.17125 30.826899 
L 72.42125 30.826899 
L 72.42125 26.477084 
L 61.17125 26.477084 
L 61.17125 30.826899 
z
" style="fill: none; stroke: #cd5c5c; stroke-width: 0.85; stroke-linejoin: miter"/>
   </g>
   <g id="line2d_9">
    <path d="M 44.29625 22.049544 
L 57.79625 26.322541 
" clip-path="url(#p63bbcbc646)" style="fill: none; stroke: #999999; stroke-opacity: 0.8; stroke-width: 0.3; stroke-linecap: square"/>
   </g>
   <g id="line2d_10">
    <path d="M 44.29625 47.687526 
L 57.79625 26.322541 
" clip-path="url(#p63bbcbc646)" style="fill: none; stroke: #999999; stroke-opacity: 0.8; stroke-width: 0.3; stroke-linecap: square"/>
   </g>
   <g id="line2d_11">
    <path d="M 44.29625 25.254292 
L 57.79625 26.322541 
" clip-path="url(#p63bbcbc646)" style="fill: none; stroke: #999999; stroke-opacity: 0.8; stroke-width: 0.3; stroke-linecap: square"/>
   </g>
   <g id="line2d_12">
    <path d="M 44.29625 29.527289 
L 57.79625 23.117793 
" clip-path="url(#p63bbcbc646)" style="fill: none; stroke: #999999; stroke-opacity: 0.8; stroke-width: 0.3; stroke-linecap: square"/>
   </g>
   <g id="line2d_13">
    <path d="M 44.29625 20.981295 
L 57.79625 26.322541 
" clip-path="url(#p63bbcbc646)" style="fill: none; stroke: #999999; stroke-opacity: 0.8; stroke-width: 0.3; stroke-linecap: square"/>
   </g>
   <g id="line2d_14">
    <path d="M 44.29625 26.322541 
L 57.79625 34.868535 
" clip-path="url(#p63bbcbc646)" style="fill: none; stroke: #999999; stroke-opacity: 0.8; stroke-width: 0.3; stroke-linecap: square"/>
   </g>
   <g id="line2d_15">
    <path d="M 44.29625 18.844796 
L 57.79625 25.254292 
" clip-path="url(#p63bbcbc646)" style="fill: none; stroke: #999999; stroke-opacity: 0.8; stroke-width: 0.3; stroke-linecap: square"/>
   </g>
   <g id="line2d_16">
    <path d="M 44.29625 20.981295 
L 57.79625 27.39079 
" clip-path="url(#p63bbcbc646)" style="fill: none; stroke: #999999; stroke-opacity: 0.8; stroke-width: 0.3; stroke-linecap: square"/>
   </g>
   <g id="line2d_17">
    <path d="M 44.29625 20.981295 
L 57.79625 31.663787 
" clip-path="url(#p63bbcbc646)" style="fill: none; stroke: #999999; stroke-opacity: 0.8; stroke-width: 0.3; stroke-linecap: square"/>
   </g>
   <g id="line2d_18">
    <path d="M 44.29625 19.913045 
L 57.79625 31.663787 
" clip-path="url(#p63bbcbc646)" style="fill: none; stroke: #999999; stroke-opacity: 0.8; stroke-width: 0.3; stroke-linecap: square"/>
   </g>
   <g id="line2d_19">
    <path d="M 44.29625 34.868535 
L 57.79625 41.27803 
" clip-path="url(#p63bbcbc646)" style="fill: none; stroke: #999999; stroke-opacity: 0.8; stroke-width: 0.3; stroke-linecap: square"/>
   </g>
   <g id="line2d_20">
    <path d="M 44.29625 37.005033 
L 57.79625 29.527289 
" clip-path="url(#p63bbcbc646)" style="fill: none; stroke: #999999; stroke-opacity: 0.8; stroke-width: 0.3; stroke-linecap: square"/>
   </g>
   <g id="line2d_21">
    <path d="M 44.29625 20.981295 
L 57.79625 19.913045 
" clip-path="url(#p63bbcbc646)" style="fill: none; stroke: #999999; stroke-opacity: 0.8; stroke-width: 0.3; stroke-linecap: square"/>
   </g>
   <g id="line2d_22">
    <path d="M 44.29625 34.868535 
L 57.79625 22.049544 
" clip-path="url(#p63bbcbc646)" style="fill: none; stroke: #999999; stroke-opacity: 0.8; stroke-width: 0.3; stroke-linecap: square"/>
   </g>
   <g id="line2d_23">
    <path d="M 44.29625 27.39079 
L 57.79625 20.981295 
" clip-path="url(#p63bbcbc646)" style="fill: none; stroke: #999999; stroke-opacity: 0.8; stroke-width: 0.3; stroke-linecap: square"/>
   </g>
   <g id="line2d_24">
    <path d="M 44.29625 34.868535 
L 57.79625 35.936784 
" clip-path="url(#p63bbcbc646)" style="fill: none; stroke: #999999; stroke-opacity: 0.8; stroke-width: 0.3; stroke-linecap: square"/>
   </g>
   <g id="line2d_25">
    <path d="M 44.29625 35.936784 
L 57.79625 37.005033 
" clip-path="url(#p63bbcbc646)" style="fill: none; stroke: #999999; stroke-opacity: 0.8; stroke-width: 0.3; stroke-linecap: square"/>
   </g>
   <g id="line2d_26">
    <path d="M 44.29625 30.595538 
L 57.79625 25.254292 
" clip-path="url(#p63bbcbc646)" style="fill: none; stroke: #999999; stroke-opacity: 0.8; stroke-width: 0.3; stroke-linecap: square"/>
   </g>
   <g id="line2d_27">
    <path d="M 44.29625 25.254292 
L 57.79625 20.981295 
" clip-path="url(#p63bbcbc646)" style="fill: none; stroke: #999999; stroke-opacity: 0.8; stroke-width: 0.3; stroke-linecap: square"/>
   </g>
   <g id="line2d_28">
    <path d="M 44.29625 18.844796 
L 57.79625 18.844796 
" clip-path="url(#p63bbcbc646)" style="fill: none; stroke: #999999; stroke-opacity: 0.8; stroke-width: 0.3; stroke-linecap: square"/>
   </g>
   <g id="line2d_29">
    <path d="M 44.29625 32.732036 
L 57.79625 20.981295 
" clip-path="url(#p63bbcbc646)" style="fill: none; stroke: #999999; stroke-opacity: 0.8; stroke-width: 0.3; stroke-linecap: square"/>
   </g>
   <g id="line2d_30">
    <path d="M 44.29625 26.322541 
L 57.79625 23.117793 
" clip-path="url(#p63bbcbc646)" style="fill: none; stroke: #999999; stroke-opacity: 0.8; stroke-width: 0.3; stroke-linecap: square"/>
   </g>
   <g id="line2d_31">
    <path d="M 44.29625 20.981295 
L 57.79625 22.049544 
" clip-path="url(#p63bbcbc646)" style="fill: none; stroke: #999999; stroke-opacity: 0.8; stroke-width: 0.3; stroke-linecap: square"/>
   </g>
   <g id="line2d_32">
    <path d="M 44.29625 25.254292 
L 57.79625 55.165271 
" clip-path="url(#p63bbcbc646)" style="fill: none; stroke: #999999; stroke-opacity: 0.8; stroke-width: 0.3; stroke-linecap: square"/>
   </g>
   <g id="line2d_33">
    <path d="M 44.29625 17.776547 
L 57.79625 19.913045 
" clip-path="url(#p63bbcbc646)" style="fill: none; stroke: #999999; stroke-opacity: 0.8; stroke-width: 0.3; stroke-linecap: square"/>
   </g>
   <g id="line2d_34">
    <path d="M 44.29625 37.683287 
L 57.79625 17.80993 
" clip-path="url(#p63bbcbc646)" style="fill: none; stroke: #999999; stroke-opacity: 0.8; stroke-width: 0.3; stroke-linecap: square"/>
   </g>
   <g id="line2d_35">
    <path d="M 44.29625 16.708297 
L 57.79625 35.936784 
" clip-path="url(#p63bbcbc646)" style="fill: none; stroke: #999999; stroke-opacity: 0.8; stroke-width: 0.3; stroke-linecap: square"/>
   </g>
   <g id="line2d_36">
    <path d="M 44.29625 33.800286 
L 57.79625 25.254292 
" clip-path="url(#p63bbcbc646)" style="fill: none; stroke: #999999; stroke-opacity: 0.8; stroke-width: 0.3; stroke-linecap: square"/>
   </g>
   <g id="line2d_37">
    <path d="M 44.29625 38.073283 
L 57.79625 38.073283 
" clip-path="url(#p63bbcbc646)" style="fill: none; stroke: #999999; stroke-opacity: 0.8; stroke-width: 0.3; stroke-linecap: square"/>
   </g>
   <g id="line2d_38">
    <path d="M 44.29625 35.936784 
L 57.79625 23.117793 
" clip-path="url(#p63bbcbc646)" style="fill: none; stroke: #999999; stroke-opacity: 0.8; stroke-width: 0.3; stroke-linecap: square"/>
   </g>
   <g id="line2d_39">
    <path d="M 44.29625 40.209781 
L 57.79625 35.936784 
" clip-path="url(#p63bbcbc646)" style="fill: none; stroke: #999999; stroke-opacity: 0.8; stroke-width: 0.3; stroke-linecap: square"/>
   </g>
   <g id="line2d_40">
    <path d="M 44.29625 26.322541 
L 57.79625 30.595538 
" clip-path="url(#p63bbcbc646)" style="fill: none; stroke: #999999; stroke-opacity: 0.8; stroke-width: 0.3; stroke-linecap: square"/>
   </g>
   <g id="line2d_41">
    <path d="M 44.29625 66.916013 
L 57.79625 27.39079 
" clip-path="url(#p63bbcbc646)" style="fill: none; stroke: #999999; stroke-opacity: 0.8; stroke-width: 0.3; stroke-linecap: square"/>
   </g>
   <g id="line2d_42">
    <path d="M 44.29625 24.186042 
L 57.79625 39.141532 
" clip-path="url(#p63bbcbc646)" style="fill: none; stroke: #999999; stroke-opacity: 0.8; stroke-width: 0.3; stroke-linecap: square"/>
   </g>
   <g id="line2d_43">
    <path d="M 44.29625 26.322541 
L 57.79625 25.254292 
" clip-path="url(#p63bbcbc646)" style="fill: none; stroke: #999999; stroke-opacity: 0.8; stroke-width: 0.3; stroke-linecap: square"/>
   </g>
   <g id="line2d_44">
    <path d="M 44.29625 24.186042 
L 57.79625 31.663787 
" clip-path="url(#p63bbcbc646)" style="fill: none; stroke: #999999; stroke-opacity: 0.8; stroke-width: 0.3; stroke-linecap: square"/>
   </g>
   <g id="line2d_45">
    <path d="M 44.29625 19.979811 
L 57.79625 26.322541 
" clip-path="url(#p63bbcbc646)" style="fill: none; stroke: #999999; stroke-opacity: 0.8; stroke-width: 0.3; stroke-linecap: square"/>
   </g>
   <g id="line2d_46">
    <path d="M 44.29625 16.708297 
L 57.79625 24.186042 
" clip-path="url(#p63bbcbc646)" style="fill: none; stroke: #999999; stroke-opacity: 0.8; stroke-width: 0.3; stroke-linecap: square"/>
   </g>
   <g id="line2d_47">
    <path d="M 44.29625 24.186042 
L 57.79625 34.868535 
" clip-path="url(#p63bbcbc646)" style="fill: none; stroke: #999999; stroke-opacity: 0.8; stroke-width: 0.3; stroke-linecap: square"/>
   </g>
   <g id="line2d_48">
    <path d="M 44.29625 24.186042 
L 57.79625 22.049544 
" clip-path="url(#p63bbcbc646)" style="fill: none; stroke: #999999; stroke-opacity: 0.8; stroke-width: 0.3; stroke-linecap: square"/>
   </g>
   <g id="line2d_49">
    <path d="M 44.29625 19.913045 
L 57.79625 25.254292 
" clip-path="url(#p63bbcbc646)" style="fill: none; stroke: #999999; stroke-opacity: 0.8; stroke-width: 0.3; stroke-linecap: square"/>
   </g>
   <g id="line2d_50">
    <path d="M 44.29625 40.209781 
L 57.79625 29.527289 
" clip-path="url(#p63bbcbc646)" style="fill: none; stroke: #999999; stroke-opacity: 0.8; stroke-width: 0.3; stroke-linecap: square"/>
   </g>
   <g id="line2d_51">
    <path d="M 44.29625 20.981295 
L 57.79625 35.936784 
" clip-path="url(#p63bbcbc646)" style="fill: none; stroke: #999999; stroke-opacity: 0.8; stroke-width: 0.3; stroke-linecap: square"/>
   </g>
   <g id="line2d_52">
    <path d="M 44.29625 34.868535 
L 57.79625 46.619277 
" clip-path="url(#p63bbcbc646)" style="fill: none; stroke: #999999; stroke-opacity: 0.8; stroke-width: 0.3; stroke-linecap: square"/>
   </g>
   <g id="line2d_53">
    <path d="M 44.29625 41.678624 
L 57.79625 39.141532 
" clip-path="url(#p63bbcbc646)" style="fill: none; stroke: #999999; stroke-opacity: 0.8; stroke-width: 0.3; stroke-linecap: square"/>
   </g>
   <g id="line2d_54">
    <path d="M 44.29625 18.844796 
L 57.79625 27.39079 
" clip-path="url(#p63bbcbc646)" style="fill: none; stroke: #999999; stroke-opacity: 0.8; stroke-width: 0.3; stroke-linecap: square"/>
   </g>
   <g id="line2d_55">
    <path d="M 44.29625 28.459039 
L 57.79625 23.117793 
" clip-path="url(#p63bbcbc646)" style="fill: none; stroke: #999999; stroke-opacity: 0.8; stroke-width: 0.3; stroke-linecap: square"/>
   </g>
   <g id="line2d_56">
    <path d="M 44.29625 44.482778 
L 57.79625 28.459039 
" clip-path="url(#p63bbcbc646)" style="fill: none; stroke: #999999; stroke-opacity: 0.8; stroke-width: 0.3; stroke-linecap: square"/>
   </g>
   <g id="line2d_57">
    <path d="M 44.29625 20.981295 
L 57.79625 19.913045 
" clip-path="url(#p63bbcbc646)" style="fill: none; stroke: #999999; stroke-opacity: 0.8; stroke-width: 0.3; stroke-linecap: square"/>
   </g>
   <g id="line2d_58">
    <path d="M 44.29625 15.640048 
L 57.79625 27.39079 
" clip-path="url(#p63bbcbc646)" style="fill: none; stroke: #999999; stroke-opacity: 0.8; stroke-width: 0.3; stroke-linecap: square"/>
   </g>
   <g id="patch_9">
    <path d="M 24.04625 85.07625 
L 24.04625 13.07625 
" style="fill: none; stroke: #000000; stroke-width: 0.5; stroke-linejoin: miter; stroke-linecap: square"/>
   </g>
   <g id="patch_10">
    <path d="M 24.04625 85.07625 
L 78.04625 85.07625 
" style="fill: none; stroke: #000000; stroke-width: 0.5; stroke-linejoin: miter; stroke-linecap: square"/>
   </g>
   <g id="PathCollection_1">
    <defs>
     <path id="m93d641fe26" d="M 0 1.936492 
C 0.513564 1.936492 1.006162 1.732451 1.369306 1.369306 
C 1.732451 1.006162 1.936492 0.513564 1.936492 0 
C 1.936492 -0.513564 1.732451 -1.006162 1.369306 -1.369306 
C 1.006162 -1.732451 0.513564 -1.936492 0 -1.936492 
C -0.513564 -1.936492 -1.006162 -1.732451 -1.369306 -1.369306 
C -1.732451 -1.006162 -1.936492 -0.513564 -1.936492 0 
C -1.936492 0.513564 -1.732451 1.006162 -1.369306 1.369306 
C -1.006162 1.732451 -0.513564 1.936492 0 1.936492 
z
"/>
    </defs>
    <g clip-path="url(#p63bbcbc646)">
     <use xlink:href="#m93d641fe26" x="44.29625" y="22.049544" style="fill: #228b22; fill-opacity: 0.2"/>
     <use xlink:href="#m93d641fe26" x="44.29625" y="47.687526" style="fill: #228b22; fill-opacity: 0.2"/>
     <use xlink:href="#m93d641fe26" x="44.29625" y="25.254292" style="fill: #228b22; fill-opacity: 0.2"/>
     <use xlink:href="#m93d641fe26" x="44.29625" y="29.527289" style="fill: #228b22; fill-opacity: 0.2"/>
     <use xlink:href="#m93d641fe26" x="44.29625" y="20.981295" style="fill: #228b22; fill-opacity: 0.2"/>
     <use xlink:href="#m93d641fe26" x="44.29625" y="26.322541" style="fill: #228b22; fill-opacity: 0.2"/>
     <use xlink:href="#m93d641fe26" x="44.29625" y="18.844796" style="fill: #228b22; fill-opacity: 0.2"/>
     <use xlink:href="#m93d641fe26" x="44.29625" y="20.981295" style="fill: #228b22; fill-opacity: 0.2"/>
     <use xlink:href="#m93d641fe26" x="44.29625" y="20.981295" style="fill: #228b22; fill-opacity: 0.2"/>
     <use xlink:href="#m93d641fe26" x="44.29625" y="19.913045" style="fill: #228b22; fill-opacity: 0.2"/>
     <use xlink:href="#m93d641fe26" x="44.29625" y="34.868535" style="fill: #228b22; fill-opacity: 0.2"/>
     <use xlink:href="#m93d641fe26" x="44.29625" y="37.005033" style="fill: #228b22; fill-opacity: 0.2"/>
     <use xlink:href="#m93d641fe26" x="44.29625" y="20.981295" style="fill: #228b22; fill-opacity: 0.2"/>
     <use xlink:href="#m93d641fe26" x="44.29625" y="34.868535" style="fill: #228b22; fill-opacity: 0.2"/>
     <use xlink:href="#m93d641fe26" x="44.29625" y="27.39079" style="fill: #228b22; fill-opacity: 0.2"/>
     <use xlink:href="#m93d641fe26" x="44.29625" y="34.868535" style="fill: #228b22; fill-opacity: 0.2"/>
     <use xlink:href="#m93d641fe26" x="44.29625" y="35.936784" style="fill: #228b22; fill-opacity: 0.2"/>
     <use xlink:href="#m93d641fe26" x="44.29625" y="30.595538" style="fill: #228b22; fill-opacity: 0.2"/>
     <use xlink:href="#m93d641fe26" x="44.29625" y="25.254292" style="fill: #228b22; fill-opacity: 0.2"/>
     <use xlink:href="#m93d641fe26" x="44.29625" y="18.844796" style="fill: #228b22; fill-opacity: 0.2"/>
     <use xlink:href="#m93d641fe26" x="44.29625" y="32.732036" style="fill: #228b22; fill-opacity: 0.2"/>
     <use xlink:href="#m93d641fe26" x="44.29625" y="26.322541" style="fill: #228b22; fill-opacity: 0.2"/>
     <use xlink:href="#m93d641fe26" x="44.29625" y="20.981295" style="fill: #228b22; fill-opacity: 0.2"/>
     <use xlink:href="#m93d641fe26" x="44.29625" y="25.254292" style="fill: #228b22; fill-opacity: 0.2"/>
     <use xlink:href="#m93d641fe26" x="44.29625" y="17.776547" style="fill: #228b22; fill-opacity: 0.2"/>
     <use xlink:href="#m93d641fe26" x="44.29625" y="37.683287" style="fill: #228b22; fill-opacity: 0.2"/>
     <use xlink:href="#m93d641fe26" x="44.29625" y="16.708297" style="fill: #228b22; fill-opacity: 0.2"/>
     <use xlink:href="#m93d641fe26" x="44.29625" y="33.800286" style="fill: #228b22; fill-opacity: 0.2"/>
     <use xlink:href="#m93d641fe26" x="44.29625" y="38.073283" style="fill: #228b22; fill-opacity: 0.2"/>
     <use xlink:href="#m93d641fe26" x="44.29625" y="35.936784" style="fill: #228b22; fill-opacity: 0.2"/>
     <use xlink:href="#m93d641fe26" x="44.29625" y="40.209781" style="fill: #228b22; fill-opacity: 0.2"/>
     <use xlink:href="#m93d641fe26" x="44.29625" y="26.322541" style="fill: #228b22; fill-opacity: 0.2"/>
     <use xlink:href="#m93d641fe26" x="44.29625" y="66.916013" style="fill: #228b22; fill-opacity: 0.2"/>
     <use xlink:href="#m93d641fe26" x="44.29625" y="24.186042" style="fill: #228b22; fill-opacity: 0.2"/>
     <use xlink:href="#m93d641fe26" x="44.29625" y="26.322541" style="fill: #228b22; fill-opacity: 0.2"/>
     <use xlink:href="#m93d641fe26" x="44.29625" y="24.186042" style="fill: #228b22; fill-opacity: 0.2"/>
     <use xlink:href="#m93d641fe26" x="44.29625" y="19.979811" style="fill: #228b22; fill-opacity: 0.2"/>
     <use xlink:href="#m93d641fe26" x="44.29625" y="16.708297" style="fill: #228b22; fill-opacity: 0.2"/>
     <use xlink:href="#m93d641fe26" x="44.29625" y="24.186042" style="fill: #228b22; fill-opacity: 0.2"/>
     <use xlink:href="#m93d641fe26" x="44.29625" y="24.186042" style="fill: #228b22; fill-opacity: 0.2"/>
     <use xlink:href="#m93d641fe26" x="44.29625" y="19.913045" style="fill: #228b22; fill-opacity: 0.2"/>
     <use xlink:href="#m93d641fe26" x="44.29625" y="40.209781" style="fill: #228b22; fill-opacity: 0.2"/>
     <use xlink:href="#m93d641fe26" x="44.29625" y="20.981295" style="fill: #228b22; fill-opacity: 0.2"/>
     <use xlink:href="#m93d641fe26" x="44.29625" y="34.868535" style="fill: #228b22; fill-opacity: 0.2"/>
     <use xlink:href="#m93d641fe26" x="44.29625" y="41.678624" style="fill: #228b22; fill-opacity: 0.2"/>
     <use xlink:href="#m93d641fe26" x="44.29625" y="18.844796" style="fill: #228b22; fill-opacity: 0.2"/>
     <use xlink:href="#m93d641fe26" x="44.29625" y="28.459039" style="fill: #228b22; fill-opacity: 0.2"/>
     <use xlink:href="#m93d641fe26" x="44.29625" y="44.482778" style="fill: #228b22; fill-opacity: 0.2"/>
     <use xlink:href="#m93d641fe26" x="44.29625" y="20.981295" style="fill: #228b22; fill-opacity: 0.2"/>
     <use xlink:href="#m93d641fe26" x="44.29625" y="15.640048" style="fill: #228b22; fill-opacity: 0.2"/>
    </g>
   </g>
   <g id="PathCollection_2">
    <defs>
     <path id="md922eacedf" d="M 0 1.936492 
C 0.513564 1.936492 1.006162 1.732451 1.369306 1.369306 
C 1.732451 1.006162 1.936492 0.513564 1.936492 0 
C 1.936492 -0.513564 1.732451 -1.006162 1.369306 -1.369306 
C 1.006162 -1.732451 0.513564 -1.936492 0 -1.936492 
C -0.513564 -1.936492 -1.006162 -1.732451 -1.369306 -1.369306 
C -1.732451 -1.006162 -1.936492 -0.513564 -1.936492 0 
C -1.936492 0.513564 -1.732451 1.006162 -1.369306 1.369306 
C -1.006162 1.732451 -0.513564 1.936492 0 1.936492 
z
"/>
    </defs>
    <g clip-path="url(#p63bbcbc646)">
     <use xlink:href="#md922eacedf" x="57.79625" y="26.322541" style="fill: #cd5c5c; fill-opacity: 0.2"/>
     <use xlink:href="#md922eacedf" x="57.79625" y="26.322541" style="fill: #cd5c5c; fill-opacity: 0.2"/>
     <use xlink:href="#md922eacedf" x="57.79625" y="26.322541" style="fill: #cd5c5c; fill-opacity: 0.2"/>
     <use xlink:href="#md922eacedf" x="57.79625" y="23.117793" style="fill: #cd5c5c; fill-opacity: 0.2"/>
     <use xlink:href="#md922eacedf" x="57.79625" y="26.322541" style="fill: #cd5c5c; fill-opacity: 0.2"/>
     <use xlink:href="#md922eacedf" x="57.79625" y="34.868535" style="fill: #cd5c5c; fill-opacity: 0.2"/>
     <use xlink:href="#md922eacedf" x="57.79625" y="25.254292" style="fill: #cd5c5c; fill-opacity: 0.2"/>
     <use xlink:href="#md922eacedf" x="57.79625" y="27.39079" style="fill: #cd5c5c; fill-opacity: 0.2"/>
     <use xlink:href="#md922eacedf" x="57.79625" y="31.663787" style="fill: #cd5c5c; fill-opacity: 0.2"/>
     <use xlink:href="#md922eacedf" x="57.79625" y="31.663787" style="fill: #cd5c5c; fill-opacity: 0.2"/>
     <use xlink:href="#md922eacedf" x="57.79625" y="41.27803" style="fill: #cd5c5c; fill-opacity: 0.2"/>
     <use xlink:href="#md922eacedf" x="57.79625" y="29.527289" style="fill: #cd5c5c; fill-opacity: 0.2"/>
     <use xlink:href="#md922eacedf" x="57.79625" y="19.913045" style="fill: #cd5c5c; fill-opacity: 0.2"/>
     <use xlink:href="#md922eacedf" x="57.79625" y="22.049544" style="fill: #cd5c5c; fill-opacity: 0.2"/>
     <use xlink:href="#md922eacedf" x="57.79625" y="20.981295" style="fill: #cd5c5c; fill-opacity: 0.2"/>
     <use xlink:href="#md922eacedf" x="57.79625" y="35.936784" style="fill: #cd5c5c; fill-opacity: 0.2"/>
     <use xlink:href="#md922eacedf" x="57.79625" y="37.005033" style="fill: #cd5c5c; fill-opacity: 0.2"/>
     <use xlink:href="#md922eacedf" x="57.79625" y="25.254292" style="fill: #cd5c5c; fill-opacity: 0.2"/>
     <use xlink:href="#md922eacedf" x="57.79625" y="20.981295" style="fill: #cd5c5c; fill-opacity: 0.2"/>
     <use xlink:href="#md922eacedf" x="57.79625" y="18.844796" style="fill: #cd5c5c; fill-opacity: 0.2"/>
     <use xlink:href="#md922eacedf" x="57.79625" y="20.981295" style="fill: #cd5c5c; fill-opacity: 0.2"/>
     <use xlink:href="#md922eacedf" x="57.79625" y="23.117793" style="fill: #cd5c5c; fill-opacity: 0.2"/>
     <use xlink:href="#md922eacedf" x="57.79625" y="22.049544" style="fill: #cd5c5c; fill-opacity: 0.2"/>
     <use xlink:href="#md922eacedf" x="57.79625" y="55.165271" style="fill: #cd5c5c; fill-opacity: 0.2"/>
     <use xlink:href="#md922eacedf" x="57.79625" y="19.913045" style="fill: #cd5c5c; fill-opacity: 0.2"/>
     <use xlink:href="#md922eacedf" x="57.79625" y="17.80993" style="fill: #cd5c5c; fill-opacity: 0.2"/>
     <use xlink:href="#md922eacedf" x="57.79625" y="35.936784" style="fill: #cd5c5c; fill-opacity: 0.2"/>
     <use xlink:href="#md922eacedf" x="57.79625" y="25.254292" style="fill: #cd5c5c; fill-opacity: 0.2"/>
     <use xlink:href="#md922eacedf" x="57.79625" y="38.073283" style="fill: #cd5c5c; fill-opacity: 0.2"/>
     <use xlink:href="#md922eacedf" x="57.79625" y="23.117793" style="fill: #cd5c5c; fill-opacity: 0.2"/>
     <use xlink:href="#md922eacedf" x="57.79625" y="35.936784" style="fill: #cd5c5c; fill-opacity: 0.2"/>
     <use xlink:href="#md922eacedf" x="57.79625" y="30.595538" style="fill: #cd5c5c; fill-opacity: 0.2"/>
     <use xlink:href="#md922eacedf" x="57.79625" y="27.39079" style="fill: #cd5c5c; fill-opacity: 0.2"/>
     <use xlink:href="#md922eacedf" x="57.79625" y="39.141532" style="fill: #cd5c5c; fill-opacity: 0.2"/>
     <use xlink:href="#md922eacedf" x="57.79625" y="25.254292" style="fill: #cd5c5c; fill-opacity: 0.2"/>
     <use xlink:href="#md922eacedf" x="57.79625" y="31.663787" style="fill: #cd5c5c; fill-opacity: 0.2"/>
     <use xlink:href="#md922eacedf" x="57.79625" y="26.322541" style="fill: #cd5c5c; fill-opacity: 0.2"/>
     <use xlink:href="#md922eacedf" x="57.79625" y="24.186042" style="fill: #cd5c5c; fill-opacity: 0.2"/>
     <use xlink:href="#md922eacedf" x="57.79625" y="34.868535" style="fill: #cd5c5c; fill-opacity: 0.2"/>
     <use xlink:href="#md922eacedf" x="57.79625" y="22.049544" style="fill: #cd5c5c; fill-opacity: 0.2"/>
     <use xlink:href="#md922eacedf" x="57.79625" y="25.254292" style="fill: #cd5c5c; fill-opacity: 0.2"/>
     <use xlink:href="#md922eacedf" x="57.79625" y="29.527289" style="fill: #cd5c5c; fill-opacity: 0.2"/>
     <use xlink:href="#md922eacedf" x="57.79625" y="35.936784" style="fill: #cd5c5c; fill-opacity: 0.2"/>
     <use xlink:href="#md922eacedf" x="57.79625" y="46.619277" style="fill: #cd5c5c; fill-opacity: 0.2"/>
     <use xlink:href="#md922eacedf" x="57.79625" y="39.141532" style="fill: #cd5c5c; fill-opacity: 0.2"/>
     <use xlink:href="#md922eacedf" x="57.79625" y="27.39079" style="fill: #cd5c5c; fill-opacity: 0.2"/>
     <use xlink:href="#md922eacedf" x="57.79625" y="23.117793" style="fill: #cd5c5c; fill-opacity: 0.2"/>
     <use xlink:href="#md922eacedf" x="57.79625" y="28.459039" style="fill: #cd5c5c; fill-opacity: 0.2"/>
     <use xlink:href="#md922eacedf" x="57.79625" y="19.913045" style="fill: #cd5c5c; fill-opacity: 0.2"/>
     <use xlink:href="#md922eacedf" x="57.79625" y="27.39079" style="fill: #cd5c5c; fill-opacity: 0.2"/>
    </g>
   </g>
   <g id="line2d_59">
    <path d="M 40.92125 28.353762 
L 29.67125 28.353762 
" clip-path="url(#p63bbcbc646)" style="fill: none; stroke: #000000; stroke-width: 0.85; stroke-linecap: square"/>
   </g>
   <g id="line2d_60">
    <path d="M 61.17125 28.651992 
L 72.42125 28.651992 
" clip-path="url(#p63bbcbc646)" style="fill: none; stroke: #000000; stroke-width: 0.85; stroke-linecap: square"/>
   </g>
   <g id="LineCollection_1">
    <path d="M 35.29625 29.744785 
L 35.29625 26.962739 
" clip-path="url(#p63bbcbc646)" style="fill: none; stroke: #000000; stroke-width: 0.85"/>
   </g>
   <g id="line2d_61">
    <defs>
     <path id="mcdd3b9c73c" d="M 4 0 
L -4 -0 
" style="stroke: #000000; stroke-width: 0.85"/>
    </defs>
    <g clip-path="url(#p63bbcbc646)">
     <use xlink:href="#mcdd3b9c73c" x="35.29625" y="29.744785" style="stroke: #000000; stroke-width: 0.85"/>
    </g>
   </g>
   <g id="line2d_62">
    <g clip-path="url(#p63bbcbc646)">
     <use xlink:href="#mcdd3b9c73c" x="35.29625" y="26.962739" style="stroke: #000000; stroke-width: 0.85"/>
    </g>
   </g>
   <g id="LineCollection_2">
    <path d="M 66.79625 29.734264 
L 66.79625 27.56972 
" clip-path="url(#p63bbcbc646)" style="fill: none; stroke: #000000; stroke-width: 0.85"/>
   </g>
   <g id="line2d_63">
    <g clip-path="url(#p63bbcbc646)">
     <use xlink:href="#mcdd3b9c73c" x="66.79625" y="29.734264" style="stroke: #000000; stroke-width: 0.85"/>
    </g>
   </g>
   <g id="line2d_64">
    <g clip-path="url(#p63bbcbc646)">
     <use xlink:href="#mcdd3b9c73c" x="66.79625" y="27.56972" style="stroke: #000000; stroke-width: 0.85"/>
    </g>
   </g>
   <g id="line2d_65">
    <path d="M 40.92125 11.63625 
L 61.17125 11.63625 
" style="fill: none; stroke: #000000; stroke-width: 0.5; stroke-linecap: square"/>
   </g>
   <g id="text_8">
    <text style="font-size: 8px; font-family: 'Arial'; text-anchor: middle" x="51.04625" y="12.92625" transform="rotate(-0 51.04625 12.92625)">ns</text>
   </g>
  </g>
 </g>
 <defs>
  <clipPath id="p63bbcbc646">
   <rect x="24.04625" y="13.07625" width="54" height="72"/>
  </clipPath>
 </defs>
</svg>
