<?xml version="1.0" encoding="utf-8" standalone="no"?>
<!DOCTYPE svg PUBLIC "-//W3C//DTD SVG 1.1//EN"
  "http://www.w3.org/Graphics/SVG/1.1/DTD/svg11.dtd">
<svg xmlns:xlink="http://www.w3.org/1999/xlink" width="85.24625pt" height="106.844375pt" viewBox="0 0 85.24625 106.844375" xmlns="http://www.w3.org/2000/svg" version="1.1">
 <metadata>
  <rdf:RDF xmlns:dc="http://purl.org/dc/elements/1.1/" xmlns:cc="http://creativecommons.org/ns#" xmlns:rdf="http://www.w3.org/1999/02/22-rdf-syntax-ns#">
   <cc:Work>
    <dc:type rdf:resource="http://purl.org/dc/dcmitype/StillImage"/>
    <dc:date>2026-03-04T23:12:09.621209</dc:date>
    <dc:format>image/svg+xml</dc:format>
    <dc:creator>
     <cc:Agent>
      <dc:title>Matplotlib v3.10.8, https://matplotlib.org/</dc:title>
     </cc:Agent>
    </dc:creator>
   </cc:Work>
  </rdf:RDF>
 </metadata>
 <defs>
  <style type="text/css">*{stroke-linejoin: round; stroke-linecap: butt}</style>
 </defs>
 <g id="figure_1">
  <g id="patch_1">
   <path d="M 0 106.844375 
L 85.24625 106.844375 
L 85.24625 0 
L 0 0 
z
" style="fill: #ffffff"/>
  </g>
  <g id="axes_1">
   <g id="patch_2">
    <path d="M 24.04625 88.734375 
L 78.04625 88.734375 
L 78.04625 16.734375 
L 24.04625 16.734375 
z
" style="fill: #ffffff"/>
   </g>
   <g id="line2d_1">
    <path d="M 24.04625 54.448661 
L 78.04625 54.448661 
" clip-path="url(#p78315be77d)" style="fill: none; stroke-dasharray: 2.516,1.088; stroke-dashoffset: 0; stroke: #808080; stroke-opacity: 0.5; stroke-width: 0.68"/>
   </g>
   <g id="patch_3">
    <path d="M 40.92125 88.734375 
L 40.164583 88.734375 
L 40.142626 88.389795 
L 40.120851 88.045215 
L 40.099301 87.700635 
L 40.07802 87.356055 
L 40.057051 87.011475 
L 40.036438 86.666895 
L 40.016228 86.322315 
L 39.996464 85.977735 
L 39.977193 85.633155 
L 39.95846 85.288575 
L 39.94031 84.943995 
L 39.922788 84.599414 
L 39.905939 84.254834 
L 39.889806 83.910254 
L 39.874433 83.565674 
L 39.859861 83.221094 
L 39.846129 82.876514 
L 39.833277 82.531934 
L 39.821339 82.187354 
L 39.81035 81.842774 
L 39.80034 81.498194 
L 39.791335 81.153614 
L 39.783361 80.809034 
L 39.776436 80.464454 
L 39.770576 80.119874 
L 39.765792 79.775294 
L 39.762088 79.430714 
L 39.759466 79.086134 
L 39.75792 78.741554 
L 39.757437 78.396974 
L 39.758001 78.052394 
L 39.759587 77.707814 
L 39.762163 77.363234 
L 39.765692 77.018654 
L 39.770128 76.674073 
L 39.775419 76.329493 
L 39.781505 75.984913 
L 39.788319 75.640333 
L 39.795788 75.295753 
L 39.80383 74.951173 
L 39.812358 74.606593 
L 39.821277 74.262013 
L 39.830486 73.917433 
L 39.839877 73.572853 
L 39.849339 73.228273 
L 39.858753 72.883693 
L 39.867997 72.539113 
L 39.876943 72.194533 
L 39.885461 71.849953 
L 39.893418 71.505373 
L 39.900679 71.160793 
L 39.907106 70.816213 
L 39.912562 70.471633 
L 39.91691 70.127053 
L 39.920013 69.782473 
L 39.921738 69.437893 
L 39.921954 69.093313 
L 39.920532 68.748733 
L 39.917352 68.404152 
L 39.912295 68.059572 
L 39.905253 67.714992 
L 39.896124 67.370412 
L 39.884814 67.025832 
L 39.87124 66.681252 
L 39.855328 66.336672 
L 39.837016 65.992092 
L 39.816255 65.647512 
L 39.793007 65.302932 
L 39.767248 64.958352 
L 39.738968 64.613772 
L 39.70817 64.269192 
L 39.674873 63.924612 
L 39.63911 63.580032 
L 39.600929 63.235452 
L 39.560392 62.890872 
L 39.517577 62.546292 
L 39.472574 62.201712 
L 39.425489 61.857132 
L 39.37644 61.512552 
L 39.325557 61.167972 
L 39.272982 60.823392 
L 39.218868 60.478811 
L 39.163376 60.134231 
L 39.106675 59.789651 
L 39.048942 59.445071 
L 38.990358 59.100491 
L 38.931108 58.755911 
L 38.871378 58.411331 
L 38.811355 58.066751 
L 38.751222 57.722171 
L 38.69116 57.377591 
L 38.631345 57.033011 
L 38.571944 56.688431 
L 38.513114 56.343851 
L 38.455003 55.999271 
L 38.397745 55.654691 
L 38.341458 55.310111 
L 38.286244 54.965531 
L 38.232189 54.620951 
L 38.179357 54.276371 
L 38.127794 53.931791 
L 38.077523 53.587211 
L 38.028544 53.242631 
L 37.980834 52.898051 
L 37.934349 52.55347 
L 37.889017 52.20889 
L 37.844745 51.86431 
L 37.801415 51.51973 
L 37.758886 51.17515 
L 37.716994 50.83057 
L 37.675552 50.48599 
L 37.634355 50.14141 
L 37.593175 49.79683 
L 37.55177 49.45225 
L 37.509877 49.10767 
L 37.467224 48.76309 
L 37.423522 48.41851 
L 37.378474 48.07393 
L 37.331776 47.72935 
L 37.283118 47.38477 
L 37.232188 47.04019 
L 37.178672 46.69561 
L 37.122261 46.35103 
L 37.062652 46.00645 
L 36.999549 45.66187 
L 36.932665 45.31729 
L 36.861732 44.97271 
L 36.786492 44.628129 
L 36.706711 44.283549 
L 36.622172 43.938969 
L 36.532685 43.594389 
L 36.438082 43.249809 
L 36.338225 42.905229 
L 36.233002 42.560649 
L 36.122334 42.216069 
L 36.006174 41.871489 
L 35.884505 41.526909 
L 35.757347 41.182329 
L 35.62475 40.837749 
L 35.486802 40.493169 
L 35.343624 40.148589 
L 35.195371 39.804009 
L 35.042232 39.459429 
L 34.884431 39.114849 
L 34.722221 38.770269 
L 34.555889 38.425689 
L 34.385752 38.081109 
L 34.212154 37.736529 
L 34.035467 37.391949 
L 33.85609 37.047369 
L 33.674443 36.702788 
L 33.49097 36.358208 
L 33.306134 36.013628 
L 33.120414 35.669048 
L 32.934308 35.324468 
L 32.748326 34.979888 
L 32.562989 34.635308 
L 32.378828 34.290728 
L 32.196383 33.946148 
L 32.016196 33.601568 
L 31.838815 33.256988 
L 31.66479 32.912408 
L 31.494667 32.567828 
L 31.328995 32.223248 
L 31.168313 31.878668 
L 31.01316 31.534088 
L 30.864063 31.189508 
L 30.721541 30.844928 
L 30.586104 30.500348 
L 30.458246 30.155768 
L 30.33845 29.811188 
L 30.227182 29.466608 
L 30.124889 29.122028 
L 30.032 28.777448 
L 29.948924 28.432867 
L 29.876046 28.088287 
L 29.813728 27.743707 
L 29.762305 27.399127 
L 29.722083 27.054547 
L 29.693342 26.709967 
L 29.676326 26.365387 
L 29.67125 26.020807 
L 29.678292 25.676227 
L 29.697594 25.331647 
L 29.729259 24.987067 
L 29.773352 24.642487 
L 29.829896 24.297907 
L 29.898872 23.953327 
L 29.980217 23.608747 
L 30.073825 23.264167 
L 30.179545 22.919587 
L 30.297179 22.575007 
L 30.426486 22.230427 
L 30.567178 21.885847 
L 30.718924 21.541267 
L 30.881348 21.196687 
L 31.054031 20.852107 
L 31.236513 20.507526 
L 31.428296 20.162946 
L 40.92125 20.162946 
z
" clip-path="url(#p78315be77d)" style="fill: #20590b; opacity: 0.2"/>
   </g>
   <g id="patch_4">
    <path d="M 61.17125 88.734375 
L 62.323053 88.734375 
L 62.332149 88.389795 
L 62.338944 88.045215 
L 62.343414 87.700635 
L 62.345551 87.356055 
L 62.345366 87.011475 
L 62.342885 86.666895 
L 62.338151 86.322315 
L 62.331224 85.977735 
L 62.32218 85.633155 
L 62.311109 85.288575 
L 62.29812 84.943995 
L 62.283331 84.599414 
L 62.266875 84.254834 
L 62.248899 83.910254 
L 62.229556 83.565674 
L 62.209013 83.221094 
L 62.187442 82.876514 
L 62.165021 82.531934 
L 62.141934 82.187354 
L 62.11837 81.842774 
L 62.094516 81.498194 
L 62.070562 81.153614 
L 62.046695 80.809034 
L 62.023101 80.464454 
L 61.99996 80.119874 
L 61.977448 79.775294 
L 61.95573 79.430714 
L 61.934968 79.086134 
L 61.915311 78.741554 
L 61.896899 78.396974 
L 61.879859 78.052394 
L 61.864309 77.707814 
L 61.850349 77.363234 
L 61.838071 77.018654 
L 61.82755 76.674073 
L 61.818847 76.329493 
L 61.812011 75.984913 
L 61.807075 75.640333 
L 61.804057 75.295753 
L 61.802965 74.951173 
L 61.803792 74.606593 
L 61.806517 74.262013 
L 61.81111 73.917433 
L 61.817529 73.572853 
L 61.825722 73.228273 
L 61.83563 72.883693 
L 61.847186 72.539113 
L 61.860316 72.194533 
L 61.874942 71.849953 
L 61.890985 71.505373 
L 61.908362 71.160793 
L 61.926991 70.816213 
L 61.946794 70.471633 
L 61.967693 70.127053 
L 61.989617 69.782473 
L 62.012502 69.437893 
L 62.036291 69.093313 
L 62.060938 68.748733 
L 62.086406 68.404152 
L 62.112671 68.059572 
L 62.139721 67.714992 
L 62.167561 67.370412 
L 62.196206 67.025832 
L 62.225691 66.681252 
L 62.256061 66.336672 
L 62.287381 65.992092 
L 62.31973 65.647512 
L 62.3532 65.302932 
L 62.387899 64.958352 
L 62.423949 64.613772 
L 62.461482 64.269192 
L 62.500645 63.924612 
L 62.541591 63.580032 
L 62.584483 63.235452 
L 62.62949 62.890872 
L 62.676785 62.546292 
L 62.726544 62.201712 
L 62.778943 61.857132 
L 62.834158 61.512552 
L 62.892357 61.167972 
L 62.953708 60.823392 
L 63.018365 60.478811 
L 63.086476 60.134231 
L 63.158176 59.789651 
L 63.233587 59.445071 
L 63.312813 59.100491 
L 63.395947 58.755911 
L 63.483058 58.411331 
L 63.574202 58.066751 
L 63.669413 57.722171 
L 63.768705 57.377591 
L 63.872073 57.033011 
L 63.979492 56.688431 
L 64.090918 56.343851 
L 64.206287 55.999271 
L 64.325517 55.654691 
L 64.448509 55.310111 
L 64.575147 54.965531 
L 64.705303 54.620951 
L 64.838831 54.276371 
L 64.975577 53.931791 
L 65.115375 53.587211 
L 65.258051 53.242631 
L 65.403423 52.898051 
L 65.551307 52.55347 
L 65.701512 52.20889 
L 65.853846 51.86431 
L 66.008119 51.51973 
L 66.164137 51.17515 
L 66.321713 50.83057 
L 66.480661 50.48599 
L 66.640798 50.14141 
L 66.801948 49.79683 
L 66.96394 49.45225 
L 67.126608 49.10767 
L 67.28979 48.76309 
L 67.453334 48.41851 
L 67.61709 48.07393 
L 67.780915 47.72935 
L 67.944669 47.38477 
L 68.108216 47.04019 
L 68.271425 46.69561 
L 68.434166 46.35103 
L 68.596308 46.00645 
L 68.757722 45.66187 
L 68.918278 45.31729 
L 69.077841 44.97271 
L 69.236275 44.628129 
L 69.393436 44.283549 
L 69.549178 43.938969 
L 69.703343 43.594389 
L 69.855768 43.249809 
L 70.00628 42.905229 
L 70.154694 42.560649 
L 70.300816 42.216069 
L 70.444439 41.871489 
L 70.585346 41.526909 
L 70.723305 41.182329 
L 70.858073 40.837749 
L 70.989394 40.493169 
L 71.117 40.148589 
L 71.240609 39.804009 
L 71.35993 39.459429 
L 71.47466 39.114849 
L 71.584486 38.770269 
L 71.689087 38.425689 
L 71.788133 38.081109 
L 71.881289 37.736529 
L 71.968216 37.391949 
L 72.048572 37.047369 
L 72.122015 36.702788 
L 72.188204 36.358208 
L 72.246802 36.013628 
L 72.297479 35.669048 
L 72.339913 35.324468 
L 72.373794 34.979888 
L 72.398827 34.635308 
L 72.414732 34.290728 
L 72.42125 33.946148 
L 72.418144 33.601568 
L 72.405201 33.256988 
L 72.382236 32.912408 
L 72.349095 32.567828 
L 72.305654 32.223248 
L 72.251826 31.878668 
L 72.187557 31.534088 
L 72.112833 31.189508 
L 72.027678 30.844928 
L 71.932159 30.500348 
L 71.82638 30.155768 
L 71.710489 29.811188 
L 71.584676 29.466608 
L 71.449172 29.122028 
L 71.304248 28.777448 
L 71.150214 28.432867 
L 70.987421 28.088287 
L 70.816256 27.743707 
L 70.637137 27.399127 
L 70.45052 27.054547 
L 70.256887 26.709967 
L 70.056746 26.365387 
L 69.850632 26.020807 
L 69.639097 25.676227 
L 69.422712 25.331647 
L 69.202059 24.987067 
L 68.977732 24.642487 
L 68.750328 24.297907 
L 68.520447 23.953327 
L 68.28869 23.608747 
L 68.055649 23.264167 
L 67.821909 22.919587 
L 67.588044 22.575007 
L 67.354613 22.230427 
L 67.122157 21.885847 
L 66.891196 21.541267 
L 66.662228 21.196687 
L 66.435727 20.852107 
L 66.21214 20.507526 
L 65.991885 20.162946 
L 61.17125 20.162946 
z
" clip-path="url(#p78315be77d)" style="fill: #9f3131; opacity: 0.2"/>
   </g>
   <g id="matplotlib.axis_1">
    <g id="xtick_1">
     <g id="line2d_2">
      <defs>
       <path id="mb026c21569" d="M 0 0 
L 0 -4 
" style="stroke: #000000; stroke-width: 0.5"/>
      </defs>
      <g>
       <use xlink:href="#mb026c21569" x="40.92125" y="88.734375" style="stroke: #000000; stroke-width: 0.5"/>
      </g>
     </g>
     <g id="text_1">
      <text style="font-size: 8px; font-family: 'Arial'; text-anchor: middle" x="40.92125" y="97.960625" transform="rotate(-0 40.92125 97.960625)">Positive</text>
     </g>
    </g>
    <g id="xtick_2">
     <g id="line2d_3">
      <g>
       <use xlink:href="#mb026c21569" x="61.17125" y="88.734375" style="stroke: #000000; stroke-width: 0.5"/>
      </g>
     </g>
     <g id="text_2">
      <text style="font-size: 8px; font-family: 'Arial'; text-anchor: middle" x="61.17125" y="97.960625" transform="rotate(-0 61.17125 97.960625)">Negative</text>
     </g>
    </g>
   </g>
   <g id="matplotlib.axis_2">
    <g id="ytick_1">
     <g id="line2d_4">
      <defs>
       <path id="mcb37a39812" d="M 0 0 
L 4 0 
" style="stroke: #000000; stroke-width: 0.5"/>
      </defs>
      <g>
       <use xlink:href="#mcb37a39812" x="24.04625" y="88.734375" style="stroke: #000000; stroke-width: 0.5"/>
      </g>
     </g>
     <g id="text_3">
      <text style="font-size: 8px; font-family: 'Arial'; text-anchor: end" x="20.54625" y="91.5975" transform="rotate(-0 20.54625 91.5975)">0</text>
     </g>
    </g>
    <g id="ytick_2">
     <g id="line2d_5">
      <g>
       <use xlink:href="#mcb37a39812" x="24.04625" y="71.591518" style="stroke: #000000; stroke-width: 0.5"/>
      </g>
     </g>
     <g id="text_4">
      <text style="font-size: 8px; font-family: 'Arial'; text-anchor: end" x="20.54625" y="74.454643" transform="rotate(-0 20.54625 74.454643)">25</text>
     </g>
    </g>
    <g id="ytick_3">
     <g id="line2d_6">
      <g>
       <use xlink:href="#mcb37a39812" x="24.04625" y="54.448661" style="stroke: #000000; stroke-width: 0.5"/>
      </g>
     </g>
     <g id="text_5">
      <text style="font-size: 8px; font-family: 'Arial'; text-anchor: end" x="20.54625" y="57.311786" transform="rotate(-0 20.54625 57.311786)">50</text>
     </g>
    </g>
    <g id="ytick_4">
     <g id="line2d_7">
      <g>
       <use xlink:href="#mcb37a39812" x="24.04625" y="37.305804" style="stroke: #000000; stroke-width: 0.5"/>
      </g>
     </g>
     <g id="text_6">
      <text style="font-size: 8px; font-family: 'Arial'; text-anchor: end" x="20.54625" y="40.168929" transform="rotate(-0 20.54625 40.168929)">75</text>
     </g>
    </g>
    <g id="ytick_5">
     <g id="line2d_8">
      <g>
       <use xlink:href="#mcb37a39812" x="24.04625" y="20.162946" style="stroke: #000000; stroke-width: 0.5"/>
      </g>
     </g>
     <g id="text_7">
      <text style="font-size: 8px; font-family: 'Arial'; text-anchor: end" x="20.54625" y="23.026071" transform="rotate(-0 20.54625 23.026071)">100</text>
     </g>
    </g>
   </g>
   <g id="patch_5">
    <path d="M 40.92125 39.557322 
L 35.085738 39.557322 
L 35.064123 39.508687 
L 35.042509 39.460052 
L 35.020245 39.411416 
L 34.997972 39.362781 
L 34.975699 39.314146 
L 34.953427 39.265511 
L 34.931154 39.216875 
L 34.908882 39.16824 
L 34.886609 39.119605 
L 34.863775 39.07097 
L 34.84088 39.022335 
L 34.817985 38.973699 
L 34.79509 38.925064 
L 34.772196 38.876429 
L 34.749301 38.827794 
L 34.726406 38.779159 
L 34.703036 38.730523 
L 34.679559 38.681888 
L 34.656082 38.633253 
L 34.632606 38.584618 
L 34.609129 38.535983 
L 34.585652 38.487347 
L 34.562176 38.438712 
L 34.538306 38.390077 
L 34.514292 38.341442 
L 34.490278 38.292807 
L 34.466265 38.244171 
L 34.442251 38.195536 
L 34.418237 38.146901 
L 34.394223 38.098266 
L 34.369893 38.049631 
L 34.345391 38.000995 
L 34.320889 37.95236 
L 34.296387 37.903725 
L 34.271884 37.85509 
L 34.247382 37.806454 
L 34.22288 37.757819 
L 34.198133 37.709184 
L 34.173195 37.660549 
L 34.148256 37.611914 
L 34.123318 37.563278 
L 34.09838 37.514643 
L 34.073442 37.466008 
L 34.048504 37.417373 
L 34.023385 37.368738 
L 33.998067 37.320102 
L 33.972749 37.271467 
L 33.947431 37.222832 
L 33.922113 37.174197 
L 33.896795 37.125562 
L 33.871477 37.076926 
L 33.846033 37.028291 
L 33.820395 36.979656 
L 33.794757 36.931021 
L 33.769119 36.882386 
L 33.74348 36.83375 
L 33.717842 36.785115 
L 33.692204 36.73648 
L 33.666487 36.687845 
L 33.640591 36.63921 
L 33.614694 36.590574 
L 33.588798 36.541939 
L 33.562902 36.493304 
L 33.537006 36.444669 
L 33.51111 36.396033 
L 33.485172 36.347398 
L 33.459083 36.298763 
L 33.432995 36.250128 
L 33.406906 36.201493 
L 33.380818 36.152857 
L 33.354729 36.104222 
L 33.328641 36.055587 
L 33.302535 36.006952 
L 33.276322 35.958317 
L 33.250109 35.909681 
L 33.223896 35.861046 
L 33.197683 35.812411 
L 33.17147 35.763776 
L 33.145257 35.715141 
L 33.119041 35.666505 
L 33.092773 35.61787 
L 33.066505 35.569235 
L 33.040238 35.5206 
L 33.01397 35.471965 
L 32.987703 35.423329 
L 32.961435 35.374694 
L 32.935167 35.326059 
L 32.908917 35.277424 
L 32.882666 35.228789 
L 32.856416 35.180153 
L 32.830166 35.131518 
L 32.803916 35.082883 
L 32.777666 35.034248 
L 32.751416 34.985612 
L 32.725246 34.936977 
L 32.699087 34.888342 
L 32.672928 34.839707 
L 32.646768 34.791072 
L 32.620609 34.742436 
L 32.59445 34.693801 
L 32.568291 34.645166 
L 32.542265 34.596531 
L 32.516271 34.547896 
L 32.490278 34.49926 
L 32.464285 34.450625 
L 32.438292 34.40199 
L 32.412299 34.353355 
L 32.386306 34.30472 
L 32.360486 34.256084 
L 32.334735 34.207449 
L 32.308984 34.158814 
L 32.283233 34.110179 
L 32.257482 34.061544 
L 32.231731 34.012908 
L 32.20598 33.964273 
L 32.180429 33.915638 
L 32.154996 33.867003 
L 32.129564 33.818368 
L 32.104132 33.769732 
L 32.0787 33.721097 
L 32.053268 33.672462 
L 32.027835 33.623827 
L 32.002618 33.575191 
L 31.977582 33.526556 
L 31.952546 33.477921 
L 31.92751 33.429286 
L 31.902474 33.380651 
L 31.877437 33.332015 
L 31.852401 33.28338 
L 31.827582 33.234745 
L 31.803019 33.18611 
L 31.778457 33.137475 
L 31.753894 33.088839 
L 31.729331 33.040204 
L 31.704769 32.991569 
L 31.680206 32.942934 
L 31.655849 32.894299 
L 31.631837 32.845663 
L 31.607826 32.797028 
L 31.583814 32.748393 
L 31.559802 32.699758 
L 31.535791 32.651123 
L 31.511779 32.602487 
L 31.487948 32.553852 
L 31.464564 32.505217 
L 31.441181 32.456582 
L 31.417797 32.407947 
L 31.394413 32.359311 
L 31.37103 32.310676 
L 31.347646 32.262041 
L 31.324405 32.213406 
L 31.301726 32.16477 
L 31.279047 32.116135 
L 31.256368 32.0675 
L 31.233689 32.018865 
L 31.21101 31.97023 
L 31.18833 31.921594 
L 31.165743 31.872959 
L 31.143844 31.824324 
L 31.121945 31.775689 
L 31.100046 31.727054 
L 31.078147 31.678418 
L 31.056248 31.629783 
L 31.034349 31.581148 
L 31.012478 31.532513 
L 30.991434 31.483878 
L 30.97039 31.435242 
L 30.949346 31.386607 
L 30.928302 31.337972 
L 30.907258 31.289337 
L 30.886214 31.240702 
L 30.86517 31.192066 
L 30.845005 31.143431 
L 30.824889 31.094796 
L 30.804773 31.046161 
L 30.784657 30.997526 
L 30.764541 30.94889 
L 30.744425 30.900255 
L 30.724309 30.85162 
L 30.705055 30.802985 
L 30.685939 30.754349 
L 30.666823 30.705714 
L 30.647707 30.657079 
L 30.628591 30.608444 
L 30.609475 30.559809 
L 30.590359 30.511173 
L 30.572074 30.462538 
L 30.554028 30.413903 
L 30.535982 30.365268 
L 30.517936 30.316633 
L 30.499889 30.267997 
L 30.481843 30.219362 
L 30.463797 30.170727 
L 30.446538 30.122092 
L 30.42963 30.073457 
L 30.412722 30.024821 
L 30.395813 29.976186 
L 30.378905 29.927551 
L 30.361996 29.878916 
L 40.92125 29.878916 
z
" clip-path="url(#p78315be77d)" style="fill: #20590b; opacity: 0.4"/>
   </g>
   <g id="patch_6">
    <path d="M 29.67125 39.557322 
L 40.92125 39.557322 
L 40.92125 29.878916 
L 29.67125 29.878916 
L 29.67125 39.557322 
z
" style="fill: none; stroke: #20590b; stroke-width: 0.85; stroke-linejoin: miter"/>
   </g>
   <g id="patch_7">
    <path d="M 61.17125 44.505483 
L 69.292213 44.505483 
L 69.31275 44.460455 
L 69.333288 44.415426 
L 69.353825 44.370398 
L 69.374362 44.32537 
L 69.394886 44.280341 
L 69.415238 44.235313 
L 69.43559 44.190284 
L 69.455941 44.145256 
L 69.476293 44.100228 
L 69.496645 44.055199 
L 69.516996 44.010171 
L 69.537348 43.965142 
L 69.557614 43.920114 
L 69.577759 43.875086 
L 69.597905 43.830057 
L 69.618051 43.785029 
L 69.638197 43.740001 
L 69.658342 43.694972 
L 69.678488 43.649944 
L 69.698634 43.604915 
L 69.718605 43.559887 
L 69.738524 43.514859 
L 69.758442 43.46983 
L 69.77836 43.424802 
L 69.798279 43.379773 
L 69.818197 43.334745 
L 69.838115 43.289717 
L 69.858005 43.244688 
L 69.877673 43.19966 
L 69.897342 43.154631 
L 69.91701 43.109603 
L 69.936678 43.064575 
L 69.956346 43.019546 
L 69.976015 42.974518 
L 69.995683 42.92949 
L 70.015225 42.884461 
L 70.034619 42.839433 
L 70.054013 42.794404 
L 70.073407 42.749376 
L 70.092801 42.704348 
L 70.112196 42.659319 
L 70.13159 42.614291 
L 70.150984 42.569262 
L 70.170136 42.524234 
L 70.189231 42.479206 
L 70.208325 42.434177 
L 70.22742 42.389149 
L 70.246514 42.34412 
L 70.265609 42.299092 
L 70.284704 42.254064 
L 70.303747 42.209035 
L 70.322516 42.164007 
L 70.341284 42.118979 
L 70.360052 42.07395 
L 70.37882 42.028922 
L 70.397588 41.983893 
L 70.416356 41.938865 
L 70.435125 41.893837 
L 70.453714 41.848808 
L 70.472127 41.80378 
L 70.49054 41.758751 
L 70.508953 41.713723 
L 70.527367 41.668695 
L 70.54578 41.623666 
L 70.564193 41.578638 
L 70.582606 41.533609 
L 70.600691 41.488581 
L 70.618719 41.443553 
L 70.636747 41.398524 
L 70.654775 41.353496 
L 70.672803 41.308467 
L 70.690831 41.263439 
L 70.708859 41.218411 
L 70.726804 41.173382 
L 70.744415 41.128354 
L 70.762026 41.083326 
L 70.779637 41.038297 
L 70.797248 40.993269 
L 70.814859 40.94824 
L 70.83247 40.903212 
L 70.850081 40.858184 
L 70.867446 40.813155 
L 70.884607 40.768127 
L 70.901767 40.723098 
L 70.918928 40.67807 
L 70.936088 40.633042 
L 70.953249 40.588013 
L 70.970409 40.542985 
L 70.98757 40.497956 
L 71.004296 40.452928 
L 71.020971 40.4079 
L 71.037646 40.362871 
L 71.054321 40.317843 
L 71.070996 40.272815 
L 71.087671 40.227786 
L 71.104346 40.182758 
L 71.120895 40.137729 
L 71.137048 40.092701 
L 71.153201 40.047673 
L 71.169354 40.002644 
L 71.185507 39.957616 
L 71.201659 39.912587 
L 71.217812 39.867559 
L 71.233965 39.822531 
L 71.249788 39.777502 
L 71.26538 39.732474 
L 71.280973 39.687445 
L 71.296565 39.642417 
L 71.312158 39.597389 
L 71.32775 39.55236 
L 71.343343 39.507332 
L 71.358935 39.462304 
L 71.373966 39.417275 
L 71.388958 39.372247 
L 71.403951 39.327218 
L 71.418943 39.28219 
L 71.433936 39.237162 
L 71.448928 39.192133 
L 71.463921 39.147105 
L 71.478731 39.102076 
L 71.493083 39.057048 
L 71.507435 39.01202 
L 71.521786 38.966991 
L 71.536138 38.921963 
L 71.550489 38.876934 
L 71.564841 38.831906 
L 71.579193 38.786878 
L 71.593113 38.741849 
L 71.606782 38.696821 
L 71.620451 38.651793 
L 71.63412 38.606764 
L 71.647789 38.561736 
L 71.661457 38.516707 
L 71.675126 38.471679 
L 71.688795 38.426651 
L 71.701753 38.381622 
L 71.714696 38.336594 
L 71.727639 38.291565 
L 71.740582 38.246537 
L 71.753525 38.201509 
L 71.766468 38.15648 
L 71.779411 38.111452 
L 71.792103 38.066423 
L 71.804276 38.021395 
L 71.816449 37.976367 
L 71.828623 37.931338 
L 71.840796 37.88631 
L 71.852969 37.841282 
L 71.865143 37.796253 
L 71.877316 37.751225 
L 71.888941 37.706196 
L 71.9003 37.661168 
L 71.91166 37.61614 
L 71.923019 37.571111 
L 71.934378 37.526083 
L 71.945737 37.481054 
L 71.957097 37.436026 
L 71.968438 37.390998 
L 71.978939 37.345969 
L 71.989439 37.300941 
L 71.99994 37.255912 
L 72.01044 37.210884 
L 72.020941 37.165856 
L 72.031442 37.120827 
L 72.041942 37.075799 
L 72.05211 37.030771 
L 72.061707 36.985742 
L 72.071304 36.940714 
L 72.080902 36.895685 
L 72.090499 36.850657 
L 72.100096 36.805629 
L 72.109693 36.7606 
L 72.119291 36.715572 
L 72.128209 36.670543 
L 72.136858 36.625515 
L 72.145508 36.580487 
L 72.154157 36.535458 
L 72.162806 36.49043 
L 72.171455 36.445401 
L 72.180105 36.400373 
L 72.188691 36.355345 
L 72.196348 36.310316 
L 72.204006 36.265288 
L 72.211663 36.22026 
L 72.21932 36.175231 
L 72.226978 36.130203 
L 72.234635 36.085174 
L 72.242292 36.040146 
L 72.249524 35.995118 
L 72.256147 35.950089 
L 72.262769 35.905061 
L 72.269391 35.860032 
L 72.276013 35.815004 
L 72.282636 35.769976 
L 72.289258 35.724947 
L 72.29588 35.679919 
L 72.301685 35.63489 
L 72.30723 35.589862 
L 72.312775 35.544834 
L 61.17125 35.544834 
z
" clip-path="url(#p78315be77d)" style="fill: #9f3131; opacity: 0.4"/>
   </g>
   <g id="patch_8">
    <path d="M 61.17125 44.505483 
L 72.42125 44.505483 
L 72.42125 35.544834 
L 61.17125 35.544834 
L 61.17125 44.505483 
z
" style="fill: none; stroke: #9f3131; stroke-width: 0.85; stroke-linejoin: miter"/>
   </g>
   <g id="line2d_9">
    <path d="M 44.29625 22.305804 
L 57.79625 30.877232 
" clip-path="url(#p78315be77d)" style="fill: none; stroke: #999999; stroke-opacity: 0.8; stroke-width: 0.3; stroke-linecap: square"/>
   </g>
   <g id="line2d_10">
    <path d="M 44.29625 48.020089 
L 57.79625 26.591518 
" clip-path="url(#p78315be77d)" style="fill: none; stroke: #999999; stroke-opacity: 0.8; stroke-width: 0.3; stroke-linecap: square"/>
   </g>
   <g id="line2d_11">
    <path d="M 44.29625 33.020089 
L 57.79625 50.162946 
" clip-path="url(#p78315be77d)" style="fill: none; stroke: #999999; stroke-opacity: 0.8; stroke-width: 0.3; stroke-linecap: square"/>
   </g>
   <g id="line2d_12">
    <path d="M 44.29625 52.305804 
L 57.79625 35.162946 
" clip-path="url(#p78315be77d)" style="fill: none; stroke: #999999; stroke-opacity: 0.8; stroke-width: 0.3; stroke-linecap: square"/>
   </g>
   <g id="line2d_13">
    <path d="M 44.29625 26.591518 
L 57.79625 41.591518 
" clip-path="url(#p78315be77d)" style="fill: none; stroke: #999999; stroke-opacity: 0.8; stroke-width: 0.3; stroke-linecap: square"/>
   </g>
   <g id="line2d_14">
    <path d="M 44.29625 39.448661 
L 57.79625 33.020089 
" clip-path="url(#p78315be77d)" style="fill: none; stroke: #999999; stroke-opacity: 0.8; stroke-width: 0.3; stroke-linecap: square"/>
   </g>
   <g id="line2d_15">
    <path d="M 44.29625 22.305804 
L 57.79625 37.305804 
" clip-path="url(#p78315be77d)" style="fill: none; stroke: #999999; stroke-opacity: 0.8; stroke-width: 0.3; stroke-linecap: square"/>
   </g>
   <g id="line2d_16">
    <path d="M 44.29625 30.877232 
L 57.79625 28.734375 
" clip-path="url(#p78315be77d)" style="fill: none; stroke: #999999; stroke-opacity: 0.8; stroke-width: 0.3; stroke-linecap: square"/>
   </g>
   <g id="line2d_17">
    <path d="M 44.29625 22.305804 
L 57.79625 30.877232 
" clip-path="url(#p78315be77d)" style="fill: none; stroke: #999999; stroke-opacity: 0.8; stroke-width: 0.3; stroke-linecap: square"/>
   </g>
   <g id="line2d_18">
    <path d="M 44.29625 33.020089 
L 57.79625 37.305804 
" clip-path="url(#p78315be77d)" style="fill: none; stroke: #999999; stroke-opacity: 0.8; stroke-width: 0.3; stroke-linecap: square"/>
   </g>
   <g id="line2d_19">
    <path d="M 44.29625 78.020089 
L 57.79625 20.162946 
" clip-path="url(#p78315be77d)" style="fill: none; stroke: #999999; stroke-opacity: 0.8; stroke-width: 0.3; stroke-linecap: square"/>
   </g>
   <g id="line2d_20">
    <path d="M 44.29625 80.162946 
L 57.79625 88.734375 
" clip-path="url(#p78315be77d)" style="fill: none; stroke: #999999; stroke-opacity: 0.8; stroke-width: 0.3; stroke-linecap: square"/>
   </g>
   <g id="line2d_21">
    <path d="M 44.29625 28.734375 
L 57.79625 37.305804 
" clip-path="url(#p78315be77d)" style="fill: none; stroke: #999999; stroke-opacity: 0.8; stroke-width: 0.3; stroke-linecap: square"/>
   </g>
   <g id="line2d_22">
    <path d="M 44.29625 37.305804 
L 57.79625 35.162946 
" clip-path="url(#p78315be77d)" style="fill: none; stroke: #999999; stroke-opacity: 0.8; stroke-width: 0.3; stroke-linecap: square"/>
   </g>
   <g id="line2d_23">
    <path d="M 44.29625 26.591518 
L 57.79625 35.162946 
" clip-path="url(#p78315be77d)" style="fill: none; stroke: #999999; stroke-opacity: 0.8; stroke-width: 0.3; stroke-linecap: square"/>
   </g>
   <g id="line2d_24">
    <path d="M 44.29625 56.591518 
L 57.79625 43.734375 
" clip-path="url(#p78315be77d)" style="fill: none; stroke: #999999; stroke-opacity: 0.8; stroke-width: 0.3; stroke-linecap: square"/>
   </g>
   <g id="line2d_25">
    <path d="M 44.29625 22.305804 
L 57.79625 35.162946 
" clip-path="url(#p78315be77d)" style="fill: none; stroke: #999999; stroke-opacity: 0.8; stroke-width: 0.3; stroke-linecap: square"/>
   </g>
   <g id="line2d_26">
    <path d="M 44.29625 22.305804 
L 57.79625 37.305804 
" clip-path="url(#p78315be77d)" style="fill: none; stroke: #999999; stroke-opacity: 0.8; stroke-width: 0.3; stroke-linecap: square"/>
   </g>
   <g id="line2d_27">
    <path d="M 44.29625 33.020089 
L 57.79625 30.877232 
" clip-path="url(#p78315be77d)" style="fill: none; stroke: #999999; stroke-opacity: 0.8; stroke-width: 0.3; stroke-linecap: square"/>
   </g>
   <g id="line2d_28">
    <path d="M 44.29625 26.591518 
L 57.79625 26.591518 
" clip-path="url(#p78315be77d)" style="fill: none; stroke: #999999; stroke-opacity: 0.8; stroke-width: 0.3; stroke-linecap: square"/>
   </g>
   <g id="line2d_29">
    <path d="M 44.29625 88.734375 
L 57.79625 84.448661 
" clip-path="url(#p78315be77d)" style="fill: none; stroke: #999999; stroke-opacity: 0.8; stroke-width: 0.3; stroke-linecap: square"/>
   </g>
   <g id="line2d_30">
    <path d="M 44.29625 52.305804 
L 57.79625 28.734375 
" clip-path="url(#p78315be77d)" style="fill: none; stroke: #999999; stroke-opacity: 0.8; stroke-width: 0.3; stroke-linecap: square"/>
   </g>
   <g id="line2d_31">
    <path d="M 44.29625 20.162946 
L 57.79625 43.734375 
" clip-path="url(#p78315be77d)" style="fill: none; stroke: #999999; stroke-opacity: 0.8; stroke-width: 0.3; stroke-linecap: square"/>
   </g>
   <g id="line2d_32">
    <path d="M 44.29625 71.591518 
L 57.79625 48.020089 
" clip-path="url(#p78315be77d)" style="fill: none; stroke: #999999; stroke-opacity: 0.8; stroke-width: 0.3; stroke-linecap: square"/>
   </g>
   <g id="line2d_33">
    <path d="M 44.29625 30.877232 
L 57.79625 48.020089 
" clip-path="url(#p78315be77d)" style="fill: none; stroke: #999999; stroke-opacity: 0.8; stroke-width: 0.3; stroke-linecap: square"/>
   </g>
   <g id="line2d_34">
    <path d="M 44.29625 28.734375 
L 57.79625 28.734375 
" clip-path="url(#p78315be77d)" style="fill: none; stroke: #999999; stroke-opacity: 0.8; stroke-width: 0.3; stroke-linecap: square"/>
   </g>
   <g id="line2d_35">
    <path d="M 44.29625 20.162946 
L 57.79625 52.305804 
" clip-path="url(#p78315be77d)" style="fill: none; stroke: #999999; stroke-opacity: 0.8; stroke-width: 0.3; stroke-linecap: square"/>
   </g>
   <g id="line2d_36">
    <path d="M 44.29625 54.448661 
L 57.79625 20.162946 
" clip-path="url(#p78315be77d)" style="fill: none; stroke: #999999; stroke-opacity: 0.8; stroke-width: 0.3; stroke-linecap: square"/>
   </g>
   <g id="line2d_37">
    <path d="M 44.29625 30.877232 
L 57.79625 26.591518 
" clip-path="url(#p78315be77d)" style="fill: none; stroke: #999999; stroke-opacity: 0.8; stroke-width: 0.3; stroke-linecap: square"/>
   </g>
   <g id="line2d_38">
    <path d="M 44.29625 33.020089 
L 57.79625 65.162946 
" clip-path="url(#p78315be77d)" style="fill: none; stroke: #999999; stroke-opacity: 0.8; stroke-width: 0.3; stroke-linecap: square"/>
   </g>
   <g id="line2d_39">
    <path d="M 44.29625 52.305804 
L 57.79625 48.020089 
" clip-path="url(#p78315be77d)" style="fill: none; stroke: #999999; stroke-opacity: 0.8; stroke-width: 0.3; stroke-linecap: square"/>
   </g>
   <g id="line2d_40">
    <path d="M 44.29625 24.448661 
L 57.79625 30.877232 
" clip-path="url(#p78315be77d)" style="fill: none; stroke: #999999; stroke-opacity: 0.8; stroke-width: 0.3; stroke-linecap: square"/>
   </g>
   <g id="line2d_41">
    <path d="M 44.29625 48.020089 
L 57.79625 88.734375 
" clip-path="url(#p78315be77d)" style="fill: none; stroke: #999999; stroke-opacity: 0.8; stroke-width: 0.3; stroke-linecap: square"/>
   </g>
   <g id="line2d_42">
    <path d="M 44.29625 20.162946 
L 57.79625 28.734375 
" clip-path="url(#p78315be77d)" style="fill: none; stroke: #999999; stroke-opacity: 0.8; stroke-width: 0.3; stroke-linecap: square"/>
   </g>
   <g id="line2d_43">
    <path d="M 44.29625 20.162946 
L 57.79625 26.591518 
" clip-path="url(#p78315be77d)" style="fill: none; stroke: #999999; stroke-opacity: 0.8; stroke-width: 0.3; stroke-linecap: square"/>
   </g>
   <g id="line2d_44">
    <path d="M 44.29625 22.305804 
L 57.79625 41.591518 
" clip-path="url(#p78315be77d)" style="fill: none; stroke: #999999; stroke-opacity: 0.8; stroke-width: 0.3; stroke-linecap: square"/>
   </g>
   <g id="line2d_45">
    <path d="M 44.29625 22.305804 
L 57.79625 41.591518 
" clip-path="url(#p78315be77d)" style="fill: none; stroke: #999999; stroke-opacity: 0.8; stroke-width: 0.3; stroke-linecap: square"/>
   </g>
   <g id="line2d_46">
    <path d="M 44.29625 20.162946 
L 57.79625 37.305804 
" clip-path="url(#p78315be77d)" style="fill: none; stroke: #999999; stroke-opacity: 0.8; stroke-width: 0.3; stroke-linecap: square"/>
   </g>
   <g id="line2d_47">
    <path d="M 44.29625 20.162946 
L 57.79625 26.591518 
" clip-path="url(#p78315be77d)" style="fill: none; stroke: #999999; stroke-opacity: 0.8; stroke-width: 0.3; stroke-linecap: square"/>
   </g>
   <g id="line2d_48">
    <path d="M 44.29625 35.162946 
L 57.79625 43.734375 
" clip-path="url(#p78315be77d)" style="fill: none; stroke: #999999; stroke-opacity: 0.8; stroke-width: 0.3; stroke-linecap: square"/>
   </g>
   <g id="line2d_49">
    <path d="M 44.29625 28.734375 
L 57.79625 20.162946 
" clip-path="url(#p78315be77d)" style="fill: none; stroke: #999999; stroke-opacity: 0.8; stroke-width: 0.3; stroke-linecap: square"/>
   </g>
   <g id="line2d_50">
    <path d="M 44.29625 20.162946 
L 57.79625 65.162946 
" clip-path="url(#p78315be77d)" style="fill: none; stroke: #999999; stroke-opacity: 0.8; stroke-width: 0.3; stroke-linecap: square"/>
   </g>
   <g id="line2d_51">
    <path d="M 44.29625 20.162946 
L 57.79625 30.877232 
" clip-path="url(#p78315be77d)" style="fill: none; stroke: #999999; stroke-opacity: 0.8; stroke-width: 0.3; stroke-linecap: square"/>
   </g>
   <g id="line2d_52">
    <path d="M 44.29625 20.162946 
L 57.79625 30.877232 
" clip-path="url(#p78315be77d)" style="fill: none; stroke: #999999; stroke-opacity: 0.8; stroke-width: 0.3; stroke-linecap: square"/>
   </g>
   <g id="line2d_53">
    <path d="M 44.29625 34.350139 
L 57.79625 51.130688 
" clip-path="url(#p78315be77d)" style="fill: none; stroke: #999999; stroke-opacity: 0.8; stroke-width: 0.3; stroke-linecap: square"/>
   </g>
   <g id="line2d_54">
    <path d="M 44.29625 28.734375 
L 57.79625 28.734375 
" clip-path="url(#p78315be77d)" style="fill: none; stroke: #999999; stroke-opacity: 0.8; stroke-width: 0.3; stroke-linecap: square"/>
   </g>
   <g id="line2d_55">
    <path d="M 44.29625 30.877232 
L 57.79625 37.305804 
" clip-path="url(#p78315be77d)" style="fill: none; stroke: #999999; stroke-opacity: 0.8; stroke-width: 0.3; stroke-linecap: square"/>
   </g>
   <g id="line2d_56">
    <path d="M 44.29625 43.734375 
L 57.79625 39.448661 
" clip-path="url(#p78315be77d)" style="fill: none; stroke: #999999; stroke-opacity: 0.8; stroke-width: 0.3; stroke-linecap: square"/>
   </g>
   <g id="line2d_57">
    <path d="M 44.29625 30.877232 
L 57.79625 52.305804 
" clip-path="url(#p78315be77d)" style="fill: none; stroke: #999999; stroke-opacity: 0.8; stroke-width: 0.3; stroke-linecap: square"/>
   </g>
   <g id="line2d_58">
    <path d="M 44.29625 20.162946 
L 57.79625 43.734375 
" clip-path="url(#p78315be77d)" style="fill: none; stroke: #999999; stroke-opacity: 0.8; stroke-width: 0.3; stroke-linecap: square"/>
   </g>
   <g id="patch_9">
    <path d="M 24.04625 88.734375 
L 24.04625 16.734375 
" style="fill: none; stroke: #000000; stroke-width: 0.5; stroke-linejoin: miter; stroke-linecap: square"/>
   </g>
   <g id="patch_10">
    <path d="M 24.04625 88.734375 
L 78.04625 88.734375 
" style="fill: none; stroke: #000000; stroke-width: 0.5; stroke-linejoin: miter; stroke-linecap: square"/>
   </g>
   <g id="PathCollection_1">
    <defs>
     <path id="m0fcc3189be" d="M 0 1.936492 
C 0.513564 1.936492 1.006162 1.732451 1.369306 1.369306 
C 1.732451 1.006162 1.936492 0.513564 1.936492 0 
C 1.936492 -0.513564 1.732451 -1.006162 1.369306 -1.369306 
C 1.006162 -1.732451 0.513564 -1.936492 0 -1.936492 
C -0.513564 -1.936492 -1.006162 -1.732451 -1.369306 -1.369306 
C -1.732451 -1.006162 -1.936492 -0.513564 -1.936492 0 
C -1.936492 0.513564 -1.732451 1.006162 -1.369306 1.369306 
C -1.006162 1.732451 -0.513564 1.936492 0 1.936492 
z
"/>
    </defs>
    <g clip-path="url(#p78315be77d)">
     <use xlink:href="#m0fcc3189be" x="44.29625" y="22.305804" style="fill: #20590b; fill-opacity: 0.2"/>
     <use xlink:href="#m0fcc3189be" x="44.29625" y="48.020089" style="fill: #20590b; fill-opacity: 0.2"/>
     <use xlink:href="#m0fcc3189be" x="44.29625" y="33.020089" style="fill: #20590b; fill-opacity: 0.2"/>
     <use xlink:href="#m0fcc3189be" x="44.29625" y="52.305804" style="fill: #20590b; fill-opacity: 0.2"/>
     <use xlink:href="#m0fcc3189be" x="44.29625" y="26.591518" style="fill: #20590b; fill-opacity: 0.2"/>
     <use xlink:href="#m0fcc3189be" x="44.29625" y="39.448661" style="fill: #20590b; fill-opacity: 0.2"/>
     <use xlink:href="#m0fcc3189be" x="44.29625" y="22.305804" style="fill: #20590b; fill-opacity: 0.2"/>
     <use xlink:href="#m0fcc3189be" x="44.29625" y="30.877232" style="fill: #20590b; fill-opacity: 0.2"/>
     <use xlink:href="#m0fcc3189be" x="44.29625" y="22.305804" style="fill: #20590b; fill-opacity: 0.2"/>
     <use xlink:href="#m0fcc3189be" x="44.29625" y="33.020089" style="fill: #20590b; fill-opacity: 0.2"/>
     <use xlink:href="#m0fcc3189be" x="44.29625" y="78.020089" style="fill: #20590b; fill-opacity: 0.2"/>
     <use xlink:href="#m0fcc3189be" x="44.29625" y="80.162946" style="fill: #20590b; fill-opacity: 0.2"/>
     <use xlink:href="#m0fcc3189be" x="44.29625" y="28.734375" style="fill: #20590b; fill-opacity: 0.2"/>
     <use xlink:href="#m0fcc3189be" x="44.29625" y="37.305804" style="fill: #20590b; fill-opacity: 0.2"/>
     <use xlink:href="#m0fcc3189be" x="44.29625" y="26.591518" style="fill: #20590b; fill-opacity: 0.2"/>
     <use xlink:href="#m0fcc3189be" x="44.29625" y="56.591518" style="fill: #20590b; fill-opacity: 0.2"/>
     <use xlink:href="#m0fcc3189be" x="44.29625" y="22.305804" style="fill: #20590b; fill-opacity: 0.2"/>
     <use xlink:href="#m0fcc3189be" x="44.29625" y="22.305804" style="fill: #20590b; fill-opacity: 0.2"/>
     <use xlink:href="#m0fcc3189be" x="44.29625" y="33.020089" style="fill: #20590b; fill-opacity: 0.2"/>
     <use xlink:href="#m0fcc3189be" x="44.29625" y="26.591518" style="fill: #20590b; fill-opacity: 0.2"/>
     <use xlink:href="#m0fcc3189be" x="44.29625" y="88.734375" style="fill: #20590b; fill-opacity: 0.2"/>
     <use xlink:href="#m0fcc3189be" x="44.29625" y="52.305804" style="fill: #20590b; fill-opacity: 0.2"/>
     <use xlink:href="#m0fcc3189be" x="44.29625" y="20.162946" style="fill: #20590b; fill-opacity: 0.2"/>
     <use xlink:href="#m0fcc3189be" x="44.29625" y="71.591518" style="fill: #20590b; fill-opacity: 0.2"/>
     <use xlink:href="#m0fcc3189be" x="44.29625" y="30.877232" style="fill: #20590b; fill-opacity: 0.2"/>
     <use xlink:href="#m0fcc3189be" x="44.29625" y="28.734375" style="fill: #20590b; fill-opacity: 0.2"/>
     <use xlink:href="#m0fcc3189be" x="44.29625" y="20.162946" style="fill: #20590b; fill-opacity: 0.2"/>
     <use xlink:href="#m0fcc3189be" x="44.29625" y="54.448661" style="fill: #20590b; fill-opacity: 0.2"/>
     <use xlink:href="#m0fcc3189be" x="44.29625" y="30.877232" style="fill: #20590b; fill-opacity: 0.2"/>
     <use xlink:href="#m0fcc3189be" x="44.29625" y="33.020089" style="fill: #20590b; fill-opacity: 0.2"/>
     <use xlink:href="#m0fcc3189be" x="44.29625" y="52.305804" style="fill: #20590b; fill-opacity: 0.2"/>
     <use xlink:href="#m0fcc3189be" x="44.29625" y="24.448661" style="fill: #20590b; fill-opacity: 0.2"/>
     <use xlink:href="#m0fcc3189be" x="44.29625" y="48.020089" style="fill: #20590b; fill-opacity: 0.2"/>
     <use xlink:href="#m0fcc3189be" x="44.29625" y="20.162946" style="fill: #20590b; fill-opacity: 0.2"/>
     <use xlink:href="#m0fcc3189be" x="44.29625" y="20.162946" style="fill: #20590b; fill-opacity: 0.2"/>
     <use xlink:href="#m0fcc3189be" x="44.29625" y="22.305804" style="fill: #20590b; fill-opacity: 0.2"/>
     <use xlink:href="#m0fcc3189be" x="44.29625" y="22.305804" style="fill: #20590b; fill-opacity: 0.2"/>
     <use xlink:href="#m0fcc3189be" x="44.29625" y="20.162946" style="fill: #20590b; fill-opacity: 0.2"/>
     <use xlink:href="#m0fcc3189be" x="44.29625" y="20.162946" style="fill: #20590b; fill-opacity: 0.2"/>
     <use xlink:href="#m0fcc3189be" x="44.29625" y="35.162946" style="fill: #20590b; fill-opacity: 0.2"/>
     <use xlink:href="#m0fcc3189be" x="44.29625" y="28.734375" style="fill: #20590b; fill-opacity: 0.2"/>
     <use xlink:href="#m0fcc3189be" x="44.29625" y="20.162946" style="fill: #20590b; fill-opacity: 0.2"/>
     <use xlink:href="#m0fcc3189be" x="44.29625" y="20.162946" style="fill: #20590b; fill-opacity: 0.2"/>
     <use xlink:href="#m0fcc3189be" x="44.29625" y="20.162946" style="fill: #20590b; fill-opacity: 0.2"/>
     <use xlink:href="#m0fcc3189be" x="44.29625" y="34.350139" style="fill: #20590b; fill-opacity: 0.2"/>
     <use xlink:href="#m0fcc3189be" x="44.29625" y="28.734375" style="fill: #20590b; fill-opacity: 0.2"/>
     <use xlink:href="#m0fcc3189be" x="44.29625" y="30.877232" style="fill: #20590b; fill-opacity: 0.2"/>
     <use xlink:href="#m0fcc3189be" x="44.29625" y="43.734375" style="fill: #20590b; fill-opacity: 0.2"/>
     <use xlink:href="#m0fcc3189be" x="44.29625" y="30.877232" style="fill: #20590b; fill-opacity: 0.2"/>
     <use xlink:href="#m0fcc3189be" x="44.29625" y="20.162946" style="fill: #20590b; fill-opacity: 0.2"/>
    </g>
   </g>
   <g id="PathCollection_2">
    <defs>
     <path id="m06d31835c7" d="M 0 1.936492 
C 0.513564 1.936492 1.006162 1.732451 1.369306 1.369306 
C 1.732451 1.006162 1.936492 0.513564 1.936492 0 
C 1.936492 -0.513564 1.732451 -1.006162 1.369306 -1.369306 
C 1.006162 -1.732451 0.513564 -1.936492 0 -1.936492 
C -0.513564 -1.936492 -1.006162 -1.732451 -1.369306 -1.369306 
C -1.732451 -1.006162 -1.936492 -0.513564 -1.936492 0 
C -1.936492 0.513564 -1.732451 1.006162 -1.369306 1.369306 
C -1.006162 1.732451 -0.513564 1.936492 0 1.936492 
z
"/>
    </defs>
    <g clip-path="url(#p78315be77d)">
     <use xlink:href="#m06d31835c7" x="57.79625" y="30.877232" style="fill: #9f3131; fill-opacity: 0.2"/>
     <use xlink:href="#m06d31835c7" x="57.79625" y="26.591518" style="fill: #9f3131; fill-opacity: 0.2"/>
     <use xlink:href="#m06d31835c7" x="57.79625" y="50.162946" style="fill: #9f3131; fill-opacity: 0.2"/>
     <use xlink:href="#m06d31835c7" x="57.79625" y="35.162946" style="fill: #9f3131; fill-opacity: 0.2"/>
     <use xlink:href="#m06d31835c7" x="57.79625" y="41.591518" style="fill: #9f3131; fill-opacity: 0.2"/>
     <use xlink:href="#m06d31835c7" x="57.79625" y="33.020089" style="fill: #9f3131; fill-opacity: 0.2"/>
     <use xlink:href="#m06d31835c7" x="57.79625" y="37.305804" style="fill: #9f3131; fill-opacity: 0.2"/>
     <use xlink:href="#m06d31835c7" x="57.79625" y="28.734375" style="fill: #9f3131; fill-opacity: 0.2"/>
     <use xlink:href="#m06d31835c7" x="57.79625" y="30.877232" style="fill: #9f3131; fill-opacity: 0.2"/>
     <use xlink:href="#m06d31835c7" x="57.79625" y="37.305804" style="fill: #9f3131; fill-opacity: 0.2"/>
     <use xlink:href="#m06d31835c7" x="57.79625" y="20.162946" style="fill: #9f3131; fill-opacity: 0.2"/>
     <use xlink:href="#m06d31835c7" x="57.79625" y="88.734375" style="fill: #9f3131; fill-opacity: 0.2"/>
     <use xlink:href="#m06d31835c7" x="57.79625" y="37.305804" style="fill: #9f3131; fill-opacity: 0.2"/>
     <use xlink:href="#m06d31835c7" x="57.79625" y="35.162946" style="fill: #9f3131; fill-opacity: 0.2"/>
     <use xlink:href="#m06d31835c7" x="57.79625" y="35.162946" style="fill: #9f3131; fill-opacity: 0.2"/>
     <use xlink:href="#m06d31835c7" x="57.79625" y="43.734375" style="fill: #9f3131; fill-opacity: 0.2"/>
     <use xlink:href="#m06d31835c7" x="57.79625" y="35.162946" style="fill: #9f3131; fill-opacity: 0.2"/>
     <use xlink:href="#m06d31835c7" x="57.79625" y="37.305804" style="fill: #9f3131; fill-opacity: 0.2"/>
     <use xlink:href="#m06d31835c7" x="57.79625" y="30.877232" style="fill: #9f3131; fill-opacity: 0.2"/>
     <use xlink:href="#m06d31835c7" x="57.79625" y="26.591518" style="fill: #9f3131; fill-opacity: 0.2"/>
     <use xlink:href="#m06d31835c7" x="57.79625" y="84.448661" style="fill: #9f3131; fill-opacity: 0.2"/>
     <use xlink:href="#m06d31835c7" x="57.79625" y="28.734375" style="fill: #9f3131; fill-opacity: 0.2"/>
     <use xlink:href="#m06d31835c7" x="57.79625" y="43.734375" style="fill: #9f3131; fill-opacity: 0.2"/>
     <use xlink:href="#m06d31835c7" x="57.79625" y="48.020089" style="fill: #9f3131; fill-opacity: 0.2"/>
     <use xlink:href="#m06d31835c7" x="57.79625" y="48.020089" style="fill: #9f3131; fill-opacity: 0.2"/>
     <use xlink:href="#m06d31835c7" x="57.79625" y="28.734375" style="fill: #9f3131; fill-opacity: 0.2"/>
     <use xlink:href="#m06d31835c7" x="57.79625" y="52.305804" style="fill: #9f3131; fill-opacity: 0.2"/>
     <use xlink:href="#m06d31835c7" x="57.79625" y="20.162946" style="fill: #9f3131; fill-opacity: 0.2"/>
     <use xlink:href="#m06d31835c7" x="57.79625" y="26.591518" style="fill: #9f3131; fill-opacity: 0.2"/>
     <use xlink:href="#m06d31835c7" x="57.79625" y="65.162946" style="fill: #9f3131; fill-opacity: 0.2"/>
     <use xlink:href="#m06d31835c7" x="57.79625" y="48.020089" style="fill: #9f3131; fill-opacity: 0.2"/>
     <use xlink:href="#m06d31835c7" x="57.79625" y="30.877232" style="fill: #9f3131; fill-opacity: 0.2"/>
     <use xlink:href="#m06d31835c7" x="57.79625" y="88.734375" style="fill: #9f3131; fill-opacity: 0.2"/>
     <use xlink:href="#m06d31835c7" x="57.79625" y="28.734375" style="fill: #9f3131; fill-opacity: 0.2"/>
     <use xlink:href="#m06d31835c7" x="57.79625" y="26.591518" style="fill: #9f3131; fill-opacity: 0.2"/>
     <use xlink:href="#m06d31835c7" x="57.79625" y="41.591518" style="fill: #9f3131; fill-opacity: 0.2"/>
     <use xlink:href="#m06d31835c7" x="57.79625" y="41.591518" style="fill: #9f3131; fill-opacity: 0.2"/>
     <use xlink:href="#m06d31835c7" x="57.79625" y="37.305804" style="fill: #9f3131; fill-opacity: 0.2"/>
     <use xlink:href="#m06d31835c7" x="57.79625" y="26.591518" style="fill: #9f3131; fill-opacity: 0.2"/>
     <use xlink:href="#m06d31835c7" x="57.79625" y="43.734375" style="fill: #9f3131; fill-opacity: 0.2"/>
     <use xlink:href="#m06d31835c7" x="57.79625" y="20.162946" style="fill: #9f3131; fill-opacity: 0.2"/>
     <use xlink:href="#m06d31835c7" x="57.79625" y="65.162946" style="fill: #9f3131; fill-opacity: 0.2"/>
     <use xlink:href="#m06d31835c7" x="57.79625" y="30.877232" style="fill: #9f3131; fill-opacity: 0.2"/>
     <use xlink:href="#m06d31835c7" x="57.79625" y="30.877232" style="fill: #9f3131; fill-opacity: 0.2"/>
     <use xlink:href="#m06d31835c7" x="57.79625" y="51.130688" style="fill: #9f3131; fill-opacity: 0.2"/>
     <use xlink:href="#m06d31835c7" x="57.79625" y="28.734375" style="fill: #9f3131; fill-opacity: 0.2"/>
     <use xlink:href="#m06d31835c7" x="57.79625" y="37.305804" style="fill: #9f3131; fill-opacity: 0.2"/>
     <use xlink:href="#m06d31835c7" x="57.79625" y="39.448661" style="fill: #9f3131; fill-opacity: 0.2"/>
     <use xlink:href="#m06d31835c7" x="57.79625" y="52.305804" style="fill: #9f3131; fill-opacity: 0.2"/>
     <use xlink:href="#m06d31835c7" x="57.79625" y="43.734375" style="fill: #9f3131; fill-opacity: 0.2"/>
    </g>
   </g>
   <g id="line2d_59">
    <path d="M 40.92125 34.718119 
L 29.67125 34.718119 
" clip-path="url(#p78315be77d)" style="fill: none; stroke: #000000; stroke-width: 0.85; stroke-linecap: square"/>
   </g>
   <g id="line2d_60">
    <path d="M 61.17125 40.025158 
L 72.42125 40.025158 
" clip-path="url(#p78315be77d)" style="fill: none; stroke: #000000; stroke-width: 0.85; stroke-linecap: square"/>
   </g>
   <g id="LineCollection_1">
    <path d="M 35.29625 37.126191 
L 35.29625 32.310046 
" clip-path="url(#p78315be77d)" style="fill: none; stroke: #000000; stroke-width: 0.85"/>
   </g>
   <g id="line2d_61">
    <defs>
     <path id="mf1a791f2d2" d="M 4 0 
L -4 -0 
" style="stroke: #000000; stroke-width: 0.85"/>
    </defs>
    <g clip-path="url(#p78315be77d)">
     <use xlink:href="#mf1a791f2d2" x="35.29625" y="37.126191" style="stroke: #000000; stroke-width: 0.85"/>
    </g>
   </g>
   <g id="line2d_62">
    <g clip-path="url(#p78315be77d)">
     <use xlink:href="#mf1a791f2d2" x="35.29625" y="32.310046" style="stroke: #000000; stroke-width: 0.85"/>
    </g>
   </g>
   <g id="LineCollection_2">
    <path d="M 66.79625 42.254647 
L 66.79625 37.79567 
" clip-path="url(#p78315be77d)" style="fill: none; stroke: #000000; stroke-width: 0.85"/>
   </g>
   <g id="line2d_63">
    <g clip-path="url(#p78315be77d)">
     <use xlink:href="#mf1a791f2d2" x="66.79625" y="42.254647" style="stroke: #000000; stroke-width: 0.85"/>
    </g>
   </g>
   <g id="line2d_64">
    <g clip-path="url(#p78315be77d)">
     <use xlink:href="#mf1a791f2d2" x="66.79625" y="37.79567" style="stroke: #000000; stroke-width: 0.85"/>
    </g>
   </g>
   <g id="line2d_65">
    <path d="M 40.92125 15.294375 
L 61.17125 15.294375 
" style="fill: none; stroke: #000000; stroke-width: 0.5; stroke-linecap: square"/>
   </g>
   <g id="text_8">
    <text style="font-size: 12px; font-family: 'Arial'; text-anchor: middle" x="51.04625" y="15.789375" transform="rotate(-0 51.04625 15.789375)">*</text>
   </g>
  </g>
 </g>
 <defs>
  <clipPath id="p78315be77d">
   <rect x="24.04625" y="16.734375" width="54" height="72"/>
  </clipPath>
 </defs>
</svg>
