<?xml version="1.0" encoding="utf-8" standalone="no"?>
<!DOCTYPE svg PUBLIC "-//W3C//DTD SVG 1.1//EN"
  "http://www.w3.org/Graphics/SVG/1.1/DTD/svg11.dtd">
<svg xmlns:xlink="http://www.w3.org/1999/xlink" width="155.2025pt" height="100.079375pt" viewBox="0 0 155.2025 100.079375" xmlns="http://www.w3.org/2000/svg" version="1.1">
 <metadata>
  <rdf:RDF xmlns:dc="http://purl.org/dc/elements/1.1/" xmlns:cc="http://creativecommons.org/ns#" xmlns:rdf="http://www.w3.org/1999/02/22-rdf-syntax-ns#">
   <cc:Work>
    <dc:type rdf:resource="http://purl.org/dc/dcmitype/StillImage"/>
    <dc:date>2026-04-02T15:51:16.168967</dc:date>
    <dc:format>image/svg+xml</dc:format>
    <dc:creator>
     <cc:Agent>
      <dc:title>Matplotlib v3.10.8, https://matplotlib.org/</dc:title>
     </cc:Agent>
    </dc:creator>
   </cc:Work>
  </rdf:RDF>
 </metadata>
 <defs>
  <style type="text/css">*{stroke-linejoin: round; stroke-linecap: butt}</style>
 </defs>
 <g id="figure_1">
  <g id="patch_1">
   <path d="M 0 100.079375 
L 155.2025 100.079375 
L 155.2025 0 
L 0 0 
z
" style="fill: #ffffff"/>
  </g>
  <g id="axes_1">
   <g id="patch_2">
    <path d="M 35.55375 82.063125 
L 143.55375 82.063125 
L 143.55375 10.063125 
L 35.55375 10.063125 
z
" style="fill: #ffffff"/>
   </g>
   <g id="line2d_1">
    <path d="M 35.55375 58.063125 
L 143.55375 58.063125 
" clip-path="url(#p07a5261408)" style="fill: none; stroke-dasharray: 3.256,1.408; stroke-dashoffset: 0; stroke: #808080; stroke-opacity: 0.5; stroke-width: 0.88"/>
   </g>
   <g id="FillBetweenPolyCollection_1">
    <defs>
     <path id="mf04ec4a94a" d="M 35.55375 -55.071796 
L 35.55375 -39.200704 
L 40.05375 -42.826936 
L 44.55375 -39.100305 
L 49.05375 -44.44825 
L 53.55375 -46.892065 
L 58.05375 -53.007304 
L 62.55375 -48.407338 
L 67.05375 -46.034967 
L 71.55375 -49.264604 
L 76.05375 -51.49333 
L 80.55375 -55.788806 
L 85.05375 -57.7112 
L 89.55375 -48.922366 
L 94.05375 -52.644752 
L 98.55375 -62.992435 
L 103.05375 -53.762874 
L 107.55375 -65.248348 
L 112.05375 -62.698898 
L 116.55375 -65.248348 
L 121.05375 -64.225888 
L 125.55375 -63.70447 
L 130.05375 -65.808905 
L 134.55375 -61.703652 
L 139.05375 -66.477222 
L 143.55375 -63.340005 
L 143.55375 -79.468005 
L 143.55375 -79.468005 
L 139.05375 -82.208339 
L 134.55375 -76.088848 
L 130.05375 -81.583595 
L 125.55375 -77.92803 
L 121.05375 -79.326612 
L 116.55375 -80.224152 
L 112.05375 -77.013602 
L 107.55375 -80.224152 
L 103.05375 -72.509626 
L 98.55375 -75.440065 
L 94.05375 -68.507748 
L 89.55375 -65.190134 
L 85.05375 -71.1213 
L 80.55375 -69.203694 
L 76.05375 -67.09917 
L 71.55375 -65.487896 
L 67.05375 -62.317533 
L 62.55375 -63.785162 
L 58.05375 -68.145196 
L 53.55375 -64.020435 
L 49.05375 -58.78425 
L 44.55375 -56.452195 
L 40.05375 -57.845564 
L 35.55375 -55.071796 
z
"/>
    </defs>
    <g clip-path="url(#p07a5261408)">
     <use xlink:href="#mf04ec4a94a" x="0" y="100.079375" style="fill: #cd5c5c; fill-opacity: 0.25"/>
    </g>
   </g>
   <g id="FillBetweenPolyCollection_2">
    <defs>
     <path id="m674229fba4" d="M 35.55375 -53.610287 
L 35.55375 -39.382213 
L 40.05375 -41.206669 
L 44.55375 -44.227645 
L 49.05375 -47.275618 
L 53.55375 -46.593551 
L 58.05375 -52.459078 
L 62.55375 -49.783423 
L 67.05375 -63.059169 
L 71.55375 -62.285251 
L 76.05375 -58.627497 
L 80.55375 -58.049095 
L 85.05375 -58.718662 
L 89.55375 -56.113073 
L 94.05375 -60.830682 
L 98.55375 -60.120361 
L 103.05375 -67.834871 
L 107.55375 -66.785423 
L 112.05375 -67.324364 
L 116.55375 -69.457268 
L 121.05375 -66.281072 
L 125.55375 -73.88878 
L 130.05375 -73.27385 
L 134.55375 -75.04025 
L 139.05375 -73.631787 
L 143.55375 -81.049129 
L 143.55375 -89.187453 
L 143.55375 -89.187453 
L 139.05375 -84.849693 
L 134.55375 -85.79225 
L 130.05375 -85.63865 
L 125.55375 -85.02372 
L 121.05375 -81.111428 
L 116.55375 -81.775232 
L 112.05375 -81.988136 
L 107.55375 -80.607077 
L 103.05375 -81.477629 
L 98.55375 -73.192139 
L 94.05375 -75.041818 
L 89.55375 -70.159427 
L 85.05375 -72.033838 
L 80.55375 -72.063405 
L 76.05375 -72.765003 
L 71.55375 -75.507249 
L 67.05375 -74.733331 
L 62.55375 -62.409077 
L 58.05375 -67.413422 
L 53.55375 -60.478949 
L 49.05375 -63.636882 
L 44.55375 -59.004855 
L 40.05375 -54.345831 
L 35.55375 -53.610287 
z
"/>
    </defs>
    <g clip-path="url(#p07a5261408)">
     <use xlink:href="#m674229fba4" x="0" y="100.079375" style="fill: #228b22; fill-opacity: 0.25"/>
    </g>
   </g>
   <g id="matplotlib.axis_1">
    <g id="xtick_1">
     <g id="line2d_2">
      <defs>
       <path id="m4842dcd06e" d="M 0 0 
L 0 -4 
" style="stroke: #000000; stroke-width: 0.5"/>
      </defs>
      <g>
       <use xlink:href="#m4842dcd06e" x="35.55375" y="82.063125" style="stroke: #000000; stroke-width: 0.5"/>
      </g>
     </g>
     <g id="text_1">
      <text style="font-size: 8px; font-family: 'Arial'; text-anchor: middle" x="35.55375" y="91.289375" transform="rotate(-0 35.55375 91.289375)">1</text>
     </g>
    </g>
    <g id="xtick_2">
     <g id="line2d_3">
      <g>
       <use xlink:href="#m4842dcd06e" x="76.05375" y="82.063125" style="stroke: #000000; stroke-width: 0.5"/>
      </g>
     </g>
     <g id="text_2">
      <text style="font-size: 8px; font-family: 'Arial'; text-anchor: middle" x="76.05375" y="91.289375" transform="rotate(-0 76.05375 91.289375)">10</text>
     </g>
    </g>
    <g id="xtick_3">
     <g id="line2d_4">
      <g>
       <use xlink:href="#m4842dcd06e" x="121.05375" y="82.063125" style="stroke: #000000; stroke-width: 0.5"/>
      </g>
     </g>
     <g id="text_3">
      <text style="font-size: 8px; font-family: 'Arial'; text-anchor: middle" x="121.05375" y="91.289375" transform="rotate(-0 121.05375 91.289375)">20</text>
     </g>
    </g>
    <g id="xtick_4">
     <g id="line2d_5">
      <g>
       <use xlink:href="#m4842dcd06e" x="143.55375" y="82.063125" style="stroke: #000000; stroke-width: 0.5"/>
      </g>
     </g>
     <g id="text_4">
      <text style="font-size: 8px; font-family: 'Arial'; text-anchor: middle" x="143.55375" y="91.289375" transform="rotate(-0 143.55375 91.289375)">25</text>
     </g>
    </g>
   </g>
   <g id="matplotlib.axis_2">
    <g id="ytick_1">
     <g id="line2d_6">
      <defs>
       <path id="m6825b45479" d="M 0 0 
L 4 0 
" style="stroke: #000000; stroke-width: 0.5"/>
      </defs>
      <g>
       <use xlink:href="#m6825b45479" x="35.55375" y="82.063125" style="stroke: #000000; stroke-width: 0.5"/>
      </g>
     </g>
     <g id="text_5">
      <text style="font-size: 8px; font-family: 'Arial'; text-anchor: end" x="32.05375" y="84.92625" transform="rotate(-0 32.05375 84.92625)">25</text>
     </g>
    </g>
    <g id="ytick_2">
     <g id="line2d_7">
      <g>
       <use xlink:href="#m6825b45479" x="35.55375" y="58.063125" style="stroke: #000000; stroke-width: 0.5"/>
      </g>
     </g>
     <g id="text_6">
      <text style="font-size: 8px; font-family: 'Arial'; text-anchor: end" x="32.05375" y="60.92625" transform="rotate(-0 32.05375 60.92625)">50</text>
     </g>
    </g>
    <g id="ytick_3">
     <g id="line2d_8">
      <g>
       <use xlink:href="#m6825b45479" x="35.55375" y="34.063125" style="stroke: #000000; stroke-width: 0.5"/>
      </g>
     </g>
     <g id="text_7">
      <text style="font-size: 8px; font-family: 'Arial'; text-anchor: end" x="32.05375" y="36.92625" transform="rotate(-0 32.05375 36.92625)">75</text>
     </g>
    </g>
    <g id="ytick_4">
     <g id="line2d_9">
      <g>
       <use xlink:href="#m6825b45479" x="35.55375" y="10.063125" style="stroke: #000000; stroke-width: 0.5"/>
      </g>
     </g>
     <g id="text_8">
      <text style="font-size: 8px; font-family: 'Arial'; text-anchor: end" x="32.05375" y="12.92625" transform="rotate(-0 32.05375 12.92625)">100</text>
     </g>
    </g>
    <g id="text_9">
     <text style="font-size: 8px; font-family: 'Arial'; text-anchor: middle" x="13.02375" y="46.063125" transform="rotate(-90 13.02375 46.063125)">accuracy (%)</text>
    </g>
   </g>
   <g id="line2d_10">
    <path d="M 35.55375 52.943125 
L 40.05375 49.743125 
L 44.55375 52.303125 
L 49.05375 48.463125 
L 53.55375 44.623125 
L 58.05375 39.503125 
L 62.55375 43.983125 
L 67.05375 45.903125 
L 71.55375 42.703125 
L 76.05375 40.783125 
L 80.55375 37.583125 
L 85.05375 35.663125 
L 89.55375 43.023125 
L 94.05375 39.503125 
L 98.55375 30.863125 
L 103.05375 36.943125 
L 107.55375 27.343125 
L 112.05375 30.223125 
L 116.55375 27.343125 
L 121.05375 28.303125 
L 125.55375 29.263125 
L 130.05375 26.383125 
L 134.55375 31.183125 
L 139.05375 25.736594 
L 143.55375 28.67537 
" clip-path="url(#p07a5261408)" style="fill: none; stroke: #cd5c5c; stroke-opacity: 0.9; stroke-width: 1.1; stroke-linecap: square"/>
   </g>
   <g id="line2d_11">
    <path d="M 35.55375 53.583125 
L 40.05375 52.303125 
L 44.55375 48.463125 
L 49.05375 44.623125 
L 53.55375 46.543125 
L 58.05375 40.143125 
L 62.55375 43.983125 
L 67.05375 31.183125 
L 71.55375 31.183125 
L 76.05375 34.383125 
L 80.55375 35.023125 
L 85.05375 34.703125 
L 89.55375 36.943125 
L 94.05375 32.143125 
L 98.55375 33.423125 
L 103.05375 25.423125 
L 107.55375 26.383125 
L 112.05375 25.423125 
L 116.55375 24.463125 
L 121.05375 26.383125 
L 125.55375 20.623125 
L 130.05375 20.623125 
L 134.55375 19.663125 
L 139.05375 20.838635 
L 143.55375 14.961084 
" clip-path="url(#p07a5261408)" style="fill: none; stroke: #228b22; stroke-opacity: 0.9; stroke-width: 1.1; stroke-linecap: square"/>
   </g>
   <g id="patch_3">
    <path d="M 35.55375 82.063125 
L 35.55375 10.063125 
" style="fill: none; stroke: #000000; stroke-width: 0.5; stroke-linejoin: miter; stroke-linecap: square"/>
   </g>
   <g id="patch_4">
    <path d="M 35.55375 82.063125 
L 143.55375 82.063125 
" style="fill: none; stroke: #000000; stroke-width: 0.5; stroke-linejoin: miter; stroke-linecap: square"/>
   </g>
  </g>
 </g>
 <defs>
  <clipPath id="p07a5261408">
   <rect x="35.55375" y="10.063125" width="108" height="72"/>
  </clipPath>
 </defs>
</svg>
