<?xml version="1.0" encoding="utf-8" standalone="no"?>
<!DOCTYPE svg PUBLIC "-//W3C//DTD SVG 1.1//EN"
  "http://www.w3.org/Graphics/SVG/1.1/DTD/svg11.dtd">
<svg xmlns:xlink="http://www.w3.org/1999/xlink" width="85.24625pt" height="103.0925pt" viewBox="0 0 85.24625 103.0925" xmlns="http://www.w3.org/2000/svg" version="1.1">
 <metadata>
  <rdf:RDF xmlns:dc="http://purl.org/dc/elements/1.1/" xmlns:cc="http://creativecommons.org/ns#" xmlns:rdf="http://www.w3.org/1999/02/22-rdf-syntax-ns#">
   <cc:Work>
    <dc:type rdf:resource="http://purl.org/dc/dcmitype/StillImage"/>
    <dc:date>2026-03-04T23:12:10.204227</dc:date>
    <dc:format>image/svg+xml</dc:format>
    <dc:creator>
     <cc:Agent>
      <dc:title>Matplotlib v3.10.8, https://matplotlib.org/</dc:title>
     </cc:Agent>
    </dc:creator>
   </cc:Work>
  </rdf:RDF>
 </metadata>
 <defs>
  <style type="text/css">*{stroke-linejoin: round; stroke-linecap: butt}</style>
 </defs>
 <g id="figure_1">
  <g id="patch_1">
   <path d="M 0 103.0925 
L 85.24625 103.0925 
L 85.24625 0 
L 0 0 
z
" style="fill: #ffffff"/>
  </g>
  <g id="axes_1">
   <g id="patch_2">
    <path d="M 24.04625 85.07625 
L 78.04625 85.07625 
L 78.04625 13.07625 
L 24.04625 13.07625 
z
" style="fill: #ffffff"/>
   </g>
   <g id="line2d_1">
    <path d="M 24.04625 50.124794 
L 78.04625 50.124794 
" clip-path="url(#p9a4e863cf8)" style="fill: none; stroke-dasharray: 2.516,1.088; stroke-dashoffset: 0; stroke: #808080; stroke-opacity: 0.5; stroke-width: 0.68"/>
   </g>
   <g id="patch_3">
    <path d="M 40.92125 57.115085 
L 39.902563 57.115085 
L 39.888283 56.909727 
L 39.874704 56.704368 
L 39.86176 56.49901 
L 39.849372 56.293651 
L 39.837448 56.088293 
L 39.825885 55.882935 
L 39.814567 55.677576 
L 39.803368 55.472218 
L 39.792151 55.26686 
L 39.780769 55.061501 
L 39.769066 54.856143 
L 39.756881 54.650784 
L 39.744044 54.445426 
L 39.730381 54.240068 
L 39.715714 54.034709 
L 39.699865 53.829351 
L 39.682652 53.623992 
L 39.663896 53.418634 
L 39.64342 53.213276 
L 39.621051 53.007917 
L 39.596623 52.802559 
L 39.569976 52.597201 
L 39.540958 52.391842 
L 39.50943 52.186484 
L 39.475264 51.981125 
L 39.438344 51.775767 
L 39.39857 51.570409 
L 39.355857 51.36505 
L 39.310138 51.159692 
L 39.261363 50.954333 
L 39.209501 50.748975 
L 39.154539 50.543617 
L 39.096487 50.338258 
L 39.035372 50.1329 
L 38.971243 49.927542 
L 38.904168 49.722183 
L 38.834238 49.516825 
L 38.761561 49.311466 
L 38.686265 49.106108 
L 38.608499 48.90075 
L 38.528426 48.695391 
L 38.446228 48.490033 
L 38.362104 48.284674 
L 38.276264 48.079316 
L 38.188934 47.873958 
L 38.100349 47.668599 
L 38.010754 47.463241 
L 37.920404 47.257883 
L 37.829557 47.052524 
L 37.738476 46.847166 
L 37.647428 46.641807 
L 37.556677 46.436449 
L 37.466486 46.231091 
L 37.377115 46.025732 
L 37.288817 45.820374 
L 37.201838 45.615016 
L 37.116411 45.409657 
L 37.032762 45.204299 
L 36.9511 44.99894 
L 36.87162 44.793582 
L 36.794499 44.588224 
L 36.7199 44.382865 
L 36.647962 44.177507 
L 36.578806 43.972148 
L 36.512533 43.76679 
L 36.44922 43.561432 
L 36.388923 43.356073 
L 36.331676 43.150715 
L 36.277488 42.945357 
L 36.226347 42.739998 
L 36.178219 42.53464 
L 36.133048 42.329281 
L 36.090754 42.123923 
L 36.05124 41.918565 
L 36.014387 41.713206 
L 35.98006 41.507848 
L 35.948103 41.302489 
L 35.918348 41.097131 
L 35.890609 40.891773 
L 35.86469 40.686414 
L 35.840381 40.481056 
L 35.817464 40.275698 
L 35.795712 40.070339 
L 35.774892 39.864981 
L 35.754765 39.659622 
L 35.73509 39.454264 
L 35.715623 39.248906 
L 35.696121 39.043547 
L 35.676341 38.838189 
L 35.656045 38.632831 
L 35.634995 38.427472 
L 35.61296 38.222114 
L 35.589717 38.016755 
L 35.565046 37.811397 
L 35.538738 37.606039 
L 35.51059 37.40068 
L 35.48041 37.195322 
L 35.448014 36.989963 
L 35.413231 36.784605 
L 35.375896 36.579247 
L 35.335857 36.373888 
L 35.292974 36.16853 
L 35.247116 35.963172 
L 35.198164 35.757813 
L 35.146009 35.552455 
L 35.090555 35.347096 
L 35.031715 35.141738 
L 34.969415 34.93638 
L 34.903593 34.731021 
L 34.834196 34.525663 
L 34.761186 34.320304 
L 34.684533 34.114946 
L 34.604222 33.909588 
L 34.52025 33.704229 
L 34.432625 33.498871 
L 34.34137 33.293513 
L 34.246521 33.088154 
L 34.148128 32.882796 
L 34.046253 32.677437 
L 33.940977 32.472079 
L 33.832394 32.266721 
L 33.720612 32.061362 
L 33.60576 31.856004 
L 33.487979 31.650646 
L 33.36743 31.445287 
L 33.244289 31.239929 
L 33.118751 31.03457 
L 32.991029 30.829212 
L 32.861351 30.623854 
L 32.729966 30.418495 
L 32.597138 30.213137 
L 32.463147 30.007778 
L 32.328292 29.80242 
L 32.192885 29.597062 
L 32.057255 29.391703 
L 31.921742 29.186345 
L 31.786701 28.980987 
L 31.652498 28.775628 
L 31.519508 28.57027 
L 31.388116 28.364911 
L 31.258712 28.159553 
L 31.131694 27.954195 
L 31.007462 27.748836 
L 30.886416 27.543478 
L 30.768958 27.338119 
L 30.655487 27.132761 
L 30.546398 26.927403 
L 30.442079 26.722044 
L 30.342913 26.516686 
L 30.24927 26.311328 
L 30.161509 26.105969 
L 30.079979 25.900611 
L 30.00501 25.695252 
L 29.936918 25.489894 
L 29.876001 25.284536 
L 29.822538 25.079177 
L 29.776787 24.873819 
L 29.738986 24.66846 
L 29.709351 24.463102 
L 29.688075 24.257744 
L 29.675326 24.052385 
L 29.67125 23.847027 
L 29.675968 23.641669 
L 29.689576 23.43631 
L 29.712146 23.230952 
L 29.743724 23.025593 
L 29.784332 22.820235 
L 29.833968 22.614877 
L 29.892603 22.409518 
L 29.960187 22.20416 
L 30.036644 21.998802 
L 30.121875 21.793443 
L 30.215757 21.588085 
L 30.318146 21.382726 
L 30.428875 21.177368 
L 30.547755 20.97201 
L 30.674579 20.766651 
L 30.809115 20.561293 
L 30.951116 20.355934 
L 31.100313 20.150576 
L 31.256421 19.945218 
L 31.419136 19.739859 
L 31.588139 19.534501 
L 31.763095 19.329143 
L 31.943654 19.123784 
L 32.129454 18.918426 
L 32.320119 18.713067 
L 32.515263 18.507709 
L 32.714487 18.302351 
L 32.917388 18.096992 
L 33.12355 17.891634 
L 33.332556 17.686275 
L 33.54398 17.480917 
L 33.757396 17.275559 
L 33.972374 17.0702 
L 34.188484 16.864842 
L 34.405299 16.659484 
L 34.622393 16.454125 
L 34.839347 16.248767 
L 40.92125 16.248767 
z
" clip-path="url(#p9a4e863cf8)" style="fill: #228b22; opacity: 0.2"/>
   </g>
   <g id="patch_4">
    <path d="M 61.17125 52.813367 
L 61.83143 52.813367 
L 61.846902 52.624221 
L 61.862587 52.435075 
L 61.878564 52.24593 
L 61.894921 52.056784 
L 61.911749 51.867638 
L 61.929146 51.678492 
L 61.947214 51.489346 
L 61.966058 51.3002 
L 61.985787 51.111054 
L 62.006511 50.921908 
L 62.028339 50.732763 
L 62.051382 50.543617 
L 62.075747 50.354471 
L 62.101538 50.165325 
L 62.128858 49.976179 
L 62.157802 49.787033 
L 62.18846 49.597887 
L 62.220917 49.408741 
L 62.255246 49.219596 
L 62.291515 49.03045 
L 62.329782 48.841304 
L 62.370094 48.652158 
L 62.412487 48.463012 
L 62.456988 48.273866 
L 62.503612 48.08472 
L 62.552362 47.895574 
L 62.60323 47.706429 
L 62.656197 47.517283 
L 62.71123 47.328137 
L 62.76829 47.138991 
L 62.827322 46.949845 
L 62.888262 46.760699 
L 62.951039 46.571553 
L 63.015568 46.382407 
L 63.081759 46.193261 
L 63.14951 46.004116 
L 63.218716 45.81497 
L 63.289261 45.625824 
L 63.361024 45.436678 
L 63.433881 45.247532 
L 63.5077 45.058386 
L 63.582347 44.86924 
L 63.657685 44.680094 
L 63.733573 44.490949 
L 63.80987 44.301803 
L 63.886433 44.112657 
L 63.96312 43.923511 
L 64.039788 43.734365 
L 64.116296 43.545219 
L 64.192505 43.356073 
L 64.268278 43.166927 
L 64.343483 42.977782 
L 64.41799 42.788636 
L 64.491674 42.59949 
L 64.564418 42.410344 
L 64.636108 42.221198 
L 64.706639 42.032052 
L 64.775913 41.842906 
L 64.843839 41.65376 
L 64.910339 41.464615 
L 64.975342 41.275469 
L 65.038787 41.086323 
L 65.100628 40.897177 
L 65.160826 40.708031 
L 65.219359 40.518885 
L 65.276216 40.329739 
L 65.331401 40.140593 
L 65.384932 39.951447 
L 65.43684 39.762302 
L 65.487174 39.573156 
L 65.535996 39.38401 
L 65.583383 39.194864 
L 65.62943 39.005718 
L 65.674244 38.816572 
L 65.717949 38.627426 
L 65.760682 38.43828 
L 65.802595 38.249135 
L 65.843854 38.059989 
L 65.884637 37.870843 
L 65.925132 37.681697 
L 65.96554 37.492551 
L 66.006072 37.303405 
L 66.046944 37.114259 
L 66.088382 36.925113 
L 66.130616 36.735968 
L 66.173881 36.546822 
L 66.218413 36.357676 
L 66.26445 36.16853 
L 66.312228 35.979384 
L 66.361981 35.790238 
L 66.413937 35.601092 
L 66.468321 35.411946 
L 66.525345 35.222801 
L 66.585215 35.033655 
L 66.648125 34.844509 
L 66.714252 34.655363 
L 66.783764 34.466217 
L 66.856806 34.277071 
L 66.93351 34.087925 
L 67.013985 33.898779 
L 67.098321 33.709633 
L 67.186585 33.520488 
L 67.27882 33.331342 
L 67.375044 33.142196 
L 67.475253 32.95305 
L 67.579414 32.763904 
L 67.687467 32.574758 
L 67.799327 32.385612 
L 67.914881 32.196466 
L 68.033989 32.007321 
L 68.156483 31.818175 
L 68.282171 31.629029 
L 68.410832 31.439883 
L 68.542222 31.250737 
L 68.676074 31.061591 
L 68.812097 30.872445 
L 68.949979 30.683299 
L 69.08939 30.494154 
L 69.229984 30.305008 
L 69.371399 30.115862 
L 69.51326 29.926716 
L 69.655186 29.73757 
L 69.796785 29.548424 
L 69.937665 29.359278 
L 70.077431 29.170132 
L 70.21569 28.980987 
L 70.352056 28.791841 
L 70.48615 28.602695 
L 70.617604 28.413549 
L 70.746067 28.224403 
L 70.8712 28.035257 
L 70.992688 27.846111 
L 71.110235 27.656965 
L 71.223569 27.467819 
L 71.332442 27.278674 
L 71.436636 27.089528 
L 71.535957 26.900382 
L 71.630241 26.711236 
L 71.719351 26.52209 
L 71.803178 26.332944 
L 71.881642 26.143798 
L 71.954687 25.954652 
L 72.022283 25.765507 
L 72.084422 25.576361 
L 72.141117 25.387215 
L 72.192399 25.198069 
L 72.238314 25.008923 
L 72.278921 24.819777 
L 72.314287 24.630631 
L 72.344488 24.441485 
L 72.369598 24.25234 
L 72.389694 24.063194 
L 72.404848 23.874048 
L 72.415123 23.684902 
L 72.420577 23.495756 
L 72.42125 23.30661 
L 72.417172 23.117464 
L 72.408353 22.928318 
L 72.394786 22.739173 
L 72.376447 22.550027 
L 72.353289 22.360881 
L 72.325246 22.171735 
L 72.292234 21.982589 
L 72.254147 21.793443 
L 72.210866 21.604297 
L 72.162252 21.415151 
L 72.108155 21.226005 
L 72.048415 21.03686 
L 71.982862 20.847714 
L 71.911324 20.658568 
L 71.833626 20.469422 
L 71.749597 20.280276 
L 71.659073 20.09113 
L 71.561901 19.901984 
L 71.457941 19.712838 
L 71.347073 19.523693 
L 71.2292 19.334547 
L 71.104249 19.145401 
L 70.972178 18.956255 
L 70.832974 18.767109 
L 70.686662 18.577963 
L 70.533302 18.388817 
L 70.372992 18.199671 
L 70.205871 18.010526 
L 70.032119 17.82138 
L 69.851954 17.632234 
L 69.665636 17.443088 
L 69.473466 17.253942 
L 69.275781 17.064796 
L 69.072955 16.87565 
L 68.865397 16.686504 
L 68.653547 16.497359 
L 68.437875 16.308213 
L 68.218875 16.119067 
L 67.997062 15.929921 
L 67.772972 15.740775 
L 67.547151 15.551629 
L 67.320157 15.362483 
L 67.092552 15.173337 
L 61.17125 15.173337 
z
" clip-path="url(#p9a4e863cf8)" style="fill: #cd5c5c; opacity: 0.2"/>
   </g>
   <g id="matplotlib.axis_1">
    <g id="xtick_1">
     <g id="line2d_2">
      <defs>
       <path id="mea5df72298" d="M 0 0 
L 0 -4 
" style="stroke: #000000; stroke-width: 0.5"/>
      </defs>
      <g>
       <use xlink:href="#mea5df72298" x="40.92125" y="85.07625" style="stroke: #000000; stroke-width: 0.5"/>
      </g>
     </g>
     <g id="text_1">
      <text style="font-size: 8px; font-family: 'Arial'; text-anchor: middle" x="40.92125" y="94.3025" transform="rotate(-0 40.92125 94.3025)">Gain</text>
     </g>
    </g>
    <g id="xtick_2">
     <g id="line2d_3">
      <g>
       <use xlink:href="#mea5df72298" x="61.17125" y="85.07625" style="stroke: #000000; stroke-width: 0.5"/>
      </g>
     </g>
     <g id="text_2">
      <text style="font-size: 8px; font-family: 'Arial'; text-anchor: middle" x="61.17125" y="94.3025" transform="rotate(-0 61.17125 94.3025)">Loss</text>
     </g>
    </g>
   </g>
   <g id="matplotlib.axis_2">
    <g id="ytick_1">
     <g id="line2d_4">
      <defs>
       <path id="m9299535ff1" d="M 0 0 
L 4 0 
" style="stroke: #000000; stroke-width: 0.5"/>
      </defs>
      <g>
       <use xlink:href="#m9299535ff1" x="24.04625" y="85.07625" style="stroke: #000000; stroke-width: 0.5"/>
      </g>
     </g>
     <g id="text_3">
      <text style="font-size: 8px; font-family: 'Arial'; text-anchor: end" x="20.54625" y="87.939375" transform="rotate(-0 20.54625 87.939375)">0</text>
     </g>
    </g>
    <g id="ytick_2">
     <g id="line2d_5">
      <g>
       <use xlink:href="#m9299535ff1" x="24.04625" y="67.600522" style="stroke: #000000; stroke-width: 0.5"/>
      </g>
     </g>
     <g id="text_4">
      <text style="font-size: 8px; font-family: 'Arial'; text-anchor: end" x="20.54625" y="70.463647" transform="rotate(-0 20.54625 70.463647)">25</text>
     </g>
    </g>
    <g id="ytick_3">
     <g id="line2d_6">
      <g>
       <use xlink:href="#m9299535ff1" x="24.04625" y="50.124794" style="stroke: #000000; stroke-width: 0.5"/>
      </g>
     </g>
     <g id="text_5">
      <text style="font-size: 8px; font-family: 'Arial'; text-anchor: end" x="20.54625" y="52.987919" transform="rotate(-0 20.54625 52.987919)">50</text>
     </g>
    </g>
    <g id="ytick_4">
     <g id="line2d_7">
      <g>
       <use xlink:href="#m9299535ff1" x="24.04625" y="32.649066" style="stroke: #000000; stroke-width: 0.5"/>
      </g>
     </g>
     <g id="text_6">
      <text style="font-size: 8px; font-family: 'Arial'; text-anchor: end" x="20.54625" y="35.512191" transform="rotate(-0 20.54625 35.512191)">75</text>
     </g>
    </g>
    <g id="ytick_5">
     <g id="line2d_8">
      <g>
       <use xlink:href="#m9299535ff1" x="24.04625" y="15.173337" style="stroke: #000000; stroke-width: 0.5"/>
      </g>
     </g>
     <g id="text_7">
      <text style="font-size: 8px; font-family: 'Arial'; text-anchor: end" x="20.54625" y="18.036462" transform="rotate(-0 20.54625 18.036462)">100</text>
     </g>
    </g>
   </g>
   <g id="patch_5">
    <path d="M 40.92125 32.715163 
L 34.064968 32.715163 
L 34.050277 32.685548 
L 34.035229 32.655933 
L 34.020047 32.626318 
L 34.004865 32.596703 
L 33.989683 32.567087 
L 33.974501 32.537472 
L 33.959319 32.507857 
L 33.944137 32.478242 
L 33.928577 32.448627 
L 33.912918 32.419011 
L 33.897259 32.389396 
L 33.881599 32.359781 
L 33.86594 32.330166 
L 33.850281 32.300551 
L 33.834622 32.270935 
L 33.818568 32.24132 
L 33.802447 32.211705 
L 33.786327 32.18209 
L 33.770207 32.152475 
L 33.754087 32.122859 
L 33.737967 32.093244 
L 33.721846 32.063629 
L 33.705317 32.034014 
L 33.688754 32.004399 
L 33.672191 31.974783 
L 33.655628 31.945168 
L 33.639065 31.915553 
L 33.622501 31.885938 
L 33.605938 31.856323 
L 33.588957 31.826707 
L 33.571972 31.797092 
L 33.554986 31.767477 
L 33.538001 31.737862 
L 33.521016 31.708247 
L 33.50403 31.678631 
L 33.487023 31.649016 
L 33.469638 31.619401 
L 33.452253 31.589786 
L 33.434869 31.560171 
L 33.417484 31.530555 
L 33.400099 31.50094 
L 33.382714 31.471325 
L 33.365285 31.44171 
L 33.347526 31.412095 
L 33.329768 31.382479 
L 33.312009 31.352864 
L 33.294251 31.323249 
L 33.276492 31.293634 
L 33.258734 31.264019 
L 33.240911 31.234403 
L 33.222807 31.204788 
L 33.204703 31.175173 
L 33.186599 31.145558 
L 33.168495 31.115943 
L 33.150391 31.086327 
L 33.132287 31.056712 
L 33.114103 31.027097 
L 33.095684 30.997482 
L 33.077265 30.967867 
L 33.058846 30.938251 
L 33.040426 30.908636 
L 33.022007 30.879021 
L 33.003588 30.849406 
L 32.985079 30.819791 
L 32.966378 30.790175 
L 32.947677 30.76056 
L 32.928976 30.730945 
L 32.910275 30.70133 
L 32.891574 30.671715 
L 32.872873 30.642099 
L 32.854077 30.612484 
L 32.83513 30.582869 
L 32.816183 30.553254 
L 32.797235 30.523639 
L 32.778288 30.494023 
L 32.759341 30.464408 
L 32.740393 30.434793 
L 32.721352 30.405178 
L 32.702197 30.375563 
L 32.683042 30.345947 
L 32.663886 30.316332 
L 32.644731 30.286717 
L 32.625575 30.257102 
L 32.60642 30.227487 
L 32.587178 30.197871 
L 32.567855 30.168256 
L 32.548532 30.138641 
L 32.529209 30.109026 
L 32.509885 30.079411 
L 32.490562 30.049795 
L 32.471239 30.02018 
L 32.451844 29.990565 
L 32.432396 29.96095 
L 32.412948 29.931335 
L 32.3935 29.901719 
L 32.374053 29.872104 
L 32.354605 29.842489 
L 32.335157 29.812874 
L 32.315658 29.783259 
L 32.29613 29.753643 
L 32.276603 29.724028 
L 32.257076 29.694413 
L 32.237548 29.664798 
L 32.218021 29.635183 
L 32.198494 29.605567 
L 32.178943 29.575952 
L 32.159384 29.546337 
L 32.139824 29.516722 
L 32.120265 29.487107 
L 32.100705 29.457491 
L 32.081145 29.427876 
L 32.061586 29.398261 
L 32.042039 29.368646 
L 32.022497 29.339031 
L 32.002954 29.309415 
L 31.983411 29.2798 
L 31.963869 29.250185 
L 31.944326 29.22057 
L 31.924784 29.190955 
L 31.905298 29.161339 
L 31.885824 29.131724 
L 31.866349 29.102109 
L 31.846875 29.072494 
L 31.8274 29.042879 
L 31.807926 29.013263 
L 31.788451 28.983648 
L 31.769086 28.954033 
L 31.749733 28.924418 
L 31.730379 28.894803 
L 31.711025 28.865187 
L 31.691671 28.835572 
L 31.672318 28.805957 
L 31.652964 28.776342 
L 31.633781 28.746727 
L 31.614602 28.717111 
L 31.595423 28.687496 
L 31.576245 28.657881 
L 31.557066 28.628266 
L 31.537887 28.598651 
L 31.518718 28.569035 
L 31.49977 28.53942 
L 31.480821 28.509805 
L 31.461873 28.48019 
L 31.442924 28.450575 
L 31.423976 28.420959 
L 31.405028 28.391344 
L 31.38611 28.361729 
L 31.367449 28.332114 
L 31.348787 28.302499 
L 31.330126 28.272883 
L 31.311464 28.243268 
L 31.292803 28.213653 
L 31.274141 28.184038 
L 31.255539 28.154423 
L 31.237222 28.124807 
L 31.218904 28.095192 
L 31.200586 28.065577 
L 31.182269 28.035962 
L 31.163951 28.006347 
L 31.145634 27.976731 
L 31.127412 27.947116 
L 31.109496 27.917501 
L 31.091581 27.887886 
L 31.073665 27.858271 
L 31.055749 27.828655 
L 31.037833 27.79904 
L 31.019917 27.769425 
L 31.002141 27.73981 
L 30.984685 27.710195 
L 30.967229 27.680579 
L 30.949772 27.650964 
L 30.932316 27.621349 
L 30.91486 27.591734 
L 30.897403 27.562119 
L 30.880139 27.532503 
L 30.8632 27.502888 
L 30.846261 27.473273 
L 30.829322 27.443658 
L 30.812383 27.414043 
L 30.795444 27.384427 
L 30.778506 27.354812 
L 30.761818 27.325197 
L 30.745454 27.295582 
L 30.72909 27.265967 
L 30.712726 27.236351 
L 30.696362 27.206736 
L 30.679998 27.177121 
L 30.663634 27.147506 
L 30.647587 27.117891 
L 30.631855 27.088275 
L 30.616123 27.05866 
L 30.600391 27.029045 
L 30.584659 26.99943 
L 30.568927 26.969815 
L 30.553195 26.940199 
L 30.537854 26.910584 
L 30.52281 26.880969 
L 30.507766 26.851354 
L 30.492722 26.821739 
L 40.92125 26.821739 
z
" clip-path="url(#p9a4e863cf8)" style="fill: #228b22; opacity: 0.4"/>
   </g>
   <g id="patch_6">
    <path d="M 29.67125 32.715163 
L 40.92125 32.715163 
L 40.92125 26.821739 
L 29.67125 26.821739 
L 29.67125 32.715163 
z
" style="fill: none; stroke: #228b22; stroke-width: 0.85; stroke-linejoin: miter"/>
   </g>
   <g id="patch_7">
    <path d="M 61.17125 29.924754 
L 69.514733 29.924754 
L 69.533787 29.89936 
L 69.552841 29.873967 
L 69.571894 29.848574 
L 69.590948 29.82318 
L 69.610002 29.797787 
L 69.629056 29.772394 
L 69.64811 29.747 
L 69.667136 29.721607 
L 69.686146 29.696214 
L 69.705157 29.67082 
L 69.724167 29.645427 
L 69.743177 29.620034 
L 69.762187 29.59464 
L 69.781197 29.569247 
L 69.80019 29.543854 
L 69.819103 29.51846 
L 69.838017 29.493067 
L 69.85693 29.467674 
L 69.875844 29.44228 
L 69.894757 29.416887 
L 69.91367 29.391494 
L 69.932584 29.3661 
L 69.951388 29.340707 
L 69.970152 29.315314 
L 69.988916 29.28992 
L 70.00768 29.264527 
L 70.026444 29.239134 
L 70.045208 29.21374 
L 70.063971 29.188347 
L 70.082678 29.162954 
L 70.10124 29.13756 
L 70.119801 29.112167 
L 70.138363 29.086774 
L 70.156925 29.06138 
L 70.175486 29.035987 
L 70.194048 29.010594 
L 70.21261 28.9852 
L 70.230959 28.959807 
L 70.249267 28.934414 
L 70.267574 28.90902 
L 70.285882 28.883627 
L 70.304189 28.858233 
L 70.322497 28.83284 
L 70.340804 28.807447 
L 70.358994 28.782053 
L 70.376997 28.75666 
L 70.394999 28.731267 
L 70.413002 28.705873 
L 70.431004 28.68048 
L 70.449007 28.655087 
L 70.467009 28.629693 
L 70.485011 28.6043 
L 70.502682 28.578907 
L 70.52033 28.553513 
L 70.537978 28.52812 
L 70.555626 28.502727 
L 70.573275 28.477333 
L 70.590923 28.45194 
L 70.608571 28.426547 
L 70.626023 28.401153 
L 70.643269 28.37576 
L 70.660516 28.350367 
L 70.677762 28.324973 
L 70.695009 28.29958 
L 70.712255 28.274187 
L 70.729501 28.248793 
L 70.74673 28.2234 
L 70.76353 28.198007 
L 70.780329 28.172613 
L 70.797129 28.14722 
L 70.813928 28.121827 
L 70.830728 28.096433 
L 70.847527 28.07104 
L 70.864327 28.045647 
L 70.880837 28.020253 
L 70.897147 27.99486 
L 70.913457 27.969467 
L 70.929767 27.944073 
L 70.946078 27.91868 
L 70.962388 27.893287 
L 70.978698 27.867893 
L 70.994932 27.8425 
L 71.010713 27.817107 
L 71.026494 27.791713 
L 71.042275 27.76632 
L 71.058056 27.740927 
L 71.073837 27.715533 
L 71.089618 27.69014 
L 71.105399 27.664747 
L 71.120788 27.639353 
L 71.136003 27.61396 
L 71.151218 27.588567 
L 71.166434 27.563173 
L 71.181649 27.53778 
L 71.196864 27.512387 
L 71.21208 27.486993 
L 71.227148 27.4616 
L 71.241765 27.436207 
L 71.256382 27.410813 
L 71.270998 27.38542 
L 71.285615 27.360027 
L 71.300231 27.334633 
L 71.314848 27.30924 
L 71.329465 27.283847 
L 71.343581 27.258453 
L 71.357569 27.23306 
L 71.371557 27.207667 
L 71.385546 27.182273 
L 71.399534 27.15688 
L 71.413522 27.131487 
L 71.427511 27.106093 
L 71.441271 27.0807 
L 71.454606 27.055307 
L 71.46794 27.029913 
L 71.481274 27.00452 
L 71.494608 26.979127 
L 71.507942 26.953733 
L 71.521276 26.92834 
L 71.53461 26.902947 
L 71.547336 26.877553 
L 71.559994 26.85216 
L 71.572652 26.826767 
L 71.58531 26.801373 
L 71.597968 26.77598 
L 71.610626 26.750587 
L 71.623283 26.725193 
L 71.635628 26.6998 
L 71.647592 26.674407 
L 71.659555 26.649013 
L 71.671518 26.62362 
L 71.683481 26.598227 
L 71.695445 26.572833 
L 71.707408 26.54744 
L 71.71937 26.522047 
L 71.730624 26.496653 
L 71.741878 26.47126 
L 71.753132 26.445867 
L 71.764386 26.420473 
L 71.77564 26.39508 
L 71.786894 26.369687 
L 71.798148 26.344293 
L 71.809004 26.3189 
L 71.819538 26.293507 
L 71.830072 26.268113 
L 71.840606 26.24272 
L 71.85114 26.217327 
L 71.861674 26.191933 
L 71.872208 26.16654 
L 71.882666 26.141147 
L 71.892473 26.115753 
L 71.902279 26.09036 
L 71.912086 26.064967 
L 71.921892 26.039573 
L 71.931699 26.01418 
L 71.941505 25.988787 
L 71.951312 25.963393 
L 71.960638 25.938 
L 71.969713 25.912607 
L 71.978788 25.887213 
L 71.987863 25.86182 
L 71.996938 25.836427 
L 72.006013 25.811033 
L 72.015088 25.78564 
L 72.024011 25.760247 
L 72.032353 25.734853 
L 72.040696 25.70946 
L 72.049038 25.684067 
L 72.05738 25.658673 
L 72.065723 25.63328 
L 72.074065 25.607887 
L 72.082407 25.582493 
L 72.090195 25.5571 
L 72.097807 25.531707 
L 72.105418 25.506313 
L 72.11303 25.48092 
L 72.120641 25.455527 
L 72.128252 25.430133 
L 72.135864 25.40474 
L 72.14325 25.379347 
L 72.150135 25.353953 
L 72.157019 25.32856 
L 72.163904 25.303167 
L 72.170789 25.277773 
L 72.177674 25.25238 
L 72.184558 25.226987 
L 72.191443 25.201593 
L 72.197707 25.1762 
L 72.203871 25.150807 
L 72.210036 25.125413 
L 72.2162 25.10002 
L 72.222364 25.074627 
L 72.228528 25.049233 
L 72.234693 25.02384 
L 72.240563 24.998447 
L 72.246014 24.973053 
L 72.251466 24.94766 
L 72.256918 24.922267 
L 72.262369 24.896873 
L 72.267821 24.87148 
L 61.17125 24.87148 
z
" clip-path="url(#p9a4e863cf8)" style="fill: #cd5c5c; opacity: 0.4"/>
   </g>
   <g id="patch_8">
    <path d="M 61.17125 29.924754 
L 72.42125 29.924754 
L 72.42125 24.87148 
L 61.17125 24.87148 
L 61.17125 29.924754 
z
" style="fill: none; stroke: #cd5c5c; stroke-width: 0.85; stroke-linejoin: miter"/>
   </g>
   <g id="line2d_9">
    <path d="M 44.29625 25.927632 
L 57.79625 16.248767 
" clip-path="url(#p9a4e863cf8)" style="fill: none; stroke: #999999; stroke-opacity: 0.8; stroke-width: 0.3; stroke-linecap: square"/>
   </g>
   <g id="line2d_10">
    <path d="M 44.29625 23.776773 
L 57.79625 17.324196 
" clip-path="url(#p9a4e863cf8)" style="fill: none; stroke: #999999; stroke-opacity: 0.8; stroke-width: 0.3; stroke-linecap: square"/>
   </g>
   <g id="line2d_11">
    <path d="M 44.29625 42.059073 
L 57.79625 18.399626 
" clip-path="url(#p9a4e863cf8)" style="fill: none; stroke: #999999; stroke-opacity: 0.8; stroke-width: 0.3; stroke-linecap: square"/>
   </g>
   <g id="line2d_12">
    <path d="M 44.29625 24.852202 
L 57.79625 23.776773 
" clip-path="url(#p9a4e863cf8)" style="fill: none; stroke: #999999; stroke-opacity: 0.8; stroke-width: 0.3; stroke-linecap: square"/>
   </g>
   <g id="line2d_13">
    <path d="M 44.29625 20.550485 
L 57.79625 18.399626 
" clip-path="url(#p9a4e863cf8)" style="fill: none; stroke: #999999; stroke-opacity: 0.8; stroke-width: 0.3; stroke-linecap: square"/>
   </g>
   <g id="line2d_14">
    <path d="M 44.29625 46.360791 
L 57.79625 37.757355 
" clip-path="url(#p9a4e863cf8)" style="fill: none; stroke: #999999; stroke-opacity: 0.8; stroke-width: 0.3; stroke-linecap: square"/>
   </g>
   <g id="line2d_15">
    <path d="M 44.29625 25.927632 
L 57.79625 30.229349 
" clip-path="url(#p9a4e863cf8)" style="fill: none; stroke: #999999; stroke-opacity: 0.8; stroke-width: 0.3; stroke-linecap: square"/>
   </g>
   <g id="line2d_16">
    <path d="M 44.29625 21.625914 
L 57.79625 18.399626 
" clip-path="url(#p9a4e863cf8)" style="fill: none; stroke: #999999; stroke-opacity: 0.8; stroke-width: 0.3; stroke-linecap: square"/>
   </g>
   <g id="line2d_17">
    <path d="M 44.29625 19.475055 
L 57.79625 30.229349 
" clip-path="url(#p9a4e863cf8)" style="fill: none; stroke: #999999; stroke-opacity: 0.8; stroke-width: 0.3; stroke-linecap: square"/>
   </g>
   <g id="line2d_18">
    <path d="M 44.29625 35.606496 
L 57.79625 38.832785 
" clip-path="url(#p9a4e863cf8)" style="fill: none; stroke: #999999; stroke-opacity: 0.8; stroke-width: 0.3; stroke-linecap: square"/>
   </g>
   <g id="line2d_19">
    <path d="M 44.29625 34.531067 
L 57.79625 45.285361 
" clip-path="url(#p9a4e863cf8)" style="fill: none; stroke: #999999; stroke-opacity: 0.8; stroke-width: 0.3; stroke-linecap: square"/>
   </g>
   <g id="line2d_20">
    <path d="M 44.29625 16.248767 
L 57.79625 17.324196 
" clip-path="url(#p9a4e863cf8)" style="fill: none; stroke: #999999; stroke-opacity: 0.8; stroke-width: 0.3; stroke-linecap: square"/>
   </g>
   <g id="line2d_21">
    <path d="M 44.29625 42.059073 
L 57.79625 25.927632 
" clip-path="url(#p9a4e863cf8)" style="fill: none; stroke: #999999; stroke-opacity: 0.8; stroke-width: 0.3; stroke-linecap: square"/>
   </g>
   <g id="line2d_22">
    <path d="M 44.29625 43.134502 
L 57.79625 28.07849 
" clip-path="url(#p9a4e863cf8)" style="fill: none; stroke: #999999; stroke-opacity: 0.8; stroke-width: 0.3; stroke-linecap: square"/>
   </g>
   <g id="line2d_23">
    <path d="M 44.29625 18.399626 
L 57.79625 25.927632 
" clip-path="url(#p9a4e863cf8)" style="fill: none; stroke: #999999; stroke-opacity: 0.8; stroke-width: 0.3; stroke-linecap: square"/>
   </g>
   <g id="line2d_24">
    <path d="M 44.29625 30.229349 
L 57.79625 43.134502 
" clip-path="url(#p9a4e863cf8)" style="fill: none; stroke: #999999; stroke-opacity: 0.8; stroke-width: 0.3; stroke-linecap: square"/>
   </g>
   <g id="line2d_25">
    <path d="M 44.29625 39.908214 
L 57.79625 20.550485 
" clip-path="url(#p9a4e863cf8)" style="fill: none; stroke: #999999; stroke-opacity: 0.8; stroke-width: 0.3; stroke-linecap: square"/>
   </g>
   <g id="line2d_26">
    <path d="M 44.29625 42.059073 
L 57.79625 16.248767 
" clip-path="url(#p9a4e863cf8)" style="fill: none; stroke: #999999; stroke-opacity: 0.8; stroke-width: 0.3; stroke-linecap: square"/>
   </g>
   <g id="line2d_27">
    <path d="M 44.29625 21.625914 
L 57.79625 24.852202 
" clip-path="url(#p9a4e863cf8)" style="fill: none; stroke: #999999; stroke-opacity: 0.8; stroke-width: 0.3; stroke-linecap: square"/>
   </g>
   <g id="line2d_28">
    <path d="M 44.29625 45.285361 
L 57.79625 35.606496 
" clip-path="url(#p9a4e863cf8)" style="fill: none; stroke: #999999; stroke-opacity: 0.8; stroke-width: 0.3; stroke-linecap: square"/>
   </g>
   <g id="line2d_29">
    <path d="M 44.29625 45.285361 
L 57.79625 39.908214 
" clip-path="url(#p9a4e863cf8)" style="fill: none; stroke: #999999; stroke-opacity: 0.8; stroke-width: 0.3; stroke-linecap: square"/>
   </g>
   <g id="line2d_30">
    <path d="M 44.29625 25.927632 
L 57.79625 19.475055 
" clip-path="url(#p9a4e863cf8)" style="fill: none; stroke: #999999; stroke-opacity: 0.8; stroke-width: 0.3; stroke-linecap: square"/>
   </g>
   <g id="line2d_31">
    <path d="M 44.29625 56.039656 
L 57.79625 20.550485 
" clip-path="url(#p9a4e863cf8)" style="fill: none; stroke: #999999; stroke-opacity: 0.8; stroke-width: 0.3; stroke-linecap: square"/>
   </g>
   <g id="line2d_32">
    <path d="M 44.29625 31.304779 
L 57.79625 23.776773 
" clip-path="url(#p9a4e863cf8)" style="fill: none; stroke: #999999; stroke-opacity: 0.8; stroke-width: 0.3; stroke-linecap: square"/>
   </g>
   <g id="line2d_33">
    <path d="M 44.29625 24.852202 
L 57.79625 21.625914 
" clip-path="url(#p9a4e863cf8)" style="fill: none; stroke: #999999; stroke-opacity: 0.8; stroke-width: 0.3; stroke-linecap: square"/>
   </g>
   <g id="line2d_34">
    <path d="M 44.29625 19.475055 
L 57.79625 20.550485 
" clip-path="url(#p9a4e863cf8)" style="fill: none; stroke: #999999; stroke-opacity: 0.8; stroke-width: 0.3; stroke-linecap: square"/>
   </g>
   <g id="line2d_35">
    <path d="M 44.29625 17.324196 
L 57.79625 19.475055 
" clip-path="url(#p9a4e863cf8)" style="fill: none; stroke: #999999; stroke-opacity: 0.8; stroke-width: 0.3; stroke-linecap: square"/>
   </g>
   <g id="line2d_36">
    <path d="M 44.29625 18.399626 
L 57.79625 24.852202 
" clip-path="url(#p9a4e863cf8)" style="fill: none; stroke: #999999; stroke-opacity: 0.8; stroke-width: 0.3; stroke-linecap: square"/>
   </g>
   <g id="line2d_37">
    <path d="M 44.29625 25.927632 
L 57.79625 31.304779 
" clip-path="url(#p9a4e863cf8)" style="fill: none; stroke: #999999; stroke-opacity: 0.8; stroke-width: 0.3; stroke-linecap: square"/>
   </g>
   <g id="line2d_38">
    <path d="M 44.29625 27.003061 
L 57.79625 25.927632 
" clip-path="url(#p9a4e863cf8)" style="fill: none; stroke: #999999; stroke-opacity: 0.8; stroke-width: 0.3; stroke-linecap: square"/>
   </g>
   <g id="line2d_39">
    <path d="M 44.29625 29.15392 
L 57.79625 27.003061 
" clip-path="url(#p9a4e863cf8)" style="fill: none; stroke: #999999; stroke-opacity: 0.8; stroke-width: 0.3; stroke-linecap: square"/>
   </g>
   <g id="line2d_40">
    <path d="M 44.29625 33.455638 
L 57.79625 38.832785 
" clip-path="url(#p9a4e863cf8)" style="fill: none; stroke: #999999; stroke-opacity: 0.8; stroke-width: 0.3; stroke-linecap: square"/>
   </g>
   <g id="line2d_41">
    <path d="M 44.29625 24.852202 
L 57.79625 29.15392 
" clip-path="url(#p9a4e863cf8)" style="fill: none; stroke: #999999; stroke-opacity: 0.8; stroke-width: 0.3; stroke-linecap: square"/>
   </g>
   <g id="line2d_42">
    <path d="M 44.29625 22.701343 
L 57.79625 52.813367 
" clip-path="url(#p9a4e863cf8)" style="fill: none; stroke: #999999; stroke-opacity: 0.8; stroke-width: 0.3; stroke-linecap: square"/>
   </g>
   <g id="line2d_43">
    <path d="M 44.29625 24.852202 
L 57.79625 38.832785 
" clip-path="url(#p9a4e863cf8)" style="fill: none; stroke: #999999; stroke-opacity: 0.8; stroke-width: 0.3; stroke-linecap: square"/>
   </g>
   <g id="line2d_44">
    <path d="M 44.29625 19.475055 
L 57.79625 19.475055 
" clip-path="url(#p9a4e863cf8)" style="fill: none; stroke: #999999; stroke-opacity: 0.8; stroke-width: 0.3; stroke-linecap: square"/>
   </g>
   <g id="line2d_45">
    <path d="M 44.29625 37.757355 
L 57.79625 33.455638 
" clip-path="url(#p9a4e863cf8)" style="fill: none; stroke: #999999; stroke-opacity: 0.8; stroke-width: 0.3; stroke-linecap: square"/>
   </g>
   <g id="line2d_46">
    <path d="M 44.29625 40.983644 
L 57.79625 33.455638 
" clip-path="url(#p9a4e863cf8)" style="fill: none; stroke: #999999; stroke-opacity: 0.8; stroke-width: 0.3; stroke-linecap: square"/>
   </g>
   <g id="line2d_47">
    <path d="M 44.29625 20.550485 
L 57.79625 21.625914 
" clip-path="url(#p9a4e863cf8)" style="fill: none; stroke: #999999; stroke-opacity: 0.8; stroke-width: 0.3; stroke-linecap: square"/>
   </g>
   <g id="line2d_48">
    <path d="M 44.29625 33.455638 
L 57.79625 27.003061 
" clip-path="url(#p9a4e863cf8)" style="fill: none; stroke: #999999; stroke-opacity: 0.8; stroke-width: 0.3; stroke-linecap: square"/>
   </g>
   <g id="line2d_49">
    <path d="M 44.29625 24.852202 
L 57.79625 43.134502 
" clip-path="url(#p9a4e863cf8)" style="fill: none; stroke: #999999; stroke-opacity: 0.8; stroke-width: 0.3; stroke-linecap: square"/>
   </g>
   <g id="line2d_50">
    <path d="M 44.29625 29.15392 
L 57.79625 25.927632 
" clip-path="url(#p9a4e863cf8)" style="fill: none; stroke: #999999; stroke-opacity: 0.8; stroke-width: 0.3; stroke-linecap: square"/>
   </g>
   <g id="line2d_51">
    <path d="M 44.29625 57.115085 
L 57.79625 15.173337 
" clip-path="url(#p9a4e863cf8)" style="fill: none; stroke: #999999; stroke-opacity: 0.8; stroke-width: 0.3; stroke-linecap: square"/>
   </g>
   <g id="line2d_52">
    <path d="M 44.29625 22.701343 
L 57.79625 25.927632 
" clip-path="url(#p9a4e863cf8)" style="fill: none; stroke: #999999; stroke-opacity: 0.8; stroke-width: 0.3; stroke-linecap: square"/>
   </g>
   <g id="line2d_53">
    <path d="M 44.29625 29.15392 
L 57.79625 23.776773 
" clip-path="url(#p9a4e863cf8)" style="fill: none; stroke: #999999; stroke-opacity: 0.8; stroke-width: 0.3; stroke-linecap: square"/>
   </g>
   <g id="line2d_54">
    <path d="M 44.29625 16.248767 
L 57.79625 33.455638 
" clip-path="url(#p9a4e863cf8)" style="fill: none; stroke: #999999; stroke-opacity: 0.8; stroke-width: 0.3; stroke-linecap: square"/>
   </g>
   <g id="line2d_55">
    <path d="M 44.29625 20.550485 
L 57.79625 28.07849 
" clip-path="url(#p9a4e863cf8)" style="fill: none; stroke: #999999; stroke-opacity: 0.8; stroke-width: 0.3; stroke-linecap: square"/>
   </g>
   <g id="line2d_56">
    <path d="M 44.29625 34.531067 
L 57.79625 18.399626 
" clip-path="url(#p9a4e863cf8)" style="fill: none; stroke: #999999; stroke-opacity: 0.8; stroke-width: 0.3; stroke-linecap: square"/>
   </g>
   <g id="line2d_57">
    <path d="M 44.29625 25.927632 
L 57.79625 27.003061 
" clip-path="url(#p9a4e863cf8)" style="fill: none; stroke: #999999; stroke-opacity: 0.8; stroke-width: 0.3; stroke-linecap: square"/>
   </g>
   <g id="patch_9">
    <path d="M 24.04625 85.07625 
L 24.04625 13.07625 
" style="fill: none; stroke: #000000; stroke-width: 0.5; stroke-linejoin: miter; stroke-linecap: square"/>
   </g>
   <g id="patch_10">
    <path d="M 24.04625 85.07625 
L 78.04625 85.07625 
" style="fill: none; stroke: #000000; stroke-width: 0.5; stroke-linejoin: miter; stroke-linecap: square"/>
   </g>
   <g id="PathCollection_1">
    <defs>
     <path id="md25c5555c2" d="M 0 1.936492 
C 0.513564 1.936492 1.006162 1.732451 1.369306 1.369306 
C 1.732451 1.006162 1.936492 0.513564 1.936492 0 
C 1.936492 -0.513564 1.732451 -1.006162 1.369306 -1.369306 
C 1.006162 -1.732451 0.513564 -1.936492 0 -1.936492 
C -0.513564 -1.936492 -1.006162 -1.732451 -1.369306 -1.369306 
C -1.732451 -1.006162 -1.936492 -0.513564 -1.936492 0 
C -1.936492 0.513564 -1.732451 1.006162 -1.369306 1.369306 
C -1.006162 1.732451 -0.513564 1.936492 0 1.936492 
z
"/>
    </defs>
    <g clip-path="url(#p9a4e863cf8)">
     <use xlink:href="#md25c5555c2" x="44.29625" y="25.927632" style="fill: #228b22; fill-opacity: 0.2"/>
     <use xlink:href="#md25c5555c2" x="44.29625" y="23.776773" style="fill: #228b22; fill-opacity: 0.2"/>
     <use xlink:href="#md25c5555c2" x="44.29625" y="42.059073" style="fill: #228b22; fill-opacity: 0.2"/>
     <use xlink:href="#md25c5555c2" x="44.29625" y="24.852202" style="fill: #228b22; fill-opacity: 0.2"/>
     <use xlink:href="#md25c5555c2" x="44.29625" y="20.550485" style="fill: #228b22; fill-opacity: 0.2"/>
     <use xlink:href="#md25c5555c2" x="44.29625" y="46.360791" style="fill: #228b22; fill-opacity: 0.2"/>
     <use xlink:href="#md25c5555c2" x="44.29625" y="25.927632" style="fill: #228b22; fill-opacity: 0.2"/>
     <use xlink:href="#md25c5555c2" x="44.29625" y="21.625914" style="fill: #228b22; fill-opacity: 0.2"/>
     <use xlink:href="#md25c5555c2" x="44.29625" y="19.475055" style="fill: #228b22; fill-opacity: 0.2"/>
     <use xlink:href="#md25c5555c2" x="44.29625" y="35.606496" style="fill: #228b22; fill-opacity: 0.2"/>
     <use xlink:href="#md25c5555c2" x="44.29625" y="34.531067" style="fill: #228b22; fill-opacity: 0.2"/>
     <use xlink:href="#md25c5555c2" x="44.29625" y="16.248767" style="fill: #228b22; fill-opacity: 0.2"/>
     <use xlink:href="#md25c5555c2" x="44.29625" y="42.059073" style="fill: #228b22; fill-opacity: 0.2"/>
     <use xlink:href="#md25c5555c2" x="44.29625" y="43.134502" style="fill: #228b22; fill-opacity: 0.2"/>
     <use xlink:href="#md25c5555c2" x="44.29625" y="18.399626" style="fill: #228b22; fill-opacity: 0.2"/>
     <use xlink:href="#md25c5555c2" x="44.29625" y="30.229349" style="fill: #228b22; fill-opacity: 0.2"/>
     <use xlink:href="#md25c5555c2" x="44.29625" y="39.908214" style="fill: #228b22; fill-opacity: 0.2"/>
     <use xlink:href="#md25c5555c2" x="44.29625" y="42.059073" style="fill: #228b22; fill-opacity: 0.2"/>
     <use xlink:href="#md25c5555c2" x="44.29625" y="21.625914" style="fill: #228b22; fill-opacity: 0.2"/>
     <use xlink:href="#md25c5555c2" x="44.29625" y="45.285361" style="fill: #228b22; fill-opacity: 0.2"/>
     <use xlink:href="#md25c5555c2" x="44.29625" y="45.285361" style="fill: #228b22; fill-opacity: 0.2"/>
     <use xlink:href="#md25c5555c2" x="44.29625" y="25.927632" style="fill: #228b22; fill-opacity: 0.2"/>
     <use xlink:href="#md25c5555c2" x="44.29625" y="56.039656" style="fill: #228b22; fill-opacity: 0.2"/>
     <use xlink:href="#md25c5555c2" x="44.29625" y="31.304779" style="fill: #228b22; fill-opacity: 0.2"/>
     <use xlink:href="#md25c5555c2" x="44.29625" y="24.852202" style="fill: #228b22; fill-opacity: 0.2"/>
     <use xlink:href="#md25c5555c2" x="44.29625" y="19.475055" style="fill: #228b22; fill-opacity: 0.2"/>
     <use xlink:href="#md25c5555c2" x="44.29625" y="17.324196" style="fill: #228b22; fill-opacity: 0.2"/>
     <use xlink:href="#md25c5555c2" x="44.29625" y="18.399626" style="fill: #228b22; fill-opacity: 0.2"/>
     <use xlink:href="#md25c5555c2" x="44.29625" y="25.927632" style="fill: #228b22; fill-opacity: 0.2"/>
     <use xlink:href="#md25c5555c2" x="44.29625" y="27.003061" style="fill: #228b22; fill-opacity: 0.2"/>
     <use xlink:href="#md25c5555c2" x="44.29625" y="29.15392" style="fill: #228b22; fill-opacity: 0.2"/>
     <use xlink:href="#md25c5555c2" x="44.29625" y="33.455638" style="fill: #228b22; fill-opacity: 0.2"/>
     <use xlink:href="#md25c5555c2" x="44.29625" y="24.852202" style="fill: #228b22; fill-opacity: 0.2"/>
     <use xlink:href="#md25c5555c2" x="44.29625" y="22.701343" style="fill: #228b22; fill-opacity: 0.2"/>
     <use xlink:href="#md25c5555c2" x="44.29625" y="24.852202" style="fill: #228b22; fill-opacity: 0.2"/>
     <use xlink:href="#md25c5555c2" x="44.29625" y="19.475055" style="fill: #228b22; fill-opacity: 0.2"/>
     <use xlink:href="#md25c5555c2" x="44.29625" y="37.757355" style="fill: #228b22; fill-opacity: 0.2"/>
     <use xlink:href="#md25c5555c2" x="44.29625" y="40.983644" style="fill: #228b22; fill-opacity: 0.2"/>
     <use xlink:href="#md25c5555c2" x="44.29625" y="20.550485" style="fill: #228b22; fill-opacity: 0.2"/>
     <use xlink:href="#md25c5555c2" x="44.29625" y="33.455638" style="fill: #228b22; fill-opacity: 0.2"/>
     <use xlink:href="#md25c5555c2" x="44.29625" y="24.852202" style="fill: #228b22; fill-opacity: 0.2"/>
     <use xlink:href="#md25c5555c2" x="44.29625" y="29.15392" style="fill: #228b22; fill-opacity: 0.2"/>
     <use xlink:href="#md25c5555c2" x="44.29625" y="57.115085" style="fill: #228b22; fill-opacity: 0.2"/>
     <use xlink:href="#md25c5555c2" x="44.29625" y="22.701343" style="fill: #228b22; fill-opacity: 0.2"/>
     <use xlink:href="#md25c5555c2" x="44.29625" y="29.15392" style="fill: #228b22; fill-opacity: 0.2"/>
     <use xlink:href="#md25c5555c2" x="44.29625" y="16.248767" style="fill: #228b22; fill-opacity: 0.2"/>
     <use xlink:href="#md25c5555c2" x="44.29625" y="20.550485" style="fill: #228b22; fill-opacity: 0.2"/>
     <use xlink:href="#md25c5555c2" x="44.29625" y="34.531067" style="fill: #228b22; fill-opacity: 0.2"/>
     <use xlink:href="#md25c5555c2" x="44.29625" y="25.927632" style="fill: #228b22; fill-opacity: 0.2"/>
    </g>
   </g>
   <g id="PathCollection_2">
    <defs>
     <path id="m6dee117b2b" d="M 0 1.936492 
C 0.513564 1.936492 1.006162 1.732451 1.369306 1.369306 
C 1.732451 1.006162 1.936492 0.513564 1.936492 0 
C 1.936492 -0.513564 1.732451 -1.006162 1.369306 -1.369306 
C 1.006162 -1.732451 0.513564 -1.936492 0 -1.936492 
C -0.513564 -1.936492 -1.006162 -1.732451 -1.369306 -1.369306 
C -1.732451 -1.006162 -1.936492 -0.513564 -1.936492 0 
C -1.936492 0.513564 -1.732451 1.006162 -1.369306 1.369306 
C -1.006162 1.732451 -0.513564 1.936492 0 1.936492 
z
"/>
    </defs>
    <g clip-path="url(#p9a4e863cf8)">
     <use xlink:href="#m6dee117b2b" x="57.79625" y="16.248767" style="fill: #cd5c5c; fill-opacity: 0.2"/>
     <use xlink:href="#m6dee117b2b" x="57.79625" y="17.324196" style="fill: #cd5c5c; fill-opacity: 0.2"/>
     <use xlink:href="#m6dee117b2b" x="57.79625" y="18.399626" style="fill: #cd5c5c; fill-opacity: 0.2"/>
     <use xlink:href="#m6dee117b2b" x="57.79625" y="23.776773" style="fill: #cd5c5c; fill-opacity: 0.2"/>
     <use xlink:href="#m6dee117b2b" x="57.79625" y="18.399626" style="fill: #cd5c5c; fill-opacity: 0.2"/>
     <use xlink:href="#m6dee117b2b" x="57.79625" y="37.757355" style="fill: #cd5c5c; fill-opacity: 0.2"/>
     <use xlink:href="#m6dee117b2b" x="57.79625" y="30.229349" style="fill: #cd5c5c; fill-opacity: 0.2"/>
     <use xlink:href="#m6dee117b2b" x="57.79625" y="18.399626" style="fill: #cd5c5c; fill-opacity: 0.2"/>
     <use xlink:href="#m6dee117b2b" x="57.79625" y="30.229349" style="fill: #cd5c5c; fill-opacity: 0.2"/>
     <use xlink:href="#m6dee117b2b" x="57.79625" y="38.832785" style="fill: #cd5c5c; fill-opacity: 0.2"/>
     <use xlink:href="#m6dee117b2b" x="57.79625" y="45.285361" style="fill: #cd5c5c; fill-opacity: 0.2"/>
     <use xlink:href="#m6dee117b2b" x="57.79625" y="17.324196" style="fill: #cd5c5c; fill-opacity: 0.2"/>
     <use xlink:href="#m6dee117b2b" x="57.79625" y="25.927632" style="fill: #cd5c5c; fill-opacity: 0.2"/>
     <use xlink:href="#m6dee117b2b" x="57.79625" y="28.07849" style="fill: #cd5c5c; fill-opacity: 0.2"/>
     <use xlink:href="#m6dee117b2b" x="57.79625" y="25.927632" style="fill: #cd5c5c; fill-opacity: 0.2"/>
     <use xlink:href="#m6dee117b2b" x="57.79625" y="43.134502" style="fill: #cd5c5c; fill-opacity: 0.2"/>
     <use xlink:href="#m6dee117b2b" x="57.79625" y="20.550485" style="fill: #cd5c5c; fill-opacity: 0.2"/>
     <use xlink:href="#m6dee117b2b" x="57.79625" y="16.248767" style="fill: #cd5c5c; fill-opacity: 0.2"/>
     <use xlink:href="#m6dee117b2b" x="57.79625" y="24.852202" style="fill: #cd5c5c; fill-opacity: 0.2"/>
     <use xlink:href="#m6dee117b2b" x="57.79625" y="35.606496" style="fill: #cd5c5c; fill-opacity: 0.2"/>
     <use xlink:href="#m6dee117b2b" x="57.79625" y="39.908214" style="fill: #cd5c5c; fill-opacity: 0.2"/>
     <use xlink:href="#m6dee117b2b" x="57.79625" y="19.475055" style="fill: #cd5c5c; fill-opacity: 0.2"/>
     <use xlink:href="#m6dee117b2b" x="57.79625" y="20.550485" style="fill: #cd5c5c; fill-opacity: 0.2"/>
     <use xlink:href="#m6dee117b2b" x="57.79625" y="23.776773" style="fill: #cd5c5c; fill-opacity: 0.2"/>
     <use xlink:href="#m6dee117b2b" x="57.79625" y="21.625914" style="fill: #cd5c5c; fill-opacity: 0.2"/>
     <use xlink:href="#m6dee117b2b" x="57.79625" y="20.550485" style="fill: #cd5c5c; fill-opacity: 0.2"/>
     <use xlink:href="#m6dee117b2b" x="57.79625" y="19.475055" style="fill: #cd5c5c; fill-opacity: 0.2"/>
     <use xlink:href="#m6dee117b2b" x="57.79625" y="24.852202" style="fill: #cd5c5c; fill-opacity: 0.2"/>
     <use xlink:href="#m6dee117b2b" x="57.79625" y="31.304779" style="fill: #cd5c5c; fill-opacity: 0.2"/>
     <use xlink:href="#m6dee117b2b" x="57.79625" y="25.927632" style="fill: #cd5c5c; fill-opacity: 0.2"/>
     <use xlink:href="#m6dee117b2b" x="57.79625" y="27.003061" style="fill: #cd5c5c; fill-opacity: 0.2"/>
     <use xlink:href="#m6dee117b2b" x="57.79625" y="38.832785" style="fill: #cd5c5c; fill-opacity: 0.2"/>
     <use xlink:href="#m6dee117b2b" x="57.79625" y="29.15392" style="fill: #cd5c5c; fill-opacity: 0.2"/>
     <use xlink:href="#m6dee117b2b" x="57.79625" y="52.813367" style="fill: #cd5c5c; fill-opacity: 0.2"/>
     <use xlink:href="#m6dee117b2b" x="57.79625" y="38.832785" style="fill: #cd5c5c; fill-opacity: 0.2"/>
     <use xlink:href="#m6dee117b2b" x="57.79625" y="19.475055" style="fill: #cd5c5c; fill-opacity: 0.2"/>
     <use xlink:href="#m6dee117b2b" x="57.79625" y="33.455638" style="fill: #cd5c5c; fill-opacity: 0.2"/>
     <use xlink:href="#m6dee117b2b" x="57.79625" y="33.455638" style="fill: #cd5c5c; fill-opacity: 0.2"/>
     <use xlink:href="#m6dee117b2b" x="57.79625" y="21.625914" style="fill: #cd5c5c; fill-opacity: 0.2"/>
     <use xlink:href="#m6dee117b2b" x="57.79625" y="27.003061" style="fill: #cd5c5c; fill-opacity: 0.2"/>
     <use xlink:href="#m6dee117b2b" x="57.79625" y="43.134502" style="fill: #cd5c5c; fill-opacity: 0.2"/>
     <use xlink:href="#m6dee117b2b" x="57.79625" y="25.927632" style="fill: #cd5c5c; fill-opacity: 0.2"/>
     <use xlink:href="#m6dee117b2b" x="57.79625" y="15.173337" style="fill: #cd5c5c; fill-opacity: 0.2"/>
     <use xlink:href="#m6dee117b2b" x="57.79625" y="25.927632" style="fill: #cd5c5c; fill-opacity: 0.2"/>
     <use xlink:href="#m6dee117b2b" x="57.79625" y="23.776773" style="fill: #cd5c5c; fill-opacity: 0.2"/>
     <use xlink:href="#m6dee117b2b" x="57.79625" y="33.455638" style="fill: #cd5c5c; fill-opacity: 0.2"/>
     <use xlink:href="#m6dee117b2b" x="57.79625" y="28.07849" style="fill: #cd5c5c; fill-opacity: 0.2"/>
     <use xlink:href="#m6dee117b2b" x="57.79625" y="18.399626" style="fill: #cd5c5c; fill-opacity: 0.2"/>
     <use xlink:href="#m6dee117b2b" x="57.79625" y="27.003061" style="fill: #cd5c5c; fill-opacity: 0.2"/>
    </g>
   </g>
   <g id="line2d_58">
    <path d="M 40.92125 29.768451 
L 29.67125 29.768451 
" clip-path="url(#p9a4e863cf8)" style="fill: none; stroke: #000000; stroke-width: 0.85; stroke-linecap: square"/>
   </g>
   <g id="line2d_59">
    <path d="M 61.17125 27.398117 
L 72.42125 27.398117 
" clip-path="url(#p9a4e863cf8)" style="fill: none; stroke: #000000; stroke-width: 0.85; stroke-linecap: square"/>
   </g>
   <g id="LineCollection_1">
    <path d="M 35.29625 31.234014 
L 35.29625 28.302888 
" clip-path="url(#p9a4e863cf8)" style="fill: none; stroke: #000000; stroke-width: 0.85"/>
   </g>
   <g id="line2d_60">
    <defs>
     <path id="m166e131233" d="M 4 0 
L -4 -0 
" style="stroke: #000000; stroke-width: 0.85"/>
    </defs>
    <g clip-path="url(#p9a4e863cf8)">
     <use xlink:href="#m166e131233" x="35.29625" y="31.234014" style="stroke: #000000; stroke-width: 0.85"/>
    </g>
   </g>
   <g id="line2d_61">
    <g clip-path="url(#p9a4e863cf8)">
     <use xlink:href="#m166e131233" x="35.29625" y="28.302888" style="stroke: #000000; stroke-width: 0.85"/>
    </g>
   </g>
   <g id="LineCollection_2">
    <path d="M 66.79625 28.654753 
L 66.79625 26.14148 
" clip-path="url(#p9a4e863cf8)" style="fill: none; stroke: #000000; stroke-width: 0.85"/>
   </g>
   <g id="line2d_62">
    <g clip-path="url(#p9a4e863cf8)">
     <use xlink:href="#m166e131233" x="66.79625" y="28.654753" style="stroke: #000000; stroke-width: 0.85"/>
    </g>
   </g>
   <g id="line2d_63">
    <g clip-path="url(#p9a4e863cf8)">
     <use xlink:href="#m166e131233" x="66.79625" y="26.14148" style="stroke: #000000; stroke-width: 0.85"/>
    </g>
   </g>
   <g id="line2d_64">
    <path d="M 40.92125 11.63625 
L 61.17125 11.63625 
" style="fill: none; stroke: #000000; stroke-width: 0.5; stroke-linecap: square"/>
   </g>
   <g id="text_8">
    <text style="font-size: 8px; font-family: 'Arial'; text-anchor: middle" x="51.04625" y="12.92625" transform="rotate(-0 51.04625 12.92625)">ns</text>
   </g>
  </g>
 </g>
 <defs>
  <clipPath id="p9a4e863cf8">
   <rect x="24.04625" y="13.07625" width="54" height="72"/>
  </clipPath>
 </defs>
</svg>
