<?xml version="1.0" encoding="utf-8" standalone="no"?>
<!DOCTYPE svg PUBLIC "-//W3C//DTD SVG 1.1//EN"
  "http://www.w3.org/Graphics/SVG/1.1/DTD/svg11.dtd">
<svg xmlns:xlink="http://www.w3.org/1999/xlink" width="155.2025pt" height="100.079375pt" viewBox="0 0 155.2025 100.079375" xmlns="http://www.w3.org/2000/svg" version="1.1">
 <metadata>
  <rdf:RDF xmlns:dc="http://purl.org/dc/elements/1.1/" xmlns:cc="http://creativecommons.org/ns#" xmlns:rdf="http://www.w3.org/1999/02/22-rdf-syntax-ns#">
   <cc:Work>
    <dc:type rdf:resource="http://purl.org/dc/dcmitype/StillImage"/>
    <dc:date>2026-03-04T23:12:10.149188</dc:date>
    <dc:format>image/svg+xml</dc:format>
    <dc:creator>
     <cc:Agent>
      <dc:title>Matplotlib v3.10.8, https://matplotlib.org/</dc:title>
     </cc:Agent>
    </dc:creator>
   </cc:Work>
  </rdf:RDF>
 </metadata>
 <defs>
  <style type="text/css">*{stroke-linejoin: round; stroke-linecap: butt}</style>
 </defs>
 <g id="figure_1">
  <g id="patch_1">
   <path d="M 0 100.079375 
L 155.2025 100.079375 
L 155.2025 0 
L 0 0 
z
" style="fill: #ffffff"/>
  </g>
  <g id="axes_1">
   <g id="patch_2">
    <path d="M 35.55375 82.063125 
L 143.55375 82.063125 
L 143.55375 10.063125 
L 35.55375 10.063125 
z
" style="fill: #ffffff"/>
   </g>
   <g id="line2d_1">
    <path d="M 35.55375 58.063125 
L 143.55375 58.063125 
" clip-path="url(#pdbf4051e16)" style="fill: none; stroke-dasharray: 3.256,1.408; stroke-dashoffset: 0; stroke: #808080; stroke-opacity: 0.5; stroke-width: 0.88"/>
   </g>
   <g id="FillBetweenPolyCollection_1">
    <defs>
     <path id="m95acc99d36" d="M 35.55375 -47.833242 
L 35.55375 -30.321707 
L 40.05375 -45.063509 
L 44.55375 -50.949209 
L 49.05375 -50.369995 
L 53.55375 -59.015038 
L 58.05375 -62.141606 
L 62.55375 -66.031778 
L 67.05375 -63.150716 
L 71.55375 -67.590102 
L 76.05375 -70.131693 
L 80.55375 -73.888409 
L 85.05375 -78.286547 
L 89.55375 -75.664778 
L 94.05375 -78.635816 
L 98.55375 -76.765726 
L 103.05375 -74.098371 
L 107.55375 -73.51177 
L 112.05375 -65.34082 
L 116.55375 -75.941787 
L 121.05375 -78.909856 
L 125.55375 -75.269123 
L 130.05375 -78.909856 
L 134.55375 -77.160511 
L 139.05375 -75.269123 
L 143.55375 -77.67225 
L 143.55375 -88.645964 
L 143.55375 -88.645964 
L 139.05375 -87.130724 
L 134.55375 -87.198519 
L 130.05375 -89.367542 
L 125.55375 -87.130724 
L 121.05375 -89.367542 
L 116.55375 -86.45806 
L 112.05375 -81.385558 
L 107.55375 -86.928893 
L 103.05375 -86.342292 
L 98.55375 -86.287182 
L 94.05375 -87.029337 
L 89.55375 -84.775885 
L 85.05375 -86.072483 
L 80.55375 -83.940009 
L 76.05375 -83.778358 
L 71.55375 -79.789337 
L 67.05375 -77.69811 
L 62.55375 -78.735416 
L 58.05375 -76.094976 
L 53.55375 -73.997054 
L 49.05375 -68.27475 
L 44.55375 -67.695536 
L 40.05375 -61.826134 
L 35.55375 -47.833242 
z
"/>
    </defs>
    <g clip-path="url(#pdbf4051e16)">
     <use xlink:href="#m95acc99d36" x="0" y="100.079375" style="fill: #cd5c5c; fill-opacity: 0.25"/>
    </g>
   </g>
   <g id="FillBetweenPolyCollection_2">
    <defs>
     <path id="ma8deb315c5" d="M 35.55375 -57.263388 
L 35.55375 -45.707887 
L 40.05375 -47.344947 
L 44.55375 -51.680573 
L 49.05375 -55.696669 
L 53.55375 -57.957659 
L 58.05375 -59.717821 
L 62.55375 -58.645285 
L 67.05375 -65.136154 
L 71.55375 -66.031778 
L 76.05375 -68.523823 
L 80.55375 -66.300791 
L 85.05375 -70.911627 
L 89.55375 -70.143415 
L 94.05375 -68.523823 
L 98.55375 -69.566097 
L 103.05375 -63.258135 
L 107.55375 -64.773919 
L 112.05375 -67.409037 
L 116.55375 -66.341394 
L 121.05375 -65.83727 
L 125.55375 -67.409037 
L 130.05375 -67.409037 
L 134.55375 -67.464434 
L 139.05375 -75.269123 
L 143.55375 -75.941787 
L 143.55375 -86.45806 
L 143.55375 -86.45806 
L 139.05375 -87.130724 
L 134.55375 -83.180311 
L 130.05375 -81.276524 
L 125.55375 -81.276524 
L 121.05375 -78.929924 
L 116.55375 -80.384983 
L 112.05375 -81.276524 
L 107.55375 -79.993275 
L 103.05375 -79.549875 
L 98.55375 -81.731709 
L 94.05375 -80.161738 
L 89.55375 -81.154391 
L 85.05375 -82.998424 
L 80.55375 -78.466403 
L 76.05375 -80.161738 
L 71.55375 -78.735416 
L 67.05375 -78.324917 
L 62.55375 -73.060684 
L 58.05375 -73.294271 
L 53.55375 -71.136066 
L 49.05375 -68.172566 
L 44.55375 -64.351927 
L 40.05375 -60.850818 
L 35.55375 -57.263388 
z
"/>
    </defs>
    <g clip-path="url(#pdbf4051e16)">
     <use xlink:href="#ma8deb315c5" x="0" y="100.079375" style="fill: #228b22; fill-opacity: 0.25"/>
    </g>
   </g>
   <g id="matplotlib.axis_1">
    <g id="xtick_1">
     <g id="line2d_2">
      <defs>
       <path id="m96372c9e57" d="M 0 0 
L 0 -4 
" style="stroke: #000000; stroke-width: 0.5"/>
      </defs>
      <g>
       <use xlink:href="#m96372c9e57" x="35.55375" y="82.063125" style="stroke: #000000; stroke-width: 0.5"/>
      </g>
     </g>
     <g id="text_1">
      <text style="font-size: 8px; font-family: 'Arial'; text-anchor: middle" x="35.55375" y="91.289375" transform="rotate(-0 35.55375 91.289375)">1</text>
     </g>
    </g>
    <g id="xtick_2">
     <g id="line2d_3">
      <g>
       <use xlink:href="#m96372c9e57" x="76.05375" y="82.063125" style="stroke: #000000; stroke-width: 0.5"/>
      </g>
     </g>
     <g id="text_2">
      <text style="font-size: 8px; font-family: 'Arial'; text-anchor: middle" x="76.05375" y="91.289375" transform="rotate(-0 76.05375 91.289375)">10</text>
     </g>
    </g>
    <g id="xtick_3">
     <g id="line2d_4">
      <g>
       <use xlink:href="#m96372c9e57" x="121.05375" y="82.063125" style="stroke: #000000; stroke-width: 0.5"/>
      </g>
     </g>
     <g id="text_3">
      <text style="font-size: 8px; font-family: 'Arial'; text-anchor: middle" x="121.05375" y="91.289375" transform="rotate(-0 121.05375 91.289375)">20</text>
     </g>
    </g>
    <g id="xtick_4">
     <g id="line2d_5">
      <g>
       <use xlink:href="#m96372c9e57" x="143.55375" y="82.063125" style="stroke: #000000; stroke-width: 0.5"/>
      </g>
     </g>
     <g id="text_4">
      <text style="font-size: 8px; font-family: 'Arial'; text-anchor: middle" x="143.55375" y="91.289375" transform="rotate(-0 143.55375 91.289375)">25</text>
     </g>
    </g>
   </g>
   <g id="matplotlib.axis_2">
    <g id="ytick_1">
     <g id="line2d_6">
      <defs>
       <path id="m2ee2033702" d="M 0 0 
L 4 0 
" style="stroke: #000000; stroke-width: 0.5"/>
      </defs>
      <g>
       <use xlink:href="#m2ee2033702" x="35.55375" y="82.063125" style="stroke: #000000; stroke-width: 0.5"/>
      </g>
     </g>
     <g id="text_5">
      <text style="font-size: 8px; font-family: 'Arial'; text-anchor: end" x="32.05375" y="84.92625" transform="rotate(-0 32.05375 84.92625)">25</text>
     </g>
    </g>
    <g id="ytick_2">
     <g id="line2d_7">
      <g>
       <use xlink:href="#m2ee2033702" x="35.55375" y="58.063125" style="stroke: #000000; stroke-width: 0.5"/>
      </g>
     </g>
     <g id="text_6">
      <text style="font-size: 8px; font-family: 'Arial'; text-anchor: end" x="32.05375" y="60.92625" transform="rotate(-0 32.05375 60.92625)">50</text>
     </g>
    </g>
    <g id="ytick_3">
     <g id="line2d_8">
      <g>
       <use xlink:href="#m2ee2033702" x="35.55375" y="34.063125" style="stroke: #000000; stroke-width: 0.5"/>
      </g>
     </g>
     <g id="text_7">
      <text style="font-size: 8px; font-family: 'Arial'; text-anchor: end" x="32.05375" y="36.92625" transform="rotate(-0 32.05375 36.92625)">75</text>
     </g>
    </g>
    <g id="ytick_4">
     <g id="line2d_9">
      <g>
       <use xlink:href="#m2ee2033702" x="35.55375" y="10.063125" style="stroke: #000000; stroke-width: 0.5"/>
      </g>
     </g>
     <g id="text_8">
      <text style="font-size: 8px; font-family: 'Arial'; text-anchor: end" x="32.05375" y="12.92625" transform="rotate(-0 32.05375 12.92625)">100</text>
     </g>
    </g>
    <g id="text_9">
     <text style="font-size: 8px; font-family: 'Arial'; text-anchor: middle" x="13.02375" y="46.063125" transform="rotate(-90 13.02375 46.063125)">accuracy (%)</text>
    </g>
   </g>
   <g id="line2d_10">
    <path d="M 35.55375 61.001901 
L 40.05375 46.634554 
L 44.55375 40.757003 
L 49.05375 40.757003 
L 53.55375 33.573329 
L 58.05375 30.961084 
L 62.55375 27.695778 
L 67.05375 29.654962 
L 71.55375 26.389656 
L 76.05375 23.124349 
L 80.55375 21.165166 
L 85.05375 17.89986 
L 89.55375 19.859043 
L 94.05375 17.246798 
L 98.55375 18.552921 
L 103.05375 19.859043 
L 107.55375 19.859043 
L 112.05375 26.716186 
L 116.55375 18.879452 
L 121.05375 15.940676 
L 125.55375 18.879452 
L 130.05375 15.940676 
L 134.55375 17.89986 
L 139.05375 18.879452 
L 143.55375 16.920268 
" clip-path="url(#pdbf4051e16)" style="fill: none; stroke: #cd5c5c; stroke-opacity: 0.9; stroke-width: 1.1; stroke-linecap: square"/>
   </g>
   <g id="line2d_11">
    <path d="M 35.55375 48.593737 
L 40.05375 45.981492 
L 44.55375 42.063125 
L 49.05375 38.144758 
L 53.55375 35.532513 
L 58.05375 33.573329 
L 62.55375 34.22639 
L 67.05375 28.348839 
L 71.55375 27.695778 
L 76.05375 25.736594 
L 80.55375 27.695778 
L 85.05375 23.124349 
L 89.55375 24.430472 
L 94.05375 25.736594 
L 98.55375 24.430472 
L 103.05375 28.67537 
L 107.55375 27.695778 
L 112.05375 25.736594 
L 116.55375 26.716186 
L 121.05375 27.695778 
L 125.55375 25.736594 
L 130.05375 25.736594 
L 134.55375 24.757003 
L 139.05375 18.879452 
L 143.55375 18.879452 
" clip-path="url(#pdbf4051e16)" style="fill: none; stroke: #228b22; stroke-opacity: 0.9; stroke-width: 1.1; stroke-linecap: square"/>
   </g>
   <g id="patch_3">
    <path d="M 35.55375 82.063125 
L 35.55375 10.063125 
" style="fill: none; stroke: #000000; stroke-width: 0.5; stroke-linejoin: miter; stroke-linecap: square"/>
   </g>
   <g id="patch_4">
    <path d="M 35.55375 82.063125 
L 143.55375 82.063125 
" style="fill: none; stroke: #000000; stroke-width: 0.5; stroke-linejoin: miter; stroke-linecap: square"/>
   </g>
  </g>
 </g>
 <defs>
  <clipPath id="pdbf4051e16">
   <rect x="35.55375" y="10.063125" width="108" height="72"/>
  </clipPath>
 </defs>
</svg>
