<?xml version="1.0" encoding="utf-8" standalone="no"?>
<!DOCTYPE svg PUBLIC "-//W3C//DTD SVG 1.1//EN"
  "http://www.w3.org/Graphics/SVG/1.1/DTD/svg11.dtd">
<svg xmlns:xlink="http://www.w3.org/1999/xlink" width="85.24625pt" height="106.750625pt" viewBox="0 0 85.24625 106.750625" xmlns="http://www.w3.org/2000/svg" version="1.1">
 <metadata>
  <rdf:RDF xmlns:dc="http://purl.org/dc/elements/1.1/" xmlns:cc="http://creativecommons.org/ns#" xmlns:rdf="http://www.w3.org/1999/02/22-rdf-syntax-ns#">
   <cc:Work>
    <dc:type rdf:resource="http://purl.org/dc/dcmitype/StillImage"/>
    <dc:date>2026-04-02T15:51:16.003938</dc:date>
    <dc:format>image/svg+xml</dc:format>
    <dc:creator>
     <cc:Agent>
      <dc:title>Matplotlib v3.10.8, https://matplotlib.org/</dc:title>
     </cc:Agent>
    </dc:creator>
   </cc:Work>
  </rdf:RDF>
 </metadata>
 <defs>
  <style type="text/css">*{stroke-linejoin: round; stroke-linecap: butt}</style>
 </defs>
 <g id="figure_1">
  <g id="patch_1">
   <path d="M 0 106.750625 
L 85.24625 106.750625 
L 85.24625 0 
L 0 0 
z
" style="fill: #ffffff"/>
  </g>
  <g id="axes_1">
   <g id="patch_2">
    <path d="M 24.04625 88.734375 
L 78.04625 88.734375 
L 78.04625 16.734375 
L 24.04625 16.734375 
z
" style="fill: #ffffff"/>
   </g>
   <g id="line2d_1">
    <path d="M 24.04625 52.734375 
L 78.04625 52.734375 
" clip-path="url(#pad36ec1767)" style="fill: none; stroke-dasharray: 2.516,1.088; stroke-dashoffset: 0; stroke: #808080; stroke-opacity: 0.5; stroke-width: 0.68"/>
   </g>
   <g id="patch_3">
    <path d="M 40.92125 49.965144 
L 39.003455 49.965144 
L 38.981679 49.809288 
L 38.963143 49.653432 
L 38.947872 49.497576 
L 38.935862 49.341719 
L 38.927082 49.185863 
L 38.921468 49.030007 
L 38.91893 48.874151 
L 38.919344 48.718295 
L 38.922557 48.562438 
L 38.928386 48.406582 
L 38.93662 48.250726 
L 38.947018 48.09487 
L 38.959312 47.939014 
L 38.97321 47.783157 
L 38.988395 47.627301 
L 39.004527 47.471445 
L 39.021247 47.315589 
L 39.038178 47.159733 
L 39.054927 47.003876 
L 39.071088 46.84802 
L 39.086245 46.692164 
L 39.099975 46.536308 
L 39.11185 46.380452 
L 39.121437 46.224595 
L 39.12831 46.068739 
L 39.132041 45.912883 
L 39.132212 45.757027 
L 39.128413 45.601171 
L 39.120248 45.445314 
L 39.107334 45.289458 
L 39.089306 45.133602 
L 39.06582 44.977746 
L 39.036553 44.821889 
L 39.001208 44.666033 
L 38.959513 44.510177 
L 38.911224 44.354321 
L 38.856129 44.198465 
L 38.794046 44.042608 
L 38.724824 43.886752 
L 38.648349 43.730896 
L 38.56454 43.57504 
L 38.473348 43.419184 
L 38.374764 43.263327 
L 38.268812 43.107471 
L 38.15555 42.951615 
L 38.035071 42.795759 
L 37.907505 42.639903 
L 37.773012 42.484046 
L 37.631785 42.32819 
L 37.484048 42.172334 
L 37.330055 42.016478 
L 37.170086 41.860622 
L 37.004449 41.704765 
L 36.833475 41.548909 
L 36.657515 41.393053 
L 36.476942 41.237197 
L 36.292146 41.081341 
L 36.103531 40.925484 
L 35.911512 40.769628 
L 35.716518 40.613772 
L 35.518982 40.457916 
L 35.319343 40.30206 
L 35.118045 40.146203 
L 34.915529 39.990347 
L 34.712237 39.834491 
L 34.508608 39.678635 
L 34.305072 39.522779 
L 34.102056 39.366922 
L 33.899976 39.211066 
L 33.699238 39.05521 
L 33.500236 38.899354 
L 33.303354 38.743498 
L 33.10896 38.587641 
L 32.917409 38.431785 
L 32.729041 38.275929 
L 32.544184 38.120073 
L 32.363149 37.964217 
L 32.18623 37.80836 
L 32.01371 37.652504 
L 31.845856 37.496648 
L 31.682919 37.340792 
L 31.525139 37.184935 
L 31.372738 37.029079 
L 31.225929 36.873223 
L 31.08491 36.717367 
L 30.949865 36.561511 
L 30.820969 36.405654 
L 30.69838 36.249798 
L 30.582248 36.093942 
L 30.472708 35.938086 
L 30.369885 35.78223 
L 30.273888 35.626373 
L 30.184817 35.470517 
L 30.102756 35.314661 
L 30.027774 35.158805 
L 29.959929 35.002949 
L 29.899259 34.847092 
L 29.845789 34.691236 
L 29.799526 34.53538 
L 29.760457 34.379524 
L 29.728552 34.223668 
L 29.703761 34.067811 
L 29.686012 33.911955 
L 29.675213 33.756099 
L 29.67125 33.600243 
L 29.673986 33.444387 
L 29.683261 33.28853 
L 29.698895 33.132674 
L 29.720682 32.976818 
L 29.748398 32.820962 
L 29.781795 32.665106 
L 29.820606 32.509249 
L 29.864547 32.353393 
L 29.913313 32.197537 
L 29.966588 32.041681 
L 30.02404 31.885825 
L 30.085328 31.729968 
L 30.150103 31.574112 
L 30.218009 31.418256 
L 30.288691 31.2624 
L 30.361793 31.106544 
L 30.436963 30.950687 
L 30.513859 30.794831 
L 30.592147 30.638975 
L 30.671508 30.483119 
L 30.751644 30.327263 
L 30.832271 30.171406 
L 30.913134 30.01555 
L 30.994001 29.859694 
L 31.074669 29.703838 
L 31.154964 29.547981 
L 31.234745 29.392125 
L 31.313905 29.236269 
L 31.392367 29.080413 
L 31.470091 28.924557 
L 31.547071 28.7687 
L 31.623334 28.612844 
L 31.698939 28.456988 
L 31.773976 28.301132 
L 31.848565 28.145276 
L 31.922852 27.989419 
L 31.997007 27.833563 
L 32.071222 27.677707 
L 32.145707 27.521851 
L 32.220687 27.365995 
L 32.296395 27.210138 
L 32.373073 27.054282 
L 32.450968 26.898426 
L 32.530322 26.74257 
L 32.611376 26.586714 
L 32.694361 26.430857 
L 32.779495 26.275001 
L 32.866982 26.119145 
L 32.957008 25.963289 
L 33.049737 25.807433 
L 33.14531 25.651576 
L 33.243841 25.49572 
L 33.345418 25.339864 
L 33.4501 25.184008 
L 33.557916 25.028152 
L 33.668866 24.872295 
L 33.782921 24.716439 
L 33.900022 24.560583 
L 34.020082 24.404727 
L 34.142986 24.248871 
L 34.268596 24.093014 
L 34.396749 23.937158 
L 34.527261 23.781302 
L 34.659929 23.625446 
L 34.794536 23.46959 
L 34.930849 23.313733 
L 35.068625 23.157877 
L 35.207614 23.002021 
L 35.34756 22.846165 
L 35.488205 22.690309 
L 35.629293 22.534452 
L 35.770569 22.378596 
L 35.911783 22.22274 
L 36.052694 22.066884 
L 36.193069 21.911027 
L 36.332686 21.755171 
L 36.471337 21.599315 
L 36.608824 21.443459 
L 36.744965 21.287603 
L 36.879594 21.131746 
L 37.012558 20.97589 
L 37.14372 20.820034 
L 37.272958 20.664178 
L 37.400164 20.508322 
L 37.525245 20.352465 
L 37.648121 20.196609 
L 37.768723 20.040753 
L 37.886997 19.884897 
L 38.002896 19.729041 
L 38.116384 19.573184 
L 38.227433 19.417328 
L 38.336023 19.261472 
L 38.442139 19.105616 
L 38.545772 18.94976 
L 40.92125 18.94976 
z
" clip-path="url(#pad36ec1767)" style="fill: #228b22; opacity: 0.2"/>
   </g>
   <g id="patch_4">
    <path d="M 61.17125 63.257452 
L 62.16785 63.257452 
L 62.201234 63.051499 
L 62.235184 62.845546 
L 62.269722 62.639593 
L 62.304871 62.433641 
L 62.340656 62.227688 
L 62.377104 62.021735 
L 62.414244 61.815782 
L 62.452102 61.609829 
L 62.49071 61.403876 
L 62.530097 61.197924 
L 62.570292 60.991971 
L 62.611328 60.786018 
L 62.653232 60.580065 
L 62.696036 60.374112 
L 62.739768 60.168159 
L 62.784458 59.962206 
L 62.830134 59.756254 
L 62.876823 59.550301 
L 62.924553 59.344348 
L 62.97335 59.138395 
L 63.02324 58.932442 
L 63.074248 58.726489 
L 63.126399 58.520537 
L 63.179719 58.314584 
L 63.23423 58.108631 
L 63.289958 57.902678 
L 63.346927 57.696725 
L 63.405161 57.490772 
L 63.464684 57.28482 
L 63.525521 57.078867 
L 63.587696 56.872914 
L 63.651234 56.666961 
L 63.71616 56.461008 
L 63.782497 56.255055 
L 63.850272 56.049102 
L 63.919506 55.84315 
L 63.990224 55.637197 
L 64.062446 55.431244 
L 64.136193 55.225291 
L 64.211482 55.019338 
L 64.288329 54.813385 
L 64.366747 54.607433 
L 64.446743 54.40148 
L 64.528322 54.195527 
L 64.611483 53.989574 
L 64.69622 53.783621 
L 64.782521 53.577668 
L 64.870364 53.371716 
L 64.959725 53.165763 
L 65.050567 52.95981 
L 65.142848 52.753857 
L 65.236514 52.547904 
L 65.331505 52.341951 
L 65.427748 52.135999 
L 65.525163 51.930046 
L 65.623659 51.724093 
L 65.723135 51.51814 
L 65.823481 51.312187 
L 65.924576 51.106234 
L 66.026294 50.900281 
L 66.128495 50.694329 
L 66.231036 50.488376 
L 66.333765 50.282423 
L 66.436524 50.07647 
L 66.53915 49.870517 
L 66.641478 49.664564 
L 66.743336 49.458612 
L 66.844556 49.252659 
L 66.944965 49.046706 
L 67.044395 48.840753 
L 67.142678 48.6348 
L 67.239653 48.428847 
L 67.335161 48.222895 
L 67.429053 48.016942 
L 67.521188 47.810989 
L 67.611433 47.605036 
L 67.699666 47.399083 
L 67.785779 47.19313 
L 67.869675 46.987177 
L 67.951272 46.781225 
L 68.030501 46.575272 
L 68.10731 46.369319 
L 68.181661 46.163366 
L 68.253535 45.957413 
L 68.322925 45.75146 
L 68.389843 45.545508 
L 68.454317 45.339555 
L 68.516389 45.133602 
L 68.576117 44.927649 
L 68.633575 44.721696 
L 68.688849 44.515743 
L 68.742039 44.309791 
L 68.793258 44.103838 
L 68.842629 43.897885 
L 68.890285 43.691932 
L 68.936369 43.485979 
L 68.981032 43.280026 
L 69.024431 43.074073 
L 69.066729 42.868121 
L 69.108093 42.662168 
L 69.148693 42.456215 
L 69.188702 42.250262 
L 69.228293 42.044309 
L 69.267639 41.838356 
L 69.306913 41.632404 
L 69.346286 41.426451 
L 69.385925 41.220498 
L 69.425994 41.014545 
L 69.466653 40.808592 
L 69.508057 40.602639 
L 69.550354 40.396687 
L 69.593686 40.190734 
L 69.63819 39.984781 
L 69.683993 39.778828 
L 69.731215 39.572875 
L 69.779966 39.366922 
L 69.830348 39.16097 
L 69.882453 38.955017 
L 69.936359 38.749064 
L 69.992137 38.543111 
L 70.049843 38.337158 
L 70.10952 38.131205 
L 70.171198 37.925252 
L 70.23489 37.7193 
L 70.300596 37.513347 
L 70.368296 37.307394 
L 70.437956 37.101441 
L 70.509519 36.895488 
L 70.582912 36.689535 
L 70.658038 36.483583 
L 70.734782 36.27763 
L 70.813005 36.071677 
L 70.892544 35.865724 
L 70.973215 35.659771 
L 71.054811 35.453818 
L 71.137099 35.247866 
L 71.219823 35.041913 
L 71.302706 34.83596 
L 71.385446 34.630007 
L 71.467722 34.424054 
L 71.54919 34.218101 
L 71.629487 34.012148 
L 71.708235 33.806196 
L 71.785039 33.600243 
L 71.85949 33.39429 
L 71.93117 33.188337 
L 71.999652 32.982384 
L 72.064505 32.776431 
L 72.125295 32.570479 
L 72.18159 32.364526 
L 72.23296 32.158573 
L 72.278988 31.95262 
L 72.319263 31.746667 
L 72.353391 31.540714 
L 72.380997 31.334762 
L 72.401725 31.128809 
L 72.415244 30.922856 
L 72.42125 30.716903 
L 72.419468 30.51095 
L 72.409654 30.304997 
L 72.391599 30.099045 
L 72.365129 29.893092 
L 72.330105 29.687139 
L 72.286428 29.481186 
L 72.234035 29.275233 
L 72.172903 29.06928 
L 72.103044 28.863327 
L 72.02451 28.657375 
L 71.937391 28.451422 
L 71.841808 28.245469 
L 71.737919 28.039516 
L 71.625915 27.833563 
L 71.506014 27.62761 
L 71.378464 27.421658 
L 71.24354 27.215705 
L 71.101536 27.009752 
L 70.952771 26.803799 
L 70.797579 26.597846 
L 70.636313 26.391893 
L 70.469335 26.185941 
L 70.29702 25.979988 
L 70.119751 25.774035 
L 69.937915 25.568082 
L 69.751906 25.362129 
L 69.562117 25.156176 
L 69.368942 24.950223 
L 69.172774 24.744271 
L 68.974002 24.538318 
L 68.77301 24.332365 
L 68.570179 24.126412 
L 68.365881 23.920459 
L 68.160482 23.714506 
L 67.954341 23.508554 
L 67.747807 23.302601 
L 67.541222 23.096648 
L 67.334916 22.890695 
L 67.129214 22.684742 
L 66.924428 22.478789 
L 66.720861 22.272837 
L 61.17125 22.272837 
z
" clip-path="url(#pad36ec1767)" style="fill: #cd5c5c; opacity: 0.2"/>
   </g>
   <g id="matplotlib.axis_1">
    <g id="xtick_1">
     <g id="line2d_2">
      <defs>
       <path id="m349d0fc1e3" d="M 0 0 
L 0 -4 
" style="stroke: #000000; stroke-width: 0.5"/>
      </defs>
      <g>
       <use xlink:href="#m349d0fc1e3" x="40.92125" y="88.734375" style="stroke: #000000; stroke-width: 0.5"/>
      </g>
     </g>
     <g id="text_1">
      <text style="font-size: 8px; font-family: 'Arial'; text-anchor: middle" x="40.92125" y="97.960625" transform="rotate(-0 40.92125 97.960625)">Gain</text>
     </g>
    </g>
    <g id="xtick_2">
     <g id="line2d_3">
      <g>
       <use xlink:href="#m349d0fc1e3" x="61.17125" y="88.734375" style="stroke: #000000; stroke-width: 0.5"/>
      </g>
     </g>
     <g id="text_2">
      <text style="font-size: 8px; font-family: 'Arial'; text-anchor: middle" x="61.17125" y="97.960625" transform="rotate(-0 61.17125 97.960625)">Loss</text>
     </g>
    </g>
   </g>
   <g id="matplotlib.axis_2">
    <g id="ytick_1">
     <g id="line2d_4">
      <defs>
       <path id="mcd3e9cccd4" d="M 0 0 
L 4 0 
" style="stroke: #000000; stroke-width: 0.5"/>
      </defs>
      <g>
       <use xlink:href="#mcd3e9cccd4" x="24.04625" y="88.734375" style="stroke: #000000; stroke-width: 0.5"/>
      </g>
     </g>
     <g id="text_3">
      <text style="font-size: 8px; font-family: 'Arial'; text-anchor: end" x="20.54625" y="91.5975" transform="rotate(-0 20.54625 91.5975)">0</text>
     </g>
    </g>
    <g id="ytick_2">
     <g id="line2d_5">
      <g>
       <use xlink:href="#mcd3e9cccd4" x="24.04625" y="70.734375" style="stroke: #000000; stroke-width: 0.5"/>
      </g>
     </g>
     <g id="text_4">
      <text style="font-size: 8px; font-family: 'Arial'; text-anchor: end" x="20.54625" y="73.5975" transform="rotate(-0 20.54625 73.5975)">25</text>
     </g>
    </g>
    <g id="ytick_3">
     <g id="line2d_6">
      <g>
       <use xlink:href="#mcd3e9cccd4" x="24.04625" y="52.734375" style="stroke: #000000; stroke-width: 0.5"/>
      </g>
     </g>
     <g id="text_5">
      <text style="font-size: 8px; font-family: 'Arial'; text-anchor: end" x="20.54625" y="55.5975" transform="rotate(-0 20.54625 55.5975)">50</text>
     </g>
    </g>
    <g id="ytick_4">
     <g id="line2d_7">
      <g>
       <use xlink:href="#mcd3e9cccd4" x="24.04625" y="34.734375" style="stroke: #000000; stroke-width: 0.5"/>
      </g>
     </g>
     <g id="text_6">
      <text style="font-size: 8px; font-family: 'Arial'; text-anchor: end" x="20.54625" y="37.5975" transform="rotate(-0 20.54625 37.5975)">75</text>
     </g>
    </g>
    <g id="ytick_5">
     <g id="line2d_8">
      <g>
       <use xlink:href="#mcd3e9cccd4" x="24.04625" y="16.734375" style="stroke: #000000; stroke-width: 0.5"/>
      </g>
     </g>
     <g id="text_7">
      <text style="font-size: 8px; font-family: 'Arial'; text-anchor: end" x="20.54625" y="19.5975" transform="rotate(-0 20.54625 19.5975)">100</text>
     </g>
    </g>
   </g>
   <g id="patch_5">
    <path d="M 40.92125 34.815382 
L 29.88838 34.815382 
L 29.881236 34.794558 
L 29.874092 34.773735 
L 29.866949 34.752912 
L 29.859805 34.732089 
L 29.852661 34.711266 
L 29.845554 34.690442 
L 29.839373 34.669619 
L 29.833192 34.648796 
L 29.827011 34.627973 
L 29.820829 34.60715 
L 29.814648 34.586326 
L 29.808467 34.565503 
L 29.802286 34.54468 
L 29.796637 34.523857 
L 29.791417 34.503034 
L 29.786198 34.48221 
L 29.780978 34.461387 
L 29.775758 34.440564 
L 29.770538 34.419741 
L 29.765318 34.398918 
L 29.760164 34.378095 
L 29.755902 34.357271 
L 29.751639 34.336448 
L 29.747376 34.315625 
L 29.743114 34.294802 
L 29.738851 34.273979 
L 29.734588 34.253155 
L 29.730326 34.232332 
L 29.726618 34.211509 
L 29.723306 34.190686 
L 29.719993 34.169863 
L 29.716681 34.149039 
L 29.713369 34.128216 
L 29.710057 34.107393 
L 29.706744 34.08657 
L 29.703526 34.065747 
L 29.701154 34.044923 
L 29.698783 34.0241 
L 29.696412 34.003277 
L 29.69404 33.982454 
L 29.691669 33.961631 
L 29.689298 33.940807 
L 29.686926 33.919984 
L 29.685125 33.899161 
L 29.683683 33.878338 
L 29.68224 33.857515 
L 29.680797 33.836692 
L 29.679354 33.815868 
L 29.677912 33.795045 
L 29.676469 33.774222 
L 29.675144 33.753399 
L 29.674615 33.732576 
L 29.674085 33.711752 
L 29.673556 33.690929 
L 29.673026 33.670106 
L 29.672497 33.649283 
L 29.671968 33.62846 
L 29.671438 33.607636 
L 29.671486 33.586813 
L 29.671851 33.56599 
L 29.672217 33.545167 
L 29.672582 33.524344 
L 29.672948 33.50352 
L 29.673313 33.482697 
L 29.673679 33.461874 
L 29.674184 33.441051 
L 29.675424 33.420228 
L 29.676663 33.399404 
L 29.677902 33.378581 
L 29.679141 33.357758 
L 29.680381 33.336935 
L 29.68162 33.316112 
L 29.682859 33.295289 
L 29.684672 33.274465 
L 29.686761 33.253642 
L 29.68885 33.232819 
L 29.690938 33.211996 
L 29.693027 33.191173 
L 29.695116 33.170349 
L 29.697204 33.149526 
L 29.69945 33.128703 
L 29.702361 33.10788 
L 29.705272 33.087057 
L 29.708183 33.066233 
L 29.711094 33.04541 
L 29.714005 33.024587 
L 29.716915 33.003764 
L 29.719826 32.982941 
L 29.723296 32.962117 
L 29.726999 32.941294 
L 29.730702 32.920471 
L 29.734405 32.899648 
L 29.738108 32.878825 
L 29.741811 32.858001 
L 29.745514 32.837178 
L 29.749385 32.816355 
L 29.753847 32.795532 
L 29.758309 32.774709 
L 29.762771 32.753885 
L 29.767233 32.733062 
L 29.771695 32.712239 
L 29.776157 32.691416 
L 29.780619 32.670593 
L 29.785614 32.64977 
L 29.790799 32.628946 
L 29.795985 32.608123 
L 29.80117 32.5873 
L 29.806356 32.566477 
L 29.811541 32.545654 
L 29.816726 32.52483 
L 29.822084 32.504007 
L 29.827955 32.483184 
L 29.833825 32.462361 
L 29.839696 32.441538 
L 29.845567 32.420714 
L 29.851437 32.399891 
L 29.857308 32.379068 
L 29.863179 32.358245 
L 29.869544 32.337422 
L 29.876059 32.316598 
L 29.882575 32.295775 
L 29.88909 32.274952 
L 29.895606 32.254129 
L 29.902121 32.233306 
L 29.908637 32.212482 
L 29.915322 32.191659 
L 29.92244 32.170836 
L 29.929558 32.150013 
L 29.936675 32.12919 
L 29.943793 32.108367 
L 29.950911 32.087543 
L 29.958029 32.06672 
L 29.965146 32.045897 
L 29.972709 32.025074 
L 29.980385 32.004251 
L 29.988061 31.983427 
L 29.995737 31.962604 
L 30.003413 31.941781 
L 30.011089 31.920958 
L 30.018765 31.900135 
L 30.026601 31.879311 
L 30.034789 31.858488 
L 30.042978 31.837665 
L 30.051166 31.816842 
L 30.059355 31.796019 
L 30.067543 31.775195 
L 30.075732 31.754372 
L 30.08392 31.733549 
L 30.092494 31.712726 
L 30.101148 31.691903 
L 30.109803 31.671079 
L 30.118457 31.650256 
L 30.127111 31.629433 
L 30.135765 31.60861 
L 30.144419 31.587787 
L 30.153217 31.566964 
L 30.16229 31.54614 
L 30.171363 31.525317 
L 30.180435 31.504494 
L 30.189508 31.483671 
L 30.198581 31.462848 
L 30.207653 31.442024 
L 30.216726 31.421201 
L 30.226117 31.400378 
L 30.235561 31.379555 
L 30.245004 31.358732 
L 30.254448 31.337908 
L 30.263891 31.317085 
L 30.273335 31.296262 
L 30.282778 31.275439 
L 30.292342 31.254616 
L 30.302109 31.233792 
L 30.311876 31.212969 
L 30.321643 31.192146 
L 30.331409 31.171323 
L 30.341176 31.1505 
L 30.350943 31.129676 
L 30.36071 31.108853 
L 30.370722 31.08803 
L 30.380765 31.067207 
L 30.390809 31.046384 
L 30.400852 31.025561 
L 30.410895 31.004737 
L 30.420938 30.983914 
L 30.430981 30.963091 
L 30.441117 30.942268 
L 30.451391 30.921445 
L 30.461665 30.900621 
L 30.471938 30.879798 
L 30.482212 30.858975 
L 30.492486 30.838152 
L 30.502759 30.817329 
L 30.513033 30.796505 
L 30.523477 30.775682 
L 30.533937 30.754859 
L 30.544397 30.734036 
L 30.554856 30.713213 
L 30.565316 30.692389 
L 30.575776 30.671566 
L 40.92125 30.671566 
z
" clip-path="url(#pad36ec1767)" style="fill: #228b22; opacity: 0.4"/>
   </g>
   <g id="patch_6">
    <path d="M 29.67125 34.815382 
L 40.92125 34.815382 
L 40.92125 30.671566 
L 29.67125 30.671566 
L 29.67125 34.815382 
z
" style="fill: none; stroke: #228b22; stroke-width: 0.85; stroke-linejoin: miter"/>
   </g>
   <g id="patch_7">
    <path d="M 61.17125 39.858041 
L 69.666377 39.858041 
L 69.672755 39.829362 
L 69.679133 39.800682 
L 69.685558 39.772003 
L 69.692134 39.743323 
L 69.69871 39.714644 
L 69.705285 39.685964 
L 69.711861 39.657285 
L 69.718437 39.628605 
L 69.725013 39.599926 
L 69.731601 39.571246 
L 69.738389 39.542567 
L 69.745178 39.513887 
L 69.751967 39.485208 
L 69.758756 39.456528 
L 69.765544 39.427849 
L 69.772333 39.399169 
L 69.779122 39.37049 
L 69.786109 39.34181 
L 69.793125 39.313131 
L 69.800141 39.284451 
L 69.807157 39.255772 
L 69.814173 39.227092 
L 69.821189 39.198412 
L 69.828205 39.169733 
L 69.835387 39.141053 
L 69.842643 39.112374 
L 69.849898 39.083694 
L 69.857154 39.055015 
L 69.86441 39.026335 
L 69.871665 38.997656 
L 69.878921 38.968976 
L 69.886306 38.940297 
L 69.893812 38.911617 
L 69.901319 38.882938 
L 69.908826 38.854258 
L 69.916332 38.825579 
L 69.923839 38.796899 
L 69.931345 38.76822 
L 69.938939 38.73954 
L 69.946706 38.710861 
L 69.954473 38.682181 
L 69.96224 38.653502 
L 69.970008 38.624822 
L 69.977775 38.596143 
L 69.985542 38.567463 
L 69.99335 38.538784 
L 70.001386 38.510104 
L 70.009421 38.481425 
L 70.017457 38.452745 
L 70.025493 38.424066 
L 70.033528 38.395386 
L 70.041564 38.366707 
L 70.0496 38.338027 
L 70.057902 38.309348 
L 70.066212 38.280668 
L 70.074522 38.251988 
L 70.082832 38.223309 
L 70.091143 38.194629 
L 70.099453 38.16595 
L 70.107763 38.13727 
L 70.116293 38.108591 
L 70.124882 38.079911 
L 70.13347 38.051232 
L 70.142059 38.022552 
L 70.150648 37.993873 
L 70.159237 37.965193 
L 70.167825 37.936514 
L 70.176584 37.907834 
L 70.185454 37.879155 
L 70.194323 37.850475 
L 70.203193 37.821796 
L 70.212062 37.793116 
L 70.220931 37.764437 
L 70.229801 37.735757 
L 70.238789 37.707078 
L 70.247939 37.678398 
L 70.257089 37.649719 
L 70.266238 37.621039 
L 70.275388 37.59236 
L 70.284538 37.56368 
L 70.293688 37.535001 
L 70.302905 37.506321 
L 70.312333 37.477642 
L 70.32176 37.448962 
L 70.331188 37.420283 
L 70.340615 37.391603 
L 70.350043 37.362924 
L 70.35947 37.334244 
L 70.368915 37.305564 
L 70.378615 37.276885 
L 70.388316 37.248205 
L 70.398016 37.219526 
L 70.407716 37.190846 
L 70.417417 37.162167 
L 70.427117 37.133487 
L 70.436817 37.104808 
L 70.446751 37.076128 
L 70.456717 37.047449 
L 70.466682 37.018769 
L 70.476648 36.99009 
L 70.486613 36.96141 
L 70.496578 36.932731 
L 70.506544 36.904051 
L 70.516688 36.875372 
L 70.526908 36.846692 
L 70.537128 36.818013 
L 70.547348 36.789333 
L 70.557568 36.760654 
L 70.567788 36.731974 
L 70.578009 36.703295 
L 70.588354 36.674615 
L 70.598816 36.645936 
L 70.609278 36.617256 
L 70.619739 36.588577 
L 70.630201 36.559897 
L 70.640662 36.531218 
L 70.651124 36.502538 
L 70.661662 36.473859 
L 70.672349 36.445179 
L 70.683035 36.4165 
L 70.693722 36.38782 
L 70.704409 36.359141 
L 70.715096 36.330461 
L 70.725783 36.301781 
L 70.736502 36.273102 
L 70.747395 36.244422 
L 70.758287 36.215743 
L 70.76918 36.187063 
L 70.780073 36.158384 
L 70.790965 36.129704 
L 70.801858 36.101025 
L 70.812751 36.072345 
L 70.823822 36.043666 
L 70.834899 36.014986 
L 70.845975 35.986307 
L 70.857051 35.957627 
L 70.868127 35.928948 
L 70.879203 35.900268 
L 70.890279 35.871589 
L 70.90148 35.842909 
L 70.912714 35.81423 
L 70.923948 35.78555 
L 70.935182 35.756871 
L 70.946415 35.728191 
L 70.957649 35.699512 
L 70.968883 35.670832 
L 70.980196 35.642153 
L 70.991558 35.613473 
L 71.00292 35.584794 
L 71.014283 35.556114 
L 71.025645 35.527435 
L 71.037008 35.498755 
L 71.04837 35.470076 
L 71.059774 35.441396 
L 71.071233 35.412717 
L 71.082692 35.384037 
L 71.094151 35.355357 
L 71.105609 35.326678 
L 71.117068 35.297998 
L 71.128527 35.269319 
L 71.140001 35.240639 
L 71.151521 35.21196 
L 71.16304 35.18328 
L 71.17456 35.154601 
L 71.18608 35.125921 
L 71.197599 35.097242 
L 71.209119 35.068562 
L 71.22064 35.039883 
L 71.232182 35.011203 
L 71.243723 34.982524 
L 71.255265 34.953844 
L 71.266807 34.925165 
L 71.278348 34.896485 
L 71.28989 34.867806 
L 71.301432 34.839126 
L 71.312956 34.810447 
L 71.324478 34.781767 
L 71.335999 34.753088 
L 71.347521 34.724408 
L 71.359043 34.695729 
L 71.370565 34.667049 
L 71.382087 34.63837 
L 71.393563 34.60969 
L 71.40502 34.581011 
L 71.416477 34.552331 
L 71.427934 34.523652 
L 71.439391 34.494972 
L 71.450848 34.466293 
L 71.462305 34.437613 
L 71.473703 34.408934 
L 71.485048 34.380254 
L 71.496392 34.351574 
L 71.507737 34.322895 
L 71.519082 34.294215 
L 71.530426 34.265536 
L 71.541771 34.236856 
L 71.553059 34.208177 
L 71.564241 34.179497 
L 71.575422 34.150818 
L 61.17125 34.150818 
z
" clip-path="url(#pad36ec1767)" style="fill: #cd5c5c; opacity: 0.4"/>
   </g>
   <g id="patch_8">
    <path d="M 61.17125 39.858041 
L 72.42125 39.858041 
L 72.42125 34.150818 
L 61.17125 34.150818 
L 61.17125 39.858041 
z
" style="fill: none; stroke: #cd5c5c; stroke-width: 0.85; stroke-linejoin: miter"/>
   </g>
   <g id="line2d_9">
    <path d="M 44.29625 32.242067 
L 57.79625 42.211298 
" clip-path="url(#pad36ec1767)" style="fill: none; stroke: #999999; stroke-opacity: 0.8; stroke-width: 0.3; stroke-linecap: square"/>
   </g>
   <g id="line2d_10">
    <path d="M 44.29625 31.134375 
L 57.79625 32.242067 
" clip-path="url(#pad36ec1767)" style="fill: none; stroke: #999999; stroke-opacity: 0.8; stroke-width: 0.3; stroke-linecap: square"/>
   </g>
   <g id="line2d_11">
    <path d="M 44.29625 31.134375 
L 57.79625 42.211298 
" clip-path="url(#pad36ec1767)" style="fill: none; stroke: #999999; stroke-opacity: 0.8; stroke-width: 0.3; stroke-linecap: square"/>
   </g>
   <g id="line2d_12">
    <path d="M 44.29625 49.965144 
L 57.79625 37.780529 
" clip-path="url(#pad36ec1767)" style="fill: none; stroke: #999999; stroke-opacity: 0.8; stroke-width: 0.3; stroke-linecap: square"/>
   </g>
   <g id="line2d_13">
    <path d="M 44.29625 31.134375 
L 57.79625 35.565144 
" clip-path="url(#pad36ec1767)" style="fill: none; stroke: #999999; stroke-opacity: 0.8; stroke-width: 0.3; stroke-linecap: square"/>
   </g>
   <g id="line2d_14">
    <path d="M 44.29625 35.565144 
L 57.79625 38.888221 
" clip-path="url(#pad36ec1767)" style="fill: none; stroke: #999999; stroke-opacity: 0.8; stroke-width: 0.3; stroke-linecap: square"/>
   </g>
   <g id="line2d_15">
    <path d="M 44.29625 23.380529 
L 57.79625 46.642067 
" clip-path="url(#pad36ec1767)" style="fill: none; stroke: #999999; stroke-opacity: 0.8; stroke-width: 0.3; stroke-linecap: square"/>
   </g>
   <g id="line2d_16">
    <path d="M 44.29625 32.242067 
L 57.79625 30.026683 
" clip-path="url(#pad36ec1767)" style="fill: none; stroke: #999999; stroke-opacity: 0.8; stroke-width: 0.3; stroke-linecap: square"/>
   </g>
   <g id="line2d_17">
    <path d="M 44.29625 25.595913 
L 57.79625 44.426683 
" clip-path="url(#pad36ec1767)" style="fill: none; stroke: #999999; stroke-opacity: 0.8; stroke-width: 0.3; stroke-linecap: square"/>
   </g>
   <g id="line2d_18">
    <path d="M 44.29625 32.242067 
L 57.79625 38.888221 
" clip-path="url(#pad36ec1767)" style="fill: none; stroke: #999999; stroke-opacity: 0.8; stroke-width: 0.3; stroke-linecap: square"/>
   </g>
   <g id="line2d_19">
    <path d="M 44.29625 25.595913 
L 57.79625 30.026683 
" clip-path="url(#pad36ec1767)" style="fill: none; stroke: #999999; stroke-opacity: 0.8; stroke-width: 0.3; stroke-linecap: square"/>
   </g>
   <g id="line2d_20">
    <path d="M 44.29625 26.703606 
L 57.79625 28.91899 
" clip-path="url(#pad36ec1767)" style="fill: none; stroke: #999999; stroke-opacity: 0.8; stroke-width: 0.3; stroke-linecap: square"/>
   </g>
   <g id="line2d_21">
    <path d="M 44.29625 24.488221 
L 57.79625 30.026683 
" clip-path="url(#pad36ec1767)" style="fill: none; stroke: #999999; stroke-opacity: 0.8; stroke-width: 0.3; stroke-linecap: square"/>
   </g>
   <g id="line2d_22">
    <path d="M 44.29625 28.91899 
L 57.79625 53.288221 
" clip-path="url(#pad36ec1767)" style="fill: none; stroke: #999999; stroke-opacity: 0.8; stroke-width: 0.3; stroke-linecap: square"/>
   </g>
   <g id="line2d_23">
    <path d="M 44.29625 37.780529 
L 57.79625 23.380529 
" clip-path="url(#pad36ec1767)" style="fill: none; stroke: #999999; stroke-opacity: 0.8; stroke-width: 0.3; stroke-linecap: square"/>
   </g>
   <g id="line2d_24">
    <path d="M 44.29625 33.34976 
L 57.79625 27.811298 
" clip-path="url(#pad36ec1767)" style="fill: none; stroke: #999999; stroke-opacity: 0.8; stroke-width: 0.3; stroke-linecap: square"/>
   </g>
   <g id="line2d_25">
    <path d="M 44.29625 37.780529 
L 57.79625 33.34976 
" clip-path="url(#pad36ec1767)" style="fill: none; stroke: #999999; stroke-opacity: 0.8; stroke-width: 0.3; stroke-linecap: square"/>
   </g>
   <g id="line2d_26">
    <path d="M 44.29625 35.565144 
L 57.79625 52.180529 
" clip-path="url(#pad36ec1767)" style="fill: none; stroke: #999999; stroke-opacity: 0.8; stroke-width: 0.3; stroke-linecap: square"/>
   </g>
   <g id="line2d_27">
    <path d="M 44.29625 32.242067 
L 57.79625 48.857452 
" clip-path="url(#pad36ec1767)" style="fill: none; stroke: #999999; stroke-opacity: 0.8; stroke-width: 0.3; stroke-linecap: square"/>
   </g>
   <g id="line2d_28">
    <path d="M 44.29625 47.74976 
L 57.79625 43.31899 
" clip-path="url(#pad36ec1767)" style="fill: none; stroke: #999999; stroke-opacity: 0.8; stroke-width: 0.3; stroke-linecap: square"/>
   </g>
   <g id="line2d_29">
    <path d="M 44.29625 26.703606 
L 57.79625 32.242067 
" clip-path="url(#pad36ec1767)" style="fill: none; stroke: #999999; stroke-opacity: 0.8; stroke-width: 0.3; stroke-linecap: square"/>
   </g>
   <g id="line2d_30">
    <path d="M 44.29625 28.91899 
L 57.79625 31.134375 
" clip-path="url(#pad36ec1767)" style="fill: none; stroke: #999999; stroke-opacity: 0.8; stroke-width: 0.3; stroke-linecap: square"/>
   </g>
   <g id="line2d_31">
    <path d="M 44.29625 26.703606 
L 57.79625 37.780529 
" clip-path="url(#pad36ec1767)" style="fill: none; stroke: #999999; stroke-opacity: 0.8; stroke-width: 0.3; stroke-linecap: square"/>
   </g>
   <g id="line2d_32">
    <path d="M 44.29625 48.857452 
L 57.79625 47.74976 
" clip-path="url(#pad36ec1767)" style="fill: none; stroke: #999999; stroke-opacity: 0.8; stroke-width: 0.3; stroke-linecap: square"/>
   </g>
   <g id="line2d_33">
    <path d="M 44.29625 21.165144 
L 57.79625 23.380529 
" clip-path="url(#pad36ec1767)" style="fill: none; stroke: #999999; stroke-opacity: 0.8; stroke-width: 0.3; stroke-linecap: square"/>
   </g>
   <g id="line2d_34">
    <path d="M 44.29625 37.780529 
L 57.79625 48.857452 
" clip-path="url(#pad36ec1767)" style="fill: none; stroke: #999999; stroke-opacity: 0.8; stroke-width: 0.3; stroke-linecap: square"/>
   </g>
   <g id="line2d_35">
    <path d="M 44.29625 36.672837 
L 57.79625 28.91899 
" clip-path="url(#pad36ec1767)" style="fill: none; stroke: #999999; stroke-opacity: 0.8; stroke-width: 0.3; stroke-linecap: square"/>
   </g>
   <g id="line2d_36">
    <path d="M 44.29625 34.457452 
L 57.79625 57.71899 
" clip-path="url(#pad36ec1767)" style="fill: none; stroke: #999999; stroke-opacity: 0.8; stroke-width: 0.3; stroke-linecap: square"/>
   </g>
   <g id="line2d_37">
    <path d="M 44.29625 49.965144 
L 57.79625 23.380529 
" clip-path="url(#pad36ec1767)" style="fill: none; stroke: #999999; stroke-opacity: 0.8; stroke-width: 0.3; stroke-linecap: square"/>
   </g>
   <g id="line2d_38">
    <path d="M 44.29625 39.995913 
L 57.79625 28.91899 
" clip-path="url(#pad36ec1767)" style="fill: none; stroke: #999999; stroke-opacity: 0.8; stroke-width: 0.3; stroke-linecap: square"/>
   </g>
   <g id="line2d_39">
    <path d="M 44.29625 30.026683 
L 57.79625 23.380529 
" clip-path="url(#pad36ec1767)" style="fill: none; stroke: #999999; stroke-opacity: 0.8; stroke-width: 0.3; stroke-linecap: square"/>
   </g>
   <g id="line2d_40">
    <path d="M 44.29625 24.488221 
L 57.79625 63.257452 
" clip-path="url(#pad36ec1767)" style="fill: none; stroke: #999999; stroke-opacity: 0.8; stroke-width: 0.3; stroke-linecap: square"/>
   </g>
   <g id="line2d_41">
    <path d="M 44.29625 34.457452 
L 57.79625 35.565144 
" clip-path="url(#pad36ec1767)" style="fill: none; stroke: #999999; stroke-opacity: 0.8; stroke-width: 0.3; stroke-linecap: square"/>
   </g>
   <g id="line2d_42">
    <path d="M 44.29625 38.888221 
L 57.79625 47.74976 
" clip-path="url(#pad36ec1767)" style="fill: none; stroke: #999999; stroke-opacity: 0.8; stroke-width: 0.3; stroke-linecap: square"/>
   </g>
   <g id="line2d_43">
    <path d="M 44.29625 39.995913 
L 57.79625 30.026683 
" clip-path="url(#pad36ec1767)" style="fill: none; stroke: #999999; stroke-opacity: 0.8; stroke-width: 0.3; stroke-linecap: square"/>
   </g>
   <g id="line2d_44">
    <path d="M 44.29625 37.780529 
L 57.79625 34.457452 
" clip-path="url(#pad36ec1767)" style="fill: none; stroke: #999999; stroke-opacity: 0.8; stroke-width: 0.3; stroke-linecap: square"/>
   </g>
   <g id="line2d_45">
    <path d="M 44.29625 37.780529 
L 57.79625 44.426683 
" clip-path="url(#pad36ec1767)" style="fill: none; stroke: #999999; stroke-opacity: 0.8; stroke-width: 0.3; stroke-linecap: square"/>
   </g>
   <g id="line2d_46">
    <path d="M 44.29625 35.020089 
L 57.79625 39.960181 
" clip-path="url(#pad36ec1767)" style="fill: none; stroke: #999999; stroke-opacity: 0.8; stroke-width: 0.3; stroke-linecap: square"/>
   </g>
   <g id="line2d_47">
    <path d="M 44.29625 32.242067 
L 57.79625 28.91899 
" clip-path="url(#pad36ec1767)" style="fill: none; stroke: #999999; stroke-opacity: 0.8; stroke-width: 0.3; stroke-linecap: square"/>
   </g>
   <g id="line2d_48">
    <path d="M 44.29625 34.457452 
L 57.79625 26.703606 
" clip-path="url(#pad36ec1767)" style="fill: none; stroke: #999999; stroke-opacity: 0.8; stroke-width: 0.3; stroke-linecap: square"/>
   </g>
   <g id="line2d_49">
    <path d="M 44.29625 25.595913 
L 57.79625 30.026683 
" clip-path="url(#pad36ec1767)" style="fill: none; stroke: #999999; stroke-opacity: 0.8; stroke-width: 0.3; stroke-linecap: square"/>
   </g>
   <g id="line2d_50">
    <path d="M 44.29625 20.057452 
L 57.79625 22.272837 
" clip-path="url(#pad36ec1767)" style="fill: none; stroke: #999999; stroke-opacity: 0.8; stroke-width: 0.3; stroke-linecap: square"/>
   </g>
   <g id="line2d_51">
    <path d="M 44.29625 24.488221 
L 57.79625 45.534375 
" clip-path="url(#pad36ec1767)" style="fill: none; stroke: #999999; stroke-opacity: 0.8; stroke-width: 0.3; stroke-linecap: square"/>
   </g>
   <g id="line2d_52">
    <path d="M 44.29625 39.995913 
L 57.79625 55.503606 
" clip-path="url(#pad36ec1767)" style="fill: none; stroke: #999999; stroke-opacity: 0.8; stroke-width: 0.3; stroke-linecap: square"/>
   </g>
   <g id="line2d_53">
    <path d="M 44.29625 25.734375 
L 57.79625 24.488221 
" clip-path="url(#pad36ec1767)" style="fill: none; stroke: #999999; stroke-opacity: 0.8; stroke-width: 0.3; stroke-linecap: square"/>
   </g>
   <g id="line2d_54">
    <path d="M 44.29625 33.34976 
L 57.79625 44.426683 
" clip-path="url(#pad36ec1767)" style="fill: none; stroke: #999999; stroke-opacity: 0.8; stroke-width: 0.3; stroke-linecap: square"/>
   </g>
   <g id="line2d_55">
    <path d="M 44.29625 35.565144 
L 57.79625 37.780529 
" clip-path="url(#pad36ec1767)" style="fill: none; stroke: #999999; stroke-opacity: 0.8; stroke-width: 0.3; stroke-linecap: square"/>
   </g>
   <g id="line2d_56">
    <path d="M 44.29625 33.34976 
L 57.79625 36.672837 
" clip-path="url(#pad36ec1767)" style="fill: none; stroke: #999999; stroke-opacity: 0.8; stroke-width: 0.3; stroke-linecap: square"/>
   </g>
   <g id="line2d_57">
    <path d="M 44.29625 18.94976 
L 57.79625 28.91899 
" clip-path="url(#pad36ec1767)" style="fill: none; stroke: #999999; stroke-opacity: 0.8; stroke-width: 0.3; stroke-linecap: square"/>
   </g>
   <g id="line2d_58">
    <path d="M 44.29625 28.91899 
L 57.79625 30.026683 
" clip-path="url(#pad36ec1767)" style="fill: none; stroke: #999999; stroke-opacity: 0.8; stroke-width: 0.3; stroke-linecap: square"/>
   </g>
   <g id="patch_9">
    <path d="M 24.04625 88.734375 
L 24.04625 16.734375 
" style="fill: none; stroke: #000000; stroke-width: 0.5; stroke-linejoin: miter; stroke-linecap: square"/>
   </g>
   <g id="patch_10">
    <path d="M 24.04625 88.734375 
L 78.04625 88.734375 
" style="fill: none; stroke: #000000; stroke-width: 0.5; stroke-linejoin: miter; stroke-linecap: square"/>
   </g>
   <g id="PathCollection_1">
    <defs>
     <path id="m6d17da9097" d="M 0 1.936492 
C 0.513564 1.936492 1.006162 1.732451 1.369306 1.369306 
C 1.732451 1.006162 1.936492 0.513564 1.936492 0 
C 1.936492 -0.513564 1.732451 -1.006162 1.369306 -1.369306 
C 1.006162 -1.732451 0.513564 -1.936492 0 -1.936492 
C -0.513564 -1.936492 -1.006162 -1.732451 -1.369306 -1.369306 
C -1.732451 -1.006162 -1.936492 -0.513564 -1.936492 0 
C -1.936492 0.513564 -1.732451 1.006162 -1.369306 1.369306 
C -1.006162 1.732451 -0.513564 1.936492 0 1.936492 
z
"/>
    </defs>
    <g clip-path="url(#pad36ec1767)">
     <use xlink:href="#m6d17da9097" x="44.29625" y="32.242067" style="fill: #228b22; fill-opacity: 0.2"/>
     <use xlink:href="#m6d17da9097" x="44.29625" y="31.134375" style="fill: #228b22; fill-opacity: 0.2"/>
     <use xlink:href="#m6d17da9097" x="44.29625" y="31.134375" style="fill: #228b22; fill-opacity: 0.2"/>
     <use xlink:href="#m6d17da9097" x="44.29625" y="49.965144" style="fill: #228b22; fill-opacity: 0.2"/>
     <use xlink:href="#m6d17da9097" x="44.29625" y="31.134375" style="fill: #228b22; fill-opacity: 0.2"/>
     <use xlink:href="#m6d17da9097" x="44.29625" y="35.565144" style="fill: #228b22; fill-opacity: 0.2"/>
     <use xlink:href="#m6d17da9097" x="44.29625" y="23.380529" style="fill: #228b22; fill-opacity: 0.2"/>
     <use xlink:href="#m6d17da9097" x="44.29625" y="32.242067" style="fill: #228b22; fill-opacity: 0.2"/>
     <use xlink:href="#m6d17da9097" x="44.29625" y="25.595913" style="fill: #228b22; fill-opacity: 0.2"/>
     <use xlink:href="#m6d17da9097" x="44.29625" y="32.242067" style="fill: #228b22; fill-opacity: 0.2"/>
     <use xlink:href="#m6d17da9097" x="44.29625" y="25.595913" style="fill: #228b22; fill-opacity: 0.2"/>
     <use xlink:href="#m6d17da9097" x="44.29625" y="26.703606" style="fill: #228b22; fill-opacity: 0.2"/>
     <use xlink:href="#m6d17da9097" x="44.29625" y="24.488221" style="fill: #228b22; fill-opacity: 0.2"/>
     <use xlink:href="#m6d17da9097" x="44.29625" y="28.91899" style="fill: #228b22; fill-opacity: 0.2"/>
     <use xlink:href="#m6d17da9097" x="44.29625" y="37.780529" style="fill: #228b22; fill-opacity: 0.2"/>
     <use xlink:href="#m6d17da9097" x="44.29625" y="33.34976" style="fill: #228b22; fill-opacity: 0.2"/>
     <use xlink:href="#m6d17da9097" x="44.29625" y="37.780529" style="fill: #228b22; fill-opacity: 0.2"/>
     <use xlink:href="#m6d17da9097" x="44.29625" y="35.565144" style="fill: #228b22; fill-opacity: 0.2"/>
     <use xlink:href="#m6d17da9097" x="44.29625" y="32.242067" style="fill: #228b22; fill-opacity: 0.2"/>
     <use xlink:href="#m6d17da9097" x="44.29625" y="47.74976" style="fill: #228b22; fill-opacity: 0.2"/>
     <use xlink:href="#m6d17da9097" x="44.29625" y="26.703606" style="fill: #228b22; fill-opacity: 0.2"/>
     <use xlink:href="#m6d17da9097" x="44.29625" y="28.91899" style="fill: #228b22; fill-opacity: 0.2"/>
     <use xlink:href="#m6d17da9097" x="44.29625" y="26.703606" style="fill: #228b22; fill-opacity: 0.2"/>
     <use xlink:href="#m6d17da9097" x="44.29625" y="48.857452" style="fill: #228b22; fill-opacity: 0.2"/>
     <use xlink:href="#m6d17da9097" x="44.29625" y="21.165144" style="fill: #228b22; fill-opacity: 0.2"/>
     <use xlink:href="#m6d17da9097" x="44.29625" y="37.780529" style="fill: #228b22; fill-opacity: 0.2"/>
     <use xlink:href="#m6d17da9097" x="44.29625" y="36.672837" style="fill: #228b22; fill-opacity: 0.2"/>
     <use xlink:href="#m6d17da9097" x="44.29625" y="34.457452" style="fill: #228b22; fill-opacity: 0.2"/>
     <use xlink:href="#m6d17da9097" x="44.29625" y="49.965144" style="fill: #228b22; fill-opacity: 0.2"/>
     <use xlink:href="#m6d17da9097" x="44.29625" y="39.995913" style="fill: #228b22; fill-opacity: 0.2"/>
     <use xlink:href="#m6d17da9097" x="44.29625" y="30.026683" style="fill: #228b22; fill-opacity: 0.2"/>
     <use xlink:href="#m6d17da9097" x="44.29625" y="24.488221" style="fill: #228b22; fill-opacity: 0.2"/>
     <use xlink:href="#m6d17da9097" x="44.29625" y="34.457452" style="fill: #228b22; fill-opacity: 0.2"/>
     <use xlink:href="#m6d17da9097" x="44.29625" y="38.888221" style="fill: #228b22; fill-opacity: 0.2"/>
     <use xlink:href="#m6d17da9097" x="44.29625" y="39.995913" style="fill: #228b22; fill-opacity: 0.2"/>
     <use xlink:href="#m6d17da9097" x="44.29625" y="37.780529" style="fill: #228b22; fill-opacity: 0.2"/>
     <use xlink:href="#m6d17da9097" x="44.29625" y="37.780529" style="fill: #228b22; fill-opacity: 0.2"/>
     <use xlink:href="#m6d17da9097" x="44.29625" y="35.020089" style="fill: #228b22; fill-opacity: 0.2"/>
     <use xlink:href="#m6d17da9097" x="44.29625" y="32.242067" style="fill: #228b22; fill-opacity: 0.2"/>
     <use xlink:href="#m6d17da9097" x="44.29625" y="34.457452" style="fill: #228b22; fill-opacity: 0.2"/>
     <use xlink:href="#m6d17da9097" x="44.29625" y="25.595913" style="fill: #228b22; fill-opacity: 0.2"/>
     <use xlink:href="#m6d17da9097" x="44.29625" y="20.057452" style="fill: #228b22; fill-opacity: 0.2"/>
     <use xlink:href="#m6d17da9097" x="44.29625" y="24.488221" style="fill: #228b22; fill-opacity: 0.2"/>
     <use xlink:href="#m6d17da9097" x="44.29625" y="39.995913" style="fill: #228b22; fill-opacity: 0.2"/>
     <use xlink:href="#m6d17da9097" x="44.29625" y="25.734375" style="fill: #228b22; fill-opacity: 0.2"/>
     <use xlink:href="#m6d17da9097" x="44.29625" y="33.34976" style="fill: #228b22; fill-opacity: 0.2"/>
     <use xlink:href="#m6d17da9097" x="44.29625" y="35.565144" style="fill: #228b22; fill-opacity: 0.2"/>
     <use xlink:href="#m6d17da9097" x="44.29625" y="33.34976" style="fill: #228b22; fill-opacity: 0.2"/>
     <use xlink:href="#m6d17da9097" x="44.29625" y="18.94976" style="fill: #228b22; fill-opacity: 0.2"/>
     <use xlink:href="#m6d17da9097" x="44.29625" y="28.91899" style="fill: #228b22; fill-opacity: 0.2"/>
    </g>
   </g>
   <g id="PathCollection_2">
    <defs>
     <path id="m2f44b44b61" d="M 0 1.936492 
C 0.513564 1.936492 1.006162 1.732451 1.369306 1.369306 
C 1.732451 1.006162 1.936492 0.513564 1.936492 0 
C 1.936492 -0.513564 1.732451 -1.006162 1.369306 -1.369306 
C 1.006162 -1.732451 0.513564 -1.936492 0 -1.936492 
C -0.513564 -1.936492 -1.006162 -1.732451 -1.369306 -1.369306 
C -1.732451 -1.006162 -1.936492 -0.513564 -1.936492 0 
C -1.936492 0.513564 -1.732451 1.006162 -1.369306 1.369306 
C -1.006162 1.732451 -0.513564 1.936492 0 1.936492 
z
"/>
    </defs>
    <g clip-path="url(#pad36ec1767)">
     <use xlink:href="#m2f44b44b61" x="57.79625" y="42.211298" style="fill: #cd5c5c; fill-opacity: 0.2"/>
     <use xlink:href="#m2f44b44b61" x="57.79625" y="32.242067" style="fill: #cd5c5c; fill-opacity: 0.2"/>
     <use xlink:href="#m2f44b44b61" x="57.79625" y="42.211298" style="fill: #cd5c5c; fill-opacity: 0.2"/>
     <use xlink:href="#m2f44b44b61" x="57.79625" y="37.780529" style="fill: #cd5c5c; fill-opacity: 0.2"/>
     <use xlink:href="#m2f44b44b61" x="57.79625" y="35.565144" style="fill: #cd5c5c; fill-opacity: 0.2"/>
     <use xlink:href="#m2f44b44b61" x="57.79625" y="38.888221" style="fill: #cd5c5c; fill-opacity: 0.2"/>
     <use xlink:href="#m2f44b44b61" x="57.79625" y="46.642067" style="fill: #cd5c5c; fill-opacity: 0.2"/>
     <use xlink:href="#m2f44b44b61" x="57.79625" y="30.026683" style="fill: #cd5c5c; fill-opacity: 0.2"/>
     <use xlink:href="#m2f44b44b61" x="57.79625" y="44.426683" style="fill: #cd5c5c; fill-opacity: 0.2"/>
     <use xlink:href="#m2f44b44b61" x="57.79625" y="38.888221" style="fill: #cd5c5c; fill-opacity: 0.2"/>
     <use xlink:href="#m2f44b44b61" x="57.79625" y="30.026683" style="fill: #cd5c5c; fill-opacity: 0.2"/>
     <use xlink:href="#m2f44b44b61" x="57.79625" y="28.91899" style="fill: #cd5c5c; fill-opacity: 0.2"/>
     <use xlink:href="#m2f44b44b61" x="57.79625" y="30.026683" style="fill: #cd5c5c; fill-opacity: 0.2"/>
     <use xlink:href="#m2f44b44b61" x="57.79625" y="53.288221" style="fill: #cd5c5c; fill-opacity: 0.2"/>
     <use xlink:href="#m2f44b44b61" x="57.79625" y="23.380529" style="fill: #cd5c5c; fill-opacity: 0.2"/>
     <use xlink:href="#m2f44b44b61" x="57.79625" y="27.811298" style="fill: #cd5c5c; fill-opacity: 0.2"/>
     <use xlink:href="#m2f44b44b61" x="57.79625" y="33.34976" style="fill: #cd5c5c; fill-opacity: 0.2"/>
     <use xlink:href="#m2f44b44b61" x="57.79625" y="52.180529" style="fill: #cd5c5c; fill-opacity: 0.2"/>
     <use xlink:href="#m2f44b44b61" x="57.79625" y="48.857452" style="fill: #cd5c5c; fill-opacity: 0.2"/>
     <use xlink:href="#m2f44b44b61" x="57.79625" y="43.31899" style="fill: #cd5c5c; fill-opacity: 0.2"/>
     <use xlink:href="#m2f44b44b61" x="57.79625" y="32.242067" style="fill: #cd5c5c; fill-opacity: 0.2"/>
     <use xlink:href="#m2f44b44b61" x="57.79625" y="31.134375" style="fill: #cd5c5c; fill-opacity: 0.2"/>
     <use xlink:href="#m2f44b44b61" x="57.79625" y="37.780529" style="fill: #cd5c5c; fill-opacity: 0.2"/>
     <use xlink:href="#m2f44b44b61" x="57.79625" y="47.74976" style="fill: #cd5c5c; fill-opacity: 0.2"/>
     <use xlink:href="#m2f44b44b61" x="57.79625" y="23.380529" style="fill: #cd5c5c; fill-opacity: 0.2"/>
     <use xlink:href="#m2f44b44b61" x="57.79625" y="48.857452" style="fill: #cd5c5c; fill-opacity: 0.2"/>
     <use xlink:href="#m2f44b44b61" x="57.79625" y="28.91899" style="fill: #cd5c5c; fill-opacity: 0.2"/>
     <use xlink:href="#m2f44b44b61" x="57.79625" y="57.71899" style="fill: #cd5c5c; fill-opacity: 0.2"/>
     <use xlink:href="#m2f44b44b61" x="57.79625" y="23.380529" style="fill: #cd5c5c; fill-opacity: 0.2"/>
     <use xlink:href="#m2f44b44b61" x="57.79625" y="28.91899" style="fill: #cd5c5c; fill-opacity: 0.2"/>
     <use xlink:href="#m2f44b44b61" x="57.79625" y="23.380529" style="fill: #cd5c5c; fill-opacity: 0.2"/>
     <use xlink:href="#m2f44b44b61" x="57.79625" y="63.257452" style="fill: #cd5c5c; fill-opacity: 0.2"/>
     <use xlink:href="#m2f44b44b61" x="57.79625" y="35.565144" style="fill: #cd5c5c; fill-opacity: 0.2"/>
     <use xlink:href="#m2f44b44b61" x="57.79625" y="47.74976" style="fill: #cd5c5c; fill-opacity: 0.2"/>
     <use xlink:href="#m2f44b44b61" x="57.79625" y="30.026683" style="fill: #cd5c5c; fill-opacity: 0.2"/>
     <use xlink:href="#m2f44b44b61" x="57.79625" y="34.457452" style="fill: #cd5c5c; fill-opacity: 0.2"/>
     <use xlink:href="#m2f44b44b61" x="57.79625" y="44.426683" style="fill: #cd5c5c; fill-opacity: 0.2"/>
     <use xlink:href="#m2f44b44b61" x="57.79625" y="39.960181" style="fill: #cd5c5c; fill-opacity: 0.2"/>
     <use xlink:href="#m2f44b44b61" x="57.79625" y="28.91899" style="fill: #cd5c5c; fill-opacity: 0.2"/>
     <use xlink:href="#m2f44b44b61" x="57.79625" y="26.703606" style="fill: #cd5c5c; fill-opacity: 0.2"/>
     <use xlink:href="#m2f44b44b61" x="57.79625" y="30.026683" style="fill: #cd5c5c; fill-opacity: 0.2"/>
     <use xlink:href="#m2f44b44b61" x="57.79625" y="22.272837" style="fill: #cd5c5c; fill-opacity: 0.2"/>
     <use xlink:href="#m2f44b44b61" x="57.79625" y="45.534375" style="fill: #cd5c5c; fill-opacity: 0.2"/>
     <use xlink:href="#m2f44b44b61" x="57.79625" y="55.503606" style="fill: #cd5c5c; fill-opacity: 0.2"/>
     <use xlink:href="#m2f44b44b61" x="57.79625" y="24.488221" style="fill: #cd5c5c; fill-opacity: 0.2"/>
     <use xlink:href="#m2f44b44b61" x="57.79625" y="44.426683" style="fill: #cd5c5c; fill-opacity: 0.2"/>
     <use xlink:href="#m2f44b44b61" x="57.79625" y="37.780529" style="fill: #cd5c5c; fill-opacity: 0.2"/>
     <use xlink:href="#m2f44b44b61" x="57.79625" y="36.672837" style="fill: #cd5c5c; fill-opacity: 0.2"/>
     <use xlink:href="#m2f44b44b61" x="57.79625" y="28.91899" style="fill: #cd5c5c; fill-opacity: 0.2"/>
     <use xlink:href="#m2f44b44b61" x="57.79625" y="30.026683" style="fill: #cd5c5c; fill-opacity: 0.2"/>
    </g>
   </g>
   <g id="line2d_59">
    <path d="M 40.92125 32.743474 
L 29.67125 32.743474 
" clip-path="url(#pad36ec1767)" style="fill: none; stroke: #000000; stroke-width: 0.85; stroke-linecap: square"/>
   </g>
   <g id="line2d_60">
    <path d="M 61.17125 37.00443 
L 72.42125 37.00443 
" clip-path="url(#pad36ec1767)" style="fill: none; stroke: #000000; stroke-width: 0.85; stroke-linecap: square"/>
   </g>
   <g id="LineCollection_1">
    <path d="M 35.29625 33.774492 
L 35.29625 31.712456 
" clip-path="url(#pad36ec1767)" style="fill: none; stroke: #000000; stroke-width: 0.85"/>
   </g>
   <g id="line2d_61">
    <defs>
     <path id="m411203902b" d="M 4 0 
L -4 -0 
" style="stroke: #000000; stroke-width: 0.85"/>
    </defs>
    <g clip-path="url(#pad36ec1767)">
     <use xlink:href="#m411203902b" x="35.29625" y="33.774492" style="stroke: #000000; stroke-width: 0.85"/>
    </g>
   </g>
   <g id="line2d_62">
    <g clip-path="url(#pad36ec1767)">
     <use xlink:href="#m411203902b" x="35.29625" y="31.712456" style="stroke: #000000; stroke-width: 0.85"/>
    </g>
   </g>
   <g id="LineCollection_2">
    <path d="M 66.79625 38.424437 
L 66.79625 35.584422 
" clip-path="url(#pad36ec1767)" style="fill: none; stroke: #000000; stroke-width: 0.85"/>
   </g>
   <g id="line2d_63">
    <g clip-path="url(#pad36ec1767)">
     <use xlink:href="#m411203902b" x="66.79625" y="38.424437" style="stroke: #000000; stroke-width: 0.85"/>
    </g>
   </g>
   <g id="line2d_64">
    <g clip-path="url(#pad36ec1767)">
     <use xlink:href="#m411203902b" x="66.79625" y="35.584422" style="stroke: #000000; stroke-width: 0.85"/>
    </g>
   </g>
   <g id="line2d_65">
    <path d="M 40.92125 15.294375 
L 61.17125 15.294375 
" style="fill: none; stroke: #000000; stroke-width: 0.5; stroke-linecap: square"/>
   </g>
   <g id="text_8">
    <text style="font-size: 12px; font-family: 'Arial'; text-anchor: middle" x="51.04625" y="15.789375" transform="rotate(-0 51.04625 15.789375)">*</text>
   </g>
  </g>
 </g>
 <defs>
  <clipPath id="pad36ec1767">
   <rect x="24.04625" y="16.734375" width="54" height="72"/>
  </clipPath>
 </defs>
</svg>
