<?xml version="1.0" encoding="utf-8" standalone="no"?>
<!DOCTYPE svg PUBLIC "-//W3C//DTD SVG 1.1//EN"
  "http://www.w3.org/Graphics/SVG/1.1/DTD/svg11.dtd">
<svg xmlns:xlink="http://www.w3.org/1999/xlink" width="85.24625pt" height="101.357188pt" viewBox="0 0 85.24625 101.357188" xmlns="http://www.w3.org/2000/svg" version="1.1">
 <metadata>
  <rdf:RDF xmlns:dc="http://purl.org/dc/elements/1.1/" xmlns:cc="http://creativecommons.org/ns#" xmlns:rdf="http://www.w3.org/1999/02/22-rdf-syntax-ns#">
   <cc:Work>
    <dc:type rdf:resource="http://purl.org/dc/dcmitype/StillImage"/>
    <dc:date>2026-04-02T15:51:16.086117</dc:date>
    <dc:format>image/svg+xml</dc:format>
    <dc:creator>
     <cc:Agent>
      <dc:title>Matplotlib v3.10.8, https://matplotlib.org/</dc:title>
     </cc:Agent>
    </dc:creator>
   </cc:Work>
  </rdf:RDF>
 </metadata>
 <defs>
  <style type="text/css">*{stroke-linejoin: round; stroke-linecap: butt}</style>
 </defs>
 <g id="figure_1">
  <g id="patch_1">
   <path d="M 0 101.357188 
L 85.24625 101.357188 
L 85.24625 0 
L 0 0 
z
" style="fill: #ffffff"/>
  </g>
  <g id="axes_1">
   <g id="patch_2">
    <path d="M 24.04625 83.247188 
L 78.04625 83.247188 
L 78.04625 11.247187 
L 24.04625 11.247187 
z
" style="fill: #ffffff"/>
   </g>
   <g id="line2d_1">
    <path d="M 24.04625 48.910377 
L 78.04625 48.910377 
" clip-path="url(#p3c811e9114)" style="fill: none; stroke-dasharray: 2.516,1.088; stroke-dashoffset: 0; stroke: #808080; stroke-opacity: 0.5; stroke-width: 0.68"/>
   </g>
   <g id="patch_3">
    <path d="M 40.92125 81.101137 
L 39.933651 81.101137 
L 39.92545 80.766827 
L 39.918436 80.432518 
L 39.912579 80.098209 
L 39.907841 79.763899 
L 39.904172 79.42959 
L 39.901519 79.09528 
L 39.899814 78.760971 
L 39.898988 78.426662 
L 39.898959 78.092352 
L 39.899642 77.758043 
L 39.900946 77.423733 
L 39.902773 77.089424 
L 39.905021 76.755115 
L 39.907585 76.420805 
L 39.910357 76.086496 
L 39.913225 75.752186 
L 39.916076 75.417877 
L 39.918795 75.083568 
L 39.921269 74.749258 
L 39.923382 74.414949 
L 39.92502 74.080639 
L 39.92607 73.74633 
L 39.92642 73.412021 
L 39.925961 73.077711 
L 39.924587 72.743402 
L 39.922192 72.409092 
L 39.918676 72.074783 
L 39.91394 71.740474 
L 39.907891 71.406164 
L 39.900438 71.071855 
L 39.891496 70.737545 
L 39.880982 70.403236 
L 39.868819 70.068927 
L 39.854935 69.734617 
L 39.839261 69.400308 
L 39.821736 69.065998 
L 39.802303 68.731689 
L 39.780909 68.39738 
L 39.757509 68.06307 
L 39.732065 67.728761 
L 39.704541 67.394451 
L 39.674913 67.060142 
L 39.64316 66.725833 
L 39.609271 66.391523 
L 39.573241 66.057214 
L 39.535074 65.722904 
L 39.494781 65.388595 
L 39.452382 65.054286 
L 39.407907 64.719976 
L 39.361393 64.385667 
L 39.312889 64.051357 
L 39.26245 63.717048 
L 39.210142 63.382739 
L 39.156041 63.048429 
L 39.100231 62.71412 
L 39.042806 62.37981 
L 38.98387 62.045501 
L 38.923532 61.711192 
L 38.861912 61.376882 
L 38.799136 61.042573 
L 38.735338 60.708263 
L 38.670657 60.373954 
L 38.605238 60.039645 
L 38.539228 59.705335 
L 38.472778 59.371026 
L 38.406042 59.036716 
L 38.339174 58.702407 
L 38.272325 58.368098 
L 38.205645 58.033788 
L 38.139282 57.699479 
L 38.073376 57.365169 
L 38.008061 57.03086 
L 37.943464 56.696551 
L 37.879701 56.362241 
L 37.816876 56.027932 
L 37.755082 55.693622 
L 37.694398 55.359313 
L 37.634885 55.025004 
L 37.576592 54.690694 
L 37.519547 54.356385 
L 37.463761 54.022075 
L 37.409227 53.687766 
L 37.355917 53.353457 
L 37.303785 53.019147 
L 37.252763 52.684838 
L 37.202765 52.350528 
L 37.153684 52.016219 
L 37.105394 51.68191 
L 37.057752 51.3476 
L 37.010595 51.013291 
L 36.963747 50.678981 
L 36.917013 50.344672 
L 36.870186 50.010363 
L 36.823048 49.676053 
L 36.77537 49.341744 
L 36.726914 49.007434 
L 36.677436 48.673125 
L 36.62669 48.338816 
L 36.574425 48.004506 
L 36.520395 47.670197 
L 36.464352 47.335887 
L 36.406058 47.001578 
L 36.345279 46.667269 
L 36.281795 46.332959 
L 36.215394 45.99865 
L 36.145881 45.66434 
L 36.073076 45.330031 
L 35.99682 44.995722 
L 35.91697 44.661412 
L 35.833408 44.327103 
L 35.746036 43.992793 
L 35.654782 43.658484 
L 35.559596 43.324175 
L 35.460457 42.989865 
L 35.357368 42.655556 
L 35.250356 42.321246 
L 35.139478 41.986937 
L 35.024812 41.652628 
L 34.906466 41.318318 
L 34.784567 40.984009 
L 34.65927 40.649699 
L 34.530749 40.31539 
L 34.3992 39.981081 
L 34.264839 39.646771 
L 34.1279 39.312462 
L 33.988631 38.978152 
L 33.847297 38.643843 
L 33.704175 38.309534 
L 33.55955 37.975224 
L 33.413719 37.640915 
L 33.266984 37.306605 
L 33.119652 36.972296 
L 32.972035 36.637987 
L 32.824444 36.303677 
L 32.677191 35.969368 
L 32.530586 35.635058 
L 32.384935 35.300749 
L 32.240541 34.966439 
L 32.097699 34.63213 
L 31.956699 34.297821 
L 31.817823 33.963511 
L 31.681344 33.629202 
L 31.547527 33.294892 
L 31.416627 32.960583 
L 31.28889 32.626274 
L 31.164553 32.291964 
L 31.043842 31.957655 
L 30.926975 31.623345 
L 30.81416 31.289036 
L 30.705598 30.954727 
L 30.601479 30.620417 
L 30.501988 30.286108 
L 30.407304 29.951798 
L 30.317597 29.617489 
L 30.233032 29.28318 
L 30.153772 28.94887 
L 30.079974 28.614561 
L 30.011791 28.280251 
L 29.949374 27.945942 
L 29.892873 27.611633 
L 29.842434 27.277323 
L 29.798205 26.943014 
L 29.760328 26.608704 
L 29.72895 26.274395 
L 29.704212 25.940086 
L 29.686256 25.605776 
L 29.675222 25.271467 
L 29.67125 24.937157 
L 29.674475 24.602848 
L 29.685029 24.268539 
L 29.70304 23.934229 
L 29.728631 23.59992 
L 29.761919 23.26561 
L 29.80301 22.931301 
L 29.852003 22.596992 
L 29.908985 22.262682 
L 29.97403 21.928373 
L 30.047197 21.594063 
L 30.128531 21.259754 
L 30.218056 20.925445 
L 30.315777 20.591135 
L 30.421679 20.256826 
L 30.535723 19.922516 
L 30.657845 19.588207 
L 30.787955 19.253898 
L 30.925937 18.919588 
L 31.071647 18.585279 
L 31.224912 18.250969 
L 31.385528 17.91666 
L 31.553264 17.582351 
L 31.727858 17.248041 
L 31.909018 16.913732 
L 32.096425 16.579422 
L 32.289729 16.245113 
L 32.488557 15.910804 
L 32.692508 15.576494 
L 32.901157 15.242185 
L 33.114057 14.907875 
L 33.330744 14.573566 
L 40.92125 14.573566 
z
" clip-path="url(#p3c811e9114)" style="fill: #20590b; opacity: 0.2"/>
   </g>
   <g id="patch_4">
    <path d="M 61.17125 78.955086 
L 62.255906 78.955086 
L 62.276766 78.631561 
L 62.297152 78.308036 
L 62.317095 77.98451 
L 62.336629 77.660985 
L 62.355797 77.33746 
L 62.37465 77.013935 
L 62.393243 76.69041 
L 62.411639 76.366884 
L 62.429905 76.043359 
L 62.448114 75.719834 
L 62.466342 75.396309 
L 62.484668 75.072783 
L 62.503175 74.749258 
L 62.521948 74.425733 
L 62.54107 74.102208 
L 62.560629 73.778683 
L 62.580707 73.455157 
L 62.601389 73.131632 
L 62.622754 72.808107 
L 62.644882 72.484582 
L 62.667844 72.161056 
L 62.691712 71.837531 
L 62.716548 71.514006 
L 62.742412 71.190481 
L 62.769355 70.866955 
L 62.797423 70.54343 
L 62.826655 70.219905 
L 62.857081 69.89638 
L 62.888725 69.572855 
L 62.921604 69.249329 
L 62.955727 68.925804 
L 62.991095 68.602279 
L 63.027702 68.278754 
L 63.065537 67.955228 
L 63.10458 67.631703 
L 63.144805 67.308178 
L 63.186184 66.984653 
L 63.228679 66.661128 
L 63.272251 66.337602 
L 63.316855 66.014077 
L 63.362445 65.690552 
L 63.408972 65.367027 
L 63.456383 65.043501 
L 63.504627 64.719976 
L 63.553651 64.396451 
L 63.603403 64.072926 
L 63.653831 63.749401 
L 63.704886 63.425875 
L 63.756519 63.10235 
L 63.808686 62.778825 
L 63.861345 62.4553 
L 63.914457 62.131774 
L 63.967987 61.808249 
L 64.021904 61.484724 
L 64.076183 61.161199 
L 64.130799 60.837673 
L 64.185736 60.514148 
L 64.240979 60.190623 
L 64.296519 59.867098 
L 64.35235 59.543573 
L 64.408469 59.220047 
L 64.464879 58.896522 
L 64.521582 58.572997 
L 64.578586 58.249472 
L 64.635899 57.925946 
L 64.693533 57.602421 
L 64.751498 57.278896 
L 64.809807 56.955371 
L 64.868472 56.631846 
L 64.927506 56.30832 
L 64.986919 55.984795 
L 65.04672 55.66127 
L 65.106918 55.337745 
L 65.167517 55.014219 
L 65.22852 54.690694 
L 65.289927 54.367169 
L 65.351734 54.043644 
L 65.413933 53.720118 
L 65.476513 53.396593 
L 65.53946 53.073068 
L 65.602755 52.749543 
L 65.666376 52.426018 
L 65.730295 52.102492 
L 65.794484 51.778967 
L 65.85891 51.455442 
L 65.923538 51.131917 
L 65.98833 50.808391 
L 66.053245 50.484866 
L 66.118244 50.161341 
L 66.183283 49.837816 
L 66.248321 49.514291 
L 66.313317 49.190765 
L 66.37823 48.86724 
L 66.443023 48.543715 
L 66.50766 48.22019 
L 66.572108 47.896664 
L 66.636342 47.573139 
L 66.700338 47.249614 
L 66.764079 46.926089 
L 66.827556 46.602563 
L 66.890765 46.279038 
L 66.953711 45.955513 
L 67.016406 45.631988 
L 67.078872 45.308463 
L 67.141139 44.984937 
L 67.203246 44.661412 
L 67.265242 44.337887 
L 67.327185 44.014362 
L 67.389143 43.690836 
L 67.451191 43.367311 
L 67.513417 43.043786 
L 67.575913 42.720261 
L 67.638781 42.396736 
L 67.702131 42.07321 
L 67.766077 41.749685 
L 67.83074 41.42616 
L 67.896245 41.102635 
L 67.962721 40.779109 
L 68.030298 40.455584 
L 68.099107 40.132059 
L 68.169278 39.808534 
L 68.24094 39.485008 
L 68.314217 39.161483 
L 68.389229 38.837958 
L 68.466088 38.514433 
L 68.544898 38.190908 
L 68.625751 37.867382 
L 68.708732 37.543857 
L 68.793907 37.220332 
L 68.881332 36.896807 
L 68.971044 36.573281 
L 69.063064 36.249756 
L 69.157393 35.926231 
L 69.254012 35.602706 
L 69.352883 35.279181 
L 69.453944 34.955655 
L 69.557112 34.63213 
L 69.66228 34.308605 
L 69.769319 33.98508 
L 69.878073 33.661554 
L 69.988367 33.338029 
L 70.099998 33.014504 
L 70.212743 32.690979 
L 70.326354 32.367454 
L 70.440563 32.043928 
L 70.555078 31.720403 
L 70.66959 31.396878 
L 70.783769 31.073353 
L 70.897268 30.749827 
L 71.009724 30.426302 
L 71.12076 30.102777 
L 71.229986 29.779252 
L 71.337001 29.455726 
L 71.441396 29.132201 
L 71.542755 28.808676 
L 71.640657 28.485151 
L 71.73468 28.161626 
L 71.8244 27.8381 
L 71.909397 27.514575 
L 71.989255 27.19105 
L 72.063565 26.867525 
L 72.131925 26.543999 
L 72.193947 26.220474 
L 72.249255 25.896949 
L 72.297488 25.573424 
L 72.338304 25.249899 
L 72.371378 24.926373 
L 72.39641 24.602848 
L 72.413119 24.279323 
L 72.42125 23.955798 
L 72.420575 23.632272 
L 72.410893 23.308747 
L 72.392031 22.985222 
L 72.363847 22.661697 
L 72.326226 22.338171 
L 72.27909 22.014646 
L 72.222389 21.691121 
L 72.156105 21.367596 
L 72.080257 21.044071 
L 71.994892 20.720545 
L 71.900093 20.39702 
L 71.795974 20.073495 
L 71.682682 19.74997 
L 71.560396 19.426444 
L 71.429326 19.102919 
L 71.289711 18.779394 
L 71.14182 18.455869 
L 70.985952 18.132344 
L 70.822431 17.808818 
L 70.651606 17.485293 
L 70.473851 17.161768 
L 70.289563 16.838243 
L 70.099157 16.514717 
L 69.90307 16.191192 
L 69.701753 15.867667 
L 69.495672 15.544142 
L 69.285307 15.220616 
L 69.071146 14.897091 
L 68.853688 14.573566 
L 61.17125 14.573566 
z
" clip-path="url(#p3c811e9114)" style="fill: #9f3131; opacity: 0.2"/>
   </g>
   <g id="matplotlib.axis_1">
    <g id="xtick_1">
     <g id="line2d_2">
      <defs>
       <path id="m7a31a8821f" d="M 0 0 
L 0 -4 
" style="stroke: #000000; stroke-width: 0.5"/>
      </defs>
      <g>
       <use xlink:href="#m7a31a8821f" x="40.92125" y="83.247188" style="stroke: #000000; stroke-width: 0.5"/>
      </g>
     </g>
     <g id="text_1">
      <text style="font-size: 8px; font-family: 'Arial'; text-anchor: middle" x="40.92125" y="92.473438" transform="rotate(-0 40.92125 92.473438)">Positive</text>
     </g>
    </g>
    <g id="xtick_2">
     <g id="line2d_3">
      <g>
       <use xlink:href="#m7a31a8821f" x="61.17125" y="83.247188" style="stroke: #000000; stroke-width: 0.5"/>
      </g>
     </g>
     <g id="text_2">
      <text style="font-size: 8px; font-family: 'Arial'; text-anchor: middle" x="61.17125" y="92.473438" transform="rotate(-0 61.17125 92.473438)">Negative</text>
     </g>
    </g>
   </g>
   <g id="matplotlib.axis_2">
    <g id="ytick_1">
     <g id="line2d_4">
      <defs>
       <path id="me14dfb6151" d="M 0 0 
L 4 0 
" style="stroke: #000000; stroke-width: 0.5"/>
      </defs>
      <g>
       <use xlink:href="#me14dfb6151" x="24.04625" y="83.247188" style="stroke: #000000; stroke-width: 0.5"/>
      </g>
     </g>
     <g id="text_3">
      <text style="font-size: 8px; font-family: 'Arial'; text-anchor: end" x="20.54625" y="86.110313" transform="rotate(-0 20.54625 86.110313)">0</text>
     </g>
    </g>
    <g id="ytick_2">
     <g id="line2d_5">
      <g>
       <use xlink:href="#me14dfb6151" x="24.04625" y="66.078782" style="stroke: #000000; stroke-width: 0.5"/>
      </g>
     </g>
     <g id="text_4">
      <text style="font-size: 8px; font-family: 'Arial'; text-anchor: end" x="20.54625" y="68.941907" transform="rotate(-0 20.54625 68.941907)">25</text>
     </g>
    </g>
    <g id="ytick_3">
     <g id="line2d_6">
      <g>
       <use xlink:href="#me14dfb6151" x="24.04625" y="48.910377" style="stroke: #000000; stroke-width: 0.5"/>
      </g>
     </g>
     <g id="text_5">
      <text style="font-size: 8px; font-family: 'Arial'; text-anchor: end" x="20.54625" y="51.773502" transform="rotate(-0 20.54625 51.773502)">50</text>
     </g>
    </g>
    <g id="ytick_4">
     <g id="line2d_7">
      <g>
       <use xlink:href="#me14dfb6151" x="24.04625" y="31.741971" style="stroke: #000000; stroke-width: 0.5"/>
      </g>
     </g>
     <g id="text_6">
      <text style="font-size: 8px; font-family: 'Arial'; text-anchor: end" x="20.54625" y="34.605096" transform="rotate(-0 20.54625 34.605096)">75</text>
     </g>
    </g>
    <g id="ytick_5">
     <g id="line2d_8">
      <g>
       <use xlink:href="#me14dfb6151" x="24.04625" y="14.573566" style="stroke: #000000; stroke-width: 0.5"/>
      </g>
     </g>
     <g id="text_7">
      <text style="font-size: 8px; font-family: 'Arial'; text-anchor: end" x="20.54625" y="17.436691" transform="rotate(-0 20.54625 17.436691)">100</text>
     </g>
    </g>
   </g>
   <g id="patch_5">
    <path d="M 40.92125 37.744912 
L 33.459084 37.744912 
L 33.4386 37.697954 
L 33.418116 37.650995 
L 33.397532 37.604036 
L 33.376921 37.557077 
L 33.35631 37.510119 
L 33.335699 37.46316 
L 33.315087 37.416201 
L 33.294476 37.369243 
L 33.273865 37.322284 
L 33.253198 37.275325 
L 33.232503 37.228367 
L 33.211809 37.181408 
L 33.191114 37.134449 
L 33.170419 37.087491 
L 33.149724 37.040532 
L 33.129029 36.993573 
L 33.108312 36.946615 
L 33.087577 36.899656 
L 33.066842 36.852697 
L 33.046107 36.805738 
L 33.025372 36.75878 
L 33.004637 36.711821 
L 32.983902 36.664862 
L 32.963169 36.617904 
L 32.942438 36.570945 
L 32.921706 36.523986 
L 32.900975 36.477028 
L 32.880244 36.430069 
L 32.859513 36.38311 
L 32.838781 36.336152 
L 32.818065 36.289193 
L 32.797381 36.242234 
L 32.776697 36.195276 
L 32.756013 36.148317 
L 32.735329 36.101358 
L 32.714645 36.054399 
L 32.693961 36.007441 
L 32.673295 35.960482 
L 32.652702 35.913523 
L 32.632109 35.866565 
L 32.611516 35.819606 
L 32.590923 35.772647 
L 32.570331 35.725689 
L 32.549738 35.67873 
L 32.529154 35.631771 
L 32.508695 35.584813 
L 32.488237 35.537854 
L 32.467778 35.490895 
L 32.447319 35.443937 
L 32.42686 35.396978 
L 32.406401 35.350019 
L 32.385943 35.30306 
L 32.365652 35.256102 
L 32.345369 35.209143 
L 32.325087 35.162184 
L 32.304805 35.115226 
L 32.284522 35.068267 
L 32.26424 35.021308 
L 32.243957 34.97435 
L 32.223856 34.927391 
L 32.203792 34.880432 
L 32.183728 34.833474 
L 32.163664 34.786515 
L 32.143599 34.739556 
L 32.123535 34.692598 
L 32.103471 34.645639 
L 32.083591 34.59868 
L 32.063785 34.551721 
L 32.04398 34.504763 
L 32.024174 34.457804 
L 32.004369 34.410845 
L 31.984563 34.363887 
L 31.964758 34.316928 
L 31.945129 34.269969 
L 31.925622 34.223011 
L 31.906115 34.176052 
L 31.886607 34.129093 
L 31.8671 34.082135 
L 31.847593 34.035176 
L 31.828086 33.988217 
L 31.808738 33.941259 
L 31.789568 33.8943 
L 31.770397 33.847341 
L 31.751227 33.800382 
L 31.732056 33.753424 
L 31.712886 33.706465 
L 31.693715 33.659506 
L 31.674677 33.612548 
L 31.655881 33.565589 
L 31.637084 33.51863 
L 31.618288 33.471672 
L 31.599491 33.424713 
L 31.580694 33.377754 
L 31.561898 33.330796 
L 31.543198 33.283837 
L 31.524811 33.236878 
L 31.506424 33.18992 
L 31.488037 33.142961 
L 31.46965 33.096002 
L 31.451264 33.049043 
L 31.432877 33.002085 
L 31.414542 32.955126 
L 31.396599 32.908167 
L 31.378657 32.861209 
L 31.360714 32.81425 
L 31.342772 32.767291 
L 31.324829 32.720333 
L 31.306887 32.673374 
L 31.288944 32.626415 
L 31.271478 32.579457 
L 31.254013 32.532498 
L 31.236548 32.485539 
L 31.219083 32.438581 
L 31.201618 32.391622 
L 31.184153 32.344663 
L 31.166688 32.297704 
L 31.14967 32.250746 
L 31.132714 32.203787 
L 31.115759 32.156828 
L 31.098803 32.10987 
L 31.081848 32.062911 
L 31.064892 32.015952 
L 31.047936 31.968994 
L 31.03139 31.922035 
L 31.014975 31.875076 
L 30.998559 31.828118 
L 30.982143 31.781159 
L 30.965727 31.7342 
L 30.949312 31.687242 
L 30.932896 31.640283 
L 30.916844 31.593324 
L 30.900998 31.546365 
L 30.885151 31.499407 
L 30.869305 31.452448 
L 30.853458 31.405489 
L 30.837612 31.358531 
L 30.821765 31.311572 
L 30.806229 31.264613 
L 30.79098 31.217655 
L 30.775731 31.170696 
L 30.760482 31.123737 
L 30.745232 31.076779 
L 30.729983 31.02982 
L 30.714734 30.982861 
L 30.699735 30.935903 
L 30.68511 30.888944 
L 30.670485 30.841985 
L 30.65586 30.795026 
L 30.641235 30.748068 
L 30.62661 30.701109 
L 30.611985 30.65415 
L 30.597543 30.607192 
L 30.583568 30.560233 
L 30.569593 30.513274 
L 30.555618 30.466316 
L 30.541643 30.419357 
L 30.527668 30.372398 
L 30.513694 30.32544 
L 30.499828 30.278481 
L 30.486529 30.231522 
L 30.473229 30.184564 
L 30.459929 30.137605 
L 30.446629 30.090646 
L 30.433329 30.043687 
L 30.420029 29.996729 
L 30.40676 29.94977 
L 30.394159 29.902811 
L 30.381558 29.855853 
L 30.368957 29.808894 
L 30.356357 29.761935 
L 30.343756 29.714977 
L 30.331155 29.668018 
L 30.318555 29.621059 
L 30.306621 29.574101 
L 30.294743 29.527142 
L 30.282865 29.480183 
L 30.270986 29.433225 
L 30.259108 29.386266 
L 30.24723 29.339307 
L 30.235352 29.292348 
L 30.224073 29.24539 
L 30.21294 29.198431 
L 30.201806 29.151472 
L 30.190673 29.104514 
L 30.17954 29.057555 
L 30.168407 29.010596 
L 30.157273 28.963638 
L 30.146666 28.916679 
L 30.1363 28.86972 
L 30.125934 28.822762 
L 30.115568 28.775803 
L 30.105202 28.728844 
L 30.094836 28.681886 
L 30.08447 28.634927 
L 30.07455 28.587968 
L 30.064973 28.541009 
L 30.055396 28.494051 
L 30.045818 28.447092 
L 30.036241 28.400133 
L 40.92125 28.400133 
z
" clip-path="url(#p3c811e9114)" style="fill: #20590b; opacity: 0.4"/>
   </g>
   <g id="patch_6">
    <path d="M 29.67125 37.744912 
L 40.92125 37.744912 
L 40.92125 28.400133 
L 29.67125 28.400133 
L 29.67125 37.744912 
z
" style="fill: none; stroke: #20590b; stroke-width: 0.85; stroke-linejoin: miter"/>
   </g>
   <g id="patch_7">
    <path d="M 61.17125 38.91115 
L 68.372259 38.91115 
L 68.383264 38.863686 
L 68.394393 38.816222 
L 68.405669 38.768757 
L 68.416945 38.721293 
L 68.428221 38.673829 
L 68.439497 38.626365 
L 68.450773 38.578901 
L 68.462049 38.531437 
L 68.473508 38.483973 
L 68.48507 38.436508 
L 68.496632 38.389044 
L 68.508194 38.34158 
L 68.519756 38.294116 
L 68.531319 38.246652 
L 68.542881 38.199188 
L 68.55469 38.151724 
L 68.566552 38.10426 
L 68.578414 38.056795 
L 68.590276 38.009331 
L 68.602138 37.961867 
L 68.614 37.914403 
L 68.625865 37.866939 
L 68.638039 37.819475 
L 68.650213 37.772011 
L 68.662387 37.724547 
L 68.674561 37.677082 
L 68.686735 37.629618 
L 68.698909 37.582154 
L 68.711145 37.53469 
L 68.723641 37.487226 
L 68.736137 37.439762 
L 68.748633 37.392298 
L 68.761129 37.344834 
L 68.773625 37.297369 
L 68.786122 37.249905 
L 68.798742 37.202441 
L 68.811568 37.154977 
L 68.824394 37.107513 
L 68.83722 37.060049 
L 68.850046 37.012585 
L 68.862872 36.965121 
L 68.875698 36.917656 
L 68.888712 36.870192 
L 68.901874 36.822728 
L 68.915036 36.775264 
L 68.928197 36.7278 
L 68.941359 36.680336 
L 68.95452 36.632872 
L 68.967682 36.585408 
L 68.981095 36.537943 
L 68.994596 36.490479 
L 69.008096 36.443015 
L 69.021596 36.395551 
L 69.035096 36.348087 
L 69.048596 36.300623 
L 69.062096 36.253159 
L 69.075911 36.205695 
L 69.08975 36.15823 
L 69.103589 36.110766 
L 69.117427 36.063302 
L 69.131266 36.015838 
L 69.145105 35.968374 
L 69.158982 35.92091 
L 69.173157 35.873446 
L 69.187332 35.825982 
L 69.201507 35.778517 
L 69.215681 35.731053 
L 69.229856 35.683589 
L 69.244031 35.636125 
L 69.258304 35.588661 
L 69.272809 35.541197 
L 69.287315 35.493733 
L 69.30182 35.446269 
L 69.316325 35.398804 
L 69.33083 35.35134 
L 69.345336 35.303876 
L 69.359995 35.256412 
L 69.374822 35.208948 
L 69.389648 35.161484 
L 69.404475 35.11402 
L 69.419301 35.066556 
L 69.434128 35.019091 
L 69.448955 34.971627 
L 69.463986 34.924163 
L 69.479122 34.876699 
L 69.494258 34.829235 
L 69.509393 34.781771 
L 69.524529 34.734307 
L 69.539665 34.686842 
L 69.554801 34.639378 
L 69.570185 34.591914 
L 69.585614 34.54445 
L 69.601043 34.496986 
L 69.616472 34.449522 
L 69.631902 34.402058 
L 69.647331 34.354594 
L 69.662768 34.307129 
L 69.678472 34.259665 
L 69.694175 34.212201 
L 69.709879 34.164737 
L 69.725582 34.117273 
L 69.741286 34.069809 
L 69.75699 34.022345 
L 69.772747 33.974881 
L 69.788702 33.927416 
L 69.804658 33.879952 
L 69.820613 33.832488 
L 69.836568 33.785024 
L 69.852524 33.73756 
L 69.868479 33.690096 
L 69.884524 33.642632 
L 69.900705 33.595168 
L 69.916887 33.547703 
L 69.933068 33.500239 
L 69.949249 33.452775 
L 69.96543 33.405311 
L 69.981611 33.357847 
L 69.997906 33.310383 
L 70.014284 33.262919 
L 70.030661 33.215455 
L 70.047038 33.16799 
L 70.063416 33.120526 
L 70.079793 33.073062 
L 70.09617 33.025598 
L 70.112673 32.978134 
L 70.129214 32.93067 
L 70.145754 32.883206 
L 70.162295 32.835742 
L 70.178836 32.788277 
L 70.195376 32.740813 
L 70.211917 32.693349 
L 70.228579 32.645885 
L 70.245246 32.598421 
L 70.261914 32.550957 
L 70.278582 32.503493 
L 70.29525 32.456029 
L 70.311918 32.408564 
L 70.328597 32.3611 
L 70.345353 32.313636 
L 70.362108 32.266172 
L 70.378863 32.218708 
L 70.395619 32.171244 
L 70.412374 32.12378 
L 70.42913 32.076316 
L 70.445899 32.028851 
L 70.4627 31.981387 
L 70.4795 31.933923 
L 70.496301 31.886459 
L 70.513101 31.838995 
L 70.529902 31.791531 
L 70.546702 31.744067 
L 70.563502 31.696603 
L 70.580302 31.649138 
L 70.597102 31.601674 
L 70.613902 31.55421 
L 70.630702 31.506746 
L 70.647502 31.459282 
L 70.664302 31.411818 
L 70.681068 31.364354 
L 70.697819 31.31689 
L 70.714571 31.269425 
L 70.731322 31.221961 
L 70.748073 31.174497 
L 70.764824 31.127033 
L 70.781575 31.079569 
L 70.798239 31.032105 
L 70.814891 30.984641 
L 70.831542 30.937176 
L 70.848193 30.889712 
L 70.864845 30.842248 
L 70.881496 30.794784 
L 70.898139 30.74732 
L 70.914638 30.699856 
L 70.931136 30.652392 
L 70.947635 30.604928 
L 70.964133 30.557463 
L 70.980631 30.509999 
L 70.99713 30.462535 
L 71.013579 30.415071 
L 71.029869 30.367607 
L 71.046159 30.320143 
L 71.062449 30.272679 
L 71.078739 30.225215 
L 71.095029 30.17775 
L 71.111319 30.130286 
L 71.127497 30.082822 
L 71.143522 30.035358 
L 71.159546 29.987894 
L 71.175571 29.94043 
L 71.191595 29.892966 
L 71.207619 29.845502 
L 71.223644 29.798037 
L 71.239472 29.750573 
L 71.255173 29.703109 
L 71.270873 29.655645 
L 71.286573 29.608181 
L 71.302273 29.560717 
L 71.317973 29.513253 
L 71.333673 29.465789 
L 61.17125 29.465789 
z
" clip-path="url(#p3c811e9114)" style="fill: #9f3131; opacity: 0.4"/>
   </g>
   <g id="patch_8">
    <path d="M 61.17125 38.91115 
L 72.42125 38.91115 
L 72.42125 29.465789 
L 61.17125 29.465789 
L 61.17125 38.91115 
z
" style="fill: none; stroke: #9f3131; stroke-width: 0.85; stroke-linejoin: miter"/>
   </g>
   <g id="line2d_9">
    <path d="M 44.29625 25.303819 
L 57.79625 42.472225 
" clip-path="url(#p3c811e9114)" style="fill: none; stroke: #999999; stroke-opacity: 0.8; stroke-width: 0.3; stroke-linecap: square"/>
   </g>
   <g id="line2d_10">
    <path d="M 44.29625 36.034073 
L 57.79625 44.618275 
" clip-path="url(#p3c811e9114)" style="fill: none; stroke: #999999; stroke-opacity: 0.8; stroke-width: 0.3; stroke-linecap: square"/>
   </g>
   <g id="line2d_11">
    <path d="M 44.29625 38.180123 
L 57.79625 59.64063 
" clip-path="url(#p3c811e9114)" style="fill: none; stroke: #999999; stroke-opacity: 0.8; stroke-width: 0.3; stroke-linecap: square"/>
   </g>
   <g id="line2d_12">
    <path d="M 44.29625 31.741971 
L 57.79625 23.157769 
" clip-path="url(#p3c811e9114)" style="fill: none; stroke: #999999; stroke-opacity: 0.8; stroke-width: 0.3; stroke-linecap: square"/>
   </g>
   <g id="line2d_13">
    <path d="M 44.29625 33.888022 
L 57.79625 27.44987 
" clip-path="url(#p3c811e9114)" style="fill: none; stroke: #999999; stroke-opacity: 0.8; stroke-width: 0.3; stroke-linecap: square"/>
   </g>
   <g id="line2d_14">
    <path d="M 44.29625 27.44987 
L 57.79625 29.595921 
" clip-path="url(#p3c811e9114)" style="fill: none; stroke: #999999; stroke-opacity: 0.8; stroke-width: 0.3; stroke-linecap: square"/>
   </g>
   <g id="line2d_15">
    <path d="M 44.29625 81.101137 
L 57.79625 78.955086 
" clip-path="url(#p3c811e9114)" style="fill: none; stroke: #999999; stroke-opacity: 0.8; stroke-width: 0.3; stroke-linecap: square"/>
   </g>
   <g id="line2d_16">
    <path d="M 44.29625 38.180123 
L 57.79625 33.888022 
" clip-path="url(#p3c811e9114)" style="fill: none; stroke: #999999; stroke-opacity: 0.8; stroke-width: 0.3; stroke-linecap: square"/>
   </g>
   <g id="line2d_17">
    <path d="M 44.29625 18.865667 
L 57.79625 16.719617 
" clip-path="url(#p3c811e9114)" style="fill: none; stroke: #999999; stroke-opacity: 0.8; stroke-width: 0.3; stroke-linecap: square"/>
   </g>
   <g id="line2d_18">
    <path d="M 44.29625 16.719617 
L 57.79625 38.180123 
" clip-path="url(#p3c811e9114)" style="fill: none; stroke: #999999; stroke-opacity: 0.8; stroke-width: 0.3; stroke-linecap: square"/>
   </g>
   <g id="line2d_19">
    <path d="M 44.29625 33.888022 
L 57.79625 25.303819 
" clip-path="url(#p3c811e9114)" style="fill: none; stroke: #999999; stroke-opacity: 0.8; stroke-width: 0.3; stroke-linecap: square"/>
   </g>
   <g id="line2d_20">
    <path d="M 44.29625 14.573566 
L 57.79625 23.157769 
" clip-path="url(#p3c811e9114)" style="fill: none; stroke: #999999; stroke-opacity: 0.8; stroke-width: 0.3; stroke-linecap: square"/>
   </g>
   <g id="line2d_21">
    <path d="M 44.29625 18.865667 
L 57.79625 21.011718 
" clip-path="url(#p3c811e9114)" style="fill: none; stroke: #999999; stroke-opacity: 0.8; stroke-width: 0.3; stroke-linecap: square"/>
   </g>
   <g id="line2d_22">
    <path d="M 44.29625 25.303819 
L 57.79625 51.056427 
" clip-path="url(#p3c811e9114)" style="fill: none; stroke: #999999; stroke-opacity: 0.8; stroke-width: 0.3; stroke-linecap: square"/>
   </g>
   <g id="line2d_23">
    <path d="M 44.29625 27.44987 
L 57.79625 16.719617 
" clip-path="url(#p3c811e9114)" style="fill: none; stroke: #999999; stroke-opacity: 0.8; stroke-width: 0.3; stroke-linecap: square"/>
   </g>
   <g id="line2d_24">
    <path d="M 44.29625 53.202478 
L 57.79625 18.865667 
" clip-path="url(#p3c811e9114)" style="fill: none; stroke: #999999; stroke-opacity: 0.8; stroke-width: 0.3; stroke-linecap: square"/>
   </g>
   <g id="line2d_25">
    <path d="M 44.29625 25.303819 
L 57.79625 21.011718 
" clip-path="url(#p3c811e9114)" style="fill: none; stroke: #999999; stroke-opacity: 0.8; stroke-width: 0.3; stroke-linecap: square"/>
   </g>
   <g id="line2d_26">
    <path d="M 44.29625 14.573566 
L 57.79625 31.741971 
" clip-path="url(#p3c811e9114)" style="fill: none; stroke: #999999; stroke-opacity: 0.8; stroke-width: 0.3; stroke-linecap: square"/>
   </g>
   <g id="line2d_27">
    <path d="M 44.29625 38.180123 
L 57.79625 53.202478 
" clip-path="url(#p3c811e9114)" style="fill: none; stroke: #999999; stroke-opacity: 0.8; stroke-width: 0.3; stroke-linecap: square"/>
   </g>
   <g id="line2d_28">
    <path d="M 44.29625 57.494579 
L 57.79625 53.202478 
" clip-path="url(#p3c811e9114)" style="fill: none; stroke: #999999; stroke-opacity: 0.8; stroke-width: 0.3; stroke-linecap: square"/>
   </g>
   <g id="line2d_29">
    <path d="M 44.29625 18.865667 
L 57.79625 36.034073 
" clip-path="url(#p3c811e9114)" style="fill: none; stroke: #999999; stroke-opacity: 0.8; stroke-width: 0.3; stroke-linecap: square"/>
   </g>
   <g id="line2d_30">
    <path d="M 44.29625 25.303819 
L 57.79625 42.472225 
" clip-path="url(#p3c811e9114)" style="fill: none; stroke: #999999; stroke-opacity: 0.8; stroke-width: 0.3; stroke-linecap: square"/>
   </g>
   <g id="line2d_31">
    <path d="M 44.29625 14.573566 
L 57.79625 21.011718 
" clip-path="url(#p3c811e9114)" style="fill: none; stroke: #999999; stroke-opacity: 0.8; stroke-width: 0.3; stroke-linecap: square"/>
   </g>
   <g id="line2d_32">
    <path d="M 44.29625 21.011718 
L 57.79625 61.786681 
" clip-path="url(#p3c811e9114)" style="fill: none; stroke: #999999; stroke-opacity: 0.8; stroke-width: 0.3; stroke-linecap: square"/>
   </g>
   <g id="line2d_33">
    <path d="M 44.29625 23.157769 
L 57.79625 16.719617 
" clip-path="url(#p3c811e9114)" style="fill: none; stroke: #999999; stroke-opacity: 0.8; stroke-width: 0.3; stroke-linecap: square"/>
   </g>
   <g id="line2d_34">
    <path d="M 44.29625 48.910377 
L 57.79625 46.764326 
" clip-path="url(#p3c811e9114)" style="fill: none; stroke: #999999; stroke-opacity: 0.8; stroke-width: 0.3; stroke-linecap: square"/>
   </g>
   <g id="line2d_35">
    <path d="M 44.29625 40.326174 
L 57.79625 48.910377 
" clip-path="url(#p3c811e9114)" style="fill: none; stroke: #999999; stroke-opacity: 0.8; stroke-width: 0.3; stroke-linecap: square"/>
   </g>
   <g id="line2d_36">
    <path d="M 44.29625 18.865667 
L 57.79625 14.573566 
" clip-path="url(#p3c811e9114)" style="fill: none; stroke: #999999; stroke-opacity: 0.8; stroke-width: 0.3; stroke-linecap: square"/>
   </g>
   <g id="line2d_37">
    <path d="M 44.29625 57.494579 
L 57.79625 27.44987 
" clip-path="url(#p3c811e9114)" style="fill: none; stroke: #999999; stroke-opacity: 0.8; stroke-width: 0.3; stroke-linecap: square"/>
   </g>
   <g id="line2d_38">
    <path d="M 44.29625 81.101137 
L 57.79625 23.157769 
" clip-path="url(#p3c811e9114)" style="fill: none; stroke: #999999; stroke-opacity: 0.8; stroke-width: 0.3; stroke-linecap: square"/>
   </g>
   <g id="line2d_39">
    <path d="M 44.29625 16.719617 
L 57.79625 14.573566 
" clip-path="url(#p3c811e9114)" style="fill: none; stroke: #999999; stroke-opacity: 0.8; stroke-width: 0.3; stroke-linecap: square"/>
   </g>
   <g id="line2d_40">
    <path d="M 44.29625 21.011718 
L 57.79625 76.809035 
" clip-path="url(#p3c811e9114)" style="fill: none; stroke: #999999; stroke-opacity: 0.8; stroke-width: 0.3; stroke-linecap: square"/>
   </g>
   <g id="line2d_41">
    <path d="M 44.29625 68.224833 
L 57.79625 14.573566 
" clip-path="url(#p3c811e9114)" style="fill: none; stroke: #999999; stroke-opacity: 0.8; stroke-width: 0.3; stroke-linecap: square"/>
   </g>
   <g id="line2d_42">
    <path d="M 44.29625 29.595921 
L 57.79625 38.180123 
" clip-path="url(#p3c811e9114)" style="fill: none; stroke: #999999; stroke-opacity: 0.8; stroke-width: 0.3; stroke-linecap: square"/>
   </g>
   <g id="line2d_43">
    <path d="M 44.29625 31.741971 
L 57.79625 66.078782 
" clip-path="url(#p3c811e9114)" style="fill: none; stroke: #999999; stroke-opacity: 0.8; stroke-width: 0.3; stroke-linecap: square"/>
   </g>
   <g id="line2d_44">
    <path d="M 44.29625 29.595921 
L 57.79625 27.44987 
" clip-path="url(#p3c811e9114)" style="fill: none; stroke: #999999; stroke-opacity: 0.8; stroke-width: 0.3; stroke-linecap: square"/>
   </g>
   <g id="line2d_45">
    <path d="M 44.29625 27.44987 
L 57.79625 16.719617 
" clip-path="url(#p3c811e9114)" style="fill: none; stroke: #999999; stroke-opacity: 0.8; stroke-width: 0.3; stroke-linecap: square"/>
   </g>
   <g id="line2d_46">
    <path d="M 44.29625 48.910377 
L 57.79625 59.64063 
" clip-path="url(#p3c811e9114)" style="fill: none; stroke: #999999; stroke-opacity: 0.8; stroke-width: 0.3; stroke-linecap: square"/>
   </g>
   <g id="line2d_47">
    <path d="M 44.29625 46.764326 
L 57.79625 31.741971 
" clip-path="url(#p3c811e9114)" style="fill: none; stroke: #999999; stroke-opacity: 0.8; stroke-width: 0.3; stroke-linecap: square"/>
   </g>
   <g id="line2d_48">
    <path d="M 44.29625 18.865667 
L 57.79625 29.595921 
" clip-path="url(#p3c811e9114)" style="fill: none; stroke: #999999; stroke-opacity: 0.8; stroke-width: 0.3; stroke-linecap: square"/>
   </g>
   <g id="line2d_49">
    <path d="M 44.29625 31.741971 
L 57.79625 27.44987 
" clip-path="url(#p3c811e9114)" style="fill: none; stroke: #999999; stroke-opacity: 0.8; stroke-width: 0.3; stroke-linecap: square"/>
   </g>
   <g id="line2d_50">
    <path d="M 44.29625 18.865667 
L 57.79625 23.157769 
" clip-path="url(#p3c811e9114)" style="fill: none; stroke: #999999; stroke-opacity: 0.8; stroke-width: 0.3; stroke-linecap: square"/>
   </g>
   <g id="line2d_51">
    <path d="M 44.29625 16.719617 
L 57.79625 23.157769 
" clip-path="url(#p3c811e9114)" style="fill: none; stroke: #999999; stroke-opacity: 0.8; stroke-width: 0.3; stroke-linecap: square"/>
   </g>
   <g id="line2d_52">
    <path d="M 44.29625 27.44987 
L 57.79625 44.618275 
" clip-path="url(#p3c811e9114)" style="fill: none; stroke: #999999; stroke-opacity: 0.8; stroke-width: 0.3; stroke-linecap: square"/>
   </g>
   <g id="line2d_53">
    <path d="M 44.29625 33.888022 
L 57.79625 27.44987 
" clip-path="url(#p3c811e9114)" style="fill: none; stroke: #999999; stroke-opacity: 0.8; stroke-width: 0.3; stroke-linecap: square"/>
   </g>
   <g id="line2d_54">
    <path d="M 44.29625 25.303819 
L 57.79625 21.011718 
" clip-path="url(#p3c811e9114)" style="fill: none; stroke: #999999; stroke-opacity: 0.8; stroke-width: 0.3; stroke-linecap: square"/>
   </g>
   <g id="line2d_55">
    <path d="M 44.29625 51.056427 
L 57.79625 38.180123 
" clip-path="url(#p3c811e9114)" style="fill: none; stroke: #999999; stroke-opacity: 0.8; stroke-width: 0.3; stroke-linecap: square"/>
   </g>
   <g id="line2d_56">
    <path d="M 44.29625 36.034073 
L 57.79625 42.472225 
" clip-path="url(#p3c811e9114)" style="fill: none; stroke: #999999; stroke-opacity: 0.8; stroke-width: 0.3; stroke-linecap: square"/>
   </g>
   <g id="line2d_57">
    <path d="M 44.29625 53.202478 
L 57.79625 14.573566 
" clip-path="url(#p3c811e9114)" style="fill: none; stroke: #999999; stroke-opacity: 0.8; stroke-width: 0.3; stroke-linecap: square"/>
   </g>
   <g id="line2d_58">
    <path d="M 44.29625 14.573566 
L 57.79625 23.157769 
" clip-path="url(#p3c811e9114)" style="fill: none; stroke: #999999; stroke-opacity: 0.8; stroke-width: 0.3; stroke-linecap: square"/>
   </g>
   <g id="patch_9">
    <path d="M 24.04625 83.247188 
L 24.04625 11.247187 
" style="fill: none; stroke: #000000; stroke-width: 0.5; stroke-linejoin: miter; stroke-linecap: square"/>
   </g>
   <g id="patch_10">
    <path d="M 24.04625 83.247188 
L 78.04625 83.247188 
" style="fill: none; stroke: #000000; stroke-width: 0.5; stroke-linejoin: miter; stroke-linecap: square"/>
   </g>
   <g id="PathCollection_1">
    <defs>
     <path id="mcab9be42f1" d="M 0 1.936492 
C 0.513564 1.936492 1.006162 1.732451 1.369306 1.369306 
C 1.732451 1.006162 1.936492 0.513564 1.936492 0 
C 1.936492 -0.513564 1.732451 -1.006162 1.369306 -1.369306 
C 1.006162 -1.732451 0.513564 -1.936492 0 -1.936492 
C -0.513564 -1.936492 -1.006162 -1.732451 -1.369306 -1.369306 
C -1.732451 -1.006162 -1.936492 -0.513564 -1.936492 0 
C -1.936492 0.513564 -1.732451 1.006162 -1.369306 1.369306 
C -1.006162 1.732451 -0.513564 1.936492 0 1.936492 
z
"/>
    </defs>
    <g clip-path="url(#p3c811e9114)">
     <use xlink:href="#mcab9be42f1" x="44.29625" y="25.303819" style="fill: #20590b; fill-opacity: 0.2"/>
     <use xlink:href="#mcab9be42f1" x="44.29625" y="36.034073" style="fill: #20590b; fill-opacity: 0.2"/>
     <use xlink:href="#mcab9be42f1" x="44.29625" y="38.180123" style="fill: #20590b; fill-opacity: 0.2"/>
     <use xlink:href="#mcab9be42f1" x="44.29625" y="31.741971" style="fill: #20590b; fill-opacity: 0.2"/>
     <use xlink:href="#mcab9be42f1" x="44.29625" y="33.888022" style="fill: #20590b; fill-opacity: 0.2"/>
     <use xlink:href="#mcab9be42f1" x="44.29625" y="27.44987" style="fill: #20590b; fill-opacity: 0.2"/>
     <use xlink:href="#mcab9be42f1" x="44.29625" y="81.101137" style="fill: #20590b; fill-opacity: 0.2"/>
     <use xlink:href="#mcab9be42f1" x="44.29625" y="38.180123" style="fill: #20590b; fill-opacity: 0.2"/>
     <use xlink:href="#mcab9be42f1" x="44.29625" y="18.865667" style="fill: #20590b; fill-opacity: 0.2"/>
     <use xlink:href="#mcab9be42f1" x="44.29625" y="16.719617" style="fill: #20590b; fill-opacity: 0.2"/>
     <use xlink:href="#mcab9be42f1" x="44.29625" y="33.888022" style="fill: #20590b; fill-opacity: 0.2"/>
     <use xlink:href="#mcab9be42f1" x="44.29625" y="14.573566" style="fill: #20590b; fill-opacity: 0.2"/>
     <use xlink:href="#mcab9be42f1" x="44.29625" y="18.865667" style="fill: #20590b; fill-opacity: 0.2"/>
     <use xlink:href="#mcab9be42f1" x="44.29625" y="25.303819" style="fill: #20590b; fill-opacity: 0.2"/>
     <use xlink:href="#mcab9be42f1" x="44.29625" y="27.44987" style="fill: #20590b; fill-opacity: 0.2"/>
     <use xlink:href="#mcab9be42f1" x="44.29625" y="53.202478" style="fill: #20590b; fill-opacity: 0.2"/>
     <use xlink:href="#mcab9be42f1" x="44.29625" y="25.303819" style="fill: #20590b; fill-opacity: 0.2"/>
     <use xlink:href="#mcab9be42f1" x="44.29625" y="14.573566" style="fill: #20590b; fill-opacity: 0.2"/>
     <use xlink:href="#mcab9be42f1" x="44.29625" y="38.180123" style="fill: #20590b; fill-opacity: 0.2"/>
     <use xlink:href="#mcab9be42f1" x="44.29625" y="57.494579" style="fill: #20590b; fill-opacity: 0.2"/>
     <use xlink:href="#mcab9be42f1" x="44.29625" y="18.865667" style="fill: #20590b; fill-opacity: 0.2"/>
     <use xlink:href="#mcab9be42f1" x="44.29625" y="25.303819" style="fill: #20590b; fill-opacity: 0.2"/>
     <use xlink:href="#mcab9be42f1" x="44.29625" y="14.573566" style="fill: #20590b; fill-opacity: 0.2"/>
     <use xlink:href="#mcab9be42f1" x="44.29625" y="21.011718" style="fill: #20590b; fill-opacity: 0.2"/>
     <use xlink:href="#mcab9be42f1" x="44.29625" y="23.157769" style="fill: #20590b; fill-opacity: 0.2"/>
     <use xlink:href="#mcab9be42f1" x="44.29625" y="48.910377" style="fill: #20590b; fill-opacity: 0.2"/>
     <use xlink:href="#mcab9be42f1" x="44.29625" y="40.326174" style="fill: #20590b; fill-opacity: 0.2"/>
     <use xlink:href="#mcab9be42f1" x="44.29625" y="18.865667" style="fill: #20590b; fill-opacity: 0.2"/>
     <use xlink:href="#mcab9be42f1" x="44.29625" y="57.494579" style="fill: #20590b; fill-opacity: 0.2"/>
     <use xlink:href="#mcab9be42f1" x="44.29625" y="81.101137" style="fill: #20590b; fill-opacity: 0.2"/>
     <use xlink:href="#mcab9be42f1" x="44.29625" y="16.719617" style="fill: #20590b; fill-opacity: 0.2"/>
     <use xlink:href="#mcab9be42f1" x="44.29625" y="21.011718" style="fill: #20590b; fill-opacity: 0.2"/>
     <use xlink:href="#mcab9be42f1" x="44.29625" y="68.224833" style="fill: #20590b; fill-opacity: 0.2"/>
     <use xlink:href="#mcab9be42f1" x="44.29625" y="29.595921" style="fill: #20590b; fill-opacity: 0.2"/>
     <use xlink:href="#mcab9be42f1" x="44.29625" y="31.741971" style="fill: #20590b; fill-opacity: 0.2"/>
     <use xlink:href="#mcab9be42f1" x="44.29625" y="29.595921" style="fill: #20590b; fill-opacity: 0.2"/>
     <use xlink:href="#mcab9be42f1" x="44.29625" y="27.44987" style="fill: #20590b; fill-opacity: 0.2"/>
     <use xlink:href="#mcab9be42f1" x="44.29625" y="48.910377" style="fill: #20590b; fill-opacity: 0.2"/>
     <use xlink:href="#mcab9be42f1" x="44.29625" y="46.764326" style="fill: #20590b; fill-opacity: 0.2"/>
     <use xlink:href="#mcab9be42f1" x="44.29625" y="18.865667" style="fill: #20590b; fill-opacity: 0.2"/>
     <use xlink:href="#mcab9be42f1" x="44.29625" y="31.741971" style="fill: #20590b; fill-opacity: 0.2"/>
     <use xlink:href="#mcab9be42f1" x="44.29625" y="18.865667" style="fill: #20590b; fill-opacity: 0.2"/>
     <use xlink:href="#mcab9be42f1" x="44.29625" y="16.719617" style="fill: #20590b; fill-opacity: 0.2"/>
     <use xlink:href="#mcab9be42f1" x="44.29625" y="27.44987" style="fill: #20590b; fill-opacity: 0.2"/>
     <use xlink:href="#mcab9be42f1" x="44.29625" y="33.888022" style="fill: #20590b; fill-opacity: 0.2"/>
     <use xlink:href="#mcab9be42f1" x="44.29625" y="25.303819" style="fill: #20590b; fill-opacity: 0.2"/>
     <use xlink:href="#mcab9be42f1" x="44.29625" y="51.056427" style="fill: #20590b; fill-opacity: 0.2"/>
     <use xlink:href="#mcab9be42f1" x="44.29625" y="36.034073" style="fill: #20590b; fill-opacity: 0.2"/>
     <use xlink:href="#mcab9be42f1" x="44.29625" y="53.202478" style="fill: #20590b; fill-opacity: 0.2"/>
     <use xlink:href="#mcab9be42f1" x="44.29625" y="14.573566" style="fill: #20590b; fill-opacity: 0.2"/>
    </g>
   </g>
   <g id="PathCollection_2">
    <defs>
     <path id="mbce3c0e1f4" d="M 0 1.936492 
C 0.513564 1.936492 1.006162 1.732451 1.369306 1.369306 
C 1.732451 1.006162 1.936492 0.513564 1.936492 0 
C 1.936492 -0.513564 1.732451 -1.006162 1.369306 -1.369306 
C 1.006162 -1.732451 0.513564 -1.936492 0 -1.936492 
C -0.513564 -1.936492 -1.006162 -1.732451 -1.369306 -1.369306 
C -1.732451 -1.006162 -1.936492 -0.513564 -1.936492 0 
C -1.936492 0.513564 -1.732451 1.006162 -1.369306 1.369306 
C -1.006162 1.732451 -0.513564 1.936492 0 1.936492 
z
"/>
    </defs>
    <g clip-path="url(#p3c811e9114)">
     <use xlink:href="#mbce3c0e1f4" x="57.79625" y="42.472225" style="fill: #9f3131; fill-opacity: 0.2"/>
     <use xlink:href="#mbce3c0e1f4" x="57.79625" y="44.618275" style="fill: #9f3131; fill-opacity: 0.2"/>
     <use xlink:href="#mbce3c0e1f4" x="57.79625" y="59.64063" style="fill: #9f3131; fill-opacity: 0.2"/>
     <use xlink:href="#mbce3c0e1f4" x="57.79625" y="23.157769" style="fill: #9f3131; fill-opacity: 0.2"/>
     <use xlink:href="#mbce3c0e1f4" x="57.79625" y="27.44987" style="fill: #9f3131; fill-opacity: 0.2"/>
     <use xlink:href="#mbce3c0e1f4" x="57.79625" y="29.595921" style="fill: #9f3131; fill-opacity: 0.2"/>
     <use xlink:href="#mbce3c0e1f4" x="57.79625" y="78.955086" style="fill: #9f3131; fill-opacity: 0.2"/>
     <use xlink:href="#mbce3c0e1f4" x="57.79625" y="33.888022" style="fill: #9f3131; fill-opacity: 0.2"/>
     <use xlink:href="#mbce3c0e1f4" x="57.79625" y="16.719617" style="fill: #9f3131; fill-opacity: 0.2"/>
     <use xlink:href="#mbce3c0e1f4" x="57.79625" y="38.180123" style="fill: #9f3131; fill-opacity: 0.2"/>
     <use xlink:href="#mbce3c0e1f4" x="57.79625" y="25.303819" style="fill: #9f3131; fill-opacity: 0.2"/>
     <use xlink:href="#mbce3c0e1f4" x="57.79625" y="23.157769" style="fill: #9f3131; fill-opacity: 0.2"/>
     <use xlink:href="#mbce3c0e1f4" x="57.79625" y="21.011718" style="fill: #9f3131; fill-opacity: 0.2"/>
     <use xlink:href="#mbce3c0e1f4" x="57.79625" y="51.056427" style="fill: #9f3131; fill-opacity: 0.2"/>
     <use xlink:href="#mbce3c0e1f4" x="57.79625" y="16.719617" style="fill: #9f3131; fill-opacity: 0.2"/>
     <use xlink:href="#mbce3c0e1f4" x="57.79625" y="18.865667" style="fill: #9f3131; fill-opacity: 0.2"/>
     <use xlink:href="#mbce3c0e1f4" x="57.79625" y="21.011718" style="fill: #9f3131; fill-opacity: 0.2"/>
     <use xlink:href="#mbce3c0e1f4" x="57.79625" y="31.741971" style="fill: #9f3131; fill-opacity: 0.2"/>
     <use xlink:href="#mbce3c0e1f4" x="57.79625" y="53.202478" style="fill: #9f3131; fill-opacity: 0.2"/>
     <use xlink:href="#mbce3c0e1f4" x="57.79625" y="53.202478" style="fill: #9f3131; fill-opacity: 0.2"/>
     <use xlink:href="#mbce3c0e1f4" x="57.79625" y="36.034073" style="fill: #9f3131; fill-opacity: 0.2"/>
     <use xlink:href="#mbce3c0e1f4" x="57.79625" y="42.472225" style="fill: #9f3131; fill-opacity: 0.2"/>
     <use xlink:href="#mbce3c0e1f4" x="57.79625" y="21.011718" style="fill: #9f3131; fill-opacity: 0.2"/>
     <use xlink:href="#mbce3c0e1f4" x="57.79625" y="61.786681" style="fill: #9f3131; fill-opacity: 0.2"/>
     <use xlink:href="#mbce3c0e1f4" x="57.79625" y="16.719617" style="fill: #9f3131; fill-opacity: 0.2"/>
     <use xlink:href="#mbce3c0e1f4" x="57.79625" y="46.764326" style="fill: #9f3131; fill-opacity: 0.2"/>
     <use xlink:href="#mbce3c0e1f4" x="57.79625" y="48.910377" style="fill: #9f3131; fill-opacity: 0.2"/>
     <use xlink:href="#mbce3c0e1f4" x="57.79625" y="14.573566" style="fill: #9f3131; fill-opacity: 0.2"/>
     <use xlink:href="#mbce3c0e1f4" x="57.79625" y="27.44987" style="fill: #9f3131; fill-opacity: 0.2"/>
     <use xlink:href="#mbce3c0e1f4" x="57.79625" y="23.157769" style="fill: #9f3131; fill-opacity: 0.2"/>
     <use xlink:href="#mbce3c0e1f4" x="57.79625" y="14.573566" style="fill: #9f3131; fill-opacity: 0.2"/>
     <use xlink:href="#mbce3c0e1f4" x="57.79625" y="76.809035" style="fill: #9f3131; fill-opacity: 0.2"/>
     <use xlink:href="#mbce3c0e1f4" x="57.79625" y="14.573566" style="fill: #9f3131; fill-opacity: 0.2"/>
     <use xlink:href="#mbce3c0e1f4" x="57.79625" y="38.180123" style="fill: #9f3131; fill-opacity: 0.2"/>
     <use xlink:href="#mbce3c0e1f4" x="57.79625" y="66.078782" style="fill: #9f3131; fill-opacity: 0.2"/>
     <use xlink:href="#mbce3c0e1f4" x="57.79625" y="27.44987" style="fill: #9f3131; fill-opacity: 0.2"/>
     <use xlink:href="#mbce3c0e1f4" x="57.79625" y="16.719617" style="fill: #9f3131; fill-opacity: 0.2"/>
     <use xlink:href="#mbce3c0e1f4" x="57.79625" y="59.64063" style="fill: #9f3131; fill-opacity: 0.2"/>
     <use xlink:href="#mbce3c0e1f4" x="57.79625" y="31.741971" style="fill: #9f3131; fill-opacity: 0.2"/>
     <use xlink:href="#mbce3c0e1f4" x="57.79625" y="29.595921" style="fill: #9f3131; fill-opacity: 0.2"/>
     <use xlink:href="#mbce3c0e1f4" x="57.79625" y="27.44987" style="fill: #9f3131; fill-opacity: 0.2"/>
     <use xlink:href="#mbce3c0e1f4" x="57.79625" y="23.157769" style="fill: #9f3131; fill-opacity: 0.2"/>
     <use xlink:href="#mbce3c0e1f4" x="57.79625" y="23.157769" style="fill: #9f3131; fill-opacity: 0.2"/>
     <use xlink:href="#mbce3c0e1f4" x="57.79625" y="44.618275" style="fill: #9f3131; fill-opacity: 0.2"/>
     <use xlink:href="#mbce3c0e1f4" x="57.79625" y="27.44987" style="fill: #9f3131; fill-opacity: 0.2"/>
     <use xlink:href="#mbce3c0e1f4" x="57.79625" y="21.011718" style="fill: #9f3131; fill-opacity: 0.2"/>
     <use xlink:href="#mbce3c0e1f4" x="57.79625" y="38.180123" style="fill: #9f3131; fill-opacity: 0.2"/>
     <use xlink:href="#mbce3c0e1f4" x="57.79625" y="42.472225" style="fill: #9f3131; fill-opacity: 0.2"/>
     <use xlink:href="#mbce3c0e1f4" x="57.79625" y="14.573566" style="fill: #9f3131; fill-opacity: 0.2"/>
     <use xlink:href="#mbce3c0e1f4" x="57.79625" y="23.157769" style="fill: #9f3131; fill-opacity: 0.2"/>
    </g>
   </g>
   <g id="line2d_59">
    <path d="M 40.92125 33.072523 
L 29.67125 33.072523 
" clip-path="url(#p3c811e9114)" style="fill: none; stroke: #000000; stroke-width: 0.85; stroke-linecap: square"/>
   </g>
   <g id="line2d_60">
    <path d="M 61.17125 34.188469 
L 72.42125 34.188469 
" clip-path="url(#p3c811e9114)" style="fill: none; stroke: #000000; stroke-width: 0.85; stroke-linecap: square"/>
   </g>
   <g id="LineCollection_1">
    <path d="M 35.29625 35.397586 
L 35.29625 30.74746 
" clip-path="url(#p3c811e9114)" style="fill: none; stroke: #000000; stroke-width: 0.85"/>
   </g>
   <g id="line2d_61">
    <defs>
     <path id="mf6045675b6" d="M 4 0 
L -4 -0 
" style="stroke: #000000; stroke-width: 0.85"/>
    </defs>
    <g clip-path="url(#p3c811e9114)">
     <use xlink:href="#mf6045675b6" x="35.29625" y="35.397586" style="stroke: #000000; stroke-width: 0.85"/>
    </g>
   </g>
   <g id="line2d_62">
    <g clip-path="url(#p3c811e9114)">
     <use xlink:href="#mf6045675b6" x="35.29625" y="30.74746" style="stroke: #000000; stroke-width: 0.85"/>
    </g>
   </g>
   <g id="LineCollection_2">
    <path d="M 66.79625 36.538558 
L 66.79625 31.83838 
" clip-path="url(#p3c811e9114)" style="fill: none; stroke: #000000; stroke-width: 0.85"/>
   </g>
   <g id="line2d_63">
    <g clip-path="url(#p3c811e9114)">
     <use xlink:href="#mf6045675b6" x="66.79625" y="36.538558" style="stroke: #000000; stroke-width: 0.85"/>
    </g>
   </g>
   <g id="line2d_64">
    <g clip-path="url(#p3c811e9114)">
     <use xlink:href="#mf6045675b6" x="66.79625" y="31.83838" style="stroke: #000000; stroke-width: 0.85"/>
    </g>
   </g>
   <g id="line2d_65">
    <path d="M 40.92125 9.807187 
L 61.17125 9.807187 
" style="fill: none; stroke: #000000; stroke-width: 0.5; stroke-linecap: square"/>
   </g>
   <g id="text_8">
    <text style="font-size: 6px; font-family: 'Arial'; text-anchor: middle" x="51.04625" y="11.494687" transform="rotate(-0 51.04625 11.494687)">ns</text>
   </g>
  </g>
 </g>
 <defs>
  <clipPath id="p3c811e9114">
   <rect x="24.04625" y="11.247187" width="54" height="72"/>
  </clipPath>
 </defs>
</svg>
