<?xml version="1.0" encoding="utf-8" standalone="no"?>
<!DOCTYPE svg PUBLIC "-//W3C//DTD SVG 1.1//EN"
  "http://www.w3.org/Graphics/SVG/1.1/DTD/svg11.dtd">
<svg xmlns:xlink="http://www.w3.org/1999/xlink" width="85.24625pt" height="101.357188pt" viewBox="0 0 85.24625 101.357188" xmlns="http://www.w3.org/2000/svg" version="1.1">
 <metadata>
  <rdf:RDF xmlns:dc="http://purl.org/dc/elements/1.1/" xmlns:cc="http://creativecommons.org/ns#" xmlns:rdf="http://www.w3.org/1999/02/22-rdf-syntax-ns#">
   <cc:Work>
    <dc:type rdf:resource="http://purl.org/dc/dcmitype/StillImage"/>
    <dc:date>2026-04-02T15:51:16.744723</dc:date>
    <dc:format>image/svg+xml</dc:format>
    <dc:creator>
     <cc:Agent>
      <dc:title>Matplotlib v3.10.8, https://matplotlib.org/</dc:title>
     </cc:Agent>
    </dc:creator>
   </cc:Work>
  </rdf:RDF>
 </metadata>
 <defs>
  <style type="text/css">*{stroke-linejoin: round; stroke-linecap: butt}</style>
 </defs>
 <g id="figure_1">
  <g id="patch_1">
   <path d="M 0 101.357188 
L 85.24625 101.357188 
L 85.24625 0 
L 0 0 
z
" style="fill: #ffffff"/>
  </g>
  <g id="axes_1">
   <g id="patch_2">
    <path d="M 24.04625 83.247188 
L 78.04625 83.247188 
L 78.04625 11.247187 
L 24.04625 11.247187 
z
" style="fill: #ffffff"/>
   </g>
   <g id="line2d_1">
    <path d="M 24.04625 48.961473 
L 78.04625 48.961473 
" clip-path="url(#pcd7c32f7ed)" style="fill: none; stroke-dasharray: 2.516,1.088; stroke-dashoffset: 0; stroke: #808080; stroke-opacity: 0.5; stroke-width: 0.68"/>
   </g>
   <g id="patch_3">
    <path d="M 40.92125 76.818616 
L 39.342834 76.818616 
L 39.314064 76.50634 
L 39.286188 76.194065 
L 39.259213 75.881789 
L 39.233138 75.569513 
L 39.207953 75.257238 
L 39.183642 74.944962 
L 39.160179 74.632686 
L 39.137533 74.320411 
L 39.115661 74.008135 
L 39.094517 73.695859 
L 39.074045 73.383584 
L 39.054181 73.071308 
L 39.034856 72.759032 
L 39.015996 72.446757 
L 38.997518 72.134481 
L 38.979336 71.822205 
L 38.961358 71.50993 
L 38.943489 71.197654 
L 38.92563 70.885378 
L 38.907678 70.573103 
L 38.889529 70.260827 
L 38.871078 69.948551 
L 38.852218 69.636276 
L 38.832843 69.324 
L 38.812846 69.011724 
L 38.792123 68.699449 
L 38.770571 68.387173 
L 38.748091 68.074897 
L 38.724585 67.762622 
L 38.699961 67.450346 
L 38.674132 67.13807 
L 38.647014 66.825795 
L 38.618531 66.513519 
L 38.588612 66.201243 
L 38.557193 65.888968 
L 38.524217 65.576692 
L 38.489636 65.264417 
L 38.453409 64.952141 
L 38.415501 64.639865 
L 38.375889 64.32759 
L 38.334556 64.015314 
L 38.291495 63.703038 
L 38.246708 63.390763 
L 38.200205 63.078487 
L 38.152004 62.766211 
L 38.102134 62.453936 
L 38.050631 62.14166 
L 37.997538 61.829384 
L 37.942909 61.517109 
L 37.886803 61.204833 
L 37.829289 60.892557 
L 37.77044 60.580282 
L 37.710338 60.268006 
L 37.649069 59.95573 
L 37.586725 59.643455 
L 37.523403 59.331179 
L 37.459205 59.018903 
L 37.394235 58.706628 
L 37.328599 58.394352 
L 37.262407 58.082076 
L 37.195769 57.769801 
L 37.128795 57.457525 
L 37.061596 57.145249 
L 36.99428 56.832974 
L 36.926954 56.520698 
L 36.859722 56.208422 
L 36.792684 55.896147 
L 36.725936 55.583871 
L 36.659568 55.271595 
L 36.593664 54.95932 
L 36.528302 54.647044 
L 36.463554 54.334768 
L 36.399481 54.022493 
L 36.336137 53.710217 
L 36.273568 53.397941 
L 36.21181 53.085666 
L 36.150888 52.77339 
L 36.090819 52.461114 
L 36.03161 52.148839 
L 35.973257 51.836563 
L 35.915745 51.524287 
L 35.859051 51.212012 
L 35.803141 50.899736 
L 35.747972 50.58746 
L 35.693492 50.275185 
L 35.639639 49.962909 
L 35.586345 49.650633 
L 35.533533 49.338358 
L 35.48112 49.026082 
L 35.429016 48.713806 
L 35.377127 48.401531 
L 35.325355 48.089255 
L 35.273597 47.776979 
L 35.22175 47.464704 
L 35.169707 47.152428 
L 35.117362 46.840152 
L 35.064611 46.527877 
L 35.011349 46.215601 
L 34.957475 45.903325 
L 34.902892 45.59105 
L 34.847507 45.278774 
L 34.791231 44.966498 
L 34.733984 44.654223 
L 34.675691 44.341947 
L 34.616285 44.029671 
L 34.555706 43.717396 
L 34.493904 43.40512 
L 34.430839 43.092844 
L 34.366478 42.780569 
L 34.300798 42.468293 
L 34.233786 42.156017 
L 34.16544 41.843742 
L 34.095764 41.531466 
L 34.024774 41.21919 
L 33.952495 40.906915 
L 33.878959 40.594639 
L 33.804206 40.282363 
L 33.728285 39.970088 
L 33.651251 39.657812 
L 33.573165 39.345536 
L 33.494094 39.033261 
L 33.414108 38.720985 
L 33.333283 38.408709 
L 33.251697 38.096434 
L 33.16943 37.784158 
L 33.086564 37.471882 
L 33.003179 37.159607 
L 32.91936 36.847331 
L 32.835186 36.535055 
L 32.750736 36.22278 
L 32.666089 35.910504 
L 32.581318 35.598228 
L 32.496494 35.285953 
L 32.411685 34.973677 
L 32.326955 34.661401 
L 32.242364 34.349126 
L 32.157967 34.03685 
L 32.073817 33.724574 
L 31.98996 33.412299 
L 31.906443 33.100023 
L 31.823305 32.787747 
L 31.740586 32.475472 
L 31.658321 32.163196 
L 31.576546 31.85092 
L 31.495295 31.538645 
L 31.414602 31.226369 
L 31.334503 30.914093 
L 31.255036 30.601818 
L 31.17624 30.289542 
L 31.098159 29.977266 
L 31.020844 29.664991 
L 30.94435 29.352715 
L 30.86874 29.040439 
L 30.794083 28.728164 
L 30.720461 28.415888 
L 30.647963 28.103612 
L 30.576689 27.791337 
L 30.506751 27.479061 
L 30.438274 27.166785 
L 30.371395 26.85451 
L 30.306263 26.542234 
L 30.243042 26.229958 
L 30.181908 25.917683 
L 30.123052 25.605407 
L 30.066676 25.293132 
L 30.012997 24.980856 
L 29.962242 24.66858 
L 29.914651 24.356305 
L 29.870473 24.044029 
L 29.829968 23.731753 
L 29.793403 23.419478 
L 29.761053 23.107202 
L 29.733197 22.794926 
L 29.710118 22.482651 
L 29.692101 22.170375 
L 29.67943 21.858099 
L 29.672387 21.545824 
L 29.67125 21.233548 
L 29.67629 20.921272 
L 29.68777 20.608997 
L 29.705941 20.296721 
L 29.731041 19.984445 
L 29.763291 19.67217 
L 29.802898 19.359894 
L 29.850046 19.047618 
L 29.904899 18.735343 
L 29.967595 18.423067 
L 30.038249 18.110791 
L 30.116949 17.798516 
L 30.203752 17.48624 
L 30.298687 17.173964 
L 30.401752 16.861689 
L 30.512914 16.549413 
L 30.632106 16.237137 
L 30.759229 15.924862 
L 30.894152 15.612586 
L 31.036711 15.30031 
L 31.18671 14.988035 
L 31.343919 14.675759 
L 40.92125 14.675759 
z
" clip-path="url(#pcd7c32f7ed)" style="fill: #20590b; opacity: 0.2"/>
   </g>
   <g id="patch_4">
    <path d="M 61.17125 83.247188 
L 62.805716 83.247188 
L 62.827571 82.902607 
L 62.848158 82.558027 
L 62.867481 82.213447 
L 62.885553 81.868867 
L 62.902393 81.524287 
L 62.918027 81.179707 
L 62.932489 80.835127 
L 62.945816 80.490547 
L 62.958055 80.145967 
L 62.969255 79.801387 
L 62.979472 79.456807 
L 62.988763 79.112227 
L 62.997193 78.767647 
L 63.004826 78.423067 
L 63.01173 78.078487 
L 63.017975 77.733907 
L 63.023631 77.389327 
L 63.028769 77.044747 
L 63.03346 76.700167 
L 63.037773 76.355587 
L 63.041779 76.011007 
L 63.045544 75.666427 
L 63.049134 75.321847 
L 63.052612 74.977266 
L 63.056038 74.632686 
L 63.059471 74.288106 
L 63.062964 73.943526 
L 63.06657 73.598946 
L 63.070336 73.254366 
L 63.074309 72.909786 
L 63.078531 72.565206 
L 63.083041 72.220626 
L 63.087877 71.876046 
L 63.093072 71.531466 
L 63.098661 71.186886 
L 63.104674 70.842306 
L 63.11114 70.497726 
L 63.118089 70.153146 
L 63.125548 69.808566 
L 63.133546 69.463986 
L 63.14211 69.119406 
L 63.151271 68.774826 
L 63.161058 68.430246 
L 63.171502 68.085666 
L 63.182638 67.741086 
L 63.1945 67.396506 
L 63.207126 67.051925 
L 63.220557 66.707345 
L 63.234836 66.362765 
L 63.250008 66.018185 
L 63.266123 65.673605 
L 63.283233 65.329025 
L 63.301391 64.984445 
L 63.320657 64.639865 
L 63.341089 64.295285 
L 63.362751 63.950705 
L 63.385707 63.606125 
L 63.410023 63.261545 
L 63.435769 62.916965 
L 63.463014 62.572385 
L 63.491827 62.227805 
L 63.52228 61.883225 
L 63.554443 61.538645 
L 63.588386 61.194065 
L 63.624178 60.849485 
L 63.661887 60.504905 
L 63.701578 60.160325 
L 63.743315 59.815745 
L 63.787159 59.471165 
L 63.833166 59.126584 
L 63.881392 58.782004 
L 63.931886 58.437424 
L 63.984694 58.092844 
L 64.039859 57.748264 
L 64.097416 57.403684 
L 64.157398 57.059104 
L 64.219832 56.714524 
L 64.284741 56.369944 
L 64.35214 56.025364 
L 64.422043 55.680784 
L 64.494454 55.336204 
L 64.569376 54.991624 
L 64.646804 54.647044 
L 64.72673 54.302464 
L 64.80914 53.957884 
L 64.894016 53.613304 
L 64.981333 53.268724 
L 65.071066 52.924144 
L 65.16318 52.579564 
L 65.257642 52.234984 
L 65.354409 51.890404 
L 65.453439 51.545824 
L 65.554683 51.201243 
L 65.65809 50.856663 
L 65.763604 50.512083 
L 65.871169 50.167503 
L 65.980721 49.822923 
L 66.092196 49.478343 
L 66.205526 49.133763 
L 66.320638 48.789183 
L 66.437458 48.444603 
L 66.555908 48.100023 
L 66.675906 47.755443 
L 66.797367 47.410863 
L 66.920203 47.066283 
L 67.044322 46.721703 
L 67.169627 46.377123 
L 67.296021 46.032543 
L 67.423399 45.687963 
L 67.551656 45.343383 
L 67.680681 44.998803 
L 67.810359 44.654223 
L 67.940574 44.309643 
L 68.071202 43.965063 
L 68.20212 43.620483 
L 68.333199 43.275903 
L 68.464307 42.931322 
L 68.595309 42.586742 
L 68.726069 42.242162 
L 68.856445 41.897582 
L 68.986297 41.553002 
L 69.115481 41.208422 
L 69.243851 40.863842 
L 69.371263 40.519262 
L 69.497569 40.174682 
L 69.622626 39.830102 
L 69.746288 39.485522 
L 69.868412 39.140942 
L 69.988857 38.796362 
L 70.107484 38.451782 
L 70.224158 38.107202 
L 70.338748 37.762622 
L 70.451126 37.418042 
L 70.56117 37.073462 
L 70.668763 36.728882 
L 70.773795 36.384302 
L 70.87616 36.039722 
L 70.97576 35.695142 
L 71.072503 35.350562 
L 71.166306 35.005981 
L 71.25709 34.661401 
L 71.344784 34.316821 
L 71.429325 33.972241 
L 71.510657 33.627661 
L 71.588727 33.283081 
L 71.663493 32.938501 
L 71.734915 32.593921 
L 71.80296 32.249341 
L 71.867597 31.904761 
L 71.928801 31.560181 
L 71.98655 31.215601 
L 72.040823 30.871021 
L 72.0916 30.526441 
L 72.138862 30.181861 
L 72.182588 29.837281 
L 72.222759 29.492701 
L 72.259349 29.148121 
L 72.292331 28.803541 
L 72.321673 28.458961 
L 72.347339 28.114381 
L 72.369285 27.769801 
L 72.387463 27.425221 
L 72.401816 27.08064 
L 72.412281 26.73606 
L 72.418785 26.39148 
L 72.42125 26.0469 
L 72.419588 25.70232 
L 72.413703 25.35774 
L 72.403494 25.01316 
L 72.388849 24.66858 
L 72.369654 24.324 
L 72.345785 23.97942 
L 72.317116 23.63484 
L 72.283518 23.29026 
L 72.244858 22.94568 
L 72.201001 22.6011 
L 72.151816 22.25652 
L 72.097172 21.91194 
L 72.036943 21.56736 
L 71.971006 21.22278 
L 71.899248 20.8782 
L 71.821565 20.53362 
L 71.737864 20.18904 
L 71.648065 19.84446 
L 71.552102 19.49988 
L 71.449926 19.155299 
L 71.341506 18.810719 
L 71.226831 18.466139 
L 71.105911 18.121559 
L 70.978778 17.776979 
L 70.845486 17.432399 
L 70.706116 17.087819 
L 70.56077 16.743239 
L 70.409579 16.398659 
L 70.252698 16.054079 
L 70.090306 15.709499 
L 69.922609 15.364919 
L 69.749837 15.020339 
L 69.572246 14.675759 
L 61.17125 14.675759 
z
" clip-path="url(#pcd7c32f7ed)" style="fill: #9f3131; opacity: 0.2"/>
   </g>
   <g id="matplotlib.axis_1">
    <g id="xtick_1">
     <g id="line2d_2">
      <defs>
       <path id="mb010fa40f7" d="M 0 0 
L 0 -4 
" style="stroke: #000000; stroke-width: 0.5"/>
      </defs>
      <g>
       <use xlink:href="#mb010fa40f7" x="40.92125" y="83.247188" style="stroke: #000000; stroke-width: 0.5"/>
      </g>
     </g>
     <g id="text_1">
      <text style="font-size: 8px; font-family: 'Arial'; text-anchor: middle" x="40.92125" y="92.473438" transform="rotate(-0 40.92125 92.473438)">Positive</text>
     </g>
    </g>
    <g id="xtick_2">
     <g id="line2d_3">
      <g>
       <use xlink:href="#mb010fa40f7" x="61.17125" y="83.247188" style="stroke: #000000; stroke-width: 0.5"/>
      </g>
     </g>
     <g id="text_2">
      <text style="font-size: 8px; font-family: 'Arial'; text-anchor: middle" x="61.17125" y="92.473438" transform="rotate(-0 61.17125 92.473438)">Negative</text>
     </g>
    </g>
   </g>
   <g id="matplotlib.axis_2">
    <g id="ytick_1">
     <g id="line2d_4">
      <defs>
       <path id="m9018327b49" d="M 0 0 
L 4 0 
" style="stroke: #000000; stroke-width: 0.5"/>
      </defs>
      <g>
       <use xlink:href="#m9018327b49" x="24.04625" y="83.247188" style="stroke: #000000; stroke-width: 0.5"/>
      </g>
     </g>
     <g id="text_3">
      <text style="font-size: 8px; font-family: 'Arial'; text-anchor: end" x="20.54625" y="86.110313" transform="rotate(-0 20.54625 86.110313)">0</text>
     </g>
    </g>
    <g id="ytick_2">
     <g id="line2d_5">
      <g>
       <use xlink:href="#m9018327b49" x="24.04625" y="66.10433" style="stroke: #000000; stroke-width: 0.5"/>
      </g>
     </g>
     <g id="text_4">
      <text style="font-size: 8px; font-family: 'Arial'; text-anchor: end" x="20.54625" y="68.967455" transform="rotate(-0 20.54625 68.967455)">25</text>
     </g>
    </g>
    <g id="ytick_3">
     <g id="line2d_6">
      <g>
       <use xlink:href="#m9018327b49" x="24.04625" y="48.961473" style="stroke: #000000; stroke-width: 0.5"/>
      </g>
     </g>
     <g id="text_5">
      <text style="font-size: 8px; font-family: 'Arial'; text-anchor: end" x="20.54625" y="51.824598" transform="rotate(-0 20.54625 51.824598)">50</text>
     </g>
    </g>
    <g id="ytick_4">
     <g id="line2d_7">
      <g>
       <use xlink:href="#m9018327b49" x="24.04625" y="31.818616" style="stroke: #000000; stroke-width: 0.5"/>
      </g>
     </g>
     <g id="text_6">
      <text style="font-size: 8px; font-family: 'Arial'; text-anchor: end" x="20.54625" y="34.681741" transform="rotate(-0 20.54625 34.681741)">75</text>
     </g>
    </g>
    <g id="ytick_5">
     <g id="line2d_8">
      <g>
       <use xlink:href="#m9018327b49" x="24.04625" y="14.675759" style="stroke: #000000; stroke-width: 0.5"/>
      </g>
     </g>
     <g id="text_7">
      <text style="font-size: 8px; font-family: 'Arial'; text-anchor: end" x="20.54625" y="17.538884" transform="rotate(-0 20.54625 17.538884)">100</text>
     </g>
    </g>
   </g>
   <g id="patch_5">
    <path d="M 40.92125 38.239725 
L 33.289134 38.239725 
L 33.275948 38.189256 
L 33.262763 38.138787 
L 33.249559 38.088318 
L 33.236263 38.037848 
L 33.222968 37.987379 
L 33.209672 37.93691 
L 33.196376 37.886441 
L 33.18308 37.835971 
L 33.169784 37.785502 
L 33.156394 37.735033 
L 33.143001 37.684563 
L 33.129609 37.634094 
L 33.116216 37.583625 
L 33.102823 37.533156 
L 33.089431 37.482686 
L 33.075972 37.432217 
L 33.062496 37.381748 
L 33.049019 37.331279 
L 33.035543 37.280809 
L 33.022067 37.23034 
L 33.00859 37.179871 
L 32.995072 37.129401 
L 32.981525 37.078932 
L 32.967978 37.028463 
L 32.954432 36.977994 
L 32.940885 36.927524 
L 32.927338 36.877055 
L 32.913768 36.826586 
L 32.900164 36.776117 
L 32.88656 36.725647 
L 32.872956 36.675178 
L 32.859352 36.624709 
L 32.845748 36.57424 
L 32.832134 36.52377 
L 32.818485 36.473301 
L 32.804837 36.422832 
L 32.791188 36.372362 
L 32.77754 36.321893 
L 32.763891 36.271424 
L 32.750242 36.220955 
L 32.736561 36.170485 
L 32.722881 36.120016 
L 32.7092 36.069547 
L 32.69552 36.019078 
L 32.681839 35.968608 
L 32.668159 35.918139 
L 32.654461 35.86767 
L 32.64076 35.8172 
L 32.62706 35.766731 
L 32.613359 35.716262 
L 32.599659 35.665793 
L 32.585958 35.615323 
L 32.572252 35.564854 
L 32.558543 35.514385 
L 32.544834 35.463916 
L 32.531125 35.413446 
L 32.517416 35.362977 
L 32.503707 35.312508 
L 32.489999 35.262038 
L 32.476293 35.211569 
L 32.462586 35.1611 
L 32.448879 35.110631 
L 32.435173 35.060161 
L 32.421466 35.009692 
L 32.407763 34.959223 
L 32.394069 34.908754 
L 32.380376 34.858284 
L 32.366682 34.807815 
L 32.352988 34.757346 
L 32.339294 34.706876 
L 32.325602 34.656407 
L 32.311931 34.605938 
L 32.29826 34.555469 
L 32.284588 34.504999 
L 32.270917 34.45453 
L 32.257245 34.404061 
L 32.243574 34.353592 
L 32.229931 34.303122 
L 32.216291 34.252653 
L 32.202651 34.202184 
L 32.189011 34.151714 
L 32.175371 34.101245 
L 32.161731 34.050776 
L 32.14812 34.000307 
L 32.13452 33.949837 
L 32.120919 33.899368 
L 32.107319 33.848899 
L 32.093719 33.79843 
L 32.080119 33.74796 
L 32.066544 33.697491 
L 32.052991 33.647022 
L 32.039439 33.596553 
L 32.025886 33.546083 
L 32.012333 33.495614 
L 31.998781 33.445145 
L 31.985247 33.394675 
L 31.971749 33.344206 
L 31.958251 33.293737 
L 31.944753 33.243268 
L 31.931255 33.192798 
L 31.917757 33.142329 
L 31.904269 33.09186 
L 31.890833 33.041391 
L 31.877396 32.990921 
L 31.86396 32.940452 
L 31.850523 32.889983 
L 31.837087 32.839513 
L 31.82365 32.789044 
L 31.81028 32.738575 
L 31.796911 32.688106 
L 31.783542 32.637636 
L 31.770173 32.587167 
L 31.756804 32.536698 
L 31.743435 32.486229 
L 31.730124 32.435759 
L 31.716828 32.38529 
L 31.703533 32.334821 
L 31.690238 32.284351 
L 31.676942 32.233882 
L 31.663647 32.183413 
L 31.650399 32.132944 
L 31.637182 32.082474 
L 31.623966 32.032005 
L 31.61075 31.981536 
L 31.597534 31.931067 
L 31.584317 31.880597 
L 31.571136 31.830128 
L 31.558004 31.779659 
L 31.544873 31.729189 
L 31.531741 31.67872 
L 31.51861 31.628251 
L 31.505478 31.577782 
L 31.492367 31.527312 
L 31.479325 31.476843 
L 31.466284 31.426374 
L 31.453243 31.375905 
L 31.440201 31.325435 
L 31.42716 31.274966 
L 31.414122 31.224497 
L 31.401177 31.174028 
L 31.388231 31.123558 
L 31.375286 31.073089 
L 31.362341 31.02262 
L 31.349395 30.97215 
L 31.33645 30.921681 
L 31.323591 30.871212 
L 31.310748 30.820743 
L 31.297904 30.770273 
L 31.285061 30.719804 
L 31.272217 30.669335 
L 31.259374 30.618866 
L 31.246603 30.568396 
L 31.233868 30.517927 
L 31.221133 30.467458 
L 31.208398 30.416988 
L 31.195663 30.366519 
L 31.182928 30.31605 
L 31.170248 30.265581 
L 31.157629 30.215111 
L 31.14501 30.164642 
L 31.132391 30.114173 
L 31.119772 30.063704 
L 31.107153 30.013234 
L 31.094569 29.962765 
L 31.082074 29.912296 
L 31.069578 29.861826 
L 31.057083 29.811357 
L 31.044587 29.760888 
L 31.032092 29.710419 
L 31.01961 29.659949 
L 31.007247 29.60948 
L 30.994884 29.559011 
L 30.982521 29.508542 
L 30.970158 29.458072 
L 30.957796 29.407603 
L 30.945433 29.357134 
L 30.9332 29.306664 
L 30.92098 29.256195 
L 30.90876 29.205726 
L 30.89654 29.155257 
L 30.88432 29.104787 
L 30.8721 29.054318 
L 30.859992 29.003849 
L 30.847926 28.95338 
L 30.83586 28.90291 
L 30.823795 28.852441 
L 30.811729 28.801972 
L 30.799663 28.751502 
L 30.787687 28.701033 
L 30.775788 28.650564 
L 30.76389 28.600095 
L 30.751991 28.549625 
L 30.740092 28.499156 
L 30.728194 28.448687 
L 30.716359 28.398218 
L 30.704642 28.347748 
L 30.692925 28.297279 
L 30.681208 28.24681 
L 30.669491 28.196341 
L 40.92125 28.196341 
z
" clip-path="url(#pcd7c32f7ed)" style="fill: #20590b; opacity: 0.4"/>
   </g>
   <g id="patch_6">
    <path d="M 29.67125 38.239725 
L 40.92125 38.239725 
L 40.92125 28.196341 
L 29.67125 28.196341 
L 29.67125 38.239725 
z
" style="fill: none; stroke: #20590b; stroke-width: 0.85; stroke-linejoin: miter"/>
   </g>
   <g id="patch_7">
    <path d="M 61.17125 40.301225 
L 69.451185 40.301225 
L 69.470996 40.247178 
L 69.490807 40.193131 
L 69.510489 40.139085 
L 69.530104 40.085038 
L 69.549719 40.030991 
L 69.569334 39.976944 
L 69.588948 39.922898 
L 69.608563 39.868851 
L 69.628116 39.814804 
L 69.647513 39.760757 
L 69.666909 39.70671 
L 69.686305 39.652664 
L 69.705701 39.598617 
L 69.725097 39.54457 
L 69.744493 39.490523 
L 69.763671 39.436477 
L 69.782826 39.38243 
L 69.80198 39.328383 
L 69.821135 39.274336 
L 69.84029 39.22029 
L 69.859445 39.166243 
L 69.87846 39.112196 
L 69.897352 39.058149 
L 69.916243 39.004103 
L 69.935135 38.950056 
L 69.954026 38.896009 
L 69.972918 38.841962 
L 69.991765 38.787916 
L 70.010371 38.733869 
L 70.028978 38.679822 
L 70.047584 38.625775 
L 70.066191 38.571729 
L 70.084797 38.517682 
L 70.103404 38.463635 
L 70.121771 38.409588 
L 70.140071 38.355542 
L 70.158371 38.301495 
L 70.176671 38.247448 
L 70.194971 38.193401 
L 70.213271 38.139354 
L 70.231439 38.085308 
L 70.249412 38.031261 
L 70.267385 37.977214 
L 70.285359 37.923167 
L 70.303332 37.869121 
L 70.321305 37.815074 
L 70.339268 37.761027 
L 70.356894 37.70698 
L 70.37452 37.652934 
L 70.392147 37.598887 
L 70.409773 37.54484 
L 70.427399 37.490793 
L 70.445026 37.436747 
L 70.462412 37.3827 
L 70.479673 37.328653 
L 70.496933 37.274606 
L 70.514193 37.22056 
L 70.531453 37.166513 
L 70.548714 37.112466 
L 70.565867 37.058419 
L 70.582743 37.004373 
L 70.599618 36.950326 
L 70.616494 36.896279 
L 70.63337 36.842232 
L 70.650246 36.788186 
L 70.667122 36.734139 
L 70.683635 36.680092 
L 70.700109 36.626045 
L 70.716583 36.571998 
L 70.733057 36.517952 
L 70.749531 36.463905 
L 70.766005 36.409858 
L 70.782258 36.355811 
L 70.798314 36.301765 
L 70.81437 36.247718 
L 70.830426 36.193671 
L 70.846482 36.139624 
L 70.862537 36.085578 
L 70.878527 36.031531 
L 70.894149 35.977484 
L 70.909772 35.923437 
L 70.925394 35.869391 
L 70.941016 35.815344 
L 70.956638 35.761297 
L 70.97226 35.70725 
L 70.987534 35.653204 
L 71.002708 35.599157 
L 71.017882 35.54511 
L 71.033057 35.491063 
L 71.048231 35.437017 
L 71.063405 35.38297 
L 71.078394 35.328923 
L 71.093107 35.274876 
L 71.107819 35.22083 
L 71.122532 35.166783 
L 71.137245 35.112736 
L 71.151958 35.058689 
L 71.166659 35.004642 
L 71.180898 34.950596 
L 71.195137 34.896549 
L 71.209376 34.842502 
L 71.223616 34.788455 
L 71.237855 34.734409 
L 71.252094 34.680362 
L 71.266019 34.626315 
L 71.279774 34.572268 
L 71.293528 34.518222 
L 71.307283 34.464175 
L 71.321038 34.410128 
L 71.334792 34.356081 
L 71.348412 34.302035 
L 71.361672 34.247988 
L 71.374932 34.193941 
L 71.388192 34.139894 
L 71.401452 34.085848 
L 71.414713 34.031801 
L 71.427973 33.977754 
L 71.440781 33.923707 
L 71.453537 33.869661 
L 71.466294 33.815614 
L 71.479051 33.761567 
L 71.491807 33.70752 
L 71.504564 33.653474 
L 71.517054 33.599427 
L 71.529299 33.54538 
L 71.541544 33.491333 
L 71.553789 33.437286 
L 71.566035 33.38324 
L 71.57828 33.329193 
L 71.590449 33.275146 
L 71.602176 33.221099 
L 71.613903 33.167053 
L 71.62563 33.113006 
L 71.637357 33.058959 
L 71.649084 33.004912 
L 71.66081 32.950866 
L 71.672133 32.896819 
L 71.683335 32.842772 
L 71.694538 32.788725 
L 71.70574 32.734679 
L 71.716942 32.680632 
L 71.728145 32.626585 
L 71.739138 32.572538 
L 71.74981 32.518492 
L 71.760483 32.464445 
L 71.771156 32.410398 
L 71.781828 32.356351 
L 71.792501 32.302305 
L 71.803163 32.248258 
L 71.813301 32.194211 
L 71.823439 32.140164 
L 71.833577 32.086117 
L 71.843716 32.032071 
L 71.853854 31.978024 
L 71.863992 31.923977 
L 71.873783 31.86993 
L 71.883383 31.815884 
L 71.892983 31.761837 
L 71.902583 31.70779 
L 71.912183 31.653743 
L 71.921783 31.599697 
L 71.931237 31.54565 
L 71.940294 31.491603 
L 71.949352 31.437556 
L 71.95841 31.38351 
L 71.967468 31.329463 
L 71.976526 31.275416 
L 71.985584 31.221369 
L 71.994154 31.167323 
L 72.002667 31.113276 
L 72.011179 31.059229 
L 72.019692 31.005182 
L 72.028205 30.951136 
L 72.036717 30.897089 
L 72.044946 30.843042 
L 72.05291 30.788995 
L 72.060874 30.734949 
L 72.068839 30.680902 
L 72.076803 30.626855 
L 72.084767 30.572808 
L 72.092653 30.518761 
L 72.100066 30.464715 
L 72.107479 30.410668 
L 72.114892 30.356621 
L 72.122305 30.302574 
L 72.129718 30.248528 
L 72.137131 30.194481 
L 72.144119 30.140434 
L 72.150977 30.086387 
L 72.157836 30.032341 
L 72.164694 29.978294 
L 72.171553 29.924247 
L 72.178411 29.8702 
L 72.185051 29.816154 
L 72.191352 29.762107 
L 72.197653 29.70806 
L 72.203953 29.654013 
L 72.210254 29.599967 
L 72.216555 29.54592 
L 61.17125 29.54592 
z
" clip-path="url(#pcd7c32f7ed)" style="fill: #9f3131; opacity: 0.4"/>
   </g>
   <g id="patch_8">
    <path d="M 61.17125 40.301225 
L 72.42125 40.301225 
L 72.42125 29.54592 
L 61.17125 29.54592 
L 61.17125 40.301225 
z
" style="fill: none; stroke: #9f3131; stroke-width: 0.85; stroke-linejoin: miter"/>
   </g>
   <g id="line2d_9">
    <path d="M 44.29625 27.532902 
L 57.79625 29.675759 
" clip-path="url(#pcd7c32f7ed)" style="fill: none; stroke: #999999; stroke-opacity: 0.8; stroke-width: 0.3; stroke-linecap: square"/>
   </g>
   <g id="line2d_10">
    <path d="M 44.29625 46.818616 
L 57.79625 81.10433 
" clip-path="url(#pcd7c32f7ed)" style="fill: none; stroke: #999999; stroke-opacity: 0.8; stroke-width: 0.3; stroke-linecap: square"/>
   </g>
   <g id="line2d_11">
    <path d="M 44.29625 51.10433 
L 57.79625 83.247188 
" clip-path="url(#pcd7c32f7ed)" style="fill: none; stroke: #999999; stroke-opacity: 0.8; stroke-width: 0.3; stroke-linecap: square"/>
   </g>
   <g id="line2d_12">
    <path d="M 44.29625 76.818616 
L 57.79625 70.390045 
" clip-path="url(#pcd7c32f7ed)" style="fill: none; stroke: #999999; stroke-opacity: 0.8; stroke-width: 0.3; stroke-linecap: square"/>
   </g>
   <g id="line2d_13">
    <path d="M 44.29625 14.675759 
L 57.79625 48.961473 
" clip-path="url(#pcd7c32f7ed)" style="fill: none; stroke: #999999; stroke-opacity: 0.8; stroke-width: 0.3; stroke-linecap: square"/>
   </g>
   <g id="line2d_14">
    <path d="M 44.29625 51.10433 
L 57.79625 33.961473 
" clip-path="url(#pcd7c32f7ed)" style="fill: none; stroke: #999999; stroke-opacity: 0.8; stroke-width: 0.3; stroke-linecap: square"/>
   </g>
   <g id="line2d_15">
    <path d="M 44.29625 36.10433 
L 57.79625 14.675759 
" clip-path="url(#pcd7c32f7ed)" style="fill: none; stroke: #999999; stroke-opacity: 0.8; stroke-width: 0.3; stroke-linecap: square"/>
   </g>
   <g id="line2d_16">
    <path d="M 44.29625 72.532902 
L 57.79625 16.818616 
" clip-path="url(#pcd7c32f7ed)" style="fill: none; stroke: #999999; stroke-opacity: 0.8; stroke-width: 0.3; stroke-linecap: square"/>
   </g>
   <g id="line2d_17">
    <path d="M 44.29625 36.10433 
L 57.79625 33.961473 
" clip-path="url(#pcd7c32f7ed)" style="fill: none; stroke: #999999; stroke-opacity: 0.8; stroke-width: 0.3; stroke-linecap: square"/>
   </g>
   <g id="line2d_18">
    <path d="M 44.29625 31.818616 
L 57.79625 31.818616 
" clip-path="url(#pcd7c32f7ed)" style="fill: none; stroke: #999999; stroke-opacity: 0.8; stroke-width: 0.3; stroke-linecap: square"/>
   </g>
   <g id="line2d_19">
    <path d="M 44.29625 23.247187 
L 57.79625 18.961473 
" clip-path="url(#pcd7c32f7ed)" style="fill: none; stroke: #999999; stroke-opacity: 0.8; stroke-width: 0.3; stroke-linecap: square"/>
   </g>
   <g id="line2d_20">
    <path d="M 44.29625 31.818616 
L 57.79625 46.818616 
" clip-path="url(#pcd7c32f7ed)" style="fill: none; stroke: #999999; stroke-opacity: 0.8; stroke-width: 0.3; stroke-linecap: square"/>
   </g>
   <g id="line2d_21">
    <path d="M 44.29625 14.675759 
L 57.79625 40.390045 
" clip-path="url(#pcd7c32f7ed)" style="fill: none; stroke: #999999; stroke-opacity: 0.8; stroke-width: 0.3; stroke-linecap: square"/>
   </g>
   <g id="line2d_22">
    <path d="M 44.29625 14.675759 
L 57.79625 29.675759 
" clip-path="url(#pcd7c32f7ed)" style="fill: none; stroke: #999999; stroke-opacity: 0.8; stroke-width: 0.3; stroke-linecap: square"/>
   </g>
   <g id="line2d_23">
    <path d="M 44.29625 16.818616 
L 57.79625 33.961473 
" clip-path="url(#pcd7c32f7ed)" style="fill: none; stroke: #999999; stroke-opacity: 0.8; stroke-width: 0.3; stroke-linecap: square"/>
   </g>
   <g id="line2d_24">
    <path d="M 44.29625 31.818616 
L 57.79625 36.10433 
" clip-path="url(#pcd7c32f7ed)" style="fill: none; stroke: #999999; stroke-opacity: 0.8; stroke-width: 0.3; stroke-linecap: square"/>
   </g>
   <g id="line2d_25">
    <path d="M 44.29625 36.10433 
L 57.79625 29.675759 
" clip-path="url(#pcd7c32f7ed)" style="fill: none; stroke: #999999; stroke-opacity: 0.8; stroke-width: 0.3; stroke-linecap: square"/>
   </g>
   <g id="line2d_26">
    <path d="M 44.29625 16.818616 
L 57.79625 23.247187 
" clip-path="url(#pcd7c32f7ed)" style="fill: none; stroke: #999999; stroke-opacity: 0.8; stroke-width: 0.3; stroke-linecap: square"/>
   </g>
   <g id="line2d_27">
    <path d="M 44.29625 14.675759 
L 57.79625 18.961473 
" clip-path="url(#pcd7c32f7ed)" style="fill: none; stroke: #999999; stroke-opacity: 0.8; stroke-width: 0.3; stroke-linecap: square"/>
   </g>
   <g id="line2d_28">
    <path d="M 44.29625 14.675759 
L 57.79625 14.675759 
" clip-path="url(#pcd7c32f7ed)" style="fill: none; stroke: #999999; stroke-opacity: 0.8; stroke-width: 0.3; stroke-linecap: square"/>
   </g>
   <g id="line2d_29">
    <path d="M 44.29625 25.390045 
L 57.79625 27.532902 
" clip-path="url(#pcd7c32f7ed)" style="fill: none; stroke: #999999; stroke-opacity: 0.8; stroke-width: 0.3; stroke-linecap: square"/>
   </g>
   <g id="line2d_30">
    <path d="M 44.29625 61.818616 
L 57.79625 33.961473 
" clip-path="url(#pcd7c32f7ed)" style="fill: none; stroke: #999999; stroke-opacity: 0.8; stroke-width: 0.3; stroke-linecap: square"/>
   </g>
   <g id="line2d_31">
    <path d="M 44.29625 53.247187 
L 57.79625 63.961473 
" clip-path="url(#pcd7c32f7ed)" style="fill: none; stroke: #999999; stroke-opacity: 0.8; stroke-width: 0.3; stroke-linecap: square"/>
   </g>
   <g id="line2d_32">
    <path d="M 44.29625 14.675759 
L 57.79625 14.675759 
" clip-path="url(#pcd7c32f7ed)" style="fill: none; stroke: #999999; stroke-opacity: 0.8; stroke-width: 0.3; stroke-linecap: square"/>
   </g>
   <g id="line2d_33">
    <path d="M 44.29625 16.818616 
L 57.79625 16.818616 
" clip-path="url(#pcd7c32f7ed)" style="fill: none; stroke: #999999; stroke-opacity: 0.8; stroke-width: 0.3; stroke-linecap: square"/>
   </g>
   <g id="line2d_34">
    <path d="M 44.29625 33.961473 
L 57.79625 51.10433 
" clip-path="url(#pcd7c32f7ed)" style="fill: none; stroke: #999999; stroke-opacity: 0.8; stroke-width: 0.3; stroke-linecap: square"/>
   </g>
   <g id="line2d_35">
    <path d="M 44.29625 14.675759 
L 57.79625 40.390045 
" clip-path="url(#pcd7c32f7ed)" style="fill: none; stroke: #999999; stroke-opacity: 0.8; stroke-width: 0.3; stroke-linecap: square"/>
   </g>
   <g id="line2d_36">
    <path d="M 44.29625 38.247187 
L 57.79625 21.10433 
" clip-path="url(#pcd7c32f7ed)" style="fill: none; stroke: #999999; stroke-opacity: 0.8; stroke-width: 0.3; stroke-linecap: square"/>
   </g>
   <g id="line2d_37">
    <path d="M 44.29625 27.532902 
L 57.79625 21.10433 
" clip-path="url(#pcd7c32f7ed)" style="fill: none; stroke: #999999; stroke-opacity: 0.8; stroke-width: 0.3; stroke-linecap: square"/>
   </g>
   <g id="line2d_38">
    <path d="M 44.29625 61.818616 
L 57.79625 40.390045 
" clip-path="url(#pcd7c32f7ed)" style="fill: none; stroke: #999999; stroke-opacity: 0.8; stroke-width: 0.3; stroke-linecap: square"/>
   </g>
   <g id="line2d_39">
    <path d="M 44.29625 46.818616 
L 57.79625 14.675759 
" clip-path="url(#pcd7c32f7ed)" style="fill: none; stroke: #999999; stroke-opacity: 0.8; stroke-width: 0.3; stroke-linecap: square"/>
   </g>
   <g id="line2d_40">
    <path d="M 44.29625 31.818616 
L 57.79625 21.10433 
" clip-path="url(#pcd7c32f7ed)" style="fill: none; stroke: #999999; stroke-opacity: 0.8; stroke-width: 0.3; stroke-linecap: square"/>
   </g>
   <g id="line2d_41">
    <path d="M 44.29625 14.675759 
L 57.79625 27.532902 
" clip-path="url(#pcd7c32f7ed)" style="fill: none; stroke: #999999; stroke-opacity: 0.8; stroke-width: 0.3; stroke-linecap: square"/>
   </g>
   <g id="line2d_42">
    <path d="M 44.29625 16.818616 
L 57.79625 21.10433 
" clip-path="url(#pcd7c32f7ed)" style="fill: none; stroke: #999999; stroke-opacity: 0.8; stroke-width: 0.3; stroke-linecap: square"/>
   </g>
   <g id="line2d_43">
    <path d="M 44.29625 23.247187 
L 57.79625 14.675759 
" clip-path="url(#pcd7c32f7ed)" style="fill: none; stroke: #999999; stroke-opacity: 0.8; stroke-width: 0.3; stroke-linecap: square"/>
   </g>
   <g id="line2d_44">
    <path d="M 44.29625 25.390045 
L 57.79625 42.532902 
" clip-path="url(#pcd7c32f7ed)" style="fill: none; stroke: #999999; stroke-opacity: 0.8; stroke-width: 0.3; stroke-linecap: square"/>
   </g>
   <g id="line2d_45">
    <path d="M 44.29625 53.247187 
L 57.79625 42.532902 
" clip-path="url(#pcd7c32f7ed)" style="fill: none; stroke: #999999; stroke-opacity: 0.8; stroke-width: 0.3; stroke-linecap: square"/>
   </g>
   <g id="line2d_46">
    <path d="M 44.29625 23.247187 
L 57.79625 14.675759 
" clip-path="url(#pcd7c32f7ed)" style="fill: none; stroke: #999999; stroke-opacity: 0.8; stroke-width: 0.3; stroke-linecap: square"/>
   </g>
   <g id="line2d_47">
    <path d="M 44.29625 40.390045 
L 57.79625 36.10433 
" clip-path="url(#pcd7c32f7ed)" style="fill: none; stroke: #999999; stroke-opacity: 0.8; stroke-width: 0.3; stroke-linecap: square"/>
   </g>
   <g id="line2d_48">
    <path d="M 44.29625 14.675759 
L 57.79625 27.532902 
" clip-path="url(#pcd7c32f7ed)" style="fill: none; stroke: #999999; stroke-opacity: 0.8; stroke-width: 0.3; stroke-linecap: square"/>
   </g>
   <g id="line2d_49">
    <path d="M 44.29625 31.818616 
L 57.79625 29.675759 
" clip-path="url(#pcd7c32f7ed)" style="fill: none; stroke: #999999; stroke-opacity: 0.8; stroke-width: 0.3; stroke-linecap: square"/>
   </g>
   <g id="line2d_50">
    <path d="M 44.29625 46.818616 
L 57.79625 27.532902 
" clip-path="url(#pcd7c32f7ed)" style="fill: none; stroke: #999999; stroke-opacity: 0.8; stroke-width: 0.3; stroke-linecap: square"/>
   </g>
   <g id="line2d_51">
    <path d="M 44.29625 21.10433 
L 57.79625 48.961473 
" clip-path="url(#pcd7c32f7ed)" style="fill: none; stroke: #999999; stroke-opacity: 0.8; stroke-width: 0.3; stroke-linecap: square"/>
   </g>
   <g id="line2d_52">
    <path d="M 44.29625 53.247187 
L 57.79625 55.390045 
" clip-path="url(#pcd7c32f7ed)" style="fill: none; stroke: #999999; stroke-opacity: 0.8; stroke-width: 0.3; stroke-linecap: square"/>
   </g>
   <g id="line2d_53">
    <path d="M 44.29625 23.247187 
L 57.79625 16.818616 
" clip-path="url(#pcd7c32f7ed)" style="fill: none; stroke: #999999; stroke-opacity: 0.8; stroke-width: 0.3; stroke-linecap: square"/>
   </g>
   <g id="line2d_54">
    <path d="M 44.29625 18.961473 
L 57.79625 16.818616 
" clip-path="url(#pcd7c32f7ed)" style="fill: none; stroke: #999999; stroke-opacity: 0.8; stroke-width: 0.3; stroke-linecap: square"/>
   </g>
   <g id="line2d_55">
    <path d="M 44.29625 74.675759 
L 57.79625 83.247188 
" clip-path="url(#pcd7c32f7ed)" style="fill: none; stroke: #999999; stroke-opacity: 0.8; stroke-width: 0.3; stroke-linecap: square"/>
   </g>
   <g id="line2d_56">
    <path d="M 44.29625 18.961473 
L 57.79625 36.10433 
" clip-path="url(#pcd7c32f7ed)" style="fill: none; stroke: #999999; stroke-opacity: 0.8; stroke-width: 0.3; stroke-linecap: square"/>
   </g>
   <g id="line2d_57">
    <path d="M 44.29625 40.390045 
L 57.79625 66.10433 
" clip-path="url(#pcd7c32f7ed)" style="fill: none; stroke: #999999; stroke-opacity: 0.8; stroke-width: 0.3; stroke-linecap: square"/>
   </g>
   <g id="patch_9">
    <path d="M 24.04625 83.247188 
L 24.04625 11.247187 
" style="fill: none; stroke: #000000; stroke-width: 0.5; stroke-linejoin: miter; stroke-linecap: square"/>
   </g>
   <g id="patch_10">
    <path d="M 24.04625 83.247188 
L 78.04625 83.247188 
" style="fill: none; stroke: #000000; stroke-width: 0.5; stroke-linejoin: miter; stroke-linecap: square"/>
   </g>
   <g id="PathCollection_1">
    <defs>
     <path id="m269398a935" d="M 0 1.936492 
C 0.513564 1.936492 1.006162 1.732451 1.369306 1.369306 
C 1.732451 1.006162 1.936492 0.513564 1.936492 0 
C 1.936492 -0.513564 1.732451 -1.006162 1.369306 -1.369306 
C 1.006162 -1.732451 0.513564 -1.936492 0 -1.936492 
C -0.513564 -1.936492 -1.006162 -1.732451 -1.369306 -1.369306 
C -1.732451 -1.006162 -1.936492 -0.513564 -1.936492 0 
C -1.936492 0.513564 -1.732451 1.006162 -1.369306 1.369306 
C -1.006162 1.732451 -0.513564 1.936492 0 1.936492 
z
"/>
    </defs>
    <g clip-path="url(#pcd7c32f7ed)">
     <use xlink:href="#m269398a935" x="44.29625" y="27.532902" style="fill: #20590b; fill-opacity: 0.2"/>
     <use xlink:href="#m269398a935" x="44.29625" y="46.818616" style="fill: #20590b; fill-opacity: 0.2"/>
     <use xlink:href="#m269398a935" x="44.29625" y="51.10433" style="fill: #20590b; fill-opacity: 0.2"/>
     <use xlink:href="#m269398a935" x="44.29625" y="76.818616" style="fill: #20590b; fill-opacity: 0.2"/>
     <use xlink:href="#m269398a935" x="44.29625" y="14.675759" style="fill: #20590b; fill-opacity: 0.2"/>
     <use xlink:href="#m269398a935" x="44.29625" y="51.10433" style="fill: #20590b; fill-opacity: 0.2"/>
     <use xlink:href="#m269398a935" x="44.29625" y="36.10433" style="fill: #20590b; fill-opacity: 0.2"/>
     <use xlink:href="#m269398a935" x="44.29625" y="72.532902" style="fill: #20590b; fill-opacity: 0.2"/>
     <use xlink:href="#m269398a935" x="44.29625" y="36.10433" style="fill: #20590b; fill-opacity: 0.2"/>
     <use xlink:href="#m269398a935" x="44.29625" y="31.818616" style="fill: #20590b; fill-opacity: 0.2"/>
     <use xlink:href="#m269398a935" x="44.29625" y="23.247187" style="fill: #20590b; fill-opacity: 0.2"/>
     <use xlink:href="#m269398a935" x="44.29625" y="31.818616" style="fill: #20590b; fill-opacity: 0.2"/>
     <use xlink:href="#m269398a935" x="44.29625" y="14.675759" style="fill: #20590b; fill-opacity: 0.2"/>
     <use xlink:href="#m269398a935" x="44.29625" y="14.675759" style="fill: #20590b; fill-opacity: 0.2"/>
     <use xlink:href="#m269398a935" x="44.29625" y="16.818616" style="fill: #20590b; fill-opacity: 0.2"/>
     <use xlink:href="#m269398a935" x="44.29625" y="31.818616" style="fill: #20590b; fill-opacity: 0.2"/>
     <use xlink:href="#m269398a935" x="44.29625" y="36.10433" style="fill: #20590b; fill-opacity: 0.2"/>
     <use xlink:href="#m269398a935" x="44.29625" y="16.818616" style="fill: #20590b; fill-opacity: 0.2"/>
     <use xlink:href="#m269398a935" x="44.29625" y="14.675759" style="fill: #20590b; fill-opacity: 0.2"/>
     <use xlink:href="#m269398a935" x="44.29625" y="14.675759" style="fill: #20590b; fill-opacity: 0.2"/>
     <use xlink:href="#m269398a935" x="44.29625" y="25.390045" style="fill: #20590b; fill-opacity: 0.2"/>
     <use xlink:href="#m269398a935" x="44.29625" y="61.818616" style="fill: #20590b; fill-opacity: 0.2"/>
     <use xlink:href="#m269398a935" x="44.29625" y="53.247187" style="fill: #20590b; fill-opacity: 0.2"/>
     <use xlink:href="#m269398a935" x="44.29625" y="14.675759" style="fill: #20590b; fill-opacity: 0.2"/>
     <use xlink:href="#m269398a935" x="44.29625" y="16.818616" style="fill: #20590b; fill-opacity: 0.2"/>
     <use xlink:href="#m269398a935" x="44.29625" y="33.961473" style="fill: #20590b; fill-opacity: 0.2"/>
     <use xlink:href="#m269398a935" x="44.29625" y="14.675759" style="fill: #20590b; fill-opacity: 0.2"/>
     <use xlink:href="#m269398a935" x="44.29625" y="38.247187" style="fill: #20590b; fill-opacity: 0.2"/>
     <use xlink:href="#m269398a935" x="44.29625" y="27.532902" style="fill: #20590b; fill-opacity: 0.2"/>
     <use xlink:href="#m269398a935" x="44.29625" y="61.818616" style="fill: #20590b; fill-opacity: 0.2"/>
     <use xlink:href="#m269398a935" x="44.29625" y="46.818616" style="fill: #20590b; fill-opacity: 0.2"/>
     <use xlink:href="#m269398a935" x="44.29625" y="31.818616" style="fill: #20590b; fill-opacity: 0.2"/>
     <use xlink:href="#m269398a935" x="44.29625" y="14.675759" style="fill: #20590b; fill-opacity: 0.2"/>
     <use xlink:href="#m269398a935" x="44.29625" y="16.818616" style="fill: #20590b; fill-opacity: 0.2"/>
     <use xlink:href="#m269398a935" x="44.29625" y="23.247187" style="fill: #20590b; fill-opacity: 0.2"/>
     <use xlink:href="#m269398a935" x="44.29625" y="25.390045" style="fill: #20590b; fill-opacity: 0.2"/>
     <use xlink:href="#m269398a935" x="44.29625" y="53.247187" style="fill: #20590b; fill-opacity: 0.2"/>
     <use xlink:href="#m269398a935" x="44.29625" y="23.247187" style="fill: #20590b; fill-opacity: 0.2"/>
     <use xlink:href="#m269398a935" x="44.29625" y="40.390045" style="fill: #20590b; fill-opacity: 0.2"/>
     <use xlink:href="#m269398a935" x="44.29625" y="14.675759" style="fill: #20590b; fill-opacity: 0.2"/>
     <use xlink:href="#m269398a935" x="44.29625" y="31.818616" style="fill: #20590b; fill-opacity: 0.2"/>
     <use xlink:href="#m269398a935" x="44.29625" y="46.818616" style="fill: #20590b; fill-opacity: 0.2"/>
     <use xlink:href="#m269398a935" x="44.29625" y="21.10433" style="fill: #20590b; fill-opacity: 0.2"/>
     <use xlink:href="#m269398a935" x="44.29625" y="53.247187" style="fill: #20590b; fill-opacity: 0.2"/>
     <use xlink:href="#m269398a935" x="44.29625" y="23.247187" style="fill: #20590b; fill-opacity: 0.2"/>
     <use xlink:href="#m269398a935" x="44.29625" y="18.961473" style="fill: #20590b; fill-opacity: 0.2"/>
     <use xlink:href="#m269398a935" x="44.29625" y="74.675759" style="fill: #20590b; fill-opacity: 0.2"/>
     <use xlink:href="#m269398a935" x="44.29625" y="18.961473" style="fill: #20590b; fill-opacity: 0.2"/>
     <use xlink:href="#m269398a935" x="44.29625" y="40.390045" style="fill: #20590b; fill-opacity: 0.2"/>
    </g>
   </g>
   <g id="PathCollection_2">
    <defs>
     <path id="me9293e40d4" d="M 0 1.936492 
C 0.513564 1.936492 1.006162 1.732451 1.369306 1.369306 
C 1.732451 1.006162 1.936492 0.513564 1.936492 0 
C 1.936492 -0.513564 1.732451 -1.006162 1.369306 -1.369306 
C 1.006162 -1.732451 0.513564 -1.936492 0 -1.936492 
C -0.513564 -1.936492 -1.006162 -1.732451 -1.369306 -1.369306 
C -1.732451 -1.006162 -1.936492 -0.513564 -1.936492 0 
C -1.936492 0.513564 -1.732451 1.006162 -1.369306 1.369306 
C -1.006162 1.732451 -0.513564 1.936492 0 1.936492 
z
"/>
    </defs>
    <g clip-path="url(#pcd7c32f7ed)">
     <use xlink:href="#me9293e40d4" x="57.79625" y="29.675759" style="fill: #9f3131; fill-opacity: 0.2"/>
     <use xlink:href="#me9293e40d4" x="57.79625" y="81.10433" style="fill: #9f3131; fill-opacity: 0.2"/>
     <use xlink:href="#me9293e40d4" x="57.79625" y="83.247188" style="fill: #9f3131; fill-opacity: 0.2"/>
     <use xlink:href="#me9293e40d4" x="57.79625" y="70.390045" style="fill: #9f3131; fill-opacity: 0.2"/>
     <use xlink:href="#me9293e40d4" x="57.79625" y="48.961473" style="fill: #9f3131; fill-opacity: 0.2"/>
     <use xlink:href="#me9293e40d4" x="57.79625" y="33.961473" style="fill: #9f3131; fill-opacity: 0.2"/>
     <use xlink:href="#me9293e40d4" x="57.79625" y="14.675759" style="fill: #9f3131; fill-opacity: 0.2"/>
     <use xlink:href="#me9293e40d4" x="57.79625" y="16.818616" style="fill: #9f3131; fill-opacity: 0.2"/>
     <use xlink:href="#me9293e40d4" x="57.79625" y="33.961473" style="fill: #9f3131; fill-opacity: 0.2"/>
     <use xlink:href="#me9293e40d4" x="57.79625" y="31.818616" style="fill: #9f3131; fill-opacity: 0.2"/>
     <use xlink:href="#me9293e40d4" x="57.79625" y="18.961473" style="fill: #9f3131; fill-opacity: 0.2"/>
     <use xlink:href="#me9293e40d4" x="57.79625" y="46.818616" style="fill: #9f3131; fill-opacity: 0.2"/>
     <use xlink:href="#me9293e40d4" x="57.79625" y="40.390045" style="fill: #9f3131; fill-opacity: 0.2"/>
     <use xlink:href="#me9293e40d4" x="57.79625" y="29.675759" style="fill: #9f3131; fill-opacity: 0.2"/>
     <use xlink:href="#me9293e40d4" x="57.79625" y="33.961473" style="fill: #9f3131; fill-opacity: 0.2"/>
     <use xlink:href="#me9293e40d4" x="57.79625" y="36.10433" style="fill: #9f3131; fill-opacity: 0.2"/>
     <use xlink:href="#me9293e40d4" x="57.79625" y="29.675759" style="fill: #9f3131; fill-opacity: 0.2"/>
     <use xlink:href="#me9293e40d4" x="57.79625" y="23.247187" style="fill: #9f3131; fill-opacity: 0.2"/>
     <use xlink:href="#me9293e40d4" x="57.79625" y="18.961473" style="fill: #9f3131; fill-opacity: 0.2"/>
     <use xlink:href="#me9293e40d4" x="57.79625" y="14.675759" style="fill: #9f3131; fill-opacity: 0.2"/>
     <use xlink:href="#me9293e40d4" x="57.79625" y="27.532902" style="fill: #9f3131; fill-opacity: 0.2"/>
     <use xlink:href="#me9293e40d4" x="57.79625" y="33.961473" style="fill: #9f3131; fill-opacity: 0.2"/>
     <use xlink:href="#me9293e40d4" x="57.79625" y="63.961473" style="fill: #9f3131; fill-opacity: 0.2"/>
     <use xlink:href="#me9293e40d4" x="57.79625" y="14.675759" style="fill: #9f3131; fill-opacity: 0.2"/>
     <use xlink:href="#me9293e40d4" x="57.79625" y="16.818616" style="fill: #9f3131; fill-opacity: 0.2"/>
     <use xlink:href="#me9293e40d4" x="57.79625" y="51.10433" style="fill: #9f3131; fill-opacity: 0.2"/>
     <use xlink:href="#me9293e40d4" x="57.79625" y="40.390045" style="fill: #9f3131; fill-opacity: 0.2"/>
     <use xlink:href="#me9293e40d4" x="57.79625" y="21.10433" style="fill: #9f3131; fill-opacity: 0.2"/>
     <use xlink:href="#me9293e40d4" x="57.79625" y="21.10433" style="fill: #9f3131; fill-opacity: 0.2"/>
     <use xlink:href="#me9293e40d4" x="57.79625" y="40.390045" style="fill: #9f3131; fill-opacity: 0.2"/>
     <use xlink:href="#me9293e40d4" x="57.79625" y="14.675759" style="fill: #9f3131; fill-opacity: 0.2"/>
     <use xlink:href="#me9293e40d4" x="57.79625" y="21.10433" style="fill: #9f3131; fill-opacity: 0.2"/>
     <use xlink:href="#me9293e40d4" x="57.79625" y="27.532902" style="fill: #9f3131; fill-opacity: 0.2"/>
     <use xlink:href="#me9293e40d4" x="57.79625" y="21.10433" style="fill: #9f3131; fill-opacity: 0.2"/>
     <use xlink:href="#me9293e40d4" x="57.79625" y="14.675759" style="fill: #9f3131; fill-opacity: 0.2"/>
     <use xlink:href="#me9293e40d4" x="57.79625" y="42.532902" style="fill: #9f3131; fill-opacity: 0.2"/>
     <use xlink:href="#me9293e40d4" x="57.79625" y="42.532902" style="fill: #9f3131; fill-opacity: 0.2"/>
     <use xlink:href="#me9293e40d4" x="57.79625" y="14.675759" style="fill: #9f3131; fill-opacity: 0.2"/>
     <use xlink:href="#me9293e40d4" x="57.79625" y="36.10433" style="fill: #9f3131; fill-opacity: 0.2"/>
     <use xlink:href="#me9293e40d4" x="57.79625" y="27.532902" style="fill: #9f3131; fill-opacity: 0.2"/>
     <use xlink:href="#me9293e40d4" x="57.79625" y="29.675759" style="fill: #9f3131; fill-opacity: 0.2"/>
     <use xlink:href="#me9293e40d4" x="57.79625" y="27.532902" style="fill: #9f3131; fill-opacity: 0.2"/>
     <use xlink:href="#me9293e40d4" x="57.79625" y="48.961473" style="fill: #9f3131; fill-opacity: 0.2"/>
     <use xlink:href="#me9293e40d4" x="57.79625" y="55.390045" style="fill: #9f3131; fill-opacity: 0.2"/>
     <use xlink:href="#me9293e40d4" x="57.79625" y="16.818616" style="fill: #9f3131; fill-opacity: 0.2"/>
     <use xlink:href="#me9293e40d4" x="57.79625" y="16.818616" style="fill: #9f3131; fill-opacity: 0.2"/>
     <use xlink:href="#me9293e40d4" x="57.79625" y="83.247188" style="fill: #9f3131; fill-opacity: 0.2"/>
     <use xlink:href="#me9293e40d4" x="57.79625" y="36.10433" style="fill: #9f3131; fill-opacity: 0.2"/>
     <use xlink:href="#me9293e40d4" x="57.79625" y="66.10433" style="fill: #9f3131; fill-opacity: 0.2"/>
    </g>
   </g>
   <g id="line2d_58">
    <path d="M 40.92125 33.218033 
L 29.67125 33.218033 
" clip-path="url(#pcd7c32f7ed)" style="fill: none; stroke: #000000; stroke-width: 0.85; stroke-linecap: square"/>
   </g>
   <g id="line2d_59">
    <path d="M 61.17125 34.923572 
L 72.42125 34.923572 
" clip-path="url(#pcd7c32f7ed)" style="fill: none; stroke: #000000; stroke-width: 0.85; stroke-linecap: square"/>
   </g>
   <g id="LineCollection_1">
    <path d="M 35.29625 35.715599 
L 35.29625 30.720467 
" clip-path="url(#pcd7c32f7ed)" style="fill: none; stroke: #000000; stroke-width: 0.85"/>
   </g>
   <g id="line2d_60">
    <defs>
     <path id="m95e51025d8" d="M 4 0 
L -4 -0 
" style="stroke: #000000; stroke-width: 0.85"/>
    </defs>
    <g clip-path="url(#pcd7c32f7ed)">
     <use xlink:href="#m95e51025d8" x="35.29625" y="35.715599" style="stroke: #000000; stroke-width: 0.85"/>
    </g>
   </g>
   <g id="line2d_61">
    <g clip-path="url(#pcd7c32f7ed)">
     <use xlink:href="#m95e51025d8" x="35.29625" y="30.720467" style="stroke: #000000; stroke-width: 0.85"/>
    </g>
   </g>
   <g id="LineCollection_2">
    <path d="M 66.79625 37.598177 
L 66.79625 32.248968 
" clip-path="url(#pcd7c32f7ed)" style="fill: none; stroke: #000000; stroke-width: 0.85"/>
   </g>
   <g id="line2d_62">
    <g clip-path="url(#pcd7c32f7ed)">
     <use xlink:href="#m95e51025d8" x="66.79625" y="37.598177" style="stroke: #000000; stroke-width: 0.85"/>
    </g>
   </g>
   <g id="line2d_63">
    <g clip-path="url(#pcd7c32f7ed)">
     <use xlink:href="#m95e51025d8" x="66.79625" y="32.248968" style="stroke: #000000; stroke-width: 0.85"/>
    </g>
   </g>
   <g id="line2d_64">
    <path d="M 40.92125 9.807187 
L 61.17125 9.807187 
" style="fill: none; stroke: #000000; stroke-width: 0.5; stroke-linecap: square"/>
   </g>
   <g id="text_8">
    <text style="font-size: 6px; font-family: 'Arial'; text-anchor: middle" x="51.04625" y="11.494687" transform="rotate(-0 51.04625 11.494687)">ns</text>
   </g>
  </g>
 </g>
 <defs>
  <clipPath id="pcd7c32f7ed">
   <rect x="24.04625" y="11.247187" width="54" height="72"/>
  </clipPath>
 </defs>
</svg>
