<?xml version="1.0" encoding="utf-8" standalone="no"?>
<!DOCTYPE svg PUBLIC "-//W3C//DTD SVG 1.1//EN"
  "http://www.w3.org/Graphics/SVG/1.1/DTD/svg11.dtd">
<svg xmlns:xlink="http://www.w3.org/1999/xlink" width="85.24625pt" height="103.0925pt" viewBox="0 0 85.24625 103.0925" xmlns="http://www.w3.org/2000/svg" version="1.1">
 <metadata>
  <rdf:RDF xmlns:dc="http://purl.org/dc/elements/1.1/" xmlns:cc="http://creativecommons.org/ns#" xmlns:rdf="http://www.w3.org/1999/02/22-rdf-syntax-ns#">
   <cc:Work>
    <dc:type rdf:resource="http://purl.org/dc/dcmitype/StillImage"/>
    <dc:date>2026-04-02T15:51:16.676517</dc:date>
    <dc:format>image/svg+xml</dc:format>
    <dc:creator>
     <cc:Agent>
      <dc:title>Matplotlib v3.10.8, https://matplotlib.org/</dc:title>
     </cc:Agent>
    </dc:creator>
   </cc:Work>
  </rdf:RDF>
 </metadata>
 <defs>
  <style type="text/css">*{stroke-linejoin: round; stroke-linecap: butt}</style>
 </defs>
 <g id="figure_1">
  <g id="patch_1">
   <path d="M 0 103.0925 
L 85.24625 103.0925 
L 85.24625 0 
L 0 0 
z
" style="fill: #ffffff"/>
  </g>
  <g id="axes_1">
   <g id="patch_2">
    <path d="M 24.04625 85.07625 
L 78.04625 85.07625 
L 78.04625 13.07625 
L 24.04625 13.07625 
z
" style="fill: #ffffff"/>
   </g>
   <g id="line2d_1">
    <path d="M 24.04625 49.51394 
L 78.04625 49.51394 
" clip-path="url(#pcd4b3137a0)" style="fill: none; stroke-dasharray: 2.516,1.088; stroke-dashoffset: 0; stroke: #808080; stroke-opacity: 0.5; stroke-width: 0.68"/>
   </g>
   <g id="patch_3">
    <path d="M 40.92125 44.589928 
L 36.27122 44.589928 
L 36.178629 44.441465 
L 36.08859 44.293002 
L 36.001201 44.14454 
L 35.916539 43.996077 
L 35.834667 43.847614 
L 35.755628 43.699152 
L 35.67945 43.550689 
L 35.606139 43.402226 
L 35.535687 43.253764 
L 35.468063 43.105301 
L 35.403224 42.956838 
L 35.341105 42.808376 
L 35.281628 42.659913 
L 35.224698 42.51145 
L 35.170204 42.362988 
L 35.118024 42.214525 
L 35.06802 42.066062 
L 35.020045 41.9176 
L 34.973941 41.769137 
L 34.929542 41.620674 
L 34.886674 41.472212 
L 34.845158 41.323749 
L 34.80481 41.175286 
L 34.765444 41.026824 
L 34.726874 40.878361 
L 34.688912 40.729898 
L 34.651376 40.581436 
L 34.614084 40.432973 
L 34.576862 40.28451 
L 34.539542 40.136047 
L 34.501961 39.987585 
L 34.463969 39.839122 
L 34.425425 39.690659 
L 34.386199 39.542197 
L 34.346172 39.393734 
L 34.30524 39.245271 
L 34.263311 39.096809 
L 34.220309 38.948346 
L 34.17617 38.799883 
L 34.130848 38.651421 
L 34.084308 38.502958 
L 34.036533 38.354495 
L 33.98752 38.206033 
L 33.937279 38.05757 
L 33.885837 37.909107 
L 33.833232 37.760645 
L 33.779516 37.612182 
L 33.724754 37.463719 
L 33.669021 37.315257 
L 33.612404 37.166794 
L 33.554999 37.018331 
L 33.496913 36.869869 
L 33.438257 36.721406 
L 33.379151 36.572943 
L 33.31972 36.424481 
L 33.260095 36.276018 
L 33.200408 36.127555 
L 33.140794 35.979092 
L 33.081388 35.83063 
L 33.022328 35.682167 
L 32.963746 35.533704 
L 32.905777 35.385242 
L 32.848547 35.236779 
L 32.792183 35.088316 
L 32.736802 34.939854 
L 32.682517 34.791391 
L 32.629435 34.642928 
L 32.577652 34.494466 
L 32.527258 34.346003 
L 32.478332 34.19754 
L 32.430945 34.049078 
L 32.385155 33.900615 
L 32.34101 33.752152 
L 32.298548 33.60369 
L 32.257794 33.455227 
L 32.218761 33.306764 
L 32.181452 33.158302 
L 32.145855 33.009839 
L 32.111947 32.861376 
L 32.079695 32.712914 
L 32.049051 32.564451 
L 32.019957 32.415988 
L 31.992344 32.267526 
L 31.96613 32.119063 
L 31.941226 31.9706 
L 31.917529 31.822137 
L 31.89493 31.673675 
L 31.873308 31.525212 
L 31.852538 31.376749 
L 31.832484 31.228287 
L 31.813004 31.079824 
L 31.793954 30.931361 
L 31.775182 30.782899 
L 31.756533 30.634436 
L 31.737851 30.485973 
L 31.718978 30.337511 
L 31.699755 30.189048 
L 31.680024 30.040585 
L 31.659631 29.892123 
L 31.638423 29.74366 
L 31.616252 29.595197 
L 31.592978 29.446735 
L 31.568465 29.298272 
L 31.542587 29.149809 
L 31.515225 29.001347 
L 31.486274 28.852884 
L 31.455637 28.704421 
L 31.423232 28.555959 
L 31.388989 28.407496 
L 31.352854 28.259033 
L 31.314786 28.110571 
L 31.274762 27.962108 
L 31.232776 27.813645 
L 31.188837 27.665183 
L 31.142974 27.51672 
L 31.095234 27.368257 
L 31.045681 27.219794 
L 30.994398 27.071332 
L 30.941487 26.922869 
L 30.887069 26.774406 
L 30.831283 26.625944 
L 30.774285 26.477481 
L 30.716248 26.329018 
L 30.657363 26.180556 
L 30.597838 26.032093 
L 30.537894 25.88363 
L 30.477767 25.735168 
L 30.417707 25.586705 
L 30.357975 25.438242 
L 30.298843 25.28978 
L 30.240594 25.141317 
L 30.183516 24.992854 
L 30.127906 24.844392 
L 30.074066 24.695929 
L 30.022299 24.547466 
L 29.972913 24.399004 
L 29.926213 24.250541 
L 29.882505 24.102078 
L 29.842091 23.953616 
L 29.805267 23.805153 
L 29.772325 23.65669 
L 29.743546 23.508228 
L 29.719204 23.359765 
L 29.699561 23.211302 
L 29.684866 23.062839 
L 29.675356 22.914377 
L 29.67125 22.765914 
L 29.672754 22.617451 
L 29.680054 22.468989 
L 29.69332 22.320526 
L 29.712702 22.172063 
L 29.73833 22.023601 
L 29.770314 21.875138 
L 29.808745 21.726675 
L 29.853689 21.578213 
L 29.905194 21.42975 
L 29.963284 21.281287 
L 30.027965 21.132825 
L 30.099217 20.984362 
L 30.177003 20.835899 
L 30.261263 20.687437 
L 30.351918 20.538974 
L 30.448868 20.390511 
L 30.551995 20.242049 
L 30.661163 20.093586 
L 30.776217 19.945123 
L 30.896987 19.796661 
L 31.023286 19.648198 
L 31.154914 19.499735 
L 31.291656 19.351273 
L 31.433285 19.20281 
L 31.579563 19.054347 
L 31.730241 18.905884 
L 31.885062 18.757422 
L 32.043761 18.608959 
L 32.206065 18.460496 
L 32.371697 18.312034 
L 32.540374 18.163571 
L 32.711812 18.015108 
L 32.885722 17.866646 
L 33.061817 17.718183 
L 33.239807 17.56972 
L 33.419404 17.421258 
L 33.600323 17.272795 
L 33.78228 17.124332 
L 33.964995 16.97587 
L 34.148193 16.827407 
L 34.331604 16.678944 
L 34.514963 16.530482 
L 34.698014 16.382019 
L 34.880504 16.233556 
L 35.062191 16.085094 
L 35.24284 15.936631 
L 35.422225 15.788168 
L 35.600129 15.639706 
L 35.776342 15.491243 
L 35.950668 15.34278 
L 36.122916 15.194318 
L 36.29291 15.045855 
L 40.92125 15.045855 
z
" clip-path="url(#pcd4b3137a0)" style="fill: #228b22; opacity: 0.2"/>
   </g>
   <g id="patch_4">
    <path d="M 61.17125 54.437952 
L 62.040895 54.437952 
L 62.066994 54.245501 
L 62.093407 54.053049 
L 62.120163 53.860597 
L 62.147292 53.668146 
L 62.17483 53.475694 
L 62.202817 53.283242 
L 62.231294 53.090791 
L 62.260307 52.898339 
L 62.289905 52.705888 
L 62.32014 52.513436 
L 62.351063 52.320984 
L 62.382732 52.128533 
L 62.415202 51.936081 
L 62.448532 51.743629 
L 62.482778 51.551178 
L 62.517999 51.358726 
L 62.554253 51.166275 
L 62.591595 50.973823 
L 62.630079 50.781371 
L 62.669759 50.58892 
L 62.710682 50.396468 
L 62.752896 50.204016 
L 62.796442 50.011565 
L 62.841358 49.819113 
L 62.887676 49.626662 
L 62.935425 49.43421 
L 62.984626 49.241758 
L 63.035295 49.049307 
L 63.08744 48.856855 
L 63.141066 48.664404 
L 63.196166 48.471952 
L 63.25273 48.2795 
L 63.310738 48.087049 
L 63.370163 47.894597 
L 63.43097 47.702145 
L 63.493119 47.509694 
L 63.55656 47.317242 
L 63.621234 47.124791 
L 63.687078 46.932339 
L 63.75402 46.739887 
L 63.821982 46.547436 
L 63.890876 46.354984 
L 63.960611 46.162532 
L 64.031089 45.970081 
L 64.102204 45.777629 
L 64.173848 45.585178 
L 64.245905 45.392726 
L 64.318255 45.200274 
L 64.390774 45.007823 
L 64.463335 44.815371 
L 64.535806 44.62292 
L 64.608054 44.430468 
L 64.679943 44.238016 
L 64.751334 44.045565 
L 64.822089 43.853113 
L 64.892067 43.660661 
L 64.96113 43.46821 
L 65.029139 43.275758 
L 65.095954 43.083307 
L 65.161441 42.890855 
L 65.225465 42.698403 
L 65.287895 42.505952 
L 65.348605 42.3135 
L 65.407471 42.121048 
L 65.464377 41.928597 
L 65.519209 41.736145 
L 65.571864 41.543694 
L 65.622241 41.351242 
L 65.670252 41.15879 
L 65.715814 40.966339 
L 65.758855 40.773887 
L 65.799313 40.581436 
L 65.837136 40.388984 
L 65.872286 40.196532 
L 65.904734 40.004081 
L 65.934466 39.811629 
L 65.961483 39.619177 
L 65.985797 39.426726 
L 66.007437 39.234274 
L 66.026448 39.041823 
L 66.04289 38.849371 
L 66.05684 38.656919 
L 66.068391 38.464468 
L 66.077654 38.272016 
L 66.084757 38.079564 
L 66.089845 37.887113 
L 66.093081 37.694661 
L 66.094644 37.50221 
L 66.094733 37.309758 
L 66.093559 37.117306 
L 66.091353 36.924855 
L 66.088359 36.732403 
L 66.084837 36.539951 
L 66.081061 36.3475 
L 66.077316 36.155048 
L 66.073899 35.962597 
L 66.071119 35.770145 
L 66.069291 35.577693 
L 66.068739 35.385242 
L 66.06979 35.19279 
L 66.072778 35.000339 
L 66.078035 34.807887 
L 66.085896 34.615435 
L 66.096689 34.422984 
L 66.110742 34.230532 
L 66.128372 34.03808 
L 66.149891 33.845629 
L 66.175595 33.653177 
L 66.20577 33.460726 
L 66.240685 33.268274 
L 66.28059 33.075822 
L 66.325716 32.883371 
L 66.37627 32.690919 
L 66.432438 32.498467 
L 66.494378 32.306016 
L 66.56222 32.113564 
L 66.636065 31.921113 
L 66.715986 31.728661 
L 66.80202 31.536209 
L 66.894175 31.343758 
L 66.992423 31.151306 
L 67.096706 30.958855 
L 67.206927 30.766403 
L 67.322957 30.573951 
L 67.444634 30.3815 
L 67.571759 30.189048 
L 67.704104 29.996596 
L 67.841404 29.804145 
L 67.983367 29.611693 
L 68.129668 29.419242 
L 68.279955 29.22679 
L 68.433848 29.034338 
L 68.590944 28.841887 
L 68.750814 28.649435 
L 68.913011 28.456983 
L 69.077067 28.264532 
L 69.242499 28.07208 
L 69.408809 27.879629 
L 69.575489 27.687177 
L 69.742019 27.494725 
L 69.907875 27.302274 
L 70.072529 27.109822 
L 70.235449 26.91737 
L 70.396105 26.724919 
L 70.553971 26.532467 
L 70.708525 26.340016 
L 70.859252 26.147564 
L 71.005647 25.955112 
L 71.147216 25.762661 
L 71.283479 25.570209 
L 71.41397 25.377758 
L 71.538239 25.185306 
L 71.655853 24.992854 
L 71.766401 24.800403 
L 71.869487 24.607951 
L 71.964741 24.415499 
L 72.051813 24.223048 
L 72.130374 24.030596 
L 72.200122 23.838145 
L 72.260776 23.645693 
L 72.312082 23.453241 
L 72.35381 23.26079 
L 72.385755 23.068338 
L 72.40774 22.875886 
L 72.419614 22.683435 
L 72.42125 22.490983 
L 72.412551 22.298532 
L 72.393446 22.10608 
L 72.363893 21.913628 
L 72.323874 21.721177 
L 72.273403 21.528725 
L 72.212521 21.336274 
L 72.141295 21.143822 
L 72.059823 20.95137 
L 71.968231 20.758919 
L 71.866672 20.566467 
L 71.755328 20.374015 
L 71.634409 20.181564 
L 71.504154 19.989112 
L 71.364828 19.796661 
L 71.216722 19.604209 
L 71.060156 19.411757 
L 70.895475 19.219306 
L 70.723046 19.026854 
L 70.543263 18.834402 
L 70.35654 18.641951 
L 70.163314 18.449499 
L 69.96404 18.257048 
L 69.759192 18.064596 
L 69.549258 17.872144 
L 69.334744 17.679693 
L 69.116163 17.487241 
L 68.894042 17.29479 
L 68.668912 17.102338 
L 68.441313 16.909886 
L 68.211783 16.717435 
L 67.980863 16.524983 
L 67.74909 16.332531 
L 67.516999 16.14008 
L 61.17125 16.14008 
z
" clip-path="url(#pcd4b3137a0)" style="fill: #cd5c5c; opacity: 0.2"/>
   </g>
   <g id="matplotlib.axis_1">
    <g id="xtick_1">
     <g id="line2d_2">
      <defs>
       <path id="mf221944f78" d="M 0 0 
L 0 -4 
" style="stroke: #000000; stroke-width: 0.5"/>
      </defs>
      <g>
       <use xlink:href="#mf221944f78" x="40.92125" y="85.07625" style="stroke: #000000; stroke-width: 0.5"/>
      </g>
     </g>
     <g id="text_1">
      <text style="font-size: 8px; font-family: 'Arial'; text-anchor: middle" x="40.92125" y="94.3025" transform="rotate(-0 40.92125 94.3025)">Gain</text>
     </g>
    </g>
    <g id="xtick_2">
     <g id="line2d_3">
      <g>
       <use xlink:href="#mf221944f78" x="61.17125" y="85.07625" style="stroke: #000000; stroke-width: 0.5"/>
      </g>
     </g>
     <g id="text_2">
      <text style="font-size: 8px; font-family: 'Arial'; text-anchor: middle" x="61.17125" y="94.3025" transform="rotate(-0 61.17125 94.3025)">Loss</text>
     </g>
    </g>
   </g>
   <g id="matplotlib.axis_2">
    <g id="ytick_1">
     <g id="line2d_4">
      <defs>
       <path id="mfebfa84cea" d="M 0 0 
L 4 0 
" style="stroke: #000000; stroke-width: 0.5"/>
      </defs>
      <g>
       <use xlink:href="#mfebfa84cea" x="24.04625" y="85.07625" style="stroke: #000000; stroke-width: 0.5"/>
      </g>
     </g>
     <g id="text_3">
      <text style="font-size: 8px; font-family: 'Arial'; text-anchor: end" x="20.54625" y="87.939375" transform="rotate(-0 20.54625 87.939375)">0</text>
     </g>
    </g>
    <g id="ytick_2">
     <g id="line2d_5">
      <g>
       <use xlink:href="#mfebfa84cea" x="24.04625" y="67.295095" style="stroke: #000000; stroke-width: 0.5"/>
      </g>
     </g>
     <g id="text_4">
      <text style="font-size: 8px; font-family: 'Arial'; text-anchor: end" x="20.54625" y="70.15822" transform="rotate(-0 20.54625 70.15822)">25</text>
     </g>
    </g>
    <g id="ytick_3">
     <g id="line2d_6">
      <g>
       <use xlink:href="#mfebfa84cea" x="24.04625" y="49.51394" style="stroke: #000000; stroke-width: 0.5"/>
      </g>
     </g>
     <g id="text_5">
      <text style="font-size: 8px; font-family: 'Arial'; text-anchor: end" x="20.54625" y="52.377065" transform="rotate(-0 20.54625 52.377065)">50</text>
     </g>
    </g>
    <g id="ytick_4">
     <g id="line2d_7">
      <g>
       <use xlink:href="#mfebfa84cea" x="24.04625" y="31.732785" style="stroke: #000000; stroke-width: 0.5"/>
      </g>
     </g>
     <g id="text_6">
      <text style="font-size: 8px; font-family: 'Arial'; text-anchor: end" x="20.54625" y="34.59591" transform="rotate(-0 20.54625 34.59591)">75</text>
     </g>
    </g>
    <g id="ytick_5">
     <g id="line2d_8">
      <g>
       <use xlink:href="#mfebfa84cea" x="24.04625" y="13.95163" style="stroke: #000000; stroke-width: 0.5"/>
      </g>
     </g>
     <g id="text_7">
      <text style="font-size: 8px; font-family: 'Arial'; text-anchor: end" x="20.54625" y="16.814755" transform="rotate(-0 20.54625 16.814755)">100</text>
     </g>
    </g>
   </g>
   <g id="patch_5">
    <path d="M 40.92125 31.612104 
L 31.885963 31.612104 
L 31.88234 31.587226 
L 31.878717 31.562349 
L 31.875094 31.537471 
L 31.871543 31.512594 
L 31.868063 31.487716 
L 31.864582 31.462839 
L 31.861102 31.437961 
L 31.857621 31.413084 
L 31.854141 31.388206 
L 31.850725 31.363329 
L 31.847365 31.338451 
L 31.844004 31.313574 
L 31.840644 31.288696 
L 31.837283 31.263819 
L 31.833923 31.238941 
L 31.830617 31.214064 
L 31.827353 31.189186 
L 31.824089 31.164309 
L 31.820825 31.139431 
L 31.817561 31.114554 
L 31.814297 31.089676 
L 31.811076 31.064799 
L 31.807884 31.039921 
L 31.804692 31.015044 
L 31.8015 30.990166 
L 31.798308 30.965289 
L 31.795115 30.940411 
L 31.791953 30.915534 
L 31.788807 30.890656 
L 31.785662 30.865779 
L 31.782516 30.840901 
L 31.77937 30.816024 
L 31.776225 30.791146 
L 31.773093 30.766269 
L 31.769968 30.741391 
L 31.766843 30.716514 
L 31.763718 30.691636 
L 31.760593 30.666759 
L 31.757469 30.641881 
L 31.75434 30.617004 
L 31.751209 30.592126 
L 31.748079 30.567249 
L 31.744948 30.542371 
L 31.741818 30.517494 
L 31.738687 30.492616 
L 31.735533 30.467739 
L 31.732371 30.442861 
L 31.729208 30.417984 
L 31.726046 30.393106 
L 31.722883 30.368229 
L 31.719721 30.343351 
L 31.716513 30.318474 
L 31.713292 30.293596 
L 31.710071 30.268719 
L 31.70685 30.243841 
L 31.703628 30.218964 
L 31.700407 30.194086 
L 31.697118 30.169209 
L 31.693812 30.144331 
L 31.690506 30.119454 
L 31.6872 30.094576 
L 31.683893 30.069699 
L 31.680587 30.044821 
L 31.677189 30.019944 
L 31.673772 29.995066 
L 31.670354 29.970189 
L 31.666937 29.945311 
L 31.66352 29.920434 
L 31.660102 29.895556 
L 31.656568 29.870679 
L 31.653014 29.845801 
L 31.64946 29.820924 
L 31.645906 29.796046 
L 31.642352 29.771169 
L 31.638799 29.746291 
L 31.635101 29.721414 
L 31.631386 29.696536 
L 31.627671 29.671659 
L 31.623956 29.646781 
L 31.620241 29.621903 
L 31.616526 29.597026 
L 31.612639 29.572148 
L 31.608739 29.547271 
L 31.604839 29.522393 
L 31.600939 29.497516 
L 31.597039 29.472638 
L 31.593139 29.447761 
L 31.58904 29.422883 
L 31.584932 29.398006 
L 31.580825 29.373128 
L 31.576717 29.348251 
L 31.57261 29.323373 
L 31.568502 29.298496 
L 31.564168 29.273618 
L 31.559831 29.248741 
L 31.555495 29.223863 
L 31.551159 29.198986 
L 31.546822 29.174108 
L 31.54248 29.149231 
L 31.537895 29.124353 
L 31.53331 29.099476 
L 31.528725 29.074598 
L 31.52414 29.049721 
L 31.519555 29.024843 
L 31.514956 28.999966 
L 31.510104 28.975088 
L 31.505253 28.950211 
L 31.500402 28.925333 
L 31.495551 28.900456 
L 31.490699 28.875578 
L 31.485823 28.850701 
L 31.480689 28.825823 
L 31.475556 28.800946 
L 31.470422 28.776068 
L 31.465288 28.751191 
L 31.460155 28.726313 
L 31.454985 28.701436 
L 31.449555 28.676558 
L 31.444125 28.651681 
L 31.438695 28.626803 
L 31.433265 28.601926 
L 31.427835 28.577048 
L 31.422358 28.552171 
L 31.41662 28.527293 
L 31.410882 28.502416 
L 31.405144 28.477538 
L 31.399406 28.452661 
L 31.393668 28.427783 
L 31.387872 28.402906 
L 31.381817 28.378028 
L 31.375762 28.353151 
L 31.369707 28.328273 
L 31.363651 28.303396 
L 31.357596 28.278518 
L 31.351471 28.253641 
L 31.345092 28.228763 
L 31.338713 28.203886 
L 31.332334 28.179008 
L 31.325955 28.154131 
L 31.319576 28.129253 
L 31.313116 28.104376 
L 31.306409 28.079498 
L 31.299703 28.054621 
L 31.292996 28.029743 
L 31.286289 28.004866 
L 31.279583 27.979988 
L 31.272784 27.955111 
L 31.265748 27.930233 
L 31.258712 27.905356 
L 31.251677 27.880478 
L 31.244641 27.855601 
L 31.237606 27.830723 
L 31.230468 27.805846 
L 31.223105 27.780968 
L 31.215742 27.756091 
L 31.20838 27.731213 
L 31.201017 27.706336 
L 31.193654 27.681458 
L 31.18618 27.656581 
L 31.178495 27.631703 
L 31.17081 27.606826 
L 31.163125 27.581948 
L 31.15544 27.557071 
L 31.147754 27.532193 
L 31.13995 27.507316 
L 31.131951 27.482438 
L 31.123951 27.457561 
L 31.115951 27.432683 
L 31.107951 27.407806 
L 31.099952 27.382928 
L 31.091827 27.358051 
L 31.083524 27.333173 
L 31.07522 27.308296 
L 31.066917 27.283418 
L 31.058613 27.258541 
L 31.05031 27.233663 
L 31.041878 27.208786 
L 31.033284 27.183908 
L 31.024691 27.159031 
L 31.016098 27.134153 
L 31.007504 27.109276 
L 30.998911 27.084398 
L 30.990188 27.059521 
L 30.981322 27.034643 
L 30.972456 27.009765 
L 30.96359 26.984888 
L 30.954724 26.96001 
L 30.945858 26.935133 
L 30.936864 26.910255 
L 30.927745 26.885378 
L 30.918626 26.8605 
L 30.909508 26.835623 
L 30.900389 26.810745 
L 30.891271 26.785868 
L 30.882028 26.76099 
L 30.87268 26.736113 
L 30.863332 26.711235 
L 30.853984 26.686358 
L 30.844636 26.66148 
L 40.92125 26.66148 
z
" clip-path="url(#pcd4b3137a0)" style="fill: #228b22; opacity: 0.4"/>
   </g>
   <g id="patch_6">
    <path d="M 29.67125 31.612104 
L 40.92125 31.612104 
L 40.92125 26.66148 
L 29.67125 26.66148 
L 29.67125 31.612104 
z
" style="fill: none; stroke: #228b22; stroke-width: 0.85; stroke-linejoin: miter"/>
   </g>
   <g id="patch_7">
    <path d="M 61.17125 31.342127 
L 66.895007 31.342127 
L 66.90929 31.314149 
L 66.923574 31.28617 
L 66.937857 31.258192 
L 66.95214 31.230213 
L 66.966424 31.202235 
L 66.980707 31.174257 
L 66.995148 31.146278 
L 67.010308 31.1183 
L 67.025469 31.090321 
L 67.040629 31.062343 
L 67.05579 31.034365 
L 67.07095 31.006386 
L 67.086111 30.978408 
L 67.101531 30.950429 
L 67.117555 30.922451 
L 67.133579 30.894473 
L 67.149602 30.866494 
L 67.165626 30.838516 
L 67.18165 30.810537 
L 67.197674 30.782559 
L 67.214055 30.754581 
L 67.230923 30.726602 
L 67.247791 30.698624 
L 67.26466 30.670645 
L 67.281528 30.642667 
L 67.298396 30.614689 
L 67.315265 30.58671 
L 67.33258 30.558732 
L 67.350269 30.530753 
L 67.367958 30.502775 
L 67.385647 30.474797 
L 67.403336 30.446818 
L 67.421026 30.41884 
L 67.438715 30.390862 
L 67.456931 30.362883 
L 67.475413 30.334905 
L 67.493894 30.306926 
L 67.512375 30.278948 
L 67.530857 30.25097 
L 67.549338 30.222991 
L 67.567819 30.195013 
L 67.586898 30.167034 
L 67.606138 30.139056 
L 67.625378 30.111078 
L 67.644618 30.083099 
L 67.663858 30.055121 
L 67.683098 30.027142 
L 67.702338 29.999164 
L 67.722233 29.971186 
L 67.742193 29.943207 
L 67.762154 29.915229 
L 67.782114 29.88725 
L 67.802075 29.859272 
L 67.822036 29.831294 
L 67.842016 29.803315 
L 67.862655 29.775337 
L 67.883293 29.747358 
L 67.903931 29.71938 
L 67.92457 29.691402 
L 67.945208 29.663423 
L 67.965846 29.635445 
L 67.98658 29.607466 
L 68.007849 29.579488 
L 68.029118 29.55151 
L 68.050387 29.523531 
L 68.071656 29.495553 
L 68.092925 29.467574 
L 68.114195 29.439596 
L 68.135621 29.411618 
L 68.15747 29.383639 
L 68.179319 29.355661 
L 68.201167 29.327682 
L 68.223016 29.299704 
L 68.244864 29.271726 
L 68.266713 29.243747 
L 68.288768 29.215769 
L 68.311141 29.18779 
L 68.333513 29.159812 
L 68.355886 29.131834 
L 68.378259 29.103855 
L 68.400632 29.075877 
L 68.423005 29.047898 
L 68.445618 29.01992 
L 68.468456 28.991942 
L 68.491294 28.963963 
L 68.514133 28.935985 
L 68.536971 28.908007 
L 68.55981 28.880028 
L 68.582648 28.85205 
L 68.605743 28.824071 
L 68.628985 28.796093 
L 68.652227 28.768115 
L 68.675469 28.740136 
L 68.69871 28.712158 
L 68.721952 28.684179 
L 68.745194 28.656201 
L 68.768692 28.628223 
L 68.792272 28.600244 
L 68.815852 28.572266 
L 68.839432 28.544287 
L 68.863012 28.516309 
L 68.886592 28.488331 
L 68.910172 28.460352 
L 68.93399 28.432374 
L 68.95784 28.404395 
L 68.98169 28.376417 
L 69.005541 28.348439 
L 69.029391 28.32046 
L 69.053241 28.292482 
L 69.077092 28.264503 
L 69.101142 28.236525 
L 69.125192 28.208547 
L 69.149243 28.180568 
L 69.173293 28.15259 
L 69.197343 28.124611 
L 69.221394 28.096633 
L 69.245459 28.068655 
L 69.269637 28.040676 
L 69.293815 28.012698 
L 69.317993 27.984719 
L 69.342171 27.956741 
L 69.366349 27.928763 
L 69.390527 27.900784 
L 69.414718 27.872806 
L 69.43895 27.844827 
L 69.463182 27.816849 
L 69.487413 27.788871 
L 69.511645 27.760892 
L 69.535877 27.732914 
L 69.560108 27.704935 
L 69.584332 27.676957 
L 69.608542 27.648979 
L 69.632752 27.621 
L 69.656962 27.593022 
L 69.681172 27.565043 
L 69.705382 27.537065 
L 69.729592 27.509087 
L 69.753754 27.481108 
L 69.777866 27.45313 
L 69.801978 27.425152 
L 69.82609 27.397173 
L 69.850202 27.369195 
L 69.874314 27.341216 
L 69.898426 27.313238 
L 69.922432 27.28526 
L 69.946369 27.257281 
L 69.970306 27.229303 
L 69.994243 27.201324 
L 70.01818 27.173346 
L 70.042117 27.145368 
L 70.066055 27.117389 
L 70.089808 27.089411 
L 70.113493 27.061432 
L 70.137178 27.033454 
L 70.160863 27.005476 
L 70.184548 26.977497 
L 70.208233 26.949519 
L 70.231919 26.92154 
L 70.255324 26.893562 
L 70.27868 26.865584 
L 70.302036 26.837605 
L 70.325392 26.809627 
L 70.348748 26.781648 
L 70.372104 26.75367 
L 70.39546 26.725692 
L 70.418422 26.697713 
L 70.441372 26.669735 
L 70.464322 26.641756 
L 70.487273 26.613778 
L 70.510223 26.5858 
L 70.533174 26.557821 
L 70.556079 26.529843 
L 70.578548 26.501864 
L 70.601016 26.473886 
L 70.623485 26.445908 
L 70.645954 26.417929 
L 70.668423 26.389951 
L 70.690892 26.361972 
L 70.713241 26.333994 
L 70.735153 26.306016 
L 70.757066 26.278037 
L 70.778978 26.250059 
L 70.800891 26.22208 
L 70.822803 26.194102 
L 70.844716 26.166124 
L 70.866416 26.138145 
L 70.887699 26.110167 
L 70.908982 26.082188 
L 70.930265 26.05421 
L 70.951547 26.026232 
L 70.97283 25.998253 
L 70.994113 25.970275 
L 71.015074 25.942296 
L 71.035655 25.914318 
L 71.056237 25.88634 
L 71.076818 25.858361 
L 71.097399 25.830383 
L 71.11798 25.802405 
L 71.138562 25.774426 
L 61.17125 25.774426 
z
" clip-path="url(#pcd4b3137a0)" style="fill: #cd5c5c; opacity: 0.4"/>
   </g>
   <g id="patch_8">
    <path d="M 61.17125 31.342127 
L 72.42125 31.342127 
L 72.42125 25.774426 
L 61.17125 25.774426 
L 61.17125 31.342127 
z
" style="fill: none; stroke: #cd5c5c; stroke-width: 0.85; stroke-linejoin: miter"/>
   </g>
   <g id="line2d_9">
    <path d="M 44.29625 20.516979 
L 57.79625 22.705429 
" clip-path="url(#pcd4b3137a0)" style="fill: none; stroke: #999999; stroke-opacity: 0.8; stroke-width: 0.3; stroke-linecap: square"/>
   </g>
   <g id="line2d_10">
    <path d="M 44.29625 43.495703 
L 57.79625 36.930353 
" clip-path="url(#pcd4b3137a0)" style="fill: none; stroke: #999999; stroke-opacity: 0.8; stroke-width: 0.3; stroke-linecap: square"/>
   </g>
   <g id="line2d_11">
    <path d="M 44.29625 22.705429 
L 57.79625 38.024578 
" clip-path="url(#pcd4b3137a0)" style="fill: none; stroke: #999999; stroke-opacity: 0.8; stroke-width: 0.3; stroke-linecap: square"/>
   </g>
   <g id="line2d_12">
    <path d="M 44.29625 23.799654 
L 57.79625 19.422755 
" clip-path="url(#pcd4b3137a0)" style="fill: none; stroke: #999999; stroke-opacity: 0.8; stroke-width: 0.3; stroke-linecap: square"/>
   </g>
   <g id="line2d_13">
    <path d="M 44.29625 15.045855 
L 57.79625 27.082329 
" clip-path="url(#pcd4b3137a0)" style="fill: none; stroke: #999999; stroke-opacity: 0.8; stroke-width: 0.3; stroke-linecap: square"/>
   </g>
   <g id="line2d_14">
    <path d="M 44.29625 34.741903 
L 57.79625 50.061052 
" clip-path="url(#pcd4b3137a0)" style="fill: none; stroke: #999999; stroke-opacity: 0.8; stroke-width: 0.3; stroke-linecap: square"/>
   </g>
   <g id="line2d_15">
    <path d="M 44.29625 21.611204 
L 57.79625 21.611204 
" clip-path="url(#pcd4b3137a0)" style="fill: none; stroke: #999999; stroke-opacity: 0.8; stroke-width: 0.3; stroke-linecap: square"/>
   </g>
   <g id="line2d_16">
    <path d="M 44.29625 29.270779 
L 57.79625 24.893879 
" clip-path="url(#pcd4b3137a0)" style="fill: none; stroke: #999999; stroke-opacity: 0.8; stroke-width: 0.3; stroke-linecap: square"/>
   </g>
   <g id="line2d_17">
    <path d="M 44.29625 32.553454 
L 57.79625 38.024578 
" clip-path="url(#pcd4b3137a0)" style="fill: none; stroke: #999999; stroke-opacity: 0.8; stroke-width: 0.3; stroke-linecap: square"/>
   </g>
   <g id="line2d_18">
    <path d="M 44.29625 24.893879 
L 57.79625 23.799654 
" clip-path="url(#pcd4b3137a0)" style="fill: none; stroke: #999999; stroke-opacity: 0.8; stroke-width: 0.3; stroke-linecap: square"/>
   </g>
   <g id="line2d_19">
    <path d="M 44.29625 19.422755 
L 57.79625 23.799654 
" clip-path="url(#pcd4b3137a0)" style="fill: none; stroke: #999999; stroke-opacity: 0.8; stroke-width: 0.3; stroke-linecap: square"/>
   </g>
   <g id="line2d_20">
    <path d="M 44.29625 20.516979 
L 57.79625 44.589928 
" clip-path="url(#pcd4b3137a0)" style="fill: none; stroke: #999999; stroke-opacity: 0.8; stroke-width: 0.3; stroke-linecap: square"/>
   </g>
   <g id="line2d_21">
    <path d="M 44.29625 28.176554 
L 57.79625 17.234305 
" clip-path="url(#pcd4b3137a0)" style="fill: none; stroke: #999999; stroke-opacity: 0.8; stroke-width: 0.3; stroke-linecap: square"/>
   </g>
   <g id="line2d_22">
    <path d="M 44.29625 31.459229 
L 57.79625 30.365004 
" clip-path="url(#pcd4b3137a0)" style="fill: none; stroke: #999999; stroke-opacity: 0.8; stroke-width: 0.3; stroke-linecap: square"/>
   </g>
   <g id="line2d_23">
    <path d="M 44.29625 35.836128 
L 57.79625 27.082329 
" clip-path="url(#pcd4b3137a0)" style="fill: none; stroke: #999999; stroke-opacity: 0.8; stroke-width: 0.3; stroke-linecap: square"/>
   </g>
   <g id="line2d_24">
    <path d="M 44.29625 21.611204 
L 57.79625 24.893879 
" clip-path="url(#pcd4b3137a0)" style="fill: none; stroke: #999999; stroke-opacity: 0.8; stroke-width: 0.3; stroke-linecap: square"/>
   </g>
   <g id="line2d_25">
    <path d="M 44.29625 43.495703 
L 57.79625 20.516979 
" clip-path="url(#pcd4b3137a0)" style="fill: none; stroke: #999999; stroke-opacity: 0.8; stroke-width: 0.3; stroke-linecap: square"/>
   </g>
   <g id="line2d_26">
    <path d="M 44.29625 23.799654 
L 57.79625 29.270779 
" clip-path="url(#pcd4b3137a0)" style="fill: none; stroke: #999999; stroke-opacity: 0.8; stroke-width: 0.3; stroke-linecap: square"/>
   </g>
   <g id="line2d_27">
    <path d="M 44.29625 32.553454 
L 57.79625 25.988104 
" clip-path="url(#pcd4b3137a0)" style="fill: none; stroke: #999999; stroke-opacity: 0.8; stroke-width: 0.3; stroke-linecap: square"/>
   </g>
   <g id="line2d_28">
    <path d="M 44.29625 24.893879 
L 57.79625 24.893879 
" clip-path="url(#pcd4b3137a0)" style="fill: none; stroke: #999999; stroke-opacity: 0.8; stroke-width: 0.3; stroke-linecap: square"/>
   </g>
   <g id="line2d_29">
    <path d="M 44.29625 42.401478 
L 57.79625 42.401478 
" clip-path="url(#pcd4b3137a0)" style="fill: none; stroke: #999999; stroke-opacity: 0.8; stroke-width: 0.3; stroke-linecap: square"/>
   </g>
   <g id="line2d_30">
    <path d="M 44.29625 41.307253 
L 57.79625 32.553454 
" clip-path="url(#pcd4b3137a0)" style="fill: none; stroke: #999999; stroke-opacity: 0.8; stroke-width: 0.3; stroke-linecap: square"/>
   </g>
   <g id="line2d_31">
    <path d="M 44.29625 42.401478 
L 57.79625 43.495703 
" clip-path="url(#pcd4b3137a0)" style="fill: none; stroke: #999999; stroke-opacity: 0.8; stroke-width: 0.3; stroke-linecap: square"/>
   </g>
   <g id="line2d_32">
    <path d="M 44.29625 31.459229 
L 57.79625 18.32853 
" clip-path="url(#pcd4b3137a0)" style="fill: none; stroke: #999999; stroke-opacity: 0.8; stroke-width: 0.3; stroke-linecap: square"/>
   </g>
   <g id="line2d_33">
    <path d="M 44.29625 21.611204 
L 57.79625 27.082329 
" clip-path="url(#pcd4b3137a0)" style="fill: none; stroke: #999999; stroke-opacity: 0.8; stroke-width: 0.3; stroke-linecap: square"/>
   </g>
   <g id="line2d_34">
    <path d="M 44.29625 44.589928 
L 57.79625 40.213028 
" clip-path="url(#pcd4b3137a0)" style="fill: none; stroke: #999999; stroke-opacity: 0.8; stroke-width: 0.3; stroke-linecap: square"/>
   </g>
   <g id="line2d_35">
    <path d="M 44.29625 21.611204 
L 57.79625 45.684153 
" clip-path="url(#pcd4b3137a0)" style="fill: none; stroke: #999999; stroke-opacity: 0.8; stroke-width: 0.3; stroke-linecap: square"/>
   </g>
   <g id="line2d_36">
    <path d="M 44.29625 29.270779 
L 57.79625 20.619563 
" clip-path="url(#pcd4b3137a0)" style="fill: none; stroke: #999999; stroke-opacity: 0.8; stroke-width: 0.3; stroke-linecap: square"/>
   </g>
   <g id="line2d_37">
    <path d="M 44.29625 19.422755 
L 57.79625 21.611204 
" clip-path="url(#pcd4b3137a0)" style="fill: none; stroke: #999999; stroke-opacity: 0.8; stroke-width: 0.3; stroke-linecap: square"/>
   </g>
   <g id="line2d_38">
    <path d="M 44.29625 32.553454 
L 57.79625 54.437952 
" clip-path="url(#pcd4b3137a0)" style="fill: none; stroke: #999999; stroke-opacity: 0.8; stroke-width: 0.3; stroke-linecap: square"/>
   </g>
   <g id="line2d_39">
    <path d="M 44.29625 34.741903 
L 57.79625 24.893879 
" clip-path="url(#pcd4b3137a0)" style="fill: none; stroke: #999999; stroke-opacity: 0.8; stroke-width: 0.3; stroke-linecap: square"/>
   </g>
   <g id="line2d_40">
    <path d="M 44.29625 43.495703 
L 57.79625 24.893879 
" clip-path="url(#pcd4b3137a0)" style="fill: none; stroke: #999999; stroke-opacity: 0.8; stroke-width: 0.3; stroke-linecap: square"/>
   </g>
   <g id="line2d_41">
    <path d="M 44.29625 16.14008 
L 57.79625 18.32853 
" clip-path="url(#pcd4b3137a0)" style="fill: none; stroke: #999999; stroke-opacity: 0.8; stroke-width: 0.3; stroke-linecap: square"/>
   </g>
   <g id="line2d_42">
    <path d="M 44.29625 22.705429 
L 57.79625 24.893879 
" clip-path="url(#pcd4b3137a0)" style="fill: none; stroke: #999999; stroke-opacity: 0.8; stroke-width: 0.3; stroke-linecap: square"/>
   </g>
   <g id="line2d_43">
    <path d="M 44.29625 27.082329 
L 57.79625 18.32853 
" clip-path="url(#pcd4b3137a0)" style="fill: none; stroke: #999999; stroke-opacity: 0.8; stroke-width: 0.3; stroke-linecap: square"/>
   </g>
   <g id="line2d_44">
    <path d="M 44.29625 24.893879 
L 57.79625 35.836128 
" clip-path="url(#pcd4b3137a0)" style="fill: none; stroke: #999999; stroke-opacity: 0.8; stroke-width: 0.3; stroke-linecap: square"/>
   </g>
   <g id="line2d_45">
    <path d="M 44.29625 43.495703 
L 57.79625 25.988104 
" clip-path="url(#pcd4b3137a0)" style="fill: none; stroke: #999999; stroke-opacity: 0.8; stroke-width: 0.3; stroke-linecap: square"/>
   </g>
   <g id="line2d_46">
    <path d="M 44.29625 32.553454 
L 57.79625 19.422755 
" clip-path="url(#pcd4b3137a0)" style="fill: none; stroke: #999999; stroke-opacity: 0.8; stroke-width: 0.3; stroke-linecap: square"/>
   </g>
   <g id="line2d_47">
    <path d="M 44.29625 36.930353 
L 57.79625 40.213028 
" clip-path="url(#pcd4b3137a0)" style="fill: none; stroke: #999999; stroke-opacity: 0.8; stroke-width: 0.3; stroke-linecap: square"/>
   </g>
   <g id="line2d_48">
    <path d="M 44.29625 18.32853 
L 57.79625 19.422755 
" clip-path="url(#pcd4b3137a0)" style="fill: none; stroke: #999999; stroke-opacity: 0.8; stroke-width: 0.3; stroke-linecap: square"/>
   </g>
   <g id="line2d_49">
    <path d="M 44.29625 36.930353 
L 57.79625 20.516979 
" clip-path="url(#pcd4b3137a0)" style="fill: none; stroke: #999999; stroke-opacity: 0.8; stroke-width: 0.3; stroke-linecap: square"/>
   </g>
   <g id="line2d_50">
    <path d="M 44.29625 21.611204 
L 57.79625 23.799654 
" clip-path="url(#pcd4b3137a0)" style="fill: none; stroke: #999999; stroke-opacity: 0.8; stroke-width: 0.3; stroke-linecap: square"/>
   </g>
   <g id="line2d_51">
    <path d="M 44.29625 28.176554 
L 57.79625 35.836128 
" clip-path="url(#pcd4b3137a0)" style="fill: none; stroke: #999999; stroke-opacity: 0.8; stroke-width: 0.3; stroke-linecap: square"/>
   </g>
   <g id="line2d_52">
    <path d="M 44.29625 36.930353 
L 57.79625 19.422755 
" clip-path="url(#pcd4b3137a0)" style="fill: none; stroke: #999999; stroke-opacity: 0.8; stroke-width: 0.3; stroke-linecap: square"/>
   </g>
   <g id="line2d_53">
    <path d="M 44.29625 36.930353 
L 57.79625 20.516979 
" clip-path="url(#pcd4b3137a0)" style="fill: none; stroke: #999999; stroke-opacity: 0.8; stroke-width: 0.3; stroke-linecap: square"/>
   </g>
   <g id="line2d_54">
    <path d="M 44.29625 18.32853 
L 57.79625 34.741903 
" clip-path="url(#pcd4b3137a0)" style="fill: none; stroke: #999999; stroke-opacity: 0.8; stroke-width: 0.3; stroke-linecap: square"/>
   </g>
   <g id="line2d_55">
    <path d="M 44.29625 17.234305 
L 57.79625 16.14008 
" clip-path="url(#pcd4b3137a0)" style="fill: none; stroke: #999999; stroke-opacity: 0.8; stroke-width: 0.3; stroke-linecap: square"/>
   </g>
   <g id="line2d_56">
    <path d="M 44.29625 23.799654 
L 57.79625 18.32853 
" clip-path="url(#pcd4b3137a0)" style="fill: none; stroke: #999999; stroke-opacity: 0.8; stroke-width: 0.3; stroke-linecap: square"/>
   </g>
   <g id="line2d_57">
    <path d="M 44.29625 30.365004 
L 57.79625 40.213028 
" clip-path="url(#pcd4b3137a0)" style="fill: none; stroke: #999999; stroke-opacity: 0.8; stroke-width: 0.3; stroke-linecap: square"/>
   </g>
   <g id="patch_9">
    <path d="M 24.04625 85.07625 
L 24.04625 13.07625 
" style="fill: none; stroke: #000000; stroke-width: 0.5; stroke-linejoin: miter; stroke-linecap: square"/>
   </g>
   <g id="patch_10">
    <path d="M 24.04625 85.07625 
L 78.04625 85.07625 
" style="fill: none; stroke: #000000; stroke-width: 0.5; stroke-linejoin: miter; stroke-linecap: square"/>
   </g>
   <g id="PathCollection_1">
    <defs>
     <path id="m9efee86e67" d="M 0 1.936492 
C 0.513564 1.936492 1.006162 1.732451 1.369306 1.369306 
C 1.732451 1.006162 1.936492 0.513564 1.936492 0 
C 1.936492 -0.513564 1.732451 -1.006162 1.369306 -1.369306 
C 1.006162 -1.732451 0.513564 -1.936492 0 -1.936492 
C -0.513564 -1.936492 -1.006162 -1.732451 -1.369306 -1.369306 
C -1.732451 -1.006162 -1.936492 -0.513564 -1.936492 0 
C -1.936492 0.513564 -1.732451 1.006162 -1.369306 1.369306 
C -1.006162 1.732451 -0.513564 1.936492 0 1.936492 
z
"/>
    </defs>
    <g clip-path="url(#pcd4b3137a0)">
     <use xlink:href="#m9efee86e67" x="44.29625" y="20.516979" style="fill: #228b22; fill-opacity: 0.2"/>
     <use xlink:href="#m9efee86e67" x="44.29625" y="43.495703" style="fill: #228b22; fill-opacity: 0.2"/>
     <use xlink:href="#m9efee86e67" x="44.29625" y="22.705429" style="fill: #228b22; fill-opacity: 0.2"/>
     <use xlink:href="#m9efee86e67" x="44.29625" y="23.799654" style="fill: #228b22; fill-opacity: 0.2"/>
     <use xlink:href="#m9efee86e67" x="44.29625" y="15.045855" style="fill: #228b22; fill-opacity: 0.2"/>
     <use xlink:href="#m9efee86e67" x="44.29625" y="34.741903" style="fill: #228b22; fill-opacity: 0.2"/>
     <use xlink:href="#m9efee86e67" x="44.29625" y="21.611204" style="fill: #228b22; fill-opacity: 0.2"/>
     <use xlink:href="#m9efee86e67" x="44.29625" y="29.270779" style="fill: #228b22; fill-opacity: 0.2"/>
     <use xlink:href="#m9efee86e67" x="44.29625" y="32.553454" style="fill: #228b22; fill-opacity: 0.2"/>
     <use xlink:href="#m9efee86e67" x="44.29625" y="24.893879" style="fill: #228b22; fill-opacity: 0.2"/>
     <use xlink:href="#m9efee86e67" x="44.29625" y="19.422755" style="fill: #228b22; fill-opacity: 0.2"/>
     <use xlink:href="#m9efee86e67" x="44.29625" y="20.516979" style="fill: #228b22; fill-opacity: 0.2"/>
     <use xlink:href="#m9efee86e67" x="44.29625" y="28.176554" style="fill: #228b22; fill-opacity: 0.2"/>
     <use xlink:href="#m9efee86e67" x="44.29625" y="31.459229" style="fill: #228b22; fill-opacity: 0.2"/>
     <use xlink:href="#m9efee86e67" x="44.29625" y="35.836128" style="fill: #228b22; fill-opacity: 0.2"/>
     <use xlink:href="#m9efee86e67" x="44.29625" y="21.611204" style="fill: #228b22; fill-opacity: 0.2"/>
     <use xlink:href="#m9efee86e67" x="44.29625" y="43.495703" style="fill: #228b22; fill-opacity: 0.2"/>
     <use xlink:href="#m9efee86e67" x="44.29625" y="23.799654" style="fill: #228b22; fill-opacity: 0.2"/>
     <use xlink:href="#m9efee86e67" x="44.29625" y="32.553454" style="fill: #228b22; fill-opacity: 0.2"/>
     <use xlink:href="#m9efee86e67" x="44.29625" y="24.893879" style="fill: #228b22; fill-opacity: 0.2"/>
     <use xlink:href="#m9efee86e67" x="44.29625" y="42.401478" style="fill: #228b22; fill-opacity: 0.2"/>
     <use xlink:href="#m9efee86e67" x="44.29625" y="41.307253" style="fill: #228b22; fill-opacity: 0.2"/>
     <use xlink:href="#m9efee86e67" x="44.29625" y="42.401478" style="fill: #228b22; fill-opacity: 0.2"/>
     <use xlink:href="#m9efee86e67" x="44.29625" y="31.459229" style="fill: #228b22; fill-opacity: 0.2"/>
     <use xlink:href="#m9efee86e67" x="44.29625" y="21.611204" style="fill: #228b22; fill-opacity: 0.2"/>
     <use xlink:href="#m9efee86e67" x="44.29625" y="44.589928" style="fill: #228b22; fill-opacity: 0.2"/>
     <use xlink:href="#m9efee86e67" x="44.29625" y="21.611204" style="fill: #228b22; fill-opacity: 0.2"/>
     <use xlink:href="#m9efee86e67" x="44.29625" y="29.270779" style="fill: #228b22; fill-opacity: 0.2"/>
     <use xlink:href="#m9efee86e67" x="44.29625" y="19.422755" style="fill: #228b22; fill-opacity: 0.2"/>
     <use xlink:href="#m9efee86e67" x="44.29625" y="32.553454" style="fill: #228b22; fill-opacity: 0.2"/>
     <use xlink:href="#m9efee86e67" x="44.29625" y="34.741903" style="fill: #228b22; fill-opacity: 0.2"/>
     <use xlink:href="#m9efee86e67" x="44.29625" y="43.495703" style="fill: #228b22; fill-opacity: 0.2"/>
     <use xlink:href="#m9efee86e67" x="44.29625" y="16.14008" style="fill: #228b22; fill-opacity: 0.2"/>
     <use xlink:href="#m9efee86e67" x="44.29625" y="22.705429" style="fill: #228b22; fill-opacity: 0.2"/>
     <use xlink:href="#m9efee86e67" x="44.29625" y="27.082329" style="fill: #228b22; fill-opacity: 0.2"/>
     <use xlink:href="#m9efee86e67" x="44.29625" y="24.893879" style="fill: #228b22; fill-opacity: 0.2"/>
     <use xlink:href="#m9efee86e67" x="44.29625" y="43.495703" style="fill: #228b22; fill-opacity: 0.2"/>
     <use xlink:href="#m9efee86e67" x="44.29625" y="32.553454" style="fill: #228b22; fill-opacity: 0.2"/>
     <use xlink:href="#m9efee86e67" x="44.29625" y="36.930353" style="fill: #228b22; fill-opacity: 0.2"/>
     <use xlink:href="#m9efee86e67" x="44.29625" y="18.32853" style="fill: #228b22; fill-opacity: 0.2"/>
     <use xlink:href="#m9efee86e67" x="44.29625" y="36.930353" style="fill: #228b22; fill-opacity: 0.2"/>
     <use xlink:href="#m9efee86e67" x="44.29625" y="21.611204" style="fill: #228b22; fill-opacity: 0.2"/>
     <use xlink:href="#m9efee86e67" x="44.29625" y="28.176554" style="fill: #228b22; fill-opacity: 0.2"/>
     <use xlink:href="#m9efee86e67" x="44.29625" y="36.930353" style="fill: #228b22; fill-opacity: 0.2"/>
     <use xlink:href="#m9efee86e67" x="44.29625" y="36.930353" style="fill: #228b22; fill-opacity: 0.2"/>
     <use xlink:href="#m9efee86e67" x="44.29625" y="18.32853" style="fill: #228b22; fill-opacity: 0.2"/>
     <use xlink:href="#m9efee86e67" x="44.29625" y="17.234305" style="fill: #228b22; fill-opacity: 0.2"/>
     <use xlink:href="#m9efee86e67" x="44.29625" y="23.799654" style="fill: #228b22; fill-opacity: 0.2"/>
     <use xlink:href="#m9efee86e67" x="44.29625" y="30.365004" style="fill: #228b22; fill-opacity: 0.2"/>
    </g>
   </g>
   <g id="PathCollection_2">
    <defs>
     <path id="mca423091fa" d="M 0 1.936492 
C 0.513564 1.936492 1.006162 1.732451 1.369306 1.369306 
C 1.732451 1.006162 1.936492 0.513564 1.936492 0 
C 1.936492 -0.513564 1.732451 -1.006162 1.369306 -1.369306 
C 1.006162 -1.732451 0.513564 -1.936492 0 -1.936492 
C -0.513564 -1.936492 -1.006162 -1.732451 -1.369306 -1.369306 
C -1.732451 -1.006162 -1.936492 -0.513564 -1.936492 0 
C -1.936492 0.513564 -1.732451 1.006162 -1.369306 1.369306 
C -1.006162 1.732451 -0.513564 1.936492 0 1.936492 
z
"/>
    </defs>
    <g clip-path="url(#pcd4b3137a0)">
     <use xlink:href="#mca423091fa" x="57.79625" y="22.705429" style="fill: #cd5c5c; fill-opacity: 0.2"/>
     <use xlink:href="#mca423091fa" x="57.79625" y="36.930353" style="fill: #cd5c5c; fill-opacity: 0.2"/>
     <use xlink:href="#mca423091fa" x="57.79625" y="38.024578" style="fill: #cd5c5c; fill-opacity: 0.2"/>
     <use xlink:href="#mca423091fa" x="57.79625" y="19.422755" style="fill: #cd5c5c; fill-opacity: 0.2"/>
     <use xlink:href="#mca423091fa" x="57.79625" y="27.082329" style="fill: #cd5c5c; fill-opacity: 0.2"/>
     <use xlink:href="#mca423091fa" x="57.79625" y="50.061052" style="fill: #cd5c5c; fill-opacity: 0.2"/>
     <use xlink:href="#mca423091fa" x="57.79625" y="21.611204" style="fill: #cd5c5c; fill-opacity: 0.2"/>
     <use xlink:href="#mca423091fa" x="57.79625" y="24.893879" style="fill: #cd5c5c; fill-opacity: 0.2"/>
     <use xlink:href="#mca423091fa" x="57.79625" y="38.024578" style="fill: #cd5c5c; fill-opacity: 0.2"/>
     <use xlink:href="#mca423091fa" x="57.79625" y="23.799654" style="fill: #cd5c5c; fill-opacity: 0.2"/>
     <use xlink:href="#mca423091fa" x="57.79625" y="23.799654" style="fill: #cd5c5c; fill-opacity: 0.2"/>
     <use xlink:href="#mca423091fa" x="57.79625" y="44.589928" style="fill: #cd5c5c; fill-opacity: 0.2"/>
     <use xlink:href="#mca423091fa" x="57.79625" y="17.234305" style="fill: #cd5c5c; fill-opacity: 0.2"/>
     <use xlink:href="#mca423091fa" x="57.79625" y="30.365004" style="fill: #cd5c5c; fill-opacity: 0.2"/>
     <use xlink:href="#mca423091fa" x="57.79625" y="27.082329" style="fill: #cd5c5c; fill-opacity: 0.2"/>
     <use xlink:href="#mca423091fa" x="57.79625" y="24.893879" style="fill: #cd5c5c; fill-opacity: 0.2"/>
     <use xlink:href="#mca423091fa" x="57.79625" y="20.516979" style="fill: #cd5c5c; fill-opacity: 0.2"/>
     <use xlink:href="#mca423091fa" x="57.79625" y="29.270779" style="fill: #cd5c5c; fill-opacity: 0.2"/>
     <use xlink:href="#mca423091fa" x="57.79625" y="25.988104" style="fill: #cd5c5c; fill-opacity: 0.2"/>
     <use xlink:href="#mca423091fa" x="57.79625" y="24.893879" style="fill: #cd5c5c; fill-opacity: 0.2"/>
     <use xlink:href="#mca423091fa" x="57.79625" y="42.401478" style="fill: #cd5c5c; fill-opacity: 0.2"/>
     <use xlink:href="#mca423091fa" x="57.79625" y="32.553454" style="fill: #cd5c5c; fill-opacity: 0.2"/>
     <use xlink:href="#mca423091fa" x="57.79625" y="43.495703" style="fill: #cd5c5c; fill-opacity: 0.2"/>
     <use xlink:href="#mca423091fa" x="57.79625" y="18.32853" style="fill: #cd5c5c; fill-opacity: 0.2"/>
     <use xlink:href="#mca423091fa" x="57.79625" y="27.082329" style="fill: #cd5c5c; fill-opacity: 0.2"/>
     <use xlink:href="#mca423091fa" x="57.79625" y="40.213028" style="fill: #cd5c5c; fill-opacity: 0.2"/>
     <use xlink:href="#mca423091fa" x="57.79625" y="45.684153" style="fill: #cd5c5c; fill-opacity: 0.2"/>
     <use xlink:href="#mca423091fa" x="57.79625" y="20.619563" style="fill: #cd5c5c; fill-opacity: 0.2"/>
     <use xlink:href="#mca423091fa" x="57.79625" y="21.611204" style="fill: #cd5c5c; fill-opacity: 0.2"/>
     <use xlink:href="#mca423091fa" x="57.79625" y="54.437952" style="fill: #cd5c5c; fill-opacity: 0.2"/>
     <use xlink:href="#mca423091fa" x="57.79625" y="24.893879" style="fill: #cd5c5c; fill-opacity: 0.2"/>
     <use xlink:href="#mca423091fa" x="57.79625" y="24.893879" style="fill: #cd5c5c; fill-opacity: 0.2"/>
     <use xlink:href="#mca423091fa" x="57.79625" y="18.32853" style="fill: #cd5c5c; fill-opacity: 0.2"/>
     <use xlink:href="#mca423091fa" x="57.79625" y="24.893879" style="fill: #cd5c5c; fill-opacity: 0.2"/>
     <use xlink:href="#mca423091fa" x="57.79625" y="18.32853" style="fill: #cd5c5c; fill-opacity: 0.2"/>
     <use xlink:href="#mca423091fa" x="57.79625" y="35.836128" style="fill: #cd5c5c; fill-opacity: 0.2"/>
     <use xlink:href="#mca423091fa" x="57.79625" y="25.988104" style="fill: #cd5c5c; fill-opacity: 0.2"/>
     <use xlink:href="#mca423091fa" x="57.79625" y="19.422755" style="fill: #cd5c5c; fill-opacity: 0.2"/>
     <use xlink:href="#mca423091fa" x="57.79625" y="40.213028" style="fill: #cd5c5c; fill-opacity: 0.2"/>
     <use xlink:href="#mca423091fa" x="57.79625" y="19.422755" style="fill: #cd5c5c; fill-opacity: 0.2"/>
     <use xlink:href="#mca423091fa" x="57.79625" y="20.516979" style="fill: #cd5c5c; fill-opacity: 0.2"/>
     <use xlink:href="#mca423091fa" x="57.79625" y="23.799654" style="fill: #cd5c5c; fill-opacity: 0.2"/>
     <use xlink:href="#mca423091fa" x="57.79625" y="35.836128" style="fill: #cd5c5c; fill-opacity: 0.2"/>
     <use xlink:href="#mca423091fa" x="57.79625" y="19.422755" style="fill: #cd5c5c; fill-opacity: 0.2"/>
     <use xlink:href="#mca423091fa" x="57.79625" y="20.516979" style="fill: #cd5c5c; fill-opacity: 0.2"/>
     <use xlink:href="#mca423091fa" x="57.79625" y="34.741903" style="fill: #cd5c5c; fill-opacity: 0.2"/>
     <use xlink:href="#mca423091fa" x="57.79625" y="16.14008" style="fill: #cd5c5c; fill-opacity: 0.2"/>
     <use xlink:href="#mca423091fa" x="57.79625" y="18.32853" style="fill: #cd5c5c; fill-opacity: 0.2"/>
     <use xlink:href="#mca423091fa" x="57.79625" y="40.213028" style="fill: #cd5c5c; fill-opacity: 0.2"/>
    </g>
   </g>
   <g id="line2d_58">
    <path d="M 40.92125 29.136792 
L 29.67125 29.136792 
" clip-path="url(#pcd4b3137a0)" style="fill: none; stroke: #000000; stroke-width: 0.85; stroke-linecap: square"/>
   </g>
   <g id="line2d_59">
    <path d="M 61.17125 28.558277 
L 72.42125 28.558277 
" clip-path="url(#pcd4b3137a0)" style="fill: none; stroke: #000000; stroke-width: 0.85; stroke-linecap: square"/>
   </g>
   <g id="LineCollection_1">
    <path d="M 35.29625 30.367902 
L 35.29625 27.905683 
" clip-path="url(#pcd4b3137a0)" style="fill: none; stroke: #000000; stroke-width: 0.85"/>
   </g>
   <g id="line2d_60">
    <defs>
     <path id="mf6e2a21df6" d="M 4 0 
L -4 -0 
" style="stroke: #000000; stroke-width: 0.85"/>
    </defs>
    <g clip-path="url(#pcd4b3137a0)">
     <use xlink:href="#mf6e2a21df6" x="35.29625" y="30.367902" style="stroke: #000000; stroke-width: 0.85"/>
    </g>
   </g>
   <g id="line2d_61">
    <g clip-path="url(#pcd4b3137a0)">
     <use xlink:href="#mf6e2a21df6" x="35.29625" y="27.905683" style="stroke: #000000; stroke-width: 0.85"/>
    </g>
   </g>
   <g id="LineCollection_2">
    <path d="M 66.79625 29.94284 
L 66.79625 27.173714 
" clip-path="url(#pcd4b3137a0)" style="fill: none; stroke: #000000; stroke-width: 0.85"/>
   </g>
   <g id="line2d_62">
    <g clip-path="url(#pcd4b3137a0)">
     <use xlink:href="#mf6e2a21df6" x="66.79625" y="29.94284" style="stroke: #000000; stroke-width: 0.85"/>
    </g>
   </g>
   <g id="line2d_63">
    <g clip-path="url(#pcd4b3137a0)">
     <use xlink:href="#mf6e2a21df6" x="66.79625" y="27.173714" style="stroke: #000000; stroke-width: 0.85"/>
    </g>
   </g>
   <g id="line2d_64">
    <path d="M 40.92125 11.63625 
L 61.17125 11.63625 
" style="fill: none; stroke: #000000; stroke-width: 0.5; stroke-linecap: square"/>
   </g>
   <g id="text_8">
    <text style="font-size: 8px; font-family: 'Arial'; text-anchor: middle" x="51.04625" y="12.92625" transform="rotate(-0 51.04625 12.92625)">ns</text>
   </g>
  </g>
 </g>
 <defs>
  <clipPath id="pcd4b3137a0">
   <rect x="24.04625" y="13.07625" width="54" height="72"/>
  </clipPath>
 </defs>
</svg>
