<?xml version="1.0" encoding="utf-8" standalone="no"?>
<!DOCTYPE svg PUBLIC "-//W3C//DTD SVG 1.1//EN"
  "http://www.w3.org/Graphics/SVG/1.1/DTD/svg11.dtd">
<svg xmlns:xlink="http://www.w3.org/1999/xlink" width="85.24625pt" height="106.844375pt" viewBox="0 0 85.24625 106.844375" xmlns="http://www.w3.org/2000/svg" version="1.1">
 <metadata>
  <rdf:RDF xmlns:dc="http://purl.org/dc/elements/1.1/" xmlns:cc="http://creativecommons.org/ns#" xmlns:rdf="http://www.w3.org/1999/02/22-rdf-syntax-ns#">
   <cc:Work>
    <dc:type rdf:resource="http://purl.org/dc/dcmitype/StillImage"/>
    <dc:date>2026-03-04T23:12:09.422500</dc:date>
    <dc:format>image/svg+xml</dc:format>
    <dc:creator>
     <cc:Agent>
      <dc:title>Matplotlib v3.10.8, https://matplotlib.org/</dc:title>
     </cc:Agent>
    </dc:creator>
   </cc:Work>
  </rdf:RDF>
 </metadata>
 <defs>
  <style type="text/css">*{stroke-linejoin: round; stroke-linecap: butt}</style>
 </defs>
 <g id="figure_1">
  <g id="patch_1">
   <path d="M 0 106.844375 
L 85.24625 106.844375 
L 85.24625 0 
L 0 0 
z
" style="fill: #ffffff"/>
  </g>
  <g id="axes_1">
   <g id="patch_2">
    <path d="M 24.04625 88.734375 
L 78.04625 88.734375 
L 78.04625 16.734375 
L 24.04625 16.734375 
z
" style="fill: #ffffff"/>
   </g>
   <g id="line2d_1">
    <path d="M 24.04625 54.191646 
L 78.04625 54.191646 
" clip-path="url(#pb5755a9772)" style="fill: none; stroke-dasharray: 2.516,1.088; stroke-dashoffset: 0; stroke: #808080; stroke-opacity: 0.5; stroke-width: 0.68"/>
   </g>
   <g id="patch_3">
    <path d="M 40.92125 56.350567 
L 39.503577 56.350567 
L 39.462805 56.166137 
L 39.421445 55.981706 
L 39.37946 55.797276 
L 39.33681 55.612845 
L 39.293453 55.428415 
L 39.249344 55.243985 
L 39.204437 55.059554 
L 39.158681 54.875124 
L 39.112028 54.690693 
L 39.064426 54.506263 
L 39.015823 54.321833 
L 38.96617 54.137402 
L 38.915415 53.952972 
L 38.86351 53.768541 
L 38.810407 53.584111 
L 38.756063 53.399681 
L 38.700435 53.21525 
L 38.643485 53.03082 
L 38.585178 52.846389 
L 38.525486 52.661959 
L 38.464383 52.477529 
L 38.401849 52.293098 
L 38.337869 52.108668 
L 38.272436 51.924237 
L 38.205545 51.739807 
L 38.137201 51.555377 
L 38.067412 51.370946 
L 37.996195 51.186516 
L 37.923572 51.002085 
L 37.849569 50.817655 
L 37.774222 50.633225 
L 37.697569 50.448794 
L 37.619654 50.264364 
L 37.540529 50.079933 
L 37.460248 49.895503 
L 37.378868 49.711073 
L 37.296454 49.526642 
L 37.213071 49.342212 
L 37.128788 49.157781 
L 37.043677 48.973351 
L 36.95781 48.788921 
L 36.871264 48.60449 
L 36.784113 48.42006 
L 36.696433 48.235629 
L 36.608301 48.051199 
L 36.519792 47.866769 
L 36.430982 47.682338 
L 36.341945 47.497908 
L 36.252752 47.313477 
L 36.163475 47.129047 
L 36.074182 46.944617 
L 35.984941 46.760186 
L 35.895815 46.575756 
L 35.806868 46.391325 
L 35.718159 46.206895 
L 35.629746 46.022465 
L 35.541686 45.838034 
L 35.454031 45.653604 
L 35.366835 45.469173 
L 35.280146 45.284743 
L 35.194013 45.100313 
L 35.108485 44.915882 
L 35.023605 44.731452 
L 34.93942 44.547021 
L 34.855973 44.362591 
L 34.773309 44.178161 
L 34.69147 43.99373 
L 34.610499 43.8093 
L 34.530438 43.624869 
L 34.45133 43.440439 
L 34.373218 43.256009 
L 34.296142 43.071578 
L 34.220145 42.887148 
L 34.145269 42.702717 
L 34.071555 42.518287 
L 33.999042 42.333857 
L 33.927771 42.149426 
L 33.857779 41.964996 
L 33.789105 41.780565 
L 33.721782 41.596135 
L 33.655843 41.411705 
L 33.59132 41.227274 
L 33.528239 41.042844 
L 33.466625 40.858413 
L 33.406498 40.673983 
L 33.347875 40.489553 
L 33.290768 40.305122 
L 33.235184 40.120692 
L 33.181127 39.936261 
L 33.128593 39.751831 
L 33.077575 39.567401 
L 33.02806 39.38297 
L 32.980029 39.19854 
L 32.933457 39.01411 
L 32.888316 38.829679 
L 32.84457 38.645249 
L 32.802179 38.460818 
L 32.761098 38.276388 
L 32.72128 38.091958 
L 32.68267 37.907527 
L 32.645212 37.723097 
L 32.608847 37.538666 
L 32.573511 37.354236 
L 32.539142 37.169806 
L 32.505674 36.985375 
L 32.473041 36.800945 
L 32.441177 36.616514 
L 32.410017 36.432084 
L 32.379496 36.247654 
L 32.349551 36.063223 
L 32.320123 35.878793 
L 32.291155 35.694362 
L 32.262591 35.509932 
L 32.234381 35.325502 
L 32.206478 35.141071 
L 32.17884 34.956641 
L 32.151428 34.77221 
L 32.124208 34.58778 
L 32.097149 34.40335 
L 32.070225 34.218919 
L 32.043414 34.034489 
L 32.016696 33.850058 
L 31.990055 33.665628 
L 31.963479 33.481198 
L 31.936954 33.296767 
L 31.910472 33.112337 
L 31.884021 32.927906 
L 31.857592 32.743476 
L 31.831174 32.559046 
L 31.804756 32.374615 
L 31.778322 32.190185 
L 31.751855 32.005754 
L 31.725333 31.821324 
L 31.698731 31.636894 
L 31.672019 31.452463 
L 31.645159 31.268033 
L 31.618112 31.083602 
L 31.590828 30.899172 
L 31.563255 30.714742 
L 31.535333 30.530311 
L 31.506996 30.345881 
L 31.478172 30.16145 
L 31.448786 29.97702 
L 31.418756 29.79259 
L 31.387998 29.608159 
L 31.356424 29.423729 
L 31.323947 29.239298 
L 31.290475 29.054868 
L 31.255923 28.870438 
L 31.220203 28.686007 
L 31.183236 28.501577 
L 31.144945 28.317146 
L 31.105265 28.132716 
L 31.064136 27.948286 
L 31.021514 27.763855 
L 30.977367 27.579425 
L 30.931677 27.394994 
L 30.884446 27.210564 
L 30.835692 27.026134 
L 30.785457 26.841703 
L 30.733803 26.657273 
L 30.680817 26.472842 
L 30.62661 26.288412 
L 30.57132 26.103982 
L 30.515111 25.919551 
L 30.458174 25.735121 
L 30.400727 25.55069 
L 30.343019 25.36626 
L 30.285321 25.18183 
L 30.227934 24.997399 
L 30.171185 24.812969 
L 30.115422 24.628538 
L 30.06102 24.444108 
L 30.008373 24.259678 
L 29.957893 24.075247 
L 29.910011 23.890817 
L 29.86517 23.706386 
L 29.823825 23.521956 
L 29.786437 23.337526 
L 29.753474 23.153095 
L 29.725405 22.968665 
L 29.702693 22.784234 
L 29.6858 22.599804 
L 29.675173 22.415374 
L 29.67125 22.230943 
L 29.674448 22.046513 
L 29.685165 21.862083 
L 29.703774 21.677652 
L 29.730619 21.493222 
L 29.766015 21.308791 
L 29.81024 21.124361 
L 29.863538 20.939931 
L 29.92611 20.7555 
L 29.998118 20.57107 
L 30.079681 20.386639 
L 30.170869 20.202209 
L 30.271709 20.017779 
L 30.382181 19.833348 
L 30.502217 19.648918 
L 40.92125 19.648918 
z
" clip-path="url(#pb5755a9772)" style="fill: #20590b; opacity: 0.2"/>
   </g>
   <g id="patch_4">
    <path d="M 61.17125 77.939772 
L 62.228433 77.939772 
L 62.262771 77.646853 
L 62.297656 77.353935 
L 62.333108 77.061016 
L 62.369149 76.768097 
L 62.405806 76.475178 
L 62.443105 76.182259 
L 62.481077 75.88934 
L 62.519755 75.596421 
L 62.559175 75.303502 
L 62.599374 75.010584 
L 62.640392 74.717665 
L 62.682271 74.424746 
L 62.725054 74.131827 
L 62.768786 73.838908 
L 62.813511 73.545989 
L 62.859277 73.25307 
L 62.906129 72.960152 
L 62.954114 72.667233 
L 63.003278 72.374314 
L 63.053666 72.081395 
L 63.105323 71.788476 
L 63.158291 71.495557 
L 63.212611 71.202638 
L 63.26832 70.909719 
L 63.325454 70.616801 
L 63.384044 70.323882 
L 63.444119 70.030963 
L 63.505701 69.738044 
L 63.56881 69.445125 
L 63.633461 69.152206 
L 63.69966 68.859287 
L 63.767411 68.566369 
L 63.83671 68.27345 
L 63.907546 67.980531 
L 63.979902 67.687612 
L 64.053753 67.394693 
L 64.129066 67.101774 
L 64.205802 66.808855 
L 64.283912 66.515936 
L 64.36334 66.223018 
L 64.444021 65.930099 
L 64.525882 65.63718 
L 64.608843 65.344261 
L 64.692814 65.051342 
L 64.777697 64.758423 
L 64.863386 64.465504 
L 64.94977 64.172586 
L 65.036727 63.879667 
L 65.124129 63.586748 
L 65.211843 63.293829 
L 65.299728 63.00091 
L 65.387638 62.707991 
L 65.475424 62.415072 
L 65.562929 62.122153 
L 65.649995 61.829235 
L 65.736462 61.536316 
L 65.822167 61.243397 
L 65.906945 60.950478 
L 65.990633 60.657559 
L 66.073068 60.36464 
L 66.154088 60.071721 
L 66.233537 59.778803 
L 66.311259 59.485884 
L 66.387105 59.192965 
L 66.460933 58.900046 
L 66.532606 58.607127 
L 66.601995 58.314208 
L 66.668982 58.021289 
L 66.733456 57.72837 
L 66.795319 57.435452 
L 66.854484 57.142533 
L 66.910875 56.849614 
L 66.96443 56.556695 
L 67.0151 56.263776 
L 67.062852 55.970857 
L 67.107663 55.677938 
L 67.14953 55.38502 
L 67.188462 55.092101 
L 67.224484 54.799182 
L 67.257636 54.506263 
L 67.287974 54.213344 
L 67.315567 53.920425 
L 67.340502 53.627506 
L 67.362879 53.334587 
L 67.38281 53.041669 
L 67.400423 52.74875 
L 67.41586 52.455831 
L 67.429271 52.162912 
L 67.440821 51.869993 
L 67.450684 51.577074 
L 67.459045 51.284155 
L 67.466096 50.991237 
L 67.472038 50.698318 
L 67.477078 50.405399 
L 67.48143 50.11248 
L 67.485311 49.819561 
L 67.488943 49.526642 
L 67.492549 49.233723 
L 67.496354 48.940804 
L 67.500585 48.647886 
L 67.505465 48.354967 
L 67.511219 48.062048 
L 67.518065 47.769129 
L 67.526222 47.47621 
L 67.535902 47.183291 
L 67.54731 46.890372 
L 67.560649 46.597454 
L 67.57611 46.304535 
L 67.593881 46.011616 
L 67.614138 45.718697 
L 67.637049 45.425778 
L 67.662772 45.132859 
L 67.691457 44.83994 
L 67.723239 44.547021 
L 67.758245 44.254103 
L 67.796589 43.961184 
L 67.838372 43.668265 
L 67.883685 43.375346 
L 67.932602 43.082427 
L 67.985186 42.789508 
L 68.041487 42.496589 
L 68.10154 42.203671 
L 68.165364 41.910752 
L 68.232966 41.617833 
L 68.304336 41.324914 
L 68.379449 41.031995 
L 68.458267 40.739076 
L 68.540732 40.446157 
L 68.626773 40.153238 
L 68.716303 39.86032 
L 68.809218 39.567401 
L 68.905396 39.274482 
L 69.004701 38.981563 
L 69.10698 38.688644 
L 69.212063 38.395725 
L 69.319764 38.102806 
L 69.42988 37.809887 
L 69.542193 37.516969 
L 69.656469 37.22405 
L 69.772458 36.931131 
L 69.889897 36.638212 
L 70.008506 36.345293 
L 70.127993 36.052374 
L 70.248052 35.759455 
L 70.368367 35.466537 
L 70.488607 35.173618 
L 70.608434 34.880699 
L 70.727498 34.58778 
L 70.845444 34.294861 
L 70.961906 34.001942 
L 71.076516 33.709023 
L 71.188898 33.416104 
L 71.298678 33.123186 
L 71.405475 32.830267 
L 71.508912 32.537348 
L 71.608611 32.244429 
L 71.704199 31.95151 
L 71.795306 31.658591 
L 71.881568 31.365672 
L 71.96263 31.072754 
L 72.038146 30.779835 
L 72.107778 30.486916 
L 72.171204 30.193997 
L 72.228111 29.901078 
L 72.278204 29.608159 
L 72.321203 29.31524 
L 72.356845 29.022321 
L 72.384886 28.729403 
L 72.4051 28.436484 
L 72.417282 28.143565 
L 72.42125 27.850646 
L 72.416841 27.557727 
L 72.403918 27.264808 
L 72.382364 26.971889 
L 72.352088 26.678971 
L 72.313025 26.386052 
L 72.265131 26.093133 
L 72.208391 25.800214 
L 72.142811 25.507295 
L 72.068427 25.214376 
L 71.985298 24.921457 
L 71.893507 24.628538 
L 71.793165 24.33562 
L 71.684405 24.042701 
L 71.567389 23.749782 
L 71.442298 23.456863 
L 71.30934 23.163944 
L 71.168745 22.871025 
L 71.020765 22.578106 
L 70.865674 22.285188 
L 70.703768 21.992269 
L 70.53536 21.69935 
L 70.360784 21.406431 
L 70.180391 21.113512 
L 69.994548 20.820593 
L 69.803636 20.527674 
L 69.608052 20.234755 
L 69.408205 19.941837 
L 69.204511 19.648918 
L 61.17125 19.648918 
z
" clip-path="url(#pb5755a9772)" style="fill: #9f3131; opacity: 0.2"/>
   </g>
   <g id="matplotlib.axis_1">
    <g id="xtick_1">
     <g id="line2d_2">
      <defs>
       <path id="m09df551255" d="M 0 0 
L 0 -4 
" style="stroke: #000000; stroke-width: 0.5"/>
      </defs>
      <g>
       <use xlink:href="#m09df551255" x="40.92125" y="88.734375" style="stroke: #000000; stroke-width: 0.5"/>
      </g>
     </g>
     <g id="text_1">
      <text style="font-size: 8px; font-family: 'Arial'; text-anchor: middle" x="40.92125" y="97.960625" transform="rotate(-0 40.92125 97.960625)">Positive</text>
     </g>
    </g>
    <g id="xtick_2">
     <g id="line2d_3">
      <g>
       <use xlink:href="#m09df551255" x="61.17125" y="88.734375" style="stroke: #000000; stroke-width: 0.5"/>
      </g>
     </g>
     <g id="text_2">
      <text style="font-size: 8px; font-family: 'Arial'; text-anchor: middle" x="61.17125" y="97.960625" transform="rotate(-0 61.17125 97.960625)">Negative</text>
     </g>
    </g>
   </g>
   <g id="matplotlib.axis_2">
    <g id="ytick_1">
     <g id="line2d_4">
      <defs>
       <path id="me5c1c7099b" d="M 0 0 
L 4 0 
" style="stroke: #000000; stroke-width: 0.5"/>
      </defs>
      <g>
       <use xlink:href="#me5c1c7099b" x="24.04625" y="88.734375" style="stroke: #000000; stroke-width: 0.5"/>
      </g>
     </g>
     <g id="text_3">
      <text style="font-size: 8px; font-family: 'Arial'; text-anchor: end" x="20.54625" y="91.5975" transform="rotate(-0 20.54625 91.5975)">0</text>
     </g>
    </g>
    <g id="ytick_2">
     <g id="line2d_5">
      <g>
       <use xlink:href="#me5c1c7099b" x="24.04625" y="71.463011" style="stroke: #000000; stroke-width: 0.5"/>
      </g>
     </g>
     <g id="text_4">
      <text style="font-size: 8px; font-family: 'Arial'; text-anchor: end" x="20.54625" y="74.326136" transform="rotate(-0 20.54625 74.326136)">25</text>
     </g>
    </g>
    <g id="ytick_3">
     <g id="line2d_6">
      <g>
       <use xlink:href="#me5c1c7099b" x="24.04625" y="54.191646" style="stroke: #000000; stroke-width: 0.5"/>
      </g>
     </g>
     <g id="text_5">
      <text style="font-size: 8px; font-family: 'Arial'; text-anchor: end" x="20.54625" y="57.054771" transform="rotate(-0 20.54625 57.054771)">50</text>
     </g>
    </g>
    <g id="ytick_4">
     <g id="line2d_7">
      <g>
       <use xlink:href="#me5c1c7099b" x="24.04625" y="36.920282" style="stroke: #000000; stroke-width: 0.5"/>
      </g>
     </g>
     <g id="text_6">
      <text style="font-size: 8px; font-family: 'Arial'; text-anchor: end" x="20.54625" y="39.783407" transform="rotate(-0 20.54625 39.783407)">75</text>
     </g>
    </g>
    <g id="ytick_5">
     <g id="line2d_8">
      <g>
       <use xlink:href="#me5c1c7099b" x="24.04625" y="19.648918" style="stroke: #000000; stroke-width: 0.5"/>
      </g>
     </g>
     <g id="text_7">
      <text style="font-size: 8px; font-family: 'Arial'; text-anchor: end" x="20.54625" y="22.512043" transform="rotate(-0 20.54625 22.512043)">100</text>
     </g>
    </g>
   </g>
   <g id="patch_5">
    <path d="M 40.92125 34.212033 
L 32.069224 34.212033 
L 32.064992 34.182921 
L 32.06076 34.153809 
L 32.056528 34.124697 
L 32.052295 34.095585 
L 32.048063 34.066473 
L 32.043831 34.037361 
L 32.039612 34.008249 
L 32.035395 33.979137 
L 32.031178 33.950025 
L 32.02696 33.920913 
L 32.022743 33.891801 
L 32.018526 33.862689 
L 32.014315 33.833577 
L 32.01011 33.804465 
L 32.005905 33.775353 
L 32.0017 33.746241 
L 31.997495 33.717129 
L 31.99329 33.688018 
L 31.989087 33.658906 
L 31.984892 33.629794 
L 31.980697 33.600682 
L 31.976502 33.57157 
L 31.972306 33.542458 
L 31.968111 33.513346 
L 31.963916 33.484234 
L 31.959729 33.455122 
L 31.955542 33.42601 
L 31.951355 33.396898 
L 31.947168 33.367786 
L 31.942981 33.338674 
L 31.938794 33.309562 
L 31.934611 33.28045 
L 31.930431 33.251338 
L 31.926251 33.222226 
L 31.922071 33.193114 
L 31.91789 33.164002 
L 31.91371 33.13489 
L 31.909531 33.105778 
L 31.905356 33.076666 
L 31.90118 33.047554 
L 31.897005 33.018442 
L 31.89283 32.98933 
L 31.888655 32.960218 
L 31.88448 32.931106 
L 31.880307 32.901994 
L 31.876136 32.872882 
L 31.871964 32.84377 
L 31.867792 32.814658 
L 31.86362 32.785547 
L 31.859449 32.756435 
L 31.855278 32.727323 
L 31.851108 32.698211 
L 31.846938 32.669099 
L 31.842768 32.639987 
L 31.838598 32.610875 
L 31.834428 32.581763 
L 31.830258 32.552651 
L 31.826088 32.523539 
L 31.821918 32.494427 
L 31.817748 32.465315 
L 31.813578 32.436203 
L 31.809408 32.407091 
L 31.805238 32.377979 
L 31.801065 32.348867 
L 31.796893 32.319755 
L 31.79272 32.290643 
L 31.788548 32.261531 
L 31.784375 32.232419 
L 31.780203 32.203307 
L 31.776027 32.174195 
L 31.771849 32.145083 
L 31.767672 32.115971 
L 31.763494 32.086859 
L 31.759316 32.057747 
L 31.755138 32.028635 
L 31.750959 31.999523 
L 31.746772 31.970411 
L 31.742586 31.941299 
L 31.738399 31.912188 
L 31.734213 31.883076 
L 31.730027 31.853964 
L 31.72584 31.824852 
L 31.721643 31.79574 
L 31.717444 31.766628 
L 31.713245 31.737516 
L 31.709046 31.708404 
L 31.704847 31.679292 
L 31.700647 31.65018 
L 31.696439 31.621068 
L 31.692222 31.591956 
L 31.688006 31.562844 
L 31.683789 31.533732 
L 31.679573 31.50462 
L 31.675356 31.475508 
L 31.671135 31.446396 
L 31.666895 31.417284 
L 31.662656 31.388172 
L 31.658416 31.35906 
L 31.654176 31.329948 
L 31.649937 31.300836 
L 31.645697 31.271724 
L 31.641431 31.242612 
L 31.637162 31.2135 
L 31.632892 31.184388 
L 31.628623 31.155276 
L 31.624354 31.126164 
L 31.620084 31.097052 
L 31.615795 31.06794 
L 31.611488 31.038828 
L 31.607182 31.009717 
L 31.602875 30.980605 
L 31.598568 30.951493 
L 31.594262 30.922381 
L 31.589946 30.893269 
L 31.585594 30.864157 
L 31.581241 30.835045 
L 31.576889 30.805933 
L 31.572537 30.776821 
L 31.568184 30.747709 
L 31.563832 30.718597 
L 31.559432 30.689485 
L 31.555024 30.660373 
L 31.550617 30.631261 
L 31.546209 30.602149 
L 31.541802 30.573037 
L 31.537394 30.543925 
L 31.532952 30.514813 
L 31.528479 30.485701 
L 31.524006 30.456589 
L 31.519533 30.427477 
L 31.51506 30.398365 
L 31.510587 30.369253 
L 31.506099 30.340141 
L 31.501549 30.311029 
L 31.496999 30.281917 
L 31.49245 30.252805 
L 31.4879 30.223693 
L 31.48335 30.194581 
L 31.4788 30.165469 
L 31.474174 30.136358 
L 31.469535 30.107246 
L 31.464897 30.078134 
L 31.460258 30.049022 
L 31.45562 30.01991 
L 31.450981 29.990798 
L 31.446289 29.961686 
L 31.441549 29.932574 
L 31.436809 29.903462 
L 31.432069 29.87435 
L 31.427328 29.845238 
L 31.422588 29.816126 
L 31.417826 29.787014 
L 31.412971 29.757902 
L 31.408116 29.72879 
L 31.403261 29.699678 
L 31.398406 29.670566 
L 31.393551 29.641454 
L 31.388695 29.612342 
L 31.38373 29.58323 
L 31.378746 29.554118 
L 31.373762 29.525006 
L 31.368779 29.495894 
L 31.363795 29.466782 
L 31.358811 29.43767 
L 31.353753 29.408558 
L 31.348626 29.379446 
L 31.3435 29.350334 
L 31.338373 29.321222 
L 31.333247 29.29211 
L 31.32812 29.262999 
L 31.322964 29.233887 
L 31.317681 29.204775 
L 31.312398 29.175663 
L 31.307114 29.146551 
L 31.301831 29.117439 
L 31.296548 29.088327 
L 31.291264 29.059215 
L 31.285836 29.030103 
L 31.280382 29.000991 
L 31.274928 28.971879 
L 31.269473 28.942767 
L 31.264019 28.913655 
L 31.258565 28.884543 
L 31.253016 28.855431 
L 31.247378 28.826319 
L 31.24174 28.797207 
L 31.236102 28.768095 
L 31.230463 28.738983 
L 31.224825 28.709871 
L 31.219151 28.680759 
L 31.213316 28.651647 
L 31.207481 28.622535 
L 31.201646 28.593423 
L 31.19581 28.564311 
L 31.189975 28.535199 
L 31.18414 28.506087 
L 31.178128 28.476975 
L 31.172084 28.447863 
L 31.16604 28.418751 
L 40.92125 28.418751 
z
" clip-path="url(#pb5755a9772)" style="fill: #20590b; opacity: 0.4"/>
   </g>
   <g id="patch_6">
    <path d="M 29.67125 34.212033 
L 40.92125 34.212033 
L 40.92125 28.418751 
L 29.67125 28.418751 
L 29.67125 34.212033 
z
" style="fill: none; stroke: #20590b; stroke-width: 0.85; stroke-linejoin: miter"/>
   </g>
   <g id="patch_7">
    <path d="M 61.17125 42.909669 
L 67.963615 42.909669 
L 67.971425 42.866165 
L 67.979235 42.82266 
L 67.987176 42.779156 
L 67.995538 42.735652 
L 68.0039 42.692147 
L 68.012262 42.648643 
L 68.020623 42.605139 
L 68.028985 42.561634 
L 68.037347 42.51813 
L 68.04599 42.474626 
L 68.054909 42.431122 
L 68.063828 42.387617 
L 68.072747 42.344113 
L 68.081666 42.300609 
L 68.090585 42.257104 
L 68.099504 42.2136 
L 68.108856 42.170096 
L 68.118335 42.126591 
L 68.127814 42.083087 
L 68.137293 42.039583 
L 68.146772 41.996078 
L 68.156251 41.952574 
L 68.165752 41.90907 
L 68.175792 41.865565 
L 68.185833 41.822061 
L 68.195873 41.778557 
L 68.205913 41.735053 
L 68.215953 41.691548 
L 68.225993 41.648044 
L 68.236205 41.60454 
L 68.246805 41.561035 
L 68.257404 41.517531 
L 68.268004 41.474027 
L 68.278604 41.430522 
L 68.289204 41.387018 
L 68.299804 41.343514 
L 68.310722 41.300009 
L 68.321878 41.256505 
L 68.333034 41.213001 
L 68.34419 41.169497 
L 68.355345 41.125992 
L 68.366501 41.082488 
L 68.377657 41.038984 
L 68.389275 40.995479 
L 68.400981 40.951975 
L 68.412687 40.908471 
L 68.424393 40.864966 
L 68.436099 40.821462 
L 68.447805 40.777958 
L 68.459568 40.734453 
L 68.471816 40.690949 
L 68.484064 40.647445 
L 68.496311 40.603941 
L 68.508559 40.560436 
L 68.520807 40.516932 
L 68.533055 40.473428 
L 68.5455 40.429923 
L 68.558279 40.386419 
L 68.571058 40.342915 
L 68.583837 40.29941 
L 68.596616 40.255906 
L 68.609395 40.212402 
L 68.622174 40.168897 
L 68.635284 40.125393 
L 68.648581 40.081889 
L 68.661878 40.038385 
L 68.675175 39.99488 
L 68.688472 39.951376 
L 68.701769 39.907872 
L 68.715066 39.864367 
L 68.728819 39.820863 
L 68.742619 39.777359 
L 68.756418 39.733854 
L 68.770218 39.69035 
L 68.784018 39.646846 
L 68.797817 39.603341 
L 68.811701 39.559837 
L 68.825986 39.516333 
L 68.84027 39.472828 
L 68.854554 39.429324 
L 68.868839 39.38582 
L 68.883123 39.342316 
L 68.897408 39.298811 
L 68.911897 39.255307 
L 68.926646 39.211803 
L 68.941394 39.168298 
L 68.956143 39.124794 
L 68.970892 39.08129 
L 68.985641 39.037785 
L 69.00039 38.994281 
L 69.015451 38.950777 
L 69.030642 38.907272 
L 69.045832 38.863768 
L 69.061023 38.820264 
L 69.076213 38.77676 
L 69.091404 38.733255 
L 69.106594 38.689751 
L 69.12219 38.646247 
L 69.137797 38.602742 
L 69.153404 38.559238 
L 69.169011 38.515734 
L 69.184618 38.472229 
L 69.200225 38.428725 
L 69.215926 38.385221 
L 69.231921 38.341716 
L 69.247917 38.298212 
L 69.263913 38.254708 
L 69.279909 38.211204 
L 69.295904 38.167699 
L 69.3119 38.124195 
L 69.328078 38.080691 
L 69.344432 38.037186 
L 69.360787 37.993682 
L 69.377141 37.950178 
L 69.393496 37.906673 
L 69.40985 37.863169 
L 69.426205 37.819665 
L 69.442812 37.77616 
L 69.459493 37.732656 
L 69.476173 37.689152 
L 69.492854 37.645648 
L 69.509535 37.602143 
L 69.526216 37.558639 
L 69.542909 37.515135 
L 69.559881 37.47163 
L 69.576853 37.428126 
L 69.593825 37.384622 
L 69.610798 37.341117 
L 69.62777 37.297613 
L 69.644742 37.254109 
L 69.661793 37.210604 
L 69.67902 37.1671 
L 69.696246 37.123596 
L 69.713473 37.080091 
L 69.7307 37.036587 
L 69.747927 36.993083 
L 69.765153 36.949579 
L 69.782504 36.906074 
L 69.799946 36.86257 
L 69.817388 36.819066 
L 69.83483 36.775561 
L 69.852272 36.732057 
L 69.869714 36.688553 
L 69.887156 36.645048 
L 69.904744 36.601544 
L 69.92236 36.55804 
L 69.939976 36.514535 
L 69.957592 36.471031 
L 69.975207 36.427527 
L 69.992823 36.384023 
L 70.010453 36.340518 
L 70.0282 36.297014 
L 70.045946 36.25351 
L 70.063692 36.210005 
L 70.081438 36.166501 
L 70.099184 36.122997 
L 70.116931 36.079492 
L 70.134709 36.035988 
L 70.15254 35.992484 
L 70.170371 35.948979 
L 70.188203 35.905475 
L 70.206034 35.861971 
L 70.223865 35.818467 
L 70.241696 35.774962 
L 70.259552 35.731458 
L 70.277421 35.687954 
L 70.29529 35.644449 
L 70.313159 35.600945 
L 70.331028 35.557441 
L 70.348898 35.513936 
L 70.366767 35.470432 
L 70.384626 35.426928 
L 70.402484 35.383423 
L 70.420342 35.339919 
L 70.4382 35.296415 
L 70.456058 35.252911 
L 70.473916 35.209406 
L 70.491763 35.165902 
L 70.50956 35.122398 
L 70.527357 35.078893 
L 70.545153 35.035389 
L 70.56295 34.991885 
L 70.580747 34.94838 
L 70.598544 34.904876 
L 70.61629 34.861372 
L 70.633973 34.817867 
L 70.651657 34.774363 
L 70.66934 34.730859 
L 70.687024 34.687354 
L 70.704707 34.64385 
L 70.722391 34.600346 
L 70.739956 34.556842 
L 70.757473 34.513337 
L 70.77499 34.469833 
L 70.792508 34.426329 
L 70.810025 34.382824 
L 70.827542 34.33932 
L 70.845059 34.295816 
L 70.862361 34.252311 
L 61.17125 34.252311 
z
" clip-path="url(#pb5755a9772)" style="fill: #9f3131; opacity: 0.4"/>
   </g>
   <g id="patch_8">
    <path d="M 61.17125 42.909669 
L 72.42125 42.909669 
L 72.42125 34.252311 
L 61.17125 34.252311 
L 61.17125 42.909669 
z
" style="fill: none; stroke: #9f3131; stroke-width: 0.85; stroke-linejoin: miter"/>
   </g>
   <g id="line2d_9">
    <path d="M 44.29625 21.807838 
L 57.79625 30.44352 
" clip-path="url(#pb5755a9772)" style="fill: none; stroke: #999999; stroke-opacity: 0.8; stroke-width: 0.3; stroke-linecap: square"/>
   </g>
   <g id="line2d_10">
    <path d="M 44.29625 26.125679 
L 57.79625 71.463011 
" clip-path="url(#pb5755a9772)" style="fill: none; stroke: #999999; stroke-opacity: 0.8; stroke-width: 0.3; stroke-linecap: square"/>
   </g>
   <g id="line2d_11">
    <path d="M 44.29625 41.238123 
L 57.79625 56.350567 
" clip-path="url(#pb5755a9772)" style="fill: none; stroke: #999999; stroke-opacity: 0.8; stroke-width: 0.3; stroke-linecap: square"/>
   </g>
   <g id="line2d_12">
    <path d="M 44.29625 28.2846 
L 57.79625 19.648918 
" clip-path="url(#pb5755a9772)" style="fill: none; stroke: #999999; stroke-opacity: 0.8; stroke-width: 0.3; stroke-linecap: square"/>
   </g>
   <g id="line2d_13">
    <path d="M 44.29625 39.079203 
L 57.79625 26.125679 
" clip-path="url(#pb5755a9772)" style="fill: none; stroke: #999999; stroke-opacity: 0.8; stroke-width: 0.3; stroke-linecap: square"/>
   </g>
   <g id="line2d_14">
    <path d="M 44.29625 28.2846 
L 57.79625 30.44352 
" clip-path="url(#pb5755a9772)" style="fill: none; stroke: #999999; stroke-opacity: 0.8; stroke-width: 0.3; stroke-linecap: square"/>
   </g>
   <g id="line2d_15">
    <path d="M 44.29625 39.079203 
L 57.79625 30.44352 
" clip-path="url(#pb5755a9772)" style="fill: none; stroke: #999999; stroke-opacity: 0.8; stroke-width: 0.3; stroke-linecap: square"/>
   </g>
   <g id="line2d_16">
    <path d="M 44.29625 19.648918 
L 57.79625 21.807838 
" clip-path="url(#pb5755a9772)" style="fill: none; stroke: #999999; stroke-opacity: 0.8; stroke-width: 0.3; stroke-linecap: square"/>
   </g>
   <g id="line2d_17">
    <path d="M 44.29625 45.555964 
L 57.79625 41.238123 
" clip-path="url(#pb5755a9772)" style="fill: none; stroke: #999999; stroke-opacity: 0.8; stroke-width: 0.3; stroke-linecap: square"/>
   </g>
   <g id="line2d_18">
    <path d="M 44.29625 30.44352 
L 57.79625 28.2846 
" clip-path="url(#pb5755a9772)" style="fill: none; stroke: #999999; stroke-opacity: 0.8; stroke-width: 0.3; stroke-linecap: square"/>
   </g>
   <g id="line2d_19">
    <path d="M 44.29625 19.648918 
L 57.79625 30.44352 
" clip-path="url(#pb5755a9772)" style="fill: none; stroke: #999999; stroke-opacity: 0.8; stroke-width: 0.3; stroke-linecap: square"/>
   </g>
   <g id="line2d_20">
    <path d="M 44.29625 30.44352 
L 57.79625 19.648918 
" clip-path="url(#pb5755a9772)" style="fill: none; stroke: #999999; stroke-opacity: 0.8; stroke-width: 0.3; stroke-linecap: square"/>
   </g>
   <g id="line2d_21">
    <path d="M 44.29625 19.648918 
L 57.79625 36.920282 
" clip-path="url(#pb5755a9772)" style="fill: none; stroke: #999999; stroke-opacity: 0.8; stroke-width: 0.3; stroke-linecap: square"/>
   </g>
   <g id="line2d_22">
    <path d="M 44.29625 19.648918 
L 57.79625 19.648918 
" clip-path="url(#pb5755a9772)" style="fill: none; stroke: #999999; stroke-opacity: 0.8; stroke-width: 0.3; stroke-linecap: square"/>
   </g>
   <g id="line2d_23">
    <path d="M 44.29625 19.648918 
L 57.79625 36.920282 
" clip-path="url(#pb5755a9772)" style="fill: none; stroke: #999999; stroke-opacity: 0.8; stroke-width: 0.3; stroke-linecap: square"/>
   </g>
   <g id="line2d_24">
    <path d="M 44.29625 28.2846 
L 57.79625 23.966759 
" clip-path="url(#pb5755a9772)" style="fill: none; stroke: #999999; stroke-opacity: 0.8; stroke-width: 0.3; stroke-linecap: square"/>
   </g>
   <g id="line2d_25">
    <path d="M 44.29625 43.397044 
L 57.79625 30.44352 
" clip-path="url(#pb5755a9772)" style="fill: none; stroke: #999999; stroke-opacity: 0.8; stroke-width: 0.3; stroke-linecap: square"/>
   </g>
   <g id="line2d_26">
    <path d="M 44.29625 32.602441 
L 57.79625 32.602441 
" clip-path="url(#pb5755a9772)" style="fill: none; stroke: #999999; stroke-opacity: 0.8; stroke-width: 0.3; stroke-linecap: square"/>
   </g>
   <g id="line2d_27">
    <path d="M 44.29625 23.966759 
L 57.79625 23.966759 
" clip-path="url(#pb5755a9772)" style="fill: none; stroke: #999999; stroke-opacity: 0.8; stroke-width: 0.3; stroke-linecap: square"/>
   </g>
   <g id="line2d_28">
    <path d="M 44.29625 39.079203 
L 57.79625 30.44352 
" clip-path="url(#pb5755a9772)" style="fill: none; stroke: #999999; stroke-opacity: 0.8; stroke-width: 0.3; stroke-linecap: square"/>
   </g>
   <g id="line2d_29">
    <path d="M 44.29625 54.191646 
L 57.79625 52.032726 
" clip-path="url(#pb5755a9772)" style="fill: none; stroke: #999999; stroke-opacity: 0.8; stroke-width: 0.3; stroke-linecap: square"/>
   </g>
   <g id="line2d_30">
    <path d="M 44.29625 32.602441 
L 57.79625 26.125679 
" clip-path="url(#pb5755a9772)" style="fill: none; stroke: #999999; stroke-opacity: 0.8; stroke-width: 0.3; stroke-linecap: square"/>
   </g>
   <g id="line2d_31">
    <path d="M 44.29625 30.44352 
L 57.79625 67.14517 
" clip-path="url(#pb5755a9772)" style="fill: none; stroke: #999999; stroke-opacity: 0.8; stroke-width: 0.3; stroke-linecap: square"/>
   </g>
   <g id="line2d_32">
    <path d="M 44.29625 39.079203 
L 57.79625 49.873805 
" clip-path="url(#pb5755a9772)" style="fill: none; stroke: #999999; stroke-opacity: 0.8; stroke-width: 0.3; stroke-linecap: square"/>
   </g>
   <g id="line2d_33">
    <path d="M 44.29625 47.714885 
L 57.79625 36.920282 
" clip-path="url(#pb5755a9772)" style="fill: none; stroke: #999999; stroke-opacity: 0.8; stroke-width: 0.3; stroke-linecap: square"/>
   </g>
   <g id="line2d_34">
    <path d="M 44.29625 28.2846 
L 57.79625 62.827329 
" clip-path="url(#pb5755a9772)" style="fill: none; stroke: #999999; stroke-opacity: 0.8; stroke-width: 0.3; stroke-linecap: square"/>
   </g>
   <g id="line2d_35">
    <path d="M 44.29625 19.648918 
L 57.79625 19.648918 
" clip-path="url(#pb5755a9772)" style="fill: none; stroke: #999999; stroke-opacity: 0.8; stroke-width: 0.3; stroke-linecap: square"/>
   </g>
   <g id="line2d_36">
    <path d="M 44.29625 36.920282 
L 57.79625 77.939772 
" clip-path="url(#pb5755a9772)" style="fill: none; stroke: #999999; stroke-opacity: 0.8; stroke-width: 0.3; stroke-linecap: square"/>
   </g>
   <g id="line2d_37">
    <path d="M 44.29625 34.761362 
L 57.79625 23.966759 
" clip-path="url(#pb5755a9772)" style="fill: none; stroke: #999999; stroke-opacity: 0.8; stroke-width: 0.3; stroke-linecap: square"/>
   </g>
   <g id="line2d_38">
    <path d="M 44.29625 45.555964 
L 57.79625 52.032726 
" clip-path="url(#pb5755a9772)" style="fill: none; stroke: #999999; stroke-opacity: 0.8; stroke-width: 0.3; stroke-linecap: square"/>
   </g>
   <g id="line2d_39">
    <path d="M 44.29625 19.648918 
L 57.79625 43.397044 
" clip-path="url(#pb5755a9772)" style="fill: none; stroke: #999999; stroke-opacity: 0.8; stroke-width: 0.3; stroke-linecap: square"/>
   </g>
   <g id="line2d_40">
    <path d="M 44.29625 19.648918 
L 57.79625 19.648918 
" clip-path="url(#pb5755a9772)" style="fill: none; stroke: #999999; stroke-opacity: 0.8; stroke-width: 0.3; stroke-linecap: square"/>
   </g>
   <g id="line2d_41">
    <path d="M 44.29625 47.714885 
L 57.79625 47.714885 
" clip-path="url(#pb5755a9772)" style="fill: none; stroke: #999999; stroke-opacity: 0.8; stroke-width: 0.3; stroke-linecap: square"/>
   </g>
   <g id="line2d_42">
    <path d="M 44.29625 39.079203 
L 57.79625 23.966759 
" clip-path="url(#pb5755a9772)" style="fill: none; stroke: #999999; stroke-opacity: 0.8; stroke-width: 0.3; stroke-linecap: square"/>
   </g>
   <g id="line2d_43">
    <path d="M 44.29625 19.648918 
L 57.79625 19.648918 
" clip-path="url(#pb5755a9772)" style="fill: none; stroke: #999999; stroke-opacity: 0.8; stroke-width: 0.3; stroke-linecap: square"/>
   </g>
   <g id="line2d_44">
    <path d="M 44.29625 30.44352 
L 57.79625 47.714885 
" clip-path="url(#pb5755a9772)" style="fill: none; stroke: #999999; stroke-opacity: 0.8; stroke-width: 0.3; stroke-linecap: square"/>
   </g>
   <g id="line2d_45">
    <path d="M 44.29625 43.397044 
L 57.79625 56.350567 
" clip-path="url(#pb5755a9772)" style="fill: none; stroke: #999999; stroke-opacity: 0.8; stroke-width: 0.3; stroke-linecap: square"/>
   </g>
   <g id="line2d_46">
    <path d="M 44.29625 36.920282 
L 57.79625 28.2846 
" clip-path="url(#pb5755a9772)" style="fill: none; stroke: #999999; stroke-opacity: 0.8; stroke-width: 0.3; stroke-linecap: square"/>
   </g>
   <g id="line2d_47">
    <path d="M 44.29625 19.648918 
L 57.79625 52.032726 
" clip-path="url(#pb5755a9772)" style="fill: none; stroke: #999999; stroke-opacity: 0.8; stroke-width: 0.3; stroke-linecap: square"/>
   </g>
   <g id="line2d_48">
    <path d="M 44.29625 28.2846 
L 57.79625 30.44352 
" clip-path="url(#pb5755a9772)" style="fill: none; stroke: #999999; stroke-opacity: 0.8; stroke-width: 0.3; stroke-linecap: square"/>
   </g>
   <g id="line2d_49">
    <path d="M 44.29625 23.966759 
L 57.79625 21.807838 
" clip-path="url(#pb5755a9772)" style="fill: none; stroke: #999999; stroke-opacity: 0.8; stroke-width: 0.3; stroke-linecap: square"/>
   </g>
   <g id="line2d_50">
    <path d="M 44.29625 21.807838 
L 57.79625 43.397044 
" clip-path="url(#pb5755a9772)" style="fill: none; stroke: #999999; stroke-opacity: 0.8; stroke-width: 0.3; stroke-linecap: square"/>
   </g>
   <g id="line2d_51">
    <path d="M 44.29625 21.807838 
L 57.79625 41.238123 
" clip-path="url(#pb5755a9772)" style="fill: none; stroke: #999999; stroke-opacity: 0.8; stroke-width: 0.3; stroke-linecap: square"/>
   </g>
   <g id="line2d_52">
    <path d="M 44.29625 56.350567 
L 57.79625 58.509487 
" clip-path="url(#pb5755a9772)" style="fill: none; stroke: #999999; stroke-opacity: 0.8; stroke-width: 0.3; stroke-linecap: square"/>
   </g>
   <g id="line2d_53">
    <path d="M 44.29625 39.079203 
L 57.79625 34.761362 
" clip-path="url(#pb5755a9772)" style="fill: none; stroke: #999999; stroke-opacity: 0.8; stroke-width: 0.3; stroke-linecap: square"/>
   </g>
   <g id="line2d_54">
    <path d="M 44.29625 19.648918 
L 57.79625 56.350567 
" clip-path="url(#pb5755a9772)" style="fill: none; stroke: #999999; stroke-opacity: 0.8; stroke-width: 0.3; stroke-linecap: square"/>
   </g>
   <g id="line2d_55">
    <path d="M 44.29625 34.761362 
L 57.79625 58.509487 
" clip-path="url(#pb5755a9772)" style="fill: none; stroke: #999999; stroke-opacity: 0.8; stroke-width: 0.3; stroke-linecap: square"/>
   </g>
   <g id="line2d_56">
    <path d="M 44.29625 19.648918 
L 57.79625 28.2846 
" clip-path="url(#pb5755a9772)" style="fill: none; stroke: #999999; stroke-opacity: 0.8; stroke-width: 0.3; stroke-linecap: square"/>
   </g>
   <g id="line2d_57">
    <path d="M 44.29625 47.714885 
L 57.79625 39.079203 
" clip-path="url(#pb5755a9772)" style="fill: none; stroke: #999999; stroke-opacity: 0.8; stroke-width: 0.3; stroke-linecap: square"/>
   </g>
   <g id="line2d_58">
    <path d="M 44.29625 32.602441 
L 57.79625 28.2846 
" clip-path="url(#pb5755a9772)" style="fill: none; stroke: #999999; stroke-opacity: 0.8; stroke-width: 0.3; stroke-linecap: square"/>
   </g>
   <g id="line2d_59">
    <path d="M 44.29625 19.648918 
L 57.79625 62.827329 
" clip-path="url(#pb5755a9772)" style="fill: none; stroke: #999999; stroke-opacity: 0.8; stroke-width: 0.3; stroke-linecap: square"/>
   </g>
   <g id="line2d_60">
    <path d="M 44.29625 21.807838 
L 57.79625 54.191646 
" clip-path="url(#pb5755a9772)" style="fill: none; stroke: #999999; stroke-opacity: 0.8; stroke-width: 0.3; stroke-linecap: square"/>
   </g>
   <g id="patch_9">
    <path d="M 24.04625 88.734375 
L 24.04625 16.734375 
" style="fill: none; stroke: #000000; stroke-width: 0.5; stroke-linejoin: miter; stroke-linecap: square"/>
   </g>
   <g id="patch_10">
    <path d="M 24.04625 88.734375 
L 78.04625 88.734375 
" style="fill: none; stroke: #000000; stroke-width: 0.5; stroke-linejoin: miter; stroke-linecap: square"/>
   </g>
   <g id="PathCollection_1">
    <defs>
     <path id="me3b7e29158" d="M 0 1.936492 
C 0.513564 1.936492 1.006162 1.732451 1.369306 1.369306 
C 1.732451 1.006162 1.936492 0.513564 1.936492 0 
C 1.936492 -0.513564 1.732451 -1.006162 1.369306 -1.369306 
C 1.006162 -1.732451 0.513564 -1.936492 0 -1.936492 
C -0.513564 -1.936492 -1.006162 -1.732451 -1.369306 -1.369306 
C -1.732451 -1.006162 -1.936492 -0.513564 -1.936492 0 
C -1.936492 0.513564 -1.732451 1.006162 -1.369306 1.369306 
C -1.006162 1.732451 -0.513564 1.936492 0 1.936492 
z
"/>
    </defs>
    <g clip-path="url(#pb5755a9772)">
     <use xlink:href="#me3b7e29158" x="44.29625" y="21.807838" style="fill: #20590b; fill-opacity: 0.2"/>
     <use xlink:href="#me3b7e29158" x="44.29625" y="26.125679" style="fill: #20590b; fill-opacity: 0.2"/>
     <use xlink:href="#me3b7e29158" x="44.29625" y="41.238123" style="fill: #20590b; fill-opacity: 0.2"/>
     <use xlink:href="#me3b7e29158" x="44.29625" y="28.2846" style="fill: #20590b; fill-opacity: 0.2"/>
     <use xlink:href="#me3b7e29158" x="44.29625" y="39.079203" style="fill: #20590b; fill-opacity: 0.2"/>
     <use xlink:href="#me3b7e29158" x="44.29625" y="28.2846" style="fill: #20590b; fill-opacity: 0.2"/>
     <use xlink:href="#me3b7e29158" x="44.29625" y="39.079203" style="fill: #20590b; fill-opacity: 0.2"/>
     <use xlink:href="#me3b7e29158" x="44.29625" y="19.648918" style="fill: #20590b; fill-opacity: 0.2"/>
     <use xlink:href="#me3b7e29158" x="44.29625" y="45.555964" style="fill: #20590b; fill-opacity: 0.2"/>
     <use xlink:href="#me3b7e29158" x="44.29625" y="30.44352" style="fill: #20590b; fill-opacity: 0.2"/>
     <use xlink:href="#me3b7e29158" x="44.29625" y="19.648918" style="fill: #20590b; fill-opacity: 0.2"/>
     <use xlink:href="#me3b7e29158" x="44.29625" y="30.44352" style="fill: #20590b; fill-opacity: 0.2"/>
     <use xlink:href="#me3b7e29158" x="44.29625" y="19.648918" style="fill: #20590b; fill-opacity: 0.2"/>
     <use xlink:href="#me3b7e29158" x="44.29625" y="19.648918" style="fill: #20590b; fill-opacity: 0.2"/>
     <use xlink:href="#me3b7e29158" x="44.29625" y="19.648918" style="fill: #20590b; fill-opacity: 0.2"/>
     <use xlink:href="#me3b7e29158" x="44.29625" y="28.2846" style="fill: #20590b; fill-opacity: 0.2"/>
     <use xlink:href="#me3b7e29158" x="44.29625" y="43.397044" style="fill: #20590b; fill-opacity: 0.2"/>
     <use xlink:href="#me3b7e29158" x="44.29625" y="32.602441" style="fill: #20590b; fill-opacity: 0.2"/>
     <use xlink:href="#me3b7e29158" x="44.29625" y="23.966759" style="fill: #20590b; fill-opacity: 0.2"/>
     <use xlink:href="#me3b7e29158" x="44.29625" y="39.079203" style="fill: #20590b; fill-opacity: 0.2"/>
     <use xlink:href="#me3b7e29158" x="44.29625" y="54.191646" style="fill: #20590b; fill-opacity: 0.2"/>
     <use xlink:href="#me3b7e29158" x="44.29625" y="32.602441" style="fill: #20590b; fill-opacity: 0.2"/>
     <use xlink:href="#me3b7e29158" x="44.29625" y="30.44352" style="fill: #20590b; fill-opacity: 0.2"/>
     <use xlink:href="#me3b7e29158" x="44.29625" y="39.079203" style="fill: #20590b; fill-opacity: 0.2"/>
     <use xlink:href="#me3b7e29158" x="44.29625" y="47.714885" style="fill: #20590b; fill-opacity: 0.2"/>
     <use xlink:href="#me3b7e29158" x="44.29625" y="28.2846" style="fill: #20590b; fill-opacity: 0.2"/>
     <use xlink:href="#me3b7e29158" x="44.29625" y="19.648918" style="fill: #20590b; fill-opacity: 0.2"/>
     <use xlink:href="#me3b7e29158" x="44.29625" y="36.920282" style="fill: #20590b; fill-opacity: 0.2"/>
     <use xlink:href="#me3b7e29158" x="44.29625" y="34.761362" style="fill: #20590b; fill-opacity: 0.2"/>
     <use xlink:href="#me3b7e29158" x="44.29625" y="45.555964" style="fill: #20590b; fill-opacity: 0.2"/>
     <use xlink:href="#me3b7e29158" x="44.29625" y="19.648918" style="fill: #20590b; fill-opacity: 0.2"/>
     <use xlink:href="#me3b7e29158" x="44.29625" y="19.648918" style="fill: #20590b; fill-opacity: 0.2"/>
     <use xlink:href="#me3b7e29158" x="44.29625" y="47.714885" style="fill: #20590b; fill-opacity: 0.2"/>
     <use xlink:href="#me3b7e29158" x="44.29625" y="39.079203" style="fill: #20590b; fill-opacity: 0.2"/>
     <use xlink:href="#me3b7e29158" x="44.29625" y="19.648918" style="fill: #20590b; fill-opacity: 0.2"/>
     <use xlink:href="#me3b7e29158" x="44.29625" y="30.44352" style="fill: #20590b; fill-opacity: 0.2"/>
     <use xlink:href="#me3b7e29158" x="44.29625" y="43.397044" style="fill: #20590b; fill-opacity: 0.2"/>
     <use xlink:href="#me3b7e29158" x="44.29625" y="36.920282" style="fill: #20590b; fill-opacity: 0.2"/>
     <use xlink:href="#me3b7e29158" x="44.29625" y="19.648918" style="fill: #20590b; fill-opacity: 0.2"/>
     <use xlink:href="#me3b7e29158" x="44.29625" y="28.2846" style="fill: #20590b; fill-opacity: 0.2"/>
     <use xlink:href="#me3b7e29158" x="44.29625" y="23.966759" style="fill: #20590b; fill-opacity: 0.2"/>
     <use xlink:href="#me3b7e29158" x="44.29625" y="21.807838" style="fill: #20590b; fill-opacity: 0.2"/>
     <use xlink:href="#me3b7e29158" x="44.29625" y="21.807838" style="fill: #20590b; fill-opacity: 0.2"/>
     <use xlink:href="#me3b7e29158" x="44.29625" y="56.350567" style="fill: #20590b; fill-opacity: 0.2"/>
     <use xlink:href="#me3b7e29158" x="44.29625" y="39.079203" style="fill: #20590b; fill-opacity: 0.2"/>
     <use xlink:href="#me3b7e29158" x="44.29625" y="19.648918" style="fill: #20590b; fill-opacity: 0.2"/>
     <use xlink:href="#me3b7e29158" x="44.29625" y="34.761362" style="fill: #20590b; fill-opacity: 0.2"/>
     <use xlink:href="#me3b7e29158" x="44.29625" y="19.648918" style="fill: #20590b; fill-opacity: 0.2"/>
     <use xlink:href="#me3b7e29158" x="44.29625" y="47.714885" style="fill: #20590b; fill-opacity: 0.2"/>
     <use xlink:href="#me3b7e29158" x="44.29625" y="32.602441" style="fill: #20590b; fill-opacity: 0.2"/>
     <use xlink:href="#me3b7e29158" x="44.29625" y="19.648918" style="fill: #20590b; fill-opacity: 0.2"/>
     <use xlink:href="#me3b7e29158" x="44.29625" y="21.807838" style="fill: #20590b; fill-opacity: 0.2"/>
    </g>
   </g>
   <g id="PathCollection_2">
    <defs>
     <path id="m1d42f8f590" d="M 0 1.936492 
C 0.513564 1.936492 1.006162 1.732451 1.369306 1.369306 
C 1.732451 1.006162 1.936492 0.513564 1.936492 0 
C 1.936492 -0.513564 1.732451 -1.006162 1.369306 -1.369306 
C 1.006162 -1.732451 0.513564 -1.936492 0 -1.936492 
C -0.513564 -1.936492 -1.006162 -1.732451 -1.369306 -1.369306 
C -1.732451 -1.006162 -1.936492 -0.513564 -1.936492 0 
C -1.936492 0.513564 -1.732451 1.006162 -1.369306 1.369306 
C -1.006162 1.732451 -0.513564 1.936492 0 1.936492 
z
"/>
    </defs>
    <g clip-path="url(#pb5755a9772)">
     <use xlink:href="#m1d42f8f590" x="57.79625" y="30.44352" style="fill: #9f3131; fill-opacity: 0.2"/>
     <use xlink:href="#m1d42f8f590" x="57.79625" y="71.463011" style="fill: #9f3131; fill-opacity: 0.2"/>
     <use xlink:href="#m1d42f8f590" x="57.79625" y="56.350567" style="fill: #9f3131; fill-opacity: 0.2"/>
     <use xlink:href="#m1d42f8f590" x="57.79625" y="19.648918" style="fill: #9f3131; fill-opacity: 0.2"/>
     <use xlink:href="#m1d42f8f590" x="57.79625" y="26.125679" style="fill: #9f3131; fill-opacity: 0.2"/>
     <use xlink:href="#m1d42f8f590" x="57.79625" y="30.44352" style="fill: #9f3131; fill-opacity: 0.2"/>
     <use xlink:href="#m1d42f8f590" x="57.79625" y="30.44352" style="fill: #9f3131; fill-opacity: 0.2"/>
     <use xlink:href="#m1d42f8f590" x="57.79625" y="21.807838" style="fill: #9f3131; fill-opacity: 0.2"/>
     <use xlink:href="#m1d42f8f590" x="57.79625" y="41.238123" style="fill: #9f3131; fill-opacity: 0.2"/>
     <use xlink:href="#m1d42f8f590" x="57.79625" y="28.2846" style="fill: #9f3131; fill-opacity: 0.2"/>
     <use xlink:href="#m1d42f8f590" x="57.79625" y="30.44352" style="fill: #9f3131; fill-opacity: 0.2"/>
     <use xlink:href="#m1d42f8f590" x="57.79625" y="19.648918" style="fill: #9f3131; fill-opacity: 0.2"/>
     <use xlink:href="#m1d42f8f590" x="57.79625" y="36.920282" style="fill: #9f3131; fill-opacity: 0.2"/>
     <use xlink:href="#m1d42f8f590" x="57.79625" y="19.648918" style="fill: #9f3131; fill-opacity: 0.2"/>
     <use xlink:href="#m1d42f8f590" x="57.79625" y="36.920282" style="fill: #9f3131; fill-opacity: 0.2"/>
     <use xlink:href="#m1d42f8f590" x="57.79625" y="23.966759" style="fill: #9f3131; fill-opacity: 0.2"/>
     <use xlink:href="#m1d42f8f590" x="57.79625" y="30.44352" style="fill: #9f3131; fill-opacity: 0.2"/>
     <use xlink:href="#m1d42f8f590" x="57.79625" y="32.602441" style="fill: #9f3131; fill-opacity: 0.2"/>
     <use xlink:href="#m1d42f8f590" x="57.79625" y="23.966759" style="fill: #9f3131; fill-opacity: 0.2"/>
     <use xlink:href="#m1d42f8f590" x="57.79625" y="30.44352" style="fill: #9f3131; fill-opacity: 0.2"/>
     <use xlink:href="#m1d42f8f590" x="57.79625" y="52.032726" style="fill: #9f3131; fill-opacity: 0.2"/>
     <use xlink:href="#m1d42f8f590" x="57.79625" y="26.125679" style="fill: #9f3131; fill-opacity: 0.2"/>
     <use xlink:href="#m1d42f8f590" x="57.79625" y="67.14517" style="fill: #9f3131; fill-opacity: 0.2"/>
     <use xlink:href="#m1d42f8f590" x="57.79625" y="49.873805" style="fill: #9f3131; fill-opacity: 0.2"/>
     <use xlink:href="#m1d42f8f590" x="57.79625" y="36.920282" style="fill: #9f3131; fill-opacity: 0.2"/>
     <use xlink:href="#m1d42f8f590" x="57.79625" y="62.827329" style="fill: #9f3131; fill-opacity: 0.2"/>
     <use xlink:href="#m1d42f8f590" x="57.79625" y="19.648918" style="fill: #9f3131; fill-opacity: 0.2"/>
     <use xlink:href="#m1d42f8f590" x="57.79625" y="77.939772" style="fill: #9f3131; fill-opacity: 0.2"/>
     <use xlink:href="#m1d42f8f590" x="57.79625" y="23.966759" style="fill: #9f3131; fill-opacity: 0.2"/>
     <use xlink:href="#m1d42f8f590" x="57.79625" y="52.032726" style="fill: #9f3131; fill-opacity: 0.2"/>
     <use xlink:href="#m1d42f8f590" x="57.79625" y="43.397044" style="fill: #9f3131; fill-opacity: 0.2"/>
     <use xlink:href="#m1d42f8f590" x="57.79625" y="19.648918" style="fill: #9f3131; fill-opacity: 0.2"/>
     <use xlink:href="#m1d42f8f590" x="57.79625" y="47.714885" style="fill: #9f3131; fill-opacity: 0.2"/>
     <use xlink:href="#m1d42f8f590" x="57.79625" y="23.966759" style="fill: #9f3131; fill-opacity: 0.2"/>
     <use xlink:href="#m1d42f8f590" x="57.79625" y="19.648918" style="fill: #9f3131; fill-opacity: 0.2"/>
     <use xlink:href="#m1d42f8f590" x="57.79625" y="47.714885" style="fill: #9f3131; fill-opacity: 0.2"/>
     <use xlink:href="#m1d42f8f590" x="57.79625" y="56.350567" style="fill: #9f3131; fill-opacity: 0.2"/>
     <use xlink:href="#m1d42f8f590" x="57.79625" y="28.2846" style="fill: #9f3131; fill-opacity: 0.2"/>
     <use xlink:href="#m1d42f8f590" x="57.79625" y="52.032726" style="fill: #9f3131; fill-opacity: 0.2"/>
     <use xlink:href="#m1d42f8f590" x="57.79625" y="30.44352" style="fill: #9f3131; fill-opacity: 0.2"/>
     <use xlink:href="#m1d42f8f590" x="57.79625" y="21.807838" style="fill: #9f3131; fill-opacity: 0.2"/>
     <use xlink:href="#m1d42f8f590" x="57.79625" y="43.397044" style="fill: #9f3131; fill-opacity: 0.2"/>
     <use xlink:href="#m1d42f8f590" x="57.79625" y="41.238123" style="fill: #9f3131; fill-opacity: 0.2"/>
     <use xlink:href="#m1d42f8f590" x="57.79625" y="58.509487" style="fill: #9f3131; fill-opacity: 0.2"/>
     <use xlink:href="#m1d42f8f590" x="57.79625" y="34.761362" style="fill: #9f3131; fill-opacity: 0.2"/>
     <use xlink:href="#m1d42f8f590" x="57.79625" y="56.350567" style="fill: #9f3131; fill-opacity: 0.2"/>
     <use xlink:href="#m1d42f8f590" x="57.79625" y="58.509487" style="fill: #9f3131; fill-opacity: 0.2"/>
     <use xlink:href="#m1d42f8f590" x="57.79625" y="28.2846" style="fill: #9f3131; fill-opacity: 0.2"/>
     <use xlink:href="#m1d42f8f590" x="57.79625" y="39.079203" style="fill: #9f3131; fill-opacity: 0.2"/>
     <use xlink:href="#m1d42f8f590" x="57.79625" y="28.2846" style="fill: #9f3131; fill-opacity: 0.2"/>
     <use xlink:href="#m1d42f8f590" x="57.79625" y="62.827329" style="fill: #9f3131; fill-opacity: 0.2"/>
     <use xlink:href="#m1d42f8f590" x="57.79625" y="54.191646" style="fill: #9f3131; fill-opacity: 0.2"/>
    </g>
   </g>
   <g id="line2d_61">
    <path d="M 40.92125 31.315392 
L 29.67125 31.315392 
" clip-path="url(#pb5755a9772)" style="fill: none; stroke: #000000; stroke-width: 0.85; stroke-linecap: square"/>
   </g>
   <g id="line2d_62">
    <path d="M 61.17125 38.58099 
L 72.42125 38.58099 
" clip-path="url(#pb5755a9772)" style="fill: none; stroke: #000000; stroke-width: 0.85; stroke-linecap: square"/>
   </g>
   <g id="LineCollection_1">
    <path d="M 35.29625 32.758241 
L 35.29625 29.872543 
" clip-path="url(#pb5755a9772)" style="fill: none; stroke: #000000; stroke-width: 0.85"/>
   </g>
   <g id="line2d_63">
    <defs>
     <path id="ma8f85e3289" d="M 4 0 
L -4 -0 
" style="stroke: #000000; stroke-width: 0.85"/>
    </defs>
    <g clip-path="url(#pb5755a9772)">
     <use xlink:href="#ma8f85e3289" x="35.29625" y="32.758241" style="stroke: #000000; stroke-width: 0.85"/>
    </g>
   </g>
   <g id="line2d_64">
    <g clip-path="url(#pb5755a9772)">
     <use xlink:href="#ma8f85e3289" x="35.29625" y="29.872543" style="stroke: #000000; stroke-width: 0.85"/>
    </g>
   </g>
   <g id="LineCollection_2">
    <path d="M 66.79625 40.737154 
L 66.79625 36.424827 
" clip-path="url(#pb5755a9772)" style="fill: none; stroke: #000000; stroke-width: 0.85"/>
   </g>
   <g id="line2d_65">
    <g clip-path="url(#pb5755a9772)">
     <use xlink:href="#ma8f85e3289" x="66.79625" y="40.737154" style="stroke: #000000; stroke-width: 0.85"/>
    </g>
   </g>
   <g id="line2d_66">
    <g clip-path="url(#pb5755a9772)">
     <use xlink:href="#ma8f85e3289" x="66.79625" y="36.424827" style="stroke: #000000; stroke-width: 0.85"/>
    </g>
   </g>
   <g id="line2d_67">
    <path d="M 40.92125 15.294375 
L 61.17125 15.294375 
" style="fill: none; stroke: #000000; stroke-width: 0.5; stroke-linecap: square"/>
   </g>
   <g id="text_8">
    <text style="font-size: 12px; font-family: 'Arial'; text-anchor: middle" x="51.04625" y="15.789375" transform="rotate(-0 51.04625 15.789375)">**</text>
   </g>
  </g>
 </g>
 <defs>
  <clipPath id="pb5755a9772">
   <rect x="24.04625" y="16.734375" width="54" height="72"/>
  </clipPath>
 </defs>
</svg>
