<?xml version="1.0" encoding="utf-8" standalone="no"?>
<!DOCTYPE svg PUBLIC "-//W3C//DTD SVG 1.1//EN"
  "http://www.w3.org/Graphics/SVG/1.1/DTD/svg11.dtd">
<svg xmlns:xlink="http://www.w3.org/1999/xlink" width="85.24625pt" height="101.357188pt" viewBox="0 0 85.24625 101.357188" xmlns="http://www.w3.org/2000/svg" version="1.1">
 <metadata>
  <rdf:RDF xmlns:dc="http://purl.org/dc/elements/1.1/" xmlns:cc="http://creativecommons.org/ns#" xmlns:rdf="http://www.w3.org/1999/02/22-rdf-syntax-ns#">
   <cc:Work>
    <dc:type rdf:resource="http://purl.org/dc/dcmitype/StillImage"/>
    <dc:date>2026-03-04T23:12:10.265662</dc:date>
    <dc:format>image/svg+xml</dc:format>
    <dc:creator>
     <cc:Agent>
      <dc:title>Matplotlib v3.10.8, https://matplotlib.org/</dc:title>
     </cc:Agent>
    </dc:creator>
   </cc:Work>
  </rdf:RDF>
 </metadata>
 <defs>
  <style type="text/css">*{stroke-linejoin: round; stroke-linecap: butt}</style>
 </defs>
 <g id="figure_1">
  <g id="patch_1">
   <path d="M 0 101.357188 
L 85.24625 101.357188 
L 85.24625 0 
L 0 0 
z
" style="fill: #ffffff"/>
  </g>
  <g id="axes_1">
   <g id="patch_2">
    <path d="M 24.04625 83.247188 
L 78.04625 83.247188 
L 78.04625 11.247187 
L 24.04625 11.247187 
z
" style="fill: #ffffff"/>
   </g>
   <g id="line2d_1">
    <path d="M 24.04625 48.75617 
L 78.04625 48.75617 
" clip-path="url(#p832cf3f7c7)" style="fill: none; stroke-dasharray: 2.516,1.088; stroke-dashoffset: 0; stroke: #808080; stroke-opacity: 0.5; stroke-width: 0.68"/>
   </g>
   <g id="patch_3">
    <path d="M 40.92125 74.624433 
L 39.877787 74.624433 
L 39.849348 74.32112 
L 39.821248 74.017807 
L 39.793532 73.714494 
L 39.766245 73.411181 
L 39.739429 73.107868 
L 39.713124 72.804555 
L 39.687367 72.501242 
L 39.662193 72.197929 
L 39.637632 71.894616 
L 39.613713 71.591303 
L 39.590461 71.28799 
L 39.567896 70.984677 
L 39.546035 70.681364 
L 39.524892 70.378051 
L 39.504476 70.074738 
L 39.484792 69.771425 
L 39.465843 69.468112 
L 39.447624 69.1648 
L 39.430131 68.861487 
L 39.413351 68.558174 
L 39.39727 68.254861 
L 39.381869 67.951548 
L 39.367126 67.648235 
L 39.353014 67.344922 
L 39.339504 67.041609 
L 39.326561 66.738296 
L 39.314148 66.434983 
L 39.302225 66.13167 
L 39.290749 65.828357 
L 39.279671 65.525044 
L 39.268943 65.221731 
L 39.258512 64.918418 
L 39.248322 64.615105 
L 39.238314 64.311792 
L 39.22843 64.008479 
L 39.218604 63.705166 
L 39.208772 63.401853 
L 39.198867 63.09854 
L 39.188817 62.795227 
L 39.178552 62.491914 
L 39.167996 62.188601 
L 39.157075 61.885288 
L 39.145709 61.581975 
L 39.133819 61.278662 
L 39.121322 60.975349 
L 39.108136 60.672036 
L 39.094176 60.368723 
L 39.079354 60.06541 
L 39.063582 59.762097 
L 39.046771 59.458784 
L 39.028831 59.155471 
L 39.009671 58.852158 
L 38.989198 58.548845 
L 38.967321 58.245533 
L 38.943947 57.94222 
L 38.918984 57.638907 
L 38.892342 57.335594 
L 38.86393 57.032281 
L 38.833661 56.728968 
L 38.801447 56.425655 
L 38.767206 56.122342 
L 38.730857 55.819029 
L 38.692324 55.515716 
L 38.651535 55.212403 
L 38.608423 54.90909 
L 38.562927 54.605777 
L 38.514992 54.302464 
L 38.464569 53.999151 
L 38.411618 53.695838 
L 38.356107 53.392525 
L 38.298012 53.089212 
L 38.237318 52.785899 
L 38.17402 52.482586 
L 38.108123 52.179273 
L 38.039641 51.87596 
L 37.968602 51.572647 
L 37.895042 51.269334 
L 37.819009 50.966021 
L 37.74056 50.662708 
L 37.659767 50.359395 
L 37.57671 50.056082 
L 37.491479 49.752769 
L 37.404177 49.449456 
L 37.314915 49.146143 
L 37.223814 48.84283 
L 37.131004 48.539517 
L 37.036623 48.236204 
L 36.940817 47.932891 
L 36.843737 47.629578 
L 36.745543 47.326266 
L 36.646397 47.022953 
L 36.546466 46.71964 
L 36.44592 46.416327 
L 36.34493 46.113014 
L 36.243668 45.809701 
L 36.142306 45.506388 
L 36.041015 45.203075 
L 35.93996 44.899762 
L 35.839306 44.596449 
L 35.739209 44.293136 
L 35.639822 43.989823 
L 35.541289 43.68651 
L 35.443746 43.383197 
L 35.347319 43.079884 
L 35.252123 42.776571 
L 35.158264 42.473258 
L 35.065833 42.169945 
L 34.974909 41.866632 
L 34.885559 41.563319 
L 34.797833 41.260006 
L 34.711768 40.956693 
L 34.627385 40.65338 
L 34.544691 40.350067 
L 34.463677 40.046754 
L 34.384316 39.743441 
L 34.306569 39.440128 
L 34.230381 39.136815 
L 34.15568 38.833502 
L 34.082381 38.530189 
L 34.010385 38.226876 
L 33.939582 37.923563 
L 33.869845 37.62025 
L 33.80104 37.316937 
L 33.733021 37.013624 
L 33.665634 36.710312 
L 33.598715 36.406999 
L 33.532097 36.103686 
L 33.465606 35.800373 
L 33.399066 35.49706 
L 33.3323 35.193747 
L 33.26513 34.890434 
L 33.197381 34.587121 
L 33.128881 34.283808 
L 33.059466 33.980495 
L 32.988976 33.677182 
L 32.917263 33.373869 
L 32.844191 33.070556 
L 32.769633 32.767243 
L 32.693481 32.46393 
L 32.615641 32.160617 
L 32.536037 31.857304 
L 32.454612 31.553991 
L 32.371329 31.250678 
L 32.286175 30.947365 
L 32.199157 30.644052 
L 32.110308 30.340739 
L 32.019682 30.037426 
L 31.927362 29.734113 
L 31.833453 29.4308 
L 31.738087 29.127487 
L 31.641422 28.824174 
L 31.54364 28.520861 
L 31.44495 28.217548 
L 31.345582 27.914235 
L 31.245795 27.610922 
L 31.145866 27.307609 
L 31.046099 27.004296 
L 30.946814 26.700983 
L 30.848354 26.39767 
L 30.75108 26.094357 
L 30.655367 25.791045 
L 30.561606 25.487732 
L 30.470203 25.184419 
L 30.381571 24.881106 
L 30.296135 24.577793 
L 30.214326 24.27448 
L 30.136579 23.971167 
L 30.06333 23.667854 
L 29.995018 23.364541 
L 29.932076 23.061228 
L 29.874935 22.757915 
L 29.824016 22.454602 
L 29.779731 22.151289 
L 29.742481 21.847976 
L 29.71265 21.544663 
L 29.690606 21.24135 
L 29.676698 20.938037 
L 29.67125 20.634724 
L 29.674566 20.331411 
L 29.68692 20.028098 
L 29.708559 19.724785 
L 29.739701 19.421472 
L 29.780528 19.118159 
L 29.831193 18.814846 
L 29.891809 18.511533 
L 29.962454 18.20822 
L 30.043168 17.904907 
L 30.133952 17.601594 
L 30.234768 17.298281 
L 30.345537 16.994968 
L 30.466139 16.691655 
L 30.596414 16.388342 
L 30.736163 16.085029 
L 30.885146 15.781716 
L 31.043084 15.478403 
L 31.209662 15.17509 
L 31.384526 14.871778 
L 31.567289 14.568465 
L 31.757531 14.265152 
L 40.92125 14.265152 
z
" clip-path="url(#p832cf3f7c7)" style="fill: #20590b; opacity: 0.2"/>
   </g>
   <g id="patch_4">
    <path d="M 61.17125 68.157367 
L 62.154077 68.157367 
L 62.170166 67.886552 
L 62.185299 67.615737 
L 62.199474 67.344922 
L 62.2127 67.074107 
L 62.224995 66.803291 
L 62.236388 66.532476 
L 62.246921 66.261661 
L 62.256644 65.990846 
L 62.265619 65.720031 
L 62.273921 65.449216 
L 62.281633 65.1784 
L 62.28885 64.907585 
L 62.295677 64.63677 
L 62.302227 64.365955 
L 62.308626 64.09514 
L 62.315005 63.824325 
L 62.321503 63.55351 
L 62.328268 63.282694 
L 62.335451 63.011879 
L 62.343209 62.741064 
L 62.351704 62.470249 
L 62.361098 62.199434 
L 62.371557 61.928619 
L 62.383244 61.657803 
L 62.396324 61.386988 
L 62.410958 61.116173 
L 62.427301 60.845358 
L 62.445505 60.574543 
L 62.465716 60.303728 
L 62.488069 60.032913 
L 62.512694 59.762097 
L 62.539706 59.491282 
L 62.569212 59.220467 
L 62.601304 58.949652 
L 62.636062 58.678837 
L 62.67355 58.408022 
L 62.713819 58.137206 
L 62.756901 57.866391 
L 62.802814 57.595576 
L 62.851559 57.324761 
L 62.903119 57.053946 
L 62.95746 56.783131 
L 63.014533 56.512316 
L 63.074269 56.2415 
L 63.136587 55.970685 
L 63.201388 55.69987 
L 63.268557 55.429055 
L 63.337968 55.15824 
L 63.409481 54.887425 
L 63.482943 54.616609 
L 63.558194 54.345794 
L 63.635061 54.074979 
L 63.713367 53.804164 
L 63.792928 53.533349 
L 63.873557 53.262534 
L 63.955064 52.991719 
L 64.037258 52.720903 
L 64.119953 52.450088 
L 64.202961 52.179273 
L 64.286104 51.908458 
L 64.369208 51.637643 
L 64.45211 51.366828 
L 64.534654 51.096012 
L 64.616699 50.825197 
L 64.698115 50.554382 
L 64.778788 50.283567 
L 64.858619 50.012752 
L 64.937524 49.741937 
L 65.015439 49.471122 
L 65.092316 49.200306 
L 65.168126 48.929491 
L 65.242858 48.658676 
L 65.31652 48.387861 
L 65.389137 48.117046 
L 65.460755 47.846231 
L 65.531434 47.575415 
L 65.601252 47.3046 
L 65.670302 47.033785 
L 65.738693 46.76297 
L 65.806546 46.492155 
L 65.873993 46.22134 
L 65.941178 45.950525 
L 66.008252 45.679709 
L 66.075374 45.408894 
L 66.142708 45.138079 
L 66.210421 44.867264 
L 66.278681 44.596449 
L 66.347656 44.325634 
L 66.417511 44.054818 
L 66.488408 43.784003 
L 66.560502 43.513188 
L 66.633941 43.242373 
L 66.708864 42.971558 
L 66.785397 42.700743 
L 66.863657 42.429928 
L 66.943746 42.159112 
L 67.025752 41.888297 
L 67.109747 41.617482 
L 67.195788 41.346667 
L 67.283913 41.075852 
L 67.374146 40.805037 
L 67.46649 40.534221 
L 67.560932 40.263406 
L 67.657443 39.992591 
L 67.755973 39.721776 
L 67.856459 39.450961 
L 67.958818 39.180146 
L 68.062954 38.909331 
L 68.168753 38.638515 
L 68.27609 38.3677 
L 68.384824 38.096885 
L 68.494804 37.82607 
L 68.605868 37.555255 
L 68.717844 37.28444 
L 68.83055 37.013624 
L 68.9438 36.742809 
L 69.0574 36.471994 
L 69.171153 36.201179 
L 69.284859 35.930364 
L 69.398315 35.659549 
L 69.51132 35.388734 
L 69.623673 35.117918 
L 69.735174 34.847103 
L 69.845629 34.576288 
L 69.954846 34.305473 
L 70.062641 34.034658 
L 70.168835 33.763843 
L 70.273259 33.493027 
L 70.375749 33.222212 
L 70.476154 32.951397 
L 70.574331 32.680582 
L 70.670148 32.409767 
L 70.763485 32.138952 
L 70.854233 31.868137 
L 70.942296 31.597321 
L 71.02759 31.326506 
L 71.110044 31.055691 
L 71.189601 30.784876 
L 71.266216 30.514061 
L 71.339858 30.243246 
L 71.410507 29.97243 
L 71.47816 29.701615 
L 71.542824 29.4308 
L 71.604519 29.159985 
L 71.663277 28.88917 
L 71.719142 28.618355 
L 71.772169 28.34754 
L 71.822421 28.076724 
L 71.869974 27.805909 
L 71.91491 27.535094 
L 71.957319 27.264279 
L 71.997295 26.993464 
L 72.03494 26.722649 
L 72.070357 26.451833 
L 72.10365 26.181018 
L 72.134924 25.910203 
L 72.164284 25.639388 
L 72.191826 25.368573 
L 72.217646 25.097758 
L 72.241828 24.826943 
L 72.264448 24.556127 
L 72.285571 24.285312 
L 72.305246 24.014497 
L 72.323507 23.743682 
L 72.340371 23.472867 
L 72.355836 23.202052 
L 72.369876 22.931236 
L 72.382446 22.660421 
L 72.393474 22.389606 
L 72.402866 22.118791 
L 72.410499 21.847976 
L 72.416227 21.577161 
L 72.419877 21.306346 
L 72.42125 21.03553 
L 72.420121 20.764715 
L 72.416241 20.4939 
L 72.40934 20.223085 
L 72.399123 19.95227 
L 72.385281 19.681455 
L 72.367484 19.410639 
L 72.345392 19.139824 
L 72.318651 18.869009 
L 72.286904 18.598194 
L 72.249788 18.327379 
L 72.206943 18.056564 
L 72.158012 17.785749 
L 72.102648 17.514933 
L 72.04052 17.244118 
L 71.971312 16.973303 
L 71.894731 16.702488 
L 71.810512 16.431673 
L 71.718419 16.160858 
L 71.618252 15.890042 
L 71.509848 15.619227 
L 71.393085 15.348412 
L 71.267886 15.077597 
L 71.134219 14.806782 
L 70.992102 14.535967 
L 70.8416 14.265152 
L 61.17125 14.265152 
z
" clip-path="url(#p832cf3f7c7)" style="fill: #9f3131; opacity: 0.2"/>
   </g>
   <g id="matplotlib.axis_1">
    <g id="xtick_1">
     <g id="line2d_2">
      <defs>
       <path id="m61780559dd" d="M 0 0 
L 0 -4 
" style="stroke: #000000; stroke-width: 0.5"/>
      </defs>
      <g>
       <use xlink:href="#m61780559dd" x="40.92125" y="83.247188" style="stroke: #000000; stroke-width: 0.5"/>
      </g>
     </g>
     <g id="text_1">
      <text style="font-size: 8px; font-family: 'Arial'; text-anchor: middle" x="40.92125" y="92.473438" transform="rotate(-0 40.92125 92.473438)">Positive</text>
     </g>
    </g>
    <g id="xtick_2">
     <g id="line2d_3">
      <g>
       <use xlink:href="#m61780559dd" x="61.17125" y="83.247188" style="stroke: #000000; stroke-width: 0.5"/>
      </g>
     </g>
     <g id="text_2">
      <text style="font-size: 8px; font-family: 'Arial'; text-anchor: middle" x="61.17125" y="92.473438" transform="rotate(-0 61.17125 92.473438)">Negative</text>
     </g>
    </g>
   </g>
   <g id="matplotlib.axis_2">
    <g id="ytick_1">
     <g id="line2d_4">
      <defs>
       <path id="m55212abf50" d="M 0 0 
L 4 0 
" style="stroke: #000000; stroke-width: 0.5"/>
      </defs>
      <g>
       <use xlink:href="#m55212abf50" x="24.04625" y="83.247188" style="stroke: #000000; stroke-width: 0.5"/>
      </g>
     </g>
     <g id="text_3">
      <text style="font-size: 8px; font-family: 'Arial'; text-anchor: end" x="20.54625" y="86.110313" transform="rotate(-0 20.54625 86.110313)">0</text>
     </g>
    </g>
    <g id="ytick_2">
     <g id="line2d_5">
      <g>
       <use xlink:href="#m55212abf50" x="24.04625" y="66.001679" style="stroke: #000000; stroke-width: 0.5"/>
      </g>
     </g>
     <g id="text_4">
      <text style="font-size: 8px; font-family: 'Arial'; text-anchor: end" x="20.54625" y="68.864804" transform="rotate(-0 20.54625 68.864804)">25</text>
     </g>
    </g>
    <g id="ytick_3">
     <g id="line2d_6">
      <g>
       <use xlink:href="#m55212abf50" x="24.04625" y="48.75617" style="stroke: #000000; stroke-width: 0.5"/>
      </g>
     </g>
     <g id="text_5">
      <text style="font-size: 8px; font-family: 'Arial'; text-anchor: end" x="20.54625" y="51.619295" transform="rotate(-0 20.54625 51.619295)">50</text>
     </g>
    </g>
    <g id="ytick_4">
     <g id="line2d_7">
      <g>
       <use xlink:href="#m55212abf50" x="24.04625" y="31.510661" style="stroke: #000000; stroke-width: 0.5"/>
      </g>
     </g>
     <g id="text_6">
      <text style="font-size: 8px; font-family: 'Arial'; text-anchor: end" x="20.54625" y="34.373786" transform="rotate(-0 20.54625 34.373786)">75</text>
     </g>
    </g>
    <g id="ytick_5">
     <g id="line2d_8">
      <g>
       <use xlink:href="#m55212abf50" x="24.04625" y="14.265152" style="stroke: #000000; stroke-width: 0.5"/>
      </g>
     </g>
     <g id="text_7">
      <text style="font-size: 8px; font-family: 'Arial'; text-anchor: end" x="20.54625" y="17.128277" transform="rotate(-0 20.54625 17.128277)">100</text>
     </g>
    </g>
   </g>
   <g id="patch_5">
    <path d="M 40.92125 34.956843 
L 33.279837 34.956843 
L 33.269915 34.912038 
L 33.259948 34.867234 
L 33.24994 34.822429 
L 33.239933 34.777625 
L 33.229925 34.732821 
L 33.219917 34.688016 
L 33.20991 34.643212 
L 33.199902 34.598408 
L 33.189811 34.553603 
L 33.179693 34.508799 
L 33.169574 34.463994 
L 33.159456 34.41919 
L 33.149337 34.374386 
L 33.139219 34.329581 
L 33.1291 34.284777 
L 33.118849 34.239972 
L 33.108595 34.195168 
L 33.098341 34.150364 
L 33.088088 34.105559 
L 33.077834 34.060755 
L 33.06758 34.015951 
L 33.057293 33.971146 
L 33.04688 33.926342 
L 33.036468 33.881537 
L 33.026055 33.836733 
L 33.015643 33.791929 
L 33.00523 33.747124 
L 32.994818 33.70232 
L 32.984326 33.657516 
L 32.973733 33.612711 
L 32.96314 33.567907 
L 32.952547 33.523102 
L 32.941954 33.478298 
L 32.93136 33.433494 
L 32.920767 33.388689 
L 32.91004 33.343885 
L 32.899246 33.29908 
L 32.888452 33.254276 
L 32.877658 33.209472 
L 32.866864 33.164667 
L 32.85607 33.119863 
L 32.845275 33.075059 
L 32.834284 33.030254 
L 32.823271 32.98545 
L 32.812257 32.940645 
L 32.801244 32.895841 
L 32.790231 32.851037 
L 32.779217 32.806232 
L 32.768173 32.761428 
L 32.756925 32.716624 
L 32.745676 32.671819 
L 32.734427 32.627015 
L 32.723178 32.58221 
L 32.711929 32.537406 
L 32.70068 32.492602 
L 32.689341 32.447797 
L 32.677843 32.402993 
L 32.666345 32.358188 
L 32.654846 32.313384 
L 32.643348 32.26858 
L 32.63185 32.223775 
L 32.620352 32.178971 
L 32.608699 32.134167 
L 32.596941 32.089362 
L 32.585182 32.044558 
L 32.573423 31.999753 
L 32.561664 31.954949 
L 32.549905 31.910145 
L 32.538146 31.86534 
L 32.526166 31.820536 
L 32.514139 31.775732 
L 32.502111 31.730927 
L 32.490083 31.686123 
L 32.478055 31.641318 
L 32.466027 31.596514 
L 32.453985 31.55171 
L 32.441683 31.506905 
L 32.429381 31.462101 
L 32.417079 31.417297 
L 32.404776 31.372492 
L 32.392474 31.327688 
L 32.380172 31.282883 
L 32.367792 31.238079 
L 32.355213 31.193275 
L 32.342635 31.14847 
L 32.330056 31.103666 
L 32.317477 31.058861 
L 32.304899 31.014057 
L 32.29232 30.969253 
L 32.2796 30.924448 
L 32.266747 30.879644 
L 32.253893 30.83484 
L 32.241039 30.790035 
L 32.228185 30.745231 
L 32.215331 30.700426 
L 32.202477 30.655622 
L 32.189422 30.610818 
L 32.176297 30.566013 
L 32.163173 30.521209 
L 32.150048 30.476405 
L 32.136924 30.4316 
L 32.123799 30.386796 
L 32.110674 30.341991 
L 32.097295 30.297187 
L 32.083908 30.252383 
L 32.070521 30.207578 
L 32.057134 30.162774 
L 32.043747 30.117969 
L 32.030361 30.073165 
L 32.016923 30.028361 
L 32.003286 29.983556 
L 31.989648 29.938752 
L 31.976011 29.893948 
L 31.962374 29.849143 
L 31.948737 29.804339 
L 31.9351 29.759534 
L 31.921361 29.71473 
L 31.907489 29.669926 
L 31.893617 29.625121 
L 31.879745 29.580317 
L 31.865873 29.535513 
L 31.852001 29.490708 
L 31.838129 29.445904 
L 31.824115 29.401099 
L 31.810028 29.356295 
L 31.795941 29.311491 
L 31.781853 29.266686 
L 31.767766 29.221882 
L 31.753679 29.177077 
L 31.739592 29.132273 
L 31.725334 29.087469 
L 31.711055 29.042664 
L 31.696776 28.99786 
L 31.682496 28.953056 
L 31.668217 28.908251 
L 31.653938 28.863447 
L 31.639639 28.818642 
L 31.625195 28.773838 
L 31.610751 28.729034 
L 31.596307 28.684229 
L 31.581863 28.639425 
L 31.567419 28.594621 
L 31.552975 28.549816 
L 31.538483 28.505012 
L 31.523905 28.460207 
L 31.509327 28.415403 
L 31.494748 28.370599 
L 31.48017 28.325794 
L 31.465592 28.28099 
L 31.451014 28.236186 
L 31.436377 28.191381 
L 31.421699 28.146577 
L 31.407021 28.101772 
L 31.392342 28.056968 
L 31.377664 28.012164 
L 31.362986 27.967359 
L 31.348308 27.922555 
L 31.333579 27.87775 
L 31.318839 27.832946 
L 31.304098 27.788142 
L 31.289358 27.743337 
L 31.274618 27.698533 
L 31.259877 27.653729 
L 31.245136 27.608924 
L 31.230375 27.56412 
L 31.215614 27.519315 
L 31.200853 27.474511 
L 31.186092 27.429707 
L 31.171331 27.384902 
L 31.15657 27.340098 
L 31.141815 27.295294 
L 31.127078 27.250489 
L 31.112341 27.205685 
L 31.097603 27.16088 
L 31.082866 27.116076 
L 31.068129 27.071272 
L 31.053391 27.026467 
L 31.03869 26.981663 
L 31.024024 26.936858 
L 31.009358 26.892054 
L 30.994692 26.84725 
L 30.980026 26.802445 
L 30.96536 26.757641 
L 30.950694 26.712837 
L 30.936118 26.668032 
L 30.921573 26.623228 
L 30.907029 26.578423 
L 30.892485 26.533619 
L 30.877941 26.488815 
L 30.863397 26.44401 
L 30.848853 26.399206 
L 30.834478 26.354402 
L 30.820109 26.309597 
L 30.80574 26.264793 
L 30.79137 26.219988 
L 30.777001 26.175184 
L 30.762632 26.13038 
L 30.748308 26.085575 
L 30.73417 26.040771 
L 40.92125 26.040771 
z
" clip-path="url(#p832cf3f7c7)" style="fill: #20590b; opacity: 0.4"/>
   </g>
   <g id="patch_6">
    <path d="M 29.67125 34.956843 
L 40.92125 34.956843 
L 40.92125 26.040771 
L 29.67125 26.040771 
L 29.67125 34.956843 
z
" style="fill: none; stroke: #20590b; stroke-width: 0.85; stroke-linejoin: miter"/>
   </g>
   <g id="patch_7">
    <path d="M 61.17125 32.969207 
L 70.469551 32.969207 
L 70.483988 32.929788 
L 70.498278 32.890369 
L 70.512569 32.85095 
L 70.526859 32.811531 
L 70.541149 32.772112 
L 70.55544 32.732693 
L 70.56973 32.693274 
L 70.583787 32.653855 
L 70.597734 32.614436 
L 70.611681 32.575017 
L 70.625628 32.535598 
L 70.639575 32.496179 
L 70.653521 32.45676 
L 70.667468 32.417341 
L 70.681123 32.377922 
L 70.694709 32.338503 
L 70.708295 32.299084 
L 70.721881 32.259665 
L 70.735467 32.220246 
L 70.749053 32.180827 
L 70.762638 32.141408 
L 70.775871 32.101989 
L 70.78908 32.06257 
L 70.802289 32.023151 
L 70.815498 31.983732 
L 70.828707 31.944313 
L 70.841916 31.904894 
L 70.855098 31.865475 
L 70.867917 31.826056 
L 70.880735 31.786637 
L 70.893553 31.747218 
L 70.906371 31.707799 
L 70.919189 31.66838 
L 70.932007 31.628961 
L 70.944746 31.589542 
L 70.957161 31.550123 
L 70.969576 31.510704 
L 70.981991 31.471285 
L 70.994407 31.431866 
L 71.006822 31.392447 
L 71.019237 31.353028 
L 71.031517 31.313609 
L 71.043519 31.27419 
L 71.05552 31.234771 
L 71.067522 31.195352 
L 71.079524 31.155933 
L 71.091526 31.116514 
L 71.103528 31.077095 
L 71.115337 31.037676 
L 71.126917 30.998257 
L 71.138497 30.958838 
L 71.150077 30.919419 
L 71.161657 30.88 
L 71.173237 30.840581 
L 71.184817 30.801162 
L 71.196146 30.761743 
L 71.207298 30.722324 
L 71.218449 30.682905 
L 71.229601 30.643486 
L 71.240753 30.604067 
L 71.251905 30.564648 
L 71.263057 30.525229 
L 71.273898 30.48581 
L 71.284617 30.446391 
L 71.295336 30.406972 
L 71.306055 30.367553 
L 71.316774 30.328134 
L 71.327493 30.288715 
L 71.338212 30.249296 
L 71.348563 30.209877 
L 71.358846 30.170458 
L 71.36913 30.131039 
L 71.379413 30.09162 
L 71.389697 30.052201 
L 71.399981 30.012782 
L 71.410264 29.973363 
L 71.420122 29.933944 
L 71.429969 29.894525 
L 71.439817 29.855106 
L 71.449664 29.815687 
L 71.459511 29.776268 
L 71.469359 29.736849 
L 71.47916 29.69743 
L 71.488572 29.658011 
L 71.497984 29.618592 
L 71.507397 29.579173 
L 71.516809 29.539754 
L 71.526221 29.500335 
L 71.535633 29.460916 
L 71.544944 29.421497 
L 71.553924 29.382078 
L 71.562904 29.342659 
L 71.571884 29.30324 
L 71.580864 29.263821 
L 71.589844 29.224402 
L 71.598824 29.184983 
L 71.607648 29.145564 
L 71.616201 29.106145 
L 71.624753 29.066726 
L 71.633306 29.027307 
L 71.641859 28.987888 
L 71.650411 28.948469 
L 71.658964 28.90905 
L 71.667308 28.869631 
L 71.675439 28.830212 
L 71.683571 28.790793 
L 71.691702 28.751374 
L 71.699834 28.711955 
L 71.707965 28.672536 
L 71.716097 28.633117 
L 71.72397 28.593698 
L 71.731688 28.554279 
L 71.739407 28.51486 
L 71.747125 28.475441 
L 71.754843 28.436022 
L 71.762562 28.396603 
L 71.77028 28.357184 
L 71.777694 28.317765 
L 71.785008 28.278346 
L 71.792323 28.238927 
L 71.799637 28.199508 
L 71.806952 28.160089 
L 71.814267 28.12067 
L 71.821581 28.081251 
L 71.828548 28.041832 
L 71.83547 28.002413 
L 71.842391 27.962994 
L 71.849313 27.923575 
L 71.856235 27.884156 
L 71.863157 27.844737 
L 71.870072 27.805318 
L 71.876613 27.765899 
L 71.883154 27.72648 
L 71.889695 27.687061 
L 71.896235 27.647642 
L 71.902776 27.608223 
L 71.909317 27.568804 
L 71.915804 27.529385 
L 71.921977 27.489966 
L 71.92815 27.450547 
L 71.934323 27.411128 
L 71.940496 27.371709 
L 71.946669 27.33229 
L 71.952841 27.292871 
L 71.958917 27.253452 
L 71.964736 27.214033 
L 71.970555 27.174614 
L 71.976374 27.135195 
L 71.982192 27.095776 
L 71.988011 27.056357 
L 71.99383 27.016938 
L 71.999512 26.977519 
L 72.004991 26.9381 
L 72.010471 26.898681 
L 72.01595 26.859262 
L 72.02143 26.819843 
L 72.026909 26.780424 
L 72.032388 26.741005 
L 72.037695 26.701586 
L 72.04285 26.662167 
L 72.048005 26.622748 
L 72.05316 26.583329 
L 72.058315 26.54391 
L 72.06347 26.504491 
L 72.068625 26.465072 
L 72.073575 26.425653 
L 72.078421 26.386234 
L 72.083267 26.346815 
L 72.088113 26.307396 
L 72.092959 26.267977 
L 72.097805 26.228558 
L 72.102651 26.189139 
L 72.107264 26.14972 
L 72.111817 26.110301 
L 72.116369 26.070882 
L 72.120921 26.031463 
L 72.125473 25.992044 
L 72.130025 25.952625 
L 72.134578 25.913206 
L 72.138872 25.873787 
L 72.143146 25.834368 
L 72.147419 25.794949 
L 72.151693 25.75553 
L 72.155966 25.716111 
L 72.16024 25.676692 
L 72.164499 25.637273 
L 72.168508 25.597854 
L 72.172517 25.558435 
L 72.176526 25.519016 
L 72.180535 25.479597 
L 72.184544 25.440178 
L 72.188553 25.400759 
L 72.192516 25.36134 
L 72.196274 25.321921 
L 72.200032 25.282502 
L 72.203791 25.243083 
L 72.207549 25.203664 
L 72.211307 25.164245 
L 72.215065 25.124826 
L 61.17125 25.124826 
z
" clip-path="url(#p832cf3f7c7)" style="fill: #9f3131; opacity: 0.4"/>
   </g>
   <g id="patch_8">
    <path d="M 61.17125 32.969207 
L 72.42125 32.969207 
L 72.42125 25.124826 
L 61.17125 25.124826 
L 61.17125 32.969207 
z
" style="fill: none; stroke: #9f3131; stroke-width: 0.85; stroke-linejoin: miter"/>
   </g>
   <g id="line2d_9">
    <path d="M 44.29625 16.42084 
L 57.79625 14.265152 
" clip-path="url(#p832cf3f7c7)" style="fill: none; stroke: #999999; stroke-opacity: 0.8; stroke-width: 0.3; stroke-linecap: square"/>
   </g>
   <g id="line2d_10">
    <path d="M 44.29625 33.666349 
L 57.79625 14.265152 
" clip-path="url(#p832cf3f7c7)" style="fill: none; stroke: #999999; stroke-opacity: 0.8; stroke-width: 0.3; stroke-linecap: square"/>
   </g>
   <g id="line2d_11">
    <path d="M 44.29625 66.001679 
L 57.79625 25.043595 
" clip-path="url(#p832cf3f7c7)" style="fill: none; stroke: #999999; stroke-opacity: 0.8; stroke-width: 0.3; stroke-linecap: square"/>
   </g>
   <g id="line2d_12">
    <path d="M 44.29625 16.42084 
L 57.79625 31.510661 
" clip-path="url(#p832cf3f7c7)" style="fill: none; stroke: #999999; stroke-opacity: 0.8; stroke-width: 0.3; stroke-linecap: square"/>
   </g>
   <g id="line2d_13">
    <path d="M 44.29625 25.043595 
L 57.79625 31.510661 
" clip-path="url(#p832cf3f7c7)" style="fill: none; stroke: #999999; stroke-opacity: 0.8; stroke-width: 0.3; stroke-linecap: square"/>
   </g>
   <g id="line2d_14">
    <path d="M 44.29625 40.133415 
L 57.79625 25.043595 
" clip-path="url(#p832cf3f7c7)" style="fill: none; stroke: #999999; stroke-opacity: 0.8; stroke-width: 0.3; stroke-linecap: square"/>
   </g>
   <g id="line2d_15">
    <path d="M 44.29625 22.887906 
L 57.79625 46.600481 
" clip-path="url(#p832cf3f7c7)" style="fill: none; stroke: #999999; stroke-opacity: 0.8; stroke-width: 0.3; stroke-linecap: square"/>
   </g>
   <g id="line2d_16">
    <path d="M 44.29625 40.133415 
L 57.79625 33.666349 
" clip-path="url(#p832cf3f7c7)" style="fill: none; stroke: #999999; stroke-opacity: 0.8; stroke-width: 0.3; stroke-linecap: square"/>
   </g>
   <g id="line2d_17">
    <path d="M 44.29625 14.265152 
L 57.79625 14.265152 
" clip-path="url(#p832cf3f7c7)" style="fill: none; stroke: #999999; stroke-opacity: 0.8; stroke-width: 0.3; stroke-linecap: square"/>
   </g>
   <g id="line2d_18">
    <path d="M 44.29625 25.043595 
L 57.79625 40.133415 
" clip-path="url(#p832cf3f7c7)" style="fill: none; stroke: #999999; stroke-opacity: 0.8; stroke-width: 0.3; stroke-linecap: square"/>
   </g>
   <g id="line2d_19">
    <path d="M 44.29625 40.133415 
L 57.79625 22.887906 
" clip-path="url(#p832cf3f7c7)" style="fill: none; stroke: #999999; stroke-opacity: 0.8; stroke-width: 0.3; stroke-linecap: square"/>
   </g>
   <g id="line2d_20">
    <path d="M 44.29625 16.42084 
L 57.79625 14.265152 
" clip-path="url(#p832cf3f7c7)" style="fill: none; stroke: #999999; stroke-opacity: 0.8; stroke-width: 0.3; stroke-linecap: square"/>
   </g>
   <g id="line2d_21">
    <path d="M 44.29625 42.289104 
L 57.79625 35.822038 
" clip-path="url(#p832cf3f7c7)" style="fill: none; stroke: #999999; stroke-opacity: 0.8; stroke-width: 0.3; stroke-linecap: square"/>
   </g>
   <g id="line2d_22">
    <path d="M 44.29625 14.265152 
L 57.79625 14.265152 
" clip-path="url(#p832cf3f7c7)" style="fill: none; stroke: #999999; stroke-opacity: 0.8; stroke-width: 0.3; stroke-linecap: square"/>
   </g>
   <g id="line2d_23">
    <path d="M 44.29625 31.510661 
L 57.79625 25.043595 
" clip-path="url(#p832cf3f7c7)" style="fill: none; stroke: #999999; stroke-opacity: 0.8; stroke-width: 0.3; stroke-linecap: square"/>
   </g>
   <g id="line2d_24">
    <path d="M 44.29625 25.043595 
L 57.79625 31.510661 
" clip-path="url(#p832cf3f7c7)" style="fill: none; stroke: #999999; stroke-opacity: 0.8; stroke-width: 0.3; stroke-linecap: square"/>
   </g>
   <g id="line2d_25">
    <path d="M 44.29625 68.157367 
L 57.79625 25.043595 
" clip-path="url(#p832cf3f7c7)" style="fill: none; stroke: #999999; stroke-opacity: 0.8; stroke-width: 0.3; stroke-linecap: square"/>
   </g>
   <g id="line2d_26">
    <path d="M 44.29625 48.75617 
L 57.79625 16.42084 
" clip-path="url(#p832cf3f7c7)" style="fill: none; stroke: #999999; stroke-opacity: 0.8; stroke-width: 0.3; stroke-linecap: square"/>
   </g>
   <g id="line2d_27">
    <path d="M 44.29625 14.265152 
L 57.79625 33.666349 
" clip-path="url(#p832cf3f7c7)" style="fill: none; stroke: #999999; stroke-opacity: 0.8; stroke-width: 0.3; stroke-linecap: square"/>
   </g>
   <g id="line2d_28">
    <path d="M 44.29625 57.378924 
L 57.79625 20.732217 
" clip-path="url(#p832cf3f7c7)" style="fill: none; stroke: #999999; stroke-opacity: 0.8; stroke-width: 0.3; stroke-linecap: square"/>
   </g>
   <g id="line2d_29">
    <path d="M 44.29625 37.977726 
L 57.79625 48.75617 
" clip-path="url(#p832cf3f7c7)" style="fill: none; stroke: #999999; stroke-opacity: 0.8; stroke-width: 0.3; stroke-linecap: square"/>
   </g>
   <g id="line2d_30">
    <path d="M 44.29625 22.887906 
L 57.79625 33.666349 
" clip-path="url(#p832cf3f7c7)" style="fill: none; stroke: #999999; stroke-opacity: 0.8; stroke-width: 0.3; stroke-linecap: square"/>
   </g>
   <g id="line2d_31">
    <path d="M 44.29625 74.624433 
L 57.79625 14.265152 
" clip-path="url(#p832cf3f7c7)" style="fill: none; stroke: #999999; stroke-opacity: 0.8; stroke-width: 0.3; stroke-linecap: square"/>
   </g>
   <g id="line2d_32">
    <path d="M 44.29625 22.887906 
L 57.79625 46.600481 
" clip-path="url(#p832cf3f7c7)" style="fill: none; stroke: #999999; stroke-opacity: 0.8; stroke-width: 0.3; stroke-linecap: square"/>
   </g>
   <g id="line2d_33">
    <path d="M 44.29625 20.732217 
L 57.79625 14.265152 
" clip-path="url(#p832cf3f7c7)" style="fill: none; stroke: #999999; stroke-opacity: 0.8; stroke-width: 0.3; stroke-linecap: square"/>
   </g>
   <g id="line2d_34">
    <path d="M 44.29625 20.732217 
L 57.79625 29.354972 
" clip-path="url(#p832cf3f7c7)" style="fill: none; stroke: #999999; stroke-opacity: 0.8; stroke-width: 0.3; stroke-linecap: square"/>
   </g>
   <g id="line2d_35">
    <path d="M 44.29625 33.666349 
L 57.79625 27.199283 
" clip-path="url(#p832cf3f7c7)" style="fill: none; stroke: #999999; stroke-opacity: 0.8; stroke-width: 0.3; stroke-linecap: square"/>
   </g>
   <g id="line2d_36">
    <path d="M 44.29625 31.510661 
L 57.79625 16.42084 
" clip-path="url(#p832cf3f7c7)" style="fill: none; stroke: #999999; stroke-opacity: 0.8; stroke-width: 0.3; stroke-linecap: square"/>
   </g>
   <g id="line2d_37">
    <path d="M 44.29625 18.576529 
L 57.79625 40.133415 
" clip-path="url(#p832cf3f7c7)" style="fill: none; stroke: #999999; stroke-opacity: 0.8; stroke-width: 0.3; stroke-linecap: square"/>
   </g>
   <g id="line2d_38">
    <path d="M 44.29625 44.444792 
L 57.79625 40.133415 
" clip-path="url(#p832cf3f7c7)" style="fill: none; stroke: #999999; stroke-opacity: 0.8; stroke-width: 0.3; stroke-linecap: square"/>
   </g>
   <g id="line2d_39">
    <path d="M 44.29625 25.043595 
L 57.79625 18.576529 
" clip-path="url(#p832cf3f7c7)" style="fill: none; stroke: #999999; stroke-opacity: 0.8; stroke-width: 0.3; stroke-linecap: square"/>
   </g>
   <g id="line2d_40">
    <path d="M 44.29625 14.265152 
L 57.79625 14.265152 
" clip-path="url(#p832cf3f7c7)" style="fill: none; stroke: #999999; stroke-opacity: 0.8; stroke-width: 0.3; stroke-linecap: square"/>
   </g>
   <g id="line2d_41">
    <path d="M 44.29625 35.822038 
L 57.79625 37.977726 
" clip-path="url(#p832cf3f7c7)" style="fill: none; stroke: #999999; stroke-opacity: 0.8; stroke-width: 0.3; stroke-linecap: square"/>
   </g>
   <g id="line2d_42">
    <path d="M 44.29625 35.822038 
L 57.79625 68.157367 
" clip-path="url(#p832cf3f7c7)" style="fill: none; stroke: #999999; stroke-opacity: 0.8; stroke-width: 0.3; stroke-linecap: square"/>
   </g>
   <g id="line2d_43">
    <path d="M 44.29625 29.354972 
L 57.79625 63.84599 
" clip-path="url(#p832cf3f7c7)" style="fill: none; stroke: #999999; stroke-opacity: 0.8; stroke-width: 0.3; stroke-linecap: square"/>
   </g>
   <g id="line2d_44">
    <path d="M 44.29625 14.265152 
L 57.79625 14.265152 
" clip-path="url(#p832cf3f7c7)" style="fill: none; stroke: #999999; stroke-opacity: 0.8; stroke-width: 0.3; stroke-linecap: square"/>
   </g>
   <g id="line2d_45">
    <path d="M 44.29625 57.378924 
L 57.79625 25.043595 
" clip-path="url(#p832cf3f7c7)" style="fill: none; stroke: #999999; stroke-opacity: 0.8; stroke-width: 0.3; stroke-linecap: square"/>
   </g>
   <g id="line2d_46">
    <path d="M 44.29625 16.42084 
L 57.79625 33.666349 
" clip-path="url(#p832cf3f7c7)" style="fill: none; stroke: #999999; stroke-opacity: 0.8; stroke-width: 0.3; stroke-linecap: square"/>
   </g>
   <g id="line2d_47">
    <path d="M 44.29625 25.043595 
L 57.79625 22.887906 
" clip-path="url(#p832cf3f7c7)" style="fill: none; stroke: #999999; stroke-opacity: 0.8; stroke-width: 0.3; stroke-linecap: square"/>
   </g>
   <g id="line2d_48">
    <path d="M 44.29625 18.576529 
L 57.79625 25.043595 
" clip-path="url(#p832cf3f7c7)" style="fill: none; stroke: #999999; stroke-opacity: 0.8; stroke-width: 0.3; stroke-linecap: square"/>
   </g>
   <g id="line2d_49">
    <path d="M 44.29625 14.265152 
L 57.79625 50.911858 
" clip-path="url(#p832cf3f7c7)" style="fill: none; stroke: #999999; stroke-opacity: 0.8; stroke-width: 0.3; stroke-linecap: square"/>
   </g>
   <g id="line2d_50">
    <path d="M 44.29625 35.822038 
L 57.79625 14.265152 
" clip-path="url(#p832cf3f7c7)" style="fill: none; stroke: #999999; stroke-opacity: 0.8; stroke-width: 0.3; stroke-linecap: square"/>
   </g>
   <g id="line2d_51">
    <path d="M 44.29625 44.444792 
L 57.79625 22.887906 
" clip-path="url(#p832cf3f7c7)" style="fill: none; stroke: #999999; stroke-opacity: 0.8; stroke-width: 0.3; stroke-linecap: square"/>
   </g>
   <g id="line2d_52">
    <path d="M 44.29625 22.887906 
L 57.79625 50.911858 
" clip-path="url(#p832cf3f7c7)" style="fill: none; stroke: #999999; stroke-opacity: 0.8; stroke-width: 0.3; stroke-linecap: square"/>
   </g>
   <g id="line2d_53">
    <path d="M 44.29625 14.265152 
L 57.79625 31.510661 
" clip-path="url(#p832cf3f7c7)" style="fill: none; stroke: #999999; stroke-opacity: 0.8; stroke-width: 0.3; stroke-linecap: square"/>
   </g>
   <g id="line2d_54">
    <path d="M 44.29625 14.265152 
L 57.79625 27.199283 
" clip-path="url(#p832cf3f7c7)" style="fill: none; stroke: #999999; stroke-opacity: 0.8; stroke-width: 0.3; stroke-linecap: square"/>
   </g>
   <g id="line2d_55">
    <path d="M 44.29625 25.043595 
L 57.79625 46.600481 
" clip-path="url(#p832cf3f7c7)" style="fill: none; stroke: #999999; stroke-opacity: 0.8; stroke-width: 0.3; stroke-linecap: square"/>
   </g>
   <g id="line2d_56">
    <path d="M 44.29625 18.576529 
L 57.79625 14.265152 
" clip-path="url(#p832cf3f7c7)" style="fill: none; stroke: #999999; stroke-opacity: 0.8; stroke-width: 0.3; stroke-linecap: square"/>
   </g>
   <g id="line2d_57">
    <path d="M 44.29625 46.600481 
L 57.79625 14.265152 
" clip-path="url(#p832cf3f7c7)" style="fill: none; stroke: #999999; stroke-opacity: 0.8; stroke-width: 0.3; stroke-linecap: square"/>
   </g>
   <g id="patch_9">
    <path d="M 24.04625 83.247188 
L 24.04625 11.247187 
" style="fill: none; stroke: #000000; stroke-width: 0.5; stroke-linejoin: miter; stroke-linecap: square"/>
   </g>
   <g id="patch_10">
    <path d="M 24.04625 83.247188 
L 78.04625 83.247188 
" style="fill: none; stroke: #000000; stroke-width: 0.5; stroke-linejoin: miter; stroke-linecap: square"/>
   </g>
   <g id="PathCollection_1">
    <defs>
     <path id="m601908cadd" d="M 0 1.936492 
C 0.513564 1.936492 1.006162 1.732451 1.369306 1.369306 
C 1.732451 1.006162 1.936492 0.513564 1.936492 0 
C 1.936492 -0.513564 1.732451 -1.006162 1.369306 -1.369306 
C 1.006162 -1.732451 0.513564 -1.936492 0 -1.936492 
C -0.513564 -1.936492 -1.006162 -1.732451 -1.369306 -1.369306 
C -1.732451 -1.006162 -1.936492 -0.513564 -1.936492 0 
C -1.936492 0.513564 -1.732451 1.006162 -1.369306 1.369306 
C -1.006162 1.732451 -0.513564 1.936492 0 1.936492 
z
"/>
    </defs>
    <g clip-path="url(#p832cf3f7c7)">
     <use xlink:href="#m601908cadd" x="44.29625" y="16.42084" style="fill: #20590b; fill-opacity: 0.2"/>
     <use xlink:href="#m601908cadd" x="44.29625" y="33.666349" style="fill: #20590b; fill-opacity: 0.2"/>
     <use xlink:href="#m601908cadd" x="44.29625" y="66.001679" style="fill: #20590b; fill-opacity: 0.2"/>
     <use xlink:href="#m601908cadd" x="44.29625" y="16.42084" style="fill: #20590b; fill-opacity: 0.2"/>
     <use xlink:href="#m601908cadd" x="44.29625" y="25.043595" style="fill: #20590b; fill-opacity: 0.2"/>
     <use xlink:href="#m601908cadd" x="44.29625" y="40.133415" style="fill: #20590b; fill-opacity: 0.2"/>
     <use xlink:href="#m601908cadd" x="44.29625" y="22.887906" style="fill: #20590b; fill-opacity: 0.2"/>
     <use xlink:href="#m601908cadd" x="44.29625" y="40.133415" style="fill: #20590b; fill-opacity: 0.2"/>
     <use xlink:href="#m601908cadd" x="44.29625" y="14.265152" style="fill: #20590b; fill-opacity: 0.2"/>
     <use xlink:href="#m601908cadd" x="44.29625" y="25.043595" style="fill: #20590b; fill-opacity: 0.2"/>
     <use xlink:href="#m601908cadd" x="44.29625" y="40.133415" style="fill: #20590b; fill-opacity: 0.2"/>
     <use xlink:href="#m601908cadd" x="44.29625" y="16.42084" style="fill: #20590b; fill-opacity: 0.2"/>
     <use xlink:href="#m601908cadd" x="44.29625" y="42.289104" style="fill: #20590b; fill-opacity: 0.2"/>
     <use xlink:href="#m601908cadd" x="44.29625" y="14.265152" style="fill: #20590b; fill-opacity: 0.2"/>
     <use xlink:href="#m601908cadd" x="44.29625" y="31.510661" style="fill: #20590b; fill-opacity: 0.2"/>
     <use xlink:href="#m601908cadd" x="44.29625" y="25.043595" style="fill: #20590b; fill-opacity: 0.2"/>
     <use xlink:href="#m601908cadd" x="44.29625" y="68.157367" style="fill: #20590b; fill-opacity: 0.2"/>
     <use xlink:href="#m601908cadd" x="44.29625" y="48.75617" style="fill: #20590b; fill-opacity: 0.2"/>
     <use xlink:href="#m601908cadd" x="44.29625" y="14.265152" style="fill: #20590b; fill-opacity: 0.2"/>
     <use xlink:href="#m601908cadd" x="44.29625" y="57.378924" style="fill: #20590b; fill-opacity: 0.2"/>
     <use xlink:href="#m601908cadd" x="44.29625" y="37.977726" style="fill: #20590b; fill-opacity: 0.2"/>
     <use xlink:href="#m601908cadd" x="44.29625" y="22.887906" style="fill: #20590b; fill-opacity: 0.2"/>
     <use xlink:href="#m601908cadd" x="44.29625" y="74.624433" style="fill: #20590b; fill-opacity: 0.2"/>
     <use xlink:href="#m601908cadd" x="44.29625" y="22.887906" style="fill: #20590b; fill-opacity: 0.2"/>
     <use xlink:href="#m601908cadd" x="44.29625" y="20.732217" style="fill: #20590b; fill-opacity: 0.2"/>
     <use xlink:href="#m601908cadd" x="44.29625" y="20.732217" style="fill: #20590b; fill-opacity: 0.2"/>
     <use xlink:href="#m601908cadd" x="44.29625" y="33.666349" style="fill: #20590b; fill-opacity: 0.2"/>
     <use xlink:href="#m601908cadd" x="44.29625" y="31.510661" style="fill: #20590b; fill-opacity: 0.2"/>
     <use xlink:href="#m601908cadd" x="44.29625" y="18.576529" style="fill: #20590b; fill-opacity: 0.2"/>
     <use xlink:href="#m601908cadd" x="44.29625" y="44.444792" style="fill: #20590b; fill-opacity: 0.2"/>
     <use xlink:href="#m601908cadd" x="44.29625" y="25.043595" style="fill: #20590b; fill-opacity: 0.2"/>
     <use xlink:href="#m601908cadd" x="44.29625" y="14.265152" style="fill: #20590b; fill-opacity: 0.2"/>
     <use xlink:href="#m601908cadd" x="44.29625" y="35.822038" style="fill: #20590b; fill-opacity: 0.2"/>
     <use xlink:href="#m601908cadd" x="44.29625" y="35.822038" style="fill: #20590b; fill-opacity: 0.2"/>
     <use xlink:href="#m601908cadd" x="44.29625" y="29.354972" style="fill: #20590b; fill-opacity: 0.2"/>
     <use xlink:href="#m601908cadd" x="44.29625" y="14.265152" style="fill: #20590b; fill-opacity: 0.2"/>
     <use xlink:href="#m601908cadd" x="44.29625" y="57.378924" style="fill: #20590b; fill-opacity: 0.2"/>
     <use xlink:href="#m601908cadd" x="44.29625" y="16.42084" style="fill: #20590b; fill-opacity: 0.2"/>
     <use xlink:href="#m601908cadd" x="44.29625" y="25.043595" style="fill: #20590b; fill-opacity: 0.2"/>
     <use xlink:href="#m601908cadd" x="44.29625" y="18.576529" style="fill: #20590b; fill-opacity: 0.2"/>
     <use xlink:href="#m601908cadd" x="44.29625" y="14.265152" style="fill: #20590b; fill-opacity: 0.2"/>
     <use xlink:href="#m601908cadd" x="44.29625" y="35.822038" style="fill: #20590b; fill-opacity: 0.2"/>
     <use xlink:href="#m601908cadd" x="44.29625" y="44.444792" style="fill: #20590b; fill-opacity: 0.2"/>
     <use xlink:href="#m601908cadd" x="44.29625" y="22.887906" style="fill: #20590b; fill-opacity: 0.2"/>
     <use xlink:href="#m601908cadd" x="44.29625" y="14.265152" style="fill: #20590b; fill-opacity: 0.2"/>
     <use xlink:href="#m601908cadd" x="44.29625" y="14.265152" style="fill: #20590b; fill-opacity: 0.2"/>
     <use xlink:href="#m601908cadd" x="44.29625" y="25.043595" style="fill: #20590b; fill-opacity: 0.2"/>
     <use xlink:href="#m601908cadd" x="44.29625" y="18.576529" style="fill: #20590b; fill-opacity: 0.2"/>
     <use xlink:href="#m601908cadd" x="44.29625" y="46.600481" style="fill: #20590b; fill-opacity: 0.2"/>
    </g>
   </g>
   <g id="PathCollection_2">
    <defs>
     <path id="m4fec2820c4" d="M 0 1.936492 
C 0.513564 1.936492 1.006162 1.732451 1.369306 1.369306 
C 1.732451 1.006162 1.936492 0.513564 1.936492 0 
C 1.936492 -0.513564 1.732451 -1.006162 1.369306 -1.369306 
C 1.006162 -1.732451 0.513564 -1.936492 0 -1.936492 
C -0.513564 -1.936492 -1.006162 -1.732451 -1.369306 -1.369306 
C -1.732451 -1.006162 -1.936492 -0.513564 -1.936492 0 
C -1.936492 0.513564 -1.732451 1.006162 -1.369306 1.369306 
C -1.006162 1.732451 -0.513564 1.936492 0 1.936492 
z
"/>
    </defs>
    <g clip-path="url(#p832cf3f7c7)">
     <use xlink:href="#m4fec2820c4" x="57.79625" y="14.265152" style="fill: #9f3131; fill-opacity: 0.2"/>
     <use xlink:href="#m4fec2820c4" x="57.79625" y="14.265152" style="fill: #9f3131; fill-opacity: 0.2"/>
     <use xlink:href="#m4fec2820c4" x="57.79625" y="25.043595" style="fill: #9f3131; fill-opacity: 0.2"/>
     <use xlink:href="#m4fec2820c4" x="57.79625" y="31.510661" style="fill: #9f3131; fill-opacity: 0.2"/>
     <use xlink:href="#m4fec2820c4" x="57.79625" y="31.510661" style="fill: #9f3131; fill-opacity: 0.2"/>
     <use xlink:href="#m4fec2820c4" x="57.79625" y="25.043595" style="fill: #9f3131; fill-opacity: 0.2"/>
     <use xlink:href="#m4fec2820c4" x="57.79625" y="46.600481" style="fill: #9f3131; fill-opacity: 0.2"/>
     <use xlink:href="#m4fec2820c4" x="57.79625" y="33.666349" style="fill: #9f3131; fill-opacity: 0.2"/>
     <use xlink:href="#m4fec2820c4" x="57.79625" y="14.265152" style="fill: #9f3131; fill-opacity: 0.2"/>
     <use xlink:href="#m4fec2820c4" x="57.79625" y="40.133415" style="fill: #9f3131; fill-opacity: 0.2"/>
     <use xlink:href="#m4fec2820c4" x="57.79625" y="22.887906" style="fill: #9f3131; fill-opacity: 0.2"/>
     <use xlink:href="#m4fec2820c4" x="57.79625" y="14.265152" style="fill: #9f3131; fill-opacity: 0.2"/>
     <use xlink:href="#m4fec2820c4" x="57.79625" y="35.822038" style="fill: #9f3131; fill-opacity: 0.2"/>
     <use xlink:href="#m4fec2820c4" x="57.79625" y="14.265152" style="fill: #9f3131; fill-opacity: 0.2"/>
     <use xlink:href="#m4fec2820c4" x="57.79625" y="25.043595" style="fill: #9f3131; fill-opacity: 0.2"/>
     <use xlink:href="#m4fec2820c4" x="57.79625" y="31.510661" style="fill: #9f3131; fill-opacity: 0.2"/>
     <use xlink:href="#m4fec2820c4" x="57.79625" y="25.043595" style="fill: #9f3131; fill-opacity: 0.2"/>
     <use xlink:href="#m4fec2820c4" x="57.79625" y="16.42084" style="fill: #9f3131; fill-opacity: 0.2"/>
     <use xlink:href="#m4fec2820c4" x="57.79625" y="33.666349" style="fill: #9f3131; fill-opacity: 0.2"/>
     <use xlink:href="#m4fec2820c4" x="57.79625" y="20.732217" style="fill: #9f3131; fill-opacity: 0.2"/>
     <use xlink:href="#m4fec2820c4" x="57.79625" y="48.75617" style="fill: #9f3131; fill-opacity: 0.2"/>
     <use xlink:href="#m4fec2820c4" x="57.79625" y="33.666349" style="fill: #9f3131; fill-opacity: 0.2"/>
     <use xlink:href="#m4fec2820c4" x="57.79625" y="14.265152" style="fill: #9f3131; fill-opacity: 0.2"/>
     <use xlink:href="#m4fec2820c4" x="57.79625" y="46.600481" style="fill: #9f3131; fill-opacity: 0.2"/>
     <use xlink:href="#m4fec2820c4" x="57.79625" y="14.265152" style="fill: #9f3131; fill-opacity: 0.2"/>
     <use xlink:href="#m4fec2820c4" x="57.79625" y="29.354972" style="fill: #9f3131; fill-opacity: 0.2"/>
     <use xlink:href="#m4fec2820c4" x="57.79625" y="27.199283" style="fill: #9f3131; fill-opacity: 0.2"/>
     <use xlink:href="#m4fec2820c4" x="57.79625" y="16.42084" style="fill: #9f3131; fill-opacity: 0.2"/>
     <use xlink:href="#m4fec2820c4" x="57.79625" y="40.133415" style="fill: #9f3131; fill-opacity: 0.2"/>
     <use xlink:href="#m4fec2820c4" x="57.79625" y="40.133415" style="fill: #9f3131; fill-opacity: 0.2"/>
     <use xlink:href="#m4fec2820c4" x="57.79625" y="18.576529" style="fill: #9f3131; fill-opacity: 0.2"/>
     <use xlink:href="#m4fec2820c4" x="57.79625" y="14.265152" style="fill: #9f3131; fill-opacity: 0.2"/>
     <use xlink:href="#m4fec2820c4" x="57.79625" y="37.977726" style="fill: #9f3131; fill-opacity: 0.2"/>
     <use xlink:href="#m4fec2820c4" x="57.79625" y="68.157367" style="fill: #9f3131; fill-opacity: 0.2"/>
     <use xlink:href="#m4fec2820c4" x="57.79625" y="63.84599" style="fill: #9f3131; fill-opacity: 0.2"/>
     <use xlink:href="#m4fec2820c4" x="57.79625" y="14.265152" style="fill: #9f3131; fill-opacity: 0.2"/>
     <use xlink:href="#m4fec2820c4" x="57.79625" y="25.043595" style="fill: #9f3131; fill-opacity: 0.2"/>
     <use xlink:href="#m4fec2820c4" x="57.79625" y="33.666349" style="fill: #9f3131; fill-opacity: 0.2"/>
     <use xlink:href="#m4fec2820c4" x="57.79625" y="22.887906" style="fill: #9f3131; fill-opacity: 0.2"/>
     <use xlink:href="#m4fec2820c4" x="57.79625" y="25.043595" style="fill: #9f3131; fill-opacity: 0.2"/>
     <use xlink:href="#m4fec2820c4" x="57.79625" y="50.911858" style="fill: #9f3131; fill-opacity: 0.2"/>
     <use xlink:href="#m4fec2820c4" x="57.79625" y="14.265152" style="fill: #9f3131; fill-opacity: 0.2"/>
     <use xlink:href="#m4fec2820c4" x="57.79625" y="22.887906" style="fill: #9f3131; fill-opacity: 0.2"/>
     <use xlink:href="#m4fec2820c4" x="57.79625" y="50.911858" style="fill: #9f3131; fill-opacity: 0.2"/>
     <use xlink:href="#m4fec2820c4" x="57.79625" y="31.510661" style="fill: #9f3131; fill-opacity: 0.2"/>
     <use xlink:href="#m4fec2820c4" x="57.79625" y="27.199283" style="fill: #9f3131; fill-opacity: 0.2"/>
     <use xlink:href="#m4fec2820c4" x="57.79625" y="46.600481" style="fill: #9f3131; fill-opacity: 0.2"/>
     <use xlink:href="#m4fec2820c4" x="57.79625" y="14.265152" style="fill: #9f3131; fill-opacity: 0.2"/>
     <use xlink:href="#m4fec2820c4" x="57.79625" y="14.265152" style="fill: #9f3131; fill-opacity: 0.2"/>
    </g>
   </g>
   <g id="line2d_58">
    <path d="M 40.92125 30.498807 
L 29.67125 30.498807 
" clip-path="url(#p832cf3f7c7)" style="fill: none; stroke: #000000; stroke-width: 0.85; stroke-linecap: square"/>
   </g>
   <g id="line2d_59">
    <path d="M 61.17125 29.047016 
L 72.42125 29.047016 
" clip-path="url(#p832cf3f7c7)" style="fill: none; stroke: #000000; stroke-width: 0.85; stroke-linecap: square"/>
   </g>
   <g id="LineCollection_1">
    <path d="M 35.29625 32.716035 
L 35.29625 28.281579 
" clip-path="url(#p832cf3f7c7)" style="fill: none; stroke: #000000; stroke-width: 0.85"/>
   </g>
   <g id="line2d_60">
    <defs>
     <path id="mf504333b52" d="M 4 0 
L -4 -0 
" style="stroke: #000000; stroke-width: 0.85"/>
    </defs>
    <g clip-path="url(#p832cf3f7c7)">
     <use xlink:href="#mf504333b52" x="35.29625" y="32.716035" style="stroke: #000000; stroke-width: 0.85"/>
    </g>
   </g>
   <g id="line2d_61">
    <g clip-path="url(#p832cf3f7c7)">
     <use xlink:href="#mf504333b52" x="35.29625" y="28.281579" style="stroke: #000000; stroke-width: 0.85"/>
    </g>
   </g>
   <g id="LineCollection_2">
    <path d="M 66.79625 30.997739 
L 66.79625 27.096294 
" clip-path="url(#p832cf3f7c7)" style="fill: none; stroke: #000000; stroke-width: 0.85"/>
   </g>
   <g id="line2d_62">
    <g clip-path="url(#p832cf3f7c7)">
     <use xlink:href="#mf504333b52" x="66.79625" y="30.997739" style="stroke: #000000; stroke-width: 0.85"/>
    </g>
   </g>
   <g id="line2d_63">
    <g clip-path="url(#p832cf3f7c7)">
     <use xlink:href="#mf504333b52" x="66.79625" y="27.096294" style="stroke: #000000; stroke-width: 0.85"/>
    </g>
   </g>
   <g id="line2d_64">
    <path d="M 40.92125 9.807187 
L 61.17125 9.807187 
" style="fill: none; stroke: #000000; stroke-width: 0.5; stroke-linecap: square"/>
   </g>
   <g id="text_8">
    <text style="font-size: 6px; font-family: 'Arial'; text-anchor: middle" x="51.04625" y="11.494687" transform="rotate(-0 51.04625 11.494687)">ns</text>
   </g>
  </g>
 </g>
 <defs>
  <clipPath id="p832cf3f7c7">
   <rect x="24.04625" y="11.247187" width="54" height="72"/>
  </clipPath>
 </defs>
</svg>
