<?xml version="1.0" encoding="utf-8" standalone="no"?>
<!DOCTYPE svg PUBLIC "-//W3C//DTD SVG 1.1//EN"
  "http://www.w3.org/Graphics/SVG/1.1/DTD/svg11.dtd">
<svg xmlns:xlink="http://www.w3.org/1999/xlink" width="155.2025pt" height="100.079375pt" viewBox="0 0 155.2025 100.079375" xmlns="http://www.w3.org/2000/svg" version="1.1">
 <metadata>
  <rdf:RDF xmlns:dc="http://purl.org/dc/elements/1.1/" xmlns:cc="http://creativecommons.org/ns#" xmlns:rdf="http://www.w3.org/1999/02/22-rdf-syntax-ns#">
   <cc:Work>
    <dc:type rdf:resource="http://purl.org/dc/dcmitype/StillImage"/>
    <dc:date>2026-03-04T23:12:10.348171</dc:date>
    <dc:format>image/svg+xml</dc:format>
    <dc:creator>
     <cc:Agent>
      <dc:title>Matplotlib v3.10.8, https://matplotlib.org/</dc:title>
     </cc:Agent>
    </dc:creator>
   </cc:Work>
  </rdf:RDF>
 </metadata>
 <defs>
  <style type="text/css">*{stroke-linejoin: round; stroke-linecap: butt}</style>
 </defs>
 <g id="figure_1">
  <g id="patch_1">
   <path d="M 0 100.079375 
L 155.2025 100.079375 
L 155.2025 0 
L 0 0 
z
" style="fill: #ffffff"/>
  </g>
  <g id="axes_1">
   <g id="patch_2">
    <path d="M 35.55375 82.063125 
L 143.55375 82.063125 
L 143.55375 10.063125 
L 35.55375 10.063125 
z
" style="fill: #ffffff"/>
   </g>
   <g id="line2d_1">
    <path d="M 35.55375 58.063125 
L 143.55375 58.063125 
" clip-path="url(#p945f770268)" style="fill: none; stroke-dasharray: 3.256,1.408; stroke-dashoffset: 0; stroke: #808080; stroke-opacity: 0.5; stroke-width: 0.88"/>
   </g>
   <g id="FillBetweenPolyCollection_1">
    <defs>
     <path id="m74a3db97f8" d="M 35.55375 -48.60022 
L 35.55375 -33.473096 
L 40.05375 -38.622977 
L 44.55375 -47.609852 
L 49.05375 -54.828091 
L 53.55375 -61.969794 
L 58.05375 -62.028005 
L 62.55375 -59.96885 
L 67.05375 -63.876783 
L 71.55375 -66.674101 
L 76.05375 -65.255107 
L 80.55375 -70.518309 
L 85.05375 -65.525337 
L 89.55375 -65.773705 
L 94.05375 -70.640935 
L 98.55375 -70.815107 
L 103.05375 -70.688469 
L 107.55375 -69.043535 
L 112.05375 -69.043535 
L 116.55375 -70.688469 
L 121.05375 -73.51177 
L 125.55375 -71.250299 
L 130.05375 -67.464434 
L 134.55375 -79.687362 
L 139.05375 -74.112808 
L 143.55375 -72.972491 
L 143.55375 -87.468173 
L 143.55375 -87.468173 
L 139.05375 -88.287039 
L 134.55375 -88.590036 
L 130.05375 -83.180311 
L 125.55375 -85.271997 
L 121.05375 -86.928893 
L 116.55375 -83.874643 
L 112.05375 -83.560394 
L 107.55375 -83.560394 
L 103.05375 -83.874643 
L 98.55375 -81.788821 
L 94.05375 -83.269116 
L 89.55375 -78.993489 
L 85.05375 -79.241857 
L 80.55375 -82.085619 
L 76.05375 -80.818209 
L 71.55375 -79.399215 
L 67.05375 -76.972044 
L 62.55375 -73.043242 
L 58.05375 -74.902455 
L 53.55375 -73.654542 
L 49.05375 -70.347266 
L 44.55375 -61.892036 
L 40.05375 -55.205442 
L 35.55375 -48.60022 
z
"/>
    </defs>
    <g clip-path="url(#p945f770268)">
     <use xlink:href="#m74a3db97f8" x="0" y="100.079375" style="fill: #cd5c5c; fill-opacity: 0.25"/>
    </g>
   </g>
   <g id="FillBetweenPolyCollection_2">
    <defs>
     <path id="mbacc8304ff" d="M 35.55375 -47.240088 
L 35.55375 -30.914861 
L 40.05375 -49.936247 
L 44.55375 -50.385235 
L 49.05375 -57.382764 
L 53.55375 -59.717821 
L 58.05375 -55.406728 
L 62.55375 -61.773224 
L 67.05375 -65.773705 
L 71.55375 -64.887223 
L 76.05375 -64.254142 
L 80.55375 -62.141606 
L 85.05375 -72.177507 
L 89.55375 -68.243163 
L 94.05375 -68.633285 
L 98.55375 -69.84757 
L 103.05375 -63.258135 
L 107.55375 -65.34082 
L 112.05375 -70.140464 
L 116.55375 -71.809358 
L 121.05375 -69.043535 
L 125.55375 -70.688469 
L 130.05375 -63.734012 
L 134.55375 -68.489042 
L 139.05375 -71.809358 
L 143.55375 -71.286358 
L 143.55375 -83.276754 
L 143.55375 -83.276754 
L 139.05375 -84.712938 
L 134.55375 -82.155703 
L 130.05375 -79.073999 
L 125.55375 -83.874643 
L 121.05375 -83.560394 
L 116.55375 -84.712938 
L 112.05375 -84.422648 
L 107.55375 -81.385558 
L 103.05375 -79.549875 
L 98.55375 -81.450236 
L 94.05375 -81.358399 
L 89.55375 -80.442398 
L 85.05375 -83.038667 
L 80.55375 -76.094976 
L 76.05375 -77.900807 
L 71.55375 -78.573849 
L 67.05375 -78.993489 
L 62.55375 -75.157235 
L 58.05375 -71.074751 
L 53.55375 -73.294271 
L 49.05375 -70.404838 
L 44.55375 -63.03502 
L 40.05375 -64.790131 
L 35.55375 -47.240088 
z
"/>
    </defs>
    <g clip-path="url(#p945f770268)">
     <use xlink:href="#mbacc8304ff" x="0" y="100.079375" style="fill: #228b22; fill-opacity: 0.25"/>
    </g>
   </g>
   <g id="matplotlib.axis_1">
    <g id="xtick_1">
     <g id="line2d_2">
      <defs>
       <path id="ma3929fc493" d="M 0 0 
L 0 -4 
" style="stroke: #000000; stroke-width: 0.5"/>
      </defs>
      <g>
       <use xlink:href="#ma3929fc493" x="35.55375" y="82.063125" style="stroke: #000000; stroke-width: 0.5"/>
      </g>
     </g>
     <g id="text_1">
      <text style="font-size: 8px; font-family: 'Arial'; text-anchor: middle" x="35.55375" y="91.289375" transform="rotate(-0 35.55375 91.289375)">1</text>
     </g>
    </g>
    <g id="xtick_2">
     <g id="line2d_3">
      <g>
       <use xlink:href="#ma3929fc493" x="76.05375" y="82.063125" style="stroke: #000000; stroke-width: 0.5"/>
      </g>
     </g>
     <g id="text_2">
      <text style="font-size: 8px; font-family: 'Arial'; text-anchor: middle" x="76.05375" y="91.289375" transform="rotate(-0 76.05375 91.289375)">10</text>
     </g>
    </g>
    <g id="xtick_3">
     <g id="line2d_4">
      <g>
       <use xlink:href="#ma3929fc493" x="121.05375" y="82.063125" style="stroke: #000000; stroke-width: 0.5"/>
      </g>
     </g>
     <g id="text_3">
      <text style="font-size: 8px; font-family: 'Arial'; text-anchor: middle" x="121.05375" y="91.289375" transform="rotate(-0 121.05375 91.289375)">20</text>
     </g>
    </g>
    <g id="xtick_4">
     <g id="line2d_5">
      <g>
       <use xlink:href="#ma3929fc493" x="143.55375" y="82.063125" style="stroke: #000000; stroke-width: 0.5"/>
      </g>
     </g>
     <g id="text_4">
      <text style="font-size: 8px; font-family: 'Arial'; text-anchor: middle" x="143.55375" y="91.289375" transform="rotate(-0 143.55375 91.289375)">25</text>
     </g>
    </g>
   </g>
   <g id="matplotlib.axis_2">
    <g id="ytick_1">
     <g id="line2d_6">
      <defs>
       <path id="m80f230d796" d="M 0 0 
L 4 0 
" style="stroke: #000000; stroke-width: 0.5"/>
      </defs>
      <g>
       <use xlink:href="#m80f230d796" x="35.55375" y="82.063125" style="stroke: #000000; stroke-width: 0.5"/>
      </g>
     </g>
     <g id="text_5">
      <text style="font-size: 8px; font-family: 'Arial'; text-anchor: end" x="32.05375" y="84.92625" transform="rotate(-0 32.05375 84.92625)">25</text>
     </g>
    </g>
    <g id="ytick_2">
     <g id="line2d_7">
      <g>
       <use xlink:href="#m80f230d796" x="35.55375" y="58.063125" style="stroke: #000000; stroke-width: 0.5"/>
      </g>
     </g>
     <g id="text_6">
      <text style="font-size: 8px; font-family: 'Arial'; text-anchor: end" x="32.05375" y="60.92625" transform="rotate(-0 32.05375 60.92625)">50</text>
     </g>
    </g>
    <g id="ytick_3">
     <g id="line2d_8">
      <g>
       <use xlink:href="#m80f230d796" x="35.55375" y="34.063125" style="stroke: #000000; stroke-width: 0.5"/>
      </g>
     </g>
     <g id="text_7">
      <text style="font-size: 8px; font-family: 'Arial'; text-anchor: end" x="32.05375" y="36.92625" transform="rotate(-0 32.05375 36.92625)">75</text>
     </g>
    </g>
    <g id="ytick_4">
     <g id="line2d_9">
      <g>
       <use xlink:href="#m80f230d796" x="35.55375" y="10.063125" style="stroke: #000000; stroke-width: 0.5"/>
      </g>
     </g>
     <g id="text_8">
      <text style="font-size: 8px; font-family: 'Arial'; text-anchor: end" x="32.05375" y="12.92625" transform="rotate(-0 32.05375 12.92625)">100</text>
     </g>
    </g>
    <g id="text_9">
     <text style="font-size: 8px; font-family: 'Arial'; text-anchor: middle" x="13.02375" y="46.063125" transform="rotate(-90 13.02375 46.063125)">accuracy (%)</text>
    </g>
   </g>
   <g id="line2d_10">
    <path d="M 35.55375 59.042717 
L 40.05375 53.165166 
L 44.55375 45.328431 
L 49.05375 37.491696 
L 53.55375 32.267207 
L 58.05375 31.614145 
L 62.55375 33.573329 
L 67.05375 29.654962 
L 71.55375 27.042717 
L 76.05375 27.042717 
L 80.55375 23.777411 
L 85.05375 27.695778 
L 89.55375 27.695778 
L 94.05375 23.124349 
L 98.55375 23.777411 
L 103.05375 22.797819 
L 107.55375 23.777411 
L 112.05375 23.777411 
L 116.55375 22.797819 
L 121.05375 19.859043 
L 125.55375 21.818227 
L 130.05375 24.757003 
L 134.55375 15.940676 
L 139.05375 18.879452 
L 143.55375 19.859043 
" clip-path="url(#p945f770268)" style="fill: none; stroke: #cd5c5c; stroke-opacity: 0.9; stroke-width: 1.1; stroke-linecap: square"/>
   </g>
   <g id="line2d_11">
    <path d="M 35.55375 61.001901 
L 40.05375 42.716186 
L 44.55375 43.369247 
L 49.05375 36.185574 
L 53.55375 33.573329 
L 58.05375 36.838635 
L 62.55375 31.614145 
L 67.05375 27.695778 
L 71.55375 28.348839 
L 76.05375 29.001901 
L 80.55375 30.961084 
L 85.05375 22.471288 
L 89.55375 25.736594 
L 94.05375 25.083533 
L 98.55375 24.430472 
L 103.05375 28.67537 
L 107.55375 26.716186 
L 112.05375 22.797819 
L 116.55375 21.818227 
L 121.05375 23.777411 
L 125.55375 22.797819 
L 130.05375 28.67537 
L 134.55375 24.757003 
L 139.05375 21.818227 
L 143.55375 22.797819 
" clip-path="url(#p945f770268)" style="fill: none; stroke: #228b22; stroke-opacity: 0.9; stroke-width: 1.1; stroke-linecap: square"/>
   </g>
   <g id="patch_3">
    <path d="M 35.55375 82.063125 
L 35.55375 10.063125 
" style="fill: none; stroke: #000000; stroke-width: 0.5; stroke-linejoin: miter; stroke-linecap: square"/>
   </g>
   <g id="patch_4">
    <path d="M 35.55375 82.063125 
L 143.55375 82.063125 
" style="fill: none; stroke: #000000; stroke-width: 0.5; stroke-linejoin: miter; stroke-linecap: square"/>
   </g>
  </g>
 </g>
 <defs>
  <clipPath id="p945f770268">
   <rect x="35.55375" y="10.063125" width="108" height="72"/>
  </clipPath>
 </defs>
</svg>
