<?xml version="1.0" encoding="utf-8" standalone="no"?>
<!DOCTYPE svg PUBLIC "-//W3C//DTD SVG 1.1//EN"
  "http://www.w3.org/Graphics/SVG/1.1/DTD/svg11.dtd">
<svg xmlns:xlink="http://www.w3.org/1999/xlink" width="85.24625pt" height="103.0925pt" viewBox="0 0 85.24625 103.0925" xmlns="http://www.w3.org/2000/svg" version="1.1">
 <metadata>
  <rdf:RDF xmlns:dc="http://purl.org/dc/elements/1.1/" xmlns:cc="http://creativecommons.org/ns#" xmlns:rdf="http://www.w3.org/1999/02/22-rdf-syntax-ns#">
   <cc:Work>
    <dc:type rdf:resource="http://purl.org/dc/dcmitype/StillImage"/>
    <dc:date>2026-04-02T15:51:15.564935</dc:date>
    <dc:format>image/svg+xml</dc:format>
    <dc:creator>
     <cc:Agent>
      <dc:title>Matplotlib v3.10.8, https://matplotlib.org/</dc:title>
     </cc:Agent>
    </dc:creator>
   </cc:Work>
  </rdf:RDF>
 </metadata>
 <defs>
  <style type="text/css">*{stroke-linejoin: round; stroke-linecap: butt}</style>
 </defs>
 <g id="figure_1">
  <g id="patch_1">
   <path d="M 0 103.0925 
L 85.24625 103.0925 
L 85.24625 0 
L 0 0 
z
" style="fill: #ffffff"/>
  </g>
  <g id="axes_1">
   <g id="patch_2">
    <path d="M 24.04625 85.07625 
L 78.04625 85.07625 
L 78.04625 13.07625 
L 24.04625 13.07625 
z
" style="fill: #ffffff"/>
   </g>
   <g id="line2d_1">
    <path d="M 24.04625 49.51394 
L 78.04625 49.51394 
" clip-path="url(#p7099afdc86)" style="fill: none; stroke-dasharray: 2.516,1.088; stroke-dashoffset: 0; stroke: #808080; stroke-opacity: 0.5; stroke-width: 0.68"/>
   </g>
   <g id="patch_3">
    <path d="M 40.92125 54.437952 
L 40.304423 54.437952 
L 40.301055 54.240002 
L 40.29866 54.042052 
L 40.297175 53.844101 
L 40.296525 53.646151 
L 40.29662 53.448201 
L 40.297355 53.250251 
L 40.298616 53.0523 
L 40.300274 52.85435 
L 40.30219 52.6564 
L 40.304214 52.45845 
L 40.306187 52.2605 
L 40.307941 52.062549 
L 40.309299 51.864599 
L 40.310079 51.666649 
L 40.310092 51.468699 
L 40.309143 51.270748 
L 40.307036 51.072798 
L 40.30357 50.874848 
L 40.298539 50.676898 
L 40.291741 50.478947 
L 40.282967 50.280997 
L 40.272012 50.083047 
L 40.25867 49.885097 
L 40.242732 49.687146 
L 40.223995 49.489196 
L 40.202253 49.291246 
L 40.177303 49.093296 
L 40.148943 48.895345 
L 40.116971 48.697395 
L 40.081187 48.499445 
L 40.041394 48.301495 
L 39.997395 48.103545 
L 39.948994 47.905594 
L 39.895999 47.707644 
L 39.838217 47.509694 
L 39.775461 47.311744 
L 39.707544 47.113793 
L 39.634283 46.915843 
L 39.555499 46.717893 
L 39.471021 46.519943 
L 39.38068 46.321992 
L 39.284317 46.124042 
L 39.18178 45.926092 
L 39.07293 45.728142 
L 38.957639 45.530191 
L 38.835791 45.332241 
L 38.707288 45.134291 
L 38.572051 44.936341 
L 38.43002 44.73839 
L 38.281157 44.54044 
L 38.12545 44.34249 
L 37.962913 44.14454 
L 37.793591 43.94659 
L 37.617557 43.748639 
L 37.434921 43.550689 
L 37.245824 43.352739 
L 37.050447 43.154789 
L 36.849006 42.956838 
L 36.641759 42.758888 
L 36.428999 42.560938 
L 36.211063 42.362988 
L 35.988325 42.165037 
L 35.761201 41.967087 
L 35.530145 41.769137 
L 35.295646 41.571187 
L 35.058233 41.373236 
L 34.818467 41.175286 
L 34.576942 40.977336 
L 34.334279 40.779386 
L 34.091127 40.581436 
L 33.848158 40.383485 
L 33.60606 40.185535 
L 33.36554 39.987585 
L 33.127313 39.789635 
L 32.8921 39.591684 
L 32.660625 39.393734 
L 32.433609 39.195784 
L 32.211763 38.997834 
L 31.995785 38.799883 
L 31.786358 38.601933 
L 31.584138 38.403983 
L 31.389755 38.206033 
L 31.203806 38.008082 
L 31.02685 37.810132 
L 30.859404 37.612182 
L 30.70194 37.414232 
L 30.554876 37.216281 
L 30.418581 37.018331 
L 30.293363 36.820381 
L 30.17947 36.622431 
L 30.077089 36.424481 
L 29.986339 36.22653 
L 29.907274 36.02858 
L 29.83988 35.83063 
L 29.784074 35.63268 
L 29.739706 35.434729 
L 29.706557 35.236779 
L 29.684342 35.038829 
L 29.67271 34.840879 
L 29.67125 34.642928 
L 29.67949 34.444978 
L 29.696904 34.247028 
L 29.722913 34.049078 
L 29.756893 33.851127 
L 29.798179 33.653177 
L 29.846069 33.455227 
L 29.899834 33.257277 
L 29.95872 33.059326 
L 30.021958 32.861376 
L 30.088771 32.663426 
L 30.158378 32.465476 
L 30.230005 32.267526 
L 30.302887 32.069575 
L 30.376279 31.871625 
L 30.449461 31.673675 
L 30.521744 31.475725 
L 30.592475 31.277774 
L 30.661042 31.079824 
L 30.726879 30.881874 
L 30.789471 30.683924 
L 30.848353 30.485973 
L 30.903116 30.288023 
L 30.953409 30.090073 
L 30.998935 29.892123 
L 31.039456 29.694172 
L 31.074789 29.496222 
L 31.104806 29.298272 
L 31.129432 29.100322 
L 31.148642 28.902371 
L 31.162455 28.704421 
L 31.170935 28.506471 
L 31.174185 28.308521 
L 31.172343 28.110571 
L 31.165576 27.91262 
L 31.154077 27.71467 
L 31.138064 27.51672 
L 31.117771 27.31877 
L 31.093445 27.120819 
L 31.065348 26.922869 
L 31.033747 26.724919 
L 30.998916 26.526969 
L 30.961133 26.329018 
L 30.920679 26.131068 
L 30.877837 25.933118 
L 30.832891 25.735168 
L 30.786129 25.537217 
L 30.737839 25.339267 
L 30.688316 25.141317 
L 30.637859 24.943367 
L 30.586775 24.745417 
L 30.535381 24.547466 
L 30.484005 24.349516 
L 30.43299 24.151566 
L 30.382693 23.953616 
L 30.33349 23.755665 
L 30.285775 23.557715 
L 30.239962 23.359765 
L 30.196486 23.161815 
L 30.155802 22.963864 
L 30.118385 22.765914 
L 30.084728 22.567964 
L 30.055341 22.370014 
L 30.030749 22.172063 
L 30.011486 21.974113 
L 29.998095 21.776163 
L 29.991119 21.578213 
L 29.9911 21.380262 
L 29.998573 21.182312 
L 30.014058 20.984362 
L 30.038055 20.786412 
L 30.07104 20.588462 
L 30.113456 20.390511 
L 30.165708 20.192561 
L 30.228158 19.994611 
L 30.301117 19.796661 
L 30.384843 19.59871 
L 30.479533 19.40076 
L 30.585324 19.20281 
L 30.702283 19.00486 
L 30.83041 18.806909 
L 30.969633 18.608959 
L 31.119808 18.411009 
L 31.280719 18.213059 
L 31.452081 18.015108 
L 31.633536 17.817158 
L 31.824662 17.619208 
L 32.02497 17.421258 
L 32.233914 17.223307 
L 32.450892 17.025357 
L 32.67525 16.827407 
L 32.906294 16.629457 
L 33.143287 16.431507 
L 33.385464 16.233556 
L 33.632035 16.035606 
L 33.88219 15.837656 
L 34.135111 15.639706 
L 34.389973 15.441755 
L 34.645957 15.243805 
L 34.902251 15.045855 
L 40.92125 15.045855 
z
" clip-path="url(#p7099afdc86)" style="fill: #228b22; opacity: 0.2"/>
   </g>
   <g id="patch_4">
    <path d="M 61.17125 52.249502 
L 63.773681 52.249502 
L 63.880286 52.062549 
L 63.988653 51.875596 
L 64.098663 51.688643 
L 64.210185 51.50169 
L 64.323086 51.314737 
L 64.437223 51.127784 
L 64.552448 50.940831 
L 64.668609 50.753878 
L 64.785548 50.566925 
L 64.903103 50.379972 
L 65.021109 50.193019 
L 65.139399 50.006066 
L 65.257806 49.819113 
L 65.37616 49.63216 
L 65.494293 49.445207 
L 65.612039 49.258254 
L 65.729233 49.071301 
L 65.845716 48.884348 
L 65.961331 48.697395 
L 66.075928 48.510442 
L 66.189362 48.323489 
L 66.301498 48.136536 
L 66.412207 47.949583 
L 66.521369 47.76263 
L 66.628875 47.575677 
L 66.734626 47.388724 
L 66.838533 47.201771 
L 66.94052 47.014818 
L 67.040521 46.827865 
L 67.138483 46.640912 
L 67.234366 46.453959 
L 67.32814 46.267006 
L 67.419788 46.080053 
L 67.509307 45.8931 
L 67.596702 45.706147 
L 67.681992 45.519194 
L 67.765204 45.332241 
L 67.846376 45.145288 
L 67.925556 44.958335 
L 68.002798 44.771382 
L 68.078165 44.584429 
L 68.151725 44.397476 
L 68.223552 44.210523 
L 68.293724 44.02357 
L 68.36232 43.836617 
L 68.429424 43.649664 
L 68.495117 43.462711 
L 68.559481 43.275758 
L 68.622596 43.088805 
L 68.684538 42.901852 
L 68.74538 42.714899 
L 68.80519 42.527946 
L 68.864029 42.340993 
L 68.921951 42.15404 
L 68.979003 41.967087 
L 69.035224 41.780134 
L 69.090643 41.593181 
L 69.14528 41.406228 
L 69.199148 41.219275 
L 69.252247 41.032322 
L 69.304569 40.845369 
L 69.356097 40.658416 
L 69.406803 40.471463 
L 69.456653 40.28451 
L 69.505602 40.097557 
L 69.553599 39.910604 
L 69.600586 39.723651 
L 69.6465 39.536698 
L 69.691271 39.349745 
L 69.734826 39.162792 
L 69.777091 38.975839 
L 69.817988 38.788886 
L 69.85744 38.601933 
L 69.895372 38.41498 
L 69.93171 38.228027 
L 69.966383 38.041074 
L 69.999327 37.854121 
L 70.030483 37.667168 
L 70.0598 37.480215 
L 70.087236 37.293262 
L 70.112757 37.106309 
L 70.136342 36.919356 
L 70.15798 36.732403 
L 70.177673 36.54545 
L 70.195437 36.358497 
L 70.211301 36.171544 
L 70.225309 35.984591 
L 70.237519 35.797638 
L 70.248003 35.610685 
L 70.256848 35.423732 
L 70.264157 35.236779 
L 70.270047 35.049826 
L 70.274646 34.862873 
L 70.278098 34.67592 
L 70.280559 34.488967 
L 70.282196 34.302014 
L 70.283186 34.115061 
L 70.283717 33.928108 
L 70.283985 33.741155 
L 70.28419 33.554202 
L 70.284542 33.367249 
L 70.285251 33.180296 
L 70.28653 32.993343 
L 70.288594 32.80639 
L 70.291657 32.619437 
L 70.295929 32.432484 
L 70.301615 32.245531 
L 70.308916 32.058578 
L 70.318025 31.871625 
L 70.329122 31.684672 
L 70.342381 31.497719 
L 70.357961 31.310766 
L 70.376006 31.123813 
L 70.396647 30.93686 
L 70.419996 30.749907 
L 70.446148 30.562954 
L 70.475181 30.376001 
L 70.507151 30.189048 
L 70.542094 30.002095 
L 70.580025 29.815142 
L 70.620936 29.628189 
L 70.664798 29.441236 
L 70.711559 29.254283 
L 70.761145 29.06733 
L 70.813458 28.880377 
L 70.868378 28.693424 
L 70.925762 28.506471 
L 70.985447 28.319518 
L 71.047246 28.132565 
L 71.110952 27.945612 
L 71.176339 27.758659 
L 71.24316 27.571706 
L 71.311152 27.384753 
L 71.380031 27.1978 
L 71.4495 27.010847 
L 71.519246 26.823894 
L 71.588942 26.636941 
L 71.658249 26.449988 
L 71.726818 26.263035 
L 71.794289 26.076082 
L 71.860296 25.889129 
L 71.924465 25.702176 
L 71.986419 25.515223 
L 72.045778 25.32827 
L 72.102161 25.141317 
L 72.155187 24.954364 
L 72.204478 24.767411 
L 72.249661 24.580458 
L 72.290368 24.393505 
L 72.326239 24.206552 
L 72.356925 24.019599 
L 72.382086 23.832646 
L 72.401399 23.645693 
L 72.414551 23.45874 
L 72.42125 23.271787 
L 72.421219 23.084834 
L 72.414203 22.897881 
L 72.399967 22.710928 
L 72.378298 22.523975 
L 72.349008 22.337022 
L 72.311933 22.150069 
L 72.266936 21.963116 
L 72.213907 21.776163 
L 72.152762 21.58921 
L 72.083448 21.402257 
L 72.00594 21.215304 
L 71.920243 21.028351 
L 71.82639 20.841398 
L 71.724445 20.654445 
L 71.614503 20.467492 
L 71.496686 20.280539 
L 71.371146 20.093586 
L 71.238064 19.906633 
L 71.097647 19.71968 
L 70.950132 19.532727 
L 70.795777 19.345774 
L 70.634869 19.158821 
L 70.467715 18.971868 
L 70.294645 18.784915 
L 70.116008 18.597962 
L 69.932172 18.411009 
L 69.743521 18.224056 
L 69.550454 18.037103 
L 69.353383 17.85015 
L 69.152729 17.663197 
L 68.948922 17.476244 
L 68.742397 17.289291 
L 68.533597 17.102338 
L 68.322963 16.915385 
L 68.110937 16.728432 
L 67.897959 16.541479 
L 67.684466 16.354526 
L 67.470886 16.167573 
L 67.257643 15.98062 
L 67.045146 15.793667 
L 66.833798 15.606714 
L 66.623983 15.419761 
L 66.416076 15.232808 
L 66.210433 15.045855 
L 61.17125 15.045855 
z
" clip-path="url(#p7099afdc86)" style="fill: #cd5c5c; opacity: 0.2"/>
   </g>
   <g id="matplotlib.axis_1">
    <g id="xtick_1">
     <g id="line2d_2">
      <defs>
       <path id="m59d2f2c660" d="M 0 0 
L 0 -4 
" style="stroke: #000000; stroke-width: 0.5"/>
      </defs>
      <g>
       <use xlink:href="#m59d2f2c660" x="40.92125" y="85.07625" style="stroke: #000000; stroke-width: 0.5"/>
      </g>
     </g>
     <g id="text_1">
      <text style="font-size: 8px; font-family: 'Arial'; text-anchor: middle" x="40.92125" y="94.3025" transform="rotate(-0 40.92125 94.3025)">Gain</text>
     </g>
    </g>
    <g id="xtick_2">
     <g id="line2d_3">
      <g>
       <use xlink:href="#m59d2f2c660" x="61.17125" y="85.07625" style="stroke: #000000; stroke-width: 0.5"/>
      </g>
     </g>
     <g id="text_2">
      <text style="font-size: 8px; font-family: 'Arial'; text-anchor: middle" x="61.17125" y="94.3025" transform="rotate(-0 61.17125 94.3025)">Loss</text>
     </g>
    </g>
   </g>
   <g id="matplotlib.axis_2">
    <g id="ytick_1">
     <g id="line2d_4">
      <defs>
       <path id="m9d88c93b9b" d="M 0 0 
L 4 0 
" style="stroke: #000000; stroke-width: 0.5"/>
      </defs>
      <g>
       <use xlink:href="#m9d88c93b9b" x="24.04625" y="85.07625" style="stroke: #000000; stroke-width: 0.5"/>
      </g>
     </g>
     <g id="text_3">
      <text style="font-size: 8px; font-family: 'Arial'; text-anchor: end" x="20.54625" y="87.939375" transform="rotate(-0 20.54625 87.939375)">0</text>
     </g>
    </g>
    <g id="ytick_2">
     <g id="line2d_5">
      <g>
       <use xlink:href="#m9d88c93b9b" x="24.04625" y="67.295095" style="stroke: #000000; stroke-width: 0.5"/>
      </g>
     </g>
     <g id="text_4">
      <text style="font-size: 8px; font-family: 'Arial'; text-anchor: end" x="20.54625" y="70.15822" transform="rotate(-0 20.54625 70.15822)">25</text>
     </g>
    </g>
    <g id="ytick_3">
     <g id="line2d_6">
      <g>
       <use xlink:href="#m9d88c93b9b" x="24.04625" y="49.51394" style="stroke: #000000; stroke-width: 0.5"/>
      </g>
     </g>
     <g id="text_5">
      <text style="font-size: 8px; font-family: 'Arial'; text-anchor: end" x="20.54625" y="52.377065" transform="rotate(-0 20.54625 52.377065)">50</text>
     </g>
    </g>
    <g id="ytick_4">
     <g id="line2d_7">
      <g>
       <use xlink:href="#m9d88c93b9b" x="24.04625" y="31.732785" style="stroke: #000000; stroke-width: 0.5"/>
      </g>
     </g>
     <g id="text_6">
      <text style="font-size: 8px; font-family: 'Arial'; text-anchor: end" x="20.54625" y="34.59591" transform="rotate(-0 20.54625 34.59591)">75</text>
     </g>
    </g>
    <g id="ytick_5">
     <g id="line2d_8">
      <g>
       <use xlink:href="#m9d88c93b9b" x="24.04625" y="13.95163" style="stroke: #000000; stroke-width: 0.5"/>
      </g>
     </g>
     <g id="text_7">
      <text style="font-size: 8px; font-family: 'Arial'; text-anchor: end" x="20.54625" y="16.814755" transform="rotate(-0 20.54625 16.814755)">100</text>
     </g>
    </g>
   </g>
   <g id="patch_5">
    <path d="M 40.92125 31.271816 
L 30.594539 31.271816 
L 30.603001 31.247387 
L 30.611463 31.222957 
L 30.619925 31.198528 
L 30.628387 31.174099 
L 30.636849 31.149669 
L 30.645311 31.12524 
L 30.653773 31.100811 
L 30.662187 31.076381 
L 30.670312 31.051952 
L 30.678437 31.027523 
L 30.686562 31.003093 
L 30.694687 30.978664 
L 30.702812 30.954235 
L 30.710938 30.929805 
L 30.719063 30.905376 
L 30.727172 30.880947 
L 30.734897 30.856517 
L 30.742621 30.832088 
L 30.750346 30.807659 
L 30.75807 30.783229 
L 30.765795 30.7588 
L 30.773519 30.734371 
L 30.781244 30.709942 
L 30.788968 30.685512 
L 30.796265 30.661083 
L 30.803532 30.636654 
L 30.810798 30.612224 
L 30.818065 30.587795 
L 30.825332 30.563366 
L 30.832598 30.538936 
L 30.839865 30.514507 
L 30.847132 30.490078 
L 30.853976 30.465648 
L 30.860734 30.441219 
L 30.867493 30.41679 
L 30.874251 30.39236 
L 30.881009 30.367931 
L 30.887768 30.343502 
L 30.894526 30.319072 
L 30.901285 30.294643 
L 30.907641 30.270214 
L 30.913848 30.245785 
L 30.920054 30.221355 
L 30.926261 30.196926 
L 30.932468 30.172497 
L 30.938674 30.148067 
L 30.944881 30.123638 
L 30.951088 30.099209 
L 30.956926 30.074779 
L 30.962545 30.05035 
L 30.968163 30.025921 
L 30.973781 30.001491 
L 30.9794 29.977062 
L 30.985018 29.952633 
L 30.990637 29.928203 
L 30.996255 29.903774 
L 31.001551 29.879345 
L 31.006551 29.854915 
L 31.011552 29.830486 
L 31.016553 29.806057 
L 31.021554 29.781627 
L 31.026554 29.757198 
L 31.031555 29.732769 
L 31.036556 29.70834 
L 31.041287 29.68391 
L 31.045648 29.659481 
L 31.050009 29.635052 
L 31.054369 29.610622 
L 31.05873 29.586193 
L 31.06309 29.561764 
L 31.067451 29.537334 
L 31.071811 29.512905 
L 31.075964 29.488476 
L 31.079668 29.464046 
L 31.083372 29.439617 
L 31.087077 29.415188 
L 31.090781 29.390758 
L 31.094486 29.366329 
L 31.09819 29.3419 
L 31.101895 29.31747 
L 31.105457 29.293041 
L 31.108496 29.268612 
L 31.111535 29.244182 
L 31.114574 29.219753 
L 31.117614 29.195324 
L 31.120653 29.170895 
L 31.123692 29.146465 
L 31.126731 29.122036 
L 31.129696 29.097607 
L 31.132067 29.073177 
L 31.134437 29.048748 
L 31.136808 29.024319 
L 31.139178 28.999889 
L 31.141549 28.97546 
L 31.14392 28.951031 
L 31.14629 28.926601 
L 31.148656 28.902172 
L 31.15036 28.877743 
L 31.152065 28.853313 
L 31.15377 28.828884 
L 31.155474 28.804455 
L 31.157179 28.780025 
L 31.158884 28.755596 
L 31.160588 28.731167 
L 31.162293 28.706737 
L 31.163402 28.682308 
L 31.164449 28.657879 
L 31.165495 28.63345 
L 31.166542 28.60902 
L 31.167588 28.584591 
L 31.168635 28.560162 
L 31.169682 28.535732 
L 31.170728 28.511303 
L 31.171257 28.486874 
L 31.171658 28.462444 
L 31.172059 28.438015 
L 31.17246 28.413586 
L 31.172861 28.389156 
L 31.173263 28.364727 
L 31.173664 28.340298 
L 31.174065 28.315868 
L 31.174026 28.291439 
L 31.173799 28.26701 
L 31.173572 28.24258 
L 31.173344 28.218151 
L 31.173117 28.193722 
L 31.17289 28.169293 
L 31.172662 28.144863 
L 31.172435 28.120434 
L 31.171845 28.096005 
L 31.17101 28.071575 
L 31.170175 28.047146 
L 31.16934 28.022717 
L 31.168504 27.998287 
L 31.167669 27.973858 
L 31.166834 27.949429 
L 31.165999 27.924999 
L 31.164876 27.90057 
L 31.163457 27.876141 
L 31.162038 27.851711 
L 31.160619 27.827282 
L 31.1592 27.802853 
L 31.157781 27.778423 
L 31.156362 27.753994 
L 31.154943 27.729565 
L 31.153306 27.705135 
L 31.15133 27.680706 
L 31.149354 27.656277 
L 31.147378 27.631848 
L 31.145401 27.607418 
L 31.143425 27.582989 
L 31.141449 27.55856 
L 31.139473 27.53413 
L 31.137345 27.509701 
L 31.13484 27.485272 
L 31.132336 27.460842 
L 31.129831 27.436413 
L 31.127327 27.411984 
L 31.124822 27.387554 
L 31.122318 27.363125 
L 31.119814 27.338696 
L 31.117217 27.314266 
L 31.114215 27.289837 
L 31.111213 27.265408 
L 31.108211 27.240978 
L 31.105209 27.216549 
L 31.102207 27.19212 
L 31.099205 27.16769 
L 31.096203 27.143261 
L 31.093163 27.118832 
L 31.089696 27.094403 
L 31.086228 27.069973 
L 31.082761 27.045544 
L 31.079293 27.021115 
L 31.075826 26.996685 
L 31.072358 26.972256 
L 31.06889 26.947827 
L 31.065423 26.923397 
L 31.061532 26.898968 
L 31.057632 26.874539 
L 31.053732 26.850109 
L 31.049832 26.82568 
L 31.045933 26.801251 
L 31.042033 26.776821 
L 31.038133 26.752392 
L 31.034233 26.727963 
L 31.029984 26.703533 
L 31.025685 26.679104 
L 31.021387 26.654675 
L 31.017088 26.630246 
L 31.01279 26.605816 
L 31.008491 26.581387 
L 31.004192 26.556958 
L 30.999894 26.532528 
L 30.995314 26.508099 
L 30.990651 26.48367 
L 30.985988 26.45924 
L 30.981326 26.434811 
L 30.976663 26.410382 
L 40.92125 26.410382 
z
" clip-path="url(#p7099afdc86)" style="fill: #228b22; opacity: 0.4"/>
   </g>
   <g id="patch_6">
    <path d="M 29.67125 31.271816 
L 40.92125 31.271816 
L 40.92125 26.410382 
L 29.67125 26.410382 
L 29.67125 31.271816 
z
" style="fill: none; stroke: #228b22; stroke-width: 0.85; stroke-linejoin: miter"/>
   </g>
   <g id="patch_7">
    <path d="M 61.17125 34.198518 
L 70.282744 34.198518 
L 70.282893 34.170377 
L 70.283042 34.142236 
L 70.283189 34.114095 
L 70.283269 34.085954 
L 70.283349 34.057813 
L 70.283429 34.029672 
L 70.283509 34.00153 
L 70.283589 33.973389 
L 70.283669 33.945248 
L 70.283733 33.917107 
L 70.283773 33.888966 
L 70.283814 33.860825 
L 70.283854 33.832684 
L 70.283894 33.804543 
L 70.283934 33.776401 
L 70.283975 33.74826 
L 70.284008 33.720119 
L 70.284039 33.691978 
L 70.28407 33.663837 
L 70.284101 33.635696 
L 70.284132 33.607555 
L 70.284163 33.579414 
L 70.284196 33.551272 
L 70.284249 33.523131 
L 70.284302 33.49499 
L 70.284355 33.466849 
L 70.284408 33.438708 
L 70.28446 33.410567 
L 70.284513 33.382426 
L 70.284591 33.354285 
L 70.284698 33.326143 
L 70.284804 33.298002 
L 70.284911 33.269861 
L 70.285018 33.24172 
L 70.285124 33.213579 
L 70.285231 33.185438 
L 70.285408 33.157297 
L 70.285601 33.129156 
L 70.285793 33.101014 
L 70.285986 33.072873 
L 70.286178 33.044732 
L 70.286371 33.016591 
L 70.286584 32.98845 
L 70.286895 32.960309 
L 70.287206 32.932168 
L 70.287516 32.904026 
L 70.287827 32.875885 
L 70.288138 32.847744 
L 70.288449 32.819603 
L 70.288839 32.791462 
L 70.2893 32.763321 
L 70.289761 32.73518 
L 70.290222 32.707039 
L 70.290683 32.678897 
L 70.291144 32.650756 
L 70.291605 32.622615 
L 70.292228 32.594474 
L 70.292871 32.566333 
L 70.293514 32.538192 
L 70.294157 32.510051 
L 70.2948 32.48191 
L 70.295443 32.453768 
L 70.296137 32.425627 
L 70.296993 32.397486 
L 70.297849 32.369345 
L 70.298705 32.341204 
L 70.299561 32.313063 
L 70.300417 32.284922 
L 70.301273 32.256781 
L 70.302275 32.228639 
L 70.303374 32.200498 
L 70.304473 32.172357 
L 70.305572 32.144216 
L 70.306671 32.116075 
L 70.30777 32.087934 
L 70.308869 32.059793 
L 70.310228 32.031652 
L 70.311599 32.00351 
L 70.31297 31.975369 
L 70.314341 31.947228 
L 70.315712 31.919087 
L 70.317083 31.890946 
L 70.318548 31.862805 
L 70.320219 31.834664 
L 70.321889 31.806523 
L 70.32356 31.778381 
L 70.32523 31.75024 
L 70.326901 31.722099 
L 70.328571 31.693958 
L 70.33046 31.665817 
L 70.332455 31.637676 
L 70.334451 31.609535 
L 70.336447 31.581393 
L 70.338443 31.553252 
L 70.340439 31.525111 
L 70.342444 31.49697 
L 70.344789 31.468829 
L 70.347134 31.440688 
L 70.349479 31.412547 
L 70.351824 31.384406 
L 70.354169 31.356264 
L 70.356515 31.328123 
L 70.359002 31.299982 
L 70.361718 31.271841 
L 70.364434 31.2437 
L 70.367151 31.215559 
L 70.369867 31.187418 
L 70.372583 31.159277 
L 70.375299 31.131135 
L 70.378305 31.102994 
L 70.381412 31.074853 
L 70.384518 31.046712 
L 70.387625 31.018571 
L 70.390732 30.99043 
L 70.393839 30.962289 
L 70.396985 30.934148 
L 70.4005 30.906006 
L 70.404015 30.877865 
L 70.407529 30.849724 
L 70.411044 30.821583 
L 70.414558 30.793442 
L 70.418073 30.765301 
L 70.421779 30.73716 
L 70.425715 30.709019 
L 70.429652 30.680877 
L 70.433589 30.652736 
L 70.437525 30.624595 
L 70.441462 30.596454 
L 70.445399 30.568313 
L 70.449686 30.540172 
L 70.454057 30.512031 
L 70.458427 30.48389 
L 70.462797 30.455748 
L 70.467167 30.427607 
L 70.471537 30.399466 
L 70.475981 30.371325 
L 70.480793 30.343184 
L 70.485606 30.315043 
L 70.490418 30.286902 
L 70.49523 30.25876 
L 70.500042 30.230619 
L 70.504855 30.202478 
L 70.509901 30.174337 
L 70.515161 30.146196 
L 70.52042 30.118055 
L 70.52568 30.089914 
L 70.53094 30.061773 
L 70.5362 30.033631 
L 70.541459 30.00549 
L 70.547115 29.977349 
L 70.552824 29.949208 
L 70.558534 29.921067 
L 70.564243 29.892926 
L 70.569953 29.864785 
L 70.575662 29.836644 
L 70.581478 29.808502 
L 70.587636 29.780361 
L 70.593794 29.75222 
L 70.599952 29.724079 
L 70.60611 29.695938 
L 70.612268 29.667797 
L 70.618426 29.639656 
L 70.624848 29.611515 
L 70.63145 29.583373 
L 70.638053 29.555232 
L 70.644655 29.527091 
L 70.651257 29.49895 
L 70.65786 29.470809 
L 70.664462 29.442668 
L 70.671479 29.414527 
L 70.678517 29.386386 
L 70.685556 29.358244 
L 70.692595 29.330103 
L 70.699634 29.301962 
L 70.706672 29.273821 
L 70.713841 29.24568 
L 70.721305 29.217539 
L 70.728769 29.189398 
L 70.736233 29.161257 
L 70.743697 29.133115 
L 70.751161 29.104974 
L 70.758625 29.076833 
L 70.76636 29.048692 
L 70.774235 29.020551 
L 70.782109 28.99241 
L 70.789983 28.964269 
L 70.797858 28.936127 
L 70.805732 28.907986 
L 70.813614 28.879845 
L 70.821881 28.851704 
L 70.830148 28.823563 
L 70.838415 28.795422 
L 70.846681 28.767281 
L 70.854948 28.73914 
L 70.863215 28.710998 
L 70.871621 28.682857 
L 70.880259 28.654716 
L 70.888897 28.626575 
L 70.897534 28.598434 
L 61.17125 28.598434 
z
" clip-path="url(#p7099afdc86)" style="fill: #cd5c5c; opacity: 0.4"/>
   </g>
   <g id="patch_8">
    <path d="M 61.17125 34.198518 
L 72.42125 34.198518 
L 72.42125 28.598434 
L 61.17125 28.598434 
L 61.17125 34.198518 
z
" style="fill: none; stroke: #cd5c5c; stroke-width: 0.85; stroke-linejoin: miter"/>
   </g>
   <g id="line2d_9">
    <path d="M 44.29625 36.930353 
L 57.79625 35.836128 
" clip-path="url(#p7099afdc86)" style="fill: none; stroke: #999999; stroke-opacity: 0.8; stroke-width: 0.3; stroke-linecap: square"/>
   </g>
   <g id="line2d_10">
    <path d="M 44.29625 36.930353 
L 57.79625 33.647679 
" clip-path="url(#p7099afdc86)" style="fill: none; stroke: #999999; stroke-opacity: 0.8; stroke-width: 0.3; stroke-linecap: square"/>
   </g>
   <g id="line2d_11">
    <path d="M 44.29625 38.024578 
L 57.79625 43.495703 
" clip-path="url(#p7099afdc86)" style="fill: none; stroke: #999999; stroke-opacity: 0.8; stroke-width: 0.3; stroke-linecap: square"/>
   </g>
   <g id="line2d_12">
    <path d="M 44.29625 23.799654 
L 57.79625 24.893879 
" clip-path="url(#p7099afdc86)" style="fill: none; stroke: #999999; stroke-opacity: 0.8; stroke-width: 0.3; stroke-linecap: square"/>
   </g>
   <g id="line2d_13">
    <path d="M 44.29625 20.516979 
L 57.79625 15.045855 
" clip-path="url(#p7099afdc86)" style="fill: none; stroke: #999999; stroke-opacity: 0.8; stroke-width: 0.3; stroke-linecap: square"/>
   </g>
   <g id="line2d_14">
    <path d="M 44.29625 34.741903 
L 57.79625 34.741903 
" clip-path="url(#p7099afdc86)" style="fill: none; stroke: #999999; stroke-opacity: 0.8; stroke-width: 0.3; stroke-linecap: square"/>
   </g>
   <g id="line2d_15">
    <path d="M 44.29625 17.234305 
L 57.79625 18.32853 
" clip-path="url(#p7099afdc86)" style="fill: none; stroke: #999999; stroke-opacity: 0.8; stroke-width: 0.3; stroke-linecap: square"/>
   </g>
   <g id="line2d_16">
    <path d="M 44.29625 19.422755 
L 57.79625 22.705429 
" clip-path="url(#p7099afdc86)" style="fill: none; stroke: #999999; stroke-opacity: 0.8; stroke-width: 0.3; stroke-linecap: square"/>
   </g>
   <g id="line2d_17">
    <path d="M 44.29625 33.647679 
L 57.79625 44.589928 
" clip-path="url(#p7099afdc86)" style="fill: none; stroke: #999999; stroke-opacity: 0.8; stroke-width: 0.3; stroke-linecap: square"/>
   </g>
   <g id="line2d_18">
    <path d="M 44.29625 19.422755 
L 57.79625 22.705429 
" clip-path="url(#p7099afdc86)" style="fill: none; stroke: #999999; stroke-opacity: 0.8; stroke-width: 0.3; stroke-linecap: square"/>
   </g>
   <g id="line2d_19">
    <path d="M 44.29625 35.836128 
L 57.79625 46.778378 
" clip-path="url(#p7099afdc86)" style="fill: none; stroke: #999999; stroke-opacity: 0.8; stroke-width: 0.3; stroke-linecap: square"/>
   </g>
   <g id="line2d_20">
    <path d="M 44.29625 25.988104 
L 57.79625 21.611204 
" clip-path="url(#p7099afdc86)" style="fill: none; stroke: #999999; stroke-opacity: 0.8; stroke-width: 0.3; stroke-linecap: square"/>
   </g>
   <g id="line2d_21">
    <path d="M 44.29625 19.422755 
L 57.79625 17.234305 
" clip-path="url(#p7099afdc86)" style="fill: none; stroke: #999999; stroke-opacity: 0.8; stroke-width: 0.3; stroke-linecap: square"/>
   </g>
   <g id="line2d_22">
    <path d="M 44.29625 32.553454 
L 57.79625 28.176554 
" clip-path="url(#p7099afdc86)" style="fill: none; stroke: #999999; stroke-opacity: 0.8; stroke-width: 0.3; stroke-linecap: square"/>
   </g>
   <g id="line2d_23">
    <path d="M 44.29625 23.799654 
L 57.79625 33.647679 
" clip-path="url(#p7099afdc86)" style="fill: none; stroke: #999999; stroke-opacity: 0.8; stroke-width: 0.3; stroke-linecap: square"/>
   </g>
   <g id="line2d_24">
    <path d="M 44.29625 27.082329 
L 57.79625 24.893879 
" clip-path="url(#p7099afdc86)" style="fill: none; stroke: #999999; stroke-opacity: 0.8; stroke-width: 0.3; stroke-linecap: square"/>
   </g>
   <g id="line2d_25">
    <path d="M 44.29625 38.024578 
L 57.79625 28.176554 
" clip-path="url(#p7099afdc86)" style="fill: none; stroke: #999999; stroke-opacity: 0.8; stroke-width: 0.3; stroke-linecap: square"/>
   </g>
   <g id="line2d_26">
    <path d="M 44.29625 40.213028 
L 57.79625 21.611204 
" clip-path="url(#p7099afdc86)" style="fill: none; stroke: #999999; stroke-opacity: 0.8; stroke-width: 0.3; stroke-linecap: square"/>
   </g>
   <g id="line2d_27">
    <path d="M 44.29625 33.647679 
L 57.79625 33.647679 
" clip-path="url(#p7099afdc86)" style="fill: none; stroke: #999999; stroke-opacity: 0.8; stroke-width: 0.3; stroke-linecap: square"/>
   </g>
   <g id="line2d_28">
    <path d="M 44.29625 35.836128 
L 57.79625 33.647679 
" clip-path="url(#p7099afdc86)" style="fill: none; stroke: #999999; stroke-opacity: 0.8; stroke-width: 0.3; stroke-linecap: square"/>
   </g>
   <g id="line2d_29">
    <path d="M 44.29625 24.893879 
L 57.79625 18.32853 
" clip-path="url(#p7099afdc86)" style="fill: none; stroke: #999999; stroke-opacity: 0.8; stroke-width: 0.3; stroke-linecap: square"/>
   </g>
   <g id="line2d_30">
    <path d="M 44.29625 18.32853 
L 57.79625 19.422755 
" clip-path="url(#p7099afdc86)" style="fill: none; stroke: #999999; stroke-opacity: 0.8; stroke-width: 0.3; stroke-linecap: square"/>
   </g>
   <g id="line2d_31">
    <path d="M 44.29625 33.647679 
L 57.79625 48.966828 
" clip-path="url(#p7099afdc86)" style="fill: none; stroke: #999999; stroke-opacity: 0.8; stroke-width: 0.3; stroke-linecap: square"/>
   </g>
   <g id="line2d_32">
    <path d="M 44.29625 27.082329 
L 57.79625 43.495703 
" clip-path="url(#p7099afdc86)" style="fill: none; stroke: #999999; stroke-opacity: 0.8; stroke-width: 0.3; stroke-linecap: square"/>
   </g>
   <g id="line2d_33">
    <path d="M 44.29625 54.437952 
L 57.79625 30.365004 
" clip-path="url(#p7099afdc86)" style="fill: none; stroke: #999999; stroke-opacity: 0.8; stroke-width: 0.3; stroke-linecap: square"/>
   </g>
   <g id="line2d_34">
    <path d="M 44.29625 16.14008 
L 57.79625 45.684153 
" clip-path="url(#p7099afdc86)" style="fill: none; stroke: #999999; stroke-opacity: 0.8; stroke-width: 0.3; stroke-linecap: square"/>
   </g>
   <g id="line2d_35">
    <path d="M 44.29625 20.516979 
L 57.79625 27.082329 
" clip-path="url(#p7099afdc86)" style="fill: none; stroke: #999999; stroke-opacity: 0.8; stroke-width: 0.3; stroke-linecap: square"/>
   </g>
   <g id="line2d_36">
    <path d="M 44.29625 19.422755 
L 57.79625 19.422755 
" clip-path="url(#p7099afdc86)" style="fill: none; stroke: #999999; stroke-opacity: 0.8; stroke-width: 0.3; stroke-linecap: square"/>
   </g>
   <g id="line2d_37">
    <path d="M 44.29625 19.422755 
L 57.79625 36.930353 
" clip-path="url(#p7099afdc86)" style="fill: none; stroke: #999999; stroke-opacity: 0.8; stroke-width: 0.3; stroke-linecap: square"/>
   </g>
   <g id="line2d_38">
    <path d="M 44.29625 18.32853 
L 57.79625 30.365004 
" clip-path="url(#p7099afdc86)" style="fill: none; stroke: #999999; stroke-opacity: 0.8; stroke-width: 0.3; stroke-linecap: square"/>
   </g>
   <g id="line2d_39">
    <path d="M 44.29625 16.14008 
L 57.79625 22.705429 
" clip-path="url(#p7099afdc86)" style="fill: none; stroke: #999999; stroke-opacity: 0.8; stroke-width: 0.3; stroke-linecap: square"/>
   </g>
   <g id="line2d_40">
    <path d="M 44.29625 15.045855 
L 57.79625 19.422755 
" clip-path="url(#p7099afdc86)" style="fill: none; stroke: #999999; stroke-opacity: 0.8; stroke-width: 0.3; stroke-linecap: square"/>
   </g>
   <g id="line2d_41">
    <path d="M 44.29625 21.611204 
L 57.79625 22.705429 
" clip-path="url(#p7099afdc86)" style="fill: none; stroke: #999999; stroke-opacity: 0.8; stroke-width: 0.3; stroke-linecap: square"/>
   </g>
   <g id="line2d_42">
    <path d="M 44.29625 20.516979 
L 57.79625 20.516979 
" clip-path="url(#p7099afdc86)" style="fill: none; stroke: #999999; stroke-opacity: 0.8; stroke-width: 0.3; stroke-linecap: square"/>
   </g>
   <g id="line2d_43">
    <path d="M 44.29625 39.118803 
L 57.79625 21.611204 
" clip-path="url(#p7099afdc86)" style="fill: none; stroke: #999999; stroke-opacity: 0.8; stroke-width: 0.3; stroke-linecap: square"/>
   </g>
   <g id="line2d_44">
    <path d="M 44.29625 27.082329 
L 57.79625 19.422755 
" clip-path="url(#p7099afdc86)" style="fill: none; stroke: #999999; stroke-opacity: 0.8; stroke-width: 0.3; stroke-linecap: square"/>
   </g>
   <g id="line2d_45">
    <path d="M 44.29625 30.365004 
L 57.79625 25.988104 
" clip-path="url(#p7099afdc86)" style="fill: none; stroke: #999999; stroke-opacity: 0.8; stroke-width: 0.3; stroke-linecap: square"/>
   </g>
   <g id="line2d_46">
    <path d="M 44.29625 33.647679 
L 57.79625 27.082329 
" clip-path="url(#p7099afdc86)" style="fill: none; stroke: #999999; stroke-opacity: 0.8; stroke-width: 0.3; stroke-linecap: square"/>
   </g>
   <g id="line2d_47">
    <path d="M 44.29625 24.893879 
L 57.79625 36.930353 
" clip-path="url(#p7099afdc86)" style="fill: none; stroke: #999999; stroke-opacity: 0.8; stroke-width: 0.3; stroke-linecap: square"/>
   </g>
   <g id="line2d_48">
    <path d="M 44.29625 33.647679 
L 57.79625 27.082329 
" clip-path="url(#p7099afdc86)" style="fill: none; stroke: #999999; stroke-opacity: 0.8; stroke-width: 0.3; stroke-linecap: square"/>
   </g>
   <g id="line2d_49">
    <path d="M 44.29625 27.717685 
L 57.79625 40.33657 
" clip-path="url(#p7099afdc86)" style="fill: none; stroke: #999999; stroke-opacity: 0.8; stroke-width: 0.3; stroke-linecap: square"/>
   </g>
   <g id="line2d_50">
    <path d="M 44.29625 29.270779 
L 57.79625 39.118803 
" clip-path="url(#p7099afdc86)" style="fill: none; stroke: #999999; stroke-opacity: 0.8; stroke-width: 0.3; stroke-linecap: square"/>
   </g>
   <g id="line2d_51">
    <path d="M 44.29625 35.836128 
L 57.79625 47.872603 
" clip-path="url(#p7099afdc86)" style="fill: none; stroke: #999999; stroke-opacity: 0.8; stroke-width: 0.3; stroke-linecap: square"/>
   </g>
   <g id="line2d_52">
    <path d="M 44.29625 44.589928 
L 57.79625 33.647679 
" clip-path="url(#p7099afdc86)" style="fill: none; stroke: #999999; stroke-opacity: 0.8; stroke-width: 0.3; stroke-linecap: square"/>
   </g>
   <g id="line2d_53">
    <path d="M 44.29625 19.422755 
L 57.79625 46.778378 
" clip-path="url(#p7099afdc86)" style="fill: none; stroke: #999999; stroke-opacity: 0.8; stroke-width: 0.3; stroke-linecap: square"/>
   </g>
   <g id="line2d_54">
    <path d="M 44.29625 38.024578 
L 57.79625 39.118803 
" clip-path="url(#p7099afdc86)" style="fill: none; stroke: #999999; stroke-opacity: 0.8; stroke-width: 0.3; stroke-linecap: square"/>
   </g>
   <g id="line2d_55">
    <path d="M 44.29625 24.893879 
L 57.79625 23.799654 
" clip-path="url(#p7099afdc86)" style="fill: none; stroke: #999999; stroke-opacity: 0.8; stroke-width: 0.3; stroke-linecap: square"/>
   </g>
   <g id="line2d_56">
    <path d="M 44.29625 32.553454 
L 57.79625 36.930353 
" clip-path="url(#p7099afdc86)" style="fill: none; stroke: #999999; stroke-opacity: 0.8; stroke-width: 0.3; stroke-linecap: square"/>
   </g>
   <g id="line2d_57">
    <path d="M 44.29625 33.647679 
L 57.79625 40.213028 
" clip-path="url(#p7099afdc86)" style="fill: none; stroke: #999999; stroke-opacity: 0.8; stroke-width: 0.3; stroke-linecap: square"/>
   </g>
   <g id="line2d_58">
    <path d="M 44.29625 39.118803 
L 57.79625 39.118803 
" clip-path="url(#p7099afdc86)" style="fill: none; stroke: #999999; stroke-opacity: 0.8; stroke-width: 0.3; stroke-linecap: square"/>
   </g>
   <g id="line2d_59">
    <path d="M 44.29625 27.082329 
L 57.79625 52.249502 
" clip-path="url(#p7099afdc86)" style="fill: none; stroke: #999999; stroke-opacity: 0.8; stroke-width: 0.3; stroke-linecap: square"/>
   </g>
   <g id="line2d_60">
    <path d="M 44.29625 40.213028 
L 57.79625 44.589928 
" clip-path="url(#p7099afdc86)" style="fill: none; stroke: #999999; stroke-opacity: 0.8; stroke-width: 0.3; stroke-linecap: square"/>
   </g>
   <g id="patch_9">
    <path d="M 24.04625 85.07625 
L 24.04625 13.07625 
" style="fill: none; stroke: #000000; stroke-width: 0.5; stroke-linejoin: miter; stroke-linecap: square"/>
   </g>
   <g id="patch_10">
    <path d="M 24.04625 85.07625 
L 78.04625 85.07625 
" style="fill: none; stroke: #000000; stroke-width: 0.5; stroke-linejoin: miter; stroke-linecap: square"/>
   </g>
   <g id="PathCollection_1">
    <defs>
     <path id="m47f2cfafef" d="M 0 1.936492 
C 0.513564 1.936492 1.006162 1.732451 1.369306 1.369306 
C 1.732451 1.006162 1.936492 0.513564 1.936492 0 
C 1.936492 -0.513564 1.732451 -1.006162 1.369306 -1.369306 
C 1.006162 -1.732451 0.513564 -1.936492 0 -1.936492 
C -0.513564 -1.936492 -1.006162 -1.732451 -1.369306 -1.369306 
C -1.732451 -1.006162 -1.936492 -0.513564 -1.936492 0 
C -1.936492 0.513564 -1.732451 1.006162 -1.369306 1.369306 
C -1.006162 1.732451 -0.513564 1.936492 0 1.936492 
z
"/>
    </defs>
    <g clip-path="url(#p7099afdc86)">
     <use xlink:href="#m47f2cfafef" x="44.29625" y="36.930353" style="fill: #228b22; fill-opacity: 0.2"/>
     <use xlink:href="#m47f2cfafef" x="44.29625" y="36.930353" style="fill: #228b22; fill-opacity: 0.2"/>
     <use xlink:href="#m47f2cfafef" x="44.29625" y="38.024578" style="fill: #228b22; fill-opacity: 0.2"/>
     <use xlink:href="#m47f2cfafef" x="44.29625" y="23.799654" style="fill: #228b22; fill-opacity: 0.2"/>
     <use xlink:href="#m47f2cfafef" x="44.29625" y="20.516979" style="fill: #228b22; fill-opacity: 0.2"/>
     <use xlink:href="#m47f2cfafef" x="44.29625" y="34.741903" style="fill: #228b22; fill-opacity: 0.2"/>
     <use xlink:href="#m47f2cfafef" x="44.29625" y="17.234305" style="fill: #228b22; fill-opacity: 0.2"/>
     <use xlink:href="#m47f2cfafef" x="44.29625" y="19.422755" style="fill: #228b22; fill-opacity: 0.2"/>
     <use xlink:href="#m47f2cfafef" x="44.29625" y="33.647679" style="fill: #228b22; fill-opacity: 0.2"/>
     <use xlink:href="#m47f2cfafef" x="44.29625" y="19.422755" style="fill: #228b22; fill-opacity: 0.2"/>
     <use xlink:href="#m47f2cfafef" x="44.29625" y="35.836128" style="fill: #228b22; fill-opacity: 0.2"/>
     <use xlink:href="#m47f2cfafef" x="44.29625" y="25.988104" style="fill: #228b22; fill-opacity: 0.2"/>
     <use xlink:href="#m47f2cfafef" x="44.29625" y="19.422755" style="fill: #228b22; fill-opacity: 0.2"/>
     <use xlink:href="#m47f2cfafef" x="44.29625" y="32.553454" style="fill: #228b22; fill-opacity: 0.2"/>
     <use xlink:href="#m47f2cfafef" x="44.29625" y="23.799654" style="fill: #228b22; fill-opacity: 0.2"/>
     <use xlink:href="#m47f2cfafef" x="44.29625" y="27.082329" style="fill: #228b22; fill-opacity: 0.2"/>
     <use xlink:href="#m47f2cfafef" x="44.29625" y="38.024578" style="fill: #228b22; fill-opacity: 0.2"/>
     <use xlink:href="#m47f2cfafef" x="44.29625" y="40.213028" style="fill: #228b22; fill-opacity: 0.2"/>
     <use xlink:href="#m47f2cfafef" x="44.29625" y="33.647679" style="fill: #228b22; fill-opacity: 0.2"/>
     <use xlink:href="#m47f2cfafef" x="44.29625" y="35.836128" style="fill: #228b22; fill-opacity: 0.2"/>
     <use xlink:href="#m47f2cfafef" x="44.29625" y="24.893879" style="fill: #228b22; fill-opacity: 0.2"/>
     <use xlink:href="#m47f2cfafef" x="44.29625" y="18.32853" style="fill: #228b22; fill-opacity: 0.2"/>
     <use xlink:href="#m47f2cfafef" x="44.29625" y="33.647679" style="fill: #228b22; fill-opacity: 0.2"/>
     <use xlink:href="#m47f2cfafef" x="44.29625" y="27.082329" style="fill: #228b22; fill-opacity: 0.2"/>
     <use xlink:href="#m47f2cfafef" x="44.29625" y="54.437952" style="fill: #228b22; fill-opacity: 0.2"/>
     <use xlink:href="#m47f2cfafef" x="44.29625" y="16.14008" style="fill: #228b22; fill-opacity: 0.2"/>
     <use xlink:href="#m47f2cfafef" x="44.29625" y="20.516979" style="fill: #228b22; fill-opacity: 0.2"/>
     <use xlink:href="#m47f2cfafef" x="44.29625" y="19.422755" style="fill: #228b22; fill-opacity: 0.2"/>
     <use xlink:href="#m47f2cfafef" x="44.29625" y="19.422755" style="fill: #228b22; fill-opacity: 0.2"/>
     <use xlink:href="#m47f2cfafef" x="44.29625" y="18.32853" style="fill: #228b22; fill-opacity: 0.2"/>
     <use xlink:href="#m47f2cfafef" x="44.29625" y="16.14008" style="fill: #228b22; fill-opacity: 0.2"/>
     <use xlink:href="#m47f2cfafef" x="44.29625" y="15.045855" style="fill: #228b22; fill-opacity: 0.2"/>
     <use xlink:href="#m47f2cfafef" x="44.29625" y="21.611204" style="fill: #228b22; fill-opacity: 0.2"/>
     <use xlink:href="#m47f2cfafef" x="44.29625" y="20.516979" style="fill: #228b22; fill-opacity: 0.2"/>
     <use xlink:href="#m47f2cfafef" x="44.29625" y="39.118803" style="fill: #228b22; fill-opacity: 0.2"/>
     <use xlink:href="#m47f2cfafef" x="44.29625" y="27.082329" style="fill: #228b22; fill-opacity: 0.2"/>
     <use xlink:href="#m47f2cfafef" x="44.29625" y="30.365004" style="fill: #228b22; fill-opacity: 0.2"/>
     <use xlink:href="#m47f2cfafef" x="44.29625" y="33.647679" style="fill: #228b22; fill-opacity: 0.2"/>
     <use xlink:href="#m47f2cfafef" x="44.29625" y="24.893879" style="fill: #228b22; fill-opacity: 0.2"/>
     <use xlink:href="#m47f2cfafef" x="44.29625" y="33.647679" style="fill: #228b22; fill-opacity: 0.2"/>
     <use xlink:href="#m47f2cfafef" x="44.29625" y="27.717685" style="fill: #228b22; fill-opacity: 0.2"/>
     <use xlink:href="#m47f2cfafef" x="44.29625" y="29.270779" style="fill: #228b22; fill-opacity: 0.2"/>
     <use xlink:href="#m47f2cfafef" x="44.29625" y="35.836128" style="fill: #228b22; fill-opacity: 0.2"/>
     <use xlink:href="#m47f2cfafef" x="44.29625" y="44.589928" style="fill: #228b22; fill-opacity: 0.2"/>
     <use xlink:href="#m47f2cfafef" x="44.29625" y="19.422755" style="fill: #228b22; fill-opacity: 0.2"/>
     <use xlink:href="#m47f2cfafef" x="44.29625" y="38.024578" style="fill: #228b22; fill-opacity: 0.2"/>
     <use xlink:href="#m47f2cfafef" x="44.29625" y="24.893879" style="fill: #228b22; fill-opacity: 0.2"/>
     <use xlink:href="#m47f2cfafef" x="44.29625" y="32.553454" style="fill: #228b22; fill-opacity: 0.2"/>
     <use xlink:href="#m47f2cfafef" x="44.29625" y="33.647679" style="fill: #228b22; fill-opacity: 0.2"/>
     <use xlink:href="#m47f2cfafef" x="44.29625" y="39.118803" style="fill: #228b22; fill-opacity: 0.2"/>
     <use xlink:href="#m47f2cfafef" x="44.29625" y="27.082329" style="fill: #228b22; fill-opacity: 0.2"/>
     <use xlink:href="#m47f2cfafef" x="44.29625" y="40.213028" style="fill: #228b22; fill-opacity: 0.2"/>
    </g>
   </g>
   <g id="PathCollection_2">
    <defs>
     <path id="m2f48db7ad5" d="M 0 1.936492 
C 0.513564 1.936492 1.006162 1.732451 1.369306 1.369306 
C 1.732451 1.006162 1.936492 0.513564 1.936492 0 
C 1.936492 -0.513564 1.732451 -1.006162 1.369306 -1.369306 
C 1.006162 -1.732451 0.513564 -1.936492 0 -1.936492 
C -0.513564 -1.936492 -1.006162 -1.732451 -1.369306 -1.369306 
C -1.732451 -1.006162 -1.936492 -0.513564 -1.936492 0 
C -1.936492 0.513564 -1.732451 1.006162 -1.369306 1.369306 
C -1.006162 1.732451 -0.513564 1.936492 0 1.936492 
z
"/>
    </defs>
    <g clip-path="url(#p7099afdc86)">
     <use xlink:href="#m2f48db7ad5" x="57.79625" y="35.836128" style="fill: #cd5c5c; fill-opacity: 0.2"/>
     <use xlink:href="#m2f48db7ad5" x="57.79625" y="33.647679" style="fill: #cd5c5c; fill-opacity: 0.2"/>
     <use xlink:href="#m2f48db7ad5" x="57.79625" y="43.495703" style="fill: #cd5c5c; fill-opacity: 0.2"/>
     <use xlink:href="#m2f48db7ad5" x="57.79625" y="24.893879" style="fill: #cd5c5c; fill-opacity: 0.2"/>
     <use xlink:href="#m2f48db7ad5" x="57.79625" y="15.045855" style="fill: #cd5c5c; fill-opacity: 0.2"/>
     <use xlink:href="#m2f48db7ad5" x="57.79625" y="34.741903" style="fill: #cd5c5c; fill-opacity: 0.2"/>
     <use xlink:href="#m2f48db7ad5" x="57.79625" y="18.32853" style="fill: #cd5c5c; fill-opacity: 0.2"/>
     <use xlink:href="#m2f48db7ad5" x="57.79625" y="22.705429" style="fill: #cd5c5c; fill-opacity: 0.2"/>
     <use xlink:href="#m2f48db7ad5" x="57.79625" y="44.589928" style="fill: #cd5c5c; fill-opacity: 0.2"/>
     <use xlink:href="#m2f48db7ad5" x="57.79625" y="22.705429" style="fill: #cd5c5c; fill-opacity: 0.2"/>
     <use xlink:href="#m2f48db7ad5" x="57.79625" y="46.778378" style="fill: #cd5c5c; fill-opacity: 0.2"/>
     <use xlink:href="#m2f48db7ad5" x="57.79625" y="21.611204" style="fill: #cd5c5c; fill-opacity: 0.2"/>
     <use xlink:href="#m2f48db7ad5" x="57.79625" y="17.234305" style="fill: #cd5c5c; fill-opacity: 0.2"/>
     <use xlink:href="#m2f48db7ad5" x="57.79625" y="28.176554" style="fill: #cd5c5c; fill-opacity: 0.2"/>
     <use xlink:href="#m2f48db7ad5" x="57.79625" y="33.647679" style="fill: #cd5c5c; fill-opacity: 0.2"/>
     <use xlink:href="#m2f48db7ad5" x="57.79625" y="24.893879" style="fill: #cd5c5c; fill-opacity: 0.2"/>
     <use xlink:href="#m2f48db7ad5" x="57.79625" y="28.176554" style="fill: #cd5c5c; fill-opacity: 0.2"/>
     <use xlink:href="#m2f48db7ad5" x="57.79625" y="21.611204" style="fill: #cd5c5c; fill-opacity: 0.2"/>
     <use xlink:href="#m2f48db7ad5" x="57.79625" y="33.647679" style="fill: #cd5c5c; fill-opacity: 0.2"/>
     <use xlink:href="#m2f48db7ad5" x="57.79625" y="33.647679" style="fill: #cd5c5c; fill-opacity: 0.2"/>
     <use xlink:href="#m2f48db7ad5" x="57.79625" y="18.32853" style="fill: #cd5c5c; fill-opacity: 0.2"/>
     <use xlink:href="#m2f48db7ad5" x="57.79625" y="19.422755" style="fill: #cd5c5c; fill-opacity: 0.2"/>
     <use xlink:href="#m2f48db7ad5" x="57.79625" y="48.966828" style="fill: #cd5c5c; fill-opacity: 0.2"/>
     <use xlink:href="#m2f48db7ad5" x="57.79625" y="43.495703" style="fill: #cd5c5c; fill-opacity: 0.2"/>
     <use xlink:href="#m2f48db7ad5" x="57.79625" y="30.365004" style="fill: #cd5c5c; fill-opacity: 0.2"/>
     <use xlink:href="#m2f48db7ad5" x="57.79625" y="45.684153" style="fill: #cd5c5c; fill-opacity: 0.2"/>
     <use xlink:href="#m2f48db7ad5" x="57.79625" y="27.082329" style="fill: #cd5c5c; fill-opacity: 0.2"/>
     <use xlink:href="#m2f48db7ad5" x="57.79625" y="19.422755" style="fill: #cd5c5c; fill-opacity: 0.2"/>
     <use xlink:href="#m2f48db7ad5" x="57.79625" y="36.930353" style="fill: #cd5c5c; fill-opacity: 0.2"/>
     <use xlink:href="#m2f48db7ad5" x="57.79625" y="30.365004" style="fill: #cd5c5c; fill-opacity: 0.2"/>
     <use xlink:href="#m2f48db7ad5" x="57.79625" y="22.705429" style="fill: #cd5c5c; fill-opacity: 0.2"/>
     <use xlink:href="#m2f48db7ad5" x="57.79625" y="19.422755" style="fill: #cd5c5c; fill-opacity: 0.2"/>
     <use xlink:href="#m2f48db7ad5" x="57.79625" y="22.705429" style="fill: #cd5c5c; fill-opacity: 0.2"/>
     <use xlink:href="#m2f48db7ad5" x="57.79625" y="20.516979" style="fill: #cd5c5c; fill-opacity: 0.2"/>
     <use xlink:href="#m2f48db7ad5" x="57.79625" y="21.611204" style="fill: #cd5c5c; fill-opacity: 0.2"/>
     <use xlink:href="#m2f48db7ad5" x="57.79625" y="19.422755" style="fill: #cd5c5c; fill-opacity: 0.2"/>
     <use xlink:href="#m2f48db7ad5" x="57.79625" y="25.988104" style="fill: #cd5c5c; fill-opacity: 0.2"/>
     <use xlink:href="#m2f48db7ad5" x="57.79625" y="27.082329" style="fill: #cd5c5c; fill-opacity: 0.2"/>
     <use xlink:href="#m2f48db7ad5" x="57.79625" y="36.930353" style="fill: #cd5c5c; fill-opacity: 0.2"/>
     <use xlink:href="#m2f48db7ad5" x="57.79625" y="27.082329" style="fill: #cd5c5c; fill-opacity: 0.2"/>
     <use xlink:href="#m2f48db7ad5" x="57.79625" y="40.33657" style="fill: #cd5c5c; fill-opacity: 0.2"/>
     <use xlink:href="#m2f48db7ad5" x="57.79625" y="39.118803" style="fill: #cd5c5c; fill-opacity: 0.2"/>
     <use xlink:href="#m2f48db7ad5" x="57.79625" y="47.872603" style="fill: #cd5c5c; fill-opacity: 0.2"/>
     <use xlink:href="#m2f48db7ad5" x="57.79625" y="33.647679" style="fill: #cd5c5c; fill-opacity: 0.2"/>
     <use xlink:href="#m2f48db7ad5" x="57.79625" y="46.778378" style="fill: #cd5c5c; fill-opacity: 0.2"/>
     <use xlink:href="#m2f48db7ad5" x="57.79625" y="39.118803" style="fill: #cd5c5c; fill-opacity: 0.2"/>
     <use xlink:href="#m2f48db7ad5" x="57.79625" y="23.799654" style="fill: #cd5c5c; fill-opacity: 0.2"/>
     <use xlink:href="#m2f48db7ad5" x="57.79625" y="36.930353" style="fill: #cd5c5c; fill-opacity: 0.2"/>
     <use xlink:href="#m2f48db7ad5" x="57.79625" y="40.213028" style="fill: #cd5c5c; fill-opacity: 0.2"/>
     <use xlink:href="#m2f48db7ad5" x="57.79625" y="39.118803" style="fill: #cd5c5c; fill-opacity: 0.2"/>
     <use xlink:href="#m2f48db7ad5" x="57.79625" y="52.249502" style="fill: #cd5c5c; fill-opacity: 0.2"/>
     <use xlink:href="#m2f48db7ad5" x="57.79625" y="44.589928" style="fill: #cd5c5c; fill-opacity: 0.2"/>
    </g>
   </g>
   <g id="line2d_61">
    <path d="M 40.92125 28.841099 
L 29.67125 28.841099 
" clip-path="url(#p7099afdc86)" style="fill: none; stroke: #000000; stroke-width: 0.85; stroke-linecap: square"/>
   </g>
   <g id="line2d_62">
    <path d="M 61.17125 31.398476 
L 72.42125 31.398476 
" clip-path="url(#p7099afdc86)" style="fill: none; stroke: #000000; stroke-width: 0.85; stroke-linecap: square"/>
   </g>
   <g id="LineCollection_1">
    <path d="M 35.29625 30.051866 
L 35.29625 27.630331 
" clip-path="url(#p7099afdc86)" style="fill: none; stroke: #000000; stroke-width: 0.85"/>
   </g>
   <g id="line2d_63">
    <defs>
     <path id="mc8f319984d" d="M 4 0 
L -4 -0 
" style="stroke: #000000; stroke-width: 0.85"/>
    </defs>
    <g clip-path="url(#p7099afdc86)">
     <use xlink:href="#mc8f319984d" x="35.29625" y="30.051866" style="stroke: #000000; stroke-width: 0.85"/>
    </g>
   </g>
   <g id="line2d_64">
    <g clip-path="url(#p7099afdc86)">
     <use xlink:href="#mc8f319984d" x="35.29625" y="27.630331" style="stroke: #000000; stroke-width: 0.85"/>
    </g>
   </g>
   <g id="LineCollection_2">
    <path d="M 66.79625 32.793209 
L 66.79625 30.003744 
" clip-path="url(#p7099afdc86)" style="fill: none; stroke: #000000; stroke-width: 0.85"/>
   </g>
   <g id="line2d_65">
    <g clip-path="url(#p7099afdc86)">
     <use xlink:href="#mc8f319984d" x="66.79625" y="32.793209" style="stroke: #000000; stroke-width: 0.85"/>
    </g>
   </g>
   <g id="line2d_66">
    <g clip-path="url(#p7099afdc86)">
     <use xlink:href="#mc8f319984d" x="66.79625" y="30.003744" style="stroke: #000000; stroke-width: 0.85"/>
    </g>
   </g>
   <g id="line2d_67">
    <path d="M 40.92125 11.63625 
L 61.17125 11.63625 
" style="fill: none; stroke: #000000; stroke-width: 0.5; stroke-linecap: square"/>
   </g>
   <g id="text_8">
    <text style="font-size: 8px; font-family: 'Arial'; text-anchor: middle" x="51.04625" y="12.92625" transform="rotate(-0 51.04625 12.92625)">ns</text>
   </g>
  </g>
 </g>
 <defs>
  <clipPath id="p7099afdc86">
   <rect x="24.04625" y="13.07625" width="54" height="72"/>
  </clipPath>
 </defs>
</svg>
