<?xml version="1.0" encoding="utf-8" standalone="no"?>
<!DOCTYPE svg PUBLIC "-//W3C//DTD SVG 1.1//EN"
  "http://www.w3.org/Graphics/SVG/1.1/DTD/svg11.dtd">
<svg xmlns:xlink="http://www.w3.org/1999/xlink" width="155.2025pt" height="100.079375pt" viewBox="0 0 155.2025 100.079375" xmlns="http://www.w3.org/2000/svg" version="1.1">
 <metadata>
  <rdf:RDF xmlns:dc="http://purl.org/dc/elements/1.1/" xmlns:cc="http://creativecommons.org/ns#" xmlns:rdf="http://www.w3.org/1999/02/22-rdf-syntax-ns#">
   <cc:Work>
    <dc:type rdf:resource="http://purl.org/dc/dcmitype/StillImage"/>
    <dc:date>2026-04-02T15:51:15.941898</dc:date>
    <dc:format>image/svg+xml</dc:format>
    <dc:creator>
     <cc:Agent>
      <dc:title>Matplotlib v3.10.8, https://matplotlib.org/</dc:title>
     </cc:Agent>
    </dc:creator>
   </cc:Work>
  </rdf:RDF>
 </metadata>
 <defs>
  <style type="text/css">*{stroke-linejoin: round; stroke-linecap: butt}</style>
 </defs>
 <g id="figure_1">
  <g id="patch_1">
   <path d="M 0 100.079375 
L 155.2025 100.079375 
L 155.2025 0 
L 0 0 
z
" style="fill: #ffffff"/>
  </g>
  <g id="axes_1">
   <g id="patch_2">
    <path d="M 35.55375 82.063125 
L 143.55375 82.063125 
L 143.55375 10.063125 
L 35.55375 10.063125 
z
" style="fill: #ffffff"/>
   </g>
   <g id="line2d_1">
    <path d="M 35.55375 58.063125 
L 143.55375 58.063125 
" clip-path="url(#p414e116cf1)" style="fill: none; stroke-dasharray: 3.256,1.408; stroke-dashoffset: 0; stroke: #808080; stroke-opacity: 0.5; stroke-width: 0.88"/>
   </g>
   <g id="FillBetweenPolyCollection_1">
    <defs>
     <path id="m2d1bd59cb3" d="M 35.55375 -55.770872 
L 35.55375 -42.341628 
L 40.05375 -45.872604 
L 44.55375 -42.570937 
L 49.05375 -44.719191 
L 53.55375 -49.465022 
L 58.05375 -49.356342 
L 62.55375 -50.413438 
L 67.05375 -51.603415 
L 71.55375 -52.074461 
L 76.05375 -52.798062 
L 80.55375 -58.564257 
L 85.05375 -52.074461 
L 89.55375 -57.184722 
L 94.05375 -64.268118 
L 98.55375 -59.156885 
L 103.05375 -65.248348 
L 107.55375 -57.000424 
L 112.05375 -57.410451 
L 116.55375 -65.248348 
L 121.05375 -69.457268 
L 125.55375 -63.761682 
L 130.05375 -68.89625 
L 134.55375 -71.057111 
L 139.05375 -63.322928 
L 143.55375 -64.969911 
L 143.55375 -81.756466 
L 143.55375 -81.756466 
L 139.05375 -80.229572 
L 134.55375 -84.015389 
L 130.05375 -82.33625 
L 125.55375 -79.790818 
L 121.05375 -81.775232 
L 116.55375 -80.224152 
L 112.05375 -74.622049 
L 107.55375 -75.032076 
L 103.05375 -80.224152 
L 98.55375 -74.795615 
L 94.05375 -78.644382 
L 89.55375 -74.207778 
L 85.05375 -65.238039 
L 80.55375 -74.108243 
L 76.05375 -68.354438 
L 71.55375 -65.238039 
L 67.05375 -65.709085 
L 62.55375 -65.619062 
L 58.05375 -64.116158 
L 53.55375 -65.287478 
L 49.05375 -59.793309 
L 44.55375 -56.821563 
L 40.05375 -58.639896 
L 35.55375 -55.770872 
z
"/>
    </defs>
    <g clip-path="url(#p414e116cf1)">
     <use xlink:href="#m2d1bd59cb3" x="0" y="100.079375" style="fill: #cd5c5c; fill-opacity: 0.25"/>
    </g>
   </g>
   <g id="FillBetweenPolyCollection_2">
    <defs>
     <path id="m15e6ac9b98" d="M 35.55375 -51.140001 
L 35.55375 -36.732499 
L 40.05375 -49.534006 
L 44.55375 -53.133727 
L 49.05375 -44.44825 
L 53.55375 -53.773515 
L 58.05375 -53.909625 
L 62.55375 -57.649287 
L 67.05375 -56.204274 
L 71.55375 -61.686669 
L 76.05375 -58.403889 
L 80.55375 -69.570256 
L 85.05375 -72.153966 
L 89.55375 -69.94979 
L 94.05375 -69.209042 
L 98.55375 -71.84025 
L 103.05375 -72.756253 
L 107.55375 -62.316048 
L 112.05375 -71.057111 
L 116.55375 -75.04025 
L 121.05375 -78.632744 
L 125.55375 -67.834871 
L 130.05375 -71.641006 
L 134.55375 -65.74745 
L 139.05375 -68.378588 
L 143.55375 -71.874201 
L 143.55375 -84.648095 
L 143.55375 -84.648095 
L 139.05375 -82.853912 
L 134.55375 -79.72505 
L 130.05375 -83.431494 
L 125.55375 -81.477629 
L 121.05375 -87.959756 
L 116.55375 -85.79225 
L 112.05375 -84.015389 
L 107.55375 -79.316452 
L 103.05375 -84.236247 
L 98.55375 -82.59225 
L 94.05375 -80.103458 
L 89.55375 -81.92271 
L 85.05375 -80.998534 
L 80.55375 -81.022244 
L 76.05375 -72.988611 
L 71.55375 -74.825831 
L 67.05375 -72.628226 
L 62.55375 -69.903213 
L 58.05375 -67.242875 
L 53.55375 -68.658985 
L 49.05375 -58.78425 
L 44.55375 -66.738773 
L 40.05375 -62.658494 
L 35.55375 -51.140001 
z
"/>
    </defs>
    <g clip-path="url(#p414e116cf1)">
     <use xlink:href="#m15e6ac9b98" x="0" y="100.079375" style="fill: #228b22; fill-opacity: 0.25"/>
    </g>
   </g>
   <g id="matplotlib.axis_1">
    <g id="xtick_1">
     <g id="line2d_2">
      <defs>
       <path id="ma6aa32e88c" d="M 0 0 
L 0 -4 
" style="stroke: #000000; stroke-width: 0.5"/>
      </defs>
      <g>
       <use xlink:href="#ma6aa32e88c" x="35.55375" y="82.063125" style="stroke: #000000; stroke-width: 0.5"/>
      </g>
     </g>
     <g id="text_1">
      <text style="font-size: 8px; font-family: 'Arial'; text-anchor: middle" x="35.55375" y="91.289375" transform="rotate(-0 35.55375 91.289375)">1</text>
     </g>
    </g>
    <g id="xtick_2">
     <g id="line2d_3">
      <g>
       <use xlink:href="#ma6aa32e88c" x="76.05375" y="82.063125" style="stroke: #000000; stroke-width: 0.5"/>
      </g>
     </g>
     <g id="text_2">
      <text style="font-size: 8px; font-family: 'Arial'; text-anchor: middle" x="76.05375" y="91.289375" transform="rotate(-0 76.05375 91.289375)">10</text>
     </g>
    </g>
    <g id="xtick_3">
     <g id="line2d_4">
      <g>
       <use xlink:href="#ma6aa32e88c" x="121.05375" y="82.063125" style="stroke: #000000; stroke-width: 0.5"/>
      </g>
     </g>
     <g id="text_3">
      <text style="font-size: 8px; font-family: 'Arial'; text-anchor: middle" x="121.05375" y="91.289375" transform="rotate(-0 121.05375 91.289375)">20</text>
     </g>
    </g>
    <g id="xtick_4">
     <g id="line2d_5">
      <g>
       <use xlink:href="#ma6aa32e88c" x="143.55375" y="82.063125" style="stroke: #000000; stroke-width: 0.5"/>
      </g>
     </g>
     <g id="text_4">
      <text style="font-size: 8px; font-family: 'Arial'; text-anchor: middle" x="143.55375" y="91.289375" transform="rotate(-0 143.55375 91.289375)">25</text>
     </g>
    </g>
   </g>
   <g id="matplotlib.axis_2">
    <g id="ytick_1">
     <g id="line2d_6">
      <defs>
       <path id="m14637eef4e" d="M 0 0 
L 4 0 
" style="stroke: #000000; stroke-width: 0.5"/>
      </defs>
      <g>
       <use xlink:href="#m14637eef4e" x="35.55375" y="82.063125" style="stroke: #000000; stroke-width: 0.5"/>
      </g>
     </g>
     <g id="text_5">
      <text style="font-size: 8px; font-family: 'Arial'; text-anchor: end" x="32.05375" y="84.92625" transform="rotate(-0 32.05375 84.92625)">25</text>
     </g>
    </g>
    <g id="ytick_2">
     <g id="line2d_7">
      <g>
       <use xlink:href="#m14637eef4e" x="35.55375" y="58.063125" style="stroke: #000000; stroke-width: 0.5"/>
      </g>
     </g>
     <g id="text_6">
      <text style="font-size: 8px; font-family: 'Arial'; text-anchor: end" x="32.05375" y="60.92625" transform="rotate(-0 32.05375 60.92625)">50</text>
     </g>
    </g>
    <g id="ytick_3">
     <g id="line2d_8">
      <g>
       <use xlink:href="#m14637eef4e" x="35.55375" y="34.063125" style="stroke: #000000; stroke-width: 0.5"/>
      </g>
     </g>
     <g id="text_7">
      <text style="font-size: 8px; font-family: 'Arial'; text-anchor: end" x="32.05375" y="36.92625" transform="rotate(-0 32.05375 36.92625)">75</text>
     </g>
    </g>
    <g id="ytick_4">
     <g id="line2d_9">
      <g>
       <use xlink:href="#m14637eef4e" x="35.55375" y="10.063125" style="stroke: #000000; stroke-width: 0.5"/>
      </g>
     </g>
     <g id="text_8">
      <text style="font-size: 8px; font-family: 'Arial'; text-anchor: end" x="32.05375" y="12.92625" transform="rotate(-0 32.05375 12.92625)">100</text>
     </g>
    </g>
    <g id="text_9">
     <text style="font-size: 8px; font-family: 'Arial'; text-anchor: middle" x="13.02375" y="46.063125" transform="rotate(-90 13.02375 46.063125)">accuracy (%)</text>
    </g>
   </g>
   <g id="line2d_10">
    <path d="M 35.55375 51.023125 
L 40.05375 47.823125 
L 44.55375 50.383125 
L 49.05375 47.823125 
L 53.55375 42.703125 
L 58.05375 43.343125 
L 62.55375 42.063125 
L 67.05375 41.423125 
L 71.55375 41.423125 
L 76.05375 39.503125 
L 80.55375 33.743125 
L 85.05375 41.423125 
L 89.55375 34.383125 
L 94.05375 28.623125 
L 98.55375 33.103125 
L 103.05375 27.343125 
L 107.55375 34.063125 
L 112.05375 34.063125 
L 116.55375 27.343125 
L 121.05375 24.463125 
L 125.55375 28.303125 
L 130.05375 24.463125 
L 134.55375 22.543125 
L 139.05375 28.303125 
L 143.55375 26.716186 
" clip-path="url(#p414e116cf1)" style="fill: none; stroke: #cd5c5c; stroke-opacity: 0.9; stroke-width: 1.1; stroke-linecap: square"/>
   </g>
   <g id="line2d_11">
    <path d="M 35.55375 56.143125 
L 40.05375 43.983125 
L 44.55375 40.143125 
L 49.05375 48.463125 
L 53.55375 38.863125 
L 58.05375 39.503125 
L 62.55375 36.303125 
L 67.05375 35.663125 
L 71.55375 31.823125 
L 76.05375 34.383125 
L 80.55375 24.783125 
L 85.05375 23.503125 
L 89.55375 24.143125 
L 94.05375 25.423125 
L 98.55375 22.863125 
L 103.05375 21.583125 
L 107.55375 29.263125 
L 112.05375 22.543125 
L 116.55375 19.663125 
L 121.05375 16.783125 
L 125.55375 25.423125 
L 130.05375 22.543125 
L 134.55375 27.343125 
L 139.05375 24.463125 
L 143.55375 21.818227 
" clip-path="url(#p414e116cf1)" style="fill: none; stroke: #228b22; stroke-opacity: 0.9; stroke-width: 1.1; stroke-linecap: square"/>
   </g>
   <g id="patch_3">
    <path d="M 35.55375 82.063125 
L 35.55375 10.063125 
" style="fill: none; stroke: #000000; stroke-width: 0.5; stroke-linejoin: miter; stroke-linecap: square"/>
   </g>
   <g id="patch_4">
    <path d="M 35.55375 82.063125 
L 143.55375 82.063125 
" style="fill: none; stroke: #000000; stroke-width: 0.5; stroke-linejoin: miter; stroke-linecap: square"/>
   </g>
  </g>
 </g>
 <defs>
  <clipPath id="p414e116cf1">
   <rect x="35.55375" y="10.063125" width="108" height="72"/>
  </clipPath>
 </defs>
</svg>
