<?xml version="1.0" encoding="utf-8" standalone="no"?>
<!DOCTYPE svg PUBLIC "-//W3C//DTD SVG 1.1//EN"
  "http://www.w3.org/Graphics/SVG/1.1/DTD/svg11.dtd">
<svg xmlns:xlink="http://www.w3.org/1999/xlink" width="178.816452pt" height="180.186112pt" viewBox="0 0 178.816452 180.186112" xmlns="http://www.w3.org/2000/svg" version="1.1">
 <metadata>
  <rdf:RDF xmlns:dc="http://purl.org/dc/elements/1.1/" xmlns:cc="http://creativecommons.org/ns#" xmlns:rdf="http://www.w3.org/1999/02/22-rdf-syntax-ns#">
   <cc:Work>
    <dc:type rdf:resource="http://purl.org/dc/dcmitype/StillImage"/>
    <dc:date>2026-04-02T15:51:18.833019</dc:date>
    <dc:format>image/svg+xml</dc:format>
    <dc:creator>
     <cc:Agent>
      <dc:title>Matplotlib v3.10.8, https://matplotlib.org/</dc:title>
     </cc:Agent>
    </dc:creator>
   </cc:Work>
  </rdf:RDF>
 </metadata>
 <defs>
  <style type="text/css">*{stroke-linejoin: round; stroke-linecap: butt}</style>
 </defs>
 <g id="figure_1">
  <g id="patch_1">
   <path d="M 0 180.186112 
L 178.816452 180.186112 
L 178.816452 0 
L 0 0 
z
" style="fill: #ffffff"/>
  </g>
  <g id="axes_1">
   <g id="patch_2">
    <path d="M 35.55375 150.662362 
L 171.616452 150.662362 
L 171.616452 10.063125 
L 35.55375 10.063125 
z
" style="fill: #ffffff"/>
   </g>
   <g id="FillBetweenPolyCollection_1">
    <path d="M 118.703179 80.362744 
L 35.55375 80.362744 
L 35.55375 10.063125 
L 118.703179 10.063125 
L 118.703179 10.063125 
L 118.703179 80.362744 
z
" clip-path="url(#p8faa7ba6a3)" style="fill: #fbebd9"/>
   </g>
   <g id="FillBetweenPolyCollection_2">
    <path d="M 171.616452 80.362744 
L 118.703179 80.362744 
L 118.703179 10.063125 
L 171.616452 10.063125 
L 171.616452 10.063125 
L 171.616452 80.362744 
z
" clip-path="url(#p8faa7ba6a3)" style="fill: #dce8f4"/>
   </g>
   <g id="FillBetweenPolyCollection_3">
    <path d="M 118.703179 150.662362 
L 35.55375 150.662362 
L 35.55375 80.362744 
L 118.703179 80.362744 
L 118.703179 80.362744 
L 118.703179 150.662362 
z
" clip-path="url(#p8faa7ba6a3)" style="fill: #dce8f4"/>
   </g>
   <g id="FillBetweenPolyCollection_4">
    <path d="M 171.616452 150.662362 
L 118.703179 150.662362 
L 118.703179 80.362744 
L 171.616452 80.362744 
L 171.616452 80.362744 
L 171.616452 150.662362 
z
" clip-path="url(#p8faa7ba6a3)" style="fill: #ddd2c6"/>
   </g>
   <g id="FillBetweenPolyCollection_5">
    <path d="M 41.738418 72.252977 
L 41.738418 117.982953 
L 42.987846 117.270132 
L 44.237274 116.558141 
L 45.486702 115.847013 
L 46.73613 115.136784 
L 47.985558 114.427492 
L 49.234986 113.719176 
L 50.484414 113.011878 
L 51.733842 112.305641 
L 52.98327 111.600512 
L 54.232698 110.896539 
L 55.482125 110.193775 
L 56.731553 109.492273 
L 57.980981 108.79209 
L 59.230409 108.093288 
L 60.479837 107.39593 
L 61.729265 106.700084 
L 62.978693 106.005822 
L 64.228121 105.313219 
L 65.477549 104.622356 
L 66.726977 103.933318 
L 67.976405 103.246195 
L 69.225833 102.561081 
L 70.475261 101.878078 
L 71.724689 101.197292 
L 72.974117 100.518837 
L 74.223544 99.842834 
L 75.472972 99.169408 
L 76.7224 98.498695 
L 77.971828 97.830838 
L 79.221256 97.165987 
L 80.470684 96.504304 
L 81.720112 95.845957 
L 82.96954 95.191125 
L 84.218968 94.539998 
L 85.468396 93.892777 
L 86.717824 93.249671 
L 87.967252 92.610903 
L 89.21668 91.976708 
L 90.466108 91.347332 
L 91.715535 90.723031 
L 92.964963 90.104077 
L 94.214391 89.49075 
L 95.463819 88.883345 
L 96.713247 88.282166 
L 97.962675 87.687528 
L 99.212103 87.099756 
L 100.461531 86.519182 
L 101.710959 85.946146 
L 102.960387 85.380993 
L 104.209815 84.82407 
L 105.459243 84.275725 
L 106.708671 83.736302 
L 107.958099 83.20614 
L 109.207526 82.68557 
L 110.456954 82.174908 
L 111.706382 81.674454 
L 112.95581 81.184486 
L 114.205238 80.705258 
L 115.454666 80.236994 
L 116.704094 79.779888 
L 117.953522 79.334096 
L 119.20295 78.899736 
L 120.452378 78.476887 
L 121.701806 78.065584 
L 122.951234 77.665822 
L 124.200662 77.277551 
L 125.45009 76.900682 
L 126.699518 76.535083 
L 127.948945 76.180588 
L 129.198373 75.836995 
L 130.447801 75.504068 
L 131.697229 75.181547 
L 132.946657 74.869146 
L 134.196085 74.566561 
L 135.445513 74.27347 
L 136.694941 73.98954 
L 137.944369 73.714431 
L 139.193797 73.447796 
L 140.443225 73.189287 
L 141.692653 72.938557 
L 142.942081 72.695264 
L 144.191509 72.45907 
L 145.440936 72.229643 
L 146.690364 72.006663 
L 147.939792 71.789817 
L 149.18922 71.578803 
L 150.438648 71.373332 
L 151.688076 71.173126 
L 152.937504 70.977918 
L 154.186932 70.787454 
L 155.43636 70.601491 
L 156.685788 70.419799 
L 157.935216 70.242159 
L 159.184644 70.068363 
L 160.434072 69.898214 
L 161.6835 69.731527 
L 162.932927 69.568124 
L 164.182355 69.40784 
L 165.431783 69.250516 
L 165.431783 39.206763 
L 165.431783 39.206763 
L 164.182355 39.875487 
L 162.932927 40.541249 
L 161.6835 41.203894 
L 160.434072 41.863253 
L 159.184644 42.519152 
L 157.935216 43.171403 
L 156.685788 43.81981 
L 155.43636 44.464165 
L 154.186932 45.104249 
L 152.937504 45.739831 
L 151.688076 46.37067 
L 150.438648 46.996511 
L 149.18922 47.617087 
L 147.939792 48.232121 
L 146.690364 48.841321 
L 145.440936 49.444388 
L 144.191509 50.041008 
L 142.942081 50.630861 
L 141.692653 51.213615 
L 140.443225 51.788932 
L 139.193797 52.356471 
L 137.944369 52.915882 
L 136.694941 53.46682 
L 135.445513 54.008937 
L 134.196085 54.541893 
L 132.946657 55.065355 
L 131.697229 55.579001 
L 130.447801 56.082527 
L 129.198373 56.575647 
L 127.948945 57.0581 
L 126.699518 57.529652 
L 125.45009 57.990101 
L 124.200662 58.439279 
L 122.951234 58.877055 
L 121.701806 59.303339 
L 120.452378 59.718084 
L 119.20295 60.121281 
L 117.953522 60.512969 
L 116.704094 60.893223 
L 115.454666 61.262164 
L 114.205238 61.619948 
L 112.95581 61.966767 
L 111.706382 62.302846 
L 110.456954 62.628438 
L 109.207526 62.943823 
L 107.958099 63.2493 
L 106.708671 63.545186 
L 105.459243 63.83181 
L 104.209815 64.109511 
L 102.960387 64.378635 
L 101.710959 64.639529 
L 100.461531 64.89254 
L 99.212103 65.138013 
L 97.962675 65.376288 
L 96.713247 65.607697 
L 95.463819 65.832565 
L 94.214391 66.051207 
L 92.964963 66.263927 
L 91.715535 66.47102 
L 90.466108 66.672767 
L 89.21668 66.869437 
L 87.967252 67.061289 
L 86.717824 67.248568 
L 85.468396 67.431509 
L 84.218968 67.610335 
L 82.96954 67.785255 
L 81.720112 67.95647 
L 80.470684 68.12417 
L 79.221256 68.288533 
L 77.971828 68.44973 
L 76.7224 68.60792 
L 75.472972 68.763254 
L 74.223544 68.915875 
L 72.974117 69.065918 
L 71.724689 69.213511 
L 70.475261 69.358772 
L 69.225833 69.501816 
L 67.976405 69.642749 
L 66.726977 69.781672 
L 65.477549 69.918681 
L 64.228121 70.053865 
L 62.978693 70.18731 
L 61.729265 70.319094 
L 60.479837 70.449296 
L 59.230409 70.577985 
L 57.980981 70.705229 
L 56.731553 70.831094 
L 55.482125 70.955639 
L 54.232698 71.078921 
L 52.98327 71.200996 
L 51.733842 71.321914 
L 50.484414 71.441724 
L 49.234986 71.560472 
L 47.985558 71.678203 
L 46.73613 71.794958 
L 45.486702 71.910776 
L 44.237274 72.025695 
L 42.987846 72.139751 
L 41.738418 72.252977 
z
" clip-path="url(#p8faa7ba6a3)" style="fill: #505050; fill-opacity: 0.4"/>
   </g>
   <g id="FillBetweenPolyCollection_6">
    <path d="M 41.738418 48.547846 
L 41.738418 92.345629 
L 42.987846 91.635614 
L 44.237274 90.926546 
L 45.486702 90.218463 
L 46.73613 89.511407 
L 47.985558 88.805424 
L 49.234986 88.100559 
L 50.484414 87.396863 
L 51.733842 86.694387 
L 52.98327 85.993187 
L 54.232698 85.29332 
L 55.482125 84.594848 
L 56.731553 83.897836 
L 57.980981 83.202352 
L 59.230409 82.508469 
L 60.479837 81.816264 
L 61.729265 81.125818 
L 62.978693 80.437217 
L 64.228121 79.750552 
L 65.477549 79.06592 
L 66.726977 78.383423 
L 67.976405 77.703169 
L 69.225833 77.025274 
L 70.475261 76.349858 
L 71.724689 75.677051 
L 72.974117 75.00699 
L 74.223544 74.339818 
L 75.472972 73.67569 
L 76.7224 73.014767 
L 77.971828 72.357222 
L 79.221256 71.703235 
L 80.470684 71.052998 
L 81.720112 70.406715 
L 82.96954 69.764598 
L 84.218968 69.126873 
L 85.468396 68.493777 
L 86.717824 67.865557 
L 87.967252 67.242476 
L 89.21668 66.624806 
L 90.466108 66.01283 
L 91.715535 65.406846 
L 92.964963 64.80716 
L 94.214391 64.214091 
L 95.463819 63.627963 
L 96.713247 63.049112 
L 97.962675 62.477879 
L 99.212103 61.91461 
L 100.461531 61.359652 
L 101.710959 60.813351 
L 102.960387 60.276053 
L 104.209815 59.748094 
L 105.459243 59.229802 
L 106.708671 58.721488 
L 107.958099 58.22345 
L 109.207526 57.735959 
L 110.456954 57.259263 
L 111.706382 56.793579 
L 112.95581 56.339092 
L 114.205238 55.895951 
L 115.454666 55.464264 
L 116.704094 55.044099 
L 117.953522 54.635483 
L 119.20295 54.238401 
L 120.452378 53.852792 
L 121.701806 53.478558 
L 122.951234 53.115559 
L 124.200662 52.763619 
L 125.45009 52.422529 
L 126.699518 52.092048 
L 127.948945 51.771908 
L 129.198373 51.461818 
L 130.447801 51.161471 
L 131.697229 50.870541 
L 132.946657 50.588695 
L 134.196085 50.315588 
L 135.445513 50.050874 
L 136.694941 49.794206 
L 137.944369 49.545237 
L 139.193797 49.303626 
L 140.443225 49.069035 
L 141.692653 48.841137 
L 142.942081 48.619611 
L 144.191509 48.404148 
L 145.440936 48.194449 
L 146.690364 47.990228 
L 147.939792 47.791208 
L 149.18922 47.597125 
L 150.438648 47.40773 
L 151.688076 47.22278 
L 152.937504 47.04205 
L 154.186932 46.865323 
L 155.43636 46.692393 
L 156.685788 46.523066 
L 157.935216 46.357158 
L 159.184644 46.194495 
L 160.434072 46.034913 
L 161.6835 45.878257 
L 162.932927 45.72438 
L 164.182355 45.573143 
L 165.431783 45.424415 
L 165.431783 13.690409 
L 165.431783 13.690409 
L 164.182355 14.367729 
L 162.932927 15.042539 
L 161.6835 15.714708 
L 160.434072 16.384099 
L 159.184644 17.050564 
L 157.935216 17.713949 
L 156.685788 18.374088 
L 155.43636 19.030808 
L 154.186932 19.683924 
L 152.937504 20.333244 
L 151.688076 20.978561 
L 150.438648 21.619658 
L 149.18922 22.25631 
L 147.939792 22.888274 
L 146.690364 23.515301 
L 145.440936 24.137127 
L 144.191509 24.753475 
L 142.942081 25.364059 
L 141.692653 25.96858 
L 140.443225 26.566729 
L 139.193797 27.158185 
L 137.944369 27.742621 
L 136.694941 28.319699 
L 135.445513 28.889078 
L 134.196085 29.450411 
L 132.946657 30.003351 
L 131.697229 30.547551 
L 130.447801 31.082669 
L 129.198373 31.608368 
L 127.948945 32.124326 
L 126.699518 32.630233 
L 125.45009 33.125798 
L 124.200662 33.610755 
L 122.951234 34.084863 
L 121.701806 34.547911 
L 120.452378 34.999724 
L 119.20295 35.440162 
L 117.953522 35.869126 
L 116.704094 36.286557 
L 115.454666 36.69244 
L 114.205238 37.086799 
L 112.95581 37.469705 
L 111.706382 37.841265 
L 110.456954 38.201629 
L 109.207526 38.55098 
L 107.958099 38.889536 
L 106.708671 39.217544 
L 105.459243 39.535278 
L 104.209815 39.843032 
L 102.960387 40.14112 
L 101.710959 40.429869 
L 100.461531 40.709616 
L 99.212103 40.980704 
L 97.962675 41.243482 
L 96.713247 41.498296 
L 95.463819 41.745492 
L 94.214391 41.985411 
L 92.964963 42.218388 
L 91.715535 42.44475 
L 90.466108 42.664813 
L 89.21668 42.878884 
L 87.967252 43.087261 
L 86.717824 43.290227 
L 85.468396 43.488054 
L 84.218968 43.681005 
L 82.96954 43.869327 
L 81.720112 44.053257 
L 80.470684 44.23302 
L 79.221256 44.408831 
L 77.971828 44.580891 
L 76.7224 44.749392 
L 75.472972 44.914517 
L 74.223544 45.076435 
L 72.974117 45.235311 
L 71.724689 45.391296 
L 70.475261 45.544536 
L 69.225833 45.695168 
L 67.976405 45.843319 
L 66.726977 45.989113 
L 65.477549 46.132663 
L 64.228121 46.274078 
L 62.978693 46.41346 
L 61.729265 46.550906 
L 60.479837 46.686507 
L 59.230409 46.820348 
L 57.980981 46.952512 
L 56.731553 47.083076 
L 55.482125 47.21211 
L 54.232698 47.339685 
L 52.98327 47.465865 
L 51.733842 47.590712 
L 50.484414 47.714283 
L 49.234986 47.836634 
L 47.985558 47.957816 
L 46.73613 48.07788 
L 45.486702 48.196872 
L 44.237274 48.314835 
L 42.987846 48.431814 
L 41.738418 48.547846 
z
" clip-path="url(#p8faa7ba6a3)" style="fill: #b4b4b4; fill-opacity: 0.4"/>
   </g>
   <g id="matplotlib.axis_1">
    <g id="xtick_1">
     <g id="line2d_1">
      <defs>
       <path id="mb11b970bcc" d="M 0 0 
L 0 -4 
" style="stroke: #000000; stroke-width: 0.5"/>
      </defs>
      <g>
       <use xlink:href="#mb11b970bcc" x="74.723316" y="150.662362" style="stroke: #000000; stroke-width: 0.5"/>
      </g>
     </g>
     <g id="text_1">
      <text style="font-size: 8px; font-family: 'Arial'; text-anchor: middle" x="74.723316" y="159.888612" transform="rotate(-0 74.723316 159.888612)">−50</text>
     </g>
    </g>
    <g id="xtick_2">
     <g id="line2d_2">
      <g>
       <use xlink:href="#mb11b970bcc" x="118.703179" y="150.662362" style="stroke: #000000; stroke-width: 0.5"/>
      </g>
     </g>
     <g id="text_2">
      <text style="font-size: 8px; font-family: 'Arial'; text-anchor: middle" x="118.703179" y="159.888612" transform="rotate(-0 118.703179 159.888612)">0</text>
     </g>
    </g>
    <g id="xtick_3">
     <g id="line2d_3">
      <g>
       <use xlink:href="#mb11b970bcc" x="162.683042" y="150.662362" style="stroke: #000000; stroke-width: 0.5"/>
      </g>
     </g>
     <g id="text_3">
      <text style="font-size: 8px; font-family: 'Arial'; text-anchor: middle" x="162.683042" y="159.888612" transform="rotate(-0 162.683042 159.888612)">50</text>
     </g>
    </g>
    <g id="text_4">
     <text style="font-size: 8px; font-family: 'Arial'; text-anchor: middle" x="103.585101" y="171.302362" transform="rotate(-0 103.585101 171.302362)">SC_correct_gain_minus_loss</text>
    </g>
   </g>
   <g id="matplotlib.axis_2">
    <g id="ytick_1">
     <g id="line2d_4">
      <defs>
       <path id="mf9d2abd115" d="M 0 0 
L 4 0 
" style="stroke: #000000; stroke-width: 0.5"/>
      </defs>
      <g>
       <use xlink:href="#mf9d2abd115" x="35.55375" y="150.662362" style="stroke: #000000; stroke-width: 0.5"/>
      </g>
     </g>
     <g id="text_5">
      <text style="font-size: 8px; font-family: 'Arial'; text-anchor: end" x="32.05375" y="153.525487" transform="rotate(-0 32.05375 153.525487)">0</text>
     </g>
    </g>
    <g id="ytick_2">
     <g id="line2d_5">
      <g>
       <use xlink:href="#mf9d2abd115" x="35.55375" y="115.512553" style="stroke: #000000; stroke-width: 0.5"/>
      </g>
     </g>
     <g id="text_6">
      <text style="font-size: 8px; font-family: 'Arial'; text-anchor: end" x="32.05375" y="118.375678" transform="rotate(-0 32.05375 118.375678)">25</text>
     </g>
    </g>
    <g id="ytick_3">
     <g id="line2d_6">
      <g>
       <use xlink:href="#mf9d2abd115" x="35.55375" y="80.362744" style="stroke: #000000; stroke-width: 0.5"/>
      </g>
     </g>
     <g id="text_7">
      <text style="font-size: 8px; font-family: 'Arial'; text-anchor: end" x="32.05375" y="83.225869" transform="rotate(-0 32.05375 83.225869)">50</text>
     </g>
    </g>
    <g id="ytick_4">
     <g id="line2d_7">
      <g>
       <use xlink:href="#mf9d2abd115" x="35.55375" y="45.212934" style="stroke: #000000; stroke-width: 0.5"/>
      </g>
     </g>
     <g id="text_8">
      <text style="font-size: 8px; font-family: 'Arial'; text-anchor: end" x="32.05375" y="48.076059" transform="rotate(-0 32.05375 48.076059)">75</text>
     </g>
    </g>
    <g id="ytick_5">
     <g id="line2d_8">
      <g>
       <use xlink:href="#mf9d2abd115" x="35.55375" y="10.063125" style="stroke: #000000; stroke-width: 0.5"/>
      </g>
     </g>
     <g id="text_9">
      <text style="font-size: 8px; font-family: 'Arial'; text-anchor: end" x="32.05375" y="12.92625" transform="rotate(-0 32.05375 12.92625)">100</text>
     </g>
    </g>
    <g id="text_10">
     <text style="font-size: 8px; font-family: 'Arial'; text-anchor: middle" x="13.02375" y="80.362744" transform="rotate(-90 13.02375 80.362744)">CFC_chose_highest_expected_value</text>
    </g>
   </g>
   <g id="line2d_9">
    <path d="M 35.55375 80.362744 
L 171.616452 80.362744 
" clip-path="url(#p8faa7ba6a3)" style="fill: none; stroke-dasharray: 2.59,1.12; stroke-dashoffset: 0; stroke: #808080; stroke-width: 0.7"/>
   </g>
   <g id="line2d_10">
    <path d="M 118.703179 150.662362 
L 118.703179 10.063125 
" clip-path="url(#p8faa7ba6a3)" style="fill: none; stroke-dasharray: 2.59,1.12; stroke-dashoffset: 0; stroke: #808080; stroke-width: 0.7"/>
   </g>
   <g id="line2d_11">
    <path d="M 41.738418 95.117965 
L 42.987846 94.704942 
L 44.237274 94.291918 
L 45.486702 93.878895 
L 46.73613 93.465871 
L 47.985558 93.052848 
L 49.234986 92.639824 
L 50.484414 92.226801 
L 51.733842 91.813777 
L 52.98327 91.400754 
L 54.232698 90.98773 
L 55.482125 90.574707 
L 56.731553 90.161683 
L 57.980981 89.74866 
L 59.230409 89.335636 
L 60.479837 88.922613 
L 61.729265 88.509589 
L 62.978693 88.096566 
L 64.228121 87.683542 
L 65.477549 87.270519 
L 66.726977 86.857495 
L 67.976405 86.444472 
L 69.225833 86.031448 
L 70.475261 85.618425 
L 71.724689 85.205401 
L 72.974117 84.792378 
L 74.223544 84.379354 
L 75.472972 83.966331 
L 76.7224 83.553307 
L 77.971828 83.140284 
L 79.221256 82.72726 
L 80.470684 82.314237 
L 81.720112 81.901213 
L 82.96954 81.48819 
L 84.218968 81.075167 
L 85.468396 80.662143 
L 86.717824 80.24912 
L 87.967252 79.836096 
L 89.21668 79.423073 
L 90.466108 79.010049 
L 91.715535 78.597026 
L 92.964963 78.184002 
L 94.214391 77.770979 
L 95.463819 77.357955 
L 96.713247 76.944932 
L 97.962675 76.531908 
L 99.212103 76.118885 
L 100.461531 75.705861 
L 101.710959 75.292838 
L 102.960387 74.879814 
L 104.209815 74.466791 
L 105.459243 74.053767 
L 106.708671 73.640744 
L 107.958099 73.22772 
L 109.207526 72.814697 
L 110.456954 72.401673 
L 111.706382 71.98865 
L 112.95581 71.575626 
L 114.205238 71.162603 
L 115.454666 70.749579 
L 116.704094 70.336556 
L 117.953522 69.923532 
L 119.20295 69.510509 
L 120.452378 69.097485 
L 121.701806 68.684462 
L 122.951234 68.271438 
L 124.200662 67.858415 
L 125.45009 67.445391 
L 126.699518 67.032368 
L 127.948945 66.619344 
L 129.198373 66.206321 
L 130.447801 65.793297 
L 131.697229 65.380274 
L 132.946657 64.96725 
L 134.196085 64.554227 
L 135.445513 64.141204 
L 136.694941 63.72818 
L 137.944369 63.315157 
L 139.193797 62.902133 
L 140.443225 62.48911 
L 141.692653 62.076086 
L 142.942081 61.663063 
L 144.191509 61.250039 
L 145.440936 60.837016 
L 146.690364 60.423992 
L 147.939792 60.010969 
L 149.18922 59.597945 
L 150.438648 59.184922 
L 151.688076 58.771898 
L 152.937504 58.358875 
L 154.186932 57.945851 
L 155.43636 57.532828 
L 156.685788 57.119804 
L 157.935216 56.706781 
L 159.184644 56.293757 
L 160.434072 55.880734 
L 161.6835 55.46771 
L 162.932927 55.054687 
L 164.182355 54.641663 
L 165.431783 54.22864 
" clip-path="url(#p8faa7ba6a3)" style="fill: none; stroke: #505050; stroke-width: 0.7; stroke-linecap: square"/>
   </g>
   <g id="line2d_12">
    <path d="M 41.738418 70.446737 
L 42.987846 70.033714 
L 44.237274 69.620691 
L 45.486702 69.207667 
L 46.73613 68.794644 
L 47.985558 68.38162 
L 49.234986 67.968597 
L 50.484414 67.555573 
L 51.733842 67.14255 
L 52.98327 66.729526 
L 54.232698 66.316503 
L 55.482125 65.903479 
L 56.731553 65.490456 
L 57.980981 65.077432 
L 59.230409 64.664409 
L 60.479837 64.251385 
L 61.729265 63.838362 
L 62.978693 63.425338 
L 64.228121 63.012315 
L 65.477549 62.599291 
L 66.726977 62.186268 
L 67.976405 61.773244 
L 69.225833 61.360221 
L 70.475261 60.947197 
L 71.724689 60.534174 
L 72.974117 60.12115 
L 74.223544 59.708127 
L 75.472972 59.295103 
L 76.7224 58.88208 
L 77.971828 58.469056 
L 79.221256 58.056033 
L 80.470684 57.643009 
L 81.720112 57.229986 
L 82.96954 56.816962 
L 84.218968 56.403939 
L 85.468396 55.990915 
L 86.717824 55.577892 
L 87.967252 55.164868 
L 89.21668 54.751845 
L 90.466108 54.338821 
L 91.715535 53.925798 
L 92.964963 53.512774 
L 94.214391 53.099751 
L 95.463819 52.686728 
L 96.713247 52.273704 
L 97.962675 51.860681 
L 99.212103 51.447657 
L 100.461531 51.034634 
L 101.710959 50.62161 
L 102.960387 50.208587 
L 104.209815 49.795563 
L 105.459243 49.38254 
L 106.708671 48.969516 
L 107.958099 48.556493 
L 109.207526 48.143469 
L 110.456954 47.730446 
L 111.706382 47.317422 
L 112.95581 46.904399 
L 114.205238 46.491375 
L 115.454666 46.078352 
L 116.704094 45.665328 
L 117.953522 45.252305 
L 119.20295 44.839281 
L 120.452378 44.426258 
L 121.701806 44.013234 
L 122.951234 43.600211 
L 124.200662 43.187187 
L 125.45009 42.774164 
L 126.699518 42.36114 
L 127.948945 41.948117 
L 129.198373 41.535093 
L 130.447801 41.12207 
L 131.697229 40.709046 
L 132.946657 40.296023 
L 134.196085 39.882999 
L 135.445513 39.469976 
L 136.694941 39.056952 
L 137.944369 38.643929 
L 139.193797 38.230905 
L 140.443225 37.817882 
L 141.692653 37.404858 
L 142.942081 36.991835 
L 144.191509 36.578811 
L 145.440936 36.165788 
L 146.690364 35.752765 
L 147.939792 35.339741 
L 149.18922 34.926718 
L 150.438648 34.513694 
L 151.688076 34.100671 
L 152.937504 33.687647 
L 154.186932 33.274624 
L 155.43636 32.8616 
L 156.685788 32.448577 
L 157.935216 32.035553 
L 159.184644 31.62253 
L 160.434072 31.209506 
L 161.6835 30.796483 
L 162.932927 30.383459 
L 164.182355 29.970436 
L 165.431783 29.557412 
" clip-path="url(#p8faa7ba6a3)" style="fill: none; stroke: #b4b4b4; stroke-width: 0.7; stroke-linecap: square"/>
   </g>
   <g id="patch_3">
    <path d="M 35.55375 150.662362 
L 35.55375 10.063125 
" style="fill: none; stroke: #000000; stroke-width: 0.5; stroke-linejoin: miter; stroke-linecap: square"/>
   </g>
   <g id="patch_4">
    <path d="M 35.55375 150.662362 
L 171.616452 150.662362 
" style="fill: none; stroke: #000000; stroke-width: 0.5; stroke-linejoin: miter; stroke-linecap: square"/>
   </g>
   <g id="PathCollection_1">
    <defs>
     <path id="C0_0_2a1b0c00a2" d="M 0 1.414214 
C 0.375054 1.414214 0.734797 1.265203 1 1 
C 1.265203 0.734797 1.414214 0.375054 1.414214 -0 
C 1.414214 -0.375054 1.265203 -0.734797 1 -1 
C 0.734797 -1.265203 0.375054 -1.414214 0 -1.414214 
C -0.375054 -1.414214 -0.734797 -1.265203 -1 -1 
C -1.265203 -0.734797 -1.414214 -0.375054 -1.414214 0 
C -1.414214 0.375054 -1.265203 0.734797 -1 1 
C -0.734797 1.265203 -0.375054 1.414214 0 1.414214 
z
"/>
    </defs>
    <g clip-path="url(#p8faa7ba6a3)">
     <use xlink:href="#C0_0_2a1b0c00a2" x="121.45192" y="43.016071" style="fill-opacity: 0.38"/>
    </g>
    <g clip-path="url(#p8faa7ba6a3)">
     <use xlink:href="#C0_0_2a1b0c00a2" x="162.683042" y="60.590976" style="fill-opacity: 0.38"/>
    </g>
    <g clip-path="url(#p8faa7ba6a3)">
     <use xlink:href="#C0_0_2a1b0c00a2" x="159.9343" y="88.051764" style="fill-opacity: 0.38"/>
    </g>
    <g clip-path="url(#p8faa7ba6a3)">
     <use xlink:href="#C0_0_2a1b0c00a2" x="110.456954" y="22.145872" style="fill-opacity: 0.38"/>
    </g>
    <g clip-path="url(#p8faa7ba6a3)">
     <use xlink:href="#C0_0_2a1b0c00a2" x="162.683042" y="19.949009" style="fill-opacity: 0.38"/>
    </g>
    <g clip-path="url(#p8faa7ba6a3)">
     <use xlink:href="#C0_0_2a1b0c00a2" x="96.713247" y="66.083133" style="fill-opacity: 0.38"/>
    </g>
    <g clip-path="url(#p8faa7ba6a3)">
     <use xlink:href="#C0_0_2a1b0c00a2" x="91.215764" y="81.461175" style="fill-opacity: 0.38"/>
    </g>
    <g clip-path="url(#p8faa7ba6a3)">
     <use xlink:href="#C0_0_2a1b0c00a2" x="47.235901" y="80.362744" style="fill-opacity: 0.38"/>
    </g>
    <g clip-path="url(#p8faa7ba6a3)">
     <use xlink:href="#C0_0_2a1b0c00a2" x="115.954437" y="54.000387" style="fill-opacity: 0.38"/>
    </g>
    <g clip-path="url(#p8faa7ba6a3)">
     <use xlink:href="#C0_0_2a1b0c00a2" x="118.703179" y="32.031756" style="fill-opacity: 0.38"/>
    </g>
    <g clip-path="url(#p8faa7ba6a3)">
     <use xlink:href="#C0_0_2a1b0c00a2" x="113.205696" y="71.575291" style="fill-opacity: 0.38"/>
    </g>
    <g clip-path="url(#p8faa7ba6a3)">
     <use xlink:href="#C0_0_2a1b0c00a2" x="137.944369" y="99.03608" style="fill-opacity: 0.38"/>
    </g>
    <g clip-path="url(#p8faa7ba6a3)">
     <use xlink:href="#C0_0_2a1b0c00a2" x="151.688076" y="13.35842" style="fill-opacity: 0.38"/>
    </g>
    <g clip-path="url(#p8faa7ba6a3)">
     <use xlink:href="#C0_0_2a1b0c00a2" x="137.944369" y="11.161557" style="fill-opacity: 0.38"/>
    </g>
    <g clip-path="url(#p8faa7ba6a3)">
     <use xlink:href="#C0_0_2a1b0c00a2" x="140.69311" y="86.953333" style="fill-opacity: 0.38"/>
    </g>
    <g clip-path="url(#p8faa7ba6a3)">
     <use xlink:href="#C0_0_2a1b0c00a2" x="124.200662" y="68.279997" style="fill-opacity: 0.38"/>
    </g>
    <g clip-path="url(#p8faa7ba6a3)">
     <use xlink:href="#C0_0_2a1b0c00a2" x="110.456954" y="118.807847" style="fill-opacity: 0.38"/>
    </g>
    <g clip-path="url(#p8faa7ba6a3)">
     <use xlink:href="#C0_0_2a1b0c00a2" x="126.949403" y="139.678047" style="fill-opacity: 0.38"/>
    </g>
    <g clip-path="url(#p8faa7ba6a3)">
     <use xlink:href="#C0_0_2a1b0c00a2" x="124.200662" y="10.063125" style="fill-opacity: 0.38"/>
    </g>
    <g clip-path="url(#p8faa7ba6a3)">
     <use xlink:href="#C0_0_2a1b0c00a2" x="118.703179" y="146.268636" style="fill-opacity: 0.38"/>
    </g>
    <g clip-path="url(#p8faa7ba6a3)">
     <use xlink:href="#C0_0_2a1b0c00a2" x="121.45192" y="33.130187" style="fill-opacity: 0.38"/>
    </g>
    <g clip-path="url(#p8faa7ba6a3)">
     <use xlink:href="#C0_0_2a1b0c00a2" x="82.96954" y="85.854901" style="fill-opacity: 0.38"/>
    </g>
    <g clip-path="url(#p8faa7ba6a3)">
     <use xlink:href="#C0_0_2a1b0c00a2" x="132.446886" y="77.067449" style="fill-opacity: 0.38"/>
    </g>
    <g clip-path="url(#p8faa7ba6a3)">
     <use xlink:href="#C0_0_2a1b0c00a2" x="118.703179" y="44.114503" style="fill-opacity: 0.38"/>
    </g>
    <g clip-path="url(#p8faa7ba6a3)">
     <use xlink:href="#C0_0_2a1b0c00a2" x="118.703179" y="145.170204" style="fill-opacity: 0.38"/>
    </g>
    <g clip-path="url(#p8faa7ba6a3)">
     <use xlink:href="#C0_0_2a1b0c00a2" x="140.69311" y="58.394113" style="fill-opacity: 0.38"/>
    </g>
    <g clip-path="url(#p8faa7ba6a3)">
     <use xlink:href="#C0_0_2a1b0c00a2" x="151.688076" y="10.063125" style="fill-opacity: 0.38"/>
    </g>
    <g clip-path="url(#p8faa7ba6a3)">
     <use xlink:href="#C0_0_2a1b0c00a2" x="96.713247" y="111.118827" style="fill-opacity: 0.38"/>
    </g>
    <g clip-path="url(#p8faa7ba6a3)">
     <use xlink:href="#C0_0_2a1b0c00a2" x="110.456954" y="124.300005" style="fill-opacity: 0.38"/>
    </g>
    <g clip-path="url(#p8faa7ba6a3)">
     <use xlink:href="#C0_0_2a1b0c00a2" x="91.215764" y="75.969017" style="fill-opacity: 0.38"/>
    </g>
    <g clip-path="url(#p8faa7ba6a3)">
     <use xlink:href="#C0_0_2a1b0c00a2" x="77.472057" y="35.32705" style="fill-opacity: 0.38"/>
    </g>
    <g clip-path="url(#p8faa7ba6a3)">
     <use xlink:href="#C0_0_2a1b0c00a2" x="104.959472" y="73.772154" style="fill-opacity: 0.38"/>
    </g>
    <g clip-path="url(#p8faa7ba6a3)">
     <use xlink:href="#C0_0_2a1b0c00a2" x="135.195627" y="33.130187" style="fill-opacity: 0.38"/>
    </g>
    <g clip-path="url(#p8faa7ba6a3)">
     <use xlink:href="#C0_0_2a1b0c00a2" x="124.200662" y="21.04744" style="fill-opacity: 0.38"/>
    </g>
    <g clip-path="url(#p8faa7ba6a3)">
     <use xlink:href="#C0_0_2a1b0c00a2" x="107.708213" y="148.465499" style="fill-opacity: 0.38"/>
    </g>
    <g clip-path="url(#p8faa7ba6a3)">
     <use xlink:href="#C0_0_2a1b0c00a2" x="140.69311" y="13.35842" style="fill-opacity: 0.38"/>
    </g>
    <g clip-path="url(#p8faa7ba6a3)">
     <use xlink:href="#C0_0_2a1b0c00a2" x="104.959472" y="88.051764" style="fill-opacity: 0.38"/>
    </g>
    <g clip-path="url(#p8faa7ba6a3)">
     <use xlink:href="#C0_0_2a1b0c00a2" x="107.708213" y="49.60666" style="fill-opacity: 0.38"/>
    </g>
    <g clip-path="url(#p8faa7ba6a3)">
     <use xlink:href="#C0_0_2a1b0c00a2" x="113.205696" y="43.016071" style="fill-opacity: 0.38"/>
    </g>
    <g clip-path="url(#p8faa7ba6a3)">
     <use xlink:href="#C0_0_2a1b0c00a2" x="135.195627" y="22.145872" style="fill-opacity: 0.38"/>
    </g>
    <g clip-path="url(#p8faa7ba6a3)">
     <use xlink:href="#C0_0_2a1b0c00a2" x="115.954437" y="103.429806" style="fill-opacity: 0.38"/>
    </g>
    <g clip-path="url(#p8faa7ba6a3)">
     <use xlink:href="#C0_0_2a1b0c00a2" x="93.964506" y="70.47686" style="fill-opacity: 0.38"/>
    </g>
    <g clip-path="url(#p8faa7ba6a3)">
     <use xlink:href="#C0_0_2a1b0c00a2" x="154.436818" y="112.217258" style="fill-opacity: 0.38"/>
    </g>
    <g clip-path="url(#p8faa7ba6a3)">
     <use xlink:href="#C0_0_2a1b0c00a2" x="121.45192" y="67.181565" style="fill-opacity: 0.38"/>
    </g>
    <g clip-path="url(#p8faa7ba6a3)">
     <use xlink:href="#C0_0_2a1b0c00a2" x="110.456954" y="52.901955" style="fill-opacity: 0.38"/>
    </g>
    <g clip-path="url(#p8faa7ba6a3)">
     <use xlink:href="#C0_0_2a1b0c00a2" x="115.954437" y="50.705092" style="fill-opacity: 0.38"/>
    </g>
    <g clip-path="url(#p8faa7ba6a3)">
     <use xlink:href="#C0_0_2a1b0c00a2" x="129.698145" y="145.170204" style="fill-opacity: 0.38"/>
    </g>
    <g clip-path="url(#p8faa7ba6a3)">
     <use xlink:href="#C0_0_2a1b0c00a2" x="140.69311" y="83.658038" style="fill-opacity: 0.38"/>
    </g>
    <g clip-path="url(#p8faa7ba6a3)">
     <use xlink:href="#C0_0_2a1b0c00a2" x="151.688076" y="86.953333" style="fill-opacity: 0.38"/>
    </g>
   </g>
   <g id="PathCollection_2">
    <defs>
     <path id="C1_0_218bad3e14" d="M 0 1.414214 
C 0.375054 1.414214 0.734797 1.265203 1 1 
C 1.265203 0.734797 1.414214 0.375054 1.414214 -0 
C 1.414214 -0.375054 1.265203 -0.734797 1 -1 
C 0.734797 -1.265203 0.375054 -1.414214 0 -1.414214 
C -0.375054 -1.414214 -0.734797 -1.265203 -1 -1 
C -1.265203 -0.734797 -1.414214 -0.375054 -1.414214 0 
C -1.414214 0.375054 -1.265203 0.734797 -1 1 
C -0.734797 1.265203 -0.375054 1.414214 0 1.414214 
z
"/>
    </defs>
    <g clip-path="url(#p8faa7ba6a3)">
     <use xlink:href="#C1_0_218bad3e14" x="115.954437" y="62.787839" style="fill: #8c8c8c; fill-opacity: 0.38"/>
    </g>
    <g clip-path="url(#p8faa7ba6a3)">
     <use xlink:href="#C1_0_218bad3e14" x="93.964506" y="17.752146" style="fill: #8c8c8c; fill-opacity: 0.38"/>
    </g>
    <g clip-path="url(#p8faa7ba6a3)">
     <use xlink:href="#C1_0_218bad3e14" x="66.477091" y="79.264312" style="fill: #8c8c8c; fill-opacity: 0.38"/>
    </g>
    <g clip-path="url(#p8faa7ba6a3)">
     <use xlink:href="#C1_0_218bad3e14" x="137.944369" y="11.161557" style="fill: #8c8c8c; fill-opacity: 0.38"/>
    </g>
    <g clip-path="url(#p8faa7ba6a3)">
     <use xlink:href="#C1_0_218bad3e14" x="126.949403" y="68.279997" style="fill: #8c8c8c; fill-opacity: 0.38"/>
    </g>
    <g clip-path="url(#p8faa7ba6a3)">
     <use xlink:href="#C1_0_218bad3e14" x="99.461989" y="59.492544" style="fill: #8c8c8c; fill-opacity: 0.38"/>
    </g>
    <g clip-path="url(#p8faa7ba6a3)">
     <use xlink:href="#C1_0_218bad3e14" x="148.939335" y="28.736461" style="fill: #8c8c8c; fill-opacity: 0.38"/>
    </g>
    <g clip-path="url(#p8faa7ba6a3)">
     <use xlink:href="#C1_0_218bad3e14" x="110.456954" y="64.984702" style="fill: #8c8c8c; fill-opacity: 0.38"/>
    </g>
    <g clip-path="url(#p8faa7ba6a3)">
     <use xlink:href="#C1_0_218bad3e14" x="118.703179" y="10.063125" style="fill: #8c8c8c; fill-opacity: 0.38"/>
    </g>
    <g clip-path="url(#p8faa7ba6a3)">
     <use xlink:href="#C1_0_218bad3e14" x="137.944369" y="33.130187" style="fill: #8c8c8c; fill-opacity: 0.38"/>
    </g>
    <g clip-path="url(#p8faa7ba6a3)">
     <use xlink:href="#C1_0_218bad3e14" x="96.713247" y="36.425482" style="fill: #8c8c8c; fill-opacity: 0.38"/>
    </g>
    <g clip-path="url(#p8faa7ba6a3)">
     <use xlink:href="#C1_0_218bad3e14" x="115.954437" y="12.259988" style="fill: #8c8c8c; fill-opacity: 0.38"/>
    </g>
    <g clip-path="url(#p8faa7ba6a3)">
     <use xlink:href="#C1_0_218bad3e14" x="110.456954" y="50.705092" style="fill: #8c8c8c; fill-opacity: 0.38"/>
    </g>
    <g clip-path="url(#p8faa7ba6a3)">
     <use xlink:href="#C1_0_218bad3e14" x="118.703179" y="12.259988" style="fill: #8c8c8c; fill-opacity: 0.38"/>
    </g>
    <g clip-path="url(#p8faa7ba6a3)">
     <use xlink:href="#C1_0_218bad3e14" x="110.456954" y="89.150196" style="fill: #8c8c8c; fill-opacity: 0.38"/>
    </g>
    <g clip-path="url(#p8faa7ba6a3)">
     <use xlink:href="#C1_0_218bad3e14" x="126.949403" y="36.425482" style="fill: #8c8c8c; fill-opacity: 0.38"/>
    </g>
    <g clip-path="url(#p8faa7ba6a3)">
     <use xlink:href="#C1_0_218bad3e14" x="63.72835" y="58.394113" style="fill: #8c8c8c; fill-opacity: 0.38"/>
    </g>
    <g clip-path="url(#p8faa7ba6a3)">
     <use xlink:href="#C1_0_218bad3e14" x="77.472057" y="50.705092" style="fill: #8c8c8c; fill-opacity: 0.38"/>
    </g>
    <g clip-path="url(#p8faa7ba6a3)">
     <use xlink:href="#C1_0_218bad3e14" x="143.441852" y="12.259988" style="fill: #8c8c8c; fill-opacity: 0.38"/>
    </g>
    <g clip-path="url(#p8faa7ba6a3)">
     <use xlink:href="#C1_0_218bad3e14" x="71.974574" y="80.362744" style="fill: #8c8c8c; fill-opacity: 0.38"/>
    </g>
    <g clip-path="url(#p8faa7ba6a3)">
     <use xlink:href="#C1_0_218bad3e14" x="132.446886" y="45.212934" style="fill: #8c8c8c; fill-opacity: 0.38"/>
    </g>
    <g clip-path="url(#p8faa7ba6a3)">
     <use xlink:href="#C1_0_218bad3e14" x="132.446886" y="35.32705" style="fill: #8c8c8c; fill-opacity: 0.38"/>
    </g>
    <g clip-path="url(#p8faa7ba6a3)">
     <use xlink:href="#C1_0_218bad3e14" x="41.738418" y="128.693731" style="fill: #8c8c8c; fill-opacity: 0.38"/>
    </g>
    <g clip-path="url(#p8faa7ba6a3)">
     <use xlink:href="#C1_0_218bad3e14" x="148.939335" y="57.295681" style="fill: #8c8c8c; fill-opacity: 0.38"/>
    </g>
    <g clip-path="url(#p8faa7ba6a3)">
     <use xlink:href="#C1_0_218bad3e14" x="110.456954" y="80.362744" style="fill: #8c8c8c; fill-opacity: 0.38"/>
    </g>
    <g clip-path="url(#p8faa7ba6a3)">
     <use xlink:href="#C1_0_218bad3e14" x="129.698145" y="38.622345" style="fill: #8c8c8c; fill-opacity: 0.38"/>
    </g>
    <g clip-path="url(#p8faa7ba6a3)">
     <use xlink:href="#C1_0_218bad3e14" x="110.456954" y="50.705092" style="fill: #8c8c8c; fill-opacity: 0.38"/>
    </g>
    <g clip-path="url(#p8faa7ba6a3)">
     <use xlink:href="#C1_0_218bad3e14" x="99.461989" y="61.689407" style="fill: #8c8c8c; fill-opacity: 0.38"/>
    </g>
    <g clip-path="url(#p8faa7ba6a3)">
     <use xlink:href="#C1_0_218bad3e14" x="146.190593" y="22.145872" style="fill: #8c8c8c; fill-opacity: 0.38"/>
    </g>
    <g clip-path="url(#p8faa7ba6a3)">
     <use xlink:href="#C1_0_218bad3e14" x="113.205696" y="60.590976" style="fill: #8c8c8c; fill-opacity: 0.38"/>
    </g>
    <g clip-path="url(#p8faa7ba6a3)">
     <use xlink:href="#C1_0_218bad3e14" x="110.456954" y="41.91764" style="fill: #8c8c8c; fill-opacity: 0.38"/>
    </g>
    <g clip-path="url(#p8faa7ba6a3)">
     <use xlink:href="#C1_0_218bad3e14" x="118.703179" y="10.063125" style="fill: #8c8c8c; fill-opacity: 0.38"/>
    </g>
    <g clip-path="url(#p8faa7ba6a3)">
     <use xlink:href="#C1_0_218bad3e14" x="121.45192" y="46.311366" style="fill: #8c8c8c; fill-opacity: 0.38"/>
    </g>
    <g clip-path="url(#p8faa7ba6a3)">
     <use xlink:href="#C1_0_218bad3e14" x="159.9343" y="100.134511" style="fill: #8c8c8c; fill-opacity: 0.38"/>
    </g>
    <g clip-path="url(#p8faa7ba6a3)">
     <use xlink:href="#C1_0_218bad3e14" x="162.683042" y="79.264312" style="fill: #8c8c8c; fill-opacity: 0.38"/>
    </g>
    <g clip-path="url(#p8faa7ba6a3)">
     <use xlink:href="#C1_0_218bad3e14" x="118.703179" y="11.161557" style="fill: #8c8c8c; fill-opacity: 0.38"/>
    </g>
    <g clip-path="url(#p8faa7ba6a3)">
     <use xlink:href="#C1_0_218bad3e14" x="77.472057" y="67.181565" style="fill: #8c8c8c; fill-opacity: 0.38"/>
    </g>
    <g clip-path="url(#p8faa7ba6a3)">
     <use xlink:href="#C1_0_218bad3e14" x="140.69311" y="40.819208" style="fill: #8c8c8c; fill-opacity: 0.38"/>
    </g>
    <g clip-path="url(#p8faa7ba6a3)">
     <use xlink:href="#C1_0_218bad3e14" x="115.954437" y="26.539598" style="fill: #8c8c8c; fill-opacity: 0.38"/>
    </g>
    <g clip-path="url(#p8faa7ba6a3)">
     <use xlink:href="#C1_0_218bad3e14" x="126.949403" y="16.653714" style="fill: #8c8c8c; fill-opacity: 0.38"/>
    </g>
    <g clip-path="url(#p8faa7ba6a3)">
     <use xlink:href="#C1_0_218bad3e14" x="165.431783" y="10.063125" style="fill: #8c8c8c; fill-opacity: 0.38"/>
    </g>
    <g clip-path="url(#p8faa7ba6a3)">
     <use xlink:href="#C1_0_218bad3e14" x="91.215764" y="75.969017" style="fill: #8c8c8c; fill-opacity: 0.38"/>
    </g>
    <g clip-path="url(#p8faa7ba6a3)">
     <use xlink:href="#C1_0_218bad3e14" x="91.215764" y="51.803523" style="fill: #8c8c8c; fill-opacity: 0.38"/>
    </g>
    <g clip-path="url(#p8faa7ba6a3)">
     <use xlink:href="#C1_0_218bad3e14" x="154.436818" y="40.819208" style="fill: #8c8c8c; fill-opacity: 0.38"/>
    </g>
    <g clip-path="url(#p8faa7ba6a3)">
     <use xlink:href="#C1_0_218bad3e14" x="140.69311" y="54.000387" style="fill: #8c8c8c; fill-opacity: 0.38"/>
    </g>
    <g clip-path="url(#p8faa7ba6a3)">
     <use xlink:href="#C1_0_218bad3e14" x="135.195627" y="10.063125" style="fill: #8c8c8c; fill-opacity: 0.38"/>
    </g>
    <g clip-path="url(#p8faa7ba6a3)">
     <use xlink:href="#C1_0_218bad3e14" x="146.190593" y="69.378428" style="fill: #8c8c8c; fill-opacity: 0.38"/>
    </g>
    <g clip-path="url(#p8faa7ba6a3)">
     <use xlink:href="#C1_0_218bad3e14" x="113.205696" y="10.063125" style="fill: #8c8c8c; fill-opacity: 0.38"/>
    </g>
    <g clip-path="url(#p8faa7ba6a3)">
     <use xlink:href="#C1_0_218bad3e14" x="77.472057" y="17.752146" style="fill: #8c8c8c; fill-opacity: 0.38"/>
    </g>
   </g>
  </g>
 </g>
 <defs>
  <clipPath id="p8faa7ba6a3">
   <rect x="35.55375" y="10.063125" width="136.062702" height="140.599237"/>
  </clipPath>
 </defs>
</svg>
