<?xml version="1.0" encoding="utf-8" standalone="no"?>
<!DOCTYPE svg PUBLIC "-//W3C//DTD SVG 1.1//EN"
  "http://www.w3.org/Graphics/SVG/1.1/DTD/svg11.dtd">
<svg xmlns:xlink="http://www.w3.org/1999/xlink" width="83.612903pt" height="65.454545pt" viewBox="0 0 83.612903 65.454545" xmlns="http://www.w3.org/2000/svg" version="1.1">
 <metadata>
  <rdf:RDF xmlns:dc="http://purl.org/dc/elements/1.1/" xmlns:cc="http://creativecommons.org/ns#" xmlns:rdf="http://www.w3.org/1999/02/22-rdf-syntax-ns#">
   <cc:Work>
    <dc:type rdf:resource="http://purl.org/dc/dcmitype/StillImage"/>
    <dc:date>2026-03-04T23:12:12.215256</dc:date>
    <dc:format>image/svg+xml</dc:format>
    <dc:creator>
     <cc:Agent>
      <dc:title>Matplotlib v3.10.8, https://matplotlib.org/</dc:title>
     </cc:Agent>
    </dc:creator>
   </cc:Work>
  </rdf:RDF>
 </metadata>
 <defs>
  <style type="text/css">*{stroke-linejoin: round; stroke-linecap: butt}</style>
 </defs>
 <g id="figure_1">
  <g id="patch_1">
   <path d="M 0 65.454545 
L 83.612903 65.454545 
L 83.612903 0 
L 0 0 
z
" style="fill: #ffffff"/>
  </g>
  <g id="axes_1">
   <g id="patch_2">
    <path d="M 38.91 50.334545 
L 72.812903 50.334545 
L 72.812903 13.68 
L 38.91 13.68 
z
" style="fill: #ffffff"/>
   </g>
   <g id="patch_3">
    <path d="M 47.385726 86.989091 
L 64.337177 86.989091 
L 64.337177 31.712507 
L 47.385726 31.712507 
z
" clip-path="url(#p86d645ed5d)" style="fill: #d3d3d3; stroke: #d3d3d3; stroke-linejoin: miter"/>
   </g>
   <g id="matplotlib.axis_1">
    <g id="xtick_1"/>
   </g>
   <g id="matplotlib.axis_2">
    <g id="ytick_1">
     <g id="line2d_1">
      <defs>
       <path id="mfa6115764c" d="M 0 0 
L 4 0 
" style="stroke: #000000; stroke-width: 0.5"/>
      </defs>
      <g>
       <use xlink:href="#mfa6115764c" x="38.91" y="50.334545" style="stroke: #000000; stroke-width: 0.5"/>
      </g>
     </g>
     <g id="text_1">
      <text style="font-size: 8px; font-family: 'Arial'; text-anchor: end" x="35.41" y="53.19767" transform="rotate(-0 35.41 53.19767)">50</text>
     </g>
    </g>
    <g id="ytick_2">
     <g id="line2d_2">
      <g>
       <use xlink:href="#mfa6115764c" x="38.91" y="32.007273" style="stroke: #000000; stroke-width: 0.5"/>
      </g>
     </g>
     <g id="text_2">
      <text style="font-size: 8px; font-family: 'Arial'; text-anchor: end" x="35.41" y="34.870398" transform="rotate(-0 35.41 34.870398)">75</text>
     </g>
    </g>
    <g id="ytick_3">
     <g id="line2d_3">
      <g>
       <use xlink:href="#mfa6115764c" x="38.91" y="13.68" style="stroke: #000000; stroke-width: 0.5"/>
      </g>
     </g>
     <g id="text_3">
      <text style="font-size: 8px; font-family: 'Arial'; text-anchor: end" x="35.41" y="16.543125" transform="rotate(-0 35.41 16.543125)">100</text>
     </g>
    </g>
    <g id="text_4">
     <text style="font-size: 8px; font-family: 'Arial'; text-anchor: middle" x="16.47375" y="32.007273" transform="rotate(-90 16.47375 32.007273)">CFC+</text>
    </g>
   </g>
   <g id="LineCollection_1">
    <path d="M 55.861452 38.882736 
L 55.861452 24.542278 
" clip-path="url(#p86d645ed5d)" style="fill: none; stroke: #000000; stroke-width: 1.2"/>
   </g>
   <g id="line2d_4">
    <path d="M 38.91 50.334545 
L 72.812903 50.334545 
" clip-path="url(#p86d645ed5d)" style="fill: none; stroke-dasharray: 3.7,1.6; stroke-dashoffset: 0; stroke: #808080"/>
   </g>
   <g id="line2d_5">
    <defs>
     <path id="m11675f3736" d="M 0 1.5 
C 0.397805 1.5 0.77937 1.341951 1.06066 1.06066 
C 1.341951 0.77937 1.5 0.397805 1.5 0 
C 1.5 -0.397805 1.341951 -0.77937 1.06066 -1.06066 
C 0.77937 -1.341951 0.397805 -1.5 0 -1.5 
C -0.397805 -1.5 -0.77937 -1.341951 -1.06066 -1.06066 
C -1.341951 -0.77937 -1.5 -0.397805 -1.5 0 
C -1.5 0.397805 -1.341951 0.77937 -1.06066 1.06066 
C -0.77937 1.341951 -0.397805 1.5 0 1.5 
z
" style="stroke: #000000"/>
    </defs>
    <g clip-path="url(#p86d645ed5d)">
     <use xlink:href="#m11675f3736" x="55.861452" y="31.712507" style="stroke: #000000"/>
    </g>
   </g>
   <g id="patch_4">
    <path d="M 38.91 50.334545 
L 38.91 13.68 
" style="fill: none; stroke: #000000; stroke-width: 0.5; stroke-linejoin: miter; stroke-linecap: square"/>
   </g>
   <g id="text_5">
    <text style="font-size: 10px; font-family: 'Arial'; text-anchor: middle" x="55.861452" y="22.124564" transform="rotate(-0 55.861452 22.124564)">***</text>
   </g>
  </g>
 </g>
 <defs>
  <clipPath id="p86d645ed5d">
   <rect x="38.91" y="13.68" width="33.902903" height="36.654545"/>
  </clipPath>
 </defs>
</svg>
