<?xml version="1.0" encoding="utf-8" standalone="no"?>
<!DOCTYPE svg PUBLIC "-//W3C//DTD SVG 1.1//EN"
  "http://www.w3.org/Graphics/SVG/1.1/DTD/svg11.dtd">
<svg xmlns:xlink="http://www.w3.org/1999/xlink" width="83.612903pt" height="65.454545pt" viewBox="0 0 83.612903 65.454545" xmlns="http://www.w3.org/2000/svg" version="1.1">
 <metadata>
  <rdf:RDF xmlns:dc="http://purl.org/dc/elements/1.1/" xmlns:cc="http://creativecommons.org/ns#" xmlns:rdf="http://www.w3.org/1999/02/22-rdf-syntax-ns#">
   <cc:Work>
    <dc:type rdf:resource="http://purl.org/dc/dcmitype/StillImage"/>
    <dc:date>2026-03-04T23:12:11.243098</dc:date>
    <dc:format>image/svg+xml</dc:format>
    <dc:creator>
     <cc:Agent>
      <dc:title>Matplotlib v3.10.8, https://matplotlib.org/</dc:title>
     </cc:Agent>
    </dc:creator>
   </cc:Work>
  </rdf:RDF>
 </metadata>
 <defs>
  <style type="text/css">*{stroke-linejoin: round; stroke-linecap: butt}</style>
 </defs>
 <g id="figure_1">
  <g id="patch_1">
   <path d="M 0 65.454545 
L 83.612903 65.454545 
L 83.612903 0 
L 0 0 
z
" style="fill: #ffffff"/>
  </g>
  <g id="axes_1">
   <g id="patch_2">
    <path d="M 36.75 54.654545 
L 72.812903 54.654545 
L 72.812903 13.68 
L 36.75 13.68 
z
" style="fill: #ffffff"/>
   </g>
   <g id="patch_3">
    <path d="M 45.765726 50.929587 
L 63.797177 50.929587 
L 63.797177 42.47482 
L 45.765726 42.47482 
z
" clip-path="url(#p2ba8a06ef6)" style="fill: #d3d3d3; stroke: #d3d3d3; stroke-linejoin: miter"/>
   </g>
   <g id="matplotlib.axis_1">
    <g id="xtick_1"/>
   </g>
   <g id="matplotlib.axis_2">
    <g id="ytick_1">
     <g id="line2d_1">
      <defs>
       <path id="mf311b0a28d" d="M 0 0 
L 4 0 
" style="stroke: #000000; stroke-width: 0.5"/>
      </defs>
      <g>
       <use xlink:href="#mf311b0a28d" x="36.75" y="50.929587" style="stroke: #000000; stroke-width: 0.5"/>
      </g>
     </g>
     <g id="text_1">
      <text style="font-size: 8px; font-family: 'Arial'; text-anchor: end" x="33.25" y="53.792712" transform="rotate(-0 33.25 53.792712)">0</text>
     </g>
    </g>
    <g id="ytick_2">
     <g id="line2d_2">
      <g>
       <use xlink:href="#mf311b0a28d" x="36.75" y="32.304793" style="stroke: #000000; stroke-width: 0.5"/>
      </g>
     </g>
     <g id="text_2">
      <text style="font-size: 8px; font-family: 'Arial'; text-anchor: end" x="33.25" y="35.167918" transform="rotate(-0 33.25 35.167918)">0.5</text>
     </g>
    </g>
    <g id="ytick_3">
     <g id="line2d_3">
      <g>
       <use xlink:href="#mf311b0a28d" x="36.75" y="13.68" style="stroke: #000000; stroke-width: 0.5"/>
      </g>
     </g>
     <g id="text_3">
      <text style="font-size: 8px; font-family: 'Arial'; text-anchor: end" x="33.25" y="16.543125" transform="rotate(-0 33.25 16.543125)">1</text>
     </g>
    </g>
    <g id="text_4">
     <text style="font-size: 8px; font-family: 'Arial'; text-anchor: middle" x="16.54" y="34.167273" transform="rotate(-90 16.54 34.167273)">slope</text>
    </g>
   </g>
   <g id="LineCollection_1">
    <path d="M 54.781452 46.810467 
L 54.781452 38.139174 
" clip-path="url(#p2ba8a06ef6)" style="fill: none; stroke: #000000; stroke-width: 1.2"/>
   </g>
   <g id="line2d_4">
    <path d="M 36.75 50.929587 
L 72.812903 50.929587 
" clip-path="url(#p2ba8a06ef6)" style="fill: none; stroke-dasharray: 3.7,1.6; stroke-dashoffset: 0; stroke: #808080"/>
   </g>
   <g id="line2d_5">
    <defs>
     <path id="m912ad4b9a3" d="M 0 1.5 
C 0.397805 1.5 0.77937 1.341951 1.06066 1.06066 
C 1.341951 0.77937 1.5 0.397805 1.5 0 
C 1.5 -0.397805 1.341951 -0.77937 1.06066 -1.06066 
C 0.77937 -1.341951 0.397805 -1.5 0 -1.5 
C -0.397805 -1.5 -0.77937 -1.341951 -1.06066 -1.06066 
C -1.341951 -0.77937 -1.5 -0.397805 -1.5 0 
C -1.5 0.397805 -1.341951 0.77937 -1.06066 1.06066 
C -0.77937 1.341951 -0.397805 1.5 0 1.5 
z
" style="stroke: #000000"/>
    </defs>
    <g clip-path="url(#p2ba8a06ef6)">
     <use xlink:href="#m912ad4b9a3" x="54.781452" y="42.47482" style="stroke: #000000"/>
    </g>
   </g>
   <g id="patch_4">
    <path d="M 36.75 54.654545 
L 36.75 13.68 
" style="fill: none; stroke: #000000; stroke-width: 0.5; stroke-linejoin: miter; stroke-linecap: square"/>
   </g>
   <g id="text_5">
    <text style="font-size: 10px; font-family: 'Arial'; text-anchor: middle" x="54.781452" y="35.891535" transform="rotate(-0 54.781452 35.891535)">***</text>
   </g>
  </g>
 </g>
 <defs>
  <clipPath id="p2ba8a06ef6">
   <rect x="36.75" y="13.68" width="36.062903" height="40.974545"/>
  </clipPath>
 </defs>
</svg>
