<?xml version="1.0" encoding="utf-8" standalone="no"?>
<!DOCTYPE svg PUBLIC "-//W3C//DTD SVG 1.1//EN"
  "http://www.w3.org/Graphics/SVG/1.1/DTD/svg11.dtd">
<svg xmlns:xlink="http://www.w3.org/1999/xlink" width="83.612903pt" height="65.454545pt" viewBox="0 0 83.612903 65.454545" xmlns="http://www.w3.org/2000/svg" version="1.1">
 <metadata>
  <rdf:RDF xmlns:dc="http://purl.org/dc/elements/1.1/" xmlns:cc="http://creativecommons.org/ns#" xmlns:rdf="http://www.w3.org/1999/02/22-rdf-syntax-ns#">
   <cc:Work>
    <dc:type rdf:resource="http://purl.org/dc/dcmitype/StillImage"/>
    <dc:date>2026-04-02T15:51:19.215954</dc:date>
    <dc:format>image/svg+xml</dc:format>
    <dc:creator>
     <cc:Agent>
      <dc:title>Matplotlib v3.10.8, https://matplotlib.org/</dc:title>
     </cc:Agent>
    </dc:creator>
   </cc:Work>
  </rdf:RDF>
 </metadata>
 <defs>
  <style type="text/css">*{stroke-linejoin: round; stroke-linecap: butt}</style>
 </defs>
 <g id="figure_1">
  <g id="patch_1">
   <path d="M 0 65.454545 
L 83.612903 65.454545 
L 83.612903 0 
L 0 0 
z
" style="fill: #ffffff"/>
  </g>
  <g id="axes_1">
   <g id="patch_2">
    <path d="M 36.75 54.654545 
L 72.812903 54.654545 
L 72.812903 14.376425 
L 36.75 14.376425 
z
" style="fill: #ffffff"/>
   </g>
   <g id="patch_3">
    <path d="M 45.765726 50.992898 
L 63.797177 50.992898 
L 63.797177 34.004983 
L 45.765726 34.004983 
z
" clip-path="url(#p7f2d1fcd7d)" style="fill: #d3d3d3; stroke: #d3d3d3; stroke-linejoin: miter"/>
   </g>
   <g id="matplotlib.axis_1">
    <g id="xtick_1"/>
   </g>
   <g id="matplotlib.axis_2">
    <g id="ytick_1">
     <g id="line2d_1">
      <defs>
       <path id="ma495522785" d="M 0 0 
L 4 0 
" style="stroke: #000000; stroke-width: 0.5"/>
      </defs>
      <g>
       <use xlink:href="#ma495522785" x="36.75" y="50.992898" style="stroke: #000000; stroke-width: 0.5"/>
      </g>
     </g>
     <g id="text_1">
      <text style="font-size: 8px; font-family: 'Arial'; text-anchor: end" x="33.25" y="53.856023" transform="rotate(-0 33.25 53.856023)">0</text>
     </g>
    </g>
    <g id="ytick_2">
     <g id="line2d_2">
      <g>
       <use xlink:href="#ma495522785" x="36.75" y="32.684661" style="stroke: #000000; stroke-width: 0.5"/>
      </g>
     </g>
     <g id="text_2">
      <text style="font-size: 8px; font-family: 'Arial'; text-anchor: end" x="33.25" y="35.547786" transform="rotate(-0 33.25 35.547786)">0.5</text>
     </g>
    </g>
    <g id="ytick_3">
     <g id="line2d_3">
      <g>
       <use xlink:href="#ma495522785" x="36.75" y="14.376425" style="stroke: #000000; stroke-width: 0.5"/>
      </g>
     </g>
     <g id="text_3">
      <text style="font-size: 8px; font-family: 'Arial'; text-anchor: end" x="33.25" y="17.23955" transform="rotate(-0 33.25 17.23955)">1</text>
     </g>
    </g>
    <g id="text_4">
     <text style="font-size: 8px; font-family: 'Arial'; text-anchor: middle" x="16.54" y="34.515485" transform="rotate(-90 16.54 34.515485)">slope</text>
    </g>
   </g>
   <g id="LineCollection_1">
    <path d="M 54.781452 47.619231 
L 54.781452 20.390736 
" clip-path="url(#p7f2d1fcd7d)" style="fill: none; stroke: #000000; stroke-width: 1.2"/>
   </g>
   <g id="line2d_4">
    <path d="M 36.75 50.992898 
L 72.812903 50.992898 
" clip-path="url(#p7f2d1fcd7d)" style="fill: none; stroke-dasharray: 3.7,1.6; stroke-dashoffset: 0; stroke: #808080"/>
   </g>
   <g id="line2d_5">
    <defs>
     <path id="m0c2c25027a" d="M 0 1.5 
C 0.397805 1.5 0.77937 1.341951 1.06066 1.06066 
C 1.341951 0.77937 1.5 0.397805 1.5 0 
C 1.5 -0.397805 1.341951 -0.77937 1.06066 -1.06066 
C 0.77937 -1.341951 0.397805 -1.5 0 -1.5 
C -0.397805 -1.5 -0.77937 -1.341951 -1.06066 -1.06066 
C -1.341951 -0.77937 -1.5 -0.397805 -1.5 0 
C -1.5 0.397805 -1.341951 0.77937 -1.06066 1.06066 
C -0.77937 1.341951 -0.397805 1.5 0 1.5 
z
" style="stroke: #000000"/>
    </defs>
    <g clip-path="url(#p7f2d1fcd7d)">
     <use xlink:href="#m0c2c25027a" x="54.781452" y="34.004983" style="stroke: #000000"/>
    </g>
   </g>
   <g id="patch_4">
    <path d="M 36.75 54.654545 
L 36.75 14.376425 
" style="fill: none; stroke: #000000; stroke-width: 0.5; stroke-linejoin: miter; stroke-linecap: square"/>
   </g>
   <g id="text_5">
    <text style="font-size: 10px; font-family: 'Arial'; text-anchor: middle" x="54.781452" y="17.586381" transform="rotate(-0 54.781452 17.586381)">*</text>
   </g>
  </g>
 </g>
 <defs>
  <clipPath id="p7f2d1fcd7d">
   <rect x="36.75" y="14.376425" width="36.062903" height="40.278121"/>
  </clipPath>
 </defs>
</svg>
