<?xml version="1.0" encoding="utf-8" standalone="no"?>
<!DOCTYPE svg PUBLIC "-//W3C//DTD SVG 1.1//EN"
  "http://www.w3.org/Graphics/SVG/1.1/DTD/svg11.dtd">
<svg xmlns:xlink="http://www.w3.org/1999/xlink" width="178.816452pt" height="180.088612pt" viewBox="0 0 178.816452 180.088612" xmlns="http://www.w3.org/2000/svg" version="1.1">
 <metadata>
  <rdf:RDF xmlns:dc="http://purl.org/dc/elements/1.1/" xmlns:cc="http://creativecommons.org/ns#" xmlns:rdf="http://www.w3.org/1999/02/22-rdf-syntax-ns#">
   <cc:Work>
    <dc:type rdf:resource="http://purl.org/dc/dcmitype/StillImage"/>
    <dc:date>2026-04-02T15:51:18.635241</dc:date>
    <dc:format>image/svg+xml</dc:format>
    <dc:creator>
     <cc:Agent>
      <dc:title>Matplotlib v3.10.8, https://matplotlib.org/</dc:title>
     </cc:Agent>
    </dc:creator>
   </cc:Work>
  </rdf:RDF>
 </metadata>
 <defs>
  <style type="text/css">*{stroke-linejoin: round; stroke-linecap: butt}</style>
 </defs>
 <g id="figure_1">
  <g id="patch_1">
   <path d="M 0 180.088612 
L 178.816452 180.088612 
L 178.816452 0 
L 0 0 
z
" style="fill: #ffffff"/>
  </g>
  <g id="axes_1">
   <g id="patch_2">
    <path d="M 35.55375 150.662362 
L 171.616452 150.662362 
L 171.616452 10.063125 
L 35.55375 10.063125 
z
" style="fill: #ffffff"/>
   </g>
   <g id="FillBetweenPolyCollection_1">
    <path d="M 113.739034 80.362744 
L 35.55375 80.362744 
L 35.55375 10.063125 
L 113.739034 10.063125 
L 113.739034 10.063125 
L 113.739034 80.362744 
z
" clip-path="url(#p3fc648e8e1)" style="fill: #fbebd9"/>
   </g>
   <g id="FillBetweenPolyCollection_2">
    <path d="M 171.616452 80.362744 
L 113.739034 80.362744 
L 113.739034 10.063125 
L 171.616452 10.063125 
L 171.616452 10.063125 
L 171.616452 80.362744 
z
" clip-path="url(#p3fc648e8e1)" style="fill: #dce8f4"/>
   </g>
   <g id="FillBetweenPolyCollection_3">
    <path d="M 113.739034 150.662362 
L 35.55375 150.662362 
L 35.55375 80.362744 
L 113.739034 80.362744 
L 113.739034 80.362744 
L 113.739034 150.662362 
z
" clip-path="url(#p3fc648e8e1)" style="fill: #dce8f4"/>
   </g>
   <g id="FillBetweenPolyCollection_4">
    <path d="M 171.616452 150.662362 
L 113.739034 150.662362 
L 113.739034 80.362744 
L 171.616452 80.362744 
L 171.616452 80.362744 
L 171.616452 150.662362 
z
" clip-path="url(#p3fc648e8e1)" style="fill: #ddd2c6"/>
   </g>
   <g id="FillBetweenPolyCollection_5">
    <path d="M 41.738418 60.499594 
L 41.738418 111.226628 
L 42.987846 110.547008 
L 44.237274 109.868392 
L 45.486702 109.190827 
L 46.73613 108.514363 
L 47.985558 107.839054 
L 49.234986 107.164957 
L 50.484414 106.492131 
L 51.733842 105.820641 
L 52.98327 105.150555 
L 54.232698 104.481946 
L 55.482125 103.814891 
L 56.731553 103.149472 
L 57.980981 102.485779 
L 59.230409 101.823905 
L 60.479837 101.163951 
L 61.729265 100.506024 
L 62.978693 99.85024 
L 64.228121 99.196721 
L 65.477549 98.5456 
L 66.726977 97.897018 
L 67.976405 97.251127 
L 69.225833 96.60809 
L 70.475261 95.96808 
L 71.724689 95.331286 
L 72.974117 94.697908 
L 74.223544 94.068163 
L 75.472972 93.442283 
L 76.7224 92.820516 
L 77.971828 92.20313 
L 79.221256 91.590412 
L 80.470684 90.982669 
L 81.720112 90.380232 
L 82.96954 89.783455 
L 84.218968 89.192714 
L 85.468396 88.608413 
L 86.717824 88.030984 
L 87.967252 87.460883 
L 89.21668 86.898597 
L 90.466108 86.344639 
L 91.715535 85.799551 
L 92.964963 85.263901 
L 94.214391 84.738282 
L 95.463819 84.223309 
L 96.713247 83.719618 
L 97.962675 83.227857 
L 99.212103 82.748684 
L 100.461531 82.282759 
L 101.710959 81.830736 
L 102.960387 81.393251 
L 104.209815 80.970917 
L 105.459243 80.564309 
L 106.708671 80.173953 
L 107.958099 79.800316 
L 109.207526 79.443793 
L 110.456954 79.1047 
L 111.706382 78.783265 
L 112.95581 78.47962 
L 114.205238 78.193799 
L 115.454666 77.925738 
L 116.704094 77.675274 
L 117.953522 77.442152 
L 119.20295 77.226031 
L 120.452378 77.026491 
L 121.701806 76.843047 
L 122.951234 76.675155 
L 124.200662 76.522229 
L 125.45009 76.383647 
L 126.699518 76.258766 
L 127.948945 76.146929 
L 129.198373 76.047477 
L 130.447801 75.959754 
L 131.697229 75.883114 
L 132.946657 75.816929 
L 134.196085 75.760589 
L 135.445513 75.713509 
L 136.694941 75.675129 
L 137.944369 75.644915 
L 139.193797 75.622363 
L 140.443225 75.606995 
L 141.692653 75.598363 
L 142.942081 75.596043 
L 144.191509 75.599642 
L 145.440936 75.608787 
L 146.690364 75.623134 
L 147.939792 75.642359 
L 149.18922 75.666162 
L 150.438648 75.694261 
L 151.688076 75.726394 
L 152.937504 75.762319 
L 154.186932 75.801808 
L 155.43636 75.84465 
L 156.685788 75.890648 
L 157.935216 75.939618 
L 159.184644 75.991391 
L 160.434072 76.045807 
L 161.6835 76.102717 
L 162.932927 76.161983 
L 164.182355 76.223476 
L 165.431783 76.287075 
L 165.431783 36.537549 
L 165.431783 36.537549 
L 164.182355 37.196113 
L 162.932927 37.852572 
L 161.6835 38.506804 
L 160.434072 39.158679 
L 159.184644 39.808061 
L 157.935216 40.454799 
L 156.685788 41.098736 
L 155.43636 41.739699 
L 154.186932 42.377507 
L 152.937504 43.011961 
L 151.688076 43.642852 
L 150.438648 44.269951 
L 149.18922 44.893015 
L 147.939792 45.511783 
L 146.690364 46.125974 
L 145.440936 46.735287 
L 144.191509 47.339398 
L 142.942081 47.937962 
L 141.692653 48.530608 
L 140.443225 49.116942 
L 139.193797 49.69654 
L 137.944369 50.268953 
L 136.694941 50.833705 
L 135.445513 51.39029 
L 134.196085 51.938175 
L 132.946657 52.476801 
L 131.697229 53.005582 
L 130.447801 53.523908 
L 129.198373 54.03115 
L 127.948945 54.526664 
L 126.699518 55.009793 
L 125.45009 55.479878 
L 124.200662 55.936261 
L 122.951234 56.378301 
L 121.701806 56.805375 
L 120.452378 57.216896 
L 119.20295 57.612322 
L 117.953522 57.991166 
L 116.704094 58.35301 
L 115.454666 58.697511 
L 114.205238 59.024416 
L 112.95581 59.333561 
L 111.706382 59.624881 
L 110.456954 59.898412 
L 109.207526 60.154285 
L 107.958099 60.392728 
L 106.708671 60.614056 
L 105.459243 60.818665 
L 104.209815 61.007023 
L 102.960387 61.179655 
L 101.710959 61.337136 
L 100.461531 61.480078 
L 99.212103 61.609119 
L 97.962675 61.724911 
L 96.713247 61.828116 
L 95.463819 61.91939 
L 94.214391 61.999383 
L 92.964963 62.06873 
L 91.715535 62.128045 
L 90.466108 62.177923 
L 89.21668 62.218931 
L 87.967252 62.25161 
L 86.717824 62.276475 
L 85.468396 62.294011 
L 84.218968 62.304677 
L 82.96954 62.308901 
L 81.720112 62.307089 
L 80.470684 62.299618 
L 79.221256 62.286841 
L 77.971828 62.269089 
L 76.7224 62.246668 
L 75.472972 62.219867 
L 74.223544 62.188952 
L 72.974117 62.154173 
L 71.724689 62.115761 
L 70.475261 62.073932 
L 69.225833 62.028888 
L 67.976405 61.980817 
L 66.726977 61.929891 
L 65.477549 61.876275 
L 64.228121 61.82012 
L 62.978693 61.761567 
L 61.729265 61.700748 
L 60.479837 61.637786 
L 59.230409 61.572798 
L 57.980981 61.505889 
L 56.731553 61.437162 
L 55.482125 61.366709 
L 54.232698 61.29462 
L 52.98327 61.220976 
L 51.733842 61.145856 
L 50.484414 61.069332 
L 49.234986 60.991471 
L 47.985558 60.91234 
L 46.73613 60.831996 
L 45.486702 60.750498 
L 44.237274 60.667899 
L 42.987846 60.584248 
L 41.738418 60.499594 
z
" clip-path="url(#p3fc648e8e1)" style="fill: #505050; fill-opacity: 0.4"/>
   </g>
   <g id="FillBetweenPolyCollection_6">
    <path d="M 41.738418 37.371248 
L 41.738418 86.209965 
L 42.987846 85.532917 
L 44.237274 84.856996 
L 45.486702 84.182256 
L 46.73613 83.508756 
L 47.985558 82.836557 
L 49.234986 82.165726 
L 50.484414 81.496333 
L 51.733842 80.828453 
L 52.98327 80.162165 
L 54.232698 79.497556 
L 55.482125 78.834716 
L 56.731553 78.173742 
L 57.980981 77.514738 
L 59.230409 76.857815 
L 60.479837 76.203092 
L 61.729265 75.550697 
L 62.978693 74.900765 
L 64.228121 74.253443 
L 65.477549 73.608888 
L 66.726977 72.967268 
L 67.976405 72.328764 
L 69.225833 71.693569 
L 70.475261 71.061891 
L 71.724689 70.433954 
L 72.974117 69.809997 
L 74.223544 69.190279 
L 75.472972 68.575076 
L 76.7224 67.964684 
L 77.971828 67.359422 
L 79.221256 66.759631 
L 80.470684 66.165676 
L 81.720112 65.577946 
L 82.96954 64.996858 
L 84.218968 64.422855 
L 85.468396 63.856408 
L 86.717824 63.298017 
L 87.967252 62.748208 
L 89.21668 62.207536 
L 90.466108 61.676581 
L 91.715535 61.155947 
L 92.964963 60.646259 
L 94.214391 60.148159 
L 95.463819 59.662303 
L 96.713247 59.189348 
L 97.962675 58.729953 
L 99.212103 58.284766 
L 100.461531 57.854412 
L 101.710959 57.439488 
L 102.960387 57.040547 
L 104.209815 56.658087 
L 105.459243 56.292544 
L 106.708671 55.944276 
L 107.958099 55.613558 
L 109.207526 55.300573 
L 110.456954 55.005407 
L 111.706382 54.728046 
L 112.95581 54.468379 
L 114.205238 54.2262 
L 115.454666 54.00121 
L 116.704094 53.793031 
L 117.953522 53.60121 
L 119.20295 53.425233 
L 120.452378 53.264534 
L 121.701806 53.118508 
L 122.951234 52.986523 
L 124.200662 52.867928 
L 125.45009 52.762063 
L 126.699518 52.66827 
L 127.948945 52.585898 
L 129.198373 52.514307 
L 130.447801 52.452879 
L 131.697229 52.401014 
L 132.946657 52.358139 
L 134.196085 52.323707 
L 135.445513 52.297198 
L 136.694941 52.278121 
L 137.944369 52.26601 
L 139.193797 52.260431 
L 140.443225 52.260974 
L 141.692653 52.267255 
L 142.942081 52.278916 
L 144.191509 52.295622 
L 145.440936 52.31706 
L 146.690364 52.34294 
L 147.939792 52.372989 
L 149.18922 52.406954 
L 150.438648 52.444601 
L 151.688076 52.48571 
L 152.937504 52.530077 
L 154.186932 52.577511 
L 155.43636 52.627834 
L 156.685788 52.680883 
L 157.935216 52.736503 
L 159.184644 52.79455 
L 160.434072 52.854891 
L 161.6835 52.9174 
L 162.932927 52.981961 
L 164.182355 53.048464 
L 165.431783 53.116807 
L 165.431783 11.562809 
L 165.431783 11.562809 
L 164.182355 12.226117 
L 162.932927 12.887586 
L 161.6835 13.547112 
L 160.434072 14.204587 
L 159.184644 14.859893 
L 157.935216 15.512906 
L 156.685788 16.163492 
L 155.43636 16.811506 
L 154.186932 17.456796 
L 152.937504 18.099195 
L 151.688076 18.738527 
L 150.438648 19.374602 
L 149.18922 20.007214 
L 147.939792 20.636146 
L 146.690364 21.261161 
L 145.440936 21.882006 
L 144.191509 22.49841 
L 142.942081 23.110081 
L 141.692653 23.716708 
L 140.443225 24.317954 
L 139.193797 24.913463 
L 137.944369 25.502849 
L 136.694941 26.085705 
L 135.445513 26.661592 
L 134.196085 27.230049 
L 132.946657 27.790583 
L 131.697229 28.342674 
L 130.447801 28.885775 
L 129.198373 29.419312 
L 127.948945 29.942687 
L 126.699518 30.45528 
L 125.45009 30.956453 
L 124.200662 31.445554 
L 122.951234 31.921924 
L 121.701806 32.384905 
L 120.452378 32.833845 
L 119.20295 33.268111 
L 117.953522 33.6871 
L 116.704094 34.090244 
L 115.454666 34.477031 
L 114.205238 34.847007 
L 112.95581 35.199793 
L 111.706382 35.535092 
L 110.456954 35.852697 
L 109.207526 36.152496 
L 107.958099 36.434476 
L 106.708671 36.698724 
L 105.459243 36.945422 
L 104.209815 37.174845 
L 102.960387 37.387351 
L 101.710959 37.583375 
L 100.461531 37.763416 
L 99.212103 37.928028 
L 97.962675 38.077807 
L 96.713247 38.213378 
L 95.463819 38.335389 
L 94.214391 38.444497 
L 92.964963 38.541364 
L 91.715535 38.626642 
L 90.466108 38.700973 
L 89.21668 38.764983 
L 87.967252 38.819277 
L 86.717824 38.864434 
L 85.468396 38.901008 
L 84.218968 38.929527 
L 82.96954 38.95049 
L 81.720112 38.964368 
L 80.470684 38.971603 
L 79.221256 38.972613 
L 77.971828 38.967788 
L 76.7224 38.957492 
L 75.472972 38.942066 
L 74.223544 38.921828 
L 72.974117 38.897076 
L 71.724689 38.868085 
L 70.475261 38.835113 
L 69.225833 38.798401 
L 67.976405 38.758171 
L 66.726977 38.714633 
L 65.477549 38.667978 
L 64.228121 38.618389 
L 62.978693 38.566033 
L 61.729265 38.511067 
L 60.479837 38.453637 
L 59.230409 38.39388 
L 57.980981 38.331922 
L 56.731553 38.267884 
L 55.482125 38.201876 
L 54.232698 38.134001 
L 52.98327 38.064357 
L 51.733842 37.993036 
L 50.484414 37.920121 
L 49.234986 37.845694 
L 47.985558 37.769829 
L 46.73613 37.692596 
L 45.486702 37.614061 
L 44.237274 37.534286 
L 42.987846 37.453331 
L 41.738418 37.371248 
z
" clip-path="url(#p3fc648e8e1)" style="fill: #b4b4b4; fill-opacity: 0.4"/>
   </g>
   <g id="matplotlib.axis_1">
    <g id="xtick_1">
     <g id="line2d_1">
      <defs>
       <path id="m8c533404fb" d="M 0 0 
L 0 -4 
" style="stroke: #000000; stroke-width: 0.5"/>
      </defs>
      <g>
       <use xlink:href="#m8c533404fb" x="53.738521" y="150.662362" style="stroke: #000000; stroke-width: 0.5"/>
      </g>
     </g>
     <g id="text_1">
      <text style="font-size: 8px; font-family: 'Arial'; text-anchor: middle" x="53.738521" y="159.888612" transform="rotate(-0 53.738521 159.888612)">−50</text>
     </g>
    </g>
    <g id="xtick_2">
     <g id="line2d_2">
      <g>
       <use xlink:href="#m8c533404fb" x="83.738777" y="150.662362" style="stroke: #000000; stroke-width: 0.5"/>
      </g>
     </g>
     <g id="text_2">
      <text style="font-size: 8px; font-family: 'Arial'; text-anchor: middle" x="83.738777" y="159.888612" transform="rotate(-0 83.738777 159.888612)">−25</text>
     </g>
    </g>
    <g id="xtick_3">
     <g id="line2d_3">
      <g>
       <use xlink:href="#m8c533404fb" x="113.739034" y="150.662362" style="stroke: #000000; stroke-width: 0.5"/>
      </g>
     </g>
     <g id="text_3">
      <text style="font-size: 8px; font-family: 'Arial'; text-anchor: middle" x="113.739034" y="159.888612" transform="rotate(-0 113.739034 159.888612)">0</text>
     </g>
    </g>
    <g id="xtick_4">
     <g id="line2d_4">
      <g>
       <use xlink:href="#m8c533404fb" x="143.73929" y="150.662362" style="stroke: #000000; stroke-width: 0.5"/>
      </g>
     </g>
     <g id="text_4">
      <text style="font-size: 8px; font-family: 'Arial'; text-anchor: middle" x="143.73929" y="159.888612" transform="rotate(-0 143.73929 159.888612)">25</text>
     </g>
    </g>
    <g id="text_5">
     <text style="font-size: 8px; font-family: 'Arial'; text-anchor: middle" x="103.585101" y="171.204862" transform="rotate(-0 103.585101 171.204862)">LT_correct_gain_minus_loss</text>
    </g>
   </g>
   <g id="matplotlib.axis_2">
    <g id="ytick_1">
     <g id="line2d_5">
      <defs>
       <path id="mc7e04b96f1" d="M 0 0 
L 4 0 
" style="stroke: #000000; stroke-width: 0.5"/>
      </defs>
      <g>
       <use xlink:href="#mc7e04b96f1" x="35.55375" y="150.662362" style="stroke: #000000; stroke-width: 0.5"/>
      </g>
     </g>
     <g id="text_6">
      <text style="font-size: 8px; font-family: 'Arial'; text-anchor: end" x="32.05375" y="153.525487" transform="rotate(-0 32.05375 153.525487)">0</text>
     </g>
    </g>
    <g id="ytick_2">
     <g id="line2d_6">
      <g>
       <use xlink:href="#mc7e04b96f1" x="35.55375" y="115.512553" style="stroke: #000000; stroke-width: 0.5"/>
      </g>
     </g>
     <g id="text_7">
      <text style="font-size: 8px; font-family: 'Arial'; text-anchor: end" x="32.05375" y="118.375678" transform="rotate(-0 32.05375 118.375678)">25</text>
     </g>
    </g>
    <g id="ytick_3">
     <g id="line2d_7">
      <g>
       <use xlink:href="#mc7e04b96f1" x="35.55375" y="80.362744" style="stroke: #000000; stroke-width: 0.5"/>
      </g>
     </g>
     <g id="text_8">
      <text style="font-size: 8px; font-family: 'Arial'; text-anchor: end" x="32.05375" y="83.225869" transform="rotate(-0 32.05375 83.225869)">50</text>
     </g>
    </g>
    <g id="ytick_4">
     <g id="line2d_8">
      <g>
       <use xlink:href="#mc7e04b96f1" x="35.55375" y="45.212934" style="stroke: #000000; stroke-width: 0.5"/>
      </g>
     </g>
     <g id="text_9">
      <text style="font-size: 8px; font-family: 'Arial'; text-anchor: end" x="32.05375" y="48.076059" transform="rotate(-0 32.05375 48.076059)">75</text>
     </g>
    </g>
    <g id="ytick_5">
     <g id="line2d_9">
      <g>
       <use xlink:href="#mc7e04b96f1" x="35.55375" y="10.063125" style="stroke: #000000; stroke-width: 0.5"/>
      </g>
     </g>
     <g id="text_10">
      <text style="font-size: 8px; font-family: 'Arial'; text-anchor: end" x="32.05375" y="12.92625" transform="rotate(-0 32.05375 12.92625)">100</text>
     </g>
    </g>
    <g id="text_11">
     <text style="font-size: 8px; font-family: 'Arial'; text-anchor: middle" x="13.02375" y="80.362744" transform="rotate(-90 13.02375 80.362744)">CFC_chose_highest_expected_value</text>
    </g>
   </g>
   <g id="line2d_10">
    <path d="M 35.55375 80.362744 
L 171.616452 80.362744 
" clip-path="url(#p3fc648e8e1)" style="fill: none; stroke-dasharray: 2.59,1.12; stroke-dashoffset: 0; stroke: #808080; stroke-width: 0.7"/>
   </g>
   <g id="line2d_11">
    <path d="M 113.739034 150.662362 
L 113.739034 10.063125 
" clip-path="url(#p3fc648e8e1)" style="fill: none; stroke-dasharray: 2.59,1.12; stroke-dashoffset: 0; stroke: #808080; stroke-width: 0.7"/>
   </g>
   <g id="line2d_12">
    <path d="M 41.738418 85.863111 
L 42.987846 85.565628 
L 44.237274 85.268145 
L 45.486702 84.970663 
L 46.73613 84.67318 
L 47.985558 84.375697 
L 49.234986 84.078214 
L 50.484414 83.780731 
L 51.733842 83.483248 
L 52.98327 83.185766 
L 54.232698 82.888283 
L 55.482125 82.5908 
L 56.731553 82.293317 
L 57.980981 81.995834 
L 59.230409 81.698352 
L 60.479837 81.400869 
L 61.729265 81.103386 
L 62.978693 80.805903 
L 64.228121 80.50842 
L 65.477549 80.210937 
L 66.726977 79.913455 
L 67.976405 79.615972 
L 69.225833 79.318489 
L 70.475261 79.021006 
L 71.724689 78.723523 
L 72.974117 78.426041 
L 74.223544 78.128558 
L 75.472972 77.831075 
L 76.7224 77.533592 
L 77.971828 77.236109 
L 79.221256 76.938626 
L 80.470684 76.641144 
L 81.720112 76.343661 
L 82.96954 76.046178 
L 84.218968 75.748695 
L 85.468396 75.451212 
L 86.717824 75.15373 
L 87.967252 74.856247 
L 89.21668 74.558764 
L 90.466108 74.261281 
L 91.715535 73.963798 
L 92.964963 73.666315 
L 94.214391 73.368833 
L 95.463819 73.07135 
L 96.713247 72.773867 
L 97.962675 72.476384 
L 99.212103 72.178901 
L 100.461531 71.881419 
L 101.710959 71.583936 
L 102.960387 71.286453 
L 104.209815 70.98897 
L 105.459243 70.691487 
L 106.708671 70.394004 
L 107.958099 70.096522 
L 109.207526 69.799039 
L 110.456954 69.501556 
L 111.706382 69.204073 
L 112.95581 68.90659 
L 114.205238 68.609108 
L 115.454666 68.311625 
L 116.704094 68.014142 
L 117.953522 67.716659 
L 119.20295 67.419176 
L 120.452378 67.121693 
L 121.701806 66.824211 
L 122.951234 66.526728 
L 124.200662 66.229245 
L 125.45009 65.931762 
L 126.699518 65.634279 
L 127.948945 65.336797 
L 129.198373 65.039314 
L 130.447801 64.741831 
L 131.697229 64.444348 
L 132.946657 64.146865 
L 134.196085 63.849382 
L 135.445513 63.5519 
L 136.694941 63.254417 
L 137.944369 62.956934 
L 139.193797 62.659451 
L 140.443225 62.361968 
L 141.692653 62.064485 
L 142.942081 61.767003 
L 144.191509 61.46952 
L 145.440936 61.172037 
L 146.690364 60.874554 
L 147.939792 60.577071 
L 149.18922 60.279589 
L 150.438648 59.982106 
L 151.688076 59.684623 
L 152.937504 59.38714 
L 154.186932 59.089657 
L 155.43636 58.792174 
L 156.685788 58.494692 
L 157.935216 58.197209 
L 159.184644 57.899726 
L 160.434072 57.602243 
L 161.6835 57.30476 
L 162.932927 57.007278 
L 164.182355 56.709795 
L 165.431783 56.412312 
" clip-path="url(#p3fc648e8e1)" style="fill: none; stroke: #505050; stroke-width: 0.7; stroke-linecap: square"/>
   </g>
   <g id="line2d_13">
    <path d="M 41.738418 61.790607 
L 42.987846 61.493124 
L 44.237274 61.195641 
L 45.486702 60.898158 
L 46.73613 60.600676 
L 47.985558 60.303193 
L 49.234986 60.00571 
L 50.484414 59.708227 
L 51.733842 59.410744 
L 52.98327 59.113261 
L 54.232698 58.815779 
L 55.482125 58.518296 
L 56.731553 58.220813 
L 57.980981 57.92333 
L 59.230409 57.625847 
L 60.479837 57.328365 
L 61.729265 57.030882 
L 62.978693 56.733399 
L 64.228121 56.435916 
L 65.477549 56.138433 
L 66.726977 55.84095 
L 67.976405 55.543468 
L 69.225833 55.245985 
L 70.475261 54.948502 
L 71.724689 54.651019 
L 72.974117 54.353536 
L 74.223544 54.056054 
L 75.472972 53.758571 
L 76.7224 53.461088 
L 77.971828 53.163605 
L 79.221256 52.866122 
L 80.470684 52.568639 
L 81.720112 52.271157 
L 82.96954 51.973674 
L 84.218968 51.676191 
L 85.468396 51.378708 
L 86.717824 51.081225 
L 87.967252 50.783743 
L 89.21668 50.48626 
L 90.466108 50.188777 
L 91.715535 49.891294 
L 92.964963 49.593811 
L 94.214391 49.296328 
L 95.463819 48.998846 
L 96.713247 48.701363 
L 97.962675 48.40388 
L 99.212103 48.106397 
L 100.461531 47.808914 
L 101.710959 47.511432 
L 102.960387 47.213949 
L 104.209815 46.916466 
L 105.459243 46.618983 
L 106.708671 46.3215 
L 107.958099 46.024017 
L 109.207526 45.726535 
L 110.456954 45.429052 
L 111.706382 45.131569 
L 112.95581 44.834086 
L 114.205238 44.536603 
L 115.454666 44.239121 
L 116.704094 43.941638 
L 117.953522 43.644155 
L 119.20295 43.346672 
L 120.452378 43.049189 
L 121.701806 42.751706 
L 122.951234 42.454224 
L 124.200662 42.156741 
L 125.45009 41.859258 
L 126.699518 41.561775 
L 127.948945 41.264292 
L 129.198373 40.96681 
L 130.447801 40.669327 
L 131.697229 40.371844 
L 132.946657 40.074361 
L 134.196085 39.776878 
L 135.445513 39.479395 
L 136.694941 39.181913 
L 137.944369 38.88443 
L 139.193797 38.586947 
L 140.443225 38.289464 
L 141.692653 37.991981 
L 142.942081 37.694499 
L 144.191509 37.397016 
L 145.440936 37.099533 
L 146.690364 36.80205 
L 147.939792 36.504567 
L 149.18922 36.207084 
L 150.438648 35.909602 
L 151.688076 35.612119 
L 152.937504 35.314636 
L 154.186932 35.017153 
L 155.43636 34.71967 
L 156.685788 34.422188 
L 157.935216 34.124705 
L 159.184644 33.827222 
L 160.434072 33.529739 
L 161.6835 33.232256 
L 162.932927 32.934773 
L 164.182355 32.637291 
L 165.431783 32.339808 
" clip-path="url(#p3fc648e8e1)" style="fill: none; stroke: #b4b4b4; stroke-width: 0.7; stroke-linecap: square"/>
   </g>
   <g id="patch_3">
    <path d="M 35.55375 150.662362 
L 35.55375 10.063125 
" style="fill: none; stroke: #000000; stroke-width: 0.5; stroke-linejoin: miter; stroke-linecap: square"/>
   </g>
   <g id="patch_4">
    <path d="M 35.55375 150.662362 
L 171.616452 150.662362 
" style="fill: none; stroke: #000000; stroke-width: 0.5; stroke-linejoin: miter; stroke-linecap: square"/>
   </g>
   <g id="PathCollection_1">
    <defs>
     <path id="C0_0_117d9a18f9" d="M 0 1.414214 
C 0.375054 1.414214 0.734797 1.265203 1 1 
C 1.265203 0.734797 1.414214 0.375054 1.414214 -0 
C 1.414214 -0.375054 1.265203 -0.734797 1 -1 
C 0.734797 -1.265203 0.375054 -1.414214 0 -1.414214 
C -0.375054 -1.414214 -0.734797 -1.265203 -1 -1 
C -1.265203 -0.734797 -1.414214 -0.375054 -1.414214 0 
C -1.414214 0.375054 -1.265203 0.734797 -1 1 
C -0.734797 1.265203 -0.375054 1.414214 0 1.414214 
z
"/>
    </defs>
    <g clip-path="url(#p3fc648e8e1)">
     <use xlink:href="#C0_0_117d9a18f9" x="117.431373" y="43.016071" style="fill-opacity: 0.38"/>
    </g>
    <g clip-path="url(#p3fc648e8e1)">
     <use xlink:href="#C0_0_117d9a18f9" x="102.662016" y="60.590976" style="fill-opacity: 0.38"/>
    </g>
    <g clip-path="url(#p3fc648e8e1)">
     <use xlink:href="#C0_0_117d9a18f9" x="139.585409" y="88.051764" style="fill-opacity: 0.38"/>
    </g>
    <g clip-path="url(#p3fc648e8e1)">
     <use xlink:href="#C0_0_117d9a18f9" x="106.354355" y="22.145872" style="fill-opacity: 0.38"/>
    </g>
    <g clip-path="url(#p3fc648e8e1)">
     <use xlink:href="#C0_0_117d9a18f9" x="134.0469" y="19.949009" style="fill-opacity: 0.38"/>
    </g>
    <g clip-path="url(#p3fc648e8e1)">
     <use xlink:href="#C0_0_117d9a18f9" x="139.585409" y="66.083133" style="fill-opacity: 0.38"/>
    </g>
    <g clip-path="url(#p3fc648e8e1)">
     <use xlink:href="#C0_0_117d9a18f9" x="113.739034" y="81.461175" style="fill-opacity: 0.38"/>
    </g>
    <g clip-path="url(#p3fc648e8e1)">
     <use xlink:href="#C0_0_117d9a18f9" x="106.354355" y="80.362744" style="fill-opacity: 0.38"/>
    </g>
    <g clip-path="url(#p3fc648e8e1)">
     <use xlink:href="#C0_0_117d9a18f9" x="122.969882" y="54.000387" style="fill-opacity: 0.38"/>
    </g>
    <g clip-path="url(#p3fc648e8e1)">
     <use xlink:href="#C0_0_117d9a18f9" x="111.892864" y="32.031756" style="fill-opacity: 0.38"/>
    </g>
    <g clip-path="url(#p3fc648e8e1)">
     <use xlink:href="#C0_0_117d9a18f9" x="121.123712" y="71.575291" style="fill-opacity: 0.38"/>
    </g>
    <g clip-path="url(#p3fc648e8e1)">
     <use xlink:href="#C0_0_117d9a18f9" x="154.354766" y="99.03608" style="fill-opacity: 0.38"/>
    </g>
    <g clip-path="url(#p3fc648e8e1)">
     <use xlink:href="#C0_0_117d9a18f9" x="95.277337" y="13.35842" style="fill-opacity: 0.38"/>
    </g>
    <g clip-path="url(#p3fc648e8e1)">
     <use xlink:href="#C0_0_117d9a18f9" x="111.892864" y="11.161557" style="fill-opacity: 0.38"/>
    </g>
    <g clip-path="url(#p3fc648e8e1)">
     <use xlink:href="#C0_0_117d9a18f9" x="98.969677" y="86.953333" style="fill-opacity: 0.38"/>
    </g>
    <g clip-path="url(#p3fc648e8e1)">
     <use xlink:href="#C0_0_117d9a18f9" x="119.277543" y="68.279997" style="fill-opacity: 0.38"/>
    </g>
    <g clip-path="url(#p3fc648e8e1)">
     <use xlink:href="#C0_0_117d9a18f9" x="74.969472" y="118.807847" style="fill-opacity: 0.38"/>
    </g>
    <g clip-path="url(#p3fc648e8e1)">
     <use xlink:href="#C0_0_117d9a18f9" x="122.969882" y="139.678047" style="fill-opacity: 0.38"/>
    </g>
    <g clip-path="url(#p3fc648e8e1)">
     <use xlink:href="#C0_0_117d9a18f9" x="102.662016" y="10.063125" style="fill-opacity: 0.38"/>
    </g>
    <g clip-path="url(#p3fc648e8e1)">
     <use xlink:href="#C0_0_117d9a18f9" x="113.739034" y="146.268636" style="fill-opacity: 0.38"/>
    </g>
    <g clip-path="url(#p3fc648e8e1)">
     <use xlink:href="#C0_0_117d9a18f9" x="113.739034" y="33.130187" style="fill-opacity: 0.38"/>
    </g>
    <g clip-path="url(#p3fc648e8e1)">
     <use xlink:href="#C0_0_117d9a18f9" x="98.969677" y="85.854901" style="fill-opacity: 0.38"/>
    </g>
    <g clip-path="url(#p3fc648e8e1)">
     <use xlink:href="#C0_0_117d9a18f9" x="115.585203" y="77.067449" style="fill-opacity: 0.38"/>
    </g>
    <g clip-path="url(#p3fc648e8e1)">
     <use xlink:href="#C0_0_117d9a18f9" x="91.584998" y="44.114503" style="fill-opacity: 0.38"/>
    </g>
    <g clip-path="url(#p3fc648e8e1)">
     <use xlink:href="#C0_0_117d9a18f9" x="122.969882" y="145.170204" style="fill-opacity: 0.38"/>
    </g>
    <g clip-path="url(#p3fc648e8e1)">
     <use xlink:href="#C0_0_117d9a18f9" x="106.354355" y="58.394113" style="fill-opacity: 0.38"/>
    </g>
    <g clip-path="url(#p3fc648e8e1)">
     <use xlink:href="#C0_0_117d9a18f9" x="154.354766" y="10.063125" style="fill-opacity: 0.38"/>
    </g>
    <g clip-path="url(#p3fc648e8e1)">
     <use xlink:href="#C0_0_117d9a18f9" x="99.142755" y="111.118827" style="fill-opacity: 0.38"/>
    </g>
    <g clip-path="url(#p3fc648e8e1)">
     <use xlink:href="#C0_0_117d9a18f9" x="117.431373" y="124.300005" style="fill-opacity: 0.38"/>
    </g>
    <g clip-path="url(#p3fc648e8e1)">
     <use xlink:href="#C0_0_117d9a18f9" x="150.662426" y="75.969017" style="fill-opacity: 0.38"/>
    </g>
    <g clip-path="url(#p3fc648e8e1)">
     <use xlink:href="#C0_0_117d9a18f9" x="97.123507" y="35.32705" style="fill-opacity: 0.38"/>
    </g>
    <g clip-path="url(#p3fc648e8e1)">
     <use xlink:href="#C0_0_117d9a18f9" x="82.35415" y="73.772154" style="fill-opacity: 0.38"/>
    </g>
    <g clip-path="url(#p3fc648e8e1)">
     <use xlink:href="#C0_0_117d9a18f9" x="117.431373" y="33.130187" style="fill-opacity: 0.38"/>
    </g>
    <g clip-path="url(#p3fc648e8e1)">
     <use xlink:href="#C0_0_117d9a18f9" x="117.431373" y="21.04744" style="fill-opacity: 0.38"/>
    </g>
    <g clip-path="url(#p3fc648e8e1)">
     <use xlink:href="#C0_0_117d9a18f9" x="98.969677" y="148.465499" style="fill-opacity: 0.38"/>
    </g>
    <g clip-path="url(#p3fc648e8e1)">
     <use xlink:href="#C0_0_117d9a18f9" x="132.20073" y="13.35842" style="fill-opacity: 0.38"/>
    </g>
    <g clip-path="url(#p3fc648e8e1)">
     <use xlink:href="#C0_0_117d9a18f9" x="84.20032" y="88.051764" style="fill-opacity: 0.38"/>
    </g>
    <g clip-path="url(#p3fc648e8e1)">
     <use xlink:href="#C0_0_117d9a18f9" x="91.584998" y="49.60666" style="fill-opacity: 0.38"/>
    </g>
    <g clip-path="url(#p3fc648e8e1)">
     <use xlink:href="#C0_0_117d9a18f9" x="119.277543" y="43.016071" style="fill-opacity: 0.38"/>
    </g>
    <g clip-path="url(#p3fc648e8e1)">
     <use xlink:href="#C0_0_117d9a18f9" x="115.585203" y="22.145872" style="fill-opacity: 0.38"/>
    </g>
    <g clip-path="url(#p3fc648e8e1)">
     <use xlink:href="#C0_0_117d9a18f9" x="86.046489" y="103.429806" style="fill-opacity: 0.38"/>
    </g>
    <g clip-path="url(#p3fc648e8e1)">
     <use xlink:href="#C0_0_117d9a18f9" x="117.431373" y="70.47686" style="fill-opacity: 0.38"/>
    </g>
    <g clip-path="url(#p3fc648e8e1)">
     <use xlink:href="#C0_0_117d9a18f9" x="126.662221" y="112.217258" style="fill-opacity: 0.38"/>
    </g>
    <g clip-path="url(#p3fc648e8e1)">
     <use xlink:href="#C0_0_117d9a18f9" x="84.20032" y="67.181565" style="fill-opacity: 0.38"/>
    </g>
    <g clip-path="url(#p3fc648e8e1)">
     <use xlink:href="#C0_0_117d9a18f9" x="86.046489" y="52.901955" style="fill-opacity: 0.38"/>
    </g>
    <g clip-path="url(#p3fc648e8e1)">
     <use xlink:href="#C0_0_117d9a18f9" x="141.431578" y="50.705092" style="fill-opacity: 0.38"/>
    </g>
    <g clip-path="url(#p3fc648e8e1)">
     <use xlink:href="#C0_0_117d9a18f9" x="111.892864" y="145.170204" style="fill-opacity: 0.38"/>
    </g>
    <g clip-path="url(#p3fc648e8e1)">
     <use xlink:href="#C0_0_117d9a18f9" x="104.508186" y="83.658038" style="fill-opacity: 0.38"/>
    </g>
    <g clip-path="url(#p3fc648e8e1)">
     <use xlink:href="#C0_0_117d9a18f9" x="130.35456" y="86.953333" style="fill-opacity: 0.38"/>
    </g>
   </g>
   <g id="PathCollection_2">
    <defs>
     <path id="C1_0_0af5e9794f" d="M 0 1.414214 
C 0.375054 1.414214 0.734797 1.265203 1 1 
C 1.265203 0.734797 1.414214 0.375054 1.414214 -0 
C 1.414214 -0.375054 1.265203 -0.734797 1 -1 
C 0.734797 -1.265203 0.375054 -1.414214 0 -1.414214 
C -0.375054 -1.414214 -0.734797 -1.265203 -1 -1 
C -1.265203 -0.734797 -1.414214 -0.375054 -1.414214 0 
C -1.414214 0.375054 -1.265203 0.734797 -1 1 
C -0.734797 1.265203 -0.375054 1.414214 0 1.414214 
z
"/>
    </defs>
    <g clip-path="url(#p3fc648e8e1)">
     <use xlink:href="#C1_0_0af5e9794f" x="97.123507" y="62.787839" style="fill: #8c8c8c; fill-opacity: 0.38"/>
    </g>
    <g clip-path="url(#p3fc648e8e1)">
     <use xlink:href="#C1_0_0af5e9794f" x="102.662016" y="17.752146" style="fill: #8c8c8c; fill-opacity: 0.38"/>
    </g>
    <g clip-path="url(#p3fc648e8e1)">
     <use xlink:href="#C1_0_0af5e9794f" x="73.123302" y="79.264312" style="fill: #8c8c8c; fill-opacity: 0.38"/>
    </g>
    <g clip-path="url(#p3fc648e8e1)">
     <use xlink:href="#C1_0_0af5e9794f" x="111.892864" y="11.161557" style="fill: #8c8c8c; fill-opacity: 0.38"/>
    </g>
    <g clip-path="url(#p3fc648e8e1)">
     <use xlink:href="#C1_0_0af5e9794f" x="110.046695" y="68.279997" style="fill: #8c8c8c; fill-opacity: 0.38"/>
    </g>
    <g clip-path="url(#p3fc648e8e1)">
     <use xlink:href="#C1_0_0af5e9794f" x="98.969677" y="59.492544" style="fill: #8c8c8c; fill-opacity: 0.38"/>
    </g>
    <g clip-path="url(#p3fc648e8e1)">
     <use xlink:href="#C1_0_0af5e9794f" x="121.123712" y="28.736461" style="fill: #8c8c8c; fill-opacity: 0.38"/>
    </g>
    <g clip-path="url(#p3fc648e8e1)">
     <use xlink:href="#C1_0_0af5e9794f" x="108.200525" y="64.984702" style="fill: #8c8c8c; fill-opacity: 0.38"/>
    </g>
    <g clip-path="url(#p3fc648e8e1)">
     <use xlink:href="#C1_0_0af5e9794f" x="132.20073" y="10.063125" style="fill: #8c8c8c; fill-opacity: 0.38"/>
    </g>
    <g clip-path="url(#p3fc648e8e1)">
     <use xlink:href="#C1_0_0af5e9794f" x="119.277543" y="33.130187" style="fill: #8c8c8c; fill-opacity: 0.38"/>
    </g>
    <g clip-path="url(#p3fc648e8e1)">
     <use xlink:href="#C1_0_0af5e9794f" x="132.20073" y="36.425482" style="fill: #8c8c8c; fill-opacity: 0.38"/>
    </g>
    <g clip-path="url(#p3fc648e8e1)">
     <use xlink:href="#C1_0_0af5e9794f" x="115.585203" y="12.259988" style="fill: #8c8c8c; fill-opacity: 0.38"/>
    </g>
    <g clip-path="url(#p3fc648e8e1)">
     <use xlink:href="#C1_0_0af5e9794f" x="86.046489" y="50.705092" style="fill: #8c8c8c; fill-opacity: 0.38"/>
    </g>
    <g clip-path="url(#p3fc648e8e1)">
     <use xlink:href="#C1_0_0af5e9794f" x="87.892659" y="12.259988" style="fill: #8c8c8c; fill-opacity: 0.38"/>
    </g>
    <g clip-path="url(#p3fc648e8e1)">
     <use xlink:href="#C1_0_0af5e9794f" x="126.662221" y="89.150196" style="fill: #8c8c8c; fill-opacity: 0.38"/>
    </g>
    <g clip-path="url(#p3fc648e8e1)">
     <use xlink:href="#C1_0_0af5e9794f" x="135.893069" y="36.425482" style="fill: #8c8c8c; fill-opacity: 0.38"/>
    </g>
    <g clip-path="url(#p3fc648e8e1)">
     <use xlink:href="#C1_0_0af5e9794f" x="80.50798" y="58.394113" style="fill: #8c8c8c; fill-opacity: 0.38"/>
    </g>
    <g clip-path="url(#p3fc648e8e1)">
     <use xlink:href="#C1_0_0af5e9794f" x="69.430963" y="50.705092" style="fill: #8c8c8c; fill-opacity: 0.38"/>
    </g>
    <g clip-path="url(#p3fc648e8e1)">
     <use xlink:href="#C1_0_0af5e9794f" x="119.277543" y="12.259988" style="fill: #8c8c8c; fill-opacity: 0.38"/>
    </g>
    <g clip-path="url(#p3fc648e8e1)">
     <use xlink:href="#C1_0_0af5e9794f" x="97.123507" y="80.362744" style="fill: #8c8c8c; fill-opacity: 0.38"/>
    </g>
    <g clip-path="url(#p3fc648e8e1)">
     <use xlink:href="#C1_0_0af5e9794f" x="104.508186" y="45.212934" style="fill: #8c8c8c; fill-opacity: 0.38"/>
    </g>
    <g clip-path="url(#p3fc648e8e1)">
     <use xlink:href="#C1_0_0af5e9794f" x="102.662016" y="35.32705" style="fill: #8c8c8c; fill-opacity: 0.38"/>
    </g>
    <g clip-path="url(#p3fc648e8e1)">
     <use xlink:href="#C1_0_0af5e9794f" x="52.815436" y="128.693731" style="fill: #8c8c8c; fill-opacity: 0.38"/>
    </g>
    <g clip-path="url(#p3fc648e8e1)">
     <use xlink:href="#C1_0_0af5e9794f" x="100.815846" y="57.295681" style="fill: #8c8c8c; fill-opacity: 0.38"/>
    </g>
    <g clip-path="url(#p3fc648e8e1)">
     <use xlink:href="#C1_0_0af5e9794f" x="108.200525" y="80.362744" style="fill: #8c8c8c; fill-opacity: 0.38"/>
    </g>
    <g clip-path="url(#p3fc648e8e1)">
     <use xlink:href="#C1_0_0af5e9794f" x="115.585203" y="38.622345" style="fill: #8c8c8c; fill-opacity: 0.38"/>
    </g>
    <g clip-path="url(#p3fc648e8e1)">
     <use xlink:href="#C1_0_0af5e9794f" x="117.431373" y="50.705092" style="fill: #8c8c8c; fill-opacity: 0.38"/>
    </g>
    <g clip-path="url(#p3fc648e8e1)">
     <use xlink:href="#C1_0_0af5e9794f" x="124.816052" y="61.689407" style="fill: #8c8c8c; fill-opacity: 0.38"/>
    </g>
    <g clip-path="url(#p3fc648e8e1)">
     <use xlink:href="#C1_0_0af5e9794f" x="122.969882" y="22.145872" style="fill: #8c8c8c; fill-opacity: 0.38"/>
    </g>
    <g clip-path="url(#p3fc648e8e1)">
     <use xlink:href="#C1_0_0af5e9794f" x="111.892864" y="60.590976" style="fill: #8c8c8c; fill-opacity: 0.38"/>
    </g>
    <g clip-path="url(#p3fc648e8e1)">
     <use xlink:href="#C1_0_0af5e9794f" x="110.046695" y="41.91764" style="fill: #8c8c8c; fill-opacity: 0.38"/>
    </g>
    <g clip-path="url(#p3fc648e8e1)">
     <use xlink:href="#C1_0_0af5e9794f" x="122.969882" y="10.063125" style="fill: #8c8c8c; fill-opacity: 0.38"/>
    </g>
    <g clip-path="url(#p3fc648e8e1)">
     <use xlink:href="#C1_0_0af5e9794f" x="121.123712" y="46.311366" style="fill: #8c8c8c; fill-opacity: 0.38"/>
    </g>
    <g clip-path="url(#p3fc648e8e1)">
     <use xlink:href="#C1_0_0af5e9794f" x="165.431783" y="100.134511" style="fill: #8c8c8c; fill-opacity: 0.38"/>
    </g>
    <g clip-path="url(#p3fc648e8e1)">
     <use xlink:href="#C1_0_0af5e9794f" x="137.739239" y="79.264312" style="fill: #8c8c8c; fill-opacity: 0.38"/>
    </g>
    <g clip-path="url(#p3fc648e8e1)">
     <use xlink:href="#C1_0_0af5e9794f" x="113.739034" y="11.161557" style="fill: #8c8c8c; fill-opacity: 0.38"/>
    </g>
    <g clip-path="url(#p3fc648e8e1)">
     <use xlink:href="#C1_0_0af5e9794f" x="106.354355" y="67.181565" style="fill: #8c8c8c; fill-opacity: 0.38"/>
    </g>
    <g clip-path="url(#p3fc648e8e1)">
     <use xlink:href="#C1_0_0af5e9794f" x="100.815846" y="40.819208" style="fill: #8c8c8c; fill-opacity: 0.38"/>
    </g>
    <g clip-path="url(#p3fc648e8e1)">
     <use xlink:href="#C1_0_0af5e9794f" x="115.585203" y="26.539598" style="fill: #8c8c8c; fill-opacity: 0.38"/>
    </g>
    <g clip-path="url(#p3fc648e8e1)">
     <use xlink:href="#C1_0_0af5e9794f" x="102.662016" y="16.653714" style="fill: #8c8c8c; fill-opacity: 0.38"/>
    </g>
    <g clip-path="url(#p3fc648e8e1)">
     <use xlink:href="#C1_0_0af5e9794f" x="145.123917" y="10.063125" style="fill: #8c8c8c; fill-opacity: 0.38"/>
    </g>
    <g clip-path="url(#p3fc648e8e1)">
     <use xlink:href="#C1_0_0af5e9794f" x="108.200525" y="75.969017" style="fill: #8c8c8c; fill-opacity: 0.38"/>
    </g>
    <g clip-path="url(#p3fc648e8e1)">
     <use xlink:href="#C1_0_0af5e9794f" x="41.738418" y="51.803523" style="fill: #8c8c8c; fill-opacity: 0.38"/>
    </g>
    <g clip-path="url(#p3fc648e8e1)">
     <use xlink:href="#C1_0_0af5e9794f" x="119.277543" y="40.819208" style="fill: #8c8c8c; fill-opacity: 0.38"/>
    </g>
    <g clip-path="url(#p3fc648e8e1)">
     <use xlink:href="#C1_0_0af5e9794f" x="104.508186" y="54.000387" style="fill: #8c8c8c; fill-opacity: 0.38"/>
    </g>
    <g clip-path="url(#p3fc648e8e1)">
     <use xlink:href="#C1_0_0af5e9794f" x="143.277748" y="10.063125" style="fill: #8c8c8c; fill-opacity: 0.38"/>
    </g>
    <g clip-path="url(#p3fc648e8e1)">
     <use xlink:href="#C1_0_0af5e9794f" x="126.662221" y="69.378428" style="fill: #8c8c8c; fill-opacity: 0.38"/>
    </g>
    <g clip-path="url(#p3fc648e8e1)">
     <use xlink:href="#C1_0_0af5e9794f" x="86.046489" y="10.063125" style="fill: #8c8c8c; fill-opacity: 0.38"/>
    </g>
    <g clip-path="url(#p3fc648e8e1)">
     <use xlink:href="#C1_0_0af5e9794f" x="115.585203" y="17.752146" style="fill: #8c8c8c; fill-opacity: 0.38"/>
    </g>
   </g>
  </g>
 </g>
 <defs>
  <clipPath id="p3fc648e8e1">
   <rect x="35.55375" y="10.063125" width="136.062702" height="140.599237"/>
  </clipPath>
 </defs>
</svg>
