<?xml version="1.0" encoding="utf-8" standalone="no"?>
<!DOCTYPE svg PUBLIC "-//W3C//DTD SVG 1.1//EN"
  "http://www.w3.org/Graphics/SVG/1.1/DTD/svg11.dtd">
<svg xmlns:xlink="http://www.w3.org/1999/xlink" width="178.816452pt" height="180.186112pt" viewBox="0 0 178.816452 180.186112" xmlns="http://www.w3.org/2000/svg" version="1.1">
 <metadata>
  <rdf:RDF xmlns:dc="http://purl.org/dc/elements/1.1/" xmlns:cc="http://creativecommons.org/ns#" xmlns:rdf="http://www.w3.org/1999/02/22-rdf-syntax-ns#">
   <cc:Work>
    <dc:type rdf:resource="http://purl.org/dc/dcmitype/StillImage"/>
    <dc:date>2026-03-04T23:12:11.553130</dc:date>
    <dc:format>image/svg+xml</dc:format>
    <dc:creator>
     <cc:Agent>
      <dc:title>Matplotlib v3.10.8, https://matplotlib.org/</dc:title>
     </cc:Agent>
    </dc:creator>
   </cc:Work>
  </rdf:RDF>
 </metadata>
 <defs>
  <style type="text/css">*{stroke-linejoin: round; stroke-linecap: butt}</style>
 </defs>
 <g id="figure_1">
  <g id="patch_1">
   <path d="M 0 180.186112 
L 178.816452 180.186112 
L 178.816452 0 
L 0 0 
z
" style="fill: #ffffff"/>
  </g>
  <g id="axes_1">
   <g id="patch_2">
    <path d="M 35.55375 150.662362 
L 171.616452 150.662362 
L 171.616452 10.063125 
L 35.55375 10.063125 
z
" style="fill: #ffffff"/>
   </g>
   <g id="FillBetweenPolyCollection_1">
    <path d="M 118.703179 80.362744 
L 35.55375 80.362744 
L 35.55375 10.063125 
L 118.703179 10.063125 
L 118.703179 10.063125 
L 118.703179 80.362744 
z
" clip-path="url(#p52e17fa4bd)" style="fill: #fbebd9"/>
   </g>
   <g id="FillBetweenPolyCollection_2">
    <path d="M 171.616452 80.362744 
L 118.703179 80.362744 
L 118.703179 10.063125 
L 171.616452 10.063125 
L 171.616452 10.063125 
L 171.616452 80.362744 
z
" clip-path="url(#p52e17fa4bd)" style="fill: #dce8f4"/>
   </g>
   <g id="FillBetweenPolyCollection_3">
    <path d="M 118.703179 150.662362 
L 35.55375 150.662362 
L 35.55375 80.362744 
L 118.703179 80.362744 
L 118.703179 80.362744 
L 118.703179 150.662362 
z
" clip-path="url(#p52e17fa4bd)" style="fill: #dce8f4"/>
   </g>
   <g id="FillBetweenPolyCollection_4">
    <path d="M 171.616452 150.662362 
L 118.703179 150.662362 
L 118.703179 80.362744 
L 171.616452 80.362744 
L 171.616452 80.362744 
L 171.616452 150.662362 
z
" clip-path="url(#p52e17fa4bd)" style="fill: #ddd2c6"/>
   </g>
   <g id="FillBetweenPolyCollection_5">
    <path d="M 41.738418 70.97075 
L 41.738418 117.131266 
L 42.987846 116.424933 
L 44.237274 115.719437 
L 45.486702 115.014812 
L 46.73613 114.311095 
L 47.985558 113.608323 
L 49.234986 112.906537 
L 50.484414 112.205778 
L 51.733842 111.506091 
L 52.98327 110.807522 
L 54.232698 110.11012 
L 55.482125 109.413937 
L 56.731553 108.719029 
L 57.980981 108.025453 
L 59.230409 107.33327 
L 60.479837 106.642545 
L 61.729265 105.953347 
L 62.978693 105.265747 
L 64.228121 104.579822 
L 65.477549 103.895653 
L 66.726977 103.213326 
L 67.976405 102.532932 
L 69.225833 101.854567 
L 70.475261 101.178332 
L 71.724689 100.504335 
L 72.974117 99.832691 
L 74.223544 99.163522 
L 75.472972 98.496954 
L 76.7224 97.833125 
L 77.971828 97.172179 
L 79.221256 96.514268 
L 80.470684 95.859553 
L 81.720112 95.208206 
L 82.96954 94.560408 
L 84.218968 93.916349 
L 85.468396 93.276232 
L 86.717824 92.64027 
L 87.967252 92.008688 
L 89.21668 91.38172 
L 90.466108 90.759616 
L 91.715535 90.142637 
L 92.964963 89.531054 
L 94.214391 88.925151 
L 95.463819 88.325226 
L 96.713247 87.731586 
L 97.962675 87.144548 
L 99.212103 86.56444 
L 100.461531 85.991599 
L 101.710959 85.426367 
L 102.960387 84.869091 
L 104.209815 84.320123 
L 105.459243 83.779814 
L 106.708671 83.248511 
L 107.958099 82.726557 
L 109.207526 82.214284 
L 110.456954 81.712013 
L 111.706382 81.220045 
L 112.95581 80.738663 
L 114.205238 80.268121 
L 115.454666 79.808648 
L 116.704094 79.360436 
L 117.953522 78.923646 
L 119.20295 78.498395 
L 120.452378 78.084763 
L 121.701806 77.682787 
L 122.951234 77.292459 
L 124.200662 76.913731 
L 125.45009 76.546512 
L 126.699518 76.19067 
L 127.948945 75.846036 
L 129.198373 75.512406 
L 130.447801 75.189544 
L 131.697229 74.877185 
L 132.946657 74.575041 
L 134.196085 74.282806 
L 135.445513 74.000154 
L 136.694941 73.726749 
L 137.944369 73.462248 
L 139.193797 73.206301 
L 140.443225 72.958557 
L 141.692653 72.718666 
L 142.942081 72.486281 
L 144.191509 72.261061 
L 145.440936 72.042673 
L 146.690364 71.830792 
L 147.939792 71.625102 
L 149.18922 71.425301 
L 150.438648 71.231094 
L 151.688076 71.042201 
L 152.937504 70.858354 
L 154.186932 70.679295 
L 155.43636 70.504779 
L 156.685788 70.334575 
L 157.935216 70.168461 
L 159.184644 70.006228 
L 160.434072 69.847676 
L 161.6835 69.692617 
L 162.932927 69.540875 
L 164.182355 69.39228 
L 165.431783 69.246674 
L 165.431783 38.920064 
L 165.431783 38.920064 
L 164.182355 39.581885 
L 162.932927 40.240718 
L 161.6835 40.896402 
L 160.434072 41.548771 
L 159.184644 42.197646 
L 157.935216 42.842839 
L 156.685788 43.484152 
L 155.43636 44.121375 
L 154.186932 44.754287 
L 152.937504 45.382655 
L 151.688076 46.006235 
L 150.438648 46.624769 
L 149.18922 47.23799 
L 147.939792 47.845615 
L 146.690364 48.447353 
L 145.440936 49.042898 
L 144.191509 49.631937 
L 142.942081 50.214145 
L 141.692653 50.789187 
L 140.443225 51.356722 
L 139.193797 51.916405 
L 137.944369 52.467885 
L 136.694941 53.010811 
L 135.445513 53.544834 
L 134.196085 54.069609 
L 132.946657 54.5848 
L 131.697229 55.090084 
L 130.447801 55.585152 
L 129.198373 56.069717 
L 127.948945 56.543514 
L 126.699518 57.006307 
L 125.45009 57.457892 
L 124.200662 57.8981 
L 122.951234 58.326799 
L 121.701806 58.743899 
L 120.452378 59.149349 
L 119.20295 59.543144 
L 117.953522 59.925321 
L 116.704094 60.295957 
L 115.454666 60.655173 
L 114.205238 61.003126 
L 112.95581 61.340012 
L 111.706382 61.666057 
L 110.456954 61.981516 
L 109.207526 62.286672 
L 107.958099 62.581826 
L 106.708671 62.867299 
L 105.459243 63.143423 
L 104.209815 63.410541 
L 102.960387 63.669 
L 101.710959 63.919151 
L 100.461531 64.161346 
L 99.212103 64.395932 
L 97.962675 64.623251 
L 96.713247 64.84364 
L 95.463819 65.057427 
L 94.214391 65.264929 
L 92.964963 65.466454 
L 91.715535 65.662298 
L 90.466108 65.852745 
L 89.21668 66.038068 
L 87.967252 66.218528 
L 86.717824 66.394372 
L 85.468396 66.565837 
L 84.218968 66.733148 
L 82.96954 66.896516 
L 81.720112 67.056145 
L 80.470684 67.212225 
L 79.221256 67.364937 
L 77.971828 67.514453 
L 76.7224 67.660934 
L 75.472972 67.804532 
L 74.223544 67.945392 
L 72.974117 68.083649 
L 71.724689 68.219432 
L 70.475261 68.352863 
L 69.225833 68.484055 
L 67.976405 68.613116 
L 66.726977 68.740149 
L 65.477549 68.865249 
L 64.228121 68.988508 
L 62.978693 69.11001 
L 61.729265 69.229837 
L 60.479837 69.348065 
L 59.230409 69.464768 
L 57.980981 69.580012 
L 56.731553 69.693863 
L 55.482125 69.806382 
L 54.232698 69.917626 
L 52.98327 70.027651 
L 51.733842 70.136509 
L 50.484414 70.244249 
L 49.234986 70.350917 
L 47.985558 70.456558 
L 46.73613 70.561213 
L 45.486702 70.664923 
L 44.237274 70.767726 
L 42.987846 70.869657 
L 41.738418 70.97075 
z
" clip-path="url(#p52e17fa4bd)" style="fill: #505050; fill-opacity: 0.4"/>
   </g>
   <g id="FillBetweenPolyCollection_6">
    <path d="M 41.738418 46.917318 
L 41.738418 91.127448 
L 42.987846 90.423948 
L 44.237274 89.721402 
L 45.486702 89.019851 
L 46.73613 88.319337 
L 47.985558 87.619906 
L 49.234986 86.921604 
L 50.484414 86.224481 
L 51.733842 85.52859 
L 52.98327 84.833986 
L 54.232698 84.140729 
L 55.482125 83.448879 
L 56.731553 82.758503 
L 57.980981 82.06967 
L 59.230409 81.382453 
L 60.479837 80.696929 
L 61.729265 80.013181 
L 62.978693 79.331295 
L 64.228121 78.651364 
L 65.477549 77.973485 
L 66.726977 77.297761 
L 67.976405 76.624301 
L 69.225833 75.953222 
L 70.475261 75.284646 
L 71.724689 74.618704 
L 72.974117 73.955532 
L 74.223544 73.295278 
L 75.472972 72.638095 
L 76.7224 71.984149 
L 77.971828 71.333611 
L 79.221256 70.686665 
L 80.470684 70.043505 
L 81.720112 69.404336 
L 82.96954 68.769372 
L 84.218968 68.138841 
L 85.468396 67.512983 
L 86.717824 66.892048 
L 87.967252 66.276299 
L 89.21668 65.666012 
L 90.466108 65.061473 
L 91.715535 64.462982 
L 92.964963 63.870849 
L 94.214391 63.285394 
L 95.463819 62.706947 
L 96.713247 62.135845 
L 97.962675 61.572432 
L 99.212103 61.017058 
L 100.461531 60.470074 
L 101.710959 59.931829 
L 102.960387 59.40267 
L 104.209815 58.882939 
L 105.459243 58.372966 
L 106.708671 57.873065 
L 107.958099 57.383536 
L 109.207526 56.904654 
L 110.456954 56.436668 
L 111.706382 55.979799 
L 112.95581 55.534232 
L 114.205238 55.100117 
L 115.454666 54.677564 
L 116.704094 54.266642 
L 117.953522 53.867378 
L 119.20295 53.479755 
L 120.452378 53.103714 
L 121.701806 52.739155 
L 122.951234 52.385937 
L 124.200662 52.043883 
L 125.45009 51.71278 
L 126.699518 51.392386 
L 127.948945 51.08243 
L 129.198373 50.78262 
L 130.447801 50.492643 
L 131.697229 50.212173 
L 132.946657 49.940871 
L 134.196085 49.678391 
L 135.445513 49.424384 
L 136.694941 49.178498 
L 137.944369 48.940384 
L 139.193797 48.709696 
L 140.443225 48.486095 
L 141.692653 48.26925 
L 142.942081 48.058837 
L 144.191509 47.854544 
L 145.440936 47.65607 
L 146.690364 47.463124 
L 147.939792 47.275428 
L 149.18922 47.092717 
L 150.438648 46.914737 
L 151.688076 46.741245 
L 152.937504 46.572012 
L 154.186932 46.406819 
L 155.43636 46.245459 
L 156.685788 46.087737 
L 157.935216 45.933465 
L 159.184644 45.78247 
L 160.434072 45.634584 
L 161.6835 45.489651 
L 162.932927 45.347524 
L 164.182355 45.208061 
L 165.431783 45.071132 
L 165.431783 13.038356 
L 165.431783 13.038356 
L 164.182355 13.708854 
L 162.932927 14.376819 
L 161.6835 15.042118 
L 160.434072 15.704613 
L 159.184644 16.364154 
L 157.935216 17.020585 
L 156.685788 17.673741 
L 155.43636 18.323445 
L 154.186932 18.969513 
L 152.937504 19.611747 
L 151.688076 20.249941 
L 150.438648 20.883876 
L 149.18922 21.513322 
L 147.939792 22.138039 
L 146.690364 22.75777 
L 145.440936 23.372252 
L 144.191509 23.981204 
L 142.942081 24.584338 
L 141.692653 25.181353 
L 140.443225 25.771934 
L 139.193797 26.35576 
L 137.944369 26.9325 
L 136.694941 27.501812 
L 135.445513 28.063353 
L 134.196085 28.616773 
L 132.946657 29.161721 
L 131.697229 29.697846 
L 130.447801 30.224803 
L 129.198373 30.742253 
L 127.948945 31.24987 
L 126.699518 31.747341 
L 125.45009 32.234374 
L 124.200662 32.710698 
L 122.951234 33.176071 
L 121.701806 33.63028 
L 120.452378 34.073148 
L 119.20295 34.504534 
L 117.953522 34.924339 
L 116.704094 35.332501 
L 115.454666 35.729007 
L 114.205238 36.113881 
L 112.95581 36.487193 
L 111.706382 36.849053 
L 110.456954 37.19961 
L 109.207526 37.539052 
L 107.958099 37.867597 
L 106.708671 38.185495 
L 105.459243 38.493021 
L 104.209815 38.790475 
L 102.960387 39.078171 
L 101.710959 39.356439 
L 100.461531 39.625621 
L 99.212103 39.886064 
L 97.962675 40.138117 
L 96.713247 40.382131 
L 95.463819 40.618456 
L 94.214391 40.847436 
L 92.964963 41.069408 
L 91.715535 41.284702 
L 90.466108 41.493638 
L 89.21668 41.696527 
L 87.967252 41.893667 
L 86.717824 42.085345 
L 85.468396 42.271837 
L 84.218968 42.453405 
L 82.96954 42.630302 
L 81.720112 42.802765 
L 80.470684 42.971022 
L 79.221256 43.13529 
L 77.971828 43.295771 
L 76.7224 43.45266 
L 75.472972 43.606141 
L 74.223544 43.756385 
L 72.974117 43.903558 
L 71.724689 44.047814 
L 70.475261 44.189298 
L 69.225833 44.328149 
L 67.976405 44.464497 
L 66.726977 44.598464 
L 65.477549 44.730167 
L 64.228121 44.859715 
L 62.978693 44.987211 
L 61.729265 45.112753 
L 60.479837 45.236432 
L 59.230409 45.358335 
L 57.980981 45.478545 
L 56.731553 45.597139 
L 55.482125 45.71419 
L 54.232698 45.829767 
L 52.98327 45.943937 
L 51.733842 46.05676 
L 50.484414 46.168296 
L 49.234986 46.2786 
L 47.985558 46.387725 
L 46.73613 46.495721 
L 45.486702 46.602634 
L 44.237274 46.70851 
L 42.987846 46.813391 
L 41.738418 46.917318 
z
" clip-path="url(#p52e17fa4bd)" style="fill: #b4b4b4; fill-opacity: 0.4"/>
   </g>
   <g id="matplotlib.axis_1">
    <g id="xtick_1">
     <g id="line2d_1">
      <defs>
       <path id="m5db39ed856" d="M 0 0 
L 0 -4 
" style="stroke: #000000; stroke-width: 0.5"/>
      </defs>
      <g>
       <use xlink:href="#m5db39ed856" x="74.723316" y="150.662362" style="stroke: #000000; stroke-width: 0.5"/>
      </g>
     </g>
     <g id="text_1">
      <text style="font-size: 8px; font-family: 'Arial'; text-anchor: middle" x="74.723316" y="159.888612" transform="rotate(-0 74.723316 159.888612)">−50</text>
     </g>
    </g>
    <g id="xtick_2">
     <g id="line2d_2">
      <g>
       <use xlink:href="#m5db39ed856" x="118.703179" y="150.662362" style="stroke: #000000; stroke-width: 0.5"/>
      </g>
     </g>
     <g id="text_2">
      <text style="font-size: 8px; font-family: 'Arial'; text-anchor: middle" x="118.703179" y="159.888612" transform="rotate(-0 118.703179 159.888612)">0</text>
     </g>
    </g>
    <g id="xtick_3">
     <g id="line2d_3">
      <g>
       <use xlink:href="#m5db39ed856" x="162.683042" y="150.662362" style="stroke: #000000; stroke-width: 0.5"/>
      </g>
     </g>
     <g id="text_3">
      <text style="font-size: 8px; font-family: 'Arial'; text-anchor: middle" x="162.683042" y="159.888612" transform="rotate(-0 162.683042 159.888612)">50</text>
     </g>
    </g>
    <g id="text_4">
     <text style="font-size: 8px; font-family: 'Arial'; text-anchor: middle" x="103.585101" y="171.302362" transform="rotate(-0 103.585101 171.302362)">SC_correct_gain_minus_loss</text>
    </g>
   </g>
   <g id="matplotlib.axis_2">
    <g id="ytick_1">
     <g id="line2d_4">
      <defs>
       <path id="m830f5993b5" d="M 0 0 
L 4 0 
" style="stroke: #000000; stroke-width: 0.5"/>
      </defs>
      <g>
       <use xlink:href="#m830f5993b5" x="35.55375" y="150.662362" style="stroke: #000000; stroke-width: 0.5"/>
      </g>
     </g>
     <g id="text_5">
      <text style="font-size: 8px; font-family: 'Arial'; text-anchor: end" x="32.05375" y="153.525487" transform="rotate(-0 32.05375 153.525487)">0</text>
     </g>
    </g>
    <g id="ytick_2">
     <g id="line2d_5">
      <g>
       <use xlink:href="#m830f5993b5" x="35.55375" y="115.512553" style="stroke: #000000; stroke-width: 0.5"/>
      </g>
     </g>
     <g id="text_6">
      <text style="font-size: 8px; font-family: 'Arial'; text-anchor: end" x="32.05375" y="118.375678" transform="rotate(-0 32.05375 118.375678)">25</text>
     </g>
    </g>
    <g id="ytick_3">
     <g id="line2d_6">
      <g>
       <use xlink:href="#m830f5993b5" x="35.55375" y="80.362744" style="stroke: #000000; stroke-width: 0.5"/>
      </g>
     </g>
     <g id="text_7">
      <text style="font-size: 8px; font-family: 'Arial'; text-anchor: end" x="32.05375" y="83.225869" transform="rotate(-0 32.05375 83.225869)">50</text>
     </g>
    </g>
    <g id="ytick_4">
     <g id="line2d_7">
      <g>
       <use xlink:href="#m830f5993b5" x="35.55375" y="45.212934" style="stroke: #000000; stroke-width: 0.5"/>
      </g>
     </g>
     <g id="text_8">
      <text style="font-size: 8px; font-family: 'Arial'; text-anchor: end" x="32.05375" y="48.076059" transform="rotate(-0 32.05375 48.076059)">75</text>
     </g>
    </g>
    <g id="ytick_5">
     <g id="line2d_8">
      <g>
       <use xlink:href="#m830f5993b5" x="35.55375" y="10.063125" style="stroke: #000000; stroke-width: 0.5"/>
      </g>
     </g>
     <g id="text_9">
      <text style="font-size: 8px; font-family: 'Arial'; text-anchor: end" x="32.05375" y="12.92625" transform="rotate(-0 32.05375 12.92625)">100</text>
     </g>
    </g>
    <g id="text_10">
     <text style="font-size: 8px; font-family: 'Arial'; text-anchor: middle" x="13.02375" y="80.362744" transform="rotate(-90 13.02375 80.362744)">CFC_chose_highest_expected_value</text>
    </g>
   </g>
   <g id="line2d_9">
    <path d="M 35.55375 80.362744 
L 171.616452 80.362744 
" clip-path="url(#p52e17fa4bd)" style="fill: none; stroke-dasharray: 2.59,1.12; stroke-dashoffset: 0; stroke: #808080; stroke-width: 0.7"/>
   </g>
   <g id="line2d_10">
    <path d="M 118.703179 150.662362 
L 118.703179 10.063125 
" clip-path="url(#p52e17fa4bd)" style="fill: none; stroke-dasharray: 2.59,1.12; stroke-dashoffset: 0; stroke: #808080; stroke-width: 0.7"/>
   </g>
   <g id="line2d_11">
    <path d="M 41.738418 94.051008 
L 42.987846 93.647295 
L 44.237274 93.243581 
L 45.486702 92.839868 
L 46.73613 92.436154 
L 47.985558 92.032441 
L 49.234986 91.628727 
L 50.484414 91.225014 
L 51.733842 90.8213 
L 52.98327 90.417587 
L 54.232698 90.013873 
L 55.482125 89.610159 
L 56.731553 89.206446 
L 57.980981 88.802732 
L 59.230409 88.399019 
L 60.479837 87.995305 
L 61.729265 87.591592 
L 62.978693 87.187878 
L 64.228121 86.784165 
L 65.477549 86.380451 
L 66.726977 85.976738 
L 67.976405 85.573024 
L 69.225833 85.169311 
L 70.475261 84.765597 
L 71.724689 84.361884 
L 72.974117 83.95817 
L 74.223544 83.554457 
L 75.472972 83.150743 
L 76.7224 82.74703 
L 77.971828 82.343316 
L 79.221256 81.939603 
L 80.470684 81.535889 
L 81.720112 81.132175 
L 82.96954 80.728462 
L 84.218968 80.324748 
L 85.468396 79.921035 
L 86.717824 79.517321 
L 87.967252 79.113608 
L 89.21668 78.709894 
L 90.466108 78.306181 
L 91.715535 77.902467 
L 92.964963 77.498754 
L 94.214391 77.09504 
L 95.463819 76.691327 
L 96.713247 76.287613 
L 97.962675 75.8839 
L 99.212103 75.480186 
L 100.461531 75.076473 
L 101.710959 74.672759 
L 102.960387 74.269046 
L 104.209815 73.865332 
L 105.459243 73.461618 
L 106.708671 73.057905 
L 107.958099 72.654191 
L 109.207526 72.250478 
L 110.456954 71.846764 
L 111.706382 71.443051 
L 112.95581 71.039337 
L 114.205238 70.635624 
L 115.454666 70.23191 
L 116.704094 69.828197 
L 117.953522 69.424483 
L 119.20295 69.02077 
L 120.452378 68.617056 
L 121.701806 68.213343 
L 122.951234 67.809629 
L 124.200662 67.405916 
L 125.45009 67.002202 
L 126.699518 66.598489 
L 127.948945 66.194775 
L 129.198373 65.791061 
L 130.447801 65.387348 
L 131.697229 64.983634 
L 132.946657 64.579921 
L 134.196085 64.176207 
L 135.445513 63.772494 
L 136.694941 63.36878 
L 137.944369 62.965067 
L 139.193797 62.561353 
L 140.443225 62.15764 
L 141.692653 61.753926 
L 142.942081 61.350213 
L 144.191509 60.946499 
L 145.440936 60.542786 
L 146.690364 60.139072 
L 147.939792 59.735359 
L 149.18922 59.331645 
L 150.438648 58.927932 
L 151.688076 58.524218 
L 152.937504 58.120504 
L 154.186932 57.716791 
L 155.43636 57.313077 
L 156.685788 56.909364 
L 157.935216 56.50565 
L 159.184644 56.101937 
L 160.434072 55.698223 
L 161.6835 55.29451 
L 162.932927 54.890796 
L 164.182355 54.487083 
L 165.431783 54.083369 
" clip-path="url(#p52e17fa4bd)" style="fill: none; stroke: #505050; stroke-width: 0.7; stroke-linecap: square"/>
   </g>
   <g id="line2d_12">
    <path d="M 41.738418 69.022383 
L 42.987846 68.61867 
L 44.237274 68.214956 
L 45.486702 67.811243 
L 46.73613 67.407529 
L 47.985558 67.003816 
L 49.234986 66.600102 
L 50.484414 66.196389 
L 51.733842 65.792675 
L 52.98327 65.388961 
L 54.232698 64.985248 
L 55.482125 64.581534 
L 56.731553 64.177821 
L 57.980981 63.774107 
L 59.230409 63.370394 
L 60.479837 62.96668 
L 61.729265 62.562967 
L 62.978693 62.159253 
L 64.228121 61.75554 
L 65.477549 61.351826 
L 66.726977 60.948113 
L 67.976405 60.544399 
L 69.225833 60.140686 
L 70.475261 59.736972 
L 71.724689 59.333259 
L 72.974117 58.929545 
L 74.223544 58.525832 
L 75.472972 58.122118 
L 76.7224 57.718404 
L 77.971828 57.314691 
L 79.221256 56.910977 
L 80.470684 56.507264 
L 81.720112 56.10355 
L 82.96954 55.699837 
L 84.218968 55.296123 
L 85.468396 54.89241 
L 86.717824 54.488696 
L 87.967252 54.084983 
L 89.21668 53.681269 
L 90.466108 53.277556 
L 91.715535 52.873842 
L 92.964963 52.470129 
L 94.214391 52.066415 
L 95.463819 51.662702 
L 96.713247 51.258988 
L 97.962675 50.855275 
L 99.212103 50.451561 
L 100.461531 50.047847 
L 101.710959 49.644134 
L 102.960387 49.24042 
L 104.209815 48.836707 
L 105.459243 48.432993 
L 106.708671 48.02928 
L 107.958099 47.625566 
L 109.207526 47.221853 
L 110.456954 46.818139 
L 111.706382 46.414426 
L 112.95581 46.010712 
L 114.205238 45.606999 
L 115.454666 45.203285 
L 116.704094 44.799572 
L 117.953522 44.395858 
L 119.20295 43.992145 
L 120.452378 43.588431 
L 121.701806 43.184718 
L 122.951234 42.781004 
L 124.200662 42.37729 
L 125.45009 41.973577 
L 126.699518 41.569863 
L 127.948945 41.16615 
L 129.198373 40.762436 
L 130.447801 40.358723 
L 131.697229 39.955009 
L 132.946657 39.551296 
L 134.196085 39.147582 
L 135.445513 38.743869 
L 136.694941 38.340155 
L 137.944369 37.936442 
L 139.193797 37.532728 
L 140.443225 37.129015 
L 141.692653 36.725301 
L 142.942081 36.321588 
L 144.191509 35.917874 
L 145.440936 35.514161 
L 146.690364 35.110447 
L 147.939792 34.706734 
L 149.18922 34.30302 
L 150.438648 33.899306 
L 151.688076 33.495593 
L 152.937504 33.091879 
L 154.186932 32.688166 
L 155.43636 32.284452 
L 156.685788 31.880739 
L 157.935216 31.477025 
L 159.184644 31.073312 
L 160.434072 30.669598 
L 161.6835 30.265885 
L 162.932927 29.862171 
L 164.182355 29.458458 
L 165.431783 29.054744 
" clip-path="url(#p52e17fa4bd)" style="fill: none; stroke: #b4b4b4; stroke-width: 0.7; stroke-linecap: square"/>
   </g>
   <g id="patch_3">
    <path d="M 35.55375 150.662362 
L 35.55375 10.063125 
" style="fill: none; stroke: #000000; stroke-width: 0.5; stroke-linejoin: miter; stroke-linecap: square"/>
   </g>
   <g id="patch_4">
    <path d="M 35.55375 150.662362 
L 171.616452 150.662362 
" style="fill: none; stroke: #000000; stroke-width: 0.5; stroke-linejoin: miter; stroke-linecap: square"/>
   </g>
   <g id="PathCollection_1">
    <defs>
     <path id="C0_0_8948fcca6d" d="M 0 1.414214 
C 0.375054 1.414214 0.734797 1.265203 1 1 
C 1.265203 0.734797 1.414214 0.375054 1.414214 -0 
C 1.414214 -0.375054 1.265203 -0.734797 1 -1 
C 0.734797 -1.265203 0.375054 -1.414214 0 -1.414214 
C -0.375054 -1.414214 -0.734797 -1.265203 -1 -1 
C -1.265203 -0.734797 -1.414214 -0.375054 -1.414214 0 
C -1.414214 0.375054 -1.265203 0.734797 -1 1 
C -0.734797 1.265203 -0.375054 1.414214 0 1.414214 
z
"/>
    </defs>
    <g clip-path="url(#p52e17fa4bd)">
     <use xlink:href="#C0_0_8948fcca6d" x="121.45192" y="41.446883" style="fill-opacity: 0.38"/>
    </g>
    <g clip-path="url(#p52e17fa4bd)">
     <use xlink:href="#C0_0_8948fcca6d" x="162.683042" y="62.787839" style="fill-opacity: 0.38"/>
    </g>
    <g clip-path="url(#p52e17fa4bd)">
     <use xlink:href="#C0_0_8948fcca6d" x="159.9343" y="86.639495" style="fill-opacity: 0.38"/>
    </g>
    <g clip-path="url(#p52e17fa4bd)">
     <use xlink:href="#C0_0_8948fcca6d" x="110.456954" y="18.850577" style="fill-opacity: 0.38"/>
    </g>
    <g clip-path="url(#p52e17fa4bd)">
     <use xlink:href="#C0_0_8948fcca6d" x="162.683042" y="20.105928" style="fill-opacity: 0.38"/>
    </g>
    <g clip-path="url(#p52e17fa4bd)">
     <use xlink:href="#C0_0_8948fcca6d" x="96.713247" y="66.55389" style="fill-opacity: 0.38"/>
    </g>
    <g clip-path="url(#p52e17fa4bd)">
     <use xlink:href="#C0_0_8948fcca6d" x="91.215764" y="81.618094" style="fill-opacity: 0.38"/>
    </g>
    <g clip-path="url(#p52e17fa4bd)">
     <use xlink:href="#C0_0_8948fcca6d" x="47.235901" y="84.128794" style="fill-opacity: 0.38"/>
    </g>
    <g clip-path="url(#p52e17fa4bd)">
     <use xlink:href="#C0_0_8948fcca6d" x="115.954437" y="52.745036" style="fill-opacity: 0.38"/>
    </g>
    <g clip-path="url(#p52e17fa4bd)">
     <use xlink:href="#C0_0_8948fcca6d" x="118.703179" y="32.659431" style="fill-opacity: 0.38"/>
    </g>
    <g clip-path="url(#p52e17fa4bd)">
     <use xlink:href="#C0_0_8948fcca6d" x="113.205696" y="75.341342" style="fill-opacity: 0.38"/>
    </g>
    <g clip-path="url(#p52e17fa4bd)">
     <use xlink:href="#C0_0_8948fcca6d" x="137.944369" y="105.46975" style="fill-opacity: 0.38"/>
    </g>
    <g clip-path="url(#p52e17fa4bd)">
     <use xlink:href="#C0_0_8948fcca6d" x="151.688076" y="13.829176" style="fill-opacity: 0.38"/>
    </g>
    <g clip-path="url(#p52e17fa4bd)">
     <use xlink:href="#C0_0_8948fcca6d" x="137.944369" y="11.318475" style="fill-opacity: 0.38"/>
    </g>
    <g clip-path="url(#p52e17fa4bd)">
     <use xlink:href="#C0_0_8948fcca6d" x="140.69311" y="89.150196" style="fill-opacity: 0.38"/>
    </g>
    <g clip-path="url(#p52e17fa4bd)">
     <use xlink:href="#C0_0_8948fcca6d" x="124.200662" y="69.064591" style="fill-opacity: 0.38"/>
    </g>
    <g clip-path="url(#p52e17fa4bd)">
     <use xlink:href="#C0_0_8948fcca6d" x="110.456954" y="116.767903" style="fill-opacity: 0.38"/>
    </g>
    <g clip-path="url(#p52e17fa4bd)">
     <use xlink:href="#C0_0_8948fcca6d" x="126.949403" y="138.108859" style="fill-opacity: 0.38"/>
    </g>
    <g clip-path="url(#p52e17fa4bd)">
     <use xlink:href="#C0_0_8948fcca6d" x="124.200662" y="10.063125" style="fill-opacity: 0.38"/>
    </g>
    <g clip-path="url(#p52e17fa4bd)">
     <use xlink:href="#C0_0_8948fcca6d" x="118.703179" y="145.640961" style="fill-opacity: 0.38"/>
    </g>
    <g clip-path="url(#p52e17fa4bd)">
     <use xlink:href="#C0_0_8948fcca6d" x="121.45192" y="35.170132" style="fill-opacity: 0.38"/>
    </g>
    <g clip-path="url(#p52e17fa4bd)">
     <use xlink:href="#C0_0_8948fcca6d" x="82.96954" y="89.150196" style="fill-opacity: 0.38"/>
    </g>
    <g clip-path="url(#p52e17fa4bd)">
     <use xlink:href="#C0_0_8948fcca6d" x="132.446886" y="75.341342" style="fill-opacity: 0.38"/>
    </g>
    <g clip-path="url(#p52e17fa4bd)">
     <use xlink:href="#C0_0_8948fcca6d" x="118.703179" y="31.404081" style="fill-opacity: 0.38"/>
    </g>
    <g clip-path="url(#p52e17fa4bd)">
     <use xlink:href="#C0_0_8948fcca6d" x="118.703179" y="145.640961" style="fill-opacity: 0.38"/>
    </g>
    <g clip-path="url(#p52e17fa4bd)">
     <use xlink:href="#C0_0_8948fcca6d" x="140.69311" y="60.277138" style="fill-opacity: 0.38"/>
    </g>
    <g clip-path="url(#p52e17fa4bd)">
     <use xlink:href="#C0_0_8948fcca6d" x="151.688076" y="10.063125" style="fill-opacity: 0.38"/>
    </g>
    <g clip-path="url(#p52e17fa4bd)">
     <use xlink:href="#C0_0_8948fcca6d" x="96.713247" y="110.491151" style="fill-opacity: 0.38"/>
    </g>
    <g clip-path="url(#p52e17fa4bd)">
     <use xlink:href="#C0_0_8948fcca6d" x="110.456954" y="120.533954" style="fill-opacity: 0.38"/>
    </g>
    <g clip-path="url(#p52e17fa4bd)">
     <use xlink:href="#C0_0_8948fcca6d" x="91.215764" y="71.575291" style="fill-opacity: 0.38"/>
    </g>
    <g clip-path="url(#p52e17fa4bd)">
     <use xlink:href="#C0_0_8948fcca6d" x="77.472057" y="32.659431" style="fill-opacity: 0.38"/>
    </g>
    <g clip-path="url(#p52e17fa4bd)">
     <use xlink:href="#C0_0_8948fcca6d" x="104.959472" y="76.596693" style="fill-opacity: 0.38"/>
    </g>
    <g clip-path="url(#p52e17fa4bd)">
     <use xlink:href="#C0_0_8948fcca6d" x="135.195627" y="28.89338" style="fill-opacity: 0.38"/>
    </g>
    <g clip-path="url(#p52e17fa4bd)">
     <use xlink:href="#C0_0_8948fcca6d" x="124.200662" y="18.850577" style="fill-opacity: 0.38"/>
    </g>
    <g clip-path="url(#p52e17fa4bd)">
     <use xlink:href="#C0_0_8948fcca6d" x="107.708213" y="148.151661" style="fill-opacity: 0.38"/>
    </g>
    <g clip-path="url(#p52e17fa4bd)">
     <use xlink:href="#C0_0_8948fcca6d" x="140.69311" y="12.573826" style="fill-opacity: 0.38"/>
    </g>
    <g clip-path="url(#p52e17fa4bd)">
     <use xlink:href="#C0_0_8948fcca6d" x="104.959472" y="96.682298" style="fill-opacity: 0.38"/>
    </g>
    <g clip-path="url(#p52e17fa4bd)">
     <use xlink:href="#C0_0_8948fcca6d" x="107.708213" y="48.978985" style="fill-opacity: 0.38"/>
    </g>
    <g clip-path="url(#p52e17fa4bd)">
     <use xlink:href="#C0_0_8948fcca6d" x="113.205696" y="38.936183" style="fill-opacity: 0.38"/>
    </g>
    <g clip-path="url(#p52e17fa4bd)">
     <use xlink:href="#C0_0_8948fcca6d" x="135.195627" y="18.850577" style="fill-opacity: 0.38"/>
    </g>
    <g clip-path="url(#p52e17fa4bd)">
     <use xlink:href="#C0_0_8948fcca6d" x="115.954437" y="99.192998" style="fill-opacity: 0.38"/>
    </g>
    <g clip-path="url(#p52e17fa4bd)">
     <use xlink:href="#C0_0_8948fcca6d" x="93.964506" y="67.80924" style="fill-opacity: 0.38"/>
    </g>
    <g clip-path="url(#p52e17fa4bd)">
     <use xlink:href="#C0_0_8948fcca6d" x="154.436818" y="119.278604" style="fill-opacity: 0.38"/>
    </g>
    <g clip-path="url(#p52e17fa4bd)">
     <use xlink:href="#C0_0_8948fcca6d" x="121.45192" y="60.277138" style="fill-opacity: 0.38"/>
    </g>
    <g clip-path="url(#p52e17fa4bd)">
     <use xlink:href="#C0_0_8948fcca6d" x="110.456954" y="51.489686" style="fill-opacity: 0.38"/>
    </g>
    <g clip-path="url(#p52e17fa4bd)">
     <use xlink:href="#C0_0_8948fcca6d" x="115.954437" y="46.468285" style="fill-opacity: 0.38"/>
    </g>
    <g clip-path="url(#p52e17fa4bd)">
     <use xlink:href="#C0_0_8948fcca6d" x="129.698145" y="145.640961" style="fill-opacity: 0.38"/>
    </g>
    <g clip-path="url(#p52e17fa4bd)">
     <use xlink:href="#C0_0_8948fcca6d" x="140.69311" y="85.384145" style="fill-opacity: 0.38"/>
    </g>
    <g clip-path="url(#p52e17fa4bd)">
     <use xlink:href="#C0_0_8948fcca6d" x="151.688076" y="86.639495" style="fill-opacity: 0.38"/>
    </g>
   </g>
   <g id="PathCollection_2">
    <defs>
     <path id="C1_0_14704f6eb5" d="M 0 1.414214 
C 0.375054 1.414214 0.734797 1.265203 1 1 
C 1.265203 0.734797 1.414214 0.375054 1.414214 -0 
C 1.414214 -0.375054 1.265203 -0.734797 1 -1 
C 0.734797 -1.265203 0.375054 -1.414214 0 -1.414214 
C -0.375054 -1.414214 -0.734797 -1.265203 -1 -1 
C -1.265203 -0.734797 -1.414214 -0.375054 -1.414214 0 
C -1.414214 0.375054 -1.265203 0.734797 -1 1 
C -0.734797 1.265203 -0.375054 1.414214 0 1.414214 
z
"/>
    </defs>
    <g clip-path="url(#p52e17fa4bd)">
     <use xlink:href="#C1_0_14704f6eb5" x="115.954437" y="59.021788" style="fill: #8c8c8c; fill-opacity: 0.38"/>
    </g>
    <g clip-path="url(#p52e17fa4bd)">
     <use xlink:href="#C1_0_14704f6eb5" x="93.964506" y="17.595227" style="fill: #8c8c8c; fill-opacity: 0.38"/>
    </g>
    <g clip-path="url(#p52e17fa4bd)">
     <use xlink:href="#C1_0_14704f6eb5" x="66.477091" y="70.319941" style="fill: #8c8c8c; fill-opacity: 0.38"/>
    </g>
    <g clip-path="url(#p52e17fa4bd)">
     <use xlink:href="#C1_0_14704f6eb5" x="137.944369" y="11.318475" style="fill: #8c8c8c; fill-opacity: 0.38"/>
    </g>
    <g clip-path="url(#p52e17fa4bd)">
     <use xlink:href="#C1_0_14704f6eb5" x="126.949403" y="56.511087" style="fill: #8c8c8c; fill-opacity: 0.38"/>
    </g>
    <g clip-path="url(#p52e17fa4bd)">
     <use xlink:href="#C1_0_14704f6eb5" x="99.461989" y="60.277138" style="fill: #8c8c8c; fill-opacity: 0.38"/>
    </g>
    <g clip-path="url(#p52e17fa4bd)">
     <use xlink:href="#C1_0_14704f6eb5" x="148.939335" y="30.14873" style="fill: #8c8c8c; fill-opacity: 0.38"/>
    </g>
    <g clip-path="url(#p52e17fa4bd)">
     <use xlink:href="#C1_0_14704f6eb5" x="110.456954" y="56.511087" style="fill: #8c8c8c; fill-opacity: 0.38"/>
    </g>
    <g clip-path="url(#p52e17fa4bd)">
     <use xlink:href="#C1_0_14704f6eb5" x="118.703179" y="10.063125" style="fill: #8c8c8c; fill-opacity: 0.38"/>
    </g>
    <g clip-path="url(#p52e17fa4bd)">
     <use xlink:href="#C1_0_14704f6eb5" x="137.944369" y="35.170132" style="fill: #8c8c8c; fill-opacity: 0.38"/>
    </g>
    <g clip-path="url(#p52e17fa4bd)">
     <use xlink:href="#C1_0_14704f6eb5" x="96.713247" y="40.191533" style="fill: #8c8c8c; fill-opacity: 0.38"/>
    </g>
    <g clip-path="url(#p52e17fa4bd)">
     <use xlink:href="#C1_0_14704f6eb5" x="115.954437" y="12.573826" style="fill: #8c8c8c; fill-opacity: 0.38"/>
    </g>
    <g clip-path="url(#p52e17fa4bd)">
     <use xlink:href="#C1_0_14704f6eb5" x="110.456954" y="50.234336" style="fill: #8c8c8c; fill-opacity: 0.38"/>
    </g>
    <g clip-path="url(#p52e17fa4bd)">
     <use xlink:href="#C1_0_14704f6eb5" x="118.703179" y="12.573826" style="fill: #8c8c8c; fill-opacity: 0.38"/>
    </g>
    <g clip-path="url(#p52e17fa4bd)">
     <use xlink:href="#C1_0_14704f6eb5" x="110.456954" y="91.660896" style="fill: #8c8c8c; fill-opacity: 0.38"/>
    </g>
    <g clip-path="url(#p52e17fa4bd)">
     <use xlink:href="#C1_0_14704f6eb5" x="126.949403" y="33.914781" style="fill: #8c8c8c; fill-opacity: 0.38"/>
    </g>
    <g clip-path="url(#p52e17fa4bd)">
     <use xlink:href="#C1_0_14704f6eb5" x="63.72835" y="61.532489" style="fill: #8c8c8c; fill-opacity: 0.38"/>
    </g>
    <g clip-path="url(#p52e17fa4bd)">
     <use xlink:href="#C1_0_14704f6eb5" x="77.472057" y="55.255737" style="fill: #8c8c8c; fill-opacity: 0.38"/>
    </g>
    <g clip-path="url(#p52e17fa4bd)">
     <use xlink:href="#C1_0_14704f6eb5" x="143.441852" y="12.573826" style="fill: #8c8c8c; fill-opacity: 0.38"/>
    </g>
    <g clip-path="url(#p52e17fa4bd)">
     <use xlink:href="#C1_0_14704f6eb5" x="71.974574" y="84.128794" style="fill: #8c8c8c; fill-opacity: 0.38"/>
    </g>
    <g clip-path="url(#p52e17fa4bd)">
     <use xlink:href="#C1_0_14704f6eb5" x="132.446886" y="46.468285" style="fill: #8c8c8c; fill-opacity: 0.38"/>
    </g>
    <g clip-path="url(#p52e17fa4bd)">
     <use xlink:href="#C1_0_14704f6eb5" x="132.446886" y="33.914781" style="fill: #8c8c8c; fill-opacity: 0.38"/>
    </g>
    <g clip-path="url(#p52e17fa4bd)">
     <use xlink:href="#C1_0_14704f6eb5" x="41.738418" y="125.555355" style="fill: #8c8c8c; fill-opacity: 0.38"/>
    </g>
    <g clip-path="url(#p52e17fa4bd)">
     <use xlink:href="#C1_0_14704f6eb5" x="148.939335" y="52.745036" style="fill: #8c8c8c; fill-opacity: 0.38"/>
    </g>
    <g clip-path="url(#p52e17fa4bd)">
     <use xlink:href="#C1_0_14704f6eb5" x="110.456954" y="84.128794" style="fill: #8c8c8c; fill-opacity: 0.38"/>
    </g>
    <g clip-path="url(#p52e17fa4bd)">
     <use xlink:href="#C1_0_14704f6eb5" x="129.698145" y="42.702234" style="fill: #8c8c8c; fill-opacity: 0.38"/>
    </g>
    <g clip-path="url(#p52e17fa4bd)">
     <use xlink:href="#C1_0_14704f6eb5" x="110.456954" y="50.234336" style="fill: #8c8c8c; fill-opacity: 0.38"/>
    </g>
    <g clip-path="url(#p52e17fa4bd)">
     <use xlink:href="#C1_0_14704f6eb5" x="99.461989" y="57.766438" style="fill: #8c8c8c; fill-opacity: 0.38"/>
    </g>
    <g clip-path="url(#p52e17fa4bd)">
     <use xlink:href="#C1_0_14704f6eb5" x="146.190593" y="21.361278" style="fill: #8c8c8c; fill-opacity: 0.38"/>
    </g>
    <g clip-path="url(#p52e17fa4bd)">
     <use xlink:href="#C1_0_14704f6eb5" x="113.205696" y="64.043189" style="fill: #8c8c8c; fill-opacity: 0.38"/>
    </g>
    <g clip-path="url(#p52e17fa4bd)">
     <use xlink:href="#C1_0_14704f6eb5" x="110.456954" y="43.957584" style="fill: #8c8c8c; fill-opacity: 0.38"/>
    </g>
    <g clip-path="url(#p52e17fa4bd)">
     <use xlink:href="#C1_0_14704f6eb5" x="118.703179" y="10.063125" style="fill: #8c8c8c; fill-opacity: 0.38"/>
    </g>
    <g clip-path="url(#p52e17fa4bd)">
     <use xlink:href="#C1_0_14704f6eb5" x="121.45192" y="40.191533" style="fill: #8c8c8c; fill-opacity: 0.38"/>
    </g>
    <g clip-path="url(#p52e17fa4bd)">
     <use xlink:href="#C1_0_14704f6eb5" x="159.9343" y="99.192998" style="fill: #8c8c8c; fill-opacity: 0.38"/>
    </g>
    <g clip-path="url(#p52e17fa4bd)">
     <use xlink:href="#C1_0_14704f6eb5" x="162.683042" y="77.852043" style="fill: #8c8c8c; fill-opacity: 0.38"/>
    </g>
    <g clip-path="url(#p52e17fa4bd)">
     <use xlink:href="#C1_0_14704f6eb5" x="118.703179" y="11.318475" style="fill: #8c8c8c; fill-opacity: 0.38"/>
    </g>
    <g clip-path="url(#p52e17fa4bd)">
     <use xlink:href="#C1_0_14704f6eb5" x="77.472057" y="65.29854" style="fill: #8c8c8c; fill-opacity: 0.38"/>
    </g>
    <g clip-path="url(#p52e17fa4bd)">
     <use xlink:href="#C1_0_14704f6eb5" x="140.69311" y="36.425482" style="fill: #8c8c8c; fill-opacity: 0.38"/>
    </g>
    <g clip-path="url(#p52e17fa4bd)">
     <use xlink:href="#C1_0_14704f6eb5" x="115.954437" y="26.382679" style="fill: #8c8c8c; fill-opacity: 0.38"/>
    </g>
    <g clip-path="url(#p52e17fa4bd)">
     <use xlink:href="#C1_0_14704f6eb5" x="126.949403" y="15.084526" style="fill: #8c8c8c; fill-opacity: 0.38"/>
    </g>
    <g clip-path="url(#p52e17fa4bd)">
     <use xlink:href="#C1_0_14704f6eb5" x="165.431783" y="10.063125" style="fill: #8c8c8c; fill-opacity: 0.38"/>
    </g>
    <g clip-path="url(#p52e17fa4bd)">
     <use xlink:href="#C1_0_14704f6eb5" x="91.215764" y="72.830642" style="fill: #8c8c8c; fill-opacity: 0.38"/>
    </g>
    <g clip-path="url(#p52e17fa4bd)">
     <use xlink:href="#C1_0_14704f6eb5" x="91.215764" y="43.957584" style="fill: #8c8c8c; fill-opacity: 0.38"/>
    </g>
    <g clip-path="url(#p52e17fa4bd)">
     <use xlink:href="#C1_0_14704f6eb5" x="154.436818" y="45.212934" style="fill: #8c8c8c; fill-opacity: 0.38"/>
    </g>
    <g clip-path="url(#p52e17fa4bd)">
     <use xlink:href="#C1_0_14704f6eb5" x="140.69311" y="50.234336" style="fill: #8c8c8c; fill-opacity: 0.38"/>
    </g>
    <g clip-path="url(#p52e17fa4bd)">
     <use xlink:href="#C1_0_14704f6eb5" x="135.195627" y="10.063125" style="fill: #8c8c8c; fill-opacity: 0.38"/>
    </g>
    <g clip-path="url(#p52e17fa4bd)">
     <use xlink:href="#C1_0_14704f6eb5" x="146.190593" y="67.80924" style="fill: #8c8c8c; fill-opacity: 0.38"/>
    </g>
    <g clip-path="url(#p52e17fa4bd)">
     <use xlink:href="#C1_0_14704f6eb5" x="113.205696" y="10.063125" style="fill: #8c8c8c; fill-opacity: 0.38"/>
    </g>
    <g clip-path="url(#p52e17fa4bd)">
     <use xlink:href="#C1_0_14704f6eb5" x="77.472057" y="16.339877" style="fill: #8c8c8c; fill-opacity: 0.38"/>
    </g>
   </g>
  </g>
 </g>
 <defs>
  <clipPath id="p52e17fa4bd">
   <rect x="35.55375" y="10.063125" width="136.062702" height="140.599237"/>
  </clipPath>
 </defs>
</svg>
