<?xml version="1.0" encoding="utf-8" standalone="no"?>
<!DOCTYPE svg PUBLIC "-//W3C//DTD SVG 1.1//EN"
  "http://www.w3.org/Graphics/SVG/1.1/DTD/svg11.dtd">
<svg xmlns:xlink="http://www.w3.org/1999/xlink" width="76.180645pt" height="76.675325pt" viewBox="0 0 76.180645 76.675325" xmlns="http://www.w3.org/2000/svg" version="1.1">
 <metadata>
  <rdf:RDF xmlns:dc="http://purl.org/dc/elements/1.1/" xmlns:cc="http://creativecommons.org/ns#" xmlns:rdf="http://www.w3.org/1999/02/22-rdf-syntax-ns#">
   <cc:Work>
    <dc:type rdf:resource="http://purl.org/dc/dcmitype/StillImage"/>
    <dc:date>2026-04-02T15:51:17.657518</dc:date>
    <dc:format>image/svg+xml</dc:format>
    <dc:creator>
     <cc:Agent>
      <dc:title>Matplotlib v3.10.8, https://matplotlib.org/</dc:title>
     </cc:Agent>
    </dc:creator>
   </cc:Work>
  </rdf:RDF>
 </metadata>
 <defs>
  <style type="text/css">*{stroke-linejoin: round; stroke-linecap: butt}</style>
 </defs>
 <g id="figure_1">
  <g id="patch_1">
   <path d="M 0 76.675325 
L 76.180645 76.675325 
L 76.180645 0 
L 0 0 
z
" style="fill: #ffffff"/>
  </g>
  <g id="axes_1">
   <g id="patch_2">
    <path d="M 38.090331 13.303424 
C 34.409332 13.303424 30.773237 14.115297 27.44184 15.681035 
C 24.110442 17.246774 21.165019 19.528179 18.816016 22.362246 
C 16.467014 25.196313 14.771742 28.513899 13.851326 32.077968 
C 12.930909 35.642036 12.807803 39.365632 13.490804 42.982711 
C 14.173805 46.59979 15.646249 50.022104 17.802933 53.005133 
C 19.959616 55.988163 22.747922 58.45913 25.968628 60.241487 
C 29.189334 62.023845 32.763865 63.074108 36.436826 63.317237 
C 40.109786 63.560366 43.791565 62.990429 47.219105 61.648148 
L 38.090331 38.337664 
z
" style="fill: #dce8f4"/>
   </g>
   <g id="patch_3">
    <path d="M 47.219106 61.648148 
C 51.290166 60.053852 54.87342 57.420546 57.61076 54.0114 
C 60.348099 50.602255 62.145186 46.534761 62.822418 42.215426 
C 63.499648 37.896091 63.033685 33.473761 61.471095 29.390427 
C 59.908505 25.307094 57.303141 21.703469 53.915384 18.939704 
L 38.090331 38.337664 
z
" style="fill: #fbebd9"/>
   </g>
   <g id="patch_4">
    <path d="M 53.915384 18.939704 
C 51.697642 17.130447 49.185962 15.714845 46.489737 14.754552 
C 43.793512 13.79426 40.952465 13.303424 38.090334 13.303424 
L 38.090331 38.337664 
z
" style="fill: #ddd2c6"/>
   </g>
   <g id="matplotlib.axis_1"/>
   <g id="matplotlib.axis_2"/>
   <g id="text_1">
    <text style="font-size: 7px; font-family: 'Arial'; text-anchor: middle" x="23.330615" y="42.934303" transform="rotate(-0 23.330615 42.934303)">55.9%</text>
   </g>
   <g id="text_2">
    <text style="font-size: 7px; font-family: 'Arial'; text-anchor: middle" x="52.929583" y="42.473931" transform="rotate(-0 52.929583 42.473931)">33.2%</text>
   </g>
   <g id="text_3">
    <text style="font-size: 7px; font-family: 'Arial'; text-anchor: middle" x="43.129974" y="25.997406" transform="rotate(-0 43.129974 25.997406)">10.9%</text>
   </g>
  </g>
 </g>
</svg>
