<?xml version="1.0" encoding="utf-8" standalone="no"?>
<!DOCTYPE svg PUBLIC "-//W3C//DTD SVG 1.1//EN"
  "http://www.w3.org/Graphics/SVG/1.1/DTD/svg11.dtd">
<svg xmlns:xlink="http://www.w3.org/1999/xlink" width="178.816452pt" height="180.088612pt" viewBox="0 0 178.816452 180.088612" xmlns="http://www.w3.org/2000/svg" version="1.1">
 <metadata>
  <rdf:RDF xmlns:dc="http://purl.org/dc/elements/1.1/" xmlns:cc="http://creativecommons.org/ns#" xmlns:rdf="http://www.w3.org/1999/02/22-rdf-syntax-ns#">
   <cc:Work>
    <dc:type rdf:resource="http://purl.org/dc/dcmitype/StillImage"/>
    <dc:date>2026-03-04T23:12:11.387094</dc:date>
    <dc:format>image/svg+xml</dc:format>
    <dc:creator>
     <cc:Agent>
      <dc:title>Matplotlib v3.10.8, https://matplotlib.org/</dc:title>
     </cc:Agent>
    </dc:creator>
   </cc:Work>
  </rdf:RDF>
 </metadata>
 <defs>
  <style type="text/css">*{stroke-linejoin: round; stroke-linecap: butt}</style>
 </defs>
 <g id="figure_1">
  <g id="patch_1">
   <path d="M 0 180.088612 
L 178.816452 180.088612 
L 178.816452 0 
L 0 0 
z
" style="fill: #ffffff"/>
  </g>
  <g id="axes_1">
   <g id="patch_2">
    <path d="M 35.55375 150.662362 
L 171.616452 150.662362 
L 171.616452 10.063125 
L 35.55375 10.063125 
z
" style="fill: #ffffff"/>
   </g>
   <g id="FillBetweenPolyCollection_1">
    <path d="M 113.739034 80.362744 
L 35.55375 80.362744 
L 35.55375 10.063125 
L 113.739034 10.063125 
L 113.739034 10.063125 
L 113.739034 80.362744 
z
" clip-path="url(#p7e3e7ee856)" style="fill: #fbebd9"/>
   </g>
   <g id="FillBetweenPolyCollection_2">
    <path d="M 171.616452 80.362744 
L 113.739034 80.362744 
L 113.739034 10.063125 
L 171.616452 10.063125 
L 171.616452 10.063125 
L 171.616452 80.362744 
z
" clip-path="url(#p7e3e7ee856)" style="fill: #dce8f4"/>
   </g>
   <g id="FillBetweenPolyCollection_3">
    <path d="M 113.739034 150.662362 
L 35.55375 150.662362 
L 35.55375 80.362744 
L 113.739034 80.362744 
L 113.739034 80.362744 
L 113.739034 150.662362 
z
" clip-path="url(#p7e3e7ee856)" style="fill: #dce8f4"/>
   </g>
   <g id="FillBetweenPolyCollection_4">
    <path d="M 171.616452 150.662362 
L 113.739034 150.662362 
L 113.739034 80.362744 
L 171.616452 80.362744 
L 171.616452 80.362744 
L 171.616452 150.662362 
z
" clip-path="url(#p7e3e7ee856)" style="fill: #ddd2c6"/>
   </g>
   <g id="FillBetweenPolyCollection_5">
    <path d="M 41.738418 57.997099 
L 41.738418 109.219112 
L 42.987846 108.567038 
L 44.237274 107.915978 
L 45.486702 107.265979 
L 46.73613 106.617092 
L 47.985558 105.969372 
L 49.234986 105.322874 
L 50.484414 104.677661 
L 51.733842 104.033796 
L 52.98327 103.39135 
L 54.232698 102.750394 
L 55.482125 102.111008 
L 56.731553 101.473274 
L 57.980981 100.837283 
L 59.230409 100.203128 
L 60.479837 99.570912 
L 61.729265 98.940743 
L 62.978693 98.312737 
L 64.228121 97.687019 
L 65.477549 97.063722 
L 66.726977 96.442989 
L 67.976405 95.824974 
L 69.225833 95.209839 
L 70.475261 94.597762 
L 71.724689 93.988932 
L 72.974117 93.383552 
L 74.223544 92.78184 
L 75.472972 92.18403 
L 76.7224 91.590374 
L 77.971828 91.001141 
L 79.221256 90.416622 
L 80.470684 89.837127 
L 81.720112 89.262989 
L 82.96954 88.694566 
L 84.218968 88.132239 
L 85.468396 87.576414 
L 86.717824 87.027528 
L 87.967252 86.486043 
L 89.21668 85.952448 
L 90.466108 85.427262 
L 91.715535 84.911033 
L 92.964963 84.404334 
L 94.214391 83.907763 
L 95.463819 83.421944 
L 96.713247 82.947515 
L 97.962675 82.485133 
L 99.212103 82.035462 
L 100.461531 81.599169 
L 101.710959 81.176912 
L 102.960387 80.769337 
L 104.209815 80.37706 
L 105.459243 80.000662 
L 106.708671 79.640674 
L 107.958099 79.297568 
L 109.207526 78.971744 
L 110.456954 78.663521 
L 111.706382 78.373127 
L 112.95581 78.100697 
L 114.205238 77.846265 
L 115.454666 77.609766 
L 116.704094 77.391035 
L 117.953522 77.189816 
L 119.20295 77.005764 
L 120.452378 76.838455 
L 121.701806 76.687398 
L 122.951234 76.552046 
L 124.200662 76.431805 
L 125.45009 76.326048 
L 126.699518 76.234126 
L 127.948945 76.155376 
L 129.198373 76.089132 
L 130.447801 76.03473 
L 131.697229 75.991521 
L 132.946657 75.958867 
L 134.196085 75.936155 
L 135.445513 75.922793 
L 136.694941 75.918216 
L 137.944369 75.921885 
L 139.193797 75.933291 
L 140.443225 75.951951 
L 141.692653 75.977412 
L 142.942081 76.009248 
L 144.191509 76.047059 
L 145.440936 76.090471 
L 146.690364 76.139136 
L 147.939792 76.192726 
L 149.18922 76.250939 
L 150.438648 76.31349 
L 151.688076 76.380114 
L 152.937504 76.450567 
L 154.186932 76.524619 
L 155.43636 76.602057 
L 156.685788 76.682681 
L 157.935216 76.766307 
L 159.184644 76.852763 
L 160.434072 76.941888 
L 161.6835 77.033531 
L 162.932927 77.127553 
L 164.182355 77.223823 
L 165.431783 77.322221 
L 165.431783 37.18483 
L 165.431783 37.18483 
L 164.182355 37.815643 
L 162.932927 38.44433 
L 161.6835 39.070767 
L 160.434072 39.694826 
L 159.184644 40.316367 
L 157.935216 40.935238 
L 156.685788 41.55128 
L 155.43636 42.16432 
L 154.186932 42.774174 
L 152.937504 43.380641 
L 151.688076 43.98351 
L 150.438648 44.58255 
L 149.18922 45.177517 
L 147.939792 45.768145 
L 146.690364 46.354151 
L 145.440936 46.935232 
L 144.191509 47.51106 
L 142.942081 48.081287 
L 141.692653 48.645538 
L 140.443225 49.203415 
L 139.193797 49.754491 
L 137.944369 50.298312 
L 136.694941 50.834397 
L 135.445513 51.362236 
L 134.196085 51.881289 
L 132.946657 52.390993 
L 131.697229 52.890756 
L 130.447801 53.379962 
L 129.198373 53.857976 
L 127.948945 54.324147 
L 126.699518 54.777813 
L 125.45009 55.218307 
L 124.200662 55.644966 
L 122.951234 56.057141 
L 121.701806 56.454204 
L 120.452378 56.835563 
L 119.20295 57.20067 
L 117.953522 57.549033 
L 116.704094 57.88023 
L 115.454666 58.193915 
L 114.205238 58.489832 
L 112.95581 58.767816 
L 111.706382 59.027801 
L 110.456954 59.269823 
L 109.207526 59.494015 
L 107.958099 59.700607 
L 106.708671 59.889917 
L 105.459243 60.062345 
L 104.209815 60.218363 
L 102.960387 60.358502 
L 101.710959 60.483342 
L 100.461531 60.593501 
L 99.212103 60.689623 
L 97.962675 60.772368 
L 96.713247 60.842402 
L 95.463819 60.90039 
L 94.214391 60.946985 
L 92.964963 60.982831 
L 91.715535 61.008547 
L 90.466108 61.024734 
L 89.21668 61.031964 
L 87.967252 61.030785 
L 86.717824 61.021715 
L 85.468396 61.005245 
L 84.218968 60.981836 
L 82.96954 60.951925 
L 81.720112 60.915917 
L 80.470684 60.874195 
L 79.221256 60.827116 
L 77.971828 60.775012 
L 76.7224 60.718196 
L 75.472972 60.656955 
L 74.223544 60.591561 
L 72.974117 60.522264 
L 71.724689 60.4493 
L 70.475261 60.372886 
L 69.225833 60.293225 
L 67.976405 60.210506 
L 66.726977 60.124906 
L 65.477549 60.036589 
L 64.228121 59.945708 
L 62.978693 59.852406 
L 61.729265 59.756816 
L 60.479837 59.659063 
L 59.230409 59.559262 
L 57.980981 59.457523 
L 56.731553 59.353947 
L 55.482125 59.24863 
L 54.232698 59.141659 
L 52.98327 59.033119 
L 51.733842 58.923088 
L 50.484414 58.811639 
L 49.234986 58.698842 
L 47.985558 58.58476 
L 46.73613 58.469455 
L 45.486702 58.352984 
L 44.237274 58.235401 
L 42.987846 58.116757 
L 41.738418 57.997099 
z
" clip-path="url(#p7e3e7ee856)" style="fill: #505050; fill-opacity: 0.4"/>
   </g>
   <g id="FillBetweenPolyCollection_6">
    <path d="M 41.738418 34.567896 
L 41.738418 83.883166 
L 42.987846 83.23369 
L 44.237274 82.585351 
L 45.486702 81.938204 
L 46.73613 81.29231 
L 47.985558 80.647729 
L 49.234986 80.00453 
L 50.484414 79.362783 
L 51.733842 78.722564 
L 52.98327 78.083953 
L 54.232698 77.447036 
L 55.482125 76.811906 
L 56.731553 76.17866 
L 57.980981 75.547403 
L 59.230409 74.918248 
L 60.479837 74.291314 
L 61.729265 73.666731 
L 62.978693 73.044635 
L 64.228121 72.425175 
L 65.477549 71.808508 
L 66.726977 71.194805 
L 67.976405 70.584248 
L 69.225833 69.977032 
L 70.475261 69.373368 
L 71.724689 68.773481 
L 72.974117 68.177614 
L 74.223544 67.586027 
L 75.472972 66.998998 
L 76.7224 66.416829 
L 77.971828 65.839838 
L 79.221256 65.268372 
L 80.470684 64.702799 
L 81.720112 64.143512 
L 82.96954 63.590931 
L 84.218968 63.045505 
L 85.468396 62.507709 
L 86.717824 61.978047 
L 87.967252 61.457051 
L 89.21668 60.945281 
L 90.466108 60.443322 
L 91.715535 59.951786 
L 92.964963 59.471302 
L 94.214391 59.00252 
L 95.463819 58.5461 
L 96.713247 58.102708 
L 97.962675 57.673009 
L 99.212103 57.257655 
L 100.461531 56.85728 
L 101.710959 56.472484 
L 102.960387 56.103828 
L 104.209815 55.751814 
L 105.459243 55.416882 
L 106.708671 55.099394 
L 107.958099 54.799626 
L 109.207526 54.517765 
L 110.456954 54.253896 
L 111.706382 54.008006 
L 112.95581 53.779984 
L 114.205238 53.569619 
L 115.454666 53.376612 
L 116.704094 53.200579 
L 117.953522 53.041064 
L 119.20295 52.897547 
L 120.452378 52.769457 
L 121.701806 52.656185 
L 122.951234 52.557089 
L 124.200662 52.471515 
L 125.45009 52.398795 
L 126.699518 52.338264 
L 127.948945 52.289266 
L 129.198373 52.251154 
L 130.447801 52.223304 
L 131.697229 52.205111 
L 132.946657 52.195996 
L 134.196085 52.195405 
L 135.445513 52.202815 
L 136.694941 52.217729 
L 137.944369 52.239678 
L 139.193797 52.268223 
L 140.443225 52.302948 
L 141.692653 52.343468 
L 142.942081 52.389421 
L 144.191509 52.440467 
L 145.440936 52.496292 
L 146.690364 52.556602 
L 147.939792 52.621122 
L 149.18922 52.689597 
L 150.438648 52.761789 
L 151.688076 52.837477 
L 152.937504 52.916454 
L 154.186932 52.998528 
L 155.43636 53.083521 
L 156.685788 53.171265 
L 157.935216 53.261605 
L 159.184644 53.354397 
L 160.434072 53.449504 
L 161.6835 53.5468 
L 162.932927 53.646169 
L 164.182355 53.747498 
L 165.431783 53.850686 
L 165.431783 11.891216 
L 165.431783 11.891216 
L 164.182355 12.52682 
L 162.932927 13.160565 
L 161.6835 13.792349 
L 160.434072 14.422062 
L 159.184644 15.049584 
L 157.935216 15.674792 
L 156.685788 16.297548 
L 155.43636 16.917708 
L 154.186932 17.535116 
L 152.937504 18.149606 
L 151.688076 18.760999 
L 150.438648 19.369102 
L 149.18922 19.97371 
L 147.939792 20.574601 
L 146.690364 21.171536 
L 145.440936 21.764262 
L 144.191509 22.352503 
L 142.942081 22.935965 
L 141.692653 23.514333 
L 140.443225 24.087269 
L 139.193797 24.65441 
L 137.944369 25.21537 
L 136.694941 25.769735 
L 135.445513 26.317065 
L 134.196085 26.856891 
L 132.946657 27.388716 
L 131.697229 27.912017 
L 130.447801 28.426239 
L 129.198373 28.930805 
L 127.948945 29.425109 
L 126.699518 29.908526 
L 125.45009 30.380412 
L 124.200662 30.840108 
L 122.951234 31.286948 
L 121.701806 31.720269 
L 120.452378 32.139412 
L 119.20295 32.543738 
L 117.953522 32.932637 
L 116.704094 33.305538 
L 115.454666 33.661921 
L 114.205238 34.001329 
L 112.95581 34.32338 
L 111.706382 34.627773 
L 110.456954 34.9143 
L 109.207526 35.182846 
L 107.958099 35.433401 
L 106.708671 35.666049 
L 105.459243 35.880977 
L 104.209815 36.07846 
L 102.960387 36.258862 
L 101.710959 36.422621 
L 100.461531 36.570242 
L 99.212103 36.702282 
L 97.962675 36.819344 
L 96.713247 36.922061 
L 95.463819 37.011084 
L 94.214391 37.08708 
L 92.964963 37.150714 
L 91.715535 37.202646 
L 90.466108 37.243525 
L 89.21668 37.273983 
L 87.967252 37.294628 
L 86.717824 37.306048 
L 85.468396 37.308802 
L 84.218968 37.303421 
L 82.96954 37.290411 
L 81.720112 37.270246 
L 80.470684 37.243375 
L 79.221256 37.210217 
L 77.971828 37.171167 
L 76.7224 37.126592 
L 75.472972 37.076838 
L 74.223544 37.022225 
L 72.974117 36.963054 
L 71.724689 36.899602 
L 70.475261 36.832131 
L 69.225833 36.760883 
L 67.976405 36.686083 
L 66.726977 36.607942 
L 65.477549 36.526655 
L 64.228121 36.442404 
L 62.978693 36.355359 
L 61.729265 36.265679 
L 60.479837 36.173511 
L 59.230409 36.078993 
L 57.980981 35.982254 
L 56.731553 35.883413 
L 55.482125 35.782583 
L 54.232698 35.679868 
L 52.98327 35.575367 
L 51.733842 35.469172 
L 50.484414 35.361368 
L 49.234986 35.252037 
L 47.985558 35.141254 
L 46.73613 35.029089 
L 45.486702 34.91561 
L 44.237274 34.80088 
L 42.987846 34.684956 
L 41.738418 34.567896 
z
" clip-path="url(#p7e3e7ee856)" style="fill: #b4b4b4; fill-opacity: 0.4"/>
   </g>
   <g id="matplotlib.axis_1">
    <g id="xtick_1">
     <g id="line2d_1">
      <defs>
       <path id="m5e0b5cf0ce" d="M 0 0 
L 0 -4 
" style="stroke: #000000; stroke-width: 0.5"/>
      </defs>
      <g>
       <use xlink:href="#m5e0b5cf0ce" x="53.738521" y="150.662362" style="stroke: #000000; stroke-width: 0.5"/>
      </g>
     </g>
     <g id="text_1">
      <text style="font-size: 8px; font-family: 'Arial'; text-anchor: middle" x="53.738521" y="159.888612" transform="rotate(-0 53.738521 159.888612)">−50</text>
     </g>
    </g>
    <g id="xtick_2">
     <g id="line2d_2">
      <g>
       <use xlink:href="#m5e0b5cf0ce" x="83.738777" y="150.662362" style="stroke: #000000; stroke-width: 0.5"/>
      </g>
     </g>
     <g id="text_2">
      <text style="font-size: 8px; font-family: 'Arial'; text-anchor: middle" x="83.738777" y="159.888612" transform="rotate(-0 83.738777 159.888612)">−25</text>
     </g>
    </g>
    <g id="xtick_3">
     <g id="line2d_3">
      <g>
       <use xlink:href="#m5e0b5cf0ce" x="113.739034" y="150.662362" style="stroke: #000000; stroke-width: 0.5"/>
      </g>
     </g>
     <g id="text_3">
      <text style="font-size: 8px; font-family: 'Arial'; text-anchor: middle" x="113.739034" y="159.888612" transform="rotate(-0 113.739034 159.888612)">0</text>
     </g>
    </g>
    <g id="xtick_4">
     <g id="line2d_4">
      <g>
       <use xlink:href="#m5e0b5cf0ce" x="143.73929" y="150.662362" style="stroke: #000000; stroke-width: 0.5"/>
      </g>
     </g>
     <g id="text_4">
      <text style="font-size: 8px; font-family: 'Arial'; text-anchor: middle" x="143.73929" y="159.888612" transform="rotate(-0 143.73929 159.888612)">25</text>
     </g>
    </g>
    <g id="text_5">
     <text style="font-size: 8px; font-family: 'Arial'; text-anchor: middle" x="103.585101" y="171.204862" transform="rotate(-0 103.585101 171.204862)">LT_correct_gain_minus_loss</text>
    </g>
   </g>
   <g id="matplotlib.axis_2">
    <g id="ytick_1">
     <g id="line2d_5">
      <defs>
       <path id="mf6fb7a8403" d="M 0 0 
L 4 0 
" style="stroke: #000000; stroke-width: 0.5"/>
      </defs>
      <g>
       <use xlink:href="#mf6fb7a8403" x="35.55375" y="150.662362" style="stroke: #000000; stroke-width: 0.5"/>
      </g>
     </g>
     <g id="text_6">
      <text style="font-size: 8px; font-family: 'Arial'; text-anchor: end" x="32.05375" y="153.525487" transform="rotate(-0 32.05375 153.525487)">0</text>
     </g>
    </g>
    <g id="ytick_2">
     <g id="line2d_6">
      <g>
       <use xlink:href="#mf6fb7a8403" x="35.55375" y="115.512553" style="stroke: #000000; stroke-width: 0.5"/>
      </g>
     </g>
     <g id="text_7">
      <text style="font-size: 8px; font-family: 'Arial'; text-anchor: end" x="32.05375" y="118.375678" transform="rotate(-0 32.05375 118.375678)">25</text>
     </g>
    </g>
    <g id="ytick_3">
     <g id="line2d_7">
      <g>
       <use xlink:href="#mf6fb7a8403" x="35.55375" y="80.362744" style="stroke: #000000; stroke-width: 0.5"/>
      </g>
     </g>
     <g id="text_8">
      <text style="font-size: 8px; font-family: 'Arial'; text-anchor: end" x="32.05375" y="83.225869" transform="rotate(-0 32.05375 83.225869)">50</text>
     </g>
    </g>
    <g id="ytick_4">
     <g id="line2d_8">
      <g>
       <use xlink:href="#mf6fb7a8403" x="35.55375" y="45.212934" style="stroke: #000000; stroke-width: 0.5"/>
      </g>
     </g>
     <g id="text_9">
      <text style="font-size: 8px; font-family: 'Arial'; text-anchor: end" x="32.05375" y="48.076059" transform="rotate(-0 32.05375 48.076059)">75</text>
     </g>
    </g>
    <g id="ytick_5">
     <g id="line2d_9">
      <g>
       <use xlink:href="#mf6fb7a8403" x="35.55375" y="10.063125" style="stroke: #000000; stroke-width: 0.5"/>
      </g>
     </g>
     <g id="text_10">
      <text style="font-size: 8px; font-family: 'Arial'; text-anchor: end" x="32.05375" y="12.92625" transform="rotate(-0 32.05375 12.92625)">100</text>
     </g>
    </g>
    <g id="text_11">
     <text style="font-size: 8px; font-family: 'Arial'; text-anchor: middle" x="13.02375" y="80.362744" transform="rotate(-90 13.02375 80.362744)">CFC_chose_highest_expected_value</text>
    </g>
   </g>
   <g id="line2d_10">
    <path d="M 35.55375 80.362744 
L 171.616452 80.362744 
" clip-path="url(#p7e3e7ee856)" style="fill: none; stroke-dasharray: 2.59,1.12; stroke-dashoffset: 0; stroke: #808080; stroke-width: 0.7"/>
   </g>
   <g id="line2d_11">
    <path d="M 113.739034 150.662362 
L 113.739034 10.063125 
" clip-path="url(#p7e3e7ee856)" style="fill: none; stroke-dasharray: 2.59,1.12; stroke-dashoffset: 0; stroke: #808080; stroke-width: 0.7"/>
   </g>
   <g id="line2d_12">
    <path d="M 41.738418 83.608105 
L 42.987846 83.341897 
L 44.237274 83.075689 
L 45.486702 82.809482 
L 46.73613 82.543274 
L 47.985558 82.277066 
L 49.234986 82.010858 
L 50.484414 81.74465 
L 51.733842 81.478442 
L 52.98327 81.212234 
L 54.232698 80.946026 
L 55.482125 80.679819 
L 56.731553 80.413611 
L 57.980981 80.147403 
L 59.230409 79.881195 
L 60.479837 79.614987 
L 61.729265 79.348779 
L 62.978693 79.082571 
L 64.228121 78.816363 
L 65.477549 78.550156 
L 66.726977 78.283948 
L 67.976405 78.01774 
L 69.225833 77.751532 
L 70.475261 77.485324 
L 71.724689 77.219116 
L 72.974117 76.952908 
L 74.223544 76.6867 
L 75.472972 76.420493 
L 76.7224 76.154285 
L 77.971828 75.888077 
L 79.221256 75.621869 
L 80.470684 75.355661 
L 81.720112 75.089453 
L 82.96954 74.823245 
L 84.218968 74.557037 
L 85.468396 74.29083 
L 86.717824 74.024622 
L 87.967252 73.758414 
L 89.21668 73.492206 
L 90.466108 73.225998 
L 91.715535 72.95979 
L 92.964963 72.693582 
L 94.214391 72.427374 
L 95.463819 72.161167 
L 96.713247 71.894959 
L 97.962675 71.628751 
L 99.212103 71.362543 
L 100.461531 71.096335 
L 101.710959 70.830127 
L 102.960387 70.563919 
L 104.209815 70.297711 
L 105.459243 70.031504 
L 106.708671 69.765296 
L 107.958099 69.499088 
L 109.207526 69.23288 
L 110.456954 68.966672 
L 111.706382 68.700464 
L 112.95581 68.434256 
L 114.205238 68.168048 
L 115.454666 67.901841 
L 116.704094 67.635633 
L 117.953522 67.369425 
L 119.20295 67.103217 
L 120.452378 66.837009 
L 121.701806 66.570801 
L 122.951234 66.304593 
L 124.200662 66.038385 
L 125.45009 65.772178 
L 126.699518 65.50597 
L 127.948945 65.239762 
L 129.198373 64.973554 
L 130.447801 64.707346 
L 131.697229 64.441138 
L 132.946657 64.17493 
L 134.196085 63.908722 
L 135.445513 63.642514 
L 136.694941 63.376307 
L 137.944369 63.110099 
L 139.193797 62.843891 
L 140.443225 62.577683 
L 141.692653 62.311475 
L 142.942081 62.045267 
L 144.191509 61.779059 
L 145.440936 61.512851 
L 146.690364 61.246644 
L 147.939792 60.980436 
L 149.18922 60.714228 
L 150.438648 60.44802 
L 151.688076 60.181812 
L 152.937504 59.915604 
L 154.186932 59.649396 
L 155.43636 59.383188 
L 156.685788 59.116981 
L 157.935216 58.850773 
L 159.184644 58.584565 
L 160.434072 58.318357 
L 161.6835 58.052149 
L 162.932927 57.785941 
L 164.182355 57.519733 
L 165.431783 57.253525 
" clip-path="url(#p7e3e7ee856)" style="fill: none; stroke: #505050; stroke-width: 0.7; stroke-linecap: square"/>
   </g>
   <g id="line2d_13">
    <path d="M 41.738418 59.225531 
L 42.987846 58.959323 
L 44.237274 58.693115 
L 45.486702 58.426907 
L 46.73613 58.160699 
L 47.985558 57.894492 
L 49.234986 57.628284 
L 50.484414 57.362076 
L 51.733842 57.095868 
L 52.98327 56.82966 
L 54.232698 56.563452 
L 55.482125 56.297244 
L 56.731553 56.031036 
L 57.980981 55.764829 
L 59.230409 55.498621 
L 60.479837 55.232413 
L 61.729265 54.966205 
L 62.978693 54.699997 
L 64.228121 54.433789 
L 65.477549 54.167581 
L 66.726977 53.901373 
L 67.976405 53.635166 
L 69.225833 53.368958 
L 70.475261 53.10275 
L 71.724689 52.836542 
L 72.974117 52.570334 
L 74.223544 52.304126 
L 75.472972 52.037918 
L 76.7224 51.77171 
L 77.971828 51.505502 
L 79.221256 51.239295 
L 80.470684 50.973087 
L 81.720112 50.706879 
L 82.96954 50.440671 
L 84.218968 50.174463 
L 85.468396 49.908255 
L 86.717824 49.642047 
L 87.967252 49.375839 
L 89.21668 49.109632 
L 90.466108 48.843424 
L 91.715535 48.577216 
L 92.964963 48.311008 
L 94.214391 48.0448 
L 95.463819 47.778592 
L 96.713247 47.512384 
L 97.962675 47.246176 
L 99.212103 46.979969 
L 100.461531 46.713761 
L 101.710959 46.447553 
L 102.960387 46.181345 
L 104.209815 45.915137 
L 105.459243 45.648929 
L 106.708671 45.382721 
L 107.958099 45.116513 
L 109.207526 44.850306 
L 110.456954 44.584098 
L 111.706382 44.31789 
L 112.95581 44.051682 
L 114.205238 43.785474 
L 115.454666 43.519266 
L 116.704094 43.253058 
L 117.953522 42.98685 
L 119.20295 42.720643 
L 120.452378 42.454435 
L 121.701806 42.188227 
L 122.951234 41.922019 
L 124.200662 41.655811 
L 125.45009 41.389603 
L 126.699518 41.123395 
L 127.948945 40.857187 
L 129.198373 40.59098 
L 130.447801 40.324772 
L 131.697229 40.058564 
L 132.946657 39.792356 
L 134.196085 39.526148 
L 135.445513 39.25994 
L 136.694941 38.993732 
L 137.944369 38.727524 
L 139.193797 38.461317 
L 140.443225 38.195109 
L 141.692653 37.928901 
L 142.942081 37.662693 
L 144.191509 37.396485 
L 145.440936 37.130277 
L 146.690364 36.864069 
L 147.939792 36.597861 
L 149.18922 36.331654 
L 150.438648 36.065446 
L 151.688076 35.799238 
L 152.937504 35.53303 
L 154.186932 35.266822 
L 155.43636 35.000614 
L 156.685788 34.734406 
L 157.935216 34.468198 
L 159.184644 34.201991 
L 160.434072 33.935783 
L 161.6835 33.669575 
L 162.932927 33.403367 
L 164.182355 33.137159 
L 165.431783 32.870951 
" clip-path="url(#p7e3e7ee856)" style="fill: none; stroke: #b4b4b4; stroke-width: 0.7; stroke-linecap: square"/>
   </g>
   <g id="patch_3">
    <path d="M 35.55375 150.662362 
L 35.55375 10.063125 
" style="fill: none; stroke: #000000; stroke-width: 0.5; stroke-linejoin: miter; stroke-linecap: square"/>
   </g>
   <g id="patch_4">
    <path d="M 35.55375 150.662362 
L 171.616452 150.662362 
" style="fill: none; stroke: #000000; stroke-width: 0.5; stroke-linejoin: miter; stroke-linecap: square"/>
   </g>
   <g id="PathCollection_1">
    <defs>
     <path id="C0_0_8872e0e77d" d="M 0 1.414214 
C 0.375054 1.414214 0.734797 1.265203 1 1 
C 1.265203 0.734797 1.414214 0.375054 1.414214 -0 
C 1.414214 -0.375054 1.265203 -0.734797 1 -1 
C 0.734797 -1.265203 0.375054 -1.414214 0 -1.414214 
C -0.375054 -1.414214 -0.734797 -1.265203 -1 -1 
C -1.265203 -0.734797 -1.414214 -0.375054 -1.414214 0 
C -1.414214 0.375054 -1.265203 0.734797 -1 1 
C -0.734797 1.265203 -0.375054 1.414214 0 1.414214 
z
"/>
    </defs>
    <g clip-path="url(#p7e3e7ee856)">
     <use xlink:href="#C0_0_8872e0e77d" x="117.431373" y="41.446883" style="fill-opacity: 0.38"/>
    </g>
    <g clip-path="url(#p7e3e7ee856)">
     <use xlink:href="#C0_0_8872e0e77d" x="102.662016" y="62.787839" style="fill-opacity: 0.38"/>
    </g>
    <g clip-path="url(#p7e3e7ee856)">
     <use xlink:href="#C0_0_8872e0e77d" x="139.585409" y="86.639495" style="fill-opacity: 0.38"/>
    </g>
    <g clip-path="url(#p7e3e7ee856)">
     <use xlink:href="#C0_0_8872e0e77d" x="106.354355" y="18.850577" style="fill-opacity: 0.38"/>
    </g>
    <g clip-path="url(#p7e3e7ee856)">
     <use xlink:href="#C0_0_8872e0e77d" x="134.0469" y="20.105928" style="fill-opacity: 0.38"/>
    </g>
    <g clip-path="url(#p7e3e7ee856)">
     <use xlink:href="#C0_0_8872e0e77d" x="139.585409" y="66.55389" style="fill-opacity: 0.38"/>
    </g>
    <g clip-path="url(#p7e3e7ee856)">
     <use xlink:href="#C0_0_8872e0e77d" x="113.739034" y="81.618094" style="fill-opacity: 0.38"/>
    </g>
    <g clip-path="url(#p7e3e7ee856)">
     <use xlink:href="#C0_0_8872e0e77d" x="106.354355" y="84.128794" style="fill-opacity: 0.38"/>
    </g>
    <g clip-path="url(#p7e3e7ee856)">
     <use xlink:href="#C0_0_8872e0e77d" x="122.969882" y="52.745036" style="fill-opacity: 0.38"/>
    </g>
    <g clip-path="url(#p7e3e7ee856)">
     <use xlink:href="#C0_0_8872e0e77d" x="111.892864" y="32.659431" style="fill-opacity: 0.38"/>
    </g>
    <g clip-path="url(#p7e3e7ee856)">
     <use xlink:href="#C0_0_8872e0e77d" x="121.123712" y="75.341342" style="fill-opacity: 0.38"/>
    </g>
    <g clip-path="url(#p7e3e7ee856)">
     <use xlink:href="#C0_0_8872e0e77d" x="154.354766" y="105.46975" style="fill-opacity: 0.38"/>
    </g>
    <g clip-path="url(#p7e3e7ee856)">
     <use xlink:href="#C0_0_8872e0e77d" x="95.277337" y="13.829176" style="fill-opacity: 0.38"/>
    </g>
    <g clip-path="url(#p7e3e7ee856)">
     <use xlink:href="#C0_0_8872e0e77d" x="111.892864" y="11.318475" style="fill-opacity: 0.38"/>
    </g>
    <g clip-path="url(#p7e3e7ee856)">
     <use xlink:href="#C0_0_8872e0e77d" x="98.969677" y="89.150196" style="fill-opacity: 0.38"/>
    </g>
    <g clip-path="url(#p7e3e7ee856)">
     <use xlink:href="#C0_0_8872e0e77d" x="119.277543" y="69.064591" style="fill-opacity: 0.38"/>
    </g>
    <g clip-path="url(#p7e3e7ee856)">
     <use xlink:href="#C0_0_8872e0e77d" x="74.969472" y="116.767903" style="fill-opacity: 0.38"/>
    </g>
    <g clip-path="url(#p7e3e7ee856)">
     <use xlink:href="#C0_0_8872e0e77d" x="122.969882" y="138.108859" style="fill-opacity: 0.38"/>
    </g>
    <g clip-path="url(#p7e3e7ee856)">
     <use xlink:href="#C0_0_8872e0e77d" x="102.662016" y="10.063125" style="fill-opacity: 0.38"/>
    </g>
    <g clip-path="url(#p7e3e7ee856)">
     <use xlink:href="#C0_0_8872e0e77d" x="113.739034" y="145.640961" style="fill-opacity: 0.38"/>
    </g>
    <g clip-path="url(#p7e3e7ee856)">
     <use xlink:href="#C0_0_8872e0e77d" x="113.739034" y="35.170132" style="fill-opacity: 0.38"/>
    </g>
    <g clip-path="url(#p7e3e7ee856)">
     <use xlink:href="#C0_0_8872e0e77d" x="98.969677" y="89.150196" style="fill-opacity: 0.38"/>
    </g>
    <g clip-path="url(#p7e3e7ee856)">
     <use xlink:href="#C0_0_8872e0e77d" x="115.585203" y="75.341342" style="fill-opacity: 0.38"/>
    </g>
    <g clip-path="url(#p7e3e7ee856)">
     <use xlink:href="#C0_0_8872e0e77d" x="91.584998" y="31.404081" style="fill-opacity: 0.38"/>
    </g>
    <g clip-path="url(#p7e3e7ee856)">
     <use xlink:href="#C0_0_8872e0e77d" x="122.969882" y="145.640961" style="fill-opacity: 0.38"/>
    </g>
    <g clip-path="url(#p7e3e7ee856)">
     <use xlink:href="#C0_0_8872e0e77d" x="106.354355" y="60.277138" style="fill-opacity: 0.38"/>
    </g>
    <g clip-path="url(#p7e3e7ee856)">
     <use xlink:href="#C0_0_8872e0e77d" x="154.354766" y="10.063125" style="fill-opacity: 0.38"/>
    </g>
    <g clip-path="url(#p7e3e7ee856)">
     <use xlink:href="#C0_0_8872e0e77d" x="99.142755" y="110.491151" style="fill-opacity: 0.38"/>
    </g>
    <g clip-path="url(#p7e3e7ee856)">
     <use xlink:href="#C0_0_8872e0e77d" x="117.431373" y="120.533954" style="fill-opacity: 0.38"/>
    </g>
    <g clip-path="url(#p7e3e7ee856)">
     <use xlink:href="#C0_0_8872e0e77d" x="150.662426" y="71.575291" style="fill-opacity: 0.38"/>
    </g>
    <g clip-path="url(#p7e3e7ee856)">
     <use xlink:href="#C0_0_8872e0e77d" x="97.123507" y="32.659431" style="fill-opacity: 0.38"/>
    </g>
    <g clip-path="url(#p7e3e7ee856)">
     <use xlink:href="#C0_0_8872e0e77d" x="82.35415" y="76.596693" style="fill-opacity: 0.38"/>
    </g>
    <g clip-path="url(#p7e3e7ee856)">
     <use xlink:href="#C0_0_8872e0e77d" x="117.431373" y="28.89338" style="fill-opacity: 0.38"/>
    </g>
    <g clip-path="url(#p7e3e7ee856)">
     <use xlink:href="#C0_0_8872e0e77d" x="117.431373" y="18.850577" style="fill-opacity: 0.38"/>
    </g>
    <g clip-path="url(#p7e3e7ee856)">
     <use xlink:href="#C0_0_8872e0e77d" x="98.969677" y="148.151661" style="fill-opacity: 0.38"/>
    </g>
    <g clip-path="url(#p7e3e7ee856)">
     <use xlink:href="#C0_0_8872e0e77d" x="132.20073" y="12.573826" style="fill-opacity: 0.38"/>
    </g>
    <g clip-path="url(#p7e3e7ee856)">
     <use xlink:href="#C0_0_8872e0e77d" x="84.20032" y="96.682298" style="fill-opacity: 0.38"/>
    </g>
    <g clip-path="url(#p7e3e7ee856)">
     <use xlink:href="#C0_0_8872e0e77d" x="91.584998" y="48.978985" style="fill-opacity: 0.38"/>
    </g>
    <g clip-path="url(#p7e3e7ee856)">
     <use xlink:href="#C0_0_8872e0e77d" x="119.277543" y="38.936183" style="fill-opacity: 0.38"/>
    </g>
    <g clip-path="url(#p7e3e7ee856)">
     <use xlink:href="#C0_0_8872e0e77d" x="115.585203" y="18.850577" style="fill-opacity: 0.38"/>
    </g>
    <g clip-path="url(#p7e3e7ee856)">
     <use xlink:href="#C0_0_8872e0e77d" x="86.046489" y="99.192998" style="fill-opacity: 0.38"/>
    </g>
    <g clip-path="url(#p7e3e7ee856)">
     <use xlink:href="#C0_0_8872e0e77d" x="117.431373" y="67.80924" style="fill-opacity: 0.38"/>
    </g>
    <g clip-path="url(#p7e3e7ee856)">
     <use xlink:href="#C0_0_8872e0e77d" x="126.662221" y="119.278604" style="fill-opacity: 0.38"/>
    </g>
    <g clip-path="url(#p7e3e7ee856)">
     <use xlink:href="#C0_0_8872e0e77d" x="84.20032" y="60.277138" style="fill-opacity: 0.38"/>
    </g>
    <g clip-path="url(#p7e3e7ee856)">
     <use xlink:href="#C0_0_8872e0e77d" x="86.046489" y="51.489686" style="fill-opacity: 0.38"/>
    </g>
    <g clip-path="url(#p7e3e7ee856)">
     <use xlink:href="#C0_0_8872e0e77d" x="141.431578" y="46.468285" style="fill-opacity: 0.38"/>
    </g>
    <g clip-path="url(#p7e3e7ee856)">
     <use xlink:href="#C0_0_8872e0e77d" x="111.892864" y="145.640961" style="fill-opacity: 0.38"/>
    </g>
    <g clip-path="url(#p7e3e7ee856)">
     <use xlink:href="#C0_0_8872e0e77d" x="104.508186" y="85.384145" style="fill-opacity: 0.38"/>
    </g>
    <g clip-path="url(#p7e3e7ee856)">
     <use xlink:href="#C0_0_8872e0e77d" x="130.35456" y="86.639495" style="fill-opacity: 0.38"/>
    </g>
   </g>
   <g id="PathCollection_2">
    <defs>
     <path id="C1_0_e634bef565" d="M 0 1.414214 
C 0.375054 1.414214 0.734797 1.265203 1 1 
C 1.265203 0.734797 1.414214 0.375054 1.414214 -0 
C 1.414214 -0.375054 1.265203 -0.734797 1 -1 
C 0.734797 -1.265203 0.375054 -1.414214 0 -1.414214 
C -0.375054 -1.414214 -0.734797 -1.265203 -1 -1 
C -1.265203 -0.734797 -1.414214 -0.375054 -1.414214 0 
C -1.414214 0.375054 -1.265203 0.734797 -1 1 
C -0.734797 1.265203 -0.375054 1.414214 0 1.414214 
z
"/>
    </defs>
    <g clip-path="url(#p7e3e7ee856)">
     <use xlink:href="#C1_0_e634bef565" x="97.123507" y="59.021788" style="fill: #8c8c8c; fill-opacity: 0.38"/>
    </g>
    <g clip-path="url(#p7e3e7ee856)">
     <use xlink:href="#C1_0_e634bef565" x="102.662016" y="17.595227" style="fill: #8c8c8c; fill-opacity: 0.38"/>
    </g>
    <g clip-path="url(#p7e3e7ee856)">
     <use xlink:href="#C1_0_e634bef565" x="73.123302" y="70.319941" style="fill: #8c8c8c; fill-opacity: 0.38"/>
    </g>
    <g clip-path="url(#p7e3e7ee856)">
     <use xlink:href="#C1_0_e634bef565" x="111.892864" y="11.318475" style="fill: #8c8c8c; fill-opacity: 0.38"/>
    </g>
    <g clip-path="url(#p7e3e7ee856)">
     <use xlink:href="#C1_0_e634bef565" x="110.046695" y="56.511087" style="fill: #8c8c8c; fill-opacity: 0.38"/>
    </g>
    <g clip-path="url(#p7e3e7ee856)">
     <use xlink:href="#C1_0_e634bef565" x="98.969677" y="60.277138" style="fill: #8c8c8c; fill-opacity: 0.38"/>
    </g>
    <g clip-path="url(#p7e3e7ee856)">
     <use xlink:href="#C1_0_e634bef565" x="121.123712" y="30.14873" style="fill: #8c8c8c; fill-opacity: 0.38"/>
    </g>
    <g clip-path="url(#p7e3e7ee856)">
     <use xlink:href="#C1_0_e634bef565" x="108.200525" y="56.511087" style="fill: #8c8c8c; fill-opacity: 0.38"/>
    </g>
    <g clip-path="url(#p7e3e7ee856)">
     <use xlink:href="#C1_0_e634bef565" x="132.20073" y="10.063125" style="fill: #8c8c8c; fill-opacity: 0.38"/>
    </g>
    <g clip-path="url(#p7e3e7ee856)">
     <use xlink:href="#C1_0_e634bef565" x="119.277543" y="35.170132" style="fill: #8c8c8c; fill-opacity: 0.38"/>
    </g>
    <g clip-path="url(#p7e3e7ee856)">
     <use xlink:href="#C1_0_e634bef565" x="132.20073" y="40.191533" style="fill: #8c8c8c; fill-opacity: 0.38"/>
    </g>
    <g clip-path="url(#p7e3e7ee856)">
     <use xlink:href="#C1_0_e634bef565" x="115.585203" y="12.573826" style="fill: #8c8c8c; fill-opacity: 0.38"/>
    </g>
    <g clip-path="url(#p7e3e7ee856)">
     <use xlink:href="#C1_0_e634bef565" x="86.046489" y="50.234336" style="fill: #8c8c8c; fill-opacity: 0.38"/>
    </g>
    <g clip-path="url(#p7e3e7ee856)">
     <use xlink:href="#C1_0_e634bef565" x="87.892659" y="12.573826" style="fill: #8c8c8c; fill-opacity: 0.38"/>
    </g>
    <g clip-path="url(#p7e3e7ee856)">
     <use xlink:href="#C1_0_e634bef565" x="126.662221" y="91.660896" style="fill: #8c8c8c; fill-opacity: 0.38"/>
    </g>
    <g clip-path="url(#p7e3e7ee856)">
     <use xlink:href="#C1_0_e634bef565" x="135.893069" y="33.914781" style="fill: #8c8c8c; fill-opacity: 0.38"/>
    </g>
    <g clip-path="url(#p7e3e7ee856)">
     <use xlink:href="#C1_0_e634bef565" x="80.50798" y="61.532489" style="fill: #8c8c8c; fill-opacity: 0.38"/>
    </g>
    <g clip-path="url(#p7e3e7ee856)">
     <use xlink:href="#C1_0_e634bef565" x="69.430963" y="55.255737" style="fill: #8c8c8c; fill-opacity: 0.38"/>
    </g>
    <g clip-path="url(#p7e3e7ee856)">
     <use xlink:href="#C1_0_e634bef565" x="119.277543" y="12.573826" style="fill: #8c8c8c; fill-opacity: 0.38"/>
    </g>
    <g clip-path="url(#p7e3e7ee856)">
     <use xlink:href="#C1_0_e634bef565" x="97.123507" y="84.128794" style="fill: #8c8c8c; fill-opacity: 0.38"/>
    </g>
    <g clip-path="url(#p7e3e7ee856)">
     <use xlink:href="#C1_0_e634bef565" x="104.508186" y="46.468285" style="fill: #8c8c8c; fill-opacity: 0.38"/>
    </g>
    <g clip-path="url(#p7e3e7ee856)">
     <use xlink:href="#C1_0_e634bef565" x="102.662016" y="33.914781" style="fill: #8c8c8c; fill-opacity: 0.38"/>
    </g>
    <g clip-path="url(#p7e3e7ee856)">
     <use xlink:href="#C1_0_e634bef565" x="52.815436" y="125.555355" style="fill: #8c8c8c; fill-opacity: 0.38"/>
    </g>
    <g clip-path="url(#p7e3e7ee856)">
     <use xlink:href="#C1_0_e634bef565" x="100.815846" y="52.745036" style="fill: #8c8c8c; fill-opacity: 0.38"/>
    </g>
    <g clip-path="url(#p7e3e7ee856)">
     <use xlink:href="#C1_0_e634bef565" x="108.200525" y="84.128794" style="fill: #8c8c8c; fill-opacity: 0.38"/>
    </g>
    <g clip-path="url(#p7e3e7ee856)">
     <use xlink:href="#C1_0_e634bef565" x="115.585203" y="42.702234" style="fill: #8c8c8c; fill-opacity: 0.38"/>
    </g>
    <g clip-path="url(#p7e3e7ee856)">
     <use xlink:href="#C1_0_e634bef565" x="117.431373" y="50.234336" style="fill: #8c8c8c; fill-opacity: 0.38"/>
    </g>
    <g clip-path="url(#p7e3e7ee856)">
     <use xlink:href="#C1_0_e634bef565" x="124.816052" y="57.766438" style="fill: #8c8c8c; fill-opacity: 0.38"/>
    </g>
    <g clip-path="url(#p7e3e7ee856)">
     <use xlink:href="#C1_0_e634bef565" x="122.969882" y="21.361278" style="fill: #8c8c8c; fill-opacity: 0.38"/>
    </g>
    <g clip-path="url(#p7e3e7ee856)">
     <use xlink:href="#C1_0_e634bef565" x="111.892864" y="64.043189" style="fill: #8c8c8c; fill-opacity: 0.38"/>
    </g>
    <g clip-path="url(#p7e3e7ee856)">
     <use xlink:href="#C1_0_e634bef565" x="110.046695" y="43.957584" style="fill: #8c8c8c; fill-opacity: 0.38"/>
    </g>
    <g clip-path="url(#p7e3e7ee856)">
     <use xlink:href="#C1_0_e634bef565" x="122.969882" y="10.063125" style="fill: #8c8c8c; fill-opacity: 0.38"/>
    </g>
    <g clip-path="url(#p7e3e7ee856)">
     <use xlink:href="#C1_0_e634bef565" x="121.123712" y="40.191533" style="fill: #8c8c8c; fill-opacity: 0.38"/>
    </g>
    <g clip-path="url(#p7e3e7ee856)">
     <use xlink:href="#C1_0_e634bef565" x="165.431783" y="99.192998" style="fill: #8c8c8c; fill-opacity: 0.38"/>
    </g>
    <g clip-path="url(#p7e3e7ee856)">
     <use xlink:href="#C1_0_e634bef565" x="137.739239" y="77.852043" style="fill: #8c8c8c; fill-opacity: 0.38"/>
    </g>
    <g clip-path="url(#p7e3e7ee856)">
     <use xlink:href="#C1_0_e634bef565" x="113.739034" y="11.318475" style="fill: #8c8c8c; fill-opacity: 0.38"/>
    </g>
    <g clip-path="url(#p7e3e7ee856)">
     <use xlink:href="#C1_0_e634bef565" x="106.354355" y="65.29854" style="fill: #8c8c8c; fill-opacity: 0.38"/>
    </g>
    <g clip-path="url(#p7e3e7ee856)">
     <use xlink:href="#C1_0_e634bef565" x="100.815846" y="36.425482" style="fill: #8c8c8c; fill-opacity: 0.38"/>
    </g>
    <g clip-path="url(#p7e3e7ee856)">
     <use xlink:href="#C1_0_e634bef565" x="115.585203" y="26.382679" style="fill: #8c8c8c; fill-opacity: 0.38"/>
    </g>
    <g clip-path="url(#p7e3e7ee856)">
     <use xlink:href="#C1_0_e634bef565" x="102.662016" y="15.084526" style="fill: #8c8c8c; fill-opacity: 0.38"/>
    </g>
    <g clip-path="url(#p7e3e7ee856)">
     <use xlink:href="#C1_0_e634bef565" x="145.123917" y="10.063125" style="fill: #8c8c8c; fill-opacity: 0.38"/>
    </g>
    <g clip-path="url(#p7e3e7ee856)">
     <use xlink:href="#C1_0_e634bef565" x="108.200525" y="72.830642" style="fill: #8c8c8c; fill-opacity: 0.38"/>
    </g>
    <g clip-path="url(#p7e3e7ee856)">
     <use xlink:href="#C1_0_e634bef565" x="41.738418" y="43.957584" style="fill: #8c8c8c; fill-opacity: 0.38"/>
    </g>
    <g clip-path="url(#p7e3e7ee856)">
     <use xlink:href="#C1_0_e634bef565" x="119.277543" y="45.212934" style="fill: #8c8c8c; fill-opacity: 0.38"/>
    </g>
    <g clip-path="url(#p7e3e7ee856)">
     <use xlink:href="#C1_0_e634bef565" x="104.508186" y="50.234336" style="fill: #8c8c8c; fill-opacity: 0.38"/>
    </g>
    <g clip-path="url(#p7e3e7ee856)">
     <use xlink:href="#C1_0_e634bef565" x="143.277748" y="10.063125" style="fill: #8c8c8c; fill-opacity: 0.38"/>
    </g>
    <g clip-path="url(#p7e3e7ee856)">
     <use xlink:href="#C1_0_e634bef565" x="126.662221" y="67.80924" style="fill: #8c8c8c; fill-opacity: 0.38"/>
    </g>
    <g clip-path="url(#p7e3e7ee856)">
     <use xlink:href="#C1_0_e634bef565" x="86.046489" y="10.063125" style="fill: #8c8c8c; fill-opacity: 0.38"/>
    </g>
    <g clip-path="url(#p7e3e7ee856)">
     <use xlink:href="#C1_0_e634bef565" x="115.585203" y="16.339877" style="fill: #8c8c8c; fill-opacity: 0.38"/>
    </g>
   </g>
  </g>
 </g>
 <defs>
  <clipPath id="p7e3e7ee856">
   <rect x="35.55375" y="10.063125" width="136.062702" height="140.599237"/>
  </clipPath>
 </defs>
</svg>
