<?xml version="1.0" encoding="utf-8" standalone="no"?>
<!DOCTYPE svg PUBLIC "-//W3C//DTD SVG 1.1//EN"
  "http://www.w3.org/Graphics/SVG/1.1/DTD/svg11.dtd">
<svg xmlns:xlink="http://www.w3.org/1999/xlink" width="76.446653pt" height="58.587661pt" viewBox="0 0 76.446653 58.587661" xmlns="http://www.w3.org/2000/svg" version="1.1">
 <metadata>
  <rdf:RDF xmlns:dc="http://purl.org/dc/elements/1.1/" xmlns:cc="http://creativecommons.org/ns#" xmlns:rdf="http://www.w3.org/1999/02/22-rdf-syntax-ns#">
   <cc:Work>
    <dc:type rdf:resource="http://purl.org/dc/dcmitype/StillImage"/>
    <dc:date>2026-03-04T23:12:12.927923</dc:date>
    <dc:format>image/svg+xml</dc:format>
    <dc:creator>
     <cc:Agent>
      <dc:title>Matplotlib v3.10.8, https://matplotlib.org/</dc:title>
     </cc:Agent>
    </dc:creator>
   </cc:Work>
  </rdf:RDF>
 </metadata>
 <defs>
  <style type="text/css">*{stroke-linejoin: round; stroke-linecap: butt}</style>
 </defs>
 <g id="figure_1">
  <g id="patch_1">
   <path d="M 0 58.587661 
L 76.446653 58.587661 
L 76.446653 0 
L 0 0 
z
" style="fill: #ffffff"/>
  </g>
  <g id="axes_1">
   <g id="patch_2">
    <path d="M 33.5775 46.934536 
L 69.246653 46.934536 
L 69.246653 10.279991 
L 33.5775 10.279991 
z
" style="fill: #ffffff"/>
   </g>
   <g id="patch_3">
    <path d="M 42.494788 32.272718 
L 60.329365 32.272718 
L 60.329365 23.9435 
L 42.494788 23.9435 
z
" clip-path="url(#p260b90ad47)" style="fill: #d3d3d3; stroke: #d3d3d3; stroke-linejoin: miter"/>
   </g>
   <g id="matplotlib.axis_1">
    <g id="xtick_1"/>
   </g>
   <g id="matplotlib.axis_2">
    <g id="ytick_1">
     <g id="line2d_1">
      <defs>
       <path id="m5470e5ef54" d="M 0 0 
L 4 0 
" style="stroke: #000000; stroke-width: 0.5"/>
      </defs>
      <g>
       <use xlink:href="#m5470e5ef54" x="33.5775" y="46.934536" style="stroke: #000000; stroke-width: 0.5"/>
      </g>
     </g>
     <g id="text_1">
      <text style="font-size: 8px; font-family: 'Arial'; text-anchor: end" x="30.0775" y="49.797661" transform="rotate(-0 30.0775 49.797661)">-10</text>
     </g>
    </g>
    <g id="ytick_2">
     <g id="line2d_2">
      <g>
       <use xlink:href="#m5470e5ef54" x="33.5775" y="32.272718" style="stroke: #000000; stroke-width: 0.5"/>
      </g>
     </g>
     <g id="text_2">
      <text style="font-size: 8px; font-family: 'Arial'; text-anchor: end" x="30.0775" y="35.135843" transform="rotate(-0 30.0775 35.135843)">0</text>
     </g>
    </g>
    <g id="ytick_3">
     <g id="line2d_3">
      <g>
       <use xlink:href="#m5470e5ef54" x="33.5775" y="17.6109" style="stroke: #000000; stroke-width: 0.5"/>
      </g>
     </g>
     <g id="text_3">
      <text style="font-size: 8px; font-family: 'Arial'; text-anchor: end" x="30.0775" y="20.474025" transform="rotate(-0 30.0775 20.474025)">10</text>
     </g>
    </g>
    <g id="ytick_4">
     <g id="line2d_4">
      <g>
       <use xlink:href="#m5470e5ef54" x="33.5775" y="10.279991" style="stroke: #000000; stroke-width: 0.5"/>
      </g>
     </g>
     <g id="text_4">
      <text style="font-size: 8px; font-family: 'Arial'; text-anchor: end" x="30.0775" y="13.143116" transform="rotate(-0 30.0775 13.143116)">15</text>
     </g>
    </g>
    <g id="text_5">
     <text style="font-size: 8px; font-family: 'Arial'; text-anchor: middle" x="12.92625" y="28.607263" transform="rotate(-90 12.92625 28.607263)">intercept</text>
    </g>
   </g>
   <g id="LineCollection_1">
    <path d="M 51.412077 29.38607 
L 51.412077 18.500929 
" clip-path="url(#p260b90ad47)" style="fill: none; stroke: #000000; stroke-width: 1.2"/>
   </g>
   <g id="line2d_5">
    <defs>
     <path id="m8573b0b7db" d="M 5 0 
L -5 -0 
" style="stroke: #000000"/>
    </defs>
    <g clip-path="url(#p260b90ad47)">
     <use xlink:href="#m8573b0b7db" x="51.412077" y="29.38607" style="stroke: #000000"/>
    </g>
   </g>
   <g id="line2d_6">
    <g clip-path="url(#p260b90ad47)">
     <use xlink:href="#m8573b0b7db" x="51.412077" y="18.500929" style="stroke: #000000"/>
    </g>
   </g>
   <g id="line2d_7">
    <path d="M 33.5775 32.272718 
L 69.246653 32.272718 
" clip-path="url(#p260b90ad47)" style="fill: none; stroke-dasharray: 3.7,1.6; stroke-dashoffset: 0; stroke: #808080"/>
   </g>
   <g id="line2d_8">
    <defs>
     <path id="m084e2b159a" d="M 0 1.5 
C 0.397805 1.5 0.77937 1.341951 1.06066 1.06066 
C 1.341951 0.77937 1.5 0.397805 1.5 0 
C 1.5 -0.397805 1.341951 -0.77937 1.06066 -1.06066 
C 0.77937 -1.341951 0.397805 -1.5 0 -1.5 
C -0.397805 -1.5 -0.77937 -1.341951 -1.06066 -1.06066 
C -1.341951 -0.77937 -1.5 -0.397805 -1.5 0 
C -1.5 0.397805 -1.341951 0.77937 -1.06066 1.06066 
C -0.77937 1.341951 -0.397805 1.5 0 1.5 
z
" style="stroke: #000000"/>
    </defs>
    <g clip-path="url(#p260b90ad47)">
     <use xlink:href="#m084e2b159a" x="51.412077" y="23.9435" style="stroke: #000000"/>
    </g>
   </g>
   <g id="patch_4">
    <path d="M 33.5775 46.934536 
L 33.5775 10.279991 
" style="fill: none; stroke: #000000; stroke-width: 0.5; stroke-linejoin: miter; stroke-linecap: square"/>
   </g>
   <g id="text_6">
    <text style="font-size: 12px; font-family: 'Arial'; text-anchor: middle" x="51.412077" y="15.789375" transform="rotate(-0 51.412077 15.789375)">**</text>
   </g>
  </g>
 </g>
 <defs>
  <clipPath id="p260b90ad47">
   <rect x="33.5775" y="10.279991" width="35.669153" height="36.654545"/>
  </clipPath>
 </defs>
</svg>
