<?xml version="1.0" encoding="utf-8" standalone="no"?>
<!DOCTYPE svg PUBLIC "-//W3C//DTD SVG 1.1//EN"
  "http://www.w3.org/Graphics/SVG/1.1/DTD/svg11.dtd">
<svg xmlns:xlink="http://www.w3.org/1999/xlink" width="360pt" height="216pt" viewBox="0 0 360 216" xmlns="http://www.w3.org/2000/svg" version="1.1">
 <metadata>
  <rdf:RDF xmlns:dc="http://purl.org/dc/elements/1.1/" xmlns:cc="http://creativecommons.org/ns#" xmlns:rdf="http://www.w3.org/1999/02/22-rdf-syntax-ns#">
   <cc:Work>
    <dc:type rdf:resource="http://purl.org/dc/dcmitype/StillImage"/>
    <dc:date>2026-03-04T23:12:09.237262</dc:date>
    <dc:format>image/svg+xml</dc:format>
    <dc:creator>
     <cc:Agent>
      <dc:title>Matplotlib v3.10.8, https://matplotlib.org/</dc:title>
     </cc:Agent>
    </dc:creator>
   </cc:Work>
  </rdf:RDF>
 </metadata>
 <defs>
  <style type="text/css">*{stroke-linejoin: round; stroke-linecap: butt}</style>
 </defs>
 <g id="figure_1">
  <g id="patch_1">
   <path d="M 0 216 
L 360 216 
L 360 0 
L 0 0 
z
" style="fill: #ffffff"/>
  </g>
  <g id="axes_1">
   <g id="patch_2">
    <path d="M 72 158.4 
L 284.4 158.4 
L 284.4 28.8 
L 72 28.8 
z
" style="fill: #ffffff"/>
   </g>
   <g id="matplotlib.axis_1">
    <g id="xtick_1">
     <g id="text_1">
      <text style="font-size: 8px; font-family: 'Arial'; text-anchor: middle" x="91.998701" y="167.62625" transform="rotate(-0 91.998701 167.62625)">NULL</text>
     </g>
    </g>
    <g id="xtick_2">
     <g id="text_2">
      <text style="font-size: 8px; font-family: 'Arial'; text-anchor: middle" x="264.401299" y="167.72375" transform="rotate(-0 264.401299 167.72375)">CFC_x</text>
     </g>
    </g>
   </g>
   <g id="matplotlib.axis_2">
    <g id="ytick_1">
     <g id="line2d_1">
      <defs>
       <path id="mc27317d984" d="M 0 0 
L 3.5 0 
" style="stroke: #922782; stroke-width: 0.6"/>
      </defs>
      <g>
       <use xlink:href="#mc27317d984" x="72" y="156.451448" style="fill: #922782; stroke: #922782; stroke-width: 0.6"/>
      </g>
     </g>
     <g id="text_3">
      <text style="font-size: 8px; font-family: 'Arial'; text-anchor: end; fill: #922782" x="68.5" y="159.314573" transform="rotate(-0 68.5 159.314573)">910</text>
     </g>
    </g>
    <g id="ytick_2">
     <g id="line2d_2">
      <g>
       <use xlink:href="#mc27317d984" x="72" y="127.612839" style="fill: #922782; stroke: #922782; stroke-width: 0.6"/>
      </g>
     </g>
     <g id="text_4">
      <text style="font-size: 8px; font-family: 'Arial'; text-anchor: end; fill: #922782" x="68.5" y="130.475964" transform="rotate(-0 68.5 130.475964)">912</text>
     </g>
    </g>
    <g id="ytick_3">
     <g id="line2d_3">
      <g>
       <use xlink:href="#mc27317d984" x="72" y="98.774231" style="fill: #922782; stroke: #922782; stroke-width: 0.6"/>
      </g>
     </g>
     <g id="text_5">
      <text style="font-size: 8px; font-family: 'Arial'; text-anchor: end; fill: #922782" x="68.5" y="101.637356" transform="rotate(-0 68.5 101.637356)">914</text>
     </g>
    </g>
    <g id="ytick_4">
     <g id="line2d_4">
      <g>
       <use xlink:href="#mc27317d984" x="72" y="69.935622" style="fill: #922782; stroke: #922782; stroke-width: 0.6"/>
      </g>
     </g>
     <g id="text_6">
      <text style="font-size: 8px; font-family: 'Arial'; text-anchor: end; fill: #922782" x="68.5" y="72.798747" transform="rotate(-0 68.5 72.798747)">916</text>
     </g>
    </g>
    <g id="ytick_5">
     <g id="line2d_5">
      <g>
       <use xlink:href="#mc27317d984" x="72" y="41.097013" style="fill: #922782; stroke: #922782; stroke-width: 0.6"/>
      </g>
     </g>
     <g id="text_7">
      <text style="font-size: 8px; font-family: 'Arial'; text-anchor: end; fill: #922782" x="68.5" y="43.960138" transform="rotate(-0 68.5 43.960138)">918</text>
     </g>
    </g>
    <g id="text_8">
     <text style="font-size: 8px; font-family: 'Arial'; text-anchor: middle; fill: #922782" x="49.56375" y="93.6" transform="rotate(-90 49.56375 93.6)">BIC</text>
    </g>
   </g>
   <g id="line2d_6">
    <path d="M 81.654545 34.690909 
L 254.057143 152.509091 
" clip-path="url(#pcdf062bd6b)" style="fill: none; stroke: #922782; stroke-width: 1.5; stroke-linecap: square"/>
    <defs>
     <path id="ma465eddb10" d="M 0 3 
C 0.795609 3 1.55874 2.683901 2.12132 2.12132 
C 2.683901 1.55874 3 0.795609 3 0 
C 3 -0.795609 2.683901 -1.55874 2.12132 -2.12132 
C 1.55874 -2.683901 0.795609 -3 0 -3 
C -0.795609 -3 -1.55874 -2.683901 -2.12132 -2.12132 
C -2.683901 -1.55874 -3 -0.795609 -3 0 
C -3 0.795609 -2.683901 1.55874 -2.12132 2.12132 
C -1.55874 2.683901 -0.795609 3 0 3 
z
" style="stroke: #922782"/>
    </defs>
    <g clip-path="url(#pcdf062bd6b)">
     <use xlink:href="#ma465eddb10" x="81.654545" y="34.690909" style="fill: #922782; stroke: #922782"/>
     <use xlink:href="#ma465eddb10" x="254.057143" y="152.509091" style="fill: #922782; stroke: #922782"/>
    </g>
   </g>
   <g id="patch_3">
    <path d="M 72 158.4 
L 72 28.8 
" style="fill: none; stroke: #922782; stroke-width: 0.6; stroke-linejoin: miter; stroke-linecap: square"/>
   </g>
   <g id="text_9">
    <text style="font-size: 6px; font-family: 'DejaVu Sans', 'Bitstream Vera Sans', 'Computer Modern Sans Serif', 'Lucida Grande', 'Verdana', 'Geneva', 'Lucid', 'Arial', 'Helvetica', 'Avant Garde', sans-serif; text-anchor: middle; fill: #922782" x="81.654545" y="29.443097" transform="rotate(-0 81.654545 29.443097)">918.4</text>
   </g>
   <g id="text_10">
    <text style="font-size: 6px; font-family: 'DejaVu Sans', 'Bitstream Vera Sans', 'Computer Modern Sans Serif', 'Lucida Grande', 'Verdana', 'Geneva', 'Lucid', 'Arial', 'Helvetica', 'Avant Garde', sans-serif; text-anchor: middle; fill: #922782" x="254.057143" y="147.261278" transform="rotate(-0 254.057143 147.261278)">910.3</text>
   </g>
  </g>
  <g id="axes_2">
   <g id="matplotlib.axis_3">
    <g id="ytick_6">
     <g id="line2d_7">
      <defs>
       <path id="ma1b622bffe" d="M 0 0 
L -3.5 0 
" style="stroke: #bb5816; stroke-width: 0.6"/>
      </defs>
      <g>
       <use xlink:href="#ma1b622bffe" x="284.4" y="158.188746" style="fill: #bb5816; stroke: #bb5816; stroke-width: 0.6"/>
      </g>
     </g>
     <g id="text_11">
      <text style="font-size: 8px; font-family: 'Arial'; text-anchor: start; fill: #bb5816" x="287.9" y="161.051871" transform="rotate(-0 287.9 161.051871)">902</text>
     </g>
    </g>
    <g id="ytick_7">
     <g id="line2d_8">
      <g>
       <use xlink:href="#ma1b622bffe" x="284.4" y="136.280969" style="fill: #bb5816; stroke: #bb5816; stroke-width: 0.6"/>
      </g>
     </g>
     <g id="text_12">
      <text style="font-size: 8px; font-family: 'Arial'; text-anchor: start; fill: #bb5816" x="287.9" y="139.144094" transform="rotate(-0 287.9 139.144094)">904</text>
     </g>
    </g>
    <g id="ytick_8">
     <g id="line2d_9">
      <g>
       <use xlink:href="#ma1b622bffe" x="284.4" y="114.373193" style="fill: #bb5816; stroke: #bb5816; stroke-width: 0.6"/>
      </g>
     </g>
     <g id="text_13">
      <text style="font-size: 8px; font-family: 'Arial'; text-anchor: start; fill: #bb5816" x="287.9" y="117.236318" transform="rotate(-0 287.9 117.236318)">906</text>
     </g>
    </g>
    <g id="ytick_9">
     <g id="line2d_10">
      <g>
       <use xlink:href="#ma1b622bffe" x="284.4" y="92.465416" style="fill: #bb5816; stroke: #bb5816; stroke-width: 0.6"/>
      </g>
     </g>
     <g id="text_14">
      <text style="font-size: 8px; font-family: 'Arial'; text-anchor: start; fill: #bb5816" x="287.9" y="95.328541" transform="rotate(-0 287.9 95.328541)">908</text>
     </g>
    </g>
    <g id="ytick_10">
     <g id="line2d_11">
      <g>
       <use xlink:href="#ma1b622bffe" x="284.4" y="70.55764" style="fill: #bb5816; stroke: #bb5816; stroke-width: 0.6"/>
      </g>
     </g>
     <g id="text_15">
      <text style="font-size: 8px; font-family: 'Arial'; text-anchor: start; fill: #bb5816" x="287.9" y="73.420765" transform="rotate(-0 287.9 73.420765)">910</text>
     </g>
    </g>
    <g id="ytick_11">
     <g id="line2d_12">
      <g>
       <use xlink:href="#ma1b622bffe" x="284.4" y="48.649863" style="fill: #bb5816; stroke: #bb5816; stroke-width: 0.6"/>
      </g>
     </g>
     <g id="text_16">
      <text style="font-size: 8px; font-family: 'Arial'; text-anchor: start; fill: #bb5816" x="287.9" y="51.512988" transform="rotate(-0 287.9 51.512988)">912</text>
     </g>
    </g>
    <g id="text_17">
     <text style="font-size: 8px; font-family: 'Arial'; text-anchor: middle; fill: #bb5816" x="303.178125" y="93.6" transform="rotate(-270 303.178125 93.6)">AIC</text>
    </g>
   </g>
   <g id="line2d_13">
    <path d="M 102.342857 34.690909 
L 274.745455 152.509091 
" clip-path="url(#pcdf062bd6b)" style="fill: none; stroke: #bb5816; stroke-width: 1.5; stroke-linecap: square"/>
    <defs>
     <path id="m13b247a1b6" d="M 0 3 
C 0.795609 3 1.55874 2.683901 2.12132 2.12132 
C 2.683901 1.55874 3 0.795609 3 0 
C 3 -0.795609 2.683901 -1.55874 2.12132 -2.12132 
C 1.55874 -2.683901 0.795609 -3 0 -3 
C -0.795609 -3 -1.55874 -2.683901 -2.12132 -2.12132 
C -2.683901 -1.55874 -3 -0.795609 -3 0 
C -3 0.795609 -2.683901 1.55874 -2.12132 2.12132 
C -1.55874 2.683901 -0.795609 3 0 3 
z
" style="stroke: #bb5816"/>
    </defs>
    <g clip-path="url(#pcdf062bd6b)">
     <use xlink:href="#m13b247a1b6" x="102.342857" y="34.690909" style="fill: #bb5816; stroke: #bb5816"/>
     <use xlink:href="#m13b247a1b6" x="274.745455" y="152.509091" style="fill: #bb5816; stroke: #bb5816"/>
    </g>
   </g>
   <g id="patch_4">
    <path d="M 284.4 158.4 
L 284.4 28.8 
" style="fill: none; stroke: #bb5816; stroke-width: 0.6; stroke-linejoin: miter; stroke-linecap: square"/>
   </g>
   <g id="text_18">
    <text style="font-size: 6px; font-family: 'DejaVu Sans', 'Bitstream Vera Sans', 'Computer Modern Sans Serif', 'Lucida Grande', 'Verdana', 'Geneva', 'Lucid', 'Arial', 'Helvetica', 'Avant Garde', sans-serif; text-anchor: middle; fill: #bb5816" x="102.342857" y="29.443097" transform="rotate(-0 102.342857 29.443097)">913.3</text>
   </g>
   <g id="text_19">
    <text style="font-size: 6px; font-family: 'DejaVu Sans', 'Bitstream Vera Sans', 'Computer Modern Sans Serif', 'Lucida Grande', 'Verdana', 'Geneva', 'Lucid', 'Arial', 'Helvetica', 'Avant Garde', sans-serif; text-anchor: middle; fill: #bb5816" x="274.745455" y="147.261278" transform="rotate(-0 274.745455 147.261278)">902.5</text>
   </g>
  </g>
 </g>
 <defs>
  <clipPath id="pcdf062bd6b">
   <rect x="72" y="28.8" width="212.4" height="129.6"/>
  </clipPath>
 </defs>
</svg>
