<?xml version="1.0" encoding="utf-8" standalone="no"?>
<!DOCTYPE svg PUBLIC "-//W3C//DTD SVG 1.1//EN"
  "http://www.w3.org/Graphics/SVG/1.1/DTD/svg11.dtd">
<svg xmlns:xlink="http://www.w3.org/1999/xlink" width="295.166406pt" height="279.674688pt" viewBox="0 0 295.166406 279.674688" xmlns="http://www.w3.org/2000/svg" version="1.1">
 <metadata>
  <rdf:RDF xmlns:dc="http://purl.org/dc/elements/1.1/" xmlns:cc="http://creativecommons.org/ns#" xmlns:rdf="http://www.w3.org/1999/02/22-rdf-syntax-ns#">
   <cc:Work>
    <dc:type rdf:resource="http://purl.org/dc/dcmitype/StillImage"/>
    <dc:date>2026-04-02T15:51:19.483347</dc:date>
    <dc:format>image/svg+xml</dc:format>
    <dc:creator>
     <cc:Agent>
      <dc:title>Matplotlib v3.10.8, https://matplotlib.org/</dc:title>
     </cc:Agent>
    </dc:creator>
   </cc:Work>
  </rdf:RDF>
 </metadata>
 <defs>
  <style type="text/css">*{stroke-linejoin: round; stroke-linecap: butt}</style>
 </defs>
 <g id="figure_1">
  <g id="patch_1">
   <path d="M 0 279.674688 
L 295.166406 279.674688 
L 295.166406 0 
L 0 0 
z
" style="fill: #ffffff"/>
  </g>
  <g id="axes_1">
   <g id="patch_2">
    <path d="M 48.982813 242.118437 
L 273.332812 242.118437 
L 273.332812 20.798437 
L 48.982813 20.798437 
z
" style="fill: #ffffff"/>
   </g>
   <g id="PathCollection_1">
    <defs>
     <path id="m49a03e9623" d="M 0 3.535534 
C 0.937635 3.535534 1.836992 3.163008 2.5 2.5 
C 3.163008 1.836992 3.535534 0.937635 3.535534 0 
C 3.535534 -0.937635 3.163008 -1.836992 2.5 -2.5 
C 1.836992 -3.163008 0.937635 -3.535534 0 -3.535534 
C -0.937635 -3.535534 -1.836992 -3.163008 -2.5 -2.5 
C -3.163008 -1.836992 -3.535534 -0.937635 -3.535534 0 
C -3.535534 0.937635 -3.163008 1.836992 -2.5 2.5 
C -1.836992 3.163008 -0.937635 3.535534 0 3.535534 
z
" style="stroke: #000000; stroke-opacity: 0.3"/>
    </defs>
    <g clip-path="url(#pabcd1d2479)">
     <use xlink:href="#m49a03e9623" x="180.986727" y="106.782966" style="fill-opacity: 0.3; stroke: #000000; stroke-opacity: 0.3"/>
     <use xlink:href="#m49a03e9623" x="158.32511" y="171.318815" style="fill-opacity: 0.3; stroke: #000000; stroke-opacity: 0.3"/>
     <use xlink:href="#m49a03e9623" x="180.986727" y="34.654664" style="fill-opacity: 0.3; stroke: #000000; stroke-opacity: 0.3"/>
     <use xlink:href="#m49a03e9623" x="141.328898" y="133.356551" style="fill-opacity: 0.3; stroke: #000000; stroke-opacity: 0.3"/>
     <use xlink:href="#m49a03e9623" x="231.975363" y="42.247117" style="fill-opacity: 0.3; stroke: #000000; stroke-opacity: 0.3"/>
     <use xlink:href="#m49a03e9623" x="107.336474" y="129.560324" style="fill-opacity: 0.3; stroke: #000000; stroke-opacity: 0.3"/>
     <use xlink:href="#m49a03e9623" x="155.492408" y="137.152777" style="fill-opacity: 0.3; stroke: #000000; stroke-opacity: 0.3"/>
     <use xlink:href="#m49a03e9623" x="175.321323" y="129.560324" style="fill-opacity: 0.3; stroke: #000000; stroke-opacity: 0.3"/>
     <use xlink:href="#m49a03e9623" x="197.982939" y="118.171645" style="fill-opacity: 0.3; stroke: #000000; stroke-opacity: 0.3"/>
     <use xlink:href="#m49a03e9623" x="113.001878" y="152.337683" style="fill-opacity: 0.3; stroke: #000000; stroke-opacity: 0.3"/>
     <use xlink:href="#m49a03e9623" x="200.815641" y="148.541456" style="fill-opacity: 0.3; stroke: #000000; stroke-opacity: 0.3"/>
     <use xlink:href="#m49a03e9623" x="138.496196" y="121.967871" style="fill-opacity: 0.3; stroke: #000000; stroke-opacity: 0.3"/>
     <use xlink:href="#m49a03e9623" x="183.819429" y="87.801834" style="fill-opacity: 0.3; stroke: #000000; stroke-opacity: 0.3"/>
     <use xlink:href="#m49a03e9623" x="146.994302" y="118.171645" style="fill-opacity: 0.3; stroke: #000000; stroke-opacity: 0.3"/>
     <use xlink:href="#m49a03e9623" x="161.157812" y="80.209381" style="fill-opacity: 0.3; stroke: #000000; stroke-opacity: 0.3"/>
     <use xlink:href="#m49a03e9623" x="212.146449" y="72.616928" style="fill-opacity: 0.3; stroke: #000000; stroke-opacity: 0.3"/>
     <use xlink:href="#m49a03e9623" x="161.157812" y="76.413154" style="fill-opacity: 0.3; stroke: #000000; stroke-opacity: 0.3"/>
     <use xlink:href="#m49a03e9623" x="243.306171" y="49.83957" style="fill-opacity: 0.3; stroke: #000000; stroke-opacity: 0.3"/>
     <use xlink:href="#m49a03e9623" x="138.496196" y="118.171645" style="fill-opacity: 0.3; stroke: #000000; stroke-opacity: 0.3"/>
     <use xlink:href="#m49a03e9623" x="183.819429" y="140.949004" style="fill-opacity: 0.3; stroke: #000000; stroke-opacity: 0.3"/>
     <use xlink:href="#m49a03e9623" x="160.604296" y="133.356551" style="fill-opacity: 0.3; stroke: #000000; stroke-opacity: 0.3"/>
     <use xlink:href="#m49a03e9623" x="189.484833" y="148.541456" style="fill-opacity: 0.3; stroke: #000000; stroke-opacity: 0.3"/>
     <use xlink:href="#m49a03e9623" x="163.990515" y="106.782966" style="fill-opacity: 0.3; stroke: #000000; stroke-opacity: 0.3"/>
     <use xlink:href="#m49a03e9623" x="172.488621" y="137.152777" style="fill-opacity: 0.3; stroke: #000000; stroke-opacity: 0.3"/>
     <use xlink:href="#m49a03e9623" x="178.154025" y="125.764098" style="fill-opacity: 0.3; stroke: #000000; stroke-opacity: 0.3"/>
     <use xlink:href="#m49a03e9623" x="166.823217" y="137.152777" style="fill-opacity: 0.3; stroke: #000000; stroke-opacity: 0.3"/>
     <use xlink:href="#m49a03e9623" x="236.160597" y="99.190513" style="fill-opacity: 0.3; stroke: #000000; stroke-opacity: 0.3"/>
     <use xlink:href="#m49a03e9623" x="146.994302" y="159.930136" style="fill-opacity: 0.3; stroke: #000000; stroke-opacity: 0.3"/>
     <use xlink:href="#m49a03e9623" x="155.492408" y="125.764098" style="fill-opacity: 0.3; stroke: #000000; stroke-opacity: 0.3"/>
     <use xlink:href="#m49a03e9623" x="172.693721" y="95.394287" style="fill-opacity: 0.3; stroke: #000000; stroke-opacity: 0.3"/>
     <use xlink:href="#m49a03e9623" x="161.157812" y="106.782966" style="fill-opacity: 0.3; stroke: #000000; stroke-opacity: 0.3"/>
     <use xlink:href="#m49a03e9623" x="212.146449" y="91.59806" style="fill-opacity: 0.3; stroke: #000000; stroke-opacity: 0.3"/>
     <use xlink:href="#m49a03e9623" x="129.99809" y="216.873532" style="fill-opacity: 0.3; stroke: #000000; stroke-opacity: 0.3"/>
     <use xlink:href="#m49a03e9623" x="158.32511" y="110.579192" style="fill-opacity: 0.3; stroke: #000000; stroke-opacity: 0.3"/>
     <use xlink:href="#m49a03e9623" x="189.484833" y="68.820702" style="fill-opacity: 0.3; stroke: #000000; stroke-opacity: 0.3"/>
     <use xlink:href="#m49a03e9623" x="141.328898" y="84.005607" style="fill-opacity: 0.3; stroke: #000000; stroke-opacity: 0.3"/>
     <use xlink:href="#m49a03e9623" x="127.165388" y="175.115041" style="fill-opacity: 0.3; stroke: #000000; stroke-opacity: 0.3"/>
     <use xlink:href="#m49a03e9623" x="158.32511" y="91.59806" style="fill-opacity: 0.3; stroke: #000000; stroke-opacity: 0.3"/>
     <use xlink:href="#m49a03e9623" x="175.321323" y="163.726362" style="fill-opacity: 0.3; stroke: #000000; stroke-opacity: 0.3"/>
     <use xlink:href="#m49a03e9623" x="158.32511" y="137.152777" style="fill-opacity: 0.3; stroke: #000000; stroke-opacity: 0.3"/>
     <use xlink:href="#m49a03e9623" x="175.321323" y="102.986739" style="fill-opacity: 0.3; stroke: #000000; stroke-opacity: 0.3"/>
     <use xlink:href="#m49a03e9623" x="186.652131" y="118.171645" style="fill-opacity: 0.3; stroke: #000000; stroke-opacity: 0.3"/>
     <use xlink:href="#m49a03e9623" x="183.819429" y="102.986739" style="fill-opacity: 0.3; stroke: #000000; stroke-opacity: 0.3"/>
     <use xlink:href="#m49a03e9623" x="217.811853" y="121.967871" style="fill-opacity: 0.3; stroke: #000000; stroke-opacity: 0.3"/>
     <use xlink:href="#m49a03e9623" x="212.146449" y="99.190513" style="fill-opacity: 0.3; stroke: #000000; stroke-opacity: 0.3"/>
     <use xlink:href="#m49a03e9623" x="161.157812" y="148.541456" style="fill-opacity: 0.3; stroke: #000000; stroke-opacity: 0.3"/>
     <use xlink:href="#m49a03e9623" x="246.138873" y="99.190513" style="fill-opacity: 0.3; stroke: #000000; stroke-opacity: 0.3"/>
     <use xlink:href="#m49a03e9623" x="163.990515" y="140.949004" style="fill-opacity: 0.3; stroke: #000000; stroke-opacity: 0.3"/>
     <use xlink:href="#m49a03e9623" x="115.83458" y="133.356551" style="fill-opacity: 0.3; stroke: #000000; stroke-opacity: 0.3"/>
     <use xlink:href="#m49a03e9623" x="183.819429" y="114.375419" style="fill-opacity: 0.3; stroke: #000000; stroke-opacity: 0.3"/>
     <use xlink:href="#m49a03e9623" x="189.484833" y="99.190513" style="fill-opacity: 0.3; stroke: #000000; stroke-opacity: 0.3"/>
     <use xlink:href="#m49a03e9623" x="166.823217" y="114.375419" style="fill-opacity: 0.3; stroke: #000000; stroke-opacity: 0.3"/>
     <use xlink:href="#m49a03e9623" x="192.317535" y="91.59806" style="fill-opacity: 0.3; stroke: #000000; stroke-opacity: 0.3"/>
     <use xlink:href="#m49a03e9623" x="132.830792" y="144.74523" style="fill-opacity: 0.3; stroke: #000000; stroke-opacity: 0.3"/>
     <use xlink:href="#m49a03e9623" x="175.321323" y="140.949004" style="fill-opacity: 0.3; stroke: #000000; stroke-opacity: 0.3"/>
     <use xlink:href="#m49a03e9623" x="172.488621" y="125.764098" style="fill-opacity: 0.3; stroke: #000000; stroke-opacity: 0.3"/>
     <use xlink:href="#m49a03e9623" x="223.477257" y="133.356551" style="fill-opacity: 0.3; stroke: #000000; stroke-opacity: 0.3"/>
     <use xlink:href="#m49a03e9623" x="158.32511" y="137.152777" style="fill-opacity: 0.3; stroke: #000000; stroke-opacity: 0.3"/>
     <use xlink:href="#m49a03e9623" x="212.146449" y="133.356551" style="fill-opacity: 0.3; stroke: #000000; stroke-opacity: 0.3"/>
     <use xlink:href="#m49a03e9623" x="180.986727" y="91.59806" style="fill-opacity: 0.3; stroke: #000000; stroke-opacity: 0.3"/>
     <use xlink:href="#m49a03e9623" x="175.321323" y="144.74523" style="fill-opacity: 0.3; stroke: #000000; stroke-opacity: 0.3"/>
     <use xlink:href="#m49a03e9623" x="169.655919" y="114.375419" style="fill-opacity: 0.3; stroke: #000000; stroke-opacity: 0.3"/>
     <use xlink:href="#m49a03e9623" x="178.154025" y="125.764098" style="fill-opacity: 0.3; stroke: #000000; stroke-opacity: 0.3"/>
     <use xlink:href="#m49a03e9623" x="226.309959" y="84.005607" style="fill-opacity: 0.3; stroke: #000000; stroke-opacity: 0.3"/>
     <use xlink:href="#m49a03e9623" x="127.165388" y="148.541456" style="fill-opacity: 0.3; stroke: #000000; stroke-opacity: 0.3"/>
     <use xlink:href="#m49a03e9623" x="149.827004" y="190.299947" style="fill-opacity: 0.3; stroke: #000000; stroke-opacity: 0.3"/>
     <use xlink:href="#m49a03e9623" x="152.659706" y="137.152777" style="fill-opacity: 0.3; stroke: #000000; stroke-opacity: 0.3"/>
     <use xlink:href="#m49a03e9623" x="206.481045" y="99.190513" style="fill-opacity: 0.3; stroke: #000000; stroke-opacity: 0.3"/>
     <use xlink:href="#m49a03e9623" x="206.481045" y="102.986739" style="fill-opacity: 0.3; stroke: #000000; stroke-opacity: 0.3"/>
     <use xlink:href="#m49a03e9623" x="152.659706" y="137.152777" style="fill-opacity: 0.3; stroke: #000000; stroke-opacity: 0.3"/>
     <use xlink:href="#m49a03e9623" x="178.154025" y="99.190513" style="fill-opacity: 0.3; stroke: #000000; stroke-opacity: 0.3"/>
     <use xlink:href="#m49a03e9623" x="169.655919" y="99.190513" style="fill-opacity: 0.3; stroke: #000000; stroke-opacity: 0.3"/>
     <use xlink:href="#m49a03e9623" x="192.317535" y="118.171645" style="fill-opacity: 0.3; stroke: #000000; stroke-opacity: 0.3"/>
     <use xlink:href="#m49a03e9623" x="161.157812" y="57.432022" style="fill-opacity: 0.3; stroke: #000000; stroke-opacity: 0.3"/>
     <use xlink:href="#m49a03e9623" x="169.655919" y="140.949004" style="fill-opacity: 0.3; stroke: #000000; stroke-opacity: 0.3"/>
     <use xlink:href="#m49a03e9623" x="192.317535" y="133.356551" style="fill-opacity: 0.3; stroke: #000000; stroke-opacity: 0.3"/>
     <use xlink:href="#m49a03e9623" x="144.1616" y="114.375419" style="fill-opacity: 0.3; stroke: #000000; stroke-opacity: 0.3"/>
     <use xlink:href="#m49a03e9623" x="223.477257" y="137.152777" style="fill-opacity: 0.3; stroke: #000000; stroke-opacity: 0.3"/>
     <use xlink:href="#m49a03e9623" x="96.005666" y="182.707494" style="fill-opacity: 0.3; stroke: #000000; stroke-opacity: 0.3"/>
     <use xlink:href="#m49a03e9623" x="135.663494" y="232.058438" style="fill-opacity: 0.3; stroke: #000000; stroke-opacity: 0.3"/>
     <use xlink:href="#m49a03e9623" x="146.994302" y="133.356551" style="fill-opacity: 0.3; stroke: #000000; stroke-opacity: 0.3"/>
     <use xlink:href="#m49a03e9623" x="263.135085" y="30.858437" style="fill-opacity: 0.3; stroke: #000000; stroke-opacity: 0.3"/>
     <use xlink:href="#m49a03e9623" x="166.823217" y="224.465985" style="fill-opacity: 0.3; stroke: #000000; stroke-opacity: 0.3"/>
     <use xlink:href="#m49a03e9623" x="186.652131" y="114.375419" style="fill-opacity: 0.3; stroke: #000000; stroke-opacity: 0.3"/>
     <use xlink:href="#m49a03e9623" x="138.496196" y="68.820702" style="fill-opacity: 0.3; stroke: #000000; stroke-opacity: 0.3"/>
     <use xlink:href="#m49a03e9623" x="155.492408" y="133.356551" style="fill-opacity: 0.3; stroke: #000000; stroke-opacity: 0.3"/>
     <use xlink:href="#m49a03e9623" x="180.986727" y="148.541456" style="fill-opacity: 0.3; stroke: #000000; stroke-opacity: 0.3"/>
     <use xlink:href="#m49a03e9623" x="176.623814" y="110.579192" style="fill-opacity: 0.3; stroke: #000000; stroke-opacity: 0.3"/>
     <use xlink:href="#m49a03e9623" x="155.492408" y="156.133909" style="fill-opacity: 0.3; stroke: #000000; stroke-opacity: 0.3"/>
     <use xlink:href="#m49a03e9623" x="144.1616" y="110.579192" style="fill-opacity: 0.3; stroke: #000000; stroke-opacity: 0.3"/>
     <use xlink:href="#m49a03e9623" x="175.321323" y="137.152777" style="fill-opacity: 0.3; stroke: #000000; stroke-opacity: 0.3"/>
     <use xlink:href="#m49a03e9623" x="169.655919" y="121.967871" style="fill-opacity: 0.3; stroke: #000000; stroke-opacity: 0.3"/>
     <use xlink:href="#m49a03e9623" x="217.811853" y="118.171645" style="fill-opacity: 0.3; stroke: #000000; stroke-opacity: 0.3"/>
     <use xlink:href="#m49a03e9623" x="203.648343" y="99.190513" style="fill-opacity: 0.3; stroke: #000000; stroke-opacity: 0.3"/>
     <use xlink:href="#m49a03e9623" x="160.803725" y="140.949004" style="fill-opacity: 0.3; stroke: #000000; stroke-opacity: 0.3"/>
     <use xlink:href="#m49a03e9623" x="192.317535" y="137.152777" style="fill-opacity: 0.3; stroke: #000000; stroke-opacity: 0.3"/>
     <use xlink:href="#m49a03e9623" x="169.655919" y="152.337683" style="fill-opacity: 0.3; stroke: #000000; stroke-opacity: 0.3"/>
     <use xlink:href="#m49a03e9623" x="172.488621" y="118.171645" style="fill-opacity: 0.3; stroke: #000000; stroke-opacity: 0.3"/>
     <use xlink:href="#m49a03e9623" x="189.484833" y="197.8924" style="fill-opacity: 0.3; stroke: #000000; stroke-opacity: 0.3"/>
     <use xlink:href="#m49a03e9623" x="166.823217" y="114.375419" style="fill-opacity: 0.3; stroke: #000000; stroke-opacity: 0.3"/>
     <use xlink:href="#m49a03e9623" x="175.321323" y="114.375419" style="fill-opacity: 0.3; stroke: #000000; stroke-opacity: 0.3"/>
     <use xlink:href="#m49a03e9623" x="107.336474" y="167.522588" style="fill-opacity: 0.3; stroke: #000000; stroke-opacity: 0.3"/>
     <use xlink:href="#m49a03e9623" x="166.823217" y="99.190513" style="fill-opacity: 0.3; stroke: #000000; stroke-opacity: 0.3"/>
     <use xlink:href="#m49a03e9623" x="146.994302" y="159.930136" style="fill-opacity: 0.3; stroke: #000000; stroke-opacity: 0.3"/>
     <use xlink:href="#m49a03e9623" x="178.154025" y="102.986739" style="fill-opacity: 0.3; stroke: #000000; stroke-opacity: 0.3"/>
     <use xlink:href="#m49a03e9623" x="186.652131" y="140.949004" style="fill-opacity: 0.3; stroke: #000000; stroke-opacity: 0.3"/>
     <use xlink:href="#m49a03e9623" x="180.986727" y="102.986739" style="fill-opacity: 0.3; stroke: #000000; stroke-opacity: 0.3"/>
     <use xlink:href="#m49a03e9623" x="180.986727" y="133.356551" style="fill-opacity: 0.3; stroke: #000000; stroke-opacity: 0.3"/>
     <use xlink:href="#m49a03e9623" x="192.317535" y="114.375419" style="fill-opacity: 0.3; stroke: #000000; stroke-opacity: 0.3"/>
     <use xlink:href="#m49a03e9623" x="195.150237" y="121.967871" style="fill-opacity: 0.3; stroke: #000000; stroke-opacity: 0.3"/>
     <use xlink:href="#m49a03e9623" x="180.986727" y="232.058438" style="fill-opacity: 0.3; stroke: #000000; stroke-opacity: 0.3"/>
     <use xlink:href="#m49a03e9623" x="144.1616" y="114.375419" style="fill-opacity: 0.3; stroke: #000000; stroke-opacity: 0.3"/>
     <use xlink:href="#m49a03e9623" x="161.157812" y="114.375419" style="fill-opacity: 0.3; stroke: #000000; stroke-opacity: 0.3"/>
     <use xlink:href="#m49a03e9623" x="129.99809" y="133.356551" style="fill-opacity: 0.3; stroke: #000000; stroke-opacity: 0.3"/>
     <use xlink:href="#m49a03e9623" x="146.994302" y="114.375419" style="fill-opacity: 0.3; stroke: #000000; stroke-opacity: 0.3"/>
     <use xlink:href="#m49a03e9623" x="166.823217" y="152.337683" style="fill-opacity: 0.3; stroke: #000000; stroke-opacity: 0.3"/>
     <use xlink:href="#m49a03e9623" x="166.823217" y="106.782966" style="fill-opacity: 0.3; stroke: #000000; stroke-opacity: 0.3"/>
     <use xlink:href="#m49a03e9623" x="149.827004" y="102.986739" style="fill-opacity: 0.3; stroke: #000000; stroke-opacity: 0.3"/>
     <use xlink:href="#m49a03e9623" x="152.659706" y="133.356551" style="fill-opacity: 0.3; stroke: #000000; stroke-opacity: 0.3"/>
     <use xlink:href="#m49a03e9623" x="163.990515" y="129.560324" style="fill-opacity: 0.3; stroke: #000000; stroke-opacity: 0.3"/>
     <use xlink:href="#m49a03e9623" x="132.830792" y="137.152777" style="fill-opacity: 0.3; stroke: #000000; stroke-opacity: 0.3"/>
     <use xlink:href="#m49a03e9623" x="155.492408" y="171.318815" style="fill-opacity: 0.3; stroke: #000000; stroke-opacity: 0.3"/>
     <use xlink:href="#m49a03e9623" x="166.823217" y="87.801834" style="fill-opacity: 0.3; stroke: #000000; stroke-opacity: 0.3"/>
     <use xlink:href="#m49a03e9623" x="243.306171" y="171.318815" style="fill-opacity: 0.3; stroke: #000000; stroke-opacity: 0.3"/>
     <use xlink:href="#m49a03e9623" x="169.655919" y="99.190513" style="fill-opacity: 0.3; stroke: #000000; stroke-opacity: 0.3"/>
     <use xlink:href="#m49a03e9623" x="111.291859" y="129.560324" style="fill-opacity: 0.3; stroke: #000000; stroke-opacity: 0.3"/>
     <use xlink:href="#m49a03e9623" x="214.979151" y="72.616928" style="fill-opacity: 0.3; stroke: #000000; stroke-opacity: 0.3"/>
     <use xlink:href="#m49a03e9623" x="141.328898" y="190.299947" style="fill-opacity: 0.3; stroke: #000000; stroke-opacity: 0.3"/>
     <use xlink:href="#m49a03e9623" x="163.990515" y="137.152777" style="fill-opacity: 0.3; stroke: #000000; stroke-opacity: 0.3"/>
     <use xlink:href="#m49a03e9623" x="129.99809" y="72.616928" style="fill-opacity: 0.3; stroke: #000000; stroke-opacity: 0.3"/>
     <use xlink:href="#m49a03e9623" x="152.659706" y="137.152777" style="fill-opacity: 0.3; stroke: #000000; stroke-opacity: 0.3"/>
     <use xlink:href="#m49a03e9623" x="175.321323" y="118.171645" style="fill-opacity: 0.3; stroke: #000000; stroke-opacity: 0.3"/>
     <use xlink:href="#m49a03e9623" x="59.18054" y="57.432022" style="fill-opacity: 0.3; stroke: #000000; stroke-opacity: 0.3"/>
     <use xlink:href="#m49a03e9623" x="203.648343" y="114.375419" style="fill-opacity: 0.3; stroke: #000000; stroke-opacity: 0.3"/>
     <use xlink:href="#m49a03e9623" x="161.157812" y="118.171645" style="fill-opacity: 0.3; stroke: #000000; stroke-opacity: 0.3"/>
     <use xlink:href="#m49a03e9623" x="183.819429" y="95.394287" style="fill-opacity: 0.3; stroke: #000000; stroke-opacity: 0.3"/>
     <use xlink:href="#m49a03e9623" x="180.809683" y="95.394287" style="fill-opacity: 0.3; stroke: #000000; stroke-opacity: 0.3"/>
     <use xlink:href="#m49a03e9623" x="183.819429" y="99.190513" style="fill-opacity: 0.3; stroke: #000000; stroke-opacity: 0.3"/>
     <use xlink:href="#m49a03e9623" x="192.317535" y="118.171645" style="fill-opacity: 0.3; stroke: #000000; stroke-opacity: 0.3"/>
     <use xlink:href="#m49a03e9623" x="158.32511" y="114.375419" style="fill-opacity: 0.3; stroke: #000000; stroke-opacity: 0.3"/>
     <use xlink:href="#m49a03e9623" x="178.154025" y="144.74523" style="fill-opacity: 0.3; stroke: #000000; stroke-opacity: 0.3"/>
     <use xlink:href="#m49a03e9623" x="135.663494" y="49.83957" style="fill-opacity: 0.3; stroke: #000000; stroke-opacity: 0.3"/>
     <use xlink:href="#m49a03e9623" x="203.648343" y="110.579192" style="fill-opacity: 0.3; stroke: #000000; stroke-opacity: 0.3"/>
     <use xlink:href="#m49a03e9623" x="195.150237" y="110.579192" style="fill-opacity: 0.3; stroke: #000000; stroke-opacity: 0.3"/>
     <use xlink:href="#m49a03e9623" x="157.262847" y="99.832367" style="fill-opacity: 0.3; stroke: #000000; stroke-opacity: 0.3"/>
     <use xlink:href="#m49a03e9623" x="186.652131" y="129.560324" style="fill-opacity: 0.3; stroke: #000000; stroke-opacity: 0.3"/>
     <use xlink:href="#m49a03e9623" x="149.827004" y="118.171645" style="fill-opacity: 0.3; stroke: #000000; stroke-opacity: 0.3"/>
     <use xlink:href="#m49a03e9623" x="121.499984" y="137.152777" style="fill-opacity: 0.3; stroke: #000000; stroke-opacity: 0.3"/>
     <use xlink:href="#m49a03e9623" x="161.157812" y="91.59806" style="fill-opacity: 0.3; stroke: #000000; stroke-opacity: 0.3"/>
     <use xlink:href="#m49a03e9623" x="195.150237" y="87.801834" style="fill-opacity: 0.3; stroke: #000000; stroke-opacity: 0.3"/>
     <use xlink:href="#m49a03e9623" x="161.157812" y="114.375419" style="fill-opacity: 0.3; stroke: #000000; stroke-opacity: 0.3"/>
     <use xlink:href="#m49a03e9623" x="155.492408" y="49.83957" style="fill-opacity: 0.3; stroke: #000000; stroke-opacity: 0.3"/>
     <use xlink:href="#m49a03e9623" x="178.154025" y="102.986739" style="fill-opacity: 0.3; stroke: #000000; stroke-opacity: 0.3"/>
     <use xlink:href="#m49a03e9623" x="166.823217" y="144.74523" style="fill-opacity: 0.3; stroke: #000000; stroke-opacity: 0.3"/>
     <use xlink:href="#m49a03e9623" x="149.827004" y="152.337683" style="fill-opacity: 0.3; stroke: #000000; stroke-opacity: 0.3"/>
     <use xlink:href="#m49a03e9623" x="163.990515" y="125.764098" style="fill-opacity: 0.3; stroke: #000000; stroke-opacity: 0.3"/>
     <use xlink:href="#m49a03e9623" x="166.823217" y="144.74523" style="fill-opacity: 0.3; stroke: #000000; stroke-opacity: 0.3"/>
     <use xlink:href="#m49a03e9623" x="172.488621" y="125.764098" style="fill-opacity: 0.3; stroke: #000000; stroke-opacity: 0.3"/>
     <use xlink:href="#m49a03e9623" x="192.317535" y="137.152777" style="fill-opacity: 0.3; stroke: #000000; stroke-opacity: 0.3"/>
     <use xlink:href="#m49a03e9623" x="172.488621" y="133.356551" style="fill-opacity: 0.3; stroke: #000000; stroke-opacity: 0.3"/>
     <use xlink:href="#m49a03e9623" x="192.317535" y="110.579192" style="fill-opacity: 0.3; stroke: #000000; stroke-opacity: 0.3"/>
     <use xlink:href="#m49a03e9623" x="152.659706" y="148.541456" style="fill-opacity: 0.3; stroke: #000000; stroke-opacity: 0.3"/>
     <use xlink:href="#m49a03e9623" x="158.32511" y="99.190513" style="fill-opacity: 0.3; stroke: #000000; stroke-opacity: 0.3"/>
     <use xlink:href="#m49a03e9623" x="152.659706" y="129.560324" style="fill-opacity: 0.3; stroke: #000000; stroke-opacity: 0.3"/>
     <use xlink:href="#m49a03e9623" x="189.484833" y="99.190513" style="fill-opacity: 0.3; stroke: #000000; stroke-opacity: 0.3"/>
     <use xlink:href="#m49a03e9623" x="158.32511" y="137.152777" style="fill-opacity: 0.3; stroke: #000000; stroke-opacity: 0.3"/>
     <use xlink:href="#m49a03e9623" x="138.496196" y="152.337683" style="fill-opacity: 0.3; stroke: #000000; stroke-opacity: 0.3"/>
     <use xlink:href="#m49a03e9623" x="115.83458" y="129.560324" style="fill-opacity: 0.3; stroke: #000000; stroke-opacity: 0.3"/>
     <use xlink:href="#m49a03e9623" x="163.990515" y="129.560324" style="fill-opacity: 0.3; stroke: #000000; stroke-opacity: 0.3"/>
     <use xlink:href="#m49a03e9623" x="158.32511" y="144.74523" style="fill-opacity: 0.3; stroke: #000000; stroke-opacity: 0.3"/>
     <use xlink:href="#m49a03e9623" x="146.994302" y="133.356551" style="fill-opacity: 0.3; stroke: #000000; stroke-opacity: 0.3"/>
     <use xlink:href="#m49a03e9623" x="166.823217" y="140.949004" style="fill-opacity: 0.3; stroke: #000000; stroke-opacity: 0.3"/>
     <use xlink:href="#m49a03e9623" x="203.648343" y="65.024475" style="fill-opacity: 0.3; stroke: #000000; stroke-opacity: 0.3"/>
     <use xlink:href="#m49a03e9623" x="206.481045" y="110.579192" style="fill-opacity: 0.3; stroke: #000000; stroke-opacity: 0.3"/>
     <use xlink:href="#m49a03e9623" x="101.67107" y="148.541456" style="fill-opacity: 0.3; stroke: #000000; stroke-opacity: 0.3"/>
     <use xlink:href="#m49a03e9623" x="240.473469" y="68.820702" style="fill-opacity: 0.3; stroke: #000000; stroke-opacity: 0.3"/>
     <use xlink:href="#m49a03e9623" x="180.986727" y="129.560324" style="fill-opacity: 0.3; stroke: #000000; stroke-opacity: 0.3"/>
     <use xlink:href="#m49a03e9623" x="163.990515" y="57.432022" style="fill-opacity: 0.3; stroke: #000000; stroke-opacity: 0.3"/>
     <use xlink:href="#m49a03e9623" x="209.313747" y="148.541456" style="fill-opacity: 0.3; stroke: #000000; stroke-opacity: 0.3"/>
     <use xlink:href="#m49a03e9623" x="195.150237" y="118.171645" style="fill-opacity: 0.3; stroke: #000000; stroke-opacity: 0.3"/>
     <use xlink:href="#m49a03e9623" x="180.986727" y="87.801834" style="fill-opacity: 0.3; stroke: #000000; stroke-opacity: 0.3"/>
     <use xlink:href="#m49a03e9623" x="175.321323" y="129.560324" style="fill-opacity: 0.3; stroke: #000000; stroke-opacity: 0.3"/>
     <use xlink:href="#m49a03e9623" x="166.823217" y="129.560324" style="fill-opacity: 0.3; stroke: #000000; stroke-opacity: 0.3"/>
     <use xlink:href="#m49a03e9623" x="163.990515" y="156.133909" style="fill-opacity: 0.3; stroke: #000000; stroke-opacity: 0.3"/>
     <use xlink:href="#m49a03e9623" x="118.667282" y="129.560324" style="fill-opacity: 0.3; stroke: #000000; stroke-opacity: 0.3"/>
     <use xlink:href="#m49a03e9623" x="144.1616" y="99.190513" style="fill-opacity: 0.3; stroke: #000000; stroke-opacity: 0.3"/>
     <use xlink:href="#m49a03e9623" x="152.659706" y="106.782966" style="fill-opacity: 0.3; stroke: #000000; stroke-opacity: 0.3"/>
     <use xlink:href="#m49a03e9623" x="146.994302" y="144.74523" style="fill-opacity: 0.3; stroke: #000000; stroke-opacity: 0.3"/>
     <use xlink:href="#m49a03e9623" x="195.150237" y="72.616928" style="fill-opacity: 0.3; stroke: #000000; stroke-opacity: 0.3"/>
     <use xlink:href="#m49a03e9623" x="146.994302" y="125.764098" style="fill-opacity: 0.3; stroke: #000000; stroke-opacity: 0.3"/>
     <use xlink:href="#m49a03e9623" x="196.657965" y="133.356551" style="fill-opacity: 0.3; stroke: #000000; stroke-opacity: 0.3"/>
     <use xlink:href="#m49a03e9623" x="189.484833" y="91.59806" style="fill-opacity: 0.3; stroke: #000000; stroke-opacity: 0.3"/>
     <use xlink:href="#m49a03e9623" x="195.150237" y="95.394287" style="fill-opacity: 0.3; stroke: #000000; stroke-opacity: 0.3"/>
     <use xlink:href="#m49a03e9623" x="135.663494" y="125.764098" style="fill-opacity: 0.3; stroke: #000000; stroke-opacity: 0.3"/>
     <use xlink:href="#m49a03e9623" x="234.808065" y="137.152777" style="fill-opacity: 0.3; stroke: #000000; stroke-opacity: 0.3"/>
     <use xlink:href="#m49a03e9623" x="166.823217" y="65.024475" style="fill-opacity: 0.3; stroke: #000000; stroke-opacity: 0.3"/>
     <use xlink:href="#m49a03e9623" x="161.157812" y="87.801834" style="fill-opacity: 0.3; stroke: #000000; stroke-opacity: 0.3"/>
     <use xlink:href="#m49a03e9623" x="175.321323" y="114.375419" style="fill-opacity: 0.3; stroke: #000000; stroke-opacity: 0.3"/>
     <use xlink:href="#m49a03e9623" x="180.986727" y="144.74523" style="fill-opacity: 0.3; stroke: #000000; stroke-opacity: 0.3"/>
     <use xlink:href="#m49a03e9623" x="163.990515" y="137.152777" style="fill-opacity: 0.3; stroke: #000000; stroke-opacity: 0.3"/>
     <use xlink:href="#m49a03e9623" x="229.142661" y="53.635796" style="fill-opacity: 0.3; stroke: #000000; stroke-opacity: 0.3"/>
     <use xlink:href="#m49a03e9623" x="175.321323" y="72.616928" style="fill-opacity: 0.3; stroke: #000000; stroke-opacity: 0.3"/>
    </g>
   </g>
   <g id="FillBetweenPolyCollection_1">
    <path d="M 59.18054 134.894779 
L 59.18054 181.359499 
L 61.240687 180.176681 
L 63.300834 179.063214 
L 65.360981 177.988993 
L 67.421127 176.921281 
L 69.481274 175.865694 
L 71.541421 174.768148 
L 73.601568 173.636018 
L 75.661715 172.471159 
L 77.721862 171.356667 
L 79.782009 170.268767 
L 81.842156 169.219735 
L 83.902303 168.170703 
L 85.96245 167.12167 
L 88.022597 166.072638 
L 90.082744 165.023606 
L 92.142891 163.973353 
L 94.203037 162.853889 
L 96.263184 161.822046 
L 98.323331 160.708165 
L 100.383478 159.593235 
L 102.443625 158.478216 
L 104.503772 157.363197 
L 106.563919 156.304429 
L 108.624066 155.284813 
L 110.684213 154.23589 
L 112.74436 153.064778 
L 114.804507 152.015238 
L 116.864654 151.02076 
L 118.924801 150.004987 
L 120.984947 149.001659 
L 123.045094 147.967431 
L 125.105241 146.895535 
L 127.165388 145.775272 
L 129.225535 144.620227 
L 131.285682 143.462856 
L 133.345829 142.355187 
L 135.405976 141.186514 
L 137.466123 139.991899 
L 139.52627 138.83674 
L 141.586417 137.735443 
L 143.646564 136.606806 
L 145.706711 135.590572 
L 147.766857 134.709057 
L 149.827004 133.753775 
L 151.887151 132.610371 
L 153.947298 131.67731 
L 156.007445 130.724168 
L 158.067592 129.855342 
L 160.127739 129.123784 
L 162.187886 128.376488 
L 164.248033 127.493106 
L 166.30818 126.708201 
L 168.368327 125.816694 
L 170.428474 124.995106 
L 172.488621 124.345367 
L 174.548768 123.557038 
L 176.608914 122.828232 
L 178.669061 122.098922 
L 180.729208 121.569367 
L 182.789355 120.982503 
L 184.849502 120.423728 
L 186.909649 119.914828 
L 188.969796 119.519421 
L 191.029943 119.048108 
L 193.09009 118.743389 
L 195.150237 118.322828 
L 197.210384 117.90546 
L 199.270531 117.486161 
L 201.330678 117.045072 
L 203.390824 116.778622 
L 205.450971 116.54807 
L 207.511118 116.147988 
L 209.571265 115.74628 
L 211.631412 115.4378 
L 213.691559 114.987373 
L 215.751706 114.719707 
L 217.811853 114.445443 
L 219.872 114.051256 
L 221.932147 113.905271 
L 223.992294 113.553071 
L 226.052441 113.173244 
L 228.112588 112.793417 
L 230.172734 112.413591 
L 232.232881 112.033764 
L 234.293028 111.650188 
L 236.353175 111.266254 
L 238.413322 110.939039 
L 240.473469 110.668207 
L 242.533616 110.291902 
L 244.593763 109.982803 
L 246.65391 109.701027 
L 248.714057 109.41925 
L 250.774204 109.135487 
L 252.834351 108.849342 
L 254.894498 108.560992 
L 256.954644 108.272643 
L 259.014791 107.984294 
L 261.074938 107.695945 
L 263.135085 107.407596 
L 263.135085 71.099512 
L 263.135085 71.099512 
L 261.074938 72.146295 
L 259.014791 73.193077 
L 256.954644 74.290821 
L 254.894498 75.470382 
L 252.834351 76.649942 
L 250.774204 77.768284 
L 248.714057 78.842772 
L 246.65391 79.874935 
L 244.593763 80.896197 
L 242.533616 81.917459 
L 240.473469 83.024526 
L 238.413322 84.15669 
L 236.353175 85.275143 
L 234.293028 86.28257 
L 232.232881 87.289997 
L 230.172734 88.297425 
L 228.112588 89.305941 
L 226.052441 90.246688 
L 223.992294 91.32068 
L 221.932147 92.329632 
L 219.872 93.368211 
L 217.811853 94.531652 
L 215.751706 95.589444 
L 213.691559 96.531208 
L 211.631412 97.547366 
L 209.571265 98.659358 
L 207.511118 99.77135 
L 205.450971 100.833791 
L 203.390824 101.934608 
L 201.330678 103.039796 
L 199.270531 104.138898 
L 197.210384 105.20619 
L 195.150237 106.22991 
L 193.09009 107.340796 
L 191.029943 108.331515 
L 188.969796 109.242017 
L 186.909649 110.133079 
L 184.849502 111.078796 
L 182.789355 112.030741 
L 180.729208 112.840075 
L 178.669061 113.586209 
L 176.608914 114.23343 
L 174.548768 114.863674 
L 172.488621 115.613473 
L 170.428474 116.23195 
L 168.368327 116.746195 
L 166.30818 117.300596 
L 164.248033 117.854746 
L 162.187886 118.305264 
L 160.127739 118.831451 
L 158.067592 119.35786 
L 156.007445 119.795627 
L 153.947298 120.279177 
L 151.887151 120.790311 
L 149.827004 121.286015 
L 147.766857 121.63893 
L 145.706711 122.019247 
L 143.646564 122.563621 
L 141.586417 122.857149 
L 139.52627 123.120913 
L 137.466123 123.428934 
L 135.405976 123.760432 
L 133.345829 124.033504 
L 131.285682 124.333565 
L 129.225535 124.791144 
L 127.165388 125.250992 
L 125.105241 125.542497 
L 123.045094 125.923889 
L 120.984947 126.327119 
L 118.924801 126.59921 
L 116.864654 126.758717 
L 114.804507 126.921701 
L 112.74436 127.08713 
L 110.684213 127.46057 
L 108.624066 127.860423 
L 106.563919 128.119329 
L 104.503772 128.344571 
L 102.443625 128.702241 
L 100.383478 129.104427 
L 98.323331 129.506613 
L 96.263184 129.790606 
L 94.203037 130.016371 
L 92.142891 130.310057 
L 90.082744 130.64794 
L 88.022597 130.985823 
L 85.96245 131.323706 
L 83.902303 131.612596 
L 81.842156 131.801954 
L 79.782009 131.992668 
L 77.721862 132.183383 
L 75.661715 132.374097 
L 73.601568 132.613797 
L 71.541421 132.915755 
L 69.481274 133.22133 
L 67.421127 133.527667 
L 65.360981 133.834005 
L 63.300834 134.171787 
L 61.240687 134.533283 
L 59.18054 134.894779 
z
" clip-path="url(#pabcd1d2479)" style="fill-opacity: 0.15"/>
   </g>
   <g id="matplotlib.axis_1">
    <g id="xtick_1">
     <g id="line2d_1">
      <defs>
       <path id="m546d84dcba" d="M 0 0 
L 0 3.5 
" style="stroke: #000000; stroke-width: 0.5"/>
      </defs>
      <g>
       <use xlink:href="#m546d84dcba" x="53.515136" y="242.118437" style="stroke: #000000; stroke-width: 0.5"/>
      </g>
     </g>
     <g id="text_1">
      <text style="font-size: 10px; font-family: 'DejaVu Sans', 'Bitstream Vera Sans', 'Computer Modern Sans Serif', 'Lucida Grande', 'Verdana', 'Geneva', 'Lucid', 'Arial', 'Helvetica', 'Avant Garde', sans-serif; text-anchor: middle" x="53.515136" y="256.716875" transform="rotate(-0 53.515136 256.716875)">−60</text>
     </g>
    </g>
    <g id="xtick_2">
     <g id="line2d_2">
      <g>
       <use xlink:href="#m546d84dcba" x="90.340262" y="242.118437" style="stroke: #000000; stroke-width: 0.5"/>
      </g>
     </g>
     <g id="text_2">
      <text style="font-size: 10px; font-family: 'DejaVu Sans', 'Bitstream Vera Sans', 'Computer Modern Sans Serif', 'Lucida Grande', 'Verdana', 'Geneva', 'Lucid', 'Arial', 'Helvetica', 'Avant Garde', sans-serif; text-anchor: middle" x="90.340262" y="256.716875" transform="rotate(-0 90.340262 256.716875)">−40</text>
     </g>
    </g>
    <g id="xtick_3">
     <g id="line2d_3">
      <g>
       <use xlink:href="#m546d84dcba" x="127.165388" y="242.118437" style="stroke: #000000; stroke-width: 0.5"/>
      </g>
     </g>
     <g id="text_3">
      <text style="font-size: 10px; font-family: 'DejaVu Sans', 'Bitstream Vera Sans', 'Computer Modern Sans Serif', 'Lucida Grande', 'Verdana', 'Geneva', 'Lucid', 'Arial', 'Helvetica', 'Avant Garde', sans-serif; text-anchor: middle" x="127.165388" y="256.716875" transform="rotate(-0 127.165388 256.716875)">−20</text>
     </g>
    </g>
    <g id="xtick_4">
     <g id="line2d_4">
      <g>
       <use xlink:href="#m546d84dcba" x="163.990515" y="242.118437" style="stroke: #000000; stroke-width: 0.5"/>
      </g>
     </g>
     <g id="text_4">
      <text style="font-size: 10px; font-family: 'DejaVu Sans', 'Bitstream Vera Sans', 'Computer Modern Sans Serif', 'Lucida Grande', 'Verdana', 'Geneva', 'Lucid', 'Arial', 'Helvetica', 'Avant Garde', sans-serif; text-anchor: middle" x="163.990515" y="256.716875" transform="rotate(-0 163.990515 256.716875)">0</text>
     </g>
    </g>
    <g id="xtick_5">
     <g id="line2d_5">
      <g>
       <use xlink:href="#m546d84dcba" x="200.815641" y="242.118437" style="stroke: #000000; stroke-width: 0.5"/>
      </g>
     </g>
     <g id="text_5">
      <text style="font-size: 10px; font-family: 'DejaVu Sans', 'Bitstream Vera Sans', 'Computer Modern Sans Serif', 'Lucida Grande', 'Verdana', 'Geneva', 'Lucid', 'Arial', 'Helvetica', 'Avant Garde', sans-serif; text-anchor: middle" x="200.815641" y="256.716875" transform="rotate(-0 200.815641 256.716875)">20</text>
     </g>
    </g>
    <g id="xtick_6">
     <g id="line2d_6">
      <g>
       <use xlink:href="#m546d84dcba" x="237.640767" y="242.118437" style="stroke: #000000; stroke-width: 0.5"/>
      </g>
     </g>
     <g id="text_6">
      <text style="font-size: 10px; font-family: 'DejaVu Sans', 'Bitstream Vera Sans', 'Computer Modern Sans Serif', 'Lucida Grande', 'Verdana', 'Geneva', 'Lucid', 'Arial', 'Helvetica', 'Avant Garde', sans-serif; text-anchor: middle" x="237.640767" y="256.716875" transform="rotate(-0 237.640767 256.716875)">40</text>
     </g>
    </g>
    <g id="text_7">
     <text style="font-size: 10px; font-family: 'DejaVu Sans', 'Bitstream Vera Sans', 'Computer Modern Sans Serif', 'Lucida Grande', 'Verdana', 'Geneva', 'Lucid', 'Arial', 'Helvetica', 'Avant Garde', sans-serif; text-anchor: middle" x="161.157812" y="270.395" transform="rotate(-0 161.157812 270.395)">LT accuracy gain minus loss (%)</text>
    </g>
   </g>
   <g id="matplotlib.axis_2">
    <g id="ytick_1">
     <g id="line2d_7">
      <defs>
       <path id="m1e78603f20" d="M 0 0 
L -3.5 0 
" style="stroke: #000000; stroke-width: 0.5"/>
      </defs>
      <g>
       <use xlink:href="#m1e78603f20" x="48.982813" y="220.669758" style="stroke: #000000; stroke-width: 0.5"/>
      </g>
     </g>
     <g id="text_8">
      <text style="font-size: 10px; font-family: 'DejaVu Sans', 'Bitstream Vera Sans', 'Computer Modern Sans Serif', 'Lucida Grande', 'Verdana', 'Geneva', 'Lucid', 'Arial', 'Helvetica', 'Avant Garde', sans-serif; text-anchor: end" x="41.982813" y="224.468977" transform="rotate(-0 41.982813 224.468977)">−75</text>
     </g>
    </g>
    <g id="ytick_2">
     <g id="line2d_8">
      <g>
       <use xlink:href="#m1e78603f20" x="48.982813" y="190.299947" style="stroke: #000000; stroke-width: 0.5"/>
      </g>
     </g>
     <g id="text_9">
      <text style="font-size: 10px; font-family: 'DejaVu Sans', 'Bitstream Vera Sans', 'Computer Modern Sans Serif', 'Lucida Grande', 'Verdana', 'Geneva', 'Lucid', 'Arial', 'Helvetica', 'Avant Garde', sans-serif; text-anchor: end" x="41.982813" y="194.099166" transform="rotate(-0 41.982813 194.099166)">−50</text>
     </g>
    </g>
    <g id="ytick_3">
     <g id="line2d_9">
      <g>
       <use xlink:href="#m1e78603f20" x="48.982813" y="159.930136" style="stroke: #000000; stroke-width: 0.5"/>
      </g>
     </g>
     <g id="text_10">
      <text style="font-size: 10px; font-family: 'DejaVu Sans', 'Bitstream Vera Sans', 'Computer Modern Sans Serif', 'Lucida Grande', 'Verdana', 'Geneva', 'Lucid', 'Arial', 'Helvetica', 'Avant Garde', sans-serif; text-anchor: end" x="41.982813" y="163.729354" transform="rotate(-0 41.982813 163.729354)">−25</text>
     </g>
    </g>
    <g id="ytick_4">
     <g id="line2d_10">
      <g>
       <use xlink:href="#m1e78603f20" x="48.982813" y="129.560324" style="stroke: #000000; stroke-width: 0.5"/>
      </g>
     </g>
     <g id="text_11">
      <text style="font-size: 10px; font-family: 'DejaVu Sans', 'Bitstream Vera Sans', 'Computer Modern Sans Serif', 'Lucida Grande', 'Verdana', 'Geneva', 'Lucid', 'Arial', 'Helvetica', 'Avant Garde', sans-serif; text-anchor: end" x="41.982813" y="133.359543" transform="rotate(-0 41.982813 133.359543)">0</text>
     </g>
    </g>
    <g id="ytick_5">
     <g id="line2d_11">
      <g>
       <use xlink:href="#m1e78603f20" x="48.982813" y="99.190513" style="stroke: #000000; stroke-width: 0.5"/>
      </g>
     </g>
     <g id="text_12">
      <text style="font-size: 10px; font-family: 'DejaVu Sans', 'Bitstream Vera Sans', 'Computer Modern Sans Serif', 'Lucida Grande', 'Verdana', 'Geneva', 'Lucid', 'Arial', 'Helvetica', 'Avant Garde', sans-serif; text-anchor: end" x="41.982813" y="102.989732" transform="rotate(-0 41.982813 102.989732)">25</text>
     </g>
    </g>
    <g id="ytick_6">
     <g id="line2d_12">
      <g>
       <use xlink:href="#m1e78603f20" x="48.982813" y="68.820702" style="stroke: #000000; stroke-width: 0.5"/>
      </g>
     </g>
     <g id="text_13">
      <text style="font-size: 10px; font-family: 'DejaVu Sans', 'Bitstream Vera Sans', 'Computer Modern Sans Serif', 'Lucida Grande', 'Verdana', 'Geneva', 'Lucid', 'Arial', 'Helvetica', 'Avant Garde', sans-serif; text-anchor: end" x="41.982813" y="72.61992" transform="rotate(-0 41.982813 72.61992)">50</text>
     </g>
    </g>
    <g id="ytick_7">
     <g id="line2d_13">
      <g>
       <use xlink:href="#m1e78603f20" x="48.982813" y="38.45089" style="stroke: #000000; stroke-width: 0.5"/>
      </g>
     </g>
     <g id="text_14">
      <text style="font-size: 10px; font-family: 'DejaVu Sans', 'Bitstream Vera Sans', 'Computer Modern Sans Serif', 'Lucida Grande', 'Verdana', 'Geneva', 'Lucid', 'Arial', 'Helvetica', 'Avant Garde', sans-serif; text-anchor: end" x="41.982813" y="42.250109" transform="rotate(-0 41.982813 42.250109)">75</text>
     </g>
    </g>
    <g id="text_15">
     <text style="font-size: 10px; font-family: 'DejaVu Sans', 'Bitstream Vera Sans', 'Computer Modern Sans Serif', 'Lucida Grande', 'Verdana', 'Geneva', 'Lucid', 'Arial', 'Helvetica', 'Avant Garde', sans-serif; text-anchor: middle" x="14.798438" y="131.458438" transform="rotate(-90 14.798438 131.458438)">SC accuracy gain minus loss (%)</text>
    </g>
   </g>
   <g id="line2d_14">
    <path d="M 59.18054 157.795962 
L 61.240687 157.105314 
L 63.300834 156.414666 
L 65.360981 155.724017 
L 67.421127 155.033369 
L 69.481274 154.34272 
L 71.541421 153.652072 
L 73.601568 152.961423 
L 75.661715 152.270775 
L 77.721862 151.580126 
L 79.782009 150.889478 
L 81.842156 150.198829 
L 83.902303 149.508181 
L 85.96245 148.817532 
L 88.022597 148.126884 
L 90.082744 147.436235 
L 92.142891 146.745587 
L 94.203037 146.054938 
L 96.263184 145.36429 
L 98.323331 144.673642 
L 100.383478 143.982993 
L 102.443625 143.292345 
L 104.503772 142.601696 
L 106.563919 141.911048 
L 108.624066 141.220399 
L 110.684213 140.529751 
L 112.74436 139.839102 
L 114.804507 139.148454 
L 116.864654 138.457805 
L 118.924801 137.767157 
L 120.984947 137.076508 
L 123.045094 136.38586 
L 125.105241 135.695211 
L 127.165388 135.004563 
L 129.225535 134.313914 
L 131.285682 133.623266 
L 133.345829 132.932618 
L 135.405976 132.241969 
L 137.466123 131.551321 
L 139.52627 130.860672 
L 141.586417 130.170024 
L 143.646564 129.479375 
L 145.706711 128.788727 
L 147.766857 128.098078 
L 149.827004 127.40743 
L 151.887151 126.716781 
L 153.947298 126.026133 
L 156.007445 125.335484 
L 158.067592 124.644836 
L 160.127739 123.954187 
L 162.187886 123.263539 
L 164.248033 122.57289 
L 166.30818 121.882242 
L 168.368327 121.191594 
L 170.428474 120.500945 
L 172.488621 119.810297 
L 174.548768 119.119648 
L 176.608914 118.429 
L 178.669061 117.738351 
L 180.729208 117.047703 
L 182.789355 116.357054 
L 184.849502 115.666406 
L 186.909649 114.975757 
L 188.969796 114.285109 
L 191.029943 113.59446 
L 193.09009 112.903812 
L 195.150237 112.213163 
L 197.210384 111.522515 
L 199.270531 110.831866 
L 201.330678 110.141218 
L 203.390824 109.45057 
L 205.450971 108.759921 
L 207.511118 108.069273 
L 209.571265 107.378624 
L 211.631412 106.687976 
L 213.691559 105.997327 
L 215.751706 105.306679 
L 217.811853 104.61603 
L 219.872 103.925382 
L 221.932147 103.234733 
L 223.992294 102.544085 
L 226.052441 101.853436 
L 228.112588 101.162788 
L 230.172734 100.472139 
L 232.232881 99.781491 
L 234.293028 99.090842 
L 236.353175 98.400194 
L 238.413322 97.709546 
L 240.473469 97.018897 
L 242.533616 96.328249 
L 244.593763 95.6376 
L 246.65391 94.946952 
L 248.714057 94.256303 
L 250.774204 93.565655 
L 252.834351 92.875006 
L 254.894498 92.184358 
L 256.954644 91.493709 
L 259.014791 90.803061 
L 261.074938 90.112412 
L 263.135085 89.421764 
" clip-path="url(#pabcd1d2479)" style="fill: none; stroke: #000000; stroke-width: 2; stroke-linecap: square"/>
   </g>
   <g id="line2d_15">
    <path d="M 48.982813 129.560324 
L 273.332812 129.560324 
" clip-path="url(#pabcd1d2479)" style="fill: none; stroke-dasharray: 3.7,1.6; stroke-dashoffset: 0; stroke: #000000"/>
   </g>
   <g id="line2d_16">
    <path d="M 163.990515 242.118437 
L 163.990515 20.798437 
" clip-path="url(#pabcd1d2479)" style="fill: none; stroke-dasharray: 3.7,1.6; stroke-dashoffset: 0; stroke: #000000"/>
   </g>
   <g id="patch_3">
    <path d="M 48.982813 242.118438 
L 48.982813 20.798437 
" style="fill: none; stroke: #000000; stroke-width: 0.5; stroke-linejoin: miter; stroke-linecap: square"/>
   </g>
   <g id="patch_4">
    <path d="M 273.332812 242.118438 
L 273.332812 20.798437 
" style="fill: none; stroke: #000000; stroke-width: 0.8; stroke-linejoin: miter; stroke-linecap: square"/>
   </g>
   <g id="patch_5">
    <path d="M 48.982813 242.118437 
L 273.332812 242.118437 
" style="fill: none; stroke: #000000; stroke-width: 0.5; stroke-linejoin: miter; stroke-linecap: square"/>
   </g>
   <g id="patch_6">
    <path d="M 48.982813 20.798437 
L 273.332812 20.798437 
" style="fill: none; stroke: #000000; stroke-width: 0.8; stroke-linejoin: miter; stroke-linecap: square"/>
   </g>
   <g id="text_16">
    <text style="font-size: 10px; font-family: 'DejaVu Sans', 'Bitstream Vera Sans', 'Computer Modern Sans Serif', 'Lucida Grande', 'Verdana', 'Geneva', 'Lucid', 'Arial', 'Helvetica', 'Avant Garde', sans-serif; text-anchor: middle" x="161.157812" y="14.798437" transform="rotate(-0 161.157812 14.798437)">Regression of accuracy [gain-loss] in LT against SC</text>
   </g>
  </g>
 </g>
 <defs>
  <clipPath id="pabcd1d2479">
   <rect x="48.982813" y="20.798437" width="224.35" height="221.32"/>
  </clipPath>
 </defs>
</svg>
