<?xml version="1.0" encoding="utf-8" standalone="no"?>
<!DOCTYPE svg PUBLIC "-//W3C//DTD SVG 1.1//EN"
  "http://www.w3.org/Graphics/SVG/1.1/DTD/svg11.dtd">
<svg xmlns:xlink="http://www.w3.org/1999/xlink" width="295.121406pt" height="279.674688pt" viewBox="0 0 295.121406 279.674688" xmlns="http://www.w3.org/2000/svg" version="1.1">
 <metadata>
  <rdf:RDF xmlns:dc="http://purl.org/dc/elements/1.1/" xmlns:cc="http://creativecommons.org/ns#" xmlns:rdf="http://www.w3.org/1999/02/22-rdf-syntax-ns#">
   <cc:Work>
    <dc:type rdf:resource="http://purl.org/dc/dcmitype/StillImage"/>
    <dc:date>2026-04-02T15:51:19.646770</dc:date>
    <dc:format>image/svg+xml</dc:format>
    <dc:creator>
     <cc:Agent>
      <dc:title>Matplotlib v3.10.8, https://matplotlib.org/</dc:title>
     </cc:Agent>
    </dc:creator>
   </cc:Work>
  </rdf:RDF>
 </metadata>
 <defs>
  <style type="text/css">*{stroke-linejoin: round; stroke-linecap: butt}</style>
 </defs>
 <g id="figure_1">
  <g id="patch_1">
   <path d="M 0 279.674688 
L 295.121406 279.674688 
L 295.121406 0 
L 0 0 
z
" style="fill: #ffffff"/>
  </g>
  <g id="axes_1">
   <g id="patch_2">
    <path d="M 48.982813 242.118437 
L 273.242813 242.118437 
L 273.242813 20.798437 
L 48.982813 20.798437 
z
" style="fill: #ffffff"/>
   </g>
   <g id="PathCollection_1">
    <defs>
     <path id="ma870896456" d="M 0 3.535534 
C 0.937635 3.535534 1.836992 3.163008 2.5 2.5 
C 3.163008 1.836992 3.535534 0.937635 3.535534 0 
C 3.535534 -0.937635 3.163008 -1.836992 2.5 -2.5 
C 1.836992 -3.163008 0.937635 -3.535534 0 -3.535534 
C -0.937635 -3.535534 -1.836992 -3.163008 -2.5 -2.5 
C -3.163008 -1.836992 -3.535534 -0.937635 -3.535534 0 
C -3.535534 0.937635 -3.163008 1.836992 -2.5 2.5 
C -1.836992 3.163008 -0.937635 3.535534 0 3.535534 
z
" style="stroke: #000000; stroke-opacity: 0.3"/>
    </defs>
    <g clip-path="url(#p7f29889b06)">
     <use xlink:href="#ma870896456" x="183.934386" y="102.396215" style="fill-opacity: 0.3; stroke: #000000; stroke-opacity: 0.3"/>
     <use xlink:href="#ma870896456" x="159.591374" y="35.329549" style="fill-opacity: 0.3; stroke: #000000; stroke-opacity: 0.3"/>
     <use xlink:href="#ma870896456" x="220.448905" y="39.80066" style="fill-opacity: 0.3; stroke: #000000; stroke-opacity: 0.3"/>
     <use xlink:href="#ma870896456" x="165.677127" y="120.28066" style="fill-opacity: 0.3; stroke: #000000; stroke-opacity: 0.3"/>
     <use xlink:href="#ma870896456" x="211.320275" y="35.329549" style="fill-opacity: 0.3; stroke: #000000; stroke-opacity: 0.3"/>
     <use xlink:href="#ma870896456" x="220.448905" y="142.636215" style="fill-opacity: 0.3; stroke: #000000; stroke-opacity: 0.3"/>
     <use xlink:href="#ma870896456" x="177.848633" y="151.578437" style="fill-opacity: 0.3; stroke: #000000; stroke-opacity: 0.3"/>
     <use xlink:href="#ma870896456" x="165.677127" y="223.116215" style="fill-opacity: 0.3; stroke: #000000; stroke-opacity: 0.3"/>
     <use xlink:href="#ma870896456" x="193.063016" y="111.338437" style="fill-opacity: 0.3; stroke: #000000; stroke-opacity: 0.3"/>
     <use xlink:href="#ma870896456" x="174.805757" y="106.867326" style="fill-opacity: 0.3; stroke: #000000; stroke-opacity: 0.3"/>
     <use xlink:href="#ma870896456" x="190.02014" y="115.809549" style="fill-opacity: 0.3; stroke: #000000; stroke-opacity: 0.3"/>
     <use xlink:href="#ma870896456" x="244.791917" y="75.569549" style="fill-opacity: 0.3; stroke: #000000; stroke-opacity: 0.3"/>
     <use xlink:href="#ma870896456" x="147.419868" y="53.213993" style="fill-opacity: 0.3; stroke: #000000; stroke-opacity: 0.3"/>
     <use xlink:href="#ma870896456" x="174.805757" y="75.569549" style="fill-opacity: 0.3; stroke: #000000; stroke-opacity: 0.3"/>
     <use xlink:href="#ma870896456" x="153.505621" y="71.098437" style="fill-opacity: 0.3; stroke: #000000; stroke-opacity: 0.3"/>
     <use xlink:href="#ma870896456" x="186.977263" y="97.925104" style="fill-opacity: 0.3; stroke: #000000; stroke-opacity: 0.3"/>
     <use xlink:href="#ma870896456" x="113.948226" y="120.28066" style="fill-opacity: 0.3; stroke: #000000; stroke-opacity: 0.3"/>
     <use xlink:href="#ma870896456" x="193.063016" y="93.453993" style="fill-opacity: 0.3; stroke: #000000; stroke-opacity: 0.3"/>
     <use xlink:href="#ma870896456" x="159.591374" y="97.925104" style="fill-opacity: 0.3; stroke: #000000; stroke-opacity: 0.3"/>
     <use xlink:href="#ma870896456" x="177.848633" y="106.867326" style="fill-opacity: 0.3; stroke: #000000; stroke-opacity: 0.3"/>
     <use xlink:href="#ma870896456" x="177.848633" y="102.396215" style="fill-opacity: 0.3; stroke: #000000; stroke-opacity: 0.3"/>
     <use xlink:href="#ma870896456" x="153.505621" y="164.991771" style="fill-opacity: 0.3; stroke: #000000; stroke-opacity: 0.3"/>
     <use xlink:href="#ma870896456" x="180.89151" y="84.511771" style="fill-opacity: 0.3; stroke: #000000; stroke-opacity: 0.3"/>
     <use xlink:href="#ma870896456" x="141.334115" y="106.867326" style="fill-opacity: 0.3; stroke: #000000; stroke-opacity: 0.3"/>
     <use xlink:href="#ma870896456" x="193.063016" y="106.867326" style="fill-opacity: 0.3; stroke: #000000; stroke-opacity: 0.3"/>
     <use xlink:href="#ma870896456" x="165.677127" y="71.098437" style="fill-opacity: 0.3; stroke: #000000; stroke-opacity: 0.3"/>
     <use xlink:href="#ma870896456" x="244.791917" y="53.213993" style="fill-opacity: 0.3; stroke: #000000; stroke-opacity: 0.3"/>
     <use xlink:href="#ma870896456" x="153.790891" y="142.636215" style="fill-opacity: 0.3; stroke: #000000; stroke-opacity: 0.3"/>
     <use xlink:href="#ma870896456" x="183.934386" y="120.28066" style="fill-opacity: 0.3; stroke: #000000; stroke-opacity: 0.3"/>
     <use xlink:href="#ma870896456" x="238.706164" y="151.578437" style="fill-opacity: 0.3; stroke: #000000; stroke-opacity: 0.3"/>
     <use xlink:href="#ma870896456" x="150.462745" y="173.933993" style="fill-opacity: 0.3; stroke: #000000; stroke-opacity: 0.3"/>
     <use xlink:href="#ma870896456" x="126.119732" y="129.222882" style="fill-opacity: 0.3; stroke: #000000; stroke-opacity: 0.3"/>
     <use xlink:href="#ma870896456" x="183.934386" y="80.04066" style="fill-opacity: 0.3; stroke: #000000; stroke-opacity: 0.3"/>
     <use xlink:href="#ma870896456" x="183.934386" y="97.925104" style="fill-opacity: 0.3; stroke: #000000; stroke-opacity: 0.3"/>
     <use xlink:href="#ma870896456" x="153.505621" y="124.751771" style="fill-opacity: 0.3; stroke: #000000; stroke-opacity: 0.3"/>
     <use xlink:href="#ma870896456" x="208.277399" y="71.098437" style="fill-opacity: 0.3; stroke: #000000; stroke-opacity: 0.3"/>
     <use xlink:href="#ma870896456" x="129.162609" y="129.222882" style="fill-opacity: 0.3; stroke: #000000; stroke-opacity: 0.3"/>
     <use xlink:href="#ma870896456" x="141.334115" y="124.751771" style="fill-opacity: 0.3; stroke: #000000; stroke-opacity: 0.3"/>
     <use xlink:href="#ma870896456" x="186.977263" y="115.809549" style="fill-opacity: 0.3; stroke: #000000; stroke-opacity: 0.3"/>
     <use xlink:href="#ma870896456" x="180.89151" y="80.04066" style="fill-opacity: 0.3; stroke: #000000; stroke-opacity: 0.3"/>
     <use xlink:href="#ma870896456" x="132.205485" y="111.338437" style="fill-opacity: 0.3; stroke: #000000; stroke-opacity: 0.3"/>
     <use xlink:href="#ma870896456" x="183.934386" y="147.107326" style="fill-opacity: 0.3; stroke: #000000; stroke-opacity: 0.3"/>
     <use xlink:href="#ma870896456" x="199.148769" y="48.742882" style="fill-opacity: 0.3; stroke: #000000; stroke-opacity: 0.3"/>
     <use xlink:href="#ma870896456" x="129.162609" y="102.396215" style="fill-opacity: 0.3; stroke: #000000; stroke-opacity: 0.3"/>
     <use xlink:href="#ma870896456" x="132.205485" y="120.28066" style="fill-opacity: 0.3; stroke: #000000; stroke-opacity: 0.3"/>
     <use xlink:href="#ma870896456" x="223.491781" y="111.338437" style="fill-opacity: 0.3; stroke: #000000; stroke-opacity: 0.3"/>
     <use xlink:href="#ma870896456" x="174.805757" y="88.982882" style="fill-opacity: 0.3; stroke: #000000; stroke-opacity: 0.3"/>
     <use xlink:href="#ma870896456" x="162.634251" y="71.098437" style="fill-opacity: 0.3; stroke: #000000; stroke-opacity: 0.3"/>
     <use xlink:href="#ma870896456" x="205.234522" y="53.213993" style="fill-opacity: 0.3; stroke: #000000; stroke-opacity: 0.3"/>
     <use xlink:href="#ma870896456" x="150.462745" y="111.338437" style="fill-opacity: 0.3; stroke: #000000; stroke-opacity: 0.3"/>
     <use xlink:href="#ma870896456" x="159.591374" y="147.107326" style="fill-opacity: 0.3; stroke: #000000; stroke-opacity: 0.3"/>
     <use xlink:href="#ma870896456" x="110.90535" y="191.818437" style="fill-opacity: 0.3; stroke: #000000; stroke-opacity: 0.3"/>
     <use xlink:href="#ma870896456" x="174.805757" y="75.569549" style="fill-opacity: 0.3; stroke: #000000; stroke-opacity: 0.3"/>
     <use xlink:href="#ma870896456" x="171.76288" y="93.453993" style="fill-opacity: 0.3; stroke: #000000; stroke-opacity: 0.3"/>
     <use xlink:href="#ma870896456" x="153.505621" y="138.165104" style="fill-opacity: 0.3; stroke: #000000; stroke-opacity: 0.3"/>
     <use xlink:href="#ma870896456" x="190.02014" y="57.685104" style="fill-opacity: 0.3; stroke: #000000; stroke-opacity: 0.3"/>
     <use xlink:href="#ma870896456" x="168.720004" y="120.28066" style="fill-opacity: 0.3; stroke: #000000; stroke-opacity: 0.3"/>
     <use xlink:href="#ma870896456" x="208.277399" y="106.867326" style="fill-opacity: 0.3; stroke: #000000; stroke-opacity: 0.3"/>
     <use xlink:href="#ma870896456" x="186.977263" y="75.569549" style="fill-opacity: 0.3; stroke: #000000; stroke-opacity: 0.3"/>
     <use xlink:href="#ma870896456" x="208.277399" y="142.636215" style="fill-opacity: 0.3; stroke: #000000; stroke-opacity: 0.3"/>
     <use xlink:href="#ma870896456" x="180.89151" y="111.338437" style="fill-opacity: 0.3; stroke: #000000; stroke-opacity: 0.3"/>
     <use xlink:href="#ma870896456" x="132.205485" y="120.28066" style="fill-opacity: 0.3; stroke: #000000; stroke-opacity: 0.3"/>
     <use xlink:href="#ma870896456" x="135.248362" y="106.867326" style="fill-opacity: 0.3; stroke: #000000; stroke-opacity: 0.3"/>
     <use xlink:href="#ma870896456" x="199.148769" y="120.28066" style="fill-opacity: 0.3; stroke: #000000; stroke-opacity: 0.3"/>
     <use xlink:href="#ma870896456" x="214.363152" y="93.453993" style="fill-opacity: 0.3; stroke: #000000; stroke-opacity: 0.3"/>
     <use xlink:href="#ma870896456" x="123.076856" y="196.289549" style="fill-opacity: 0.3; stroke: #000000; stroke-opacity: 0.3"/>
     <use xlink:href="#ma870896456" x="104.819597" y="173.933993" style="fill-opacity: 0.3; stroke: #000000; stroke-opacity: 0.3"/>
     <use xlink:href="#ma870896456" x="186.977263" y="66.627326" style="fill-opacity: 0.3; stroke: #000000; stroke-opacity: 0.3"/>
     <use xlink:href="#ma870896456" x="150.462745" y="182.876215" style="fill-opacity: 0.3; stroke: #000000; stroke-opacity: 0.3"/>
     <use xlink:href="#ma870896456" x="162.634251" y="84.511771" style="fill-opacity: 0.3; stroke: #000000; stroke-opacity: 0.3"/>
     <use xlink:href="#ma870896456" x="159.591374" y="84.511771" style="fill-opacity: 0.3; stroke: #000000; stroke-opacity: 0.3"/>
     <use xlink:href="#ma870896456" x="77.433708" y="232.058437" style="fill-opacity: 0.3; stroke: #000000; stroke-opacity: 0.3"/>
     <use xlink:href="#ma870896456" x="156.548498" y="57.685104" style="fill-opacity: 0.3; stroke: #000000; stroke-opacity: 0.3"/>
     <use xlink:href="#ma870896456" x="168.720004" y="120.28066" style="fill-opacity: 0.3; stroke: #000000; stroke-opacity: 0.3"/>
     <use xlink:href="#ma870896456" x="180.89151" y="88.982882" style="fill-opacity: 0.3; stroke: #000000; stroke-opacity: 0.3"/>
     <use xlink:href="#ma870896456" x="183.934386" y="120.28066" style="fill-opacity: 0.3; stroke: #000000; stroke-opacity: 0.3"/>
     <use xlink:href="#ma870896456" x="196.105893" y="138.165104" style="fill-opacity: 0.3; stroke: #000000; stroke-opacity: 0.3"/>
     <use xlink:href="#ma870896456" x="193.063016" y="62.156215" style="fill-opacity: 0.3; stroke: #000000; stroke-opacity: 0.3"/>
     <use xlink:href="#ma870896456" x="174.805757" y="115.809549" style="fill-opacity: 0.3; stroke: #000000; stroke-opacity: 0.3"/>
     <use xlink:href="#ma870896456" x="171.76288" y="120.28066" style="fill-opacity: 0.3; stroke: #000000; stroke-opacity: 0.3"/>
     <use xlink:href="#ma870896456" x="193.063016" y="106.867326" style="fill-opacity: 0.3; stroke: #000000; stroke-opacity: 0.3"/>
     <use xlink:href="#ma870896456" x="190.02014" y="102.396215" style="fill-opacity: 0.3; stroke: #000000; stroke-opacity: 0.3"/>
     <use xlink:href="#ma870896456" x="263.049176" y="39.80066" style="fill-opacity: 0.3; stroke: #000000; stroke-opacity: 0.3"/>
     <use xlink:href="#ma870896456" x="217.406028" y="35.329549" style="fill-opacity: 0.3; stroke: #000000; stroke-opacity: 0.3"/>
     <use xlink:href="#ma870896456" x="177.848633" y="106.867326" style="fill-opacity: 0.3; stroke: #000000; stroke-opacity: 0.3"/>
     <use xlink:href="#ma870896456" x="165.677127" y="173.933993" style="fill-opacity: 0.3; stroke: #000000; stroke-opacity: 0.3"/>
     <use xlink:href="#ma870896456" x="156.548498" y="71.098437" style="fill-opacity: 0.3; stroke: #000000; stroke-opacity: 0.3"/>
     <use xlink:href="#ma870896456" x="180.89151" y="111.338437" style="fill-opacity: 0.3; stroke: #000000; stroke-opacity: 0.3"/>
     <use xlink:href="#ma870896456" x="159.591374" y="93.453993" style="fill-opacity: 0.3; stroke: #000000; stroke-opacity: 0.3"/>
     <use xlink:href="#ma870896456" x="229.577534" y="30.858437" style="fill-opacity: 0.3; stroke: #000000; stroke-opacity: 0.3"/>
     <use xlink:href="#ma870896456" x="168.720004" y="151.578437" style="fill-opacity: 0.3; stroke: #000000; stroke-opacity: 0.3"/>
     <use xlink:href="#ma870896456" x="59.176449" y="151.578437" style="fill-opacity: 0.3; stroke: #000000; stroke-opacity: 0.3"/>
     <use xlink:href="#ma870896456" x="186.977263" y="48.742882" style="fill-opacity: 0.3; stroke: #000000; stroke-opacity: 0.3"/>
     <use xlink:href="#ma870896456" x="162.634251" y="71.098437" style="fill-opacity: 0.3; stroke: #000000; stroke-opacity: 0.3"/>
     <use xlink:href="#ma870896456" x="226.534658" y="80.04066" style="fill-opacity: 0.3; stroke: #000000; stroke-opacity: 0.3"/>
     <use xlink:href="#ma870896456" x="199.148769" y="62.156215" style="fill-opacity: 0.3; stroke: #000000; stroke-opacity: 0.3"/>
     <use xlink:href="#ma870896456" x="132.205485" y="115.809549" style="fill-opacity: 0.3; stroke: #000000; stroke-opacity: 0.3"/>
     <use xlink:href="#ma870896456" x="180.89151" y="173.933993" style="fill-opacity: 0.3; stroke: #000000; stroke-opacity: 0.3"/>
    </g>
   </g>
   <g id="FillBetweenPolyCollection_1">
    <path d="M 59.176449 147.904277 
L 59.176449 201.924715 
L 61.235769 200.239482 
L 63.29509 198.55409 
L 65.35441 196.868699 
L 67.413731 195.183307 
L 69.473051 193.497916 
L 71.532372 191.812524 
L 73.591692 190.134457 
L 75.651013 188.459697 
L 77.710333 186.784937 
L 79.769654 185.110177 
L 81.828974 183.435416 
L 83.888295 181.760656 
L 85.947615 180.085896 
L 88.006936 178.411136 
L 90.066256 176.736376 
L 92.125577 175.061616 
L 94.184897 173.386856 
L 96.244217 171.712096 
L 98.303538 170.058806 
L 100.362858 168.393516 
L 102.422179 166.687816 
L 104.481499 164.903017 
L 106.54082 163.287672 
L 108.60014 161.587612 
L 110.659461 159.886616 
L 112.718781 158.18562 
L 114.778102 156.52551 
L 116.837422 154.93411 
L 118.896743 153.295867 
L 120.956063 151.634879 
L 123.015384 149.94797 
L 125.074704 148.273342 
L 127.134025 146.588395 
L 129.193345 144.961903 
L 131.252666 143.323278 
L 133.311986 141.759595 
L 135.371307 140.27978 
L 137.430627 138.797514 
L 139.489947 137.315247 
L 141.549268 135.723998 
L 143.608588 134.314529 
L 145.667909 132.688303 
L 147.727229 131.202605 
L 149.78655 129.797952 
L 151.84587 128.477222 
L 153.905191 126.963162 
L 155.964511 125.537987 
L 158.023832 124.145469 
L 160.083152 122.745423 
L 162.142473 121.24672 
L 164.201793 119.850385 
L 166.261114 118.535333 
L 168.320434 117.098389 
L 170.379755 115.783815 
L 172.439075 114.447624 
L 174.498396 113.34035 
L 176.557716 112.010703 
L 178.617037 110.768149 
L 180.676357 109.64049 
L 182.735678 108.343358 
L 184.794998 107.266003 
L 186.854318 106.252937 
L 188.913639 105.219509 
L 190.972959 104.017009 
L 193.03228 103.044167 
L 195.0916 102.026811 
L 197.150921 101.133483 
L 199.210241 100.049672 
L 201.269562 99.094862 
L 203.328882 98.149382 
L 205.388203 97.312472 
L 207.447523 96.542576 
L 209.506844 95.786188 
L 211.566164 94.969975 
L 213.625485 94.121986 
L 215.684805 93.314969 
L 217.744126 92.456317 
L 219.803446 91.727061 
L 221.862767 90.990652 
L 223.922087 90.066098 
L 225.981408 89.26667 
L 228.040728 88.477622 
L 230.100048 87.60237 
L 232.159369 86.818011 
L 234.218689 85.949636 
L 236.27801 85.147403 
L 238.33733 84.344946 
L 240.396651 83.548116 
L 242.455971 82.736632 
L 244.515292 81.936078 
L 246.574612 81.135524 
L 248.633933 80.560288 
L 250.693253 79.860509 
L 252.752574 79.110376 
L 254.811894 78.317715 
L 256.871215 77.5244 
L 258.930535 76.731973 
L 260.989856 75.809959 
L 263.049176 75.079251 
L 263.049176 31.819302 
L 263.049176 31.819302 
L 260.989856 33.463103 
L 258.930535 35.109436 
L 256.871215 36.748659 
L 254.811894 38.409738 
L 252.752574 40.176013 
L 250.693253 41.822192 
L 248.633933 43.468372 
L 246.574612 45.114552 
L 244.515292 46.760731 
L 242.455971 48.406911 
L 240.396651 50.053091 
L 238.33733 51.69927 
L 236.27801 53.327221 
L 234.218689 54.905108 
L 232.159369 56.483143 
L 230.100048 58.277741 
L 228.040728 59.934799 
L 225.981408 61.69315 
L 223.922087 63.454906 
L 221.862767 65.216663 
L 219.803446 66.876336 
L 217.744126 68.525423 
L 215.684805 70.174511 
L 213.625485 71.94313 
L 211.566164 73.464896 
L 209.506844 75.035977 
L 207.447523 76.458084 
L 205.388203 78.00256 
L 203.328882 79.624361 
L 201.269562 81.099992 
L 199.210241 82.738294 
L 197.150921 84.118044 
L 195.0916 85.560072 
L 193.03228 86.983654 
L 190.972959 88.467789 
L 188.913639 89.803163 
L 186.854318 91.160519 
L 184.794998 92.597308 
L 182.735678 93.896314 
L 180.676357 95.265699 
L 178.617037 96.763075 
L 176.557716 97.939528 
L 174.498396 99.059733 
L 172.439075 100.26993 
L 170.379755 101.433778 
L 168.320434 102.522935 
L 166.261114 103.597876 
L 164.201793 104.72914 
L 162.142473 105.923086 
L 160.083152 107.012508 
L 158.023832 107.964799 
L 155.964511 108.961878 
L 153.905191 109.87096 
L 151.84587 110.695146 
L 149.78655 111.548186 
L 147.727229 112.309132 
L 145.667909 113.277414 
L 143.608588 113.953937 
L 141.549268 114.822036 
L 139.489947 115.795607 
L 137.430627 116.799094 
L 135.371307 117.689554 
L 133.311986 118.62207 
L 131.252666 119.402671 
L 129.193345 120.359242 
L 127.134025 121.245477 
L 125.074704 122.206609 
L 123.015384 123.136424 
L 120.956063 124.000028 
L 118.896743 124.880651 
L 116.837422 125.842634 
L 114.778102 126.661266 
L 112.718781 127.50937 
L 110.659461 128.384646 
L 108.60014 129.263976 
L 106.54082 130.143305 
L 104.481499 131.022635 
L 102.422179 131.902219 
L 100.362858 132.777453 
L 98.303538 133.651752 
L 96.244217 134.526051 
L 94.184897 135.284731 
L 92.125577 136.031985 
L 90.066256 136.779238 
L 88.006936 137.52704 
L 85.947615 138.277723 
L 83.888295 139.028406 
L 81.828974 139.728042 
L 79.769654 140.525136 
L 77.710333 141.269814 
L 75.651013 142.014491 
L 73.591692 142.759169 
L 71.532372 143.504517 
L 69.473051 144.251771 
L 67.413731 144.999952 
L 65.35441 145.73596 
L 63.29509 146.458732 
L 61.235769 147.181505 
L 59.176449 147.904277 
z
" clip-path="url(#p7f29889b06)" style="fill-opacity: 0.15"/>
   </g>
   <g id="matplotlib.axis_1">
    <g id="xtick_1">
     <g id="line2d_1">
      <defs>
       <path id="mf2437aa8e2" d="M 0 0 
L 0 3.5 
" style="stroke: #000000; stroke-width: 0.5"/>
      </defs>
      <g>
       <use xlink:href="#mf2437aa8e2" x="59.176449" y="242.118437" style="stroke: #000000; stroke-width: 0.5"/>
      </g>
     </g>
     <g id="text_1">
      <text style="font-size: 10px; font-family: 'DejaVu Sans', 'Bitstream Vera Sans', 'Computer Modern Sans Serif', 'Lucida Grande', 'Verdana', 'Geneva', 'Lucid', 'Arial', 'Helvetica', 'Avant Garde', sans-serif; text-anchor: middle" x="59.176449" y="256.716875" transform="rotate(-0 59.176449 256.716875)">−60</text>
     </g>
    </g>
    <g id="xtick_2">
     <g id="line2d_2">
      <g>
       <use xlink:href="#mf2437aa8e2" x="98.733844" y="242.118437" style="stroke: #000000; stroke-width: 0.5"/>
      </g>
     </g>
     <g id="text_2">
      <text style="font-size: 10px; font-family: 'DejaVu Sans', 'Bitstream Vera Sans', 'Computer Modern Sans Serif', 'Lucida Grande', 'Verdana', 'Geneva', 'Lucid', 'Arial', 'Helvetica', 'Avant Garde', sans-serif; text-anchor: middle" x="98.733844" y="256.716875" transform="rotate(-0 98.733844 256.716875)">−40</text>
     </g>
    </g>
    <g id="xtick_3">
     <g id="line2d_3">
      <g>
       <use xlink:href="#mf2437aa8e2" x="138.291239" y="242.118437" style="stroke: #000000; stroke-width: 0.5"/>
      </g>
     </g>
     <g id="text_3">
      <text style="font-size: 10px; font-family: 'DejaVu Sans', 'Bitstream Vera Sans', 'Computer Modern Sans Serif', 'Lucida Grande', 'Verdana', 'Geneva', 'Lucid', 'Arial', 'Helvetica', 'Avant Garde', sans-serif; text-anchor: middle" x="138.291239" y="256.716875" transform="rotate(-0 138.291239 256.716875)">−20</text>
     </g>
    </g>
    <g id="xtick_4">
     <g id="line2d_4">
      <g>
       <use xlink:href="#mf2437aa8e2" x="177.848633" y="242.118437" style="stroke: #000000; stroke-width: 0.5"/>
      </g>
     </g>
     <g id="text_4">
      <text style="font-size: 10px; font-family: 'DejaVu Sans', 'Bitstream Vera Sans', 'Computer Modern Sans Serif', 'Lucida Grande', 'Verdana', 'Geneva', 'Lucid', 'Arial', 'Helvetica', 'Avant Garde', sans-serif; text-anchor: middle" x="177.848633" y="256.716875" transform="rotate(-0 177.848633 256.716875)">0</text>
     </g>
    </g>
    <g id="xtick_5">
     <g id="line2d_5">
      <g>
       <use xlink:href="#mf2437aa8e2" x="217.406028" y="242.118437" style="stroke: #000000; stroke-width: 0.5"/>
      </g>
     </g>
     <g id="text_5">
      <text style="font-size: 10px; font-family: 'DejaVu Sans', 'Bitstream Vera Sans', 'Computer Modern Sans Serif', 'Lucida Grande', 'Verdana', 'Geneva', 'Lucid', 'Arial', 'Helvetica', 'Avant Garde', sans-serif; text-anchor: middle" x="217.406028" y="256.716875" transform="rotate(-0 217.406028 256.716875)">20</text>
     </g>
    </g>
    <g id="xtick_6">
     <g id="line2d_6">
      <g>
       <use xlink:href="#mf2437aa8e2" x="256.963423" y="242.118437" style="stroke: #000000; stroke-width: 0.5"/>
      </g>
     </g>
     <g id="text_6">
      <text style="font-size: 10px; font-family: 'DejaVu Sans', 'Bitstream Vera Sans', 'Computer Modern Sans Serif', 'Lucida Grande', 'Verdana', 'Geneva', 'Lucid', 'Arial', 'Helvetica', 'Avant Garde', sans-serif; text-anchor: middle" x="256.963423" y="256.716875" transform="rotate(-0 256.963423 256.716875)">40</text>
     </g>
    </g>
    <g id="text_7">
     <text style="font-size: 10px; font-family: 'DejaVu Sans', 'Bitstream Vera Sans', 'Computer Modern Sans Serif', 'Lucida Grande', 'Verdana', 'Geneva', 'Lucid', 'Arial', 'Helvetica', 'Avant Garde', sans-serif; text-anchor: middle" x="161.112813" y="270.395" transform="rotate(-0 161.112813 270.395)">LT accuracy gain minus loss (%)</text>
    </g>
   </g>
   <g id="matplotlib.axis_2">
    <g id="ytick_1">
     <g id="line2d_7">
      <defs>
       <path id="m10452e8408" d="M 0 0 
L -3.5 0 
" style="stroke: #000000; stroke-width: 0.5"/>
      </defs>
      <g>
       <use xlink:href="#m10452e8408" x="48.982813" y="221.327771" style="stroke: #000000; stroke-width: 0.5"/>
      </g>
     </g>
     <g id="text_8">
      <text style="font-size: 10px; font-family: 'DejaVu Sans', 'Bitstream Vera Sans', 'Computer Modern Sans Serif', 'Lucida Grande', 'Verdana', 'Geneva', 'Lucid', 'Arial', 'Helvetica', 'Avant Garde', sans-serif; text-anchor: end" x="41.982813" y="225.12699" transform="rotate(-0 41.982813 225.12699)">−80</text>
     </g>
    </g>
    <g id="ytick_2">
     <g id="line2d_8">
      <g>
       <use xlink:href="#m10452e8408" x="48.982813" y="192.71266" style="stroke: #000000; stroke-width: 0.5"/>
      </g>
     </g>
     <g id="text_9">
      <text style="font-size: 10px; font-family: 'DejaVu Sans', 'Bitstream Vera Sans', 'Computer Modern Sans Serif', 'Lucida Grande', 'Verdana', 'Geneva', 'Lucid', 'Arial', 'Helvetica', 'Avant Garde', sans-serif; text-anchor: end" x="41.982813" y="196.511878" transform="rotate(-0 41.982813 196.511878)">−60</text>
     </g>
    </g>
    <g id="ytick_3">
     <g id="line2d_9">
      <g>
       <use xlink:href="#m10452e8408" x="48.982813" y="164.097549" style="stroke: #000000; stroke-width: 0.5"/>
      </g>
     </g>
     <g id="text_10">
      <text style="font-size: 10px; font-family: 'DejaVu Sans', 'Bitstream Vera Sans', 'Computer Modern Sans Serif', 'Lucida Grande', 'Verdana', 'Geneva', 'Lucid', 'Arial', 'Helvetica', 'Avant Garde', sans-serif; text-anchor: end" x="41.982813" y="167.896767" transform="rotate(-0 41.982813 167.896767)">−40</text>
     </g>
    </g>
    <g id="ytick_4">
     <g id="line2d_10">
      <g>
       <use xlink:href="#m10452e8408" x="48.982813" y="135.482437" style="stroke: #000000; stroke-width: 0.5"/>
      </g>
     </g>
     <g id="text_11">
      <text style="font-size: 10px; font-family: 'DejaVu Sans', 'Bitstream Vera Sans', 'Computer Modern Sans Serif', 'Lucida Grande', 'Verdana', 'Geneva', 'Lucid', 'Arial', 'Helvetica', 'Avant Garde', sans-serif; text-anchor: end" x="41.982813" y="139.281656" transform="rotate(-0 41.982813 139.281656)">−20</text>
     </g>
    </g>
    <g id="ytick_5">
     <g id="line2d_11">
      <g>
       <use xlink:href="#m10452e8408" x="48.982813" y="106.867326" style="stroke: #000000; stroke-width: 0.5"/>
      </g>
     </g>
     <g id="text_12">
      <text style="font-size: 10px; font-family: 'DejaVu Sans', 'Bitstream Vera Sans', 'Computer Modern Sans Serif', 'Lucida Grande', 'Verdana', 'Geneva', 'Lucid', 'Arial', 'Helvetica', 'Avant Garde', sans-serif; text-anchor: end" x="41.982813" y="110.666545" transform="rotate(-0 41.982813 110.666545)">0</text>
     </g>
    </g>
    <g id="ytick_6">
     <g id="line2d_12">
      <g>
       <use xlink:href="#m10452e8408" x="48.982813" y="78.252215" style="stroke: #000000; stroke-width: 0.5"/>
      </g>
     </g>
     <g id="text_13">
      <text style="font-size: 10px; font-family: 'DejaVu Sans', 'Bitstream Vera Sans', 'Computer Modern Sans Serif', 'Lucida Grande', 'Verdana', 'Geneva', 'Lucid', 'Arial', 'Helvetica', 'Avant Garde', sans-serif; text-anchor: end" x="41.982813" y="82.051434" transform="rotate(-0 41.982813 82.051434)">20</text>
     </g>
    </g>
    <g id="ytick_7">
     <g id="line2d_13">
      <g>
       <use xlink:href="#m10452e8408" x="48.982813" y="49.637104" style="stroke: #000000; stroke-width: 0.5"/>
      </g>
     </g>
     <g id="text_14">
      <text style="font-size: 10px; font-family: 'DejaVu Sans', 'Bitstream Vera Sans', 'Computer Modern Sans Serif', 'Lucida Grande', 'Verdana', 'Geneva', 'Lucid', 'Arial', 'Helvetica', 'Avant Garde', sans-serif; text-anchor: end" x="41.982813" y="53.436323" transform="rotate(-0 41.982813 53.436323)">40</text>
     </g>
    </g>
    <g id="ytick_8">
     <g id="line2d_14">
      <g>
       <use xlink:href="#m10452e8408" x="48.982813" y="21.021993" style="stroke: #000000; stroke-width: 0.5"/>
      </g>
     </g>
     <g id="text_15">
      <text style="font-size: 10px; font-family: 'DejaVu Sans', 'Bitstream Vera Sans', 'Computer Modern Sans Serif', 'Lucida Grande', 'Verdana', 'Geneva', 'Lucid', 'Arial', 'Helvetica', 'Avant Garde', sans-serif; text-anchor: end" x="41.982813" y="24.821212" transform="rotate(-0 41.982813 24.821212)">60</text>
     </g>
    </g>
    <g id="text_16">
     <text style="font-size: 10px; font-family: 'DejaVu Sans', 'Bitstream Vera Sans', 'Computer Modern Sans Serif', 'Lucida Grande', 'Verdana', 'Geneva', 'Lucid', 'Arial', 'Helvetica', 'Avant Garde', sans-serif; text-anchor: middle" x="14.798438" y="131.458438" transform="rotate(-90 14.798438 131.458438)">SC accuracy gain minus loss (%)</text>
    </g>
   </g>
   <g id="line2d_15">
    <path d="M 59.176449 175.541246 
L 61.235769 174.301356 
L 63.29509 173.061465 
L 65.35441 171.821575 
L 67.413731 170.581685 
L 69.473051 169.341794 
L 71.532372 168.101904 
L 73.591692 166.862014 
L 75.651013 165.622123 
L 77.710333 164.382233 
L 79.769654 163.142343 
L 81.828974 161.902452 
L 83.888295 160.662562 
L 85.947615 159.422672 
L 88.006936 158.182781 
L 90.066256 156.942891 
L 92.125577 155.703001 
L 94.184897 154.463111 
L 96.244217 153.22322 
L 98.303538 151.98333 
L 100.362858 150.74344 
L 102.422179 149.503549 
L 104.481499 148.263659 
L 106.54082 147.023769 
L 108.60014 145.783878 
L 110.659461 144.543988 
L 112.718781 143.304098 
L 114.778102 142.064207 
L 116.837422 140.824317 
L 118.896743 139.584427 
L 120.956063 138.344536 
L 123.015384 137.104646 
L 125.074704 135.864756 
L 127.134025 134.624865 
L 129.193345 133.384975 
L 131.252666 132.145085 
L 133.311986 130.905194 
L 135.371307 129.665304 
L 137.430627 128.425414 
L 139.489947 127.185523 
L 141.549268 125.945633 
L 143.608588 124.705743 
L 145.667909 123.465852 
L 147.727229 122.225962 
L 149.78655 120.986072 
L 151.84587 119.746182 
L 153.905191 118.506291 
L 155.964511 117.266401 
L 158.023832 116.026511 
L 160.083152 114.78662 
L 162.142473 113.54673 
L 164.201793 112.30684 
L 166.261114 111.066949 
L 168.320434 109.827059 
L 170.379755 108.587169 
L 172.439075 107.347278 
L 174.498396 106.107388 
L 176.557716 104.867498 
L 178.617037 103.627607 
L 180.676357 102.387717 
L 182.735678 101.147827 
L 184.794998 99.907936 
L 186.854318 98.668046 
L 188.913639 97.428156 
L 190.972959 96.188265 
L 193.03228 94.948375 
L 195.0916 93.708485 
L 197.150921 92.468594 
L 199.210241 91.228704 
L 201.269562 89.988814 
L 203.328882 88.748923 
L 205.388203 87.509033 
L 207.447523 86.269143 
L 209.506844 85.029253 
L 211.566164 83.789362 
L 213.625485 82.549472 
L 215.684805 81.309582 
L 217.744126 80.069691 
L 219.803446 78.829801 
L 221.862767 77.589911 
L 223.922087 76.35002 
L 225.981408 75.11013 
L 228.040728 73.87024 
L 230.100048 72.630349 
L 232.159369 71.390459 
L 234.218689 70.150569 
L 236.27801 68.910678 
L 238.33733 67.670788 
L 240.396651 66.430898 
L 242.455971 65.191007 
L 244.515292 63.951117 
L 246.574612 62.711227 
L 248.633933 61.471336 
L 250.693253 60.231446 
L 252.752574 58.991556 
L 254.811894 57.751665 
L 256.871215 56.511775 
L 258.930535 55.271885 
L 260.989856 54.031995 
L 263.049176 52.792104 
" clip-path="url(#p7f29889b06)" style="fill: none; stroke: #000000; stroke-width: 2; stroke-linecap: square"/>
   </g>
   <g id="line2d_16">
    <path d="M 48.982813 106.867326 
L 273.242813 106.867326 
" clip-path="url(#p7f29889b06)" style="fill: none; stroke-dasharray: 3.7,1.6; stroke-dashoffset: 0; stroke: #000000"/>
   </g>
   <g id="line2d_17">
    <path d="M 177.848633 242.118437 
L 177.848633 20.798437 
" clip-path="url(#p7f29889b06)" style="fill: none; stroke-dasharray: 3.7,1.6; stroke-dashoffset: 0; stroke: #000000"/>
   </g>
   <g id="patch_3">
    <path d="M 48.982813 242.118437 
L 48.982813 20.798437 
" style="fill: none; stroke: #000000; stroke-width: 0.5; stroke-linejoin: miter; stroke-linecap: square"/>
   </g>
   <g id="patch_4">
    <path d="M 273.242813 242.118437 
L 273.242813 20.798437 
" style="fill: none; stroke: #000000; stroke-width: 0.8; stroke-linejoin: miter; stroke-linecap: square"/>
   </g>
   <g id="patch_5">
    <path d="M 48.982812 242.118437 
L 273.242813 242.118437 
" style="fill: none; stroke: #000000; stroke-width: 0.5; stroke-linejoin: miter; stroke-linecap: square"/>
   </g>
   <g id="patch_6">
    <path d="M 48.982812 20.798437 
L 273.242813 20.798437 
" style="fill: none; stroke: #000000; stroke-width: 0.8; stroke-linejoin: miter; stroke-linecap: square"/>
   </g>
   <g id="text_17">
    <text style="font-size: 10px; font-family: 'DejaVu Sans', 'Bitstream Vera Sans', 'Computer Modern Sans Serif', 'Lucida Grande', 'Verdana', 'Geneva', 'Lucid', 'Arial', 'Helvetica', 'Avant Garde', sans-serif; text-anchor: middle" x="161.112813" y="14.798437" transform="rotate(-0 161.112813 14.798437)">Regression of accuracy [gain-loss] in LT against SC</text>
   </g>
  </g>
 </g>
 <defs>
  <clipPath id="p7f29889b06">
   <rect x="48.982813" y="20.798437" width="224.26" height="221.32"/>
  </clipPath>
 </defs>
</svg>
