<?xml version="1.0" encoding="utf-8" standalone="no"?>
<!DOCTYPE svg PUBLIC "-//W3C//DTD SVG 1.1//EN"
  "http://www.w3.org/Graphics/SVG/1.1/DTD/svg11.dtd">
<svg xmlns:xlink="http://www.w3.org/1999/xlink" width="76.446653pt" height="58.370795pt" viewBox="0 0 76.446653 58.370795" xmlns="http://www.w3.org/2000/svg" version="1.1">
 <metadata>
  <rdf:RDF xmlns:dc="http://purl.org/dc/elements/1.1/" xmlns:cc="http://creativecommons.org/ns#" xmlns:rdf="http://www.w3.org/1999/02/22-rdf-syntax-ns#">
   <cc:Work>
    <dc:type rdf:resource="http://purl.org/dc/dcmitype/StillImage"/>
    <dc:date>2026-03-04T23:12:13.067774</dc:date>
    <dc:format>image/svg+xml</dc:format>
    <dc:creator>
     <cc:Agent>
      <dc:title>Matplotlib v3.10.8, https://matplotlib.org/</dc:title>
     </cc:Agent>
    </dc:creator>
   </cc:Work>
  </rdf:RDF>
 </metadata>
 <defs>
  <style type="text/css">*{stroke-linejoin: round; stroke-linecap: butt}</style>
 </defs>
 <g id="figure_1">
  <g id="patch_1">
   <path d="M 0 58.370795 
L 76.446653 58.370795 
L 76.446653 0 
L 0 0 
z
" style="fill: #ffffff"/>
  </g>
  <g id="axes_1">
   <g id="patch_2">
    <path d="M 33.5775 46.71767 
L 69.246653 46.71767 
L 69.246653 10.063125 
L 33.5775 10.063125 
z
" style="fill: #ffffff"/>
   </g>
   <g id="patch_3">
    <path d="M 42.494788 32.055852 
L 60.329365 32.055852 
L 60.329365 29.210017 
L 42.494788 29.210017 
z
" clip-path="url(#pb8f78b493a)" style="fill: #d3d3d3; stroke: #d3d3d3; stroke-linejoin: miter"/>
   </g>
   <g id="matplotlib.axis_1">
    <g id="xtick_1"/>
   </g>
   <g id="matplotlib.axis_2">
    <g id="ytick_1">
     <g id="line2d_1">
      <defs>
       <path id="mdfbd3c27e1" d="M 0 0 
L 4 0 
" style="stroke: #000000; stroke-width: 0.5"/>
      </defs>
      <g>
       <use xlink:href="#mdfbd3c27e1" x="33.5775" y="46.71767" style="stroke: #000000; stroke-width: 0.5"/>
      </g>
     </g>
     <g id="text_1">
      <text style="font-size: 8px; font-family: 'Arial'; text-anchor: end" x="30.0775" y="49.580795" transform="rotate(-0 30.0775 49.580795)">-10</text>
     </g>
    </g>
    <g id="ytick_2">
     <g id="line2d_2">
      <g>
       <use xlink:href="#mdfbd3c27e1" x="33.5775" y="32.055852" style="stroke: #000000; stroke-width: 0.5"/>
      </g>
     </g>
     <g id="text_2">
      <text style="font-size: 8px; font-family: 'Arial'; text-anchor: end" x="30.0775" y="34.918977" transform="rotate(-0 30.0775 34.918977)">0</text>
     </g>
    </g>
    <g id="ytick_3">
     <g id="line2d_3">
      <g>
       <use xlink:href="#mdfbd3c27e1" x="33.5775" y="17.394034" style="stroke: #000000; stroke-width: 0.5"/>
      </g>
     </g>
     <g id="text_3">
      <text style="font-size: 8px; font-family: 'Arial'; text-anchor: end" x="30.0775" y="20.257159" transform="rotate(-0 30.0775 20.257159)">10</text>
     </g>
    </g>
    <g id="ytick_4">
     <g id="line2d_4">
      <g>
       <use xlink:href="#mdfbd3c27e1" x="33.5775" y="10.063125" style="stroke: #000000; stroke-width: 0.5"/>
      </g>
     </g>
     <g id="text_4">
      <text style="font-size: 8px; font-family: 'Arial'; text-anchor: end" x="30.0775" y="12.92625" transform="rotate(-0 30.0775 12.92625)">15</text>
     </g>
    </g>
    <g id="text_5">
     <text style="font-size: 8px; font-family: 'Arial'; text-anchor: middle" x="12.92625" y="28.390398" transform="rotate(-90 12.92625 28.390398)">intercept</text>
    </g>
   </g>
   <g id="LineCollection_1">
    <path d="M 51.412077 36.671122 
L 51.412077 21.748912 
" clip-path="url(#pb8f78b493a)" style="fill: none; stroke: #000000; stroke-width: 1.2"/>
   </g>
   <g id="line2d_5">
    <defs>
     <path id="m749387297c" d="M 5 0 
L -5 -0 
" style="stroke: #000000"/>
    </defs>
    <g clip-path="url(#pb8f78b493a)">
     <use xlink:href="#m749387297c" x="51.412077" y="36.671122" style="stroke: #000000"/>
    </g>
   </g>
   <g id="line2d_6">
    <g clip-path="url(#pb8f78b493a)">
     <use xlink:href="#m749387297c" x="51.412077" y="21.748912" style="stroke: #000000"/>
    </g>
   </g>
   <g id="line2d_7">
    <path d="M 33.5775 32.055852 
L 69.246653 32.055852 
" clip-path="url(#pb8f78b493a)" style="fill: none; stroke-dasharray: 3.7,1.6; stroke-dashoffset: 0; stroke: #808080"/>
   </g>
   <g id="line2d_8">
    <defs>
     <path id="m4870050894" d="M 0 1.5 
C 0.397805 1.5 0.77937 1.341951 1.06066 1.06066 
C 1.341951 0.77937 1.5 0.397805 1.5 0 
C 1.5 -0.397805 1.341951 -0.77937 1.06066 -1.06066 
C 0.77937 -1.341951 0.397805 -1.5 0 -1.5 
C -0.397805 -1.5 -0.77937 -1.341951 -1.06066 -1.06066 
C -1.341951 -0.77937 -1.5 -0.397805 -1.5 0 
C -1.5 0.397805 -1.341951 0.77937 -1.06066 1.06066 
C -0.77937 1.341951 -0.397805 1.5 0 1.5 
z
" style="stroke: #000000"/>
    </defs>
    <g clip-path="url(#pb8f78b493a)">
     <use xlink:href="#m4870050894" x="51.412077" y="29.210017" style="stroke: #000000"/>
    </g>
   </g>
   <g id="patch_4">
    <path d="M 33.5775 46.71767 
L 33.5775 10.063125 
" style="fill: none; stroke: #000000; stroke-width: 0.5; stroke-linejoin: miter; stroke-linecap: square"/>
   </g>
   <g id="text_6">
    <text style="font-size: 8px; font-family: 'Arial'; text-anchor: middle" x="51.412077" y="19.711246" transform="rotate(-0 51.412077 19.711246)">ns</text>
   </g>
  </g>
 </g>
 <defs>
  <clipPath id="pb8f78b493a">
   <rect x="33.5775" y="10.063125" width="35.669153" height="36.654545"/>
  </clipPath>
 </defs>
</svg>
