<?xml version="1.0" encoding="utf-8" standalone="no"?>
<!DOCTYPE svg PUBLIC "-//W3C//DTD SVG 1.1//EN"
  "http://www.w3.org/Graphics/SVG/1.1/DTD/svg11.dtd">
<svg xmlns:xlink="http://www.w3.org/1999/xlink" width="360pt" height="216pt" viewBox="0 0 360 216" xmlns="http://www.w3.org/2000/svg" version="1.1">
 <metadata>
  <rdf:RDF xmlns:dc="http://purl.org/dc/elements/1.1/" xmlns:cc="http://creativecommons.org/ns#" xmlns:rdf="http://www.w3.org/1999/02/22-rdf-syntax-ns#">
   <cc:Work>
    <dc:type rdf:resource="http://purl.org/dc/dcmitype/StillImage"/>
    <dc:date>2026-04-02T15:51:15.381589</dc:date>
    <dc:format>image/svg+xml</dc:format>
    <dc:creator>
     <cc:Agent>
      <dc:title>Matplotlib v3.10.8, https://matplotlib.org/</dc:title>
     </cc:Agent>
    </dc:creator>
   </cc:Work>
  </rdf:RDF>
 </metadata>
 <defs>
  <style type="text/css">*{stroke-linejoin: round; stroke-linecap: butt}</style>
 </defs>
 <g id="figure_1">
  <g id="patch_1">
   <path d="M 0 216 
L 360 216 
L 360 0 
L 0 0 
z
" style="fill: #ffffff"/>
  </g>
  <g id="axes_1">
   <g id="patch_2">
    <path d="M 72 158.4 
L 284.4 158.4 
L 284.4 28.8 
L 72 28.8 
z
" style="fill: #ffffff"/>
   </g>
   <g id="matplotlib.axis_1">
    <g id="xtick_1">
     <g id="text_1">
      <text style="font-size: 8px; font-family: 'Arial'; text-anchor: middle" x="91.998701" y="167.62625" transform="rotate(-0 91.998701 167.62625)">NULL</text>
     </g>
    </g>
    <g id="xtick_2">
     <g id="text_2">
      <text style="font-size: 8px; font-family: 'Arial'; text-anchor: middle" x="264.401299" y="167.72375" transform="rotate(-0 264.401299 167.72375)">CFC_x</text>
     </g>
    </g>
   </g>
   <g id="matplotlib.axis_2">
    <g id="ytick_1">
     <g id="line2d_1">
      <defs>
       <path id="mc49ac2c57e" d="M 0 0 
L 3.5 0 
" style="stroke: #922782; stroke-width: 0.6"/>
      </defs>
      <g>
       <use xlink:href="#mc49ac2c57e" x="72" y="157.275275" style="fill: #922782; stroke: #922782; stroke-width: 0.6"/>
      </g>
     </g>
     <g id="text_3">
      <text style="font-size: 8px; font-family: 'Arial'; text-anchor: end; fill: #922782" x="68.5" y="160.1384" transform="rotate(-0 68.5 160.1384)">914</text>
     </g>
    </g>
    <g id="ytick_2">
     <g id="line2d_2">
      <g>
       <use xlink:href="#mc49ac2c57e" x="72" y="124.285781" style="fill: #922782; stroke: #922782; stroke-width: 0.6"/>
      </g>
     </g>
     <g id="text_4">
      <text style="font-size: 8px; font-family: 'Arial'; text-anchor: end; fill: #922782" x="68.5" y="127.148906" transform="rotate(-0 68.5 127.148906)">916</text>
     </g>
    </g>
    <g id="ytick_3">
     <g id="line2d_3">
      <g>
       <use xlink:href="#mc49ac2c57e" x="72" y="91.296287" style="fill: #922782; stroke: #922782; stroke-width: 0.6"/>
      </g>
     </g>
     <g id="text_5">
      <text style="font-size: 8px; font-family: 'Arial'; text-anchor: end; fill: #922782" x="68.5" y="94.159412" transform="rotate(-0 68.5 94.159412)">918</text>
     </g>
    </g>
    <g id="ytick_4">
     <g id="line2d_4">
      <g>
       <use xlink:href="#mc49ac2c57e" x="72" y="58.306792" style="fill: #922782; stroke: #922782; stroke-width: 0.6"/>
      </g>
     </g>
     <g id="text_6">
      <text style="font-size: 8px; font-family: 'Arial'; text-anchor: end; fill: #922782" x="68.5" y="61.169917" transform="rotate(-0 68.5 61.169917)">920</text>
     </g>
    </g>
    <g id="text_7">
     <text style="font-size: 8px; font-family: 'Arial'; text-anchor: middle; fill: #922782" x="49.56375" y="93.6" transform="rotate(-90 49.56375 93.6)">BIC</text>
    </g>
   </g>
   <g id="line2d_5">
    <path d="M 81.654545 34.690909 
L 254.057143 152.509091 
" clip-path="url(#p9b223ff4d2)" style="fill: none; stroke: #922782; stroke-width: 1.5; stroke-linecap: square"/>
    <defs>
     <path id="me45cb0238c" d="M 0 3 
C 0.795609 3 1.55874 2.683901 2.12132 2.12132 
C 2.683901 1.55874 3 0.795609 3 0 
C 3 -0.795609 2.683901 -1.55874 2.12132 -2.12132 
C 1.55874 -2.683901 0.795609 -3 0 -3 
C -0.795609 -3 -1.55874 -2.683901 -2.12132 -2.12132 
C -2.683901 -1.55874 -3 -0.795609 -3 0 
C -3 0.795609 -2.683901 1.55874 -2.12132 2.12132 
C -1.55874 2.683901 -0.795609 3 0 3 
z
" style="stroke: #922782"/>
    </defs>
    <g clip-path="url(#p9b223ff4d2)">
     <use xlink:href="#me45cb0238c" x="81.654545" y="34.690909" style="fill: #922782; stroke: #922782"/>
     <use xlink:href="#me45cb0238c" x="254.057143" y="152.509091" style="fill: #922782; stroke: #922782"/>
    </g>
   </g>
   <g id="patch_3">
    <path d="M 72 158.4 
L 72 28.8 
" style="fill: none; stroke: #922782; stroke-width: 0.6; stroke-linejoin: miter; stroke-linecap: square"/>
   </g>
   <g id="text_8">
    <text style="font-size: 6px; font-family: 'DejaVu Sans', 'Bitstream Vera Sans', 'Computer Modern Sans Serif', 'Lucida Grande', 'Verdana', 'Geneva', 'Lucid', 'Arial', 'Helvetica', 'Avant Garde', sans-serif; text-anchor: middle; fill: #922782" x="81.654545" y="29.443097" transform="rotate(-0 81.654545 29.443097)">921.4</text>
   </g>
   <g id="text_9">
    <text style="font-size: 6px; font-family: 'DejaVu Sans', 'Bitstream Vera Sans', 'Computer Modern Sans Serif', 'Lucida Grande', 'Verdana', 'Geneva', 'Lucid', 'Arial', 'Helvetica', 'Avant Garde', sans-serif; text-anchor: middle; fill: #922782" x="254.057143" y="147.261278" transform="rotate(-0 254.057143 147.261278)">914.3</text>
   </g>
  </g>
  <g id="axes_2">
   <g id="matplotlib.axis_3">
    <g id="ytick_5">
     <g id="line2d_6">
      <defs>
       <path id="md22bb37731" d="M 0 0 
L -3.5 0 
" style="stroke: #bb5816; stroke-width: 0.6"/>
      </defs>
      <g>
       <use xlink:href="#md22bb37731" x="284.4" y="134.754124" style="fill: #bb5816; stroke: #bb5816; stroke-width: 0.6"/>
      </g>
     </g>
     <g id="text_10">
      <text style="font-size: 8px; font-family: 'Arial'; text-anchor: start; fill: #bb5816" x="287.9" y="137.617249" transform="rotate(-0 287.9 137.617249)">908</text>
     </g>
    </g>
    <g id="ytick_6">
     <g id="line2d_7">
      <g>
       <use xlink:href="#md22bb37731" x="284.4" y="110.530981" style="fill: #bb5816; stroke: #bb5816; stroke-width: 0.6"/>
      </g>
     </g>
     <g id="text_11">
      <text style="font-size: 8px; font-family: 'Arial'; text-anchor: start; fill: #bb5816" x="287.9" y="113.394106" transform="rotate(-0 287.9 113.394106)">910</text>
     </g>
    </g>
    <g id="ytick_7">
     <g id="line2d_8">
      <g>
       <use xlink:href="#md22bb37731" x="284.4" y="86.307839" style="fill: #bb5816; stroke: #bb5816; stroke-width: 0.6"/>
      </g>
     </g>
     <g id="text_12">
      <text style="font-size: 8px; font-family: 'Arial'; text-anchor: start; fill: #bb5816" x="287.9" y="89.170964" transform="rotate(-0 287.9 89.170964)">912</text>
     </g>
    </g>
    <g id="ytick_8">
     <g id="line2d_9">
      <g>
       <use xlink:href="#md22bb37731" x="284.4" y="62.084697" style="fill: #bb5816; stroke: #bb5816; stroke-width: 0.6"/>
      </g>
     </g>
     <g id="text_13">
      <text style="font-size: 8px; font-family: 'Arial'; text-anchor: start; fill: #bb5816" x="287.9" y="64.947822" transform="rotate(-0 287.9 64.947822)">914</text>
     </g>
    </g>
    <g id="ytick_9">
     <g id="line2d_10">
      <g>
       <use xlink:href="#md22bb37731" x="284.4" y="37.861555" style="fill: #bb5816; stroke: #bb5816; stroke-width: 0.6"/>
      </g>
     </g>
     <g id="text_14">
      <text style="font-size: 8px; font-family: 'Arial'; text-anchor: start; fill: #bb5816" x="287.9" y="40.72468" transform="rotate(-0 287.9 40.72468)">916</text>
     </g>
    </g>
    <g id="text_15">
     <text style="font-size: 8px; font-family: 'Arial'; text-anchor: middle; fill: #bb5816" x="303.178125" y="93.6" transform="rotate(-270 303.178125 93.6)">AIC</text>
    </g>
   </g>
   <g id="line2d_11">
    <path d="M 102.342857 34.690909 
L 274.745455 152.509091 
" clip-path="url(#p9b223ff4d2)" style="fill: none; stroke: #bb5816; stroke-width: 1.5; stroke-linecap: square"/>
    <defs>
     <path id="mf77ea8fa6a" d="M 0 3 
C 0.795609 3 1.55874 2.683901 2.12132 2.12132 
C 2.683901 1.55874 3 0.795609 3 0 
C 3 -0.795609 2.683901 -1.55874 2.12132 -2.12132 
C 1.55874 -2.683901 0.795609 -3 0 -3 
C -0.795609 -3 -1.55874 -2.683901 -2.12132 -2.12132 
C -2.683901 -1.55874 -3 -0.795609 -3 0 
C -3 0.795609 -2.683901 1.55874 -2.12132 2.12132 
C -1.55874 2.683901 -0.795609 3 0 3 
z
" style="stroke: #bb5816"/>
    </defs>
    <g clip-path="url(#p9b223ff4d2)">
     <use xlink:href="#mf77ea8fa6a" x="102.342857" y="34.690909" style="fill: #bb5816; stroke: #bb5816"/>
     <use xlink:href="#mf77ea8fa6a" x="274.745455" y="152.509091" style="fill: #bb5816; stroke: #bb5816"/>
    </g>
   </g>
   <g id="patch_4">
    <path d="M 284.4 158.4 
L 284.4 28.8 
" style="fill: none; stroke: #bb5816; stroke-width: 0.6; stroke-linejoin: miter; stroke-linecap: square"/>
   </g>
   <g id="text_16">
    <text style="font-size: 6px; font-family: 'DejaVu Sans', 'Bitstream Vera Sans', 'Computer Modern Sans Serif', 'Lucida Grande', 'Verdana', 'Geneva', 'Lucid', 'Arial', 'Helvetica', 'Avant Garde', sans-serif; text-anchor: middle; fill: #bb5816" x="102.342857" y="29.443097" transform="rotate(-0 102.342857 29.443097)">916.3</text>
   </g>
   <g id="text_17">
    <text style="font-size: 6px; font-family: 'DejaVu Sans', 'Bitstream Vera Sans', 'Computer Modern Sans Serif', 'Lucida Grande', 'Verdana', 'Geneva', 'Lucid', 'Arial', 'Helvetica', 'Avant Garde', sans-serif; text-anchor: middle; fill: #bb5816" x="274.745455" y="147.261278" transform="rotate(-0 274.745455 147.261278)">906.5</text>
   </g>
  </g>
 </g>
 <defs>
  <clipPath id="p9b223ff4d2">
   <rect x="72" y="28.8" width="212.4" height="129.6"/>
  </clipPath>
 </defs>
</svg>
